<svg width="1512" height="1022" viewBox="0 0 1512 1022" fill="none" xmlns="http://www.w3.org/2000/svg">
<path d="M966.5 400.5C957.715 383.311 898.5 344.5 881.5 339L870 380L904.5 414.5C922.667 412.333 978 423 966.5 400.5Z" fill="#F0F8FA"/>
<path d="M953 471C939.476 484.775 907 532 897.115 550.846L932.293 565.164L970.263 534.524C970.038 516.23 964.781 459 953 471Z" fill="#E7FAFD"/>
<path d="M317.5 262.56C321.9 260.56 327.333 264.394 329.5 266.56L348 280.06L355.5 315.06L362 353.06L357.5 376.56L313.5 366.56H278.5L264.5 358.56L246 334.06V312.56L255 304.06H278.5L305.5 328.06L302 315.06L305.5 268.56C307.667 267.394 313.1 264.56 317.5 262.56Z" fill="#F1F8F9"/>
<path d="M958 425.5C947.2 409.5 884 396 867 390.5V432.5L924 502.5C939 482 973.863 449 958 425.5Z" fill="#EEF8FA"/>
<path d="M987 428C953 381.5 906.992 390.335 890 384V432.375L946.972 513C961.964 489.388 1005.51 453.322 987 428Z" fill="#F0F9FA"/>
<circle cx="739.102" cy="213.317" r="92.5009" fill="#FFA7D1"/>
<path d="M751.814 209.075C752.923 206.398 754.548 203.966 756.597 201.917C758.646 199.868 761.078 198.243 763.755 197.134C766.432 196.025 769.301 195.454 772.199 195.454C775.096 195.454 777.965 196.025 780.642 197.134C783.319 198.243 785.752 199.868 787.801 201.917C789.849 203.966 791.475 206.398 792.583 209.075" stroke="#ADE6ED" stroke-width="4.98676"/>
<path d="M673.758 209.075C674.867 206.398 676.492 203.966 678.541 201.917C680.59 199.868 683.022 198.243 685.699 197.134C688.376 196.025 691.245 195.454 694.143 195.454C697.04 195.454 699.91 196.025 702.587 197.134C705.264 198.243 707.696 199.868 709.745 201.917C711.794 203.966 713.419 206.398 714.528 209.075" stroke="#ADE6ED" stroke-width="4.98676"/>
<path d="M736.556 190.406L723.278 222.552C721.923 225.835 724.336 229.443 727.888 229.443H757.772" stroke="#ADE6ED" stroke-width="4.98676"/>
<path d="M698.876 267.699C697.442 267.699 696.029 267.363 694.753 266.719C693.477 266.076 692.375 265.142 691.537 263.996C690.699 262.85 690.15 261.524 689.934 260.128C689.719 258.732 689.843 257.305 690.297 255.965C690.751 254.626 691.522 253.412 692.546 252.423C693.57 251.435 694.818 250.701 696.187 250.281C697.556 249.861 699.006 249.767 700.419 250.008C701.831 250.249 703.165 250.817 704.311 251.666" stroke="#ADE6ED" stroke-width="4.98676"/>
<path d="M698.874 267.698C697.441 267.698 696.028 268.033 694.752 268.677C693.476 269.321 692.373 270.254 691.535 271.4C690.698 272.546 690.148 273.872 689.933 275.268C689.717 276.665 689.841 278.091 690.296 279.431C690.75 280.771 691.521 281.985 692.545 282.973C693.569 283.962 694.816 284.696 696.185 285.116C697.554 285.536 699.004 285.629 700.417 285.388C701.83 285.147 703.164 284.579 704.31 283.73" stroke="#ADE6ED" stroke-width="4.98676"/>
<circle cx="739.102" cy="213.317" r="92.5009" fill="#F1F8F9"/>
<path d="M739.102 305.818C714.569 305.818 691.041 296.072 673.694 278.725C656.346 261.378 646.601 237.85 646.601 213.317C646.601 188.784 656.346 165.256 673.694 147.909C691.041 130.562 714.569 120.816 739.102 120.816L739.102 213.317L739.102 305.818Z" fill="#FF4B11"/>
<rect x="608" y="327" width="262" height="328" fill="#FFA7D1"/>
<rect x="738.612" y="326.74" width="131.669" height="328.442" fill="#03C3A3"/>
<mask id="mask0_1744_76496" style="mask-type:alpha" maskUnits="userSpaceOnUse" x="738" y="326" width="133" height="329">
<rect x="738.565" y="326.348" width="131.669" height="328.442" fill="#4B4BFF"/>
</mask>
<g mask="url(#mask0_1744_76496)">
<rect x="795.488" y="820.56" width="9.46549" height="787.213" transform="rotate(180 795.488 820.56)" fill="#FF4B11"/>
<rect x="763.936" y="820.56" width="9.46549" height="787.213" transform="rotate(180 763.936 820.56)" fill="#FF4B11"/>
<rect x="827.041" y="820.56" width="9.46549" height="787.213" transform="rotate(180 827.041 820.56)" fill="#FF4B11"/>
<rect x="858.592" y="820.56" width="9.46549" height="787.213" transform="rotate(180 858.592 820.56)" fill="#FF4B11"/>
<rect x="729.23" y="639.138" width="9.46549" height="205.086" transform="rotate(-90 729.23 639.138)" fill="#FF4B11"/>
<rect x="729.23" y="607.586" width="9.46549" height="205.086" transform="rotate(-90 729.23 607.586)" fill="#FF4B11"/>
<rect x="729.23" y="576.033" width="9.46549" height="205.086" transform="rotate(-90 729.23 576.033)" fill="#FF4B11"/>
<rect x="729.23" y="544.481" width="9.46549" height="205.086" transform="rotate(-90 729.23 544.481)" fill="#FF4B11"/>
<rect x="729.23" y="512.932" width="9.46549" height="205.086" transform="rotate(-90 729.23 512.932)" fill="#FF4B11"/>
<rect x="729.23" y="481.379" width="9.46549" height="205.086" transform="rotate(-90 729.23 481.379)" fill="#FF4B11"/>
<rect x="729.23" y="449.83" width="9.46549" height="205.086" transform="rotate(-90 729.23 449.83)" fill="#FF4B11"/>
<rect x="729.23" y="418.277" width="9.46549" height="205.086" transform="rotate(-90 729.23 418.277)" fill="#FF4B11"/>
<rect x="729.23" y="386.728" width="9.46549" height="205.086" transform="rotate(-90 729.23 386.728)" fill="#FF4B11"/>
<rect x="729.23" y="355.175" width="9.46549" height="205.086" transform="rotate(-90 729.23 355.175)" fill="#FF4B11"/>
</g>
<path d="M739 678.5C739 695.872 732.152 712.532 719.962 724.815C707.772 737.099 691.239 744 674 744C656.761 744 640.228 737.099 628.038 724.815C615.848 712.532 609 695.872 609 678.5L674 678.5H739Z" fill="#ADE6ED"/>
<path d="M869.603 678.75C869.603 696.188 862.684 712.911 850.367 725.242C838.05 737.572 821.345 744.499 803.927 744.499C786.508 744.499 769.803 737.572 757.486 725.242C745.169 712.911 738.25 696.188 738.25 678.75L803.927 678.75H869.603Z" fill="#ADE6ED"/>
<path d="M870 730C870 747.504 863.046 764.292 850.669 776.669C838.292 789.046 821.504 796 804 796C786.496 796 769.708 789.046 757.331 776.669C744.954 764.292 738 747.504 738 730L804 730H870Z" fill="#ADE6ED"/>
<path d="M739 730C739 747.504 732.099 764.292 719.815 776.669C707.532 789.046 690.872 796 673.5 796C656.128 796 639.468 789.046 627.185 776.669C614.901 764.292 608 747.504 608 730L673.5 730H739Z" fill="#ADE6ED"/>
<path d="M738.689 0L794.76 112.083H682.619L738.689 0Z" fill="black"/>
<path d="M809.25 978.669L769.196 811.667L849.304 811.667L809.25 978.669Z" fill="#FF4B11"/>
<path d="M669.311 978.669L629.257 811.667L709.365 811.667L669.311 978.669Z" fill="black"/>
<path d="M373.572 388.594C373.31 390.484 373.08 392.16 372.801 394.213C364.901 393.918 358.053 390.286 349.941 390.237C359.646 405.715 376.216 427.256 356.937 442.422C337.115 460.003 312.07 445.987 292.626 435.389C290.672 436.77 291.608 438.117 292.281 439.333C298.621 450.867 307.571 458.935 320.955 461.531C331.334 466.132 349.185 458.393 348.66 469.796C348.791 514.603 369.483 555.105 397.204 589.298C427.536 624.657 475.999 625.61 514.986 604.579C558.735 581.559 572.349 527.846 586.604 484.091C589.773 477.272 594.979 451.557 602.599 452.165C605.867 452.888 603.782 457.062 602.961 459.066C585.996 501.031 578.031 546.89 549.834 583.596C532.853 608.424 503.08 618.611 474.866 624.756C455.57 628.831 436.864 622.916 419.555 614.782C388.09 599.649 371.799 565.522 356.099 536.095C345.08 515.901 346.229 492.602 339.906 471.291C313.302 469.73 288.816 459.033 282.313 431.199C266.318 406.241 264.363 402.035 275.678 373.067C255.84 360.563 234.639 336.754 241.224 311.878C250.979 288.678 283.693 300.426 297.701 314.129C300.148 313.061 298.801 311.484 298.637 310.268C293.333 289.433 294.811 256.9 322.844 256.194C352.667 263.998 356.132 305.486 365.066 330.494C400.439 341.98 413.134 375.186 401.014 409.264C405.12 422.688 409.324 435.455 410.786 449.323C415.17 481.265 432.332 518.037 466.556 525.184C478.446 528.011 488.923 523.278 496.872 513.962C519.913 481.61 523.936 439.514 541.787 404.253C548.767 386.442 580.708 329.361 600.579 331.119C601.877 332.351 601.286 334.651 598.904 336.311C582.301 347.845 570.986 363.816 560.952 380.97C542.526 412.534 532.476 447.844 520.422 482.103C512.851 506.601 495.804 537.54 465.735 531.839C426.173 523.393 408.684 482.004 402.361 445.79C401.753 435.209 400.505 425.071 395.644 415.524C394.183 412.041 393.805 409.1 395.184 405.321C399.815 392.603 399.668 379.606 396.219 366.577C391.916 344.559 351.862 328.276 332.089 334.766C319.411 337.855 310.478 353.974 320.495 364.703C334.027 379.606 354.9 383.665 373.605 388.578L373.572 388.594ZM298.67 370.274C278.027 366.889 269.668 400.835 279.16 413.931C292.971 436.737 358.628 464.636 359.498 420.569C350.762 395.676 324.65 372.755 298.67 370.274ZM311.364 365.114C308.638 355.469 311.841 347.024 307.554 338.989C303.153 332.63 298.9 326.107 293.858 320.291C282.822 305.963 245.527 294.346 246.233 323.084C249.846 340.517 260.898 356.57 276.5 365.328C278.963 366.675 281.426 367.086 284.136 365.673C292.741 361.417 302.25 364.638 311.364 365.114ZM357.462 327.487C350.088 305.667 345.605 269.273 321.366 262.848C290.278 268.172 304.565 318.04 314.944 336.459C326.752 324.678 340.481 322.377 357.446 327.471L357.462 327.487Z" fill="black"/>
<path d="M862.812 195.153C887.889 200.181 900.616 235.786 879.07 251.955C862.714 266.578 840.461 263.341 820.294 262.799C801.704 291.372 771.208 317.793 734.98 312.157C732.32 311.582 728.165 311.665 728.033 308.033C728.099 301.329 757.824 311.648 775.1 298.093C853.599 256.144 835.124 126.094 737.953 130.152C727.278 131.598 725.357 123.382 737.066 123.612C755.886 123.53 773.836 127.605 790.668 135.87C811.771 147.355 822.807 170.835 829.015 193.181C837.538 195.416 845.289 192.606 854.322 193.263C823.448 51.4971 649.304 49.1475 617.987 192.343C625.328 194.561 632.603 190.158 639.747 193.592C639.484 195.334 639.221 197.009 639.008 198.39C635.05 200.542 630.796 199.063 626.165 199.589C621.534 218.649 622.519 241.488 628.185 259.118C634.196 263.407 644.279 252.595 647.383 260.926C643.984 271.162 599.43 265.773 590.594 260.499C561.001 243.591 578.984 198.636 610.006 194.857C644.952 39.3547 826.584 41.6386 862.812 195.136V195.153ZM617.609 201.939C572.612 199.458 568.194 266.66 619.908 258.872C617.067 239.27 616.492 221.722 617.609 201.939ZM851.201 201.216C850.347 202.497 850.035 202.727 850.035 202.99C850.692 220.769 846.767 239.533 850.249 256.802C893.292 254.485 894.901 201.265 851.201 201.216ZM842.021 254.83C841.233 236.641 843.434 219.766 842.071 202.004C837.494 200.997 833.728 201.046 830.772 202.152C830.673 220.571 828.407 237.873 824.072 255.947C830.148 256.506 835.961 257.755 842.021 254.813V254.83Z" fill="black"/>
<path d="M623.174 970.317C596.75 931.622 650.287 923.686 663.261 952.95C673.262 971.5 673.804 992.663 668.04 1012.74C609.379 1005.36 551.851 986.748 494.094 973.324C488.034 973.521 484.273 968.083 489.43 963.581C502.699 954.774 521.01 957.403 536.381 957.074C566.106 956.942 594.435 963.794 623.174 970.317ZM662.67 998.463C637.806 993.337 613.107 990.577 588.621 984.037C566.549 979.995 517.216 957.764 498.758 967.113C553.264 981.474 606.899 996.163 662.67 1005.99V998.447V998.463ZM636.509 942.187C609.888 941.317 627.066 971.977 642.454 975.805C648.07 976.594 665.232 984.892 663.212 973.702C659.911 959.309 654.327 941.695 636.509 942.187ZM546.465 964.944C568.175 973.521 618.296 985.647 658.006 989.804C622.156 976.15 586.289 964.139 546.465 964.944Z" fill="black"/>
<path d="M835.052 987.849C878.21 993.272 965.923 982.805 996.222 1016.88C997.897 1024.05 989.095 1021.58 984.989 1021.45C927.313 1021.88 869.851 1019 812.504 1012.82C785.621 948.284 897.72 901.061 835.069 987.849H835.052ZM980.916 1014.4C963.82 1001.22 940.583 1007.75 920.531 1004.9C886.093 1003.71 851.064 998.628 816.889 1000.14C816.61 1002.59 817.25 1003.95 818.219 1006.55C872.183 1013.61 926.459 1013.88 980.916 1014.39V1014.4ZM825.363 988.917C877.504 927.17 823.409 941.892 814.804 988.917H825.363Z" fill="black"/>
<path d="M709.953 384.24C731.794 307.245 722.105 319.798 754.851 382.465C757.2 382.301 756.707 380.428 756.871 379.179C757.528 374.414 767.037 307.245 773.967 329.837C752.914 398.075 774.148 442.389 728.674 344.74C720.89 360.694 721.317 379.426 712.974 395.282C706.241 402.56 703.794 386.869 701.298 382.728C695.074 366.215 686.222 350.951 678.569 335.144C681.903 315.312 705.633 378.916 709.953 384.223V384.24Z" fill="black"/>
<path d="M778.171 454.301C773.671 441.567 780.388 427.617 774.328 415.459C767.94 405.255 812.198 406.865 817.273 408.623C819.983 470.436 831.905 448.435 778.171 454.285V454.301ZM812.56 446.595C811.377 437.443 813.89 428.62 810.474 421.407C800.883 425.054 797.418 445.708 787.598 431.429C786.563 430.411 785.66 429.063 783.689 430.361C783.623 435.422 782.769 440.68 784.329 446.152C794.199 446.99 801.803 446.464 812.56 446.595ZM805.219 415.672C797.221 413.799 791.342 414.062 785.052 416.329C787.827 422.031 789.158 423.575 794.61 427.338C797.911 423.707 801.245 420.043 805.219 415.672Z" fill="black"/>
<path d="M633.704 413.52C647.761 410.546 660.702 412.353 674.48 414.752C682.38 416.001 676.435 433.681 677.978 440.007C677.929 451.377 677.978 450.851 667.287 450.884C656.547 450.802 645.528 452.494 634.82 452.395C630.698 440.319 634.607 427.371 633.704 413.52ZM671.229 443.687C671.229 439.201 671.262 435.669 671.229 432.153C670.358 423.296 661.704 436.08 659.799 439.136C657.434 442.619 654.461 442.833 651.719 439.727C647.81 436.737 645.462 427.897 640.355 428.078C640.273 433.516 639.271 439.054 640.453 445.067C650.701 445.511 660.341 444.147 671.245 443.704L671.229 443.687ZM666.089 421.045C656.465 418.022 651.834 417.792 645.331 420.158C648.533 424.479 651.029 429.179 654.872 432.498C658.748 428.406 663.658 426.057 666.089 421.045Z" fill="black"/>
<path d="M674.661 205.29C667.418 205.882 659.486 207.279 651.981 207.295C648.664 207.377 648.631 202.892 651.16 201.741C653.394 200.969 655.775 200.542 658.123 200.279C666.877 200.378 713.253 192.392 713.27 202.678C709.148 207.788 696.207 202.3 689.293 205.192C686.748 215.823 678.339 215.1 674.661 205.29Z" fill="black"/>
<path d="M786.974 202.612C777.071 218.238 777.203 200.411 765.822 203.68C760.534 203.385 750.401 208.445 747.921 201.972C747.642 198.685 751.387 198.258 753.834 198.176C771.931 197.634 790.078 194.808 808.159 195.613C820.344 203.878 791.145 202.087 786.974 202.629V202.612Z" fill="black"/>
<path d="M747.379 247.863C747.773 244.544 745.95 240.633 749.99 239.697C754.917 240.223 754.096 248.98 760.813 248.915C767.759 250.837 762.685 256.818 757.742 255.06C743.766 251.872 733.502 263.374 715.388 253.811C711.89 252.759 708.589 248.684 713.286 246.959C724.815 250.13 735.571 253.86 747.379 247.863Z" fill="black"/>
<path d="M733.206 527.107C733.371 534.501 725.242 537.113 725.225 528.816C725.898 524.379 731.154 522.539 733.206 527.107Z" fill="black"/>
<path d="M733.108 236.378C727.557 232.878 731.794 226.684 737.066 228.097C742.387 231.399 736.803 234.784 733.108 236.378Z" fill="black"/>
<path d="M726.195 470.19C732.468 469.697 729.348 479.506 724.766 478.882C720.89 478.11 721.465 469.812 726.195 470.19Z" fill="black"/>
<path d="M733.766 594.046C730.941 600.635 724.405 593.553 726.835 589.38C730.071 586.34 734.57 589.61 733.766 594.046Z" fill="black"/>
<path d="M662.686 998.463V1006.01C606.915 996.18 553.296 981.49 498.774 967.13C517.2 957.781 566.615 980.012 588.637 984.037C613.123 990.577 637.806 993.321 662.686 998.463Z" fill="#E9F9FB"/>
<path d="M636.508 942.188C654.327 941.711 659.91 959.325 663.211 973.702C665.248 984.925 648.07 976.561 642.453 975.805C627.049 971.961 609.871 941.317 636.508 942.171V942.188Z" fill="#E9F9FB"/>
<path d="M546.464 964.944C586.272 964.139 622.155 976.167 658.005 989.805C618.295 985.631 568.191 973.521 546.464 964.944Z" fill="#E9F9FB"/>
<path d="M980.917 1014.4C926.46 1013.89 872.168 1013.63 818.22 1006.56C817.251 1003.97 816.611 1002.59 816.89 1000.16C851.065 998.644 886.094 1003.72 920.532 1004.92C940.6 1007.75 963.821 1001.24 980.917 1014.42V1014.4Z" fill="#E9F9FB"/>
<path d="M825.347 988.901H814.788C823.459 941.777 877.439 927.252 825.347 988.901Z" fill="#E9F9FB"/>
<path d="M983.5 441.5C969.976 455.275 863.083 577.141 840.54 661.676L829.431 689.792L849.801 712.991L902.706 691.206L947.5 665L995 608.5L1012 547.5C1018 511.5 995.281 429.5 983.5 441.5Z" fill="#EDF9FB"/>
<path d="M924.38 498.648C928.683 494.886 959.754 441.929 960.69 459.839C913.164 525.924 863.798 593.669 838.113 671.896C830.592 688.902 835.387 699.845 850.857 709.835C878.545 699.073 908.023 689.757 932.066 671.781C963.17 646.346 994.372 615.407 1003.78 575.134C1025.67 496.825 989.626 407.818 921.079 364.851C907.925 358.755 870.629 329.459 859.282 333.583C857.607 334.52 855.373 331.809 855.734 329.656C858.887 314.507 892.422 342.111 900.912 344.74C985.915 386.392 1037.28 487.393 1009.35 579.883C994.586 628.896 952.922 670.762 908.122 693.979C889.17 701.948 870.12 709.687 851.103 717.508C841.562 715.389 835.206 703.197 828.03 696.181C823.776 688.886 830.115 679.783 831.216 672.126C849.034 613.911 882.027 562.22 915.808 512.171C921.999 503.906 912.704 495.461 908.27 488.79C890.205 468.908 874.095 447.4 856.605 427.059C854.158 422.146 862.55 421.062 863.962 425.432C883.997 449.816 904.64 474.626 924.413 498.648H924.38Z" fill="black"/>
</svg>
