<svg width="808" height="1077" viewBox="0 0 808 1077" fill="none" xmlns="http://www.w3.org/2000/svg">
<path d="M0.506836 55.5537C262.461 50.4544 524.439 48.2347 786.441 48.8947C786.534 63.6087 787.416 78.2847 787.846 92.9887L791.612 213.586C796.732 380.163 800.911 546.764 804.148 713.389C805.376 775.619 807.98 837.848 808.002 900.1C784.375 901.24 760.579 901.12 736.926 901.44L666.677 902.77L627.967 903.23C619.75 903.3 611.336 902.99 603.144 903.59C601.605 903.7 600.337 904.01 598.999 904.81L598.879 904.7C557.877 904.39 516.628 906.39 475.628 907.44L318.178 910.6C291.727 911.2 265.319 912.14 238.859 912.42C228.239 912.53 217.259 913.2 206.68 912.53L206.668 912C194.311 910.78 178.856 912.04 166.167 912.26C149.344 912.56 24.4968 915.7 17.9658 912.47C10.3965 626.868 4.57684 341.229 0.506836 55.5537Z" fill="#ACE5EC"/>
<path d="M206.68 912.53C217.259 913.2 228.239 912.53 238.859 912.42C265.319 912.14 291.727 911.2 318.178 910.6L475.628 907.44C516.628 906.39 557.877 904.39 598.879 904.7L598.999 904.81C618.74 941.28 634.697 982.39 640.345 1023.59C641.042 1028.67 642.886 1036.32 641.451 1041.25C640.848 1043.33 639.157 1044.45 637.313 1045.39C627.185 1050.53 601.857 1054.35 589.689 1056.76C574.217 1059.84 558.682 1062.56 543.083 1064.93C527.485 1067.29 511.841 1069.29 496.15 1070.93C480.459 1072.56 464.738 1073.84 448.989 1074.75C433.239 1075.66 417.476 1076.2 401.701 1076.38C365.357 1076.51 328.562 1074 292.311 1071.43C282.926 1070.76 258.43 1070.83 250.812 1068.12C250.564 1068.03 250.322 1067.93 250.078 1067.83C249.722 1069.38 249.381 1070.96 248.473 1072.29C247.434 1073.83 245.836 1074.96 243.995 1075.28C242.279 1075.57 240.709 1075.12 239.374 1074.01C237.165 1072.17 236.64 1069.81 236.459 1067.07C231.753 1068.8 175.249 1065.68 170.519 1063.04C169.823 1062.65 169.337 1062.3 169.123 1061.54C167.3 1055.08 169.439 1045.83 170.171 1039.22C174.786 997.61 186.912 949.67 206.68 912.53Z" fill="#FE4B11"/>
<path d="M540.03 927.53C541.593 927.82 543.441 928.03 544.84 928.82C548.029 930.62 549.266 936.21 550.233 939.5C556.581 961.13 562.123 983.13 567.56 1005C569.438 1012.55 572.523 1020.96 573.416 1028.63C573.6 1030.21 573.235 1032.63 572.329 1033.97C571.364 1035.39 570.616 1035.54 568.999 1035.71C568.265 1036.12 567.617 1036.5 566.771 1036.63C565.133 1036.88 563.645 1036.51 562.353 1035.47C561.377 1034.68 560.784 1033.79 560.411 1032.6C556.427 1019.86 554.008 1006.21 550.697 993.24C548.491 984.6 534.972 938.83 535.206 934.16C535.359 931.11 537.919 929.41 540.03 927.53Z" fill="black"/>
<path d="M363.259 697.378C387.779 699.06 411.199 698.062 435.53 694.84C435.027 718.72 434.53 762.984 435.373 786.847C417.306 798.131 394.128 802.291 373.362 797.45C366.585 795.87 356.444 793.231 351.981 787.492C353.687 787.037 355.97 786.299 357.264 785.075C363.528 779.152 363.061 708.729 363.259 697.378Z" fill="black"/>
<path d="M236.459 1067.07C241.84 1034.31 247.467 1001.59 253.34 968.92C255.057 959.454 256.826 949.994 258.645 940.54C259.389 936.67 259.777 932.31 260.926 928.58C261.409 927.01 262.302 925.63 263.628 924.64C265.032 923.59 266.874 923.07 268.618 923.31C270.288 923.54 271.927 924.51 272.848 925.94C274.232 928.07 274.099 930.57 273.866 933C273.111 940.83 271.011 948.61 269.697 956.37C266.404 975.83 263.126 995.23 259.501 1014.63C256.219 1032.19 254.258 1050.52 250.078 1067.83C249.722 1069.38 249.381 1070.96 248.473 1072.29C247.434 1073.83 245.836 1074.96 243.995 1075.28C242.279 1075.57 240.709 1075.12 239.374 1074.01C237.165 1072.17 236.64 1069.81 236.459 1067.07Z" fill="black"/>
<path d="M431.296 83.9508C445.787 69.5328 461.878 60.0368 482.87 60.1868C492.309 60.2538 502.474 61.5638 509.355 68.6948C515.549 75.1138 516.906 83.6448 516.622 92.2178C516.595 92.9905 516.564 93.7631 516.527 94.5358C530.268 88.4168 547.44 82.6378 562.261 88.4918C568.054 90.7798 572.426 95.0118 574.819 100.771C576.618 105.103 577.008 109.728 577.379 114.357C587.668 111.717 597.436 109.194 607.212 115.005C608.323 115.67 609.421 116.357 610.504 117.067C619.019 113.988 645.394 114.917 655.846 114.667C674.592 114.217 693.233 113.413 711.995 113.412L719.749 614.517L721.655 773.444C721.885 795.365 722.659 817.328 722.507 839.248L613.941 840.817C599.63 840.905 585.319 841.068 571.01 841.306C565.041 841.406 558.876 841.091 552.95 841.594C532.841 818.81 507.229 796.845 478.73 785.377C478.729 785.269 478.725 785.161 478.725 785.053C478.734 783.156 478.924 781.047 478.063 779.3C477.254 777.657 475.838 775.874 474.009 775.355C471.9 774.756 470.126 775.224 468.25 776.211C462.229 772.037 455.049 799.769 448.604 796.288C446.677 798.406 444.771 800.493 441.683 800.484C439.182 800.476 437.278 798.945 435.667 797.196C435.564 797.084 435.471 796.963 435.373 796.847C417.306 808.131 394.128 782.291 373.362 777.45C366.585 775.87 356.444 773.231 351.981 767.492C349.957 766.693 348.144 765.681 346.258 764.611C341.22 769.138 335.334 772.339 329.538 775.783C327.47 774.456 325.876 773.525 323.357 774.027C321.548 774.387 320.113 775.575 319.178 777.137C318 779.105 317.916 780.953 318.128 783.18C296.292 800.727 266.346 822.772 249.788 845.337C243.571 843.641 208.17 845.737 198.065 845.927C165.359 846.539 132.641 846.556 99.942 847.376C99.983 829.923 98.857 812.438 98.688 794.976C97.454 693.141 95.4627 591.321 92.714 489.516C91.804 416.888 90.318 344.273 88.256 271.67C87.285 220.856 86.989 169.852 84.634 119.089L217.665 116.968C231.278 116.825 244.888 116.075 258.503 116.432C264.432 108.848 270.808 103.89 280.6 102.607C289.37 101.458 298.512 103.05 306.727 106.179C310.788 96.4728 316.607 87.7708 326.758 83.6758C333.649 80.8958 340.866 81.3688 347.62 84.3008C354.963 87.4878 360.461 92.7708 365.779 98.6048C372 86.0068 380.28 72.6688 394.296 67.8378C401.646 65.3038 410.524 65.3938 417.575 68.8338C424.194 72.0638 428.052 77.5718 431.296 83.9508Z" fill="#FDFDFD"/>
<path d="M233 649.5C155.4 609.9 146.333 487 151.5 430.5C148.5 433.666 138.5 434.3 122.5 411.5C106.5 388.7 125.833 372 137.5 366.5C128.3 335.7 129 287 159 287C139 263 151 239 163.5 231.5C171.18 226.892 186.822 234.375 198.423 241.719C179.248 225.203 181.393 201.147 185.5 190C207.571 175.069 221.698 187.881 228.466 200.813C222.872 184.793 218.752 160.073 232 145.5C242.482 133.969 253.108 140.695 260.924 150.829C255.105 136.439 254.409 119.278 274 111C293.374 102.814 306.248 114.173 313.639 127.459C310.055 112.518 311.53 95.8989 330.5 91.5C358.1 85.1 364.667 118.5 364.5 135.999C365.167 115.333 374.1 73.9 404.5 73.5C430.042 73.1639 428.429 95.3936 422.615 111.898C431.875 93.0586 453.188 66.8133 487.5 67.4995C519.927 68.148 510.732 97.9753 497.208 121.234C522.29 88.6425 549.293 92.9619 563 96.4993C573.022 99.0856 566.517 124.491 559.43 143.995C571.81 118.472 589.689 117.292 598 120.5C626.4 132.1 605.5 160.499 584.5 178.499C616.5 154.5 629.333 154.832 638.5 160.499C656.1 184.899 631.167 215 616.5 227C639.7 210.2 648.5 214.666 650 219C664.4 235 648.333 265.333 638.5 278.5C684.14 282.754 669.878 345.01 655.927 378.654C670.354 365.492 680.272 369.965 683.5 374C700.3 414.8 668.167 426.333 650 427L632 518.5C592.5 653.5 470.5 685 431 690C391.5 695 330 699 233 649.5Z" fill="black"/>
<path d="M117.368 420.14C124.579 429.392 134.639 433.229 145.964 434.562C145.346 494.24 144.777 560.597 181.78 611.037C220.348 663.61 286.83 686.346 348.856 695.979C349.361 710.93 348.369 725.906 347.372 740.818C346.853 748.589 345.648 757.856 346.258 765.611C348.144 766.681 349.957 767.693 351.981 768.492C356.444 774.231 366.585 776.87 373.362 778.45L374.288 778.666C394.901 783.475 420.573 789.464 438.373 778.347L445.5 774L449.331 766.5C450.685 757.45 449.338 747.593 449.331 738.445L449.262 692.555C451.823 692.072 454.377 691.547 456.922 690.981C459.467 690.416 462.001 689.81 464.526 689.162C467.051 688.514 469.565 687.826 472.068 687.098C474.571 686.37 477.062 685.601 479.54 684.791C482.018 683.983 484.482 683.134 486.933 682.245C489.384 681.357 491.819 680.429 494.24 679.462C496.661 678.495 499.065 677.489 501.453 676.444C503.842 675.4 506.213 674.318 508.566 673.196C510.919 672.075 513.254 670.916 515.57 669.72C517.886 668.524 520.182 667.29 522.458 666.019C524.734 664.749 526.989 663.443 529.223 662.099C531.457 660.756 533.669 659.377 535.858 657.962C538.047 656.548 540.213 655.098 542.356 653.613C544.499 652.129 546.617 650.611 548.711 649.058C550.804 647.505 552.872 645.919 554.915 644.299C556.957 642.68 558.973 641.028 560.962 639.343C621.163 588.675 650.246 512.102 656.825 435.261C659.276 434.881 661.738 434.491 664.151 433.909C664.841 433.743 665.526 433.56 666.207 433.359C666.888 433.159 667.564 432.942 668.234 432.708C668.904 432.474 669.568 432.224 670.225 431.956C670.883 431.69 671.534 431.406 672.177 431.106C672.82 430.807 673.456 430.492 674.084 430.16C674.711 429.829 675.33 429.482 675.941 429.12C676.551 428.758 677.152 428.381 677.744 427.988C678.335 427.596 678.917 427.19 679.488 426.768C680.059 426.348 680.62 425.913 681.169 425.463C681.718 425.014 682.256 424.551 682.783 424.075C683.31 423.599 683.824 423.111 684.326 422.609C684.828 422.108 685.317 421.594 685.793 421.068C686.27 420.542 686.733 420.004 687.182 419.455C687.631 418.906 688.067 418.346 688.489 417.775C688.91 417.204 689.317 416.623 689.71 416.032C690.103 415.441 690.48 414.84 690.843 414.23C696.167 405.46 698.09 393.521 695.54 383.557C693.778 376.671 689.868 370.182 683.582 366.574C677.46 363.06 670.189 362.839 663.504 364.695C657.219 366.44 650.191 370.205 647.021 376.181C646.168 377.789 645.193 380.369 646.041 382.175C646.76 383.707 647.84 384.391 649.384 384.916C656.123 387.206 660.799 382.54 666.476 379.89C669.21 378.613 672.708 377.311 675.671 378.543C678.03 379.524 679.275 381.859 680.163 384.114C682.572 390.233 682.542 397.797 679.873 403.818C676.673 411.04 668.849 416.904 661.238 418.701C657.067 419.686 652.337 419.876 648.388 421.608C646.046 422.636 644.704 423.802 644.025 426.308C641.723 434.815 641.193 447.407 639.698 456.671C635.524 482.546 629.432 508.204 619.574 532.548C595.417 592.2 552.054 639.327 492.482 664.42C425.649 692.571 343.065 689.555 276.467 662.289C181.21 623.29 159.244 560.935 159.794 462.828C159.837 455.219 162.362 429.021 159.738 423.59C157.041 418.009 145.51 421.019 140.079 418.865C133.764 416.361 128.396 411.399 125.773 405.1C123.422 399.453 122.5 389.969 125.019 384.311C126.151 381.768 128.074 379.966 130.68 378.994C139.327 375.768 143.937 382.024 151.162 384.745C153.747 385.719 156.895 385.37 159.301 384.034C160.72 383.245 161.768 382.128 162.091 380.503C162.487 378.507 161.02 375.995 159.875 374.487C155.21 368.347 146.863 364.859 139.43 363.754C132.124 362.668 125.038 364.296 119.1 368.781C113.081 373.327 110.204 380.183 109.242 387.5C107.73 398.989 110.168 410.901 117.368 420.14Z" fill="black"/>
<path d="M346.258 764.611C346.258 764.611 357 772.5 370.5 777.137C391.266 781.978 430.933 777.784 449 766.5C455.445 769.981 462.229 772.037 468.25 776.211C470.126 775.224 471.9 774.756 474.009 775.355C475.838 775.874 477.254 777.657 478.063 779.3C478.924 781.047 478.734 783.156 478.725 785.053C478.725 785.161 478.729 785.269 478.73 785.377C507.229 796.845 532.841 818.81 552.95 841.594C527.32 842.914 501.505 842.857 475.847 843.16L387.435 844.532L307.336 845.61C288.174 845.943 268.944 846.751 249.782 846.24L249.788 845.337C266.346 822.772 296.292 800.727 318.128 783.18C317.916 780.953 318 779.105 319.178 777.137C320.113 775.575 321.548 774.387 323.357 774.027C325.876 773.525 327.47 774.456 329.538 775.783C335.334 772.339 341.22 769.138 346.258 764.611Z" fill="#FE4B11"/>
<path d="M318.128 783.18C317.916 780.953 318 779.105 319.178 777.137C320.113 775.575 321.548 774.387 323.357 774.027C325.876 773.525 327.47 774.456 329.538 775.783C341.934 794.128 355.216 800.451 376.581 804.558C377.397 804.719 378.215 804.87 379.035 805.012C379.855 805.153 380.677 805.284 381.5 805.406C382.323 805.526 383.148 805.637 383.973 805.737C384.799 805.837 385.626 805.928 386.455 806.008C387.283 806.088 388.112 806.157 388.942 806.217C389.771 806.276 390.602 806.325 391.433 806.364C392.264 806.402 393.096 806.431 393.927 806.45C394.759 806.468 395.591 806.475 396.423 806.473C397.255 806.47 398.087 806.457 398.919 806.435C399.75 806.411 400.582 806.378 401.413 806.335C402.244 806.291 403.074 806.236 403.903 806.172C404.732 806.108 405.561 806.033 406.389 805.949C407.216 805.863 408.043 805.768 408.868 805.663C409.693 805.557 410.517 805.442 411.34 805.317C412.163 805.191 412.983 805.055 413.802 804.909C414.621 804.763 415.439 804.606 416.254 804.44C417.069 804.273 417.882 804.097 418.693 803.911C419.504 803.724 420.312 803.527 421.118 803.321C421.924 803.114 422.727 802.897 423.528 802.671C424.328 802.444 425.125 802.208 425.92 801.962C426.715 801.715 427.506 801.459 428.295 801.193C429.083 800.927 429.868 800.651 430.65 800.366C431.431 800.08 432.209 799.785 432.983 799.481C433.757 799.176 434.527 798.862 435.294 798.539C436.061 798.215 436.823 797.881 437.581 797.539C438.339 797.196 439.093 796.844 439.842 796.483C440.591 796.121 441.336 795.75 442.076 795.371C442.817 794.991 443.552 794.602 444.282 794.204C445.013 793.805 445.738 793.398 446.459 792.982C447.179 792.566 447.894 792.141 448.604 791.707C449.314 791.273 450.018 790.831 450.717 790.38C451.416 789.928 452.11 789.468 452.797 789C458.328 785.199 463.371 780.808 468.25 776.211C470.126 775.224 471.9 774.756 474.009 775.355C475.838 775.874 477.254 777.657 478.063 779.3C478.924 781.047 478.734 783.156 478.725 785.053C478.725 785.161 478.729 785.269 478.73 785.377C470.945 795.3 460.664 803.059 449.569 808.937C423.014 823.005 389.571 825.804 360.899 816.953C341.803 811.057 327.489 800.979 318.128 783.18Z" fill="black"/>
<path d="M463.327 564.107C465.919 564.127 469.187 564.701 471.246 566.389C472.349 567.294 472.865 568.347 472.977 569.761C473.205 572.657 470.728 575.914 468.919 578.031C454.382 595.037 430.144 603.084 408.459 604.824C382.245 606.928 352.76 600.641 332.442 583.368C329.794 580.937 327.385 578.913 326.527 575.245C325.927 572.681 325.784 570.84 327.182 568.561C329.558 566.755 332.455 566.514 335.265 567.553C339.784 569.223 344.194 574.557 348.077 577.5C359.466 586.129 378.378 590.085 392.499 591.019C411.869 592.299 432.454 588.454 448.463 576.984C453.767 573.184 458.415 568.4 463.327 564.107Z" fill="#FEA6D0"/>
<path d="M505.499 289.727C508.07 289.519 510.644 289.381 513.223 289.312C515.801 289.244 518.379 289.245 520.958 289.316C523.536 289.388 526.11 289.529 528.681 289.739C531.252 289.95 533.815 290.23 536.37 290.58C538.925 290.93 541.469 291.348 544.002 291.836C546.535 292.324 549.052 292.879 551.555 293.503C554.058 294.127 556.542 294.819 559.007 295.577C561.472 296.336 563.915 297.161 566.335 298.052C574.852 301.215 591.895 306.873 595.569 315.74C595.688 316.02 595.792 316.304 595.881 316.594C595.971 316.884 596.046 317.178 596.106 317.476C596.167 317.774 596.212 318.073 596.242 318.375C596.272 318.677 596.287 318.98 596.287 319.284C596.287 319.588 596.272 319.89 596.241 320.192C596.21 320.494 596.164 320.794 596.103 321.091C596.042 321.389 595.967 321.682 595.877 321.972C595.786 322.262 595.682 322.547 595.563 322.826C593.953 326.675 590.372 328.557 586.701 329.963C574.101 327.667 561.368 319.969 548.306 316.839C540.395 314.943 532.163 313.599 524.083 312.652C517.018 311.824 508.042 312.29 501.44 309.536C498.985 308.513 496.779 306.989 495.806 304.409C494.733 301.564 495.615 298.564 496.963 295.979C498.963 292.145 501.639 291.015 505.499 289.727Z" fill="#ACE5EC"/>
<path d="M285.705 289.17C292.388 288.246 302.403 287.761 308.754 289.997C311.671 291.025 313.75 293.234 314.906 296.083C315.057 296.445 315.19 296.815 315.304 297.191C315.419 297.567 315.514 297.947 315.59 298.333C315.665 298.718 315.722 299.106 315.759 299.498C315.796 299.889 315.813 300.281 315.81 300.674C315.807 301.066 315.785 301.458 315.742 301.849C315.7 302.239 315.638 302.627 315.557 303.012C315.476 303.396 315.376 303.775 315.257 304.15C315.138 304.524 315 304.891 314.843 305.252C313.344 308.659 310.505 310.498 307.025 311.487C298.945 313.784 288.516 312.761 280 313.709C266.3 315.233 253.406 320.226 240.532 324.889C236.996 326.282 233.315 327.761 229.654 328.783C226.326 329.712 222.883 329.564 219.886 327.715C219.531 327.493 219.189 327.254 218.859 326.996C218.53 326.738 218.215 326.463 217.915 326.172C217.614 325.88 217.33 325.574 217.063 325.253C216.795 324.931 216.545 324.597 216.313 324.249C216.081 323.901 215.868 323.541 215.674 323.171C215.48 322.8 215.306 322.42 215.152 322.031C214.999 321.642 214.866 321.246 214.755 320.843C214.643 320.439 214.553 320.031 214.485 319.619C213.994 316.662 214.698 313.559 216.64 311.243C225.502 300.675 271.146 290.473 285.705 289.17Z" fill="#ACE5EC"/>
<path d="M401.841 422.279C407.187 421.84 411.502 422.427 416.235 425.026C424.822 429.741 429.691 439.217 432.36 448.28C436.094 460.963 436.518 478.63 429.956 490.512C425.478 498.62 419.048 503.05 410.27 505.517C403.628 505.989 398.036 505.952 392.077 502.591C384.742 498.454 380.129 490.945 377.937 482.989C373.896 468.329 375.951 449.07 383.704 435.904C387.985 428.634 393.742 424.379 401.841 422.279Z" fill="black"/>
<path d="M403.487 436.212C404.908 436.224 406.252 436.297 407.611 436.758C411.571 438.101 414.742 442.643 416.463 446.285C420.936 455.743 422.805 469.5 419.107 479.487C416.928 485.369 413.683 488.75 407.984 491.331C406.078 491.505 404.147 491.566 402.29 491.016C398.486 489.891 395.417 486.949 393.541 483.526C388.419 474.179 389.572 461.093 392.616 451.288C394.606 444.874 397.343 439.394 403.487 436.212Z" fill="#ACE5EC"/>
<path d="M547.838 480.32C556.898 479.658 565.41 479.85 573.651 484.055C582.609 488.626 589.831 496.682 592.93 506.285C596.131 516.202 595.203 527.876 590.369 537.12C584.862 547.654 575.524 553.793 564.446 557.269C554.682 558.184 546.114 557.955 537.309 553.121C528.325 548.189 521.932 539.953 519.094 530.14C516.071 519.684 517.186 508.846 522.547 499.346C528.162 489.397 536.919 483.266 547.838 480.32Z" fill="#FEA6D0"/>
<path d="M256.348 481.8C265.147 480.893 276.253 485.159 283.11 490.525C291.513 497.102 296.489 507.155 297.652 517.667C298.861 528.585 295.501 539.173 288.554 547.665C281.492 556.296 272.335 560.539 261.389 561.643C250.617 561.735 240.637 559.817 232.134 552.792C231.636 552.381 231.149 551.958 230.672 551.523C230.195 551.088 229.729 550.641 229.274 550.183C228.819 549.724 228.375 549.255 227.944 548.775C227.512 548.295 227.092 547.805 226.685 547.304C226.277 546.803 225.882 546.293 225.5 545.773C225.117 545.253 224.748 544.724 224.392 544.185C224.036 543.646 223.693 543.099 223.364 542.544C223.035 541.989 222.719 541.426 222.418 540.855C222.116 540.284 221.829 539.706 221.556 539.121C221.283 538.536 221.025 537.944 220.781 537.347C220.538 536.749 220.309 536.145 220.095 535.536C219.881 534.927 219.682 534.313 219.498 533.694C219.315 533.075 219.146 532.452 218.993 531.825C218.84 531.198 218.703 530.567 218.582 529.933C218.46 529.299 218.354 528.662 218.263 528.023C218.173 527.384 218.099 526.743 218.04 526.1C217.975 525.417 217.926 524.732 217.895 524.046C217.864 523.36 217.849 522.674 217.852 521.987C217.855 521.3 217.874 520.614 217.911 519.929C217.948 519.244 218.001 518.559 218.072 517.876C218.143 517.193 218.23 516.513 218.334 515.834C218.439 515.155 218.56 514.48 218.697 513.807C218.835 513.134 218.989 512.466 219.16 511.801C219.331 511.136 219.519 510.475 219.722 509.82C219.925 509.164 220.145 508.514 220.381 507.869C220.617 507.224 220.869 506.586 221.136 505.953C221.403 505.321 221.686 504.696 221.984 504.077C222.283 503.459 222.596 502.848 222.925 502.245C223.254 501.642 223.597 501.048 223.955 500.462C224.313 499.876 224.685 499.299 225.072 498.732C225.459 498.165 225.859 497.607 226.273 497.06C226.688 496.513 227.115 495.976 227.556 495.449C235.129 486.37 244.847 482.738 256.348 481.8Z" fill="#FEA6D0"/>
<path d="M526.449 354.406C535.41 353.52 543.671 354.153 551.819 358.303C562.94 363.967 570.101 374.524 573.863 386.187C579.241 402.862 577.033 422.633 569.002 438.118C562.535 450.589 552.646 459.4 539.245 463.556C530.246 466.045 519.912 464.693 511.811 460.117C501.912 454.525 495.133 444.26 492.125 433.468C486.722 414.08 491.226 391.022 501.121 373.794C507.085 363.412 514.928 357.443 526.449 354.406Z" fill="black"/>
<path d="M528.834 368.331C533.801 367.901 538.356 368.25 542.996 370.175C550.424 373.255 555.848 379.465 558.779 386.861C563.971 399.964 562.71 416.321 557.023 429.05C552.524 439.12 546.172 445.881 535.836 449.801C530.557 450.663 525.908 450.881 520.884 448.751C514.357 445.982 509.962 440.252 507.425 433.783C501.813 419.467 503.903 401.53 510.047 387.739C514.087 378.672 519.432 371.896 528.834 368.331Z" fill="#FDFDFD"/>
<path d="M535.033 381.575C537.719 381.474 540.521 381.703 543.004 382.793C547.02 384.556 549.893 388.328 551.472 392.323C554.482 399.941 554.724 410.047 551.421 417.614C549.051 423.046 545.523 426.399 540.039 428.601C537.404 428.564 534.761 428.408 532.376 427.179C527.298 424.561 523.851 419.533 522.086 414.219C519.709 407.059 519.543 397.901 523.066 391.076C525.764 385.852 529.627 383.367 535.033 381.575Z" fill="black"/>
<path d="M274.207 353.704C285.37 352.684 296.007 354.354 305.681 360.228C317.788 367.58 325.532 380.007 328.825 393.606C332.977 410.75 330.295 429.639 320.896 444.614C312.645 457.758 301.8 464.651 286.816 468.092C275.926 469.656 265.01 467.558 255.73 461.532C243.46 453.563 235.144 440.098 232.153 425.916C228.629 409.207 231.302 390.347 240.841 375.99C249.091 363.572 259.753 356.677 274.207 353.704Z" fill="black"/>
<path d="M278.143 367.731C285.693 367.338 293.136 369.095 299.483 373.28C308.265 379.071 313.157 388.556 315.122 398.675C317.735 412.125 315.59 426.67 307.827 438.125C301.635 447.262 293.545 452.107 282.82 454.08C275.354 454.54 268.845 453.407 262.538 449.141C253.456 442.997 247.805 432.461 245.832 421.858C243.406 408.828 245.743 394.069 253.348 383.057C259.388 374.31 267.833 369.619 278.143 367.731Z" fill="#FDFDFD"/>
<path d="M281.995 383.646C285.042 383.319 288.255 383.095 291.232 383.983C296.025 385.414 299.861 388.924 302.116 393.335C305.856 400.648 305.916 410.504 303.367 418.197C301.519 423.776 298.241 428.414 292.961 431.108C290.74 431.516 288.377 431.662 286.16 431.131C281.658 430.053 277.957 426.647 275.571 422.792C271.135 415.624 269.387 405.639 271.435 397.432C273.05 390.962 276.288 387.026 281.995 383.646Z" fill="black"/>
<path d="M431.296 83.9508C445.787 69.5328 461.878 60.0368 482.87 60.1868C492.309 60.2538 502.474 61.5638 509.355 68.6948C515.549 75.1138 516.906 83.6448 516.622 92.2178C516.595 92.9905 516.564 93.7631 516.527 94.5358C530.268 88.4168 547.44 82.6378 562.261 88.4918C568.054 90.7798 572.426 95.0118 574.819 100.771C576.618 105.103 577.008 109.728 577.379 114.357C587.668 111.717 597.436 109.194 607.212 115.005C608.323 115.67 609.421 116.357 610.504 117.067C617.809 125.717 620.157 134.067 619.246 145.33C619.098 147.159 618.871 148.943 618.474 150.736C627.341 150.041 635.298 150.02 642.44 156.158C648.647 161.492 651.39 169.408 651.834 177.399C652.4 187.579 649.423 197.595 644.276 206.319C650.595 207.317 655.807 209.428 659.749 214.722C665.507 222.454 665.432 233.187 664.005 242.291C662.175 253.975 657.267 264.634 650.862 274.478C658.739 284.613 670.455 296.338 668.854 308.991C667.855 316.892 662.547 341.37 656.377 345.782C654.898 346.838 653.06 347.131 651.301 346.714C649.225 346.221 647.372 344.792 646.328 342.935C644.707 340.055 645.789 336.639 646.774 333.732C650.657 322.273 649.256 300.782 643.437 289.143C642.804 287.877 642.335 287.739 641.121 287.15C635.465 287.916 629.434 296.667 623.54 291.997C621.878 290.68 620.688 288.74 620.522 286.603C620.303 283.79 621.998 281.224 623.879 279.293C627.51 275.566 632.409 273.328 636.147 269.77C644.637 261.69 650.123 245.105 650.215 233.585C650.243 230.002 649.943 225.196 647.282 222.523C645.681 220.916 643.438 220.359 641.224 220.414C630.497 220.685 610.306 244.31 602.673 237.732C601.091 236.369 599.94 234.49 599.98 232.36C600.046 228.835 602.845 225.833 605.349 223.629C610.394 219.188 616.307 215.791 621.479 211.513C629.929 204.525 636.723 192.789 637.478 181.755C637.785 177.274 637.099 172.486 634.108 168.948C631.556 165.928 627.868 164.502 623.985 164.29C618.44 163.987 612.896 165.694 607.672 167.352C601.14 177.029 591.08 192.995 579.006 195.776C577.063 196.223 574.497 196.373 572.79 195.153C571.441 194.188 570.78 192.793 570.626 191.143C570.101 185.533 574.045 180.053 577.645 176.158C584.364 168.886 592.372 163.482 600.704 158.273C604.044 150.42 607.201 141.265 603.826 132.831C602.625 129.828 600.732 127.345 597.723 125.994C589.471 122.288 579.389 128.075 571.777 130.922C569.802 140.829 564.558 155.674 555.559 161.423C553.344 162.839 550.723 163.691 548.105 163.03C546.096 162.523 544.47 161.161 543.536 159.322C541.54 155.397 542.608 150.588 544.09 146.67C547.068 138.793 552.229 131.325 558.59 125.802C557.724 125.299 557.175 125.003 556.143 125.031C551.087 125.165 545.886 126.028 540.841 126.486C528.373 127.617 515.455 128.662 502.943 128.197C498.895 134.684 491.955 148.23 483.991 150.05C482.571 150.375 481.362 150.229 480.112 149.458C477.848 148.061 476.9 145.391 476.433 142.901C475.679 138.88 477.397 135.587 479.14 132.113C474.594 129.997 434.6 131.149 426.65 131.154C425.407 132.748 424.105 134.257 422.508 135.512C420.69 136.94 418.415 137.757 416.091 137.435C412.492 136.935 410.38 133.822 408.468 131.078C399.752 131.189 381.259 130.313 373.681 131.605C373.079 136.89 372.148 141.225 367.652 144.666C365.993 145.936 364.025 146.702 361.921 146.238C360.182 145.853 358.719 144.468 357.828 142.976C356.705 141.093 356.083 138.949 355.675 136.812L354.972 132.314C350.434 131.197 329.502 131.588 324.872 132.79C326.061 137.667 327.971 144.88 325.72 149.703C324.969 151.311 323.703 152.489 321.961 152.923C320.206 153.361 318.068 153.143 316.501 152.215C311.649 149.337 310.608 137.993 309.115 132.874C294.826 132.941 280.539 133.155 266.254 133.517C265.886 134.659 265.237 136.756 265.322 137.949C265.671 142.866 280.164 154.526 279.581 167.34C279.452 170.187 278.496 174.006 276.178 175.877C274.484 177.244 272.133 177.774 270.003 177.406C262.133 176.048 255.667 163.304 253.746 156.527C252.785 153.138 252.902 148.936 250.959 145.988C249.732 145.215 249.192 144.717 247.642 144.756C243.38 144.865 238.478 148.339 235.668 151.355C227.31 160.326 227.633 173.665 227.913 185.174C232.715 189.641 236.804 194.037 239.384 200.173C241.531 205.28 242.595 211.701 240.187 216.917C239.291 218.857 237.83 220.68 235.742 221.372C234.045 221.935 232.271 221.487 230.734 220.669C222.282 216.171 218.445 200.723 215.543 192.33C210.621 191.265 205.573 190.551 200.6 191.719C196.393 192.707 192.731 195.072 190.505 198.835C186.285 205.971 187.778 216.358 189.699 223.95C199.245 228.571 208.903 236.37 213.777 246.015C214.872 248.183 215.612 251.181 214.682 253.53C213.845 255.644 211.969 258.354 209.738 259.168C202.077 261.961 191.843 242.235 183.936 238.413C179.693 236.363 174.935 235.864 170.474 237.543C165.328 239.48 161.695 243.425 159.459 248.372C156.249 255.476 156.43 267.037 159.189 274.272C163.215 284.829 173.249 289.322 182.901 293.518C186.187 294.947 192.09 296.642 193.344 300.296C194.049 302.352 193.669 304.724 192.622 306.597C191.761 308.137 190.275 309.537 188.526 309.979C181.253 311.817 167.975 303.333 161.606 300.034C160.596 303.093 159.495 306.261 159.349 309.506C158.764 322.507 165.25 330.737 167.152 342.193C167.369 343.5 167.249 344.562 166.624 345.736C165.51 347.831 163.094 349.731 160.774 350.26C159.315 350.592 157.981 350.306 156.726 349.504C150.896 345.773 147.632 331.262 146.194 324.523C143.444 311.637 144.469 300.42 151.618 289.287C147.994 283.917 145.44 278.53 144.153 272.137C141.738 260.141 143.372 245.985 150.387 235.726C156.354 227.001 164.667 223.959 174.675 222.146C174.078 218.369 173.922 214.377 173.903 210.549C173.859 201.461 175.924 191.95 182.552 185.323C190.571 177.305 202.603 176.355 213.319 176.461C214.337 163.626 216.105 150.046 225.47 140.333C233.019 132.502 241.093 131.438 251.447 131.335C252.951 125.777 255.52 121.297 258.503 116.432C264.432 108.848 270.808 103.89 280.6 102.607C289.37 101.458 298.512 103.05 306.727 106.179C310.788 96.4728 316.607 87.7708 326.758 83.6758C333.649 80.8958 340.866 81.3688 347.62 84.3008C354.963 87.4878 360.461 92.7708 365.779 98.6048C372 86.0068 380.28 72.6688 394.296 67.8378C401.646 65.3038 410.524 65.3938 417.575 68.8338C424.194 72.0638 428.052 77.5718 431.296 83.9508Z" fill="black"/>
<path d="M258.198 756.91C283.689 754.952 309.152 752.674 334.587 750.075C346.964 748.914 359.388 748.243 371.753 747L380.92 871.407C382.236 888.677 382.682 906.207 384.638 923.401L384.738 935.732C356.2 939.891 327.387 943.031 298.772 946.726L206.168 959.589C205.838 943.093 204.337 926.348 203.13 909.888L195.288 812.353C194.189 798.302 192.298 783.962 192.004 769.907C191.961 767.849 192.291 766.498 193.32 764.729C197.486 761.353 248.665 758.614 258.198 756.91Z" fill="#02C2A2"/>
<path d="M285.376 784.923C286.993 785.128 289.185 785.321 290.44 786.46C291.723 787.625 292.053 789.147 292.319 790.795C293.189 796.171 292.816 802.056 293.053 807.519C293.613 820.381 294.134 833.318 295.309 846.14C302.5 836.701 308.905 826.603 315.919 817.018C318.609 813.342 322.445 808.013 327.304 807.38C328.678 807.201 330.029 807.559 331.073 808.508C332.366 809.683 333.206 811.328 333.233 813.092C333.292 817.04 304.791 854.406 300.34 859.455C307.904 859.031 343.408 856.101 347.602 859.316C348.98 860.372 349.727 861.822 349.9 863.54C350.071 865.23 349.501 866.822 348.368 868.079C347.426 869.124 346.333 869.668 344.958 869.942C339.254 871.078 332.563 870.513 326.683 870.788C319.443 871.127 312.236 872.028 304.988 872.402C311.322 878.139 337.579 900 339.66 905.824C340.423 907.958 339.69 910.367 338.737 912.295C337.442 913.341 336.742 913.955 335.003 913.878C326.539 913.504 303.733 888.391 296.857 881.545C296.986 890.873 299.879 914.27 297.052 921.737C296.233 923.902 295.328 924.581 293.362 925.49C292.369 925.364 291.439 925.278 290.545 924.791C287.631 923.204 286.281 921.777 285.217 918.741C283.834 905.575 283.96 892.213 283.983 878.988C276.251 888.043 268.764 897.633 261.589 907.141C258.778 910.867 256.315 915.251 253.143 918.654C251.618 920.29 249.841 921.744 247.767 922.627C245.364 923.651 243.428 923.653 241.03 922.691C240.219 921.718 239.726 921.372 239.575 920.114C238.629 912.257 263.77 883.976 269.707 876.473C262.065 877.897 236.794 885.875 230.949 883.517C228.843 882.667 227.759 881.133 227.097 879.003C226.668 877.624 226.731 876.208 227.471 874.962C228.583 873.088 230.357 872.2 232.333 871.431C235.973 870.015 240.176 869.579 243.982 868.618C254.02 866.083 264.011 863.391 274.101 861.064C268.506 853.826 238.507 828.059 237.783 822.334C237.561 820.584 237.999 818.85 239.155 817.501C240.291 816.175 241.886 815.439 243.638 815.464C249.845 815.551 277.473 844.709 282.979 850.062C282.616 838.076 277.525 797.427 280.533 788.844C281.31 786.626 283.404 785.888 285.376 784.923Z" fill="black"/>
<path d="M639.053 0L642.033 0.197021C643.34 0.822021 643.937 1.48101 644.528 2.77301C648.861 12.241 651.295 41.379 653.962 53.579C655.011 58.389 656.584 63.049 658.896 67.399C671.154 90.429 706.253 90.939 728.751 98.149C731.793 99.119 734.026 99.619 735.533 102.589C735.091 104.179 734.837 104.839 733.32 105.639C729.4 107.729 724.268 108.819 720.009 110.169C704.699 115.029 681.832 120.079 669.123 129.399C649.51 143.789 646.187 170.209 639.731 192.149C638.523 196.249 637.456 202.389 635.116 205.879C634.293 207.109 634.004 207.109 632.644 207.349L631.42 207.739C629.769 207.289 629.427 206.689 628.662 205.169C626.565 200.989 625.618 195.579 624.413 191.039C621.061 178.409 618.421 165.289 614.293 152.909C612.394 147.209 609.926 141.719 606.43 136.809C603.076 132.099 598.759 127.859 593.707 124.989C582.134 118.429 540.77 112.549 535 105.349C536.286 100.749 551.103 97.709 555.67 96.449C611.272 81.159 610.206 84.279 628.7 27.802C631.672 18.723 634.231 8.278 639.053 0Z" fill="#FE4B11"/>
</svg>
