<svg width="24" height="24" viewBox="0 0 24 24" fill="none" xmlns="http://www.w3.org/2000/svg">
<path d="M22 19.1111C22 19.6121 21.8084 20.0925 21.4675 20.4468C21.1265 20.801 20.664 21 20.1818 21H3.81818C3.33597 21 2.87351 20.801 2.53253 20.4468C2.19156 20.0925 2 19.6121 2 19.1111V8.72222C2 8.22126 2.19156 7.74081 2.53253 7.38658C2.87351 7.03234 3.33597 6.83333 3.81818 6.83333H7.45455L9.27273 4H14.7273L16.5455 6.83333H20.1818C20.664 6.83333 21.1265 7.03234 21.4675 7.38658C21.8084 7.74081 22 8.22126 22 8.72222V19.1111Z" stroke="white" stroke-width="1.5" stroke-linecap="round" stroke-linejoin="round"/>
<path d="M12 17C13.6569 17 15 15.6569 15 14C15 12.3431 13.6569 11 12 11C10.3431 11 9 12.3431 9 14C9 15.6569 10.3431 17 12 17Z" stroke="white" stroke-width="1.5" stroke-linecap="round" stroke-linejoin="round"/>
</svg>
