<svg width="475" height="370" viewBox="0 0 475 370" fill="none" xmlns="http://www.w3.org/2000/svg">
<mask id="mask0_519_4409" style="mask-type:alpha" maskUnits="userSpaceOnUse" x="0" y="0" width="475" height="371">
<rect width="475" height="370.002" fill="#D9D9D9"/>
</mask>
<g mask="url(#mask0_519_4409)">
<circle cx="316.794" cy="121.441" r="52.6605" fill="#FFA7D1"/>
<path d="M324.031 119.026C324.662 117.502 325.587 116.117 326.754 114.951C327.92 113.784 329.305 112.859 330.829 112.228C332.353 111.597 333.986 111.272 335.636 111.272C337.285 111.272 338.919 111.597 340.443 112.228C341.967 112.859 343.352 113.784 344.518 114.951C345.684 116.117 346.61 117.502 347.241 119.026" stroke="#ADE6ED" stroke-width="2.83895"/>
<path d="M279.593 119.026C280.225 117.502 281.15 116.117 282.316 114.951C283.483 113.784 284.867 112.859 286.391 112.228C287.915 111.597 289.549 111.272 291.198 111.272C292.848 111.272 294.481 111.597 296.005 112.228C297.529 112.859 298.914 113.784 300.081 114.951C301.247 116.117 302.172 117.502 302.803 119.026" stroke="#ADE6ED" stroke-width="2.83895"/>
<path d="M315.344 108.397L307.785 126.698C307.013 128.567 308.387 130.621 310.409 130.621H327.422" stroke="#ADE6ED" stroke-width="2.83895"/>
<path d="M293.893 152.4C293.077 152.4 292.273 152.209 291.546 151.842C290.82 151.476 290.192 150.945 289.715 150.292C289.238 149.64 288.925 148.885 288.803 148.09C288.68 147.295 288.751 146.483 289.009 145.72C289.268 144.958 289.707 144.266 290.29 143.704C290.873 143.141 291.583 142.723 292.362 142.484C293.141 142.245 293.967 142.192 294.771 142.329C295.576 142.466 296.335 142.79 296.987 143.273" stroke="#ADE6ED" stroke-width="2.83895"/>
<path d="M293.892 152.399C293.076 152.399 292.272 152.59 291.545 152.957C290.819 153.323 290.191 153.855 289.714 154.507C289.237 155.16 288.924 155.914 288.802 156.709C288.679 157.504 288.75 158.317 289.008 159.079C289.267 159.842 289.706 160.533 290.289 161.096C290.872 161.658 291.582 162.076 292.361 162.316C293.141 162.555 293.966 162.608 294.77 162.471C295.575 162.333 296.334 162.01 296.986 161.527" stroke="#ADE6ED" stroke-width="2.83895"/>
<ellipse cx="318.138" cy="121.441" rx="54.0038" ry="52.6605" fill="white"/>
<path d="M316.793 174.101C302.827 174.101 289.433 168.553 279.557 158.677C269.681 148.801 264.133 135.407 264.133 121.441C264.133 107.474 269.681 94.0798 279.557 84.2041C289.433 74.3283 302.827 68.7802 316.793 68.7801L316.793 121.441L316.793 174.101Z" fill="#FF4B11"/>
<rect x="242.158" y="186.16" width="149.156" height="186.729" fill="#FFA7D1"/>
<rect x="316.514" y="186.012" width="74.9586" height="186.981" fill="#03C3A3"/>
<path d="M316.559 0L348.48 63.8087H284.638L316.559 0Z" fill="white"/>
<mask id="mask1_519_4409" style="mask-type:alpha" maskUnits="userSpaceOnUse" x="316" y="185" width="76" height="188">
<rect x="316.489" y="185.789" width="74.9586" height="186.981" fill="#4B4BFF"/>
</mask>
<g mask="url(#mask1_519_4409)">
<rect x="348.894" y="467.142" width="5.38868" height="448.158" transform="rotate(180 348.894 467.142)" fill="#FF4B11"/>
<rect x="330.932" y="467.142" width="5.38868" height="448.158" transform="rotate(180 330.932 467.142)" fill="#FF4B11"/>
<rect x="366.857" y="467.142" width="5.38868" height="448.158" transform="rotate(180 366.857 467.142)" fill="#FF4B11"/>
<rect x="384.819" y="467.142" width="5.38868" height="448.158" transform="rotate(180 384.819 467.142)" fill="#FF4B11"/>
<rect x="311.174" y="363.86" width="5.38868" height="116.755" transform="rotate(-90 311.174 363.86)" fill="#FF4B11"/>
<rect x="311.174" y="345.897" width="5.38868" height="116.755" transform="rotate(-90 311.174 345.897)" fill="#FF4B11"/>
<rect x="311.174" y="327.934" width="5.38868" height="116.755" transform="rotate(-90 311.174 327.934)" fill="#FF4B11"/>
<rect x="311.174" y="309.971" width="5.38868" height="116.755" transform="rotate(-90 311.174 309.971)" fill="#FF4B11"/>
<rect x="311.174" y="292.01" width="5.38868" height="116.755" transform="rotate(-90 311.174 292.01)" fill="#FF4B11"/>
<rect x="311.174" y="274.047" width="5.38868" height="116.755" transform="rotate(-90 311.174 274.047)" fill="#FF4B11"/>
<rect x="311.174" y="256.087" width="5.38868" height="116.755" transform="rotate(-90 311.174 256.087)" fill="#FF4B11"/>
<rect x="311.174" y="238.124" width="5.38868" height="116.755" transform="rotate(-90 311.174 238.124)" fill="#FF4B11"/>
<rect x="311.174" y="220.163" width="5.38868" height="116.755" transform="rotate(-90 311.174 220.163)" fill="#FF4B11"/>
<rect x="311.174" y="202.2" width="5.38868" height="116.755" transform="rotate(-90 311.174 202.2)" fill="#FF4B11"/>
</g>
<path d="M108.699 221.225C108.549 222.301 108.419 223.255 108.26 224.425C103.763 224.256 99.864 222.189 95.2454 222.161C100.771 230.972 110.204 243.236 99.2282 251.869C87.9437 261.878 73.6861 253.899 62.6166 247.866C61.5041 248.652 62.037 249.419 62.4203 250.111C66.0291 256.677 71.1244 261.27 78.7441 262.748C84.6528 265.367 94.8154 260.962 94.5162 267.453C94.591 292.962 106.371 316.02 122.153 335.486C139.421 355.615 167.01 356.158 189.205 344.185C214.112 331.08 221.862 300.501 229.977 275.591C231.782 271.709 234.745 257.07 239.083 257.416C240.944 257.828 239.756 260.204 239.289 261.345C229.631 285.235 225.097 311.343 209.044 332.24C199.377 346.374 182.427 352.173 166.365 355.672C155.38 357.991 144.731 354.624 134.877 349.994C116.964 341.379 107.689 321.95 98.7514 305.197C92.4781 293.701 93.1325 280.437 89.5331 268.305C74.3873 267.416 60.4476 261.326 56.7453 245.481C47.6392 231.272 46.5266 228.877 52.9682 212.386C41.6744 205.267 29.6045 191.713 33.3536 177.551C38.907 164.343 57.5307 171.031 65.5056 178.833C66.8986 178.225 66.132 177.327 66.0385 176.634C63.0187 164.774 63.8601 146.252 79.8192 145.85C96.7974 150.293 98.7701 173.912 103.856 188.149C123.994 194.688 131.221 213.592 124.322 232.993C126.659 240.635 129.052 247.903 129.884 255.798C132.381 273.982 142.151 294.917 161.634 298.986C168.403 300.595 174.368 297.901 178.893 292.597C192.01 274.179 194.301 250.214 204.463 230.14C208.437 220 226.621 187.504 237.933 188.505C238.672 189.206 238.335 190.516 236.98 191.461C227.528 198.027 221.086 207.119 215.374 216.885C204.884 234.854 199.162 254.956 192.3 274.459C187.99 288.406 178.285 306.02 161.167 302.774C138.645 297.966 128.688 274.403 125.088 253.787C124.742 247.763 124.032 241.991 121.264 236.557C120.432 234.574 120.217 232.899 121.003 230.748C123.639 223.508 123.555 216.109 121.592 208.691C119.142 196.156 96.3393 186.887 85.0828 190.581C77.8652 192.34 72.7793 201.516 78.4823 207.625C86.1861 216.109 98.0689 218.419 108.718 221.216L108.699 221.225ZM66.0572 210.796C54.3052 208.869 49.5464 228.194 54.9503 235.649C62.813 248.633 100.191 264.516 100.687 239.428C95.7129 225.257 80.8476 212.208 66.0572 210.796ZM73.2841 207.858C71.7321 202.368 73.5552 197.56 71.1151 192.985C68.6095 189.365 66.188 185.652 63.3178 182.34C57.0352 174.184 35.8031 167.57 36.2051 183.931C38.2619 193.855 44.5539 202.994 53.4357 207.98C54.8381 208.747 56.2405 208.981 57.7831 208.176C62.6821 205.754 68.0953 207.587 73.2841 207.858ZM99.5274 186.438C95.3296 174.015 92.7773 153.296 78.9778 149.639C61.2797 152.669 69.4135 181.059 75.3222 191.545C82.0443 184.838 89.8603 183.528 99.518 186.428L99.5274 186.438Z" fill="white"/>
<path d="M390.909 109.093C404.752 111.868 411.777 131.522 399.884 140.447C390.855 148.519 378.572 146.732 367.44 146.433C357.178 162.206 340.344 176.79 320.346 173.679C318.878 173.361 316.584 173.407 316.512 171.402C316.548 167.702 332.956 173.398 342.492 165.915C385.824 142.76 375.626 70.972 321.987 73.2122C316.095 74.0104 315.034 69.4755 321.498 69.6024C331.886 69.5571 341.794 71.8064 351.086 76.3685C362.735 82.7084 368.827 95.6692 372.253 108.004C376.958 109.238 381.237 107.687 386.223 108.049C369.18 29.7949 273.054 28.4979 255.766 107.542C259.818 108.766 263.834 106.335 267.778 108.231C267.633 109.192 267.488 110.117 267.37 110.879C265.185 112.067 262.837 111.251 260.281 111.541C257.724 122.062 258.268 134.669 261.396 144.401C264.714 146.769 270.28 140.801 271.993 145.399C270.116 151.05 245.523 148.075 240.646 145.163C224.31 135.83 234.237 111.015 251.361 108.929C270.651 23.0923 370.912 24.353 390.909 109.083V109.093ZM255.558 112.838C230.719 111.469 228.281 148.564 256.827 144.265C255.259 133.445 254.941 123.758 255.558 112.838ZM384.5 112.439C384.029 113.147 383.857 113.274 383.857 113.419C384.219 123.232 382.053 133.59 383.975 143.123C407.734 141.844 408.623 112.467 384.5 112.439ZM379.433 142.034C378.998 131.994 380.212 122.679 379.46 112.875C376.934 112.318 374.855 112.346 373.223 112.956C373.169 123.124 371.918 132.674 369.525 142.651C372.879 142.959 376.088 143.649 379.433 142.025V142.034Z" fill="white"/>
<path d="M422.272 283.879C424.721 281.737 442.41 251.589 442.943 261.785C415.886 299.407 387.782 337.974 373.16 382.508C368.878 392.19 371.608 398.42 380.415 404.107C396.178 397.98 412.96 392.676 426.647 382.443C444.354 367.963 462.118 350.349 467.475 327.422C479.938 282.841 459.416 232.17 420.392 207.709C412.904 204.238 391.672 187.56 385.211 189.908C384.258 190.441 382.986 188.898 383.192 187.672C384.987 179.048 404.078 194.763 408.912 196.259C457.303 219.972 486.548 277.471 470.645 330.126C462.24 358.029 438.521 381.863 413.016 395.08C402.227 399.617 391.382 404.023 380.555 408.475C375.123 407.269 371.505 400.328 367.42 396.334C364.998 392.18 368.607 386.998 369.233 382.639C379.377 349.498 398.16 320.07 417.391 291.577C420.916 286.872 415.624 282.064 413.1 278.266C402.816 266.948 393.644 254.704 383.687 243.123C382.294 240.326 387.072 239.709 387.876 242.197C399.282 256.079 411.034 270.203 422.29 283.879H422.272Z" fill="white"/>
<path d="M300.199 218.747C312.634 174.913 307.118 182.06 325.76 217.736C327.097 217.643 326.817 216.576 326.91 215.865C327.284 213.153 332.697 174.913 336.643 187.775C324.657 226.623 336.745 251.851 310.857 196.259C306.426 205.342 306.669 216.006 301.92 225.033C298.086 229.176 296.693 220.243 295.272 217.886C291.729 208.485 286.69 199.795 282.333 190.797C284.231 179.506 297.74 215.716 300.199 218.737V218.747Z" fill="black"/>
<path d="M339.035 258.632C336.474 251.383 340.298 243.441 336.848 236.519C333.211 230.71 358.407 231.627 361.296 232.628C362.839 267.818 369.626 255.293 339.035 258.623V258.632ZM358.613 254.245C357.94 249.035 359.37 244.012 357.425 239.905C351.965 241.982 349.993 253.74 344.402 245.611C343.813 245.031 343.299 244.264 342.177 245.003C342.139 247.884 341.653 250.878 342.541 253.993C348.16 254.47 352.489 254.17 358.613 254.245ZM354.434 236.641C349.881 235.574 346.534 235.724 342.953 237.015C344.533 240.261 345.29 241.14 348.394 243.282C350.273 241.215 352.171 239.129 354.434 236.641Z" fill="black"/>
<path d="M256.791 235.416C264.794 233.722 272.161 234.751 280.005 236.117C284.502 236.828 281.117 246.893 281.996 250.494C281.968 256.967 281.996 256.668 275.91 256.687C269.796 256.64 263.522 257.603 257.426 257.547C255.08 250.672 257.305 243.301 256.791 235.416ZM278.154 252.59C278.154 250.036 278.172 248.025 278.154 246.023C277.658 240.981 272.731 248.259 271.647 249.999C270.3 251.982 268.608 252.103 267.047 250.335C264.822 248.633 263.485 243.6 260.577 243.703C260.53 246.799 259.96 249.952 260.633 253.375C266.467 253.628 271.955 252.852 278.163 252.599L278.154 252.59ZM275.227 239.7C269.749 237.979 267.112 237.848 263.41 239.195C265.233 241.655 266.654 244.33 268.842 246.22C271.048 243.89 273.844 242.553 275.227 239.7Z" fill="black"/>
<path d="M280.108 116.871C275.985 117.208 271.469 118.003 267.197 118.012C265.308 118.059 265.289 115.505 266.729 114.851C268.001 114.411 269.356 114.168 270.693 114.018C275.676 114.074 302.079 109.528 302.088 115.384C299.741 118.293 292.374 115.169 288.438 116.815C286.989 122.867 282.202 122.456 280.108 116.871Z" fill="black"/>
<path d="M344.047 115.347C338.41 124.242 338.484 114.093 332.005 115.955C328.995 115.786 323.226 118.667 321.815 114.982C321.656 113.111 323.787 112.868 325.18 112.821C335.483 112.512 345.814 110.903 356.108 111.362C363.045 116.067 346.422 115.047 344.047 115.356V115.347Z" fill="black"/>
<path d="M321.506 141.108C321.73 139.218 320.692 136.992 322.992 136.459C325.797 136.758 325.33 141.744 329.153 141.706C333.108 142.801 330.219 146.206 327.405 145.205C319.449 143.39 313.606 149.938 303.294 144.494C301.302 143.895 299.423 141.575 302.097 140.593C308.66 142.398 314.784 144.522 321.506 141.108Z" fill="black"/>
<path d="M313.438 300.08C313.531 304.29 308.903 305.777 308.894 301.053C309.277 298.528 312.269 297.48 313.438 300.08Z" fill="black"/>
<path d="M313.382 134.569C310.222 132.577 312.634 129.05 315.635 129.855C318.664 131.735 315.486 133.662 313.382 134.569Z" fill="black"/>
<path d="M309.446 267.678C313.017 267.397 311.241 272.981 308.632 272.626C306.426 272.186 306.753 267.463 309.446 267.678Z" fill="black"/>
<path d="M313.756 338.189C312.148 341.94 308.427 337.908 309.81 335.532C311.652 333.802 314.214 335.663 313.756 338.189Z" fill="black"/>
<path d="M40.3571 50.1705C39.691 50.3273 39.5342 54.7162 39.9261 54.9513C40.318 55.2256 41.3368 55.1081 42.1206 55.1081C43.6488 55.2256 46.1176 55.1472 46.7838 55.6175C47.6851 56.1661 48.0378 56.6363 48.1553 57.6944C48.1161 61.378 40.5139 60.124 40.0437 60.555C39.7302 60.8293 39.7302 62.1225 39.691 63.1022C39.6126 64.317 39.0248 66.3155 39.8869 66.2371C43.9232 65.9236 46.1568 66.4331 46.3527 67.6087C46.7054 68.5492 46.3136 69.6856 45.7257 70.3909C44.6677 71.6449 42.5908 71.0179 38.437 71.2139C35.6155 71.3706 34.5183 68.7843 34.5575 66.2763C34.675 60.2415 34.6359 54.1676 34.871 48.0936C35.1061 46.1735 35.929 45.2722 37.8492 45.1154C40.5923 45.037 43.4529 44.6452 46.196 44.9978C48.8215 45.5856 48.704 49.426 46.0784 49.9354C44.1975 50.1313 41.0233 50.0138 40.3571 50.1705ZM66.4994 68.1181C65.9508 66.9033 65.8332 66.0804 65.3238 64.748L56.35 65.1399C55.4487 66.629 54.6649 68.314 53.4502 69.568C51.4516 71.4882 48.1599 69.0978 49.2572 66.5898C52.157 60.9077 54.7825 55.0689 57.9566 49.5435C58.4269 48.7598 59.0147 48.0152 59.6809 47.3491C63.4428 43.6655 66.5386 47.2315 67.4399 51.2286C68.7722 56.4012 70.4964 61.5347 71.4761 66.7858C71.6329 69.5288 67.7925 70.5869 66.4994 68.1181ZM62.1105 53.2271C60.9348 55.2256 59.916 57.3025 59.0147 59.4578C60.8957 59.3794 62.3064 59.6146 63.7955 59.1443C63.5604 57.1066 63.0118 55.1081 62.1105 53.2271ZM78.6648 64.5913C79.5661 64.3954 81.2511 64.121 81.5254 63.1806C81.5646 63.063 81.5646 62.9846 81.5646 62.8671C81.4862 61.9658 79.9579 61.5347 79.8404 61.4955C78.6648 61.1037 77.5283 60.6334 76.4311 60.0456C71.8462 57.5768 72.1989 52.992 74.2758 50.2489C76.627 47.1139 79.8404 45.7816 83.6807 45.86C84.4644 45.86 85.2873 46.1735 86.0319 46.4869C87.1291 47.0356 87.5994 48.2504 87.3251 49.426C87.0508 50.5624 86.0711 51.2677 84.7387 51.2677C83.9158 51.2677 83.5239 51.2286 82.7794 51.1502C82.1524 51.111 79.4877 50.9151 78.4688 52.2866C78.2729 52.5609 77.9594 53.1879 78.077 54.3243C78.3121 55.1472 78.8999 55.4607 79.5269 55.6959C80.5849 56.1269 81.6822 56.5188 82.701 56.989C83.7199 57.4985 84.7779 58.0079 85.64 58.7133C87.8345 60.555 88.148 63.4549 86.463 65.7669C85.64 66.9425 84.5428 67.7654 83.2888 68.4316C81.5254 69.3721 79.6444 69.8815 77.6851 70.195C76.3527 70.4301 75.1379 69.7248 74.7069 68.5883C74.1583 67.256 74.8245 65.8061 76.3136 65.2183C76.6662 65.1007 76.9797 64.9832 77.2932 64.9048C77.9202 64.7088 78.2729 64.6697 78.6648 64.5913ZM96.6849 52.8352C96.8417 53.4622 97.116 54.05 97.4295 54.9121C97.7821 54.3243 98.0956 53.9716 98.2916 53.5406C99.4672 51.1894 100.604 48.8382 101.74 46.4478C101.975 46.0167 102.132 45.5465 102.367 45.1546C103.072 44.0574 104.287 43.6655 105.384 44.0574C106.482 44.4492 107.187 45.5856 107.069 46.7613C106.991 47.3882 106.795 48.0544 106.521 48.6422C105.972 49.8962 105.345 51.1502 104.757 52.4042C101.897 58.3998 98.9969 64.3954 96.1363 70.3518C95.7836 71.0963 95.4701 71.88 94.9999 72.5462C94.2553 73.7218 92.923 74.0745 91.7865 73.5259C90.6501 72.9773 90.0623 71.7625 90.415 70.4301C90.5326 69.9599 90.7285 69.5288 90.9636 69.0978C91.669 67.5303 92.296 65.8845 93.1581 64.3954C93.9418 62.9846 93.8635 61.6523 93.3932 60.1632C92.727 58.1646 92.1784 56.0877 91.6298 54.05C90.8853 51.2677 90.1799 48.4855 89.4745 45.7424C89.0827 44.2925 89.9056 42.9209 91.3163 42.4115C92.5311 42.0196 93.981 42.6858 94.5296 44.0182C94.8431 44.7627 94.9999 45.5856 95.1958 46.3694C95.7052 48.5247 96.1755 50.6799 96.6849 52.8352ZM109.032 77.0135C107.934 76.8568 107.111 75.9947 106.955 74.8974C106.955 74.8191 106.955 74.7407 106.955 74.6623C107.151 72.3895 107.856 70.2734 109.227 68.4708C109.854 67.6087 110.873 67.4127 111.892 67.8046C112.95 68.1965 113.577 69.137 113.538 70.3126C113.577 70.4693 113.538 70.6261 113.499 70.822C112.911 72.4287 112.402 74.1137 111.696 75.6812C111.226 76.7784 110.129 77.2095 109.032 77.0135ZM47.5675 92.8541C47.254 93.3243 46.9014 93.7162 46.5095 94.1864C47.0189 94.5783 47.4892 94.8526 47.9202 95.2053C50.2322 97.0471 50.8984 99.6726 49.8012 102.416C49.2134 103.905 48.2729 105.159 47.0973 106.256C45.4906 107.823 43.5705 108.882 41.4544 109.665C40.5139 110.057 39.6126 110.41 38.7113 110.998C37.1046 112.016 35.302 111.233 34.9494 109.313C34.675 107.98 34.6359 106.648 34.5967 105.276C34.4007 99.0456 34.9102 92.8149 35.302 86.5842C35.4196 84.7032 36.3993 83.5668 38.2411 83.0965C40.8666 82.352 43.4137 82.5087 45.8433 83.6844C46.627 84.037 47.3324 84.5465 47.9594 85.1735C49.4093 86.7409 49.8404 88.6219 48.8999 90.6596C48.5472 91.4434 48.0378 92.1487 47.5675 92.8541ZM39.7693 98.3402C39.6518 100.535 39.4167 102.533 39.7693 104.884C41.6111 104.179 42.9435 103.356 44.0015 102.181C44.3542 101.75 44.6677 101.318 44.942 100.809C45.3731 99.9469 45.0988 99.3199 44.1975 98.9672C42.7867 98.4186 41.3368 98.3794 39.7693 98.3402ZM40.5139 87.799C40.1612 89.3273 40.122 90.738 40.0828 92.619C41.9246 91.4434 43.3745 90.4245 44.1583 88.7003C43.061 87.6422 41.8462 87.7598 40.5139 87.799ZM66.7492 108.137C66.71 106.844 66.71 106.413 66.5141 106.334C66.2398 106.256 65.8479 107.079 65.5344 107.549C64.1629 109.509 60.636 110.567 57.9322 109.43C55.9336 108.607 54.9148 106.883 54.5621 105.982C54.0135 104.532 53.6608 103.003 53.504 101.475C53.1122 97.87 53.4648 94.2648 53.7392 90.6596C53.7783 90.3461 53.8567 89.9934 53.9743 89.7191C54.3661 88.6611 55.4242 87.9949 56.4822 88.0733C57.5403 88.1908 58.4024 88.7003 58.6767 89.7583C58.8726 90.5421 58.9902 91.365 58.9118 92.1879C58.8726 94.0689 58.7943 95.9498 58.6375 97.8308C58.2065 102.964 58.52 103.709 59.0294 104.14C59.6564 104.61 60.636 104.689 61.3022 104.414C62.2035 104.022 62.8697 102.376 64.1237 99.0456C64.1237 99.0064 64.1629 98.9672 64.2021 98.8889C64.3588 98.4578 64.7899 97.2822 65.4168 95.2445C65.7303 94.304 66.1222 93.4419 66.3965 92.5014C66.5925 91.8744 66.8668 91.2474 67.2194 90.6988C67.8072 89.7975 68.7085 89.4448 69.7666 89.6016C70.8638 89.7975 71.7259 90.6596 71.8827 91.7177C71.9611 92.3838 71.9611 93.05 71.9219 93.7162C71.6084 98.5362 71.7259 103.356 72.0394 108.215C72.1178 108.999 72.1178 109.822 72.0786 110.645C71.9611 112.212 70.9814 113.192 69.6098 113.231C68.1991 113.231 67.2194 112.408 66.9843 110.802C66.9451 110.567 66.8276 110.214 66.7492 108.137ZM76.6675 108.255C76.158 104.493 76.2364 90.8947 76.0405 87.9165C75.8837 85.5261 76.9026 84.233 79.6848 83.7627C91.2842 81.9209 96.496 95.7931 89.8734 103.748C87.3655 106.609 83.29 110.762 79.1362 110.449C77.6863 110.292 76.8634 109.626 76.6675 108.255ZM81.5266 88.8178C81.2131 90.738 81.3699 100.3 81.8401 104.179C85.3278 101.789 87.8357 98.6537 87.5222 94.5783C87.3655 91.5609 84.8967 88.426 81.5266 88.8178ZM97.3707 108.255C96.8613 104.493 96.9396 90.8947 96.7437 87.9165C96.5869 85.5261 97.6058 84.233 100.388 83.7627C111.987 81.9209 117.199 95.7931 110.577 103.748C108.069 106.609 103.993 110.762 99.8395 110.449C98.3895 110.292 97.5666 109.626 97.3707 108.255ZM102.23 88.8178C101.916 90.738 102.073 100.3 102.543 104.179C106.031 101.789 108.539 98.6537 108.225 94.5783C108.069 91.5609 105.6 88.426 102.23 88.8178ZM122.057 91.8352C122.214 92.4622 122.488 93.05 122.801 93.9121C123.154 93.3243 123.468 92.9716 123.664 92.5406C124.839 90.1894 125.976 87.8382 127.112 85.4478C127.347 85.0167 127.504 84.5465 127.739 84.1546C128.444 83.0574 129.659 82.6655 130.756 83.0574C131.854 83.4492 132.559 84.5856 132.441 85.7613C132.363 86.3882 132.167 87.0544 131.893 87.6422C131.344 88.8962 130.717 90.1502 130.129 91.4042C127.269 97.3998 124.369 103.395 121.508 109.352C121.156 110.096 120.842 110.88 120.372 111.546C119.627 112.722 118.295 113.075 117.159 112.526C116.022 111.977 115.434 110.762 115.787 109.43C115.905 108.96 116.1 108.529 116.336 108.098C117.041 106.53 117.668 104.884 118.53 103.395C119.314 101.985 119.235 100.652 118.765 99.1632C118.099 97.1646 117.55 95.0877 117.002 93.05C116.257 90.2677 115.552 87.4855 114.846 84.7424C114.455 83.2925 115.278 81.9209 116.688 81.4115C117.903 81.0196 119.353 81.6858 119.902 83.0182C120.215 83.7627 120.372 84.5856 120.568 85.3694C121.077 87.5247 121.547 89.6799 122.057 91.8352ZM137.217 94.7742C135.845 94.8134 134.67 93.7554 134.591 92.3838C134.474 90.9731 135.688 89.7191 137.178 89.6799C138.549 89.6408 139.725 90.6596 139.842 92.0312C139.921 93.4419 138.667 94.7351 137.217 94.7742ZM137.178 101.71C138.549 101.632 139.725 102.69 139.842 104.062C139.921 105.433 138.667 106.726 137.217 106.765C135.845 106.805 134.67 105.786 134.591 104.414C134.474 103.003 135.688 101.75 137.178 101.71ZM148.517 83.2141C150.202 86.7801 150.751 90.5812 150.868 94.1081C150.79 99.1632 149.654 103.67 148.047 108.098C147.969 108.333 147.89 108.568 147.773 108.764C147.146 109.861 145.931 110.449 144.873 110.135C143.619 109.783 142.835 108.725 142.992 107.353C143.031 106.726 143.266 106.099 143.462 105.472C143.893 103.866 144.403 102.337 144.794 100.731C145.696 97.0471 145.931 93.2851 145.069 89.5232C144.599 87.4463 144.011 85.4478 142.678 83.6844C141.346 81.9993 142.208 79.8832 144.207 79.5305C145.186 79.3346 146.205 79.7265 146.832 80.5494C147.498 81.3723 148.047 82.2736 148.517 83.2141Z" fill="white"/>
<path d="M160.275 70.3859C178.088 102.052 211.919 116.804 224.289 112.351C206.291 127.287 171.161 136.193 139.989 136.193C101.483 136.193 -26.0761 132.143 9.05421 61.3876C44.1844 -9.36728 134.551 24.6552 160.275 70.3859Z" stroke="white" stroke-width="3.46354" stroke-linejoin="round"/>
</g>
</svg>
