<svg width="24" height="24" viewBox="0 0 24 24" fill="none" xmlns="http://www.w3.org/2000/svg">
<path d="M5.11769 16.1043C4.12406 14.4279 3.7765 12.4465 4.14026 10.532C4.50402 8.6175 5.55408 6.90161 7.09331 5.70646C8.63254 4.51131 10.5551 3.91908 12.5 4.04097C14.4449 4.16286 16.2785 4.99048 17.6565 6.36845C19.0345 7.74642 19.8621 9.57999 19.984 11.5249C20.1058 13.4698 19.5136 15.3924 18.3185 16.9316C17.1233 18.4709 15.4074 19.5209 13.4929 19.8847C11.5784 20.2484 9.597 19.9009 7.9206 18.9072L5.15106 19.6914C5.03759 19.7246 4.91728 19.7266 4.80274 19.6973C4.68821 19.668 4.58366 19.6085 4.50006 19.5249C4.41647 19.4413 4.3569 19.3367 4.3276 19.2222C4.2983 19.1077 4.30035 18.9873 4.33354 18.8739L5.11769 16.1043Z" stroke="#171717" stroke-width="1.5" stroke-linecap="round" stroke-linejoin="round"/>
<path d="M11.9996 13.0253C12.5519 13.0253 12.9996 12.5776 12.9996 12.0253C12.9996 11.473 12.5519 11.0253 11.9996 11.0253C11.4473 11.0253 10.9996 11.473 10.9996 12.0253C10.9996 12.5776 11.4473 13.0253 11.9996 13.0253Z" fill="#171717"/>
<path d="M7.99963 13.0253C8.55192 13.0253 8.99963 12.5776 8.99963 12.0253C8.99963 11.473 8.55192 11.0253 7.99963 11.0253C7.44735 11.0253 6.99963 11.473 6.99963 12.0253C6.99963 12.5776 7.44735 13.0253 7.99963 13.0253Z" fill="#171717"/>
<path d="M15.9996 13.0253C16.5519 13.0253 16.9996 12.5776 16.9996 12.0253C16.9996 11.473 16.5519 11.0253 15.9996 11.0253C15.4473 11.0253 14.9996 11.473 14.9996 12.0253C14.9996 12.5776 15.4473 13.0253 15.9996 13.0253Z" fill="#171717"/>
</svg>
