<svg width="1418" height="273" viewBox="0 0 1418 273" fill="none" xmlns="http://www.w3.org/2000/svg">
<path d="M913.927 203.706C914.725 204.297 915.252 205.025 915.116 206.036C915.016 207.004 914.385 207.805 913.482 208.102C912.934 208.297 912.375 208.333 911.624 208.5C911.786 209.171 912.016 209.638 912.046 210.117C912.199 211.269 911.688 212.063 910.72 212.605C909.79 213.105 908.931 212.838 908.135 212.287C907.756 211.99 907.446 211.529 907.104 211.19C906.717 210.773 906.517 210.145 905.743 209.953C905.103 210.594 904.384 211.281 903.708 212.005C903.217 212.477 902.726 212.949 902.055 213.111C901.069 213.374 900.218 213.227 899.527 212.429C898.838 211.671 898.822 210.79 899.124 209.849C899.36 209.153 900.219 208.778 900.203 207.897C899.494 207.461 898.711 207.751 898.017 207.554C897.076 207.253 896.323 206.739 896.1 205.751C895.73 204.332 896.533 203.079 897.992 202.706C898.703 202.541 899.524 202.85 900.213 202.326C900.065 201.894 899.955 201.42 899.845 200.946C899.642 199.636 900.109 198.765 901.199 198.256C902.092 197.799 903.105 197.975 903.959 198.803C904.43 199.294 904.865 199.828 905.219 200.367C906.355 201.858 906.4 201.936 907.787 200.405C908.278 199.934 908.727 199.424 909.221 198.992C909.6 198.648 910.064 198.378 910.54 198.308C912.402 197.95 913.907 199.579 913.339 201.378C913.172 201.91 912.801 202.374 912.474 202.916C912.791 203.497 913.465 203.374 913.927 203.706ZM930.35 201.268C930.061 201.767 929.727 202.189 929.358 202.693C929.902 203.06 930.399 203.309 930.86 203.641C933.334 205.368 934.181 208 933.24 210.865C932.736 212.42 931.859 213.758 930.732 214.951C929.196 216.651 927.307 217.852 925.202 218.786C924.269 219.246 923.373 219.663 922.493 220.32C920.922 221.461 919.035 220.778 918.552 218.845C918.187 217.505 918.062 216.15 917.934 214.756C917.334 208.421 917.453 202.041 917.452 195.668C917.451 193.744 918.377 192.524 920.223 191.926C922.849 190.999 925.454 190.996 928.005 192.037C928.826 192.346 929.577 192.82 930.256 193.418C931.834 194.922 932.394 196.811 931.567 198.947C931.258 199.768 930.784 200.519 930.35 201.268ZM922.758 207.358C922.779 209.601 922.668 211.652 923.178 214.024C925.009 213.187 926.314 212.264 927.316 210.998C927.648 210.536 927.94 210.077 928.186 209.54C928.57 208.634 928.25 208.013 927.31 207.712C925.837 207.244 924.358 207.297 922.758 207.358ZM922.84 196.571C922.579 198.151 922.629 199.59 922.71 201.509C924.511 200.193 925.923 199.062 926.61 197.255C925.425 196.248 924.195 196.446 922.84 196.571ZM950.872 215.605C950.749 214.291 950.722 213.851 950.517 213.784C950.233 213.722 949.886 214.585 949.597 215.085C948.326 217.169 944.801 218.473 941.973 217.489C939.884 216.779 938.736 215.088 938.319 214.192C937.667 212.75 937.209 211.216 936.951 209.669C936.321 206.022 936.449 202.326 936.497 198.636C936.516 198.314 936.574 197.95 936.676 197.663C937.007 196.56 938.042 195.813 939.125 195.825C940.21 195.877 941.121 196.341 941.469 197.401C941.719 198.187 941.891 199.018 941.864 199.861C941.945 201.78 941.986 203.701 941.947 205.627C941.838 210.884 942.205 211.623 942.751 212.029C943.42 212.468 944.423 212.485 945.084 212.163C945.977 211.706 946.55 209.986 947.614 206.512C947.611 206.473 947.649 206.43 947.684 206.348C947.816 205.899 948.179 204.673 948.687 202.557C948.946 201.579 949.29 200.675 949.509 199.7C949.669 199.048 949.908 198.392 950.232 197.811C950.773 196.855 951.668 196.437 952.756 196.529C953.887 196.658 954.82 197.481 955.048 198.549C955.17 199.223 955.213 199.901 955.216 200.583C955.206 205.513 955.635 210.416 956.267 215.346C956.397 216.139 956.45 216.977 956.463 217.818C956.444 219.423 955.508 220.484 954.114 220.612C952.677 220.702 951.626 219.927 951.283 218.305C951.228 218.068 951.086 217.716 950.872 215.605ZM960.984 215.088C960.223 211.289 959.43 197.431 959.039 194.41C958.726 191.985 959.681 190.602 962.485 189.944C974.184 187.323 980.384 201.121 974.148 209.65C971.777 212.725 967.892 217.218 963.64 217.166C962.153 217.099 961.272 216.473 960.984 215.088ZM964.686 194.976C964.49 196.952 965.264 206.683 965.992 210.605C969.391 207.945 971.745 204.591 971.164 200.459C970.811 197.395 968.094 194.36 964.686 194.976ZM982.075 213.759C981.314 209.96 980.521 196.102 980.13 193.081C979.817 190.655 980.772 189.273 983.576 188.615C995.275 185.994 1001.47 199.791 995.239 208.32C992.868 211.396 988.983 215.889 984.731 215.836C983.244 215.77 982.363 215.144 982.075 213.759ZM985.777 193.646C985.581 195.623 986.355 205.353 987.083 209.275C990.482 206.616 992.836 203.262 992.255 199.13C991.901 196.066 989.185 193.031 985.777 193.646ZM1006.17 195.447C1006.37 196.076 1006.69 196.657 1007.06 197.515C1007.38 196.894 1007.68 196.515 1007.85 196.063C1008.9 193.592 1009.9 191.124 1010.91 188.616C1011.12 188.162 1011.25 187.672 1011.46 187.258C1012.11 186.095 1013.33 185.618 1014.47 185.947C1015.61 186.275 1016.4 187.388 1016.36 188.593C1016.32 189.237 1016.16 189.928 1015.92 190.544C1015.44 191.857 1014.88 193.175 1014.37 194.49C1011.84 200.782 1009.27 207.076 1006.74 213.327C1006.42 214.108 1006.15 214.927 1005.72 215.636C1005.04 216.881 1003.7 217.326 1002.51 216.84C1001.31 216.354 1000.64 215.154 1000.91 213.774C1001 213.288 1001.17 212.836 1001.38 212.382C1002 210.74 1002.54 209.023 1003.32 207.45C1004.03 205.963 1003.86 204.611 1003.29 203.124C1002.48 201.131 1001.79 199.05 1001.1 197.01C1000.16 194.223 999.263 191.434 998.368 188.685C997.876 187.233 998.626 185.783 1000.03 185.173C1001.24 184.696 1002.76 185.282 1003.41 186.604C1003.77 187.342 1003.99 188.17 1004.24 188.956C1004.89 191.119 1005.51 193.284 1006.17 195.447ZM1033.74 210.744C1033.68 210.507 1033.67 210.267 1033.61 210.07C1033.47 208.436 1033.37 206.879 1033.23 205.285C1032.84 199.698 1032.41 194.114 1032.06 188.525C1031.98 187.969 1032.06 187.363 1032.19 186.794C1032.49 185.853 1033.13 185.251 1034.16 185.066C1035.15 184.883 1035.94 185.235 1036.63 185.993C1037.19 186.639 1037.36 187.47 1037.45 188.306C1037.77 192.734 1038.09 197.123 1038.41 201.552C1038.55 203.787 1038.73 206.06 1038.87 208.296C1038.92 209.054 1038.93 209.775 1038.85 210.541C1038.7 211.834 1037.75 212.695 1036.55 212.811C1035.28 212.931 1034.14 212.081 1033.74 210.744ZM1047.75 204.851C1048.65 204.593 1050.35 204.206 1050.57 203.23C1050.6 203.108 1050.6 203.028 1050.59 202.908C1050.45 201.995 1048.87 201.654 1048.74 201.622C1047.52 201.298 1046.33 200.892 1045.18 200.363C1040.35 198.143 1040.41 193.449 1042.35 190.522C1044.55 187.177 1047.74 185.613 1051.65 185.447C1052.45 185.396 1053.31 185.663 1054.09 185.934C1055.24 186.423 1055.8 187.63 1055.59 188.845C1055.39 190.021 1054.44 190.802 1053.08 190.888C1052.24 190.941 1051.84 190.926 1051.07 190.894C1050.43 190.894 1047.71 190.866 1046.76 192.328C1046.57 192.62 1046.3 193.279 1046.49 194.429C1046.78 195.253 1047.4 195.534 1048.05 195.734C1049.16 196.105 1050.3 196.433 1051.37 196.847C1052.44 197.301 1053.55 197.752 1054.47 198.415C1056.83 200.15 1057.33 203.084 1055.77 205.548C1055 206.798 1053.94 207.707 1052.7 208.466C1050.97 209.538 1049.08 210.177 1047.11 210.622C1045.77 210.948 1044.48 210.307 1043.97 209.177C1043.33 207.855 1043.91 206.335 1045.39 205.641C1045.74 205.498 1046.05 205.358 1046.37 205.258C1046.99 205.018 1047.35 204.956 1047.75 204.851ZM1079.07 190.853C1079.27 191.481 1079.59 192.063 1079.96 192.921C1080.28 192.299 1080.58 191.92 1080.75 191.468C1081.8 188.997 1082.81 186.529 1083.81 184.021C1084.02 183.567 1084.15 183.078 1084.37 182.663C1085.02 181.5 1086.23 181.023 1087.37 181.352C1088.51 181.681 1089.3 182.793 1089.26 183.998C1089.22 184.642 1089.06 185.333 1088.82 185.95C1088.34 187.262 1087.79 188.58 1087.27 189.895C1084.74 196.187 1082.17 202.481 1079.64 208.733C1079.33 209.514 1079.06 210.332 1078.62 211.041C1077.94 212.287 1076.6 212.731 1075.41 212.245C1074.22 211.76 1073.54 210.56 1073.81 209.18C1073.9 208.693 1074.08 208.241 1074.29 207.787C1074.91 206.145 1075.44 204.428 1076.22 202.856C1076.93 201.368 1076.76 200.016 1076.19 198.529C1075.38 196.536 1074.69 194.456 1074 192.415C1073.06 189.628 1072.17 186.839 1071.27 184.09C1070.78 182.638 1071.53 181.188 1072.93 180.579C1074.15 180.101 1075.67 180.687 1076.31 182.009C1076.68 182.747 1076.89 183.576 1077.14 184.361C1077.8 186.524 1078.41 188.69 1079.07 190.853ZM1092.62 186.592C1093.31 185.547 1094.26 184.685 1095.34 184.056C1095.69 183.834 1100.82 180.705 1105.2 182.833C1107.15 183.753 1108.54 185.549 1108.63 185.623C1109.89 187.307 1110.7 189.3 1110.91 191.371C1111.47 196.426 1109.9 200.773 1106.36 204.403C1105.2 205.599 1103.77 206.45 1102.16 207.072C1099.66 208.072 1096.22 207.487 1093.97 204.903C1092.63 203.305 1091.66 201.362 1091.29 199.301C1091.16 198.468 1091.11 197.629 1091.02 196.833C1090.6 193.413 1090.73 190.96 1091.72 188.332C1091.97 187.716 1092.25 187.137 1092.62 186.592ZM1102.45 200.762C1104.75 198.573 1105.78 195.783 1105.62 192.626C1105.53 191.149 1105.12 189.812 1104.21 188.667C1102.78 186.994 1100.56 186.773 1098.84 188.124C1098.04 188.775 1097.41 189.537 1097.11 190.557C1096.95 191.169 1096.71 191.825 1096.63 192.471C1096.3 194.817 1096.05 197.158 1096.91 199.428C1097.98 202.446 1100.06 202.957 1102.45 200.762ZM1128.8 204.392C1128.68 203.077 1128.65 202.638 1128.45 202.57C1128.16 202.508 1127.81 203.372 1127.53 203.871C1126.25 205.955 1122.73 207.259 1119.9 206.275C1117.81 205.565 1116.66 203.874 1116.25 202.978C1115.59 201.537 1115.14 200.002 1114.88 198.456C1114.25 194.808 1114.38 191.113 1114.42 187.422C1114.44 187.1 1114.5 186.736 1114.6 186.449C1114.94 185.346 1115.97 184.599 1117.05 184.611C1118.14 184.663 1119.05 185.127 1119.4 186.187C1119.65 186.973 1119.82 187.804 1119.79 188.647C1119.87 190.566 1119.91 192.487 1119.88 194.413C1119.77 199.671 1120.13 200.409 1120.68 200.815C1121.35 201.254 1122.35 201.271 1123.01 200.949C1123.91 200.492 1124.48 198.772 1125.54 195.299C1125.54 195.259 1125.58 195.216 1125.61 195.134C1125.74 194.685 1126.11 193.459 1126.62 191.343C1126.87 190.365 1127.22 189.462 1127.44 188.486C1127.6 187.835 1127.84 187.178 1128.16 186.597C1128.7 185.641 1129.6 185.224 1130.68 185.315C1131.81 185.445 1132.75 186.267 1132.98 187.335C1133.1 188.009 1133.14 188.688 1133.14 189.369C1133.13 194.299 1133.56 199.202 1134.19 204.132C1134.33 204.925 1134.38 205.764 1134.39 206.604C1134.37 208.209 1133.44 209.27 1132.04 209.398C1130.6 209.488 1129.55 208.713 1129.21 207.091C1129.16 206.854 1129.01 206.502 1128.8 204.392ZM1150.09 194.233C1149.64 194.742 1149.14 195.134 1148.49 195.656C1149.64 196.666 1150.88 197.189 1152 197.84C1153 198.458 1154.07 198.951 1155 199.654C1155.92 200.278 1156.14 201.266 1155.89 202.324C1155.67 203.339 1154.95 203.906 1154.04 204.204C1153.41 204.403 1152.72 204.247 1151.85 203.82C1150.45 203.227 1150.05 202.611 1148.41 201.392C1145.42 199.096 1144.56 199.39 1144.33 199.525C1144.21 199.613 1144.14 199.658 1144.03 199.785C1144.09 200.743 1144.18 201.579 1144.19 202.38C1144.22 203.58 1143.76 204.531 1142.63 205.043C1142.05 205.32 1141.33 205.365 1140.67 205.126C1140.06 204.885 1139.55 204.396 1139.27 203.772C1138.99 203.148 1138.83 202.517 1138.7 201.844C1137.75 196.293 1137.32 190.709 1137.17 185.107C1137.06 181.467 1137.39 181.045 1140.8 179.788C1143.78 178.679 1146.71 178.735 1149.56 180.158C1153.86 182.291 1155.28 186.892 1152.81 190.975C1152.08 192.183 1151.02 193.172 1150.09 194.233ZM1147.69 185.486C1146.36 184.648 1145.13 184.245 1143.64 184.819C1143.13 185.012 1142.8 185.473 1142.76 186.037C1142.66 186.966 1142.63 187.889 1142.69 188.807C1142.79 189.763 1142.93 190.676 1143.06 191.469C1143.12 191.746 1143.25 191.978 1143.5 192.083C1143.75 192.187 1144.03 192.17 1144.26 192.035C1144.76 191.763 1145.26 191.411 1145.72 191.061C1146.49 190.532 1147.17 189.888 1147.72 189.171C1147.99 188.874 1148.2 188.5 1148.38 188.128C1148.87 187.055 1148.65 186.067 1147.69 185.486ZM918.002 257.716C917.687 255.893 917.61 252.13 917.303 252.35C917.328 252.108 916.504 252.4 916.27 252.495C914.698 252.995 911.929 253.57 911.555 253.995C911.141 254.421 911.736 257.51 911.57 259.324C911.345 262.104 907.315 262.398 906.553 259.841C905.441 252.376 905.724 244.783 905.251 237.278C905.078 235.806 905.991 234.386 907.455 234.093C909.715 233.71 910.732 235.85 910.738 237.854C910.877 241.332 909.526 248.511 911.07 248.214C912.575 247.918 915.958 247.545 916.778 246.571C917.561 245.64 916.26 237.706 917.393 233.427C917.624 232.651 918.228 232.051 919.014 231.801C919.8 231.552 920.651 231.698 921.28 232.14C922.49 232.905 922.379 234.315 922.337 235.56C922.098 242.589 922.621 249.61 923.104 256.633C923.142 257.232 923.017 257.801 922.77 258.338C921.783 260.484 918.507 260.009 918.002 257.716ZM931.931 237.48C931.263 237.683 931.385 242.164 931.799 242.378C932.216 242.632 933.246 242.447 934.045 242.397C935.609 242.419 938.119 242.18 938.828 242.617C939.781 243.118 940.171 243.574 940.359 244.644C940.555 248.399 932.73 247.61 932.279 248.079C931.977 248.379 932.06 249.696 932.083 250.697C932.081 251.939 931.611 254.013 932.484 253.878C936.575 253.299 938.884 253.675 939.159 254.86C939.578 255.795 939.252 256.978 938.699 257.735C937.701 259.08 935.545 258.575 931.326 259.041C928.462 259.382 927.178 256.817 927.057 254.26C926.789 248.105 926.359 241.919 926.209 235.717C926.325 233.745 927.106 232.774 929.052 232.491C931.841 232.235 934.73 231.653 937.547 231.836C940.26 232.266 940.387 236.186 937.745 236.873C935.841 237.194 932.6 237.278 931.931 237.48ZM949.11 232.63C949.069 239.606 948.324 246.226 948.767 253.252C951.791 252.902 954.313 252.222 957.252 251.796C960.977 251.761 960.643 256.632 957.26 257.006C941.048 259.871 943.499 261.24 943.403 245.094C943.483 241.281 943.723 237.458 943.881 233.601C943.855 231.919 944.952 230.247 946.809 230.45C947.979 230.577 948.917 231.48 949.11 232.63ZM969.349 248.629C968.643 248.874 967.937 249.118 967.074 249.413C967.155 250.691 967.215 251.649 967.278 252.647C967.321 253.326 967.483 253.997 967.444 254.64C967.442 255.883 966.544 256.902 965.357 257.137C964.129 257.374 962.974 256.846 962.496 255.634C962.167 254.853 961.997 254.062 961.944 253.224C961.7 249.351 961.498 245.516 961.376 241.676C961.298 239.156 961.421 236.664 961.342 234.144C961.287 232.624 961.905 231.623 963.097 230.827C964.714 229.763 966.542 229.527 968.386 229.531C971.35 229.505 974.013 230.419 976.22 232.364C979.32 235.135 979.889 239.067 977.747 242.609C976.837 244.069 975.668 245.225 974.286 246.193C972.747 247.212 971.076 248.039 969.349 248.629ZM966.859 244.096C968.109 243.577 969.314 242.98 970.471 242.266C970.663 242.133 971.087 241.866 971.584 241.474C972.347 240.865 972.729 240.56 973.098 240.056C973.354 239.679 973.831 238.968 973.693 238.055C973.613 237.418 973.226 237.002 972.881 236.623C972.15 235.827 971.154 235.289 970.101 235.115C969.452 234.995 968.811 234.996 968.175 235.076C967.738 235.143 967.301 235.211 966.867 235.318C966.716 237.372 966.647 239.46 966.736 241.499C966.751 242.38 966.807 243.258 966.859 244.096ZM987.524 233.976C986.855 234.179 986.978 238.66 987.392 238.874C987.809 239.129 988.839 238.944 989.638 238.893C991.202 238.915 993.712 238.677 994.421 239.113C995.374 239.614 995.764 240.07 995.951 241.141C996.148 244.896 988.323 244.106 987.871 244.576C987.57 244.875 987.653 246.193 987.676 247.193C987.674 248.436 987.203 250.509 988.077 250.374C992.168 249.796 994.477 250.171 994.752 251.356C995.171 252.292 994.845 253.475 994.291 254.231C993.294 255.576 991.138 255.071 986.919 255.537C984.055 255.878 982.771 253.314 982.65 250.756C982.382 244.601 981.952 238.416 981.802 232.213C981.918 230.242 982.699 229.271 984.645 228.988C987.434 228.732 990.323 228.149 993.14 228.332C995.853 228.762 995.979 232.682 993.337 233.37C991.434 233.69 988.193 233.774 987.524 233.976ZM1011.58 243.042C1011.13 243.551 1010.63 243.943 1009.98 244.465C1011.13 245.475 1012.36 245.998 1013.49 246.649C1014.49 247.267 1015.56 247.76 1016.49 248.463C1017.41 249.087 1017.63 250.075 1017.38 251.133C1017.16 252.148 1016.43 252.715 1015.53 253.013C1014.9 253.213 1014.21 253.056 1013.34 252.63C1011.94 252.036 1011.54 251.42 1009.9 250.201C1006.91 247.905 1006.05 248.199 1005.82 248.334C1005.7 248.422 1005.62 248.467 1005.51 248.594C1005.57 249.552 1005.67 250.388 1005.68 251.189C1005.71 252.389 1005.25 253.34 1004.12 253.852C1003.54 254.129 1002.82 254.174 1002.16 253.935C1001.55 253.694 1001.03 253.205 1000.75 252.581C1000.47 251.958 1000.31 251.326 1000.19 250.653C999.24 245.102 998.808 239.518 998.655 233.916C998.546 230.276 998.88 229.854 1002.29 228.597C1005.26 227.488 1008.19 227.544 1011.05 228.967C1015.35 231.1 1016.76 235.701 1014.3 239.784C1013.57 240.992 1012.51 241.981 1011.58 243.042ZM1009.18 234.295C1007.84 233.457 1006.62 233.054 1005.13 233.628C1004.62 233.821 1004.29 234.283 1004.25 234.846C1004.14 235.775 1004.12 236.698 1004.18 237.616C1004.28 238.572 1004.42 239.485 1004.55 240.278C1004.6 240.555 1004.74 240.787 1004.99 240.892C1005.23 240.996 1005.51 240.979 1005.75 240.844C1006.25 240.572 1006.75 240.22 1007.21 239.87C1007.98 239.341 1008.66 238.697 1009.21 237.98C1009.47 237.683 1009.69 237.309 1009.87 236.937C1010.36 235.864 1010.14 234.876 1009.18 234.295ZM1033.47 250.84C1033.41 250.603 1033.4 250.364 1033.34 250.167C1033.2 248.532 1033.1 246.975 1032.96 245.381C1032.57 239.795 1032.14 234.211 1031.78 228.622C1031.71 228.066 1031.79 227.459 1031.92 226.89C1032.22 225.949 1032.86 225.348 1033.89 225.163C1034.88 224.98 1035.67 225.331 1036.35 226.089C1036.92 226.735 1037.09 227.566 1037.18 228.402C1037.5 232.831 1037.82 237.219 1038.14 241.648C1038.28 243.884 1038.46 246.157 1038.6 248.392C1038.65 249.151 1038.65 249.872 1038.58 250.638C1038.42 251.93 1037.48 252.792 1036.28 252.907C1035.01 253.028 1033.87 252.177 1033.47 250.84ZM1054.62 238.325C1054.62 238.325 1056.46 241.495 1056.71 240.919C1056.95 240.342 1057 239.257 1057.05 238.693C1057.31 234.668 1057.58 230.683 1057.85 226.658C1057.89 226.015 1058.01 225.326 1058.21 224.712C1058.6 223.325 1059.76 222.61 1061.05 222.769C1062.31 222.971 1063.21 223.996 1063.31 225.433C1063.33 225.832 1063.32 226.234 1063.26 226.678C1062.93 231.509 1062.59 236.34 1062.26 241.21C1062.2 242.296 1062.11 243.384 1061.94 244.437C1061.79 245.288 1061.52 246.066 1061.17 246.81C1060.23 248.552 1058.39 249.149 1056.64 248.177C1055.64 247.599 1054.72 246.856 1053.98 245.98C1052.25 244.005 1050.68 241.94 1049.07 239.917C1048.55 239.269 1047.61 237.844 1047.33 237.742C1047.04 237.64 1047.02 238.603 1047.04 238.883C1047.28 241.393 1047.52 243.903 1047.75 246.373C1047.86 247.448 1048.09 248.556 1048.12 249.636C1048.16 250.275 1048.04 250.964 1047.8 251.58C1047.41 252.406 1046.64 252.936 1045.73 253.033C1044.85 253.089 1043.98 252.702 1043.45 251.934C1043.1 251.395 1042.86 250.769 1042.78 250.093C1042.34 246.433 1041.95 242.77 1041.68 239.1C1041.52 237.107 1041.59 235.098 1041.66 233.089C1041.69 232.166 1041.87 231.233 1042.18 230.412C1042.98 228.478 1044.98 227.79 1046.73 228.922C1047.57 229.511 1048.29 230.187 1048.91 230.99C1050.86 233.431 1054.62 238.325 1054.62 238.325ZM1094.07 246.66C1093.94 245.345 1093.92 244.906 1093.71 244.839C1093.43 244.777 1093.08 245.64 1092.79 246.139C1091.52 248.223 1087.99 249.528 1085.17 248.544C1083.08 247.834 1081.93 246.142 1081.51 245.247C1080.86 243.805 1080.4 242.271 1080.15 240.724C1079.51 237.076 1079.64 233.381 1079.69 229.691C1079.71 229.369 1079.77 229.005 1079.87 228.718C1080.2 227.615 1081.24 226.868 1082.32 226.88C1083.4 226.932 1084.32 227.395 1084.66 228.456C1084.91 229.241 1085.09 230.072 1085.06 230.916C1085.14 232.834 1085.18 234.755 1085.14 236.682C1085.03 241.939 1085.4 242.677 1085.95 243.084C1086.61 243.523 1087.62 243.54 1088.28 243.217C1089.17 242.76 1089.74 241.041 1090.81 237.567C1090.81 237.527 1090.84 237.485 1090.88 237.402C1091.01 236.953 1091.37 235.728 1091.88 233.612C1092.14 232.633 1092.48 231.73 1092.7 230.754C1092.86 230.103 1093.1 229.447 1093.43 228.865C1093.97 227.909 1094.86 227.492 1095.95 227.584C1097.08 227.713 1098.01 228.536 1098.24 229.604C1098.36 230.277 1098.41 230.956 1098.41 231.637C1098.4 236.568 1098.83 241.47 1099.46 246.4C1099.59 247.194 1099.64 248.032 1099.66 248.873C1099.64 250.477 1098.7 251.538 1097.31 251.666C1095.87 251.757 1094.82 250.981 1094.48 249.36C1094.42 249.123 1094.28 248.771 1094.07 246.66ZM1115.32 234.499C1115.32 234.499 1117.16 237.67 1117.41 237.093C1117.65 236.517 1117.7 235.431 1117.75 234.867C1118.01 230.842 1118.28 226.858 1118.55 222.833C1118.59 222.189 1118.71 221.5 1118.91 220.886C1119.3 219.499 1120.46 218.785 1121.75 218.944C1123.01 219.145 1123.91 220.17 1124.01 221.607C1124.03 222.007 1124.02 222.408 1123.96 222.852C1123.63 227.683 1123.29 232.514 1122.96 237.385C1122.9 238.47 1122.81 239.558 1122.64 240.611C1122.49 241.462 1122.22 242.241 1121.87 242.984C1120.93 244.726 1119.09 245.324 1117.34 244.351C1116.34 243.773 1115.42 243.03 1114.68 242.155C1112.95 240.179 1111.38 238.114 1109.77 236.092C1109.25 235.443 1108.31 234.019 1108.03 233.917C1107.74 233.815 1107.72 234.778 1107.74 235.057C1107.98 237.567 1108.22 240.077 1108.45 242.547C1108.56 243.623 1108.79 244.73 1108.82 245.811C1108.86 246.449 1108.74 247.138 1108.5 247.754C1108.11 248.581 1107.34 249.11 1106.43 249.208C1105.55 249.263 1104.68 248.877 1104.15 248.109C1103.8 247.57 1103.56 246.944 1103.48 246.268C1103.04 242.607 1102.65 238.945 1102.38 235.275C1102.22 233.281 1102.29 231.272 1102.36 229.264C1102.39 228.341 1102.57 227.407 1102.88 226.586C1103.68 224.652 1105.68 223.965 1107.43 225.097C1108.27 225.685 1108.99 226.361 1109.61 227.164C1111.56 229.606 1115.32 234.499 1115.32 234.499ZM1129.8 244.769C1129.74 244.532 1129.73 244.292 1129.68 244.095C1129.53 242.461 1129.43 240.904 1129.29 239.31C1128.9 233.723 1128.47 228.14 1128.12 222.551C1128.04 221.994 1128.12 221.388 1128.25 220.819C1128.55 219.878 1129.19 219.276 1130.22 219.091C1131.21 218.909 1132 219.26 1132.69 220.018C1133.25 220.664 1133.42 221.495 1133.51 222.331C1133.83 226.759 1134.15 231.148 1134.47 235.577C1134.61 237.812 1134.79 240.085 1134.93 242.321C1134.98 243.079 1134.99 243.801 1134.92 244.567C1134.76 245.859 1133.81 246.72 1132.61 246.836C1131.34 246.956 1130.2 246.106 1129.8 244.769ZM1153.84 228.665C1154.64 229.255 1155.17 229.984 1155.03 230.994C1154.93 231.963 1154.3 232.764 1153.4 233.061C1152.85 233.256 1152.29 233.291 1151.54 233.459C1151.7 234.13 1151.93 234.596 1151.96 235.076C1152.12 236.228 1151.6 237.022 1150.64 237.564C1149.71 238.063 1148.85 237.797 1148.05 237.246C1147.67 236.949 1147.36 236.488 1147.02 236.149C1146.63 235.732 1146.43 235.103 1145.66 234.912C1145.02 235.553 1144.3 236.24 1143.62 236.964C1143.13 237.436 1142.64 237.907 1141.97 238.07C1140.99 238.332 1140.13 238.186 1139.44 237.388C1138.75 236.629 1138.74 235.749 1139.04 234.808C1139.28 234.112 1140.13 233.737 1140.12 232.856C1139.41 232.42 1138.63 232.71 1137.93 232.513C1136.99 232.211 1136.24 231.698 1136.02 230.71C1135.65 229.29 1136.45 228.037 1137.91 227.665C1138.62 227.5 1139.44 227.809 1140.13 227.284C1139.98 226.853 1139.87 226.379 1139.76 225.905C1139.56 224.595 1140.02 223.724 1141.11 223.214C1142.01 222.757 1143.02 222.934 1143.87 223.762C1144.35 224.253 1144.78 224.787 1145.14 225.326C1146.27 226.817 1146.32 226.894 1147.7 225.364C1148.19 224.892 1148.64 224.383 1149.14 223.951C1149.52 223.607 1149.98 223.337 1150.46 223.267C1152.32 222.909 1153.82 224.538 1153.26 226.337C1153.09 226.868 1152.72 227.333 1152.39 227.874C1152.71 228.456 1153.38 228.333 1153.84 228.665Z" fill="black"/>
<path d="M1409.07 49.834C1408.7 49.5807 1408.37 49.4141 1407.91 49.4536C1407.07 49.8486 1402.16 56.5144 1401.1 57.8191C1400.43 56.8088 1400.69 50.6796 1400 48.8665C1399.85 48.4542 1399.69 48.1885 1399.29 48.0021C1399.03 48.0033 1398.87 48.0399 1398.65 48.1741C1398.37 48.3418 1398.23 48.5964 1398.15 48.9044C1398.03 49.409 1398.7 57.3282 1398.84 58.255C1398.88 58.5057 1398.93 58.6715 1399.05 58.8909C1399 58.8803 1398.96 58.8668 1398.91 58.8565C1397.94 58.6392 1393.78 54.1374 1392.49 53.219C1392.11 52.9453 1391.42 52.5296 1390.94 52.6362C1390.73 52.6827 1390.6 52.7982 1390.52 52.9909C1390.4 53.2465 1390.39 53.7229 1390.5 53.9799C1390.64 54.3061 1396.91 60.0858 1397.4 60.255C1396.09 60.9411 1388.69 61.0833 1386.67 61.3959C1386.03 61.4939 1385.14 61.7731 1384.79 62.3494C1384.65 62.5895 1384.65 62.723 1384.71 62.9843C1384.94 63.2622 1385.21 63.4358 1385.55 63.5381C1386.41 63.7931 1397.23 62.6404 1398.05 62.2351C1396 64.9554 1393.63 67.5158 1391.47 70.1553C1390.79 70.9862 1389.89 71.8807 1389.37 72.8072C1389.24 73.046 1389.2 73.1568 1389.27 73.4199C1389.27 73.4472 1389.27 73.4729 1389.27 73.4991C1389.29 73.8243 1389.39 74.063 1389.65 74.2711C1389.83 74.4165 1390.04 74.4738 1390.27 74.4425C1390.52 74.4079 1390.71 74.2826 1390.89 74.1143C1391.93 73.1395 1392.84 71.7952 1393.76 70.6886C1395.59 68.4819 1397.55 66.2979 1399.21 63.96C1399.12 64.7411 1399.96 72.894 1400.26 73.5721C1400.38 73.8453 1400.63 74.0381 1400.92 74.1176C1401.18 74.192 1401.51 74.1681 1401.74 74.0065C1402.01 73.8117 1402.08 73.5579 1402.13 73.2429C1402.22 72.5668 1402.06 71.757 1401.98 71.0805C1401.79 69.3982 1401.12 65.2714 1401.26 63.8438C1401.26 63.8091 1401.27 63.7737 1401.27 63.7394C1401.63 64.5231 1406.97 69.6332 1407.67 69.9852C1408.02 70.1593 1408.24 70.1945 1408.61 70.0737C1408.78 69.9071 1408.88 69.7953 1408.96 69.5589C1409.04 69.2699 1409.05 69.0494 1408.93 68.7704C1408.45 67.7177 1405.15 64.802 1404.13 63.8621C1403.6 63.369 1402.82 62.7794 1402.48 62.1454C1402.47 62.1233 1402.46 62.1016 1402.45 62.0798C1402.67 62.1769 1412.85 60.6829 1413.56 60.49C1413.96 60.3823 1414.57 60.1941 1414.77 59.8031C1414.87 59.6009 1414.87 59.4231 1414.77 59.2183C1414.62 58.9355 1414.29 58.6435 1413.98 58.56C1412.39 58.1266 1403.2 60.4143 1402.21 60.0457C1402.17 60.0276 1402.12 60.0062 1402.07 59.9864C1403.68 57.8628 1405.36 55.7867 1407 53.6923C1407.71 52.7903 1408.69 51.7883 1409.18 50.7639C1409.32 50.4814 1409.16 50.1199 1409.07 49.834Z" fill="black"/>
<path d="M1352.19 6.04165C1357.87 7.10638 1363.57 8.09946 1369.28 9.02087C1372.06 9.49188 1374.81 10.0727 1377.58 10.5251L1372.3 38.2477C1371.58 42.0987 1370.65 45.9555 1370.07 49.8274L1369.37 52.5278C1362.89 51.7657 1356.41 50.7647 1349.94 49.8967L1328.95 47.2853C1329.85 43.6612 1330.5 39.9141 1331.2 36.2466L1335.2 14.4737C1335.78 11.3388 1336.21 8.0945 1336.96 5.00593C1337.07 4.55369 1337.23 4.27779 1337.55 3.95148C1338.66 3.45767 1350.01 5.85583 1352.19 6.04165Z" fill="#FFA7D1"/>
<path d="M1356.49 12.3973C1356.83 12.5368 1357.3 12.7073 1357.51 13.0297C1357.72 13.3594 1357.7 13.7113 1357.66 14.087C1357.54 15.3127 1357.11 16.5769 1356.84 17.7846C1356.21 20.628 1355.57 23.4856 1355.08 26.3563C1357.2 24.7147 1359.19 22.8831 1361.28 21.1992C1362.09 20.5534 1363.24 19.6135 1364.34 19.7597C1364.65 19.801 1364.92 19.9584 1365.09 20.2269C1365.31 20.5594 1365.39 20.968 1365.3 21.3551C1365.08 22.2212 1356.66 28.7178 1355.39 29.5605C1357.07 29.9107 1365 31.3493 1365.73 32.2975C1365.97 32.6089 1366.05 32.9695 1365.99 33.3551C1365.92 33.7344 1365.71 34.0489 1365.39 34.2572C1365.12 34.4304 1364.85 34.4853 1364.53 34.4647C1363.22 34.3789 1361.79 33.8637 1360.49 33.5795C1358.89 33.2296 1357.26 33.0045 1355.65 32.6619C1356.7 34.2864 1361.16 40.601 1361.27 41.9955C1361.31 42.5065 1361.01 42.99 1360.69 43.3555C1360.35 43.5083 1360.16 43.6015 1359.78 43.4828C1357.96 42.9055 1354.44 36.0824 1353.34 34.1837C1352.82 36.2297 1352.08 41.5119 1351.03 42.9781C1350.72 43.4032 1350.49 43.4986 1350 43.5821C1349.79 43.4964 1349.6 43.4232 1349.43 43.2644C1348.88 42.747 1348.67 42.3561 1348.62 41.6304C1349.09 38.6723 1349.9 35.7598 1350.68 32.8712C1348.46 34.3971 1346.26 36.0544 1344.13 37.712C1343.3 38.3616 1342.51 39.1754 1341.61 39.7333C1341.19 40.0015 1340.71 40.2152 1340.21 40.2867C1339.62 40.3698 1339.2 40.2569 1338.73 39.9063C1338.61 39.6461 1338.52 39.5417 1338.56 39.2579C1338.82 37.4856 1345.97 32.7776 1347.7 31.4857C1345.95 31.3494 1339.96 31.6131 1338.82 30.7555C1338.41 30.4465 1338.26 30.0478 1338.24 29.5436C1338.23 29.2171 1338.33 28.9114 1338.56 28.6824C1338.92 28.338 1339.36 28.2478 1339.83 28.1955C1340.71 28.0992 1341.65 28.25 1342.54 28.2629C1344.88 28.2967 1347.23 28.2934 1349.57 28.3757C1348.77 26.4664 1343.72 19.0792 1343.9 17.7858C1343.95 17.3903 1344.15 17.0371 1344.48 16.81C1344.81 16.5867 1345.2 16.5193 1345.58 16.6273C1346.93 17.0098 1351.26 24.9992 1352.15 26.4914C1352.77 23.8509 1354.04 14.67 1355.2 12.9705C1355.5 12.5314 1356 12.4927 1356.49 12.3973Z" fill="black"/>
<path d="M1389.8 146.336C1390.04 146.637 1390.26 146.957 1390.23 147.356C1390.14 148.793 1382.68 159.193 1381.45 160.714C1381.08 161.171 1380.67 161.548 1380.21 161.914C1375.65 165.58 1370.82 168.961 1366.14 172.479L1339.02 192.938C1330.6 199.294 1322.24 205.757 1313.68 211.913L1307.97 216.017C1306.91 216.775 1305.86 217.594 1304.76 218.282C1304.31 218.561 1303.93 218.7 1303.4 218.624C1301.75 218.387 1300.5 216.129 1299.62 214.878C1298.78 213.732 1297.83 212.573 1297.15 211.335C1296.66 210.441 1296.39 209.394 1296.7 208.393C1296.93 207.652 1297.46 207.017 1298.05 206.536C1302.37 203.062 1306.97 199.882 1311.4 196.562L1346.28 170.76L1364.25 157.524L1370.36 153.05C1371.38 152.308 1372.43 151.398 1373.54 150.822C1374.99 150.074 1376.75 149.69 1378.3 149.189C1381.18 148.263 1385.73 146.557 1388.61 146.196C1389.06 146.14 1389.38 146.198 1389.8 146.336Z" fill="black"/>
<path d="M1386.76 148.91C1386.39 150.196 1381.17 157.318 1380.08 158.745L1377.97 155.867C1377.15 154.762 1376.35 153.643 1375.57 152.509C1379.32 151.365 1383.01 150.05 1386.76 148.91Z" fill="#FEFDFD"/>
<path d="M1373.57 153.574L1378.53 160.348C1376.54 161.867 1374.53 163.361 1372.51 164.831L1367.55 157.941C1369.54 156.476 1371.52 154.941 1373.57 153.574Z" fill="#FEFDFD"/>
<path d="M1305.91 200.538L1314.16 211.719C1311.26 213.754 1306.95 217.049 1303.88 219.312C1303.48 219.603 1302.93 219.54 1302.62 219.157C1300.73 216.809 1295.54 210.083 1295.27 208.922C1295.35 208.507 1295.69 208.167 1295.99 207.882C1296.76 207.139 1297.76 206.516 1298.62 205.871L1305.91 200.538Z" fill="#FD4B11"/>
<path d="M1365.82 159.18C1367.52 161.477 1369.14 163.836 1370.78 166.177C1368.19 168.227 1365.48 170.159 1362.84 172.149L1345.68 185.08L1327.67 198.626C1323.38 201.93 1319.06 205.189 1314.71 208.404C1312.88 205.948 1311.07 203.427 1309.35 200.891L1365.82 159.18Z" fill="#03C3A3"/>
<path d="M1299.32 54.6155C1301.56 56.2669 1303.81 57.9006 1306.07 59.5166C1307.68 60.689 1309.32 62.0639 1311.09 62.976C1313.84 64.3939 1316.85 65.4717 1319.69 66.7219C1327.46 70.1463 1366.37 86.8556 1367.52 94.1106C1367.56 94.3637 1367.55 94.6107 1367.55 94.8658C1366.27 97.2151 1364.89 99.5101 1363.61 101.858C1358.97 110.15 1354.1 118.328 1349.34 126.552L1327.12 164.925L1325.31 168.03C1324.53 169.41 1321.8 174.844 1320.62 175.291C1320.2 175.451 1319.07 174.744 1318.69 174.517C1314.44 171.995 1310.26 169.385 1305.95 166.967C1297.48 162.242 1288.84 157.857 1280.03 153.811C1276.83 152.321 1273.67 150.75 1270.41 149.395C1268 148.489 1264.91 147.365 1262.69 146.121C1260.39 144.841 1258.29 143.089 1256.17 141.542L1245.72 134.004C1239.95 129.82 1234.03 125.862 1227.97 122.128C1225.23 120.418 1222.5 118.615 1219.65 117.096C1217.56 115.639 1209.5 111.918 1208.6 110.522C1208.59 109.936 1208.92 109.259 1209.19 108.743C1210.42 106.396 1211.85 104.113 1213.18 101.816L1221.04 88.1789L1249.23 39.4487C1250.87 36.5618 1252.47 33.5968 1254.22 30.7802C1254.49 30.3575 1254.89 29.6333 1255.4 29.5357C1256.24 29.3762 1257.43 29.8489 1258.23 30.0748C1266.52 32.4026 1274.43 37.9142 1281.6 42.566C1287.58 46.4447 1293.55 50.4186 1299.32 54.6155Z" fill="black"/>
<path d="M1256.38 31.9483C1264.3 33.7357 1271.43 38.7005 1278.18 43.0296C1285.02 47.4582 1291.76 52.0273 1298.41 56.7369C1296.91 58.8928 1295.23 60.6685 1292.52 61.1584C1291.22 61.3955 1290.01 61.2176 1288.76 60.777C1287.72 60.4082 1286.72 59.8425 1285.73 59.3449L1279.77 56.269C1269.97 51.3066 1260.77 46.3791 1251.38 40.6653C1250.83 41.6062 1250.25 42.5395 1249.74 43.503L1249.67 43.558C1250.12 42.2933 1251.15 40.9798 1251.84 39.8073C1253.37 37.1969 1254.88 34.5773 1256.38 31.9483Z" fill="#FEFDFD"/>
<path d="M1249.74 43.5031C1251.52 44.9247 1252.79 46.8829 1253.06 49.1769C1253.21 50.5017 1252.97 51.6769 1252.46 52.8981C1251.67 54.7558 1250.55 56.523 1249.62 58.3136C1246.74 63.841 1243.67 69.2626 1240.67 74.7276C1233.51 87.9049 1226.27 101.04 1218.95 114.132C1216.41 112.655 1213.84 111.194 1211.21 109.882L1249.67 43.5581L1249.74 43.5031Z" fill="#FEFDFD"/>
<path d="M1298.41 56.7371C1301.71 59.0944 1304.99 61.4727 1308.26 63.8721L1300.51 77.2607C1298.27 76.0379 1295.46 74.897 1292.88 75.6453C1291.58 76.0216 1290.48 76.8108 1289.83 78.0127C1289.52 78.5832 1289.08 79.6026 1289.26 80.2441C1289.35 80.5926 1289.61 80.9055 1289.94 81.0528C1290.19 81.1647 1290.46 81.1718 1290.72 81.0622C1291.09 80.9009 1291.26 80.5932 1291.36 80.2273C1291.66 79.2411 1291.76 78.4899 1292.77 77.9377C1293.99 77.2698 1295.71 77.5887 1296.97 77.9999C1297.4 78.1422 1297.83 78.3095 1298.25 78.5018C1298.66 78.6942 1299.07 78.9102 1299.46 79.1498L1291.19 93.4646C1288.92 92.2773 1285.98 90.8596 1283.37 91.6872C1282.13 92.0798 1281.06 93.0543 1280.49 94.2105C1280.21 94.7582 1279.82 95.6537 1280.05 96.2696C1280.17 96.6097 1280.49 96.8795 1280.83 96.9903C1281.08 97.0719 1281.36 97.0732 1281.59 96.9376C1282.75 96.267 1281.7 93.1483 1285.66 93.7096C1287.22 93.9293 1288.78 94.5978 1290.15 95.3496L1281.65 110.024C1279.36 108.831 1276.4 107.398 1273.76 108.246C1272.49 108.655 1271.5 109.622 1270.92 110.806C1270.62 111.405 1270.27 112.34 1270.5 113.012C1270.58 113.259 1270.76 113.603 1270.98 113.747C1271.17 113.872 1271.34 113.838 1271.55 113.759C1273.46 113.016 1272.11 109.012 1277.21 110.499C1278.37 110.835 1279.53 111.334 1280.59 111.902C1277.91 116.564 1275.34 121.359 1272.49 125.918C1270.29 124.795 1267.31 123.459 1264.79 124.228C1263.2 124.713 1262.17 126.024 1261.46 127.457C1261.18 128.007 1261 128.644 1261.18 129.253C1261.27 129.532 1261.45 129.779 1261.73 129.89C1262.03 130.014 1262.44 129.973 1262.71 129.794C1264.02 128.949 1263.14 125.836 1267.02 126.23C1268.54 126.385 1270.05 127.143 1271.41 127.788L1262.44 143.304C1255.36 138.447 1248.53 133.207 1241.48 128.295C1234.15 123.28 1226.65 118.559 1218.95 114.132C1226.27 101.04 1233.51 87.9049 1240.67 74.7277C1243.67 69.2627 1246.74 63.8411 1249.62 58.3137C1250.56 56.5231 1251.67 54.7559 1252.46 52.8982C1252.97 51.677 1253.22 50.5018 1253.06 49.177C1252.79 46.883 1251.52 44.9248 1249.74 43.5032C1250.25 42.5398 1250.83 41.6064 1251.38 40.6655C1260.77 46.3793 1269.97 51.3068 1279.77 56.2692L1285.73 59.3452C1286.72 59.8427 1287.72 60.4084 1288.76 60.7772C1290.01 61.2178 1291.22 61.3957 1292.52 61.1586C1295.22 60.6687 1296.91 58.893 1298.41 56.7371Z" fill="#FEFDFD"/>
<path d="M1269.66 47.4359C1270.05 47.6141 1270.45 47.8198 1270.82 48.0415C1271.08 48.203 1271.31 48.4013 1271.38 48.7108C1271.12 49.5786 1270.49 50.4549 1270.03 51.2393L1267.8 55.1012L1265.81 58.5774C1265.35 59.3712 1264.92 60.1841 1264.38 60.9233L1264.32 60.9126L1264.29 61.0167C1264.27 61.0239 1264.25 61.0335 1264.23 61.0384C1264.02 61.0839 1263.84 61.0708 1263.64 60.9961C1262.41 60.5387 1261.06 59.6804 1259.88 59.062C1257.38 57.7625 1254.88 56.4472 1252.4 55.1161C1251.87 54.8348 1250.74 54.3958 1250.53 53.8074C1250.47 53.6406 1250.58 53.4799 1250.66 53.3256C1251.1 52.4103 1251.66 51.5331 1252.17 50.6546L1254.95 45.9202C1255.47 45.0385 1255.98 44.1527 1256.49 43.2627C1256.75 42.7997 1257 42.2771 1257.31 41.8447C1257.43 41.6741 1257.58 41.5097 1257.79 41.4615C1258.03 41.4083 1258.31 41.5597 1258.53 41.656C1259.74 42.2005 1260.92 42.895 1262.09 43.5084L1269.66 47.4359Z" fill="black"/>
<path d="M1250.57 80.5067C1250.95 80.6849 1251.36 80.8906 1251.72 81.1123C1251.99 81.2738 1252.21 81.4721 1252.28 81.7816C1252.02 82.6494 1251.39 83.5257 1250.94 84.3101L1248.71 88.1721L1246.71 91.6482C1246.26 92.442 1245.83 93.2549 1245.29 93.9941L1245.23 93.9834L1245.2 94.0875C1245.18 94.0947 1245.16 94.1044 1245.13 94.1092C1244.92 94.1547 1244.75 94.1416 1244.55 94.0669C1243.32 93.6095 1241.97 92.7512 1240.79 92.1328C1238.29 90.8333 1235.79 89.518 1233.3 88.1869C1232.77 87.9056 1231.65 87.4666 1231.44 86.8782C1231.38 86.7114 1231.49 86.5507 1231.56 86.3964C1232 85.4811 1232.56 84.6039 1233.07 83.7254L1235.85 78.991C1236.37 78.1093 1236.89 77.2235 1237.39 76.3335C1237.66 75.8705 1237.91 75.3479 1238.22 74.9155C1238.34 74.7449 1238.48 74.5805 1238.7 74.5323C1238.94 74.4791 1239.22 74.6305 1239.43 74.7268C1240.64 75.2713 1241.82 75.9658 1243 76.5792L1250.57 80.5067Z" fill="black"/>
<path d="M1268.96 48.6579L1269.65 49.0256C1267.67 52.5318 1265.65 56.0218 1263.61 59.4959C1260.03 57.6197 1256.42 55.7846 1252.89 53.8102L1252.22 53.4123L1258.2 43.0743C1259.53 43.8188 1260.92 44.4883 1262.29 45.1888C1264.52 46.3334 1266.74 47.4897 1268.96 48.6579Z" fill="#FEFDFD"/>
<path d="M1249.86 81.7291L1250.56 82.0969C1248.57 85.603 1246.56 89.0931 1244.52 92.5671C1240.94 90.691 1237.33 88.8559 1233.8 86.8814L1233.12 86.4835L1239.1 76.1456C1240.44 76.8901 1241.83 77.5596 1243.19 78.2601C1245.42 79.4047 1247.65 80.561 1249.86 81.7291Z" fill="#FEFDFD"/>
<path d="M1260.97 64.4289C1261.16 64.5037 1261.37 64.6195 1261.52 64.7546C1261.67 64.8953 1261.76 65.0814 1261.75 65.2902C1261.74 65.4706 1261.68 65.6447 1261.6 65.8055C1260.94 67.1474 1260.08 68.4526 1259.34 69.7523L1256.51 74.6494C1256.03 75.4622 1255.32 76.9865 1254.67 77.5834C1254.36 77.6228 1253.96 77.4656 1253.67 77.3392C1252.24 76.7105 1250.85 75.8867 1249.47 75.1566L1241.89 71.1599C1241.68 71.0451 1241.44 70.9202 1241.27 70.7399C1241.13 70.583 1241.04 70.4001 1241.05 70.1831C1241.06 70.0194 1241.11 69.8689 1241.18 69.7245C1241.97 68.2241 1242.9 66.7634 1243.74 65.2948C1244.48 64.0268 1247.42 58.6091 1248.15 57.9479C1248.44 57.8936 1248.71 57.9926 1248.97 58.1034C1249.49 58.3211 1249.99 58.6421 1250.48 58.9118C1251.13 59.2708 1251.8 59.6062 1252.46 59.957C1255.29 61.4601 1258.1 63.0125 1260.97 64.4289Z" fill="black"/>
<path d="M1241.88 97.4997C1242.07 97.5745 1242.28 97.6903 1242.43 97.8254C1242.58 97.9661 1242.66 98.1522 1242.66 98.361C1242.65 98.5414 1242.58 98.7155 1242.51 98.8763C1241.85 100.218 1240.99 101.523 1240.25 102.823L1237.42 107.72C1236.94 108.533 1236.22 110.057 1235.58 110.654C1235.27 110.694 1234.87 110.536 1234.58 110.41C1233.15 109.781 1231.76 108.958 1230.38 108.227L1222.8 104.231C1222.59 104.116 1222.35 103.991 1222.18 103.811C1222.04 103.654 1221.95 103.471 1221.96 103.254C1221.97 103.09 1222.02 102.94 1222.09 102.795C1222.88 101.295 1223.8 99.8342 1224.65 98.3656C1225.38 97.0976 1228.33 91.6799 1229.06 91.0187C1229.35 90.9644 1229.62 91.0634 1229.88 91.1742C1230.4 91.3919 1230.89 91.7129 1231.39 91.9826C1232.04 92.3416 1232.71 92.677 1233.37 93.0278C1236.2 94.5309 1239.01 96.0833 1241.88 97.4997Z" fill="black"/>
<path d="M1259.93 65.4593C1260.08 65.544 1260.12 65.556 1260.2 65.7039C1260.14 66.1224 1254.85 75.0539 1254.2 76.0962L1243.06 70.1811C1242.96 70.1247 1242.88 70.0624 1242.79 69.9878C1242.78 69.9415 1242.76 69.8935 1242.77 69.8488C1242.88 69.4868 1244.05 67.6379 1244.31 67.1841L1248.73 59.5038C1252.44 61.5323 1256.21 63.4504 1259.93 65.4593Z" fill="#FEFDFD"/>
<path d="M1240.83 98.5301C1240.98 98.6148 1241.02 98.6268 1241.11 98.7747C1241.05 99.1932 1235.76 108.125 1235.1 109.167L1223.97 103.252C1223.87 103.196 1223.78 103.133 1223.69 103.059C1223.69 103.012 1223.67 102.964 1223.68 102.92C1223.79 102.558 1224.95 100.709 1225.22 100.255L1229.63 92.5746C1233.34 94.6031 1237.11 96.5212 1240.83 98.5301Z" fill="#FEFDFD"/>
<path d="M1310.1 64.9531C1311.24 65.5381 1312.46 66.0046 1313.64 66.5106L1320.31 69.3848C1329.69 73.5173 1360.68 86.9665 1365.24 94.2805C1364.26 96.386 1362.6 99.0499 1361.35 101.051C1358.88 105.056 1356.58 109.194 1354.22 113.274L1340.62 136.848L1336.85 143.389C1336.13 144.633 1335.43 146.239 1334.46 147.271C1330.88 153.831 1327.07 160.286 1323.33 166.758C1322.22 168.698 1321.09 170.632 1319.96 172.559C1316.18 170.336 1312.51 167.958 1308.69 165.786C1300.58 161.235 1292.3 157.005 1283.85 153.094C1279.7 151.142 1275.59 149.125 1271.35 147.39C1268.95 146.609 1266.57 145.474 1264.29 144.423C1267.4 139.314 1270.29 134.059 1273.26 128.867C1273.78 129.222 1274.3 129.583 1274.79 129.987C1275.95 130.953 1277.39 132.397 1277.49 133.983C1277.55 135.035 1277.11 135.49 1276.48 136.22C1276.16 136.592 1275.93 136.902 1275.99 137.42C1276.03 137.748 1276.21 138.057 1276.48 138.245C1276.71 138.402 1277.02 138.474 1277.29 138.402C1277.91 138.237 1278.36 137.672 1278.69 137.151C1279.51 135.85 1279.85 134.328 1279.48 132.818C1278.86 130.38 1276.48 128.235 1274.4 127.014L1282.43 113.037C1283.65 113.749 1284.89 114.688 1285.82 115.752C1288.54 118.833 1285.25 120.225 1285.23 121.636C1285.22 121.94 1285.32 122.265 1285.57 122.457C1285.83 122.655 1286.17 122.699 1286.48 122.64C1287.07 122.529 1287.38 122.156 1287.72 121.689C1288.68 120.364 1289.26 118.768 1288.94 117.118C1288.42 114.386 1285.66 112.562 1283.54 111.086L1291.99 96.4054C1293.37 97.2269 1294.91 98.2498 1295.9 99.5346C1297.92 102.143 1295.26 103.386 1295.16 104.589C1295.13 104.884 1295.21 105.241 1295.43 105.449C1295.63 105.638 1295.92 105.685 1296.19 105.655C1296.75 105.592 1297.2 105.247 1297.53 104.805C1298.39 103.649 1298.96 102.073 1298.72 100.62C1298.27 97.8957 1295.19 95.9314 1293.12 94.4536L1301.33 80.2359C1302.47 81.0248 1303.57 81.8415 1304.51 82.8692C1307.89 86.5867 1304.08 87.4597 1304.19 88.9854C1304.21 89.2304 1304.35 89.4403 1304.55 89.5689C1304.84 89.7465 1305.18 89.7892 1305.51 89.7283C1306.04 89.6279 1306.49 89.2939 1306.8 88.8613C1307.69 87.6327 1308.22 86.2107 1307.92 84.6802C1307.38 81.8258 1304.64 79.9025 1302.41 78.3701C1304.93 73.8735 1307.53 69.4227 1310.1 64.9531Z" fill="#FEFDFD"/>
<path d="M1274.1 99.771C1274.8 100.117 1275.41 100.388 1275.9 101.018C1276.11 101.295 1276.2 101.526 1276.15 101.881C1275.97 102.213 1275.68 102.366 1275.32 102.47C1274.88 102.601 1274.48 102.433 1274.07 102.26C1273.05 101.83 1272.06 101.246 1271.08 100.74L1265.38 97.7904L1252.66 90.852C1252.18 90.602 1250.96 90.1017 1250.71 89.6636C1250.57 89.396 1250.54 88.8222 1250.67 88.5399C1250.77 88.3154 1250.96 88.1799 1251.19 88.1217C1251.7 87.9964 1252.33 88.2328 1252.78 88.4322C1253.93 88.9354 1255.05 89.6136 1256.16 90.2057C1257.69 91.0169 1259.24 91.8164 1260.79 92.6041C1267.2 95.9506 1267.64 96.5052 1274.1 99.771Z" fill="#FF4B11"/>
<path d="M1263.94 117.373C1264.64 117.719 1265.25 117.991 1265.74 118.62C1265.95 118.897 1266.04 119.129 1265.99 119.483C1265.81 119.815 1265.52 119.968 1265.16 120.072C1264.72 120.203 1264.32 120.035 1263.91 119.862C1262.89 119.432 1261.9 118.848 1260.92 118.342L1255.22 115.392L1242.5 108.454C1242.02 108.204 1240.8 107.704 1240.56 107.266C1240.41 106.998 1240.38 106.424 1240.51 106.142C1240.61 105.917 1240.8 105.782 1241.03 105.724C1241.54 105.598 1242.17 105.835 1242.62 106.034C1243.77 106.537 1244.89 107.216 1246 107.808C1247.54 108.619 1249.08 109.418 1250.63 110.206C1257.04 113.553 1257.48 114.107 1263.94 117.373Z" fill="black"/>
<path d="M1283.55 83.4136C1284.24 83.7591 1284.86 84.0311 1285.34 84.661C1285.56 84.9373 1285.65 85.169 1285.59 85.5236C1285.41 85.8553 1285.12 86.0086 1284.77 86.1128C1284.32 86.2433 1283.92 86.0755 1283.51 85.9022C1282.5 85.4727 1281.5 84.8885 1280.52 84.383L1274.83 81.4329L1262.1 74.4946C1261.63 74.2446 1260.4 73.7443 1260.16 73.3062C1260.01 73.0386 1259.98 72.4648 1260.11 72.1825C1260.21 71.958 1260.4 71.8225 1260.64 71.7643C1261.14 71.639 1261.77 71.8754 1262.23 72.0748C1263.38 72.578 1264.49 73.2562 1265.6 73.8483C1267.14 74.6595 1268.68 75.4589 1270.23 76.2466C1276.65 79.5932 1277.09 80.1478 1283.55 83.4136Z" fill="black"/>
<path d="M1293.1 66.8784C1293.79 67.2239 1294.41 67.4959 1294.89 68.1259C1295.11 68.4021 1295.2 68.6339 1295.14 68.9884C1294.96 69.3202 1294.67 69.4735 1294.32 69.5777C1293.87 69.7081 1293.47 69.5403 1293.06 69.367C1292.05 68.9375 1291.05 68.3533 1290.07 67.8479L1284.38 64.8978L1271.65 57.9594C1271.18 57.7094 1269.95 57.2091 1269.71 56.7711C1269.56 56.5034 1269.53 55.9297 1269.66 55.6473C1269.76 55.4228 1269.95 55.2873 1270.19 55.2291C1270.69 55.1038 1271.32 55.3403 1271.78 55.5396C1272.93 56.0428 1274.04 56.721 1275.15 57.3132C1276.69 58.1243 1278.23 58.9238 1279.78 59.7115C1286.2 63.058 1286.64 63.6127 1293.1 66.8784Z" fill="#FF4B11"/>
<path d="M1321.23 146.534C1321.92 146.867 1322.89 147.221 1323.35 147.872C1323.49 148.075 1323.57 148.326 1323.51 148.572C1323.42 148.889 1323.12 149.244 1322.81 149.362C1322.46 149.493 1322.03 149.389 1321.71 149.256C1320.57 148.791 1319.47 148.138 1318.38 147.57L1312.69 144.61L1293.75 134.782C1293.21 134.515 1292.16 134.157 1291.81 133.642C1291.62 133.36 1291.54 132.989 1291.65 132.659C1291.76 132.354 1292.01 132.128 1292.31 132.03C1292.57 131.944 1292.84 131.952 1293.1 132.047C1293.95 132.351 1294.8 132.897 1295.59 133.312L1301.08 136.176L1321.23 146.534Z" fill="black"/>
<path d="M1330.59 130.314C1331.28 130.647 1332.26 131.001 1332.71 131.652C1332.85 131.854 1332.94 132.106 1332.87 132.352C1332.78 132.669 1332.48 133.023 1332.17 133.142C1331.83 133.273 1331.39 133.169 1331.07 133.036C1329.94 132.571 1328.83 131.917 1327.75 131.35L1322.05 128.39L1303.12 118.562C1302.57 118.295 1301.53 117.937 1301.18 117.422C1300.98 117.139 1300.9 116.769 1301.02 116.438C1301.12 116.134 1301.37 115.908 1301.67 115.809C1301.94 115.724 1302.21 115.732 1302.47 115.826C1303.31 116.131 1304.16 116.676 1304.96 117.092L1310.45 119.956L1330.59 130.314Z" fill="black"/>
<path d="M1339.95 114.094C1340.64 114.427 1341.62 114.781 1342.08 115.432C1342.22 115.634 1342.3 115.886 1342.23 116.132C1342.15 116.449 1341.84 116.803 1341.53 116.922C1341.19 117.053 1340.76 116.949 1340.43 116.816C1339.3 116.351 1338.2 115.697 1337.11 115.13L1331.41 112.169L1312.48 102.342C1311.93 102.075 1310.89 101.716 1310.54 101.202C1310.35 100.919 1310.26 100.549 1310.38 100.218C1310.49 99.9136 1310.73 99.6873 1311.04 99.5892C1311.3 99.5037 1311.57 99.512 1311.83 99.6061C1312.67 99.9107 1313.53 100.456 1314.32 100.872L1319.81 103.736L1339.95 114.094Z" fill="black"/>
<path d="M1348.48 99.3366C1349.17 99.6692 1350.14 100.024 1350.6 100.674C1350.74 100.877 1350.82 101.129 1350.76 101.375C1350.67 101.691 1350.37 102.046 1350.06 102.164C1349.71 102.295 1349.28 102.192 1348.95 102.058C1347.82 101.594 1346.72 100.94 1345.63 100.372L1339.94 97.4121L1321 87.5843C1320.45 87.3174 1319.41 86.959 1319.06 86.4442C1318.87 86.1619 1318.78 85.7914 1318.9 85.4608C1319.01 85.1563 1319.25 84.93 1319.56 84.8319C1319.82 84.7464 1320.09 84.7546 1320.35 84.8488C1321.19 85.1534 1322.05 85.6989 1322.84 86.1145L1328.33 88.9787L1348.48 99.3366Z" fill="black"/>
<path d="M1361.36 101.051C1358.88 105.056 1356.58 109.194 1354.23 113.274L1340.62 136.848L1336.85 143.389C1336.13 144.633 1335.43 146.239 1334.46 147.271C1334.94 145.718 1335.83 144.093 1336.5 142.603C1337.95 139.395 1339.5 136.237 1341.15 133.128C1342.59 130.464 1344.18 127.874 1345.52 125.158C1348.24 119.659 1350.24 113.832 1353.12 108.419C1354.18 106.418 1355.43 103.898 1357.12 102.377C1358.37 101.256 1359.73 100.976 1361.36 101.051Z" fill="#FEFDFD"/>
<path d="M1271.35 147.39C1272.38 145.524 1273.32 143.657 1274.46 141.849C1274.75 141.4 1275.19 140.508 1275.72 140.388C1277.08 140.758 1279.33 142.845 1280.63 143.692C1281.8 144.459 1283.06 145.12 1284.29 145.798C1290.14 149.023 1296.16 152.046 1302.13 155.044C1305.43 156.7 1308.76 158.31 1312.01 160.064C1315.85 162.185 1319.62 164.416 1323.33 166.758C1322.22 168.698 1321.09 170.632 1319.96 172.559C1316.18 170.336 1312.51 167.958 1308.69 165.786C1300.58 161.235 1292.29 157.005 1283.85 153.094C1279.7 151.142 1275.59 149.125 1271.35 147.39Z" fill="#FEFDFD"/>
<path d="M1266.52 50.0622C1266.68 50.1901 1266.87 50.3299 1266.97 50.5148C1267.06 50.6928 1267.13 50.9159 1267.05 51.1121C1266.94 51.3723 1266.73 51.5265 1266.49 51.6607C1265.76 52.0783 1264.86 52.3596 1264.07 52.6764C1262.79 53.189 1261.53 53.7278 1260.25 54.2255C1259.86 54.3755 1258.97 54.722 1258.59 54.4888C1257.98 54.1193 1257.01 51.0626 1256.71 50.2546C1256.6 49.9643 1256.42 49.5911 1256.44 49.2784C1256.45 48.9923 1256.62 48.5491 1256.85 48.3636C1257.03 48.2176 1257.2 48.2135 1257.41 48.2707C1257.69 48.3455 1257.98 48.6862 1258.12 48.9259C1258.53 49.6122 1259.19 51.6691 1259.55 52.5566C1261.04 52.0606 1265.27 49.7863 1266.52 50.0622Z" fill="black"/>
<path d="M1247.43 83.133C1247.59 83.2609 1247.78 83.4007 1247.88 83.5856C1247.97 83.7636 1248.03 83.9867 1247.95 84.1829C1247.85 84.4431 1247.63 84.5973 1247.4 84.7315C1246.66 85.1491 1245.76 85.4304 1244.97 85.7472C1243.7 86.2598 1242.43 86.7986 1241.15 87.2963C1240.77 87.4463 1239.87 87.7928 1239.49 87.5596C1238.89 87.1901 1237.92 84.1334 1237.61 83.3254C1237.5 83.0351 1237.33 82.6619 1237.34 82.3492C1237.36 82.0631 1237.52 81.6199 1237.75 81.4344C1237.93 81.2884 1238.1 81.2843 1238.32 81.3415C1238.6 81.4163 1238.89 81.757 1239.03 81.9967C1239.43 82.683 1240.09 84.7399 1240.46 85.6274C1241.95 85.1314 1246.17 82.8571 1247.43 83.133Z" fill="black"/>
<path d="M44.0711 48.4676L43.423 48.5527C43.1464 48.7076 43.0253 48.86 42.9145 49.1505C42.1017 51.2793 41.9811 57.6772 41.5708 60.3792C41.4095 61.4444 41.1317 62.4843 40.6881 63.4669C38.3359 68.6694 30.6778 69.2759 25.8661 71.1678C25.2154 71.4225 24.7348 71.5632 24.4476 72.2331C24.5665 72.5741 24.6313 72.7147 24.9739 72.868C25.8595 73.2691 26.9956 73.4348 27.9448 73.6695C31.3569 74.515 36.4221 75.2954 39.3291 77.1515C43.8154 80.0175 44.9138 85.7406 46.6332 90.4411C46.9548 91.3194 47.2745 92.6453 47.8347 93.3745C48.0318 93.6315 48.0949 93.6274 48.3953 93.6606L48.6681 93.7286C49.0224 93.607 49.0886 93.4711 49.2342 93.1284C49.6332 92.1859 49.7637 90.9911 49.9629 89.9826C50.5168 87.177 50.9083 84.2745 51.6352 81.5126C51.9695 80.2409 52.4311 79.0071 53.1253 77.8855C53.7914 76.8096 54.6744 75.8227 55.7372 75.1247C58.1721 73.5288 67.1228 71.6612 68.2813 70.0074C67.9356 69.0209 64.6568 68.566 63.6416 68.3552C51.2829 65.8003 51.5597 66.4666 46.7242 54.3934C45.9471 52.4525 45.2409 50.2075 44.0711 48.4676Z" fill="#FEA7D0"/>
<path d="M51.0094 118.346C45.0079 115.058 39.0865 111.571 33.1513 108.16C30.6523 106.724 28.1711 105.105 25.5947 103.825C25.2683 103.663 24.9991 103.506 24.6259 103.577C24.2714 103.773 24.046 104.038 23.8327 104.376C23.0616 105.596 22.4041 106.919 21.6997 108.182L17.1743 116.335C13.8451 122.217 10.4837 128.081 7.0902 133.926C6.11996 135.615 4.56178 138.862 3.42962 140.232C2.71103 141.597 1.92371 142.926 1.1528 144.263C1.23003 144.363 1.30335 144.474 1.39487 144.562C2.01424 145.157 3.1518 145.654 3.90706 146.117C5.55304 147.12 7.17614 148.164 8.80914 149.189L32.4673 164.011C33.6561 164.762 39.718 168.891 40.7146 168.868C42.4608 166.016 44.0588 163.053 45.7267 160.153C48.7162 155.041 51.6791 149.915 54.6154 144.774L61.4347 132.971C62.5682 131.018 63.8053 129.076 64.8605 127.084C64.9488 126.917 64.9638 126.791 64.9743 126.607C64.0308 125.536 53.135 119.57 51.0094 118.346Z" fill="#02C2A2"/>
<path d="M45.413 121.421C44.9839 121.13 44.608 120.938 44.08 120.984C43.1126 121.438 37.4687 129.101 36.2508 130.601C35.479 129.439 35.7811 122.393 34.9883 120.309C34.8085 119.835 34.6327 119.529 34.1655 119.315C33.876 119.316 33.6841 119.359 33.4331 119.513C33.1183 119.706 32.9496 119.998 32.8643 120.352C32.7251 120.932 33.4962 130.037 33.6563 131.102C33.6989 131.39 33.7525 131.581 33.8976 131.833C33.8421 131.821 33.7883 131.805 33.7332 131.793C32.6172 131.544 27.8374 126.368 26.358 125.312C25.9166 124.998 25.1196 124.52 24.5718 124.642C24.3343 124.696 24.1843 124.829 24.0843 125.05C23.9521 125.344 23.9335 125.892 24.0651 126.187C24.2311 126.562 31.4363 133.207 31.9997 133.401C30.4907 134.19 21.9795 134.353 19.6616 134.713C18.9315 134.825 17.9022 135.147 17.5026 135.809C17.3359 136.085 17.3407 136.239 17.4117 136.539C17.6734 136.858 17.9808 137.058 18.3801 137.176C19.3677 137.469 31.8054 136.144 32.7449 135.678C30.3883 138.805 27.6634 141.748 25.1764 144.783C24.3933 145.738 23.3647 146.766 22.768 147.831C22.6141 148.106 22.5698 148.233 22.6483 148.536C22.649 148.567 22.6503 148.597 22.6525 148.627C22.6782 149.001 22.7888 149.275 23.0881 149.514C23.2969 149.682 23.5376 149.747 23.8017 149.711C24.086 149.672 24.3086 149.528 24.5147 149.334C25.7098 148.213 26.7605 146.668 27.8161 145.396C29.921 142.859 32.1747 140.348 34.0798 137.661C33.9806 138.559 34.9445 147.931 35.289 148.711C35.4261 149.025 35.714 149.247 36.0412 149.338C36.339 149.423 36.7252 149.396 36.9831 149.21C37.2937 148.986 37.3795 148.694 37.4319 148.332C37.5442 147.555 37.3521 146.624 37.2641 145.846C37.043 143.912 36.2688 139.168 36.4358 137.527C36.4396 137.487 36.4458 137.446 36.4504 137.407C36.8555 138.308 43.0039 144.183 43.8046 144.587C44.2012 144.787 44.4633 144.828 44.883 144.689C45.0849 144.498 45.1999 144.369 45.2821 144.097C45.3822 143.765 45.3922 143.511 45.2474 143.191C44.7061 141.981 40.9041 138.629 39.7388 137.548C39.1293 136.981 38.2316 136.303 37.8368 135.574C37.8236 135.549 37.8111 135.524 37.7984 135.499C38.0531 135.611 49.7536 133.893 50.5787 133.671C51.036 133.548 51.7398 133.331 51.9632 132.882C52.0788 132.649 52.0778 132.445 51.9618 132.209C51.798 131.884 51.4162 131.549 51.0618 131.453C49.2354 130.954 38.67 133.584 37.533 133.161C37.4777 133.14 37.4236 133.115 37.3689 133.093C39.217 130.651 41.1442 128.264 43.0352 125.857C43.8495 124.82 44.9751 123.668 45.5456 122.49C45.7029 122.165 45.5154 121.75 45.413 121.421Z" fill="black"/>
<path d="M100.04 147.144C99.4265 146.771 98.8245 146.349 98.2969 145.861C97.2085 144.854 96.3556 143.58 95.9568 142.145C95.3676 140.024 95.2493 137.674 94.9908 135.49C94.496 131.432 94.0392 127.37 93.6206 123.304C92.729 115.347 91.7527 107.404 90.9821 99.4329C90.6321 95.4402 90.3157 91.4448 90.033 87.4468C89.5619 81.9875 89.1921 76.5212 88.9236 71.048C88.6945 65.5759 87.7377 53.6468 91.5411 49.5881C92.5901 48.4689 93.9614 47.6933 95.4138 47.229C98.729 46.1692 102.632 46.0595 106.086 45.8275C111.229 45.517 116.375 45.2725 121.524 45.0942C140.353 44.4159 159.187 44.2208 178.026 44.5088C182.718 44.5563 187.408 44.669 192.097 44.8469C195.709 44.9757 199.373 45.0296 202.936 45.6951C204.922 46.0663 206.998 46.7659 208.495 48.1777C209.644 49.2608 210.392 50.8417 210.859 52.3298C211.826 55.4082 212.109 58.8703 212.571 62.0553C213.513 69.0174 214.254 76.0009 214.794 83.0056C215.334 90.0104 215.671 97.025 215.807 104.049C214.996 103.948 214.103 103.975 213.316 103.795C213.182 100.99 213.135 98.1809 212.989 95.3761C212.49 84.7858 211.57 74.2323 210.227 63.7157C209.761 60.1694 209.399 55.8094 208.196 52.4673C207.868 51.5588 207.33 50.6883 206.616 50.0335C205.404 48.9224 203.574 48.4659 201.996 48.2003C198.848 47.6706 195.595 47.6249 192.41 47.5083C186.809 47.3033 181.216 47.2678 175.612 47.1948C152.07 46.8138 128.545 47.2884 105.038 48.6186C101.505 48.8412 95.7943 48.8093 93.337 51.7053C92.2593 52.9755 91.8277 54.6428 91.6023 56.2601C90.9086 61.2387 91.4065 66.973 91.6479 72.0025C92.253 83.5898 93.1692 95.1524 94.3964 106.69C95.2564 115.115 96.2206 123.528 97.2891 131.929C97.6205 134.517 97.9587 139.229 98.6542 141.579C98.6916 141.705 98.7337 141.83 98.7805 141.952C98.8272 142.075 98.8785 142.196 98.9344 142.315C98.9904 142.434 99.0507 142.55 99.1155 142.665C99.1801 142.779 99.249 142.891 99.3222 143C99.3954 143.109 99.4725 143.215 99.5536 143.319C99.6349 143.422 99.7199 143.522 99.8086 143.619C99.8972 143.716 99.9895 143.809 100.085 143.899C100.181 143.989 100.28 144.075 100.383 144.158C101.679 145.202 103.261 145.396 104.86 145.193C106.547 144.978 108.202 144.524 109.878 144.242L109.587 146.97L108.687 147.157C108.984 147.255 109.24 147.297 109.549 147.331C109.477 148.137 109.451 148.989 109.24 149.771C108.84 151.867 108.774 154.059 108.542 156.182C108.301 158.382 107.877 160.629 107.842 162.84C108.159 163.208 108.388 163.511 108.877 163.628C111.072 164.153 114.079 164.378 116.386 164.696L131.431 166.784L179.949 173.467C183.778 177.952 188.513 181.71 194.619 182.168C199.99 182.571 205.292 180.401 209.301 176.903C209.972 176.317 210.576 175.714 211.081 174.978C211.65 176.438 212.15 178.026 212.891 179.402C214.645 182.661 218.096 185.368 221.442 186.834C226.104 188.877 230.484 188.802 235.249 187.158C235.891 188.203 236.355 189.412 236.639 190.602C236.936 191.844 237.057 193.127 236.921 194.398C236.51 198.257 235.406 202.066 234.602 205.858C233.893 209.21 233.1 212.54 232.368 215.886C231.813 218.425 231.35 221.042 230.622 223.536C230.387 224.34 230.102 225.125 229.646 225.833C229.062 226.739 228.287 227.193 227.247 227.416C224.368 228.033 219.912 227.446 216.979 227.104C213.056 226.647 209.143 226.009 205.237 225.422C199.274 224.573 193.317 223.673 187.369 222.724L145.827 216.567L106.418 210.623C100.522 209.784 94.6376 208.874 88.7637 207.893C87.2546 207.641 85.7303 207.466 84.2279 207.176C83.5241 207.04 82.8512 206.843 82.2531 206.434C80.8775 205.494 79.9996 204.204 79.7155 202.55C79.3828 200.61 79.6485 198.367 79.7044 196.399C79.7844 193.576 79.8192 190.76 79.9472 187.938C80.0678 185.168 80.2159 182.4 80.3914 179.634C80.5453 177.272 80.6128 174.842 81.276 172.556C81.5943 171.458 82.1674 170.4 82.7913 169.448C84.0321 167.554 85.6109 165.788 86.9992 163.99C89.3017 160.966 91.6328 157.965 93.9926 154.986C96.0355 152.394 98.1257 149.833 100.04 147.144Z" fill="#02C0A1"/>
<path d="M149.081 188.382C149.446 188.418 149.811 188.457 150.175 188.499C154.202 188.968 158.224 189.571 162.243 190.114C164.475 190.415 167.675 190.611 169.731 191.324C170.666 191.648 171.256 192.087 171.851 192.871C173.169 194.604 173.073 196.278 172.811 198.312C176.743 198.601 180.694 199.173 184.608 199.657L200.868 201.638C205.57 202.238 210.277 202.792 214.989 203.301C217.786 203.608 220.622 203.832 223.405 204.23C223.834 204.291 224.487 204.375 224.804 204.691C225.047 204.933 225.135 205.3 225.104 205.634C225.074 205.967 224.914 206.302 224.633 206.495C224.254 206.756 223.751 206.751 223.311 206.737C221.865 206.689 220.375 206.432 218.934 206.272L210.199 205.298C197.629 203.893 185.107 202.053 172.522 200.777L172.461 200.925C171.733 202.649 170.772 203.745 169.008 204.461C168.744 204.521 168.479 204.572 168.208 204.591C166.872 204.685 165.417 204.388 164.087 204.219L157.78 203.403L151.137 202.536C149.709 202.349 148.217 202.227 146.822 201.868C145.905 201.632 145.212 201.332 144.508 200.68C143.306 199.564 143.06 198.243 142.964 196.685C138.264 196.09 133.543 195.682 128.834 195.163L107.308 192.652L98.864 191.68C97.3448 191.514 95.7109 191.453 94.2166 191.154C93.9744 191.105 93.6871 191.005 93.5005 190.834C93.2342 190.589 93.016 190.18 93.0525 189.807C93.0865 189.461 93.2322 189.174 93.5036 188.954C93.8968 188.634 94.3687 188.627 94.8532 188.645C96.5516 188.706 98.3205 189.029 100.016 189.218L111.82 190.593C122.274 191.83 132.734 193.011 143.201 194.135C143.534 192.504 143.953 190.997 145.187 189.79C146.288 188.712 147.578 188.347 149.081 188.382Z" fill="black"/>
<path d="M157.62 192.1L164.436 192.991C165.959 193.191 167.516 193.345 169.014 193.691C169.707 194.291 170.003 194.784 170.33 195.622C170.125 197.135 170.12 200.427 168.916 201.371C168.437 201.746 167.846 201.92 167.246 201.963C166.18 202.039 164.969 201.747 163.909 201.604L158.401 200.864L151.471 199.965C150.279 199.809 148.986 199.74 147.832 199.42C147.211 199.247 146.582 198.922 146.136 198.45C145.609 197.891 145.501 197.094 145.542 196.357C145.625 194.894 145.787 192.609 146.987 191.625C147.471 191.228 148.069 191.056 148.687 191.02C149.734 190.96 150.887 191.22 151.927 191.355L157.62 192.1Z" fill="#02C0A1"/>
<path d="M100.04 147.144C99.4265 146.771 98.8245 146.349 98.2969 145.861C97.2085 144.854 96.3556 143.58 95.9568 142.145C95.3676 140.024 95.2493 137.674 94.9908 135.49C94.496 131.432 94.0392 127.37 93.6206 123.304C92.729 115.347 91.7527 107.404 90.9821 99.4328C90.6321 95.4402 90.3157 91.4448 90.033 87.4468C89.5619 81.9875 89.1921 76.5212 88.9236 71.048C88.6945 65.5759 87.7377 53.6468 91.5411 49.5881C92.5901 48.4689 93.9614 47.6933 95.4138 47.229C98.729 46.1692 102.632 46.0595 106.086 45.8275C111.229 45.517 116.375 45.2725 121.524 45.0942C140.353 44.4159 159.187 44.2208 178.026 44.5088C182.718 44.5563 187.408 44.669 192.097 44.8469C195.709 44.9757 199.373 45.0296 202.936 45.6951C204.922 46.0663 206.998 46.7659 208.495 48.1777C209.644 49.2608 210.392 50.8417 210.859 52.3298C211.826 55.4082 212.109 58.8703 212.571 62.0553C213.513 69.0174 214.254 76.0009 214.794 83.0056C215.334 90.0104 215.672 97.025 215.807 104.049C214.996 103.948 214.103 103.975 213.316 103.795C213.182 100.99 213.135 98.1809 212.989 95.3761C212.49 84.7858 211.57 74.2323 210.227 63.7157C209.761 60.1694 209.399 55.8094 208.196 52.4673C207.868 51.5588 207.33 50.6883 206.616 50.0335C205.404 48.9224 203.574 48.4659 201.996 48.2003C198.848 47.6706 195.595 47.6249 192.41 47.5083C186.809 47.3033 181.216 47.2678 175.612 47.1948C152.07 46.8138 128.545 47.2884 105.038 48.6186C101.505 48.8412 95.7943 48.8093 93.337 51.7053C92.2593 52.9755 91.8277 54.6428 91.6023 56.2601C90.9086 61.2387 91.4065 66.973 91.6479 72.0025C92.253 83.5898 93.1692 95.1524 94.3964 106.69C95.2564 115.115 96.2206 123.528 97.2891 131.929C97.6205 134.517 97.9587 139.229 98.6542 141.579C98.6916 141.705 98.7337 141.83 98.7805 141.952C98.8272 142.075 98.8785 142.196 98.9344 142.315C98.9904 142.434 99.0507 142.55 99.1155 142.665C99.1801 142.779 99.249 142.891 99.3222 143C99.3954 143.109 99.4725 143.215 99.5536 143.319C99.6349 143.422 99.7199 143.522 99.8086 143.619C99.8972 143.716 99.9895 143.809 100.085 143.899C100.181 143.989 100.28 144.075 100.383 144.158C101.679 145.202 103.261 145.396 104.86 145.193C106.547 144.978 108.202 144.524 109.878 144.242L109.587 146.97L108.687 147.157C108.984 147.255 109.24 147.297 109.549 147.331C109.477 148.137 109.451 148.989 109.24 149.771C107.625 149.729 105.989 149.501 104.376 149.578C103.777 150.364 103.28 151.262 102.742 152.094C101.734 153.649 100.717 155.198 99.69 156.741C96.896 160.95 93.9657 165.1 91.2884 169.381C91.0478 169.765 90.6592 170.245 90.8317 170.717C91.0475 171.307 91.9239 171.656 92.4678 171.857C95.7854 173.087 99.8649 173.395 103.389 173.899L113.618 175.436L167.075 183.033L201.277 188.027C206.279 188.834 211.291 189.582 216.311 190.27C218.886 190.64 221.532 191.158 224.122 191.336C227.402 191.561 227.369 191.086 230.192 189.879C230.644 189.686 231.102 189.554 231.564 189.802C231.834 189.947 231.969 190.18 232.051 190.466C232.164 190.865 232.027 191.38 231.814 191.723C231.114 192.852 229.147 193.565 227.9 193.806C227.364 193.909 226.824 193.978 226.279 194.012C225.734 194.047 225.189 194.047 224.644 194.012C221.379 193.815 217.787 193.105 214.517 192.644L192.565 189.411L151.484 183.316L113.75 178.016C107.527 177.125 101.251 176.343 95.0661 175.216C93.1903 174.875 91.0211 174.441 89.4369 173.315C88.7092 172.797 88.2123 172.087 88.0787 171.192C87.9746 170.496 88.1301 169.764 88.4248 169.131C89.4411 166.947 91.5105 164.279 92.8847 162.214C96.0814 157.411 99.2173 152.506 102.676 147.888C101.78 147.685 100.915 147.423 100.04 147.144Z" fill="black"/>
<path d="M109.878 144.242C108.202 144.524 106.547 144.978 104.86 145.193C103.261 145.396 101.679 145.202 100.382 144.158C100.28 144.075 100.181 143.989 100.085 143.899C99.9894 143.809 99.8971 143.716 99.8084 143.619C99.7197 143.522 99.6347 143.422 99.5535 143.319C99.4724 143.215 99.3952 143.109 99.322 143C99.2488 142.891 99.1799 142.779 99.1153 142.665C99.0506 142.551 98.9902 142.434 98.9343 142.315C98.8783 142.196 98.827 142.075 98.7804 141.952C98.7336 141.83 98.6915 141.705 98.6541 141.579C97.9586 139.229 97.6204 134.518 97.2889 131.929C96.2205 123.528 95.2562 115.115 94.3962 106.691C93.169 95.1526 92.2529 83.59 91.6478 72.0027C91.4063 66.9732 90.9085 61.2389 91.6021 56.2603C91.8276 54.643 92.2591 52.9757 93.3369 51.7055C95.7941 48.8095 101.504 48.8414 105.037 48.6188C128.545 47.2885 152.07 46.8139 175.612 47.195C181.216 47.268 186.808 47.3035 192.41 47.5085C195.595 47.6251 198.848 47.6708 201.996 48.2004C203.574 48.4661 205.404 48.9225 206.616 50.0337C207.33 50.6885 207.868 51.5589 208.196 52.4675C209.399 55.8096 209.76 60.1696 210.227 63.7159C211.57 74.2325 212.49 84.786 212.989 95.3763C213.134 98.1811 213.182 100.99 213.316 103.795C214.103 103.975 214.996 103.949 215.807 104.049C219.787 104.992 222.885 106.204 225.118 109.85C225.866 111.072 226.336 112.42 226.95 113.708C230.448 110.982 233.76 109.011 238.349 109.568C241.928 110.003 245.181 112.029 247.385 114.858C249.799 117.956 251.011 121.501 251.464 125.373C252.25 132.084 250.896 138.969 250.201 145.628C249.298 154.617 248.297 163.595 247.197 172.563C246.542 177.626 244.758 181.218 240.639 184.399C239.052 185.624 237.146 186.527 235.249 187.158C230.484 188.803 226.104 188.877 221.442 186.834C218.096 185.368 214.645 182.661 212.891 179.403C212.15 178.026 211.65 176.438 211.081 174.979C210.575 175.715 209.972 176.318 209.301 176.903C205.292 180.401 199.99 182.571 194.619 182.168C188.513 181.71 183.778 177.952 179.949 173.467L131.43 166.784L116.386 164.696C114.079 164.378 111.072 164.153 108.877 163.628C108.388 163.511 108.159 163.208 107.842 162.84C107.877 160.629 108.301 158.382 108.541 156.182C108.774 154.059 108.84 151.868 109.24 149.771C109.451 148.989 109.476 148.137 109.548 147.331C109.24 147.297 108.984 147.255 108.687 147.157L109.587 146.97L109.878 144.242Z" fill="#FEFDFD"/>
<path d="M193.562 85.2737C193.897 84.7711 194.186 84.389 194.808 84.2632C195.178 84.1882 195.526 84.2526 195.83 84.4839C196.117 84.7019 196.365 85.0465 196.445 85.3985C196.935 87.5739 196.955 90.2844 197.173 92.5378C197.753 98.5361 198.219 104.545 198.91 110.532C198.286 111.384 197.228 113.064 196.414 113.625L196.336 113.633C196.323 110.205 195.662 105.851 195.295 102.4L193.562 85.2737Z" fill="#02C0A1"/>
<path d="M120.507 87.8472C120.749 87.8742 121.036 87.882 121.267 87.9574C121.61 88.0692 121.839 88.3799 121.973 88.7009C122.48 89.913 122.625 102.15 122.681 104.008L123.365 124.326C123.909 135.571 124.386 146.818 124.796 158.069C124.812 158.591 124.823 159.33 124.558 159.795C124.322 160.209 124.02 160.347 123.58 160.48C123.155 160.38 122.685 160.292 122.354 159.983C122.027 159.678 121.869 159.159 121.831 158.724C121.758 157.902 121.856 157.059 121.81 156.232C121.539 151.343 121.414 146.46 121.21 141.567L120.031 111.987C119.791 104.273 119.697 96.537 119.344 88.8277C119.682 88.366 119.974 88.0776 120.507 87.8472Z" fill="#02C0A1"/>
<path d="M123.407 77.895C123.347 77.6276 123.309 77.3916 123.356 77.1179C123.46 76.5134 124.013 76.0687 124.489 75.7404C125.469 75.064 126.608 74.5754 127.627 73.9491C129.915 72.5348 132.194 71.1081 134.466 69.6689C135.915 68.752 137.568 67.4612 139.18 66.9061C140.042 66.6093 174.745 65.7295 175.45 65.8704C176.713 66.1226 178.05 66.8146 179.245 67.3045L187.191 70.6261C189.082 71.4202 191.124 72.0647 192.946 72.9917C193.34 73.1922 193.809 73.462 194.041 73.8542C194.28 74.2605 194.186 74.6041 194.087 75.0354C191.804 78.7267 189.098 82.206 186.668 85.807L179.955 95.7209C178.679 97.6047 177.44 99.5725 176.066 101.384C175.846 101.673 175.633 101.926 175.277 102.044C174.975 102.145 174.74 102.101 174.459 101.973C173.038 101.322 171.642 100.273 170.305 99.4528C167.08 97.4769 163.835 95.4183 160.495 93.6469C161.35 100.308 161.982 107.01 162.681 113.689L164.816 132.958L166.553 148.484C166.719 149.915 166.902 151.345 167.102 152.771C167.187 153.356 167.383 153.986 167.405 154.571C167.42 154.976 167.281 155.417 167.042 155.743C166.807 156.064 166.413 156.342 166.007 156.374C165.691 156.399 165.452 156.286 165.221 156.08C164.902 155.795 164.771 155.316 164.692 154.914C164.471 153.792 164.48 152.622 164.319 151.49C163.642 146.762 163.235 142.003 162.699 137.257L157.975 93.7464C155.321 95.7158 152.695 97.7223 150.098 99.7659C148.44 101.072 146.747 102.623 144.943 103.72C144.637 103.905 144.419 104.046 144.048 104.01C143.676 103.974 143.424 103.739 143.189 103.473C141.616 101.689 140.194 99.6923 138.739 97.8089L131.15 87.9577C129.502 85.816 127.841 83.6843 126.168 81.5625C125.364 80.5377 124.481 79.5216 123.749 78.4469C123.626 78.2687 123.512 78.0847 123.407 77.895Z" fill="black"/>
<path d="M171.712 68.5066C171.999 68.4943 172.142 68.4695 172.411 68.5972C172.407 68.6731 172.421 68.7526 172.398 68.8251C172.252 69.2817 170.478 71.7346 170.087 72.3463C166.418 78.0899 162.832 83.9067 158.976 89.5266C156.246 86.3922 153.632 83.0829 151.021 79.8458L145.38 72.9917C144.404 71.798 143.369 70.6371 142.498 69.3632C146.224 69.0279 150.046 69.1247 153.787 69.0202C159.761 68.8101 165.736 68.6389 171.712 68.5066Z" fill="#FEFDFD"/>
<path d="M139.279 69.7656C143.439 74.7308 147.546 79.7397 151.6 84.792C153.35 86.9319 155.324 88.9596 156.92 91.2159C153.752 93.6126 150.605 96.0369 147.48 98.4887C146.947 98.9014 145.11 100.496 144.617 100.691C144.542 100.721 144.455 100.698 144.374 100.702C140.589 96.031 137.012 91.1533 133.331 86.3968C131.102 83.5175 128.612 80.7512 126.577 77.7355C127.73 76.9136 128.992 76.2049 130.198 75.4613C133.233 73.5903 136.341 71.7836 139.279 69.7656Z" fill="#FEFDFD"/>
<path d="M175.593 68.696C177.608 69.2891 179.601 70.2739 181.538 71.0863C184.653 72.3921 187.798 73.6397 190.854 75.078L175.411 97.6246L174.454 98.9424C170.231 96.1225 165.741 93.6259 161.356 91.0639C162.86 88.1427 164.874 85.3486 166.651 82.5834L175.593 68.696Z" fill="#FEFDFD"/>
<path d="M110.166 140.725C107.725 140.651 105.664 140.123 103.928 138.303C103.061 137.394 102.579 136.421 102.365 135.181C101.892 132.434 101.844 128.572 101.62 125.684L99.9691 102.094L99.0035 88.2617C98.8542 85.9544 98.7898 83.6489 98.6036 81.3427C98.274 77.3671 97.9895 73.3882 97.7503 69.4061C97.5636 66.6148 97.292 63.76 97.3788 60.9634C97.4555 58.496 97.8226 55.7133 99.7089 53.9185C101.075 52.6183 102.887 52.3441 104.685 52.1742C108.156 51.8457 111.7 51.912 115.186 51.8504C121.026 51.7472 126.837 51.6482 132.679 51.6827C141.796 51.7367 150.927 51.5902 160.046 51.5421L184.159 51.1854C188.123 51.0892 192.186 50.6479 196.141 50.8504C199.362 51.0153 202.33 52.084 204.507 54.5312C205.642 55.8072 206.279 57.1391 206.585 58.8204C207.025 61.2355 206.935 63.8909 206.995 66.3455C207.122 70.8233 207.187 75.3021 207.19 79.7818C207.215 85.3039 207.264 90.8117 207.211 96.3351C207.188 98.793 207.247 101.287 207.086 103.738C207.063 104.1 207.025 104.461 206.972 104.821C209.129 104.177 211.072 103.847 213.316 103.795C214.103 103.975 214.996 103.948 215.807 104.049C219.788 104.992 222.886 106.203 225.118 109.85C225.867 111.072 226.336 112.42 226.95 113.708C230.448 110.982 233.761 109.011 238.349 109.568C241.928 110.002 245.181 112.029 247.385 114.858C249.8 117.955 251.011 121.501 251.464 125.373C252.25 132.083 250.896 138.969 250.201 145.627C249.298 154.617 248.297 163.595 247.197 172.562C246.542 177.626 244.758 181.217 240.639 184.398C239.052 185.624 237.146 186.527 235.249 187.158C230.484 188.802 226.105 188.877 221.442 186.834C218.096 185.368 214.645 182.661 212.891 179.402C212.15 178.026 211.65 176.438 211.082 174.978C210.576 175.714 209.973 176.317 209.301 176.903C205.292 180.401 199.991 182.571 194.62 182.168C188.513 181.71 183.778 177.952 179.949 173.467L131.431 166.784L116.386 164.696C114.08 164.378 111.072 164.153 108.877 163.628C108.388 163.511 108.159 163.208 107.842 162.84C110.359 162.44 113.022 162.375 115.565 162.19C121.51 161.755 127.455 161.455 133.406 161.112C149.156 160.047 164.913 159.109 180.677 158.299C182.232 152.842 184.276 147.533 186.021 142.137C187.887 136.364 189.704 130.575 191.637 124.825C192.187 123.189 192.641 121.512 193.231 119.89C193.547 119.021 193.938 118.155 194.376 117.34C194.937 116.297 196.224 114.781 196.336 113.633L196.414 113.625C197.228 113.064 198.286 111.383 198.91 110.532C200.444 108.995 202.124 107.528 203.971 106.38C204.539 106.026 206.45 105.243 206.71 104.873C206.567 103.763 206.528 102.638 206.384 101.524C205.885 97.6794 205.267 93.8633 204.704 90.0294C204.348 87.5975 204.135 85.0076 203.439 82.6467C203.114 81.5417 202.636 80.5261 201.963 79.5896C199.96 76.8032 197.412 75.5768 194.085 75.0356C194.185 74.6043 194.279 74.2607 194.039 73.8544C193.808 73.4622 193.339 73.1924 192.945 72.9919C191.123 72.0649 189.08 71.4204 187.19 70.6263L179.244 67.3047C178.049 66.8148 176.712 66.1228 175.449 65.8706C174.743 65.7297 140.041 66.6095 139.179 66.9063C137.566 67.4614 135.914 68.7522 134.465 69.6691C132.193 71.1083 129.913 72.535 127.626 73.9493C126.607 74.5756 125.468 75.0642 124.487 75.7406C124.012 76.0689 123.459 76.5136 123.355 77.1181C123.308 77.3918 123.346 77.6278 123.406 77.8952C121.427 77.8261 118.953 79.5209 117.565 80.8059C115.646 82.5822 114.261 84.801 113.629 87.3427C113.051 89.6723 113.01 92.1762 112.883 94.5664L112.389 105.101L110.166 140.725Z" fill="#FDA7CF"/>
<path d="M228.242 126.581C229.107 123.161 229.798 118.17 233.116 116.23C234.838 115.224 236.93 115.155 238.819 115.689C241.996 116.586 244.411 119.084 245.965 121.911C247.409 124.539 248.63 129.534 248.376 132.521C246.427 128.878 243.647 126.135 239.607 124.935C235.541 123.728 231.875 124.592 228.242 126.581Z" fill="#FE4B11"/>
<path d="M198.905 120.356C201.736 115.832 204.678 111.588 210.207 110.313C212.813 109.713 215.922 109.699 218.254 111.169C220.077 112.319 221.178 114.107 221.644 116.191C222.369 119.43 220.693 122.59 220.002 125.69C219.998 125.709 219.991 125.727 219.985 125.745C218.562 122.845 216.375 120.629 213.415 119.292C210.048 117.771 205.88 117.618 202.392 118.836C201.227 119.243 200.166 119.884 199.014 120.317L198.905 120.356Z" fill="#FE4B11"/>
<path d="M192.882 53.7469C193.384 53.7261 193.822 53.8148 194.222 54.1348C194.255 54.1615 194.287 54.1898 194.318 54.2198C194.349 54.2498 194.377 54.2813 194.405 54.3145C194.432 54.3474 194.457 54.3818 194.481 54.4176C194.505 54.4532 194.526 54.4901 194.546 54.5282C194.566 54.5661 194.584 54.6051 194.599 54.645C194.615 54.6848 194.629 54.7254 194.64 54.7667C194.651 54.808 194.66 54.8497 194.667 54.892C194.674 54.9342 194.679 54.9767 194.682 55.0195C194.685 55.0623 194.686 55.1051 194.684 55.148C194.682 55.1908 194.678 55.2334 194.672 55.2758C194.666 55.3182 194.657 55.3601 194.646 55.4014C194.635 55.4429 194.622 55.4836 194.606 55.5236C194.591 55.5636 194.573 55.6026 194.553 55.6407C194.534 55.6787 194.512 55.7154 194.488 55.751C194.464 55.7868 194.438 55.821 194.411 55.8537C194.383 55.8864 194.354 55.9176 194.323 55.9471C193.935 56.3126 193.329 56.364 192.822 56.4041C189.31 56.6805 185.701 56.5955 182.179 56.6308L167.352 56.8882L108.856 58.0332C108.373 58.0364 107.932 58.0589 107.539 57.7344C107.202 57.4567 106.859 57.0129 106.859 56.5569C106.859 56.2588 106.999 56.034 107.197 55.8264C107.519 55.4901 107.806 55.4366 108.255 55.3941C110.567 55.1754 113.036 55.3228 115.365 55.2959C119.695 55.2383 124.026 55.1562 128.355 55.0498C143.361 54.8145 158.366 54.5023 173.368 54.1133C179.868 53.977 186.389 54.0865 192.882 53.7469Z" fill="black"/>
<path d="M228.242 126.58C231.875 124.592 235.541 123.728 239.607 124.935C243.647 126.134 246.427 128.878 248.377 132.521C248.419 132.939 248.413 133.27 248.321 133.681C248.065 135.736 247.928 137.783 247.599 139.834C247.167 142.524 246.553 145.194 245.999 147.861L243.797 158.631L241.98 167.307C241.621 169.007 241.309 170.742 240.842 172.417C240.788 172.617 240.729 172.816 240.665 173.013C240.601 173.21 240.533 173.405 240.459 173.599C240.385 173.793 240.307 173.984 240.224 174.174C240.14 174.364 240.053 174.551 239.96 174.737C239.867 174.922 239.77 175.105 239.669 175.285C239.567 175.466 239.461 175.644 239.351 175.819C239.24 175.995 239.125 176.167 239.006 176.337C238.887 176.506 238.764 176.673 238.637 176.836C238.509 177 238.378 177.16 238.243 177.317C238.107 177.474 237.968 177.627 237.825 177.777C237.682 177.927 237.536 178.073 237.386 178.216C237.235 178.359 237.082 178.498 236.925 178.633C236.767 178.768 236.607 178.899 236.443 179.026C236.28 179.153 236.113 179.276 235.943 179.395C235.774 179.513 235.601 179.628 235.426 179.738C235.25 179.848 235.072 179.954 234.891 180.056C232.06 181.648 228.435 181.836 225.344 180.968C222.307 180.115 219.556 178.02 218.037 175.238C217.118 173.555 216.652 171.651 216.798 169.734C216.936 167.935 217.549 166.119 218.007 164.381L220.324 155.606C222.173 148.486 223.942 141.352 225.867 134.251C226.329 132.549 226.71 130.82 227.209 129.129C226.994 128.765 226.834 128.424 226.917 127.99C227.043 127.341 227.744 126.931 228.242 126.58Z" fill="#FE4B11"/>
<path d="M228.243 126.581C231.877 124.592 235.542 123.728 239.608 124.935C243.648 126.135 246.428 128.878 248.378 132.521C248.42 132.94 248.414 133.27 248.322 133.681C248.077 133.917 247.806 134.149 247.469 134.237C247.018 134.353 246.584 134.184 246.246 133.883C245.761 133.452 245.4 132.6 245.045 132.038C244.103 130.547 242.603 129.208 241.091 128.317C240.99 128.258 240.888 128.201 240.784 128.146C240.681 128.091 240.578 128.037 240.473 127.986C240.368 127.934 240.262 127.884 240.155 127.836C240.049 127.788 239.942 127.741 239.834 127.696C239.725 127.652 239.617 127.609 239.507 127.568C239.398 127.527 239.287 127.488 239.177 127.451C239.066 127.413 238.954 127.378 238.842 127.344C238.73 127.31 238.618 127.279 238.505 127.249C238.392 127.219 238.278 127.191 238.164 127.165C238.05 127.139 237.936 127.115 237.821 127.092C237.706 127.07 237.591 127.05 237.475 127.031C237.36 127.013 237.244 126.996 237.128 126.982C237.012 126.967 236.896 126.955 236.779 126.944C236.663 126.933 236.546 126.925 236.43 126.918C236.313 126.911 236.196 126.906 236.079 126.903C235.962 126.9 235.845 126.899 235.728 126.9C235.611 126.901 235.494 126.904 235.378 126.909C235.261 126.914 235.144 126.921 235.027 126.93C234.911 126.939 234.794 126.949 234.678 126.962C234.562 126.975 234.446 126.989 234.33 127.006C234.214 127.022 234.099 127.041 233.984 127.061C233.868 127.082 233.754 127.104 233.639 127.128C233.525 127.152 233.411 127.179 233.297 127.207C233.184 127.235 233.071 127.265 232.958 127.297C232.846 127.328 232.734 127.362 232.622 127.398C232.511 127.433 232.4 127.47 232.29 127.51C232.18 127.549 232.07 127.59 231.962 127.633C231.853 127.676 231.745 127.72 231.637 127.767C231.53 127.813 231.424 127.862 231.318 127.912C231.212 127.962 231.107 128.014 231.003 128.067C230.899 128.121 230.796 128.176 230.694 128.233C230.592 128.29 230.491 128.349 230.391 128.409C229.818 128.752 229.125 129.555 228.463 129.641C227.997 129.701 227.573 129.371 227.21 129.13C226.996 128.765 226.835 128.424 226.918 127.99C227.044 127.341 227.745 126.932 228.243 126.581Z" fill="black"/>
<path d="M228.085 138.337C230.874 139.225 233.566 142.054 235.393 144.237C237.62 143.318 242.053 142.13 244.371 142.789C244.667 142.873 245.016 143.045 245.132 143.352C245.242 143.643 245.133 144.001 245.015 144.271C244.836 144.682 244.649 144.933 244.223 145.109C243.245 145.513 241.935 145.402 240.883 145.516C239.633 145.652 238.334 145.936 237.157 146.382L237.028 146.432C238.167 147.613 241.005 150.967 241.124 152.516C241.146 152.789 241.092 153.082 240.886 153.279C240.448 153.697 239.847 153.606 239.299 153.555C239.09 153.467 238.928 153.368 238.771 153.2C238.097 152.478 237.511 151.413 236.928 150.593C236.111 149.445 235.217 148.363 234.303 147.291C231.97 148.015 229.814 149.089 227.652 150.206C227.142 150.469 226.647 150.602 226.085 150.4C225.695 150.26 225.336 149.985 225.201 149.58C225.107 149.3 225.153 149.053 225.273 148.791C225.909 147.402 231.079 145.776 232.656 145.201C231.979 144.289 231.11 143.504 230.244 142.775C229.261 141.946 227.363 141.005 226.943 139.766C226.853 139.501 226.852 139.221 227.003 138.974C227.239 138.591 227.674 138.438 228.085 138.337Z" fill="black"/>
<path d="M198.904 120.356L199.013 120.317C200.165 119.884 201.226 119.243 202.391 118.836C205.88 117.618 210.047 117.771 213.414 119.292C216.374 120.63 218.561 122.845 219.985 125.746C220.098 126.278 220.206 126.703 219.879 127.185C219.708 127.436 219.465 127.652 219.248 127.864C218.37 130.301 217.832 132.885 217.109 135.374C215.328 141.481 213.622 147.608 211.993 153.756L209.708 162.547C209.049 165.096 208.6 168.544 207.167 170.752C205.673 173.054 203.036 174.532 200.391 175.075C197.03 175.764 193.564 174.907 190.743 173.002C188.2 171.285 186.185 168.571 185.614 165.528C185.322 163.975 185.404 162.406 185.708 160.863C186.066 159.046 186.689 157.238 187.204 155.458L190.657 143.926L193.71 133.777C194.483 131.128 195.177 128.422 196.144 125.836C196.653 124.473 197.241 123.171 198.068 121.971C198.073 121.921 198.077 121.871 198.085 121.821C198.181 121.158 198.359 120.756 198.904 120.356Z" fill="#FE4B11"/>
<path d="M198.904 120.356L199.012 120.317C200.164 119.884 201.226 119.243 202.39 118.836C205.879 117.618 210.046 117.771 213.413 119.292C216.374 120.629 218.56 122.845 219.984 125.745C220.097 126.277 220.205 126.703 219.878 127.185C219.707 127.436 219.464 127.652 219.248 127.863C218.83 127.853 218.443 127.832 218.112 127.537C217.57 127.054 217.192 126.192 216.817 125.565C215.522 123.392 213.526 121.92 211.112 121.179C208.395 120.345 205.156 120.516 202.561 121.689C201.806 122.031 201.133 122.525 200.393 122.893C199.933 123.122 199.431 123.228 198.939 123.036C198.478 122.857 198.248 122.394 198.067 121.97C198.073 121.921 198.077 121.871 198.084 121.821C198.18 121.158 198.358 120.756 198.904 120.356Z" fill="black"/>
<path d="M197.758 131.385C199.994 131.694 203.415 135.448 204.95 137.103C206.774 136.391 211.803 134.701 213.607 135.206C213.937 135.299 214.265 135.482 214.414 135.806C214.562 136.127 214.542 136.531 214.413 136.855C214.297 137.147 214.117 137.385 213.826 137.522C213.153 137.84 212.137 137.877 211.401 138.006C209.845 138.279 208.3 138.648 206.872 139.333C208.18 140.877 210.15 143.433 210.845 145.345C210.966 145.68 211.045 146.036 210.845 146.361C210.51 146.905 209.821 146.982 209.247 147.068C208.034 146.276 205.604 141.804 204.378 140.208C202.152 141.046 200.225 142.251 198.182 143.435C197.668 143.733 197.152 143.992 196.548 143.801C196.159 143.677 195.692 143.335 195.548 142.946C195.466 142.722 195.495 142.483 195.589 142.268C196.258 140.741 200.884 138.871 202.505 138.25C201.228 136.738 197.358 134.343 196.802 133.109C196.65 132.77 196.593 132.431 196.763 132.082C196.972 131.654 197.343 131.533 197.758 131.385Z" fill="black"/>
</svg>
