<svg width="1458" height="333" viewBox="0 0 1458 333" fill="none" xmlns="http://www.w3.org/2000/svg">
<path d="M1349.35 277.214C1350.11 277.935 1350.87 278.668 1351.66 279.36C1352.28 279.903 1352.94 280.414 1353.54 280.985C1353.71 281.358 1353.78 281.721 1353.64 282.12C1353.53 282.449 1353.26 282.708 1352.94 282.836C1352.62 282.966 1352.23 282.982 1351.9 282.837C1351.72 282.754 1351.56 282.614 1351.4 282.484C1350.22 281.461 1349.02 280.457 1347.89 279.376C1347.72 279.21 1347.55 279.006 1347.45 278.792C1347.43 278.754 1347.41 278.715 1347.4 278.675C1347.38 278.635 1347.37 278.594 1347.36 278.553C1347.35 278.511 1347.34 278.47 1347.34 278.428C1347.33 278.385 1347.33 278.343 1347.33 278.301C1347.33 278.258 1347.33 278.216 1347.33 278.173C1347.33 278.131 1347.34 278.089 1347.35 278.047C1347.36 278.005 1347.36 277.964 1347.38 277.923C1347.39 277.882 1347.4 277.842 1347.42 277.803C1347.44 277.764 1347.45 277.727 1347.47 277.69C1347.49 277.653 1347.52 277.617 1347.54 277.582C1347.56 277.547 1347.59 277.514 1347.62 277.482C1347.64 277.449 1347.67 277.419 1347.7 277.389C1347.73 277.36 1347.76 277.332 1347.79 277.306C1347.83 277.28 1347.86 277.255 1347.9 277.232C1347.93 277.21 1347.97 277.189 1348.01 277.169C1348.04 277.15 1348.08 277.133 1348.12 277.118C1348.56 276.941 1348.93 277.029 1349.35 277.214Z" fill="black"/>
<path d="M1347.89 279.376C1349.02 280.457 1350.22 281.461 1351.4 282.484C1350.99 282.891 1350.57 283.287 1350.13 283.673C1349.18 284.519 1345.3 287.849 1344.16 287.784L1344.07 287.653C1343.95 286.354 1345.5 283.531 1346.19 282.376C1346.75 281.433 1347.47 280.483 1347.86 279.456C1347.87 279.43 1347.88 279.403 1347.89 279.376Z" fill="#ACE4EB"/>
<path d="M1337.53 271.236C1338.67 272.024 1339.66 272.493 1341.03 272.698C1340.32 274.851 1339.75 277.138 1338.86 279.219C1338.16 279.699 1337.49 279.85 1336.65 279.683C1335.87 279.53 1334.91 279.066 1334.48 278.365C1334.27 278.023 1334.23 277.642 1334.33 277.256C1334.58 276.262 1336.88 272.335 1337.53 271.236Z" fill="#FDA5CF"/>
<path d="M1424.25 244.097C1425.26 243.407 1428.25 241.26 1429.39 241.446C1430.55 241.635 1431.24 242.87 1431.83 243.762C1433.11 245.701 1434.3 247.7 1435.59 249.636C1436.51 251.016 1437.95 252.889 1438.64 254.344C1438.8 254.682 1438.83 255.167 1438.75 255.529C1438.67 255.841 1438.41 256.111 1438.19 256.324C1437.4 257.074 1436.36 257.687 1435.47 258.324C1435 258.656 1434.54 259.066 1434.05 259.357C1434.04 259.368 1434.02 259.378 1434 259.389C1433.54 258.218 1432.35 256.68 1431.65 255.587L1426.37 247.342C1425.68 246.255 1424.9 245.206 1424.25 244.097Z" fill="#FD4B11"/>
<path d="M1366.09 280.07C1366.36 280.807 1366.94 281.527 1367.37 282.192L1369.87 286.141C1372.15 289.786 1374.36 293.463 1376.69 297.075C1377.37 298.124 1378 299.244 1378.72 300.259C1377.27 300.813 1375.98 301.936 1374.47 302.297C1371.32 300.472 1368.6 299.388 1364.92 300.354C1363.01 300.854 1358.91 302.451 1357.32 303.515C1356.65 301.837 1355.18 299.766 1354.27 298.096C1355.16 297.387 1356.02 296.614 1356.88 295.867C1359.64 293.481 1361.76 291.153 1361.88 287.309C1361.92 286.343 1361.52 284.077 1361.66 283.469C1361.87 282.555 1365.2 280.647 1366.09 280.07Z" fill="#FD4B11"/>
<path d="M1357.08 254.537C1358.85 256.015 1360.49 257.66 1362.17 259.23L1370.15 266.602C1371.2 267.571 1372.26 268.531 1373.33 269.482C1373.71 269.825 1374.11 270.269 1374.53 270.554C1374.54 270.861 1374.5 271.08 1374.28 271.31C1374.14 271.459 1373.95 271.557 1373.76 271.612C1373.74 271.625 1373.73 271.637 1373.71 271.651C1372.63 272.487 1370.58 275.364 1369.25 275.224C1368.31 275.125 1367.37 274.676 1366.41 274.527C1363.17 274.025 1359.83 275.602 1357.32 277.526C1355.94 278.581 1354.83 279.846 1353.53 280.985C1352.94 280.414 1352.28 279.903 1351.66 279.36C1350.87 278.668 1350.11 277.935 1349.35 277.214C1350.54 275.923 1351.48 274.29 1352.33 272.757C1353.99 269.748 1354.66 266.466 1353.52 263.138C1353.19 262.189 1352.59 261.332 1352.33 260.369C1352.32 260.341 1352.31 260.313 1352.3 260.285C1352.58 259.556 1355.4 256.602 1356.19 255.583C1356.46 255.205 1356.75 254.872 1357.08 254.537Z" fill="#ACE4EB"/>
<path d="M1357.08 254.537C1358.85 256.015 1360.49 257.66 1362.17 259.23L1370.15 266.602C1371.2 267.571 1372.26 268.531 1373.32 269.482C1373.71 269.825 1374.11 270.269 1374.53 270.554C1374.54 270.861 1374.5 271.08 1374.28 271.31C1374.14 271.459 1373.95 271.557 1373.76 271.612C1372.69 270.938 1371.74 270.019 1370.8 269.177C1368.77 267.371 1366.83 265.482 1364.84 263.643C1362.75 261.715 1360.61 259.843 1358.54 257.886C1357.75 257.136 1356.91 256.392 1356.18 255.583C1356.46 255.205 1356.75 254.872 1357.08 254.537Z" fill="black"/>
<path d="M1358.16 253.324C1358.06 253.683 1357.37 254.267 1357.08 254.537C1356.75 254.872 1356.46 255.205 1356.18 255.583C1355.4 256.602 1352.58 259.555 1352.3 260.285C1350.53 262.308 1348.82 264.378 1347.16 266.496C1346.06 267.899 1344.98 269.505 1343.71 270.752C1343.36 271.093 1343.04 271.319 1342.56 271.442C1342.62 271.766 1342.64 271.97 1342.45 272.26C1342.29 272.511 1341.94 272.633 1341.65 272.669C1341.45 272.695 1341.24 272.698 1341.03 272.698C1339.66 272.493 1338.66 272.024 1337.53 271.236C1337.38 271.093 1337.25 270.946 1337.11 270.797C1336.91 270.565 1336.73 270.247 1336.78 269.925C1336.83 269.6 1337.07 269.428 1337.32 269.247C1337.28 267.446 1337.66 265.571 1337.91 263.787L1338.92 256.434C1339.12 255.073 1339.41 253.659 1339.41 252.284C1338.85 251.482 1337.87 250.804 1337.51 249.899C1336.92 248.415 1338.28 245.771 1338.89 244.355C1339.07 244.63 1339.25 244.787 1339.54 244.948C1341.05 245.798 1343.04 246.534 1344.67 247.26L1352.1 250.613C1354.12 251.506 1356.18 252.349 1358.16 253.324Z" fill="#FDA5CF"/>
<path d="M1342.56 271.442C1342.62 271.766 1342.64 271.97 1342.45 272.26C1342.29 272.511 1341.94 272.633 1341.65 272.669C1341.45 272.695 1341.24 272.698 1341.03 272.698C1339.66 272.493 1338.66 272.024 1337.53 271.236C1337.38 271.093 1337.25 270.946 1337.11 270.797C1336.91 270.565 1336.73 270.247 1336.78 269.925C1336.83 269.6 1337.07 269.428 1337.32 269.247C1337.79 269.49 1338.21 269.875 1338.64 270.175C1339.95 271.068 1341.03 271.218 1342.56 271.442Z" fill="black"/>
<path d="M1424.25 244.097C1424.9 245.206 1425.68 246.255 1426.37 247.342L1431.65 255.586C1432.35 256.68 1433.54 258.218 1434 259.388C1433.66 259.651 1433.31 259.909 1432.99 260.193C1428.17 263.666 1423.55 267.446 1418.86 271.098C1410.11 277.898 1401.31 284.622 1392.45 291.268C1390.61 292.612 1388.75 293.925 1386.87 295.206C1385.97 295.81 1379.93 299.638 1379.82 299.831C1379.45 300.078 1379.15 300.196 1378.72 300.259C1378 299.244 1377.37 298.124 1376.69 297.075C1374.36 293.463 1372.15 289.786 1369.87 286.14L1367.37 282.192C1366.94 281.527 1366.36 280.807 1366.09 280.07C1366.46 279.726 1366.8 279.529 1367.29 279.396C1368.34 278.906 1369.33 278.092 1370.27 277.43L1375.18 274.03C1382.54 269 1389.78 263.812 1397.26 258.961C1399.94 257.248 1402.66 255.602 1405.42 254.024C1408.18 252.447 1410.98 250.938 1413.81 249.5C1415.41 248.674 1417.01 247.816 1418.63 247.011C1420.12 246.27 1421.66 245.584 1423.1 244.752C1423.47 244.506 1423.84 244.296 1424.25 244.097Z" fill="#FD4B11"/>
<path d="M1424.25 244.097C1424.9 245.206 1425.68 246.256 1426.37 247.342L1431.65 255.587C1432.35 256.68 1433.54 258.218 1434 259.389C1433.66 259.651 1433.31 259.91 1432.99 260.193C1431.51 257.752 1429.91 255.373 1428.36 252.977L1423.1 244.752C1423.47 244.506 1423.84 244.296 1424.25 244.097Z" fill="black"/>
<path d="M1367.29 279.396C1367.93 280.241 1368.45 281.199 1369.01 282.1L1371.9 286.731L1376.83 294.584C1377.67 295.927 1378.57 297.254 1379.35 298.632C1379.57 299.017 1379.77 299.385 1379.81 299.831C1379.45 300.078 1379.15 300.197 1378.71 300.259C1378 299.244 1377.37 298.124 1376.69 297.075C1374.36 293.463 1372.14 289.786 1369.87 286.141L1367.36 282.192C1366.94 281.527 1366.36 280.807 1366.09 280.07C1366.46 279.726 1366.8 279.529 1367.29 279.396Z" fill="black"/>
<path d="M1419.02 252.407C1419.13 252.458 1419.23 252.515 1419.33 252.577C1419.43 252.64 1419.52 252.707 1419.61 252.78C1419.71 252.852 1419.79 252.93 1419.88 253.012C1419.96 253.094 1420.04 253.18 1420.11 253.27C1420.15 253.311 1420.18 253.353 1420.21 253.395C1420.24 253.438 1420.27 253.481 1420.3 253.525C1420.33 253.569 1420.36 253.614 1420.38 253.659C1420.41 253.705 1420.44 253.751 1420.46 253.798C1420.48 253.845 1420.51 253.892 1420.53 253.94C1420.55 253.988 1420.57 254.037 1420.59 254.086C1420.61 254.135 1420.63 254.184 1420.65 254.234C1420.66 254.284 1420.68 254.335 1420.69 254.386C1420.71 254.437 1420.72 254.488 1420.73 254.539C1420.74 254.591 1420.75 254.643 1420.76 254.695C1420.77 254.747 1420.78 254.799 1420.78 254.851C1420.79 254.904 1420.79 254.956 1420.8 255.009C1420.8 255.062 1420.8 255.114 1420.8 255.167C1420.8 255.22 1420.8 255.273 1420.8 255.325C1420.8 255.378 1420.8 255.431 1420.79 255.483C1420.79 255.536 1420.78 255.588 1420.77 255.64C1420.68 256.268 1420.36 257.102 1419.84 257.496C1418.28 258.663 1416.13 259.873 1414.44 260.905L1406.13 266.036L1395.42 272.641C1393.08 274.097 1390.75 275.668 1388.34 276.99C1387.49 277.458 1386.64 277.443 1385.73 277.176C1385.08 276.84 1384.54 276.44 1384.17 275.793C1384.15 275.751 1384.12 275.708 1384.1 275.665C1384.08 275.621 1384.06 275.577 1384.04 275.532C1384.02 275.488 1384 275.443 1383.98 275.397C1383.97 275.352 1383.95 275.306 1383.93 275.259C1383.92 275.213 1383.9 275.166 1383.89 275.119C1383.88 275.072 1383.87 275.025 1383.86 274.977C1383.85 274.929 1383.84 274.881 1383.83 274.833C1383.82 274.785 1383.82 274.736 1383.81 274.688C1383.81 274.639 1383.8 274.591 1383.8 274.542C1383.8 274.493 1383.8 274.444 1383.8 274.396C1383.8 274.347 1383.8 274.298 1383.8 274.249C1383.8 274.201 1383.81 274.152 1383.81 274.103C1383.82 274.055 1383.82 274.006 1383.83 273.958C1383.84 273.91 1383.85 273.862 1383.86 273.814C1383.87 273.767 1383.88 273.719 1383.89 273.672C1383.9 273.625 1383.92 273.578 1383.93 273.532C1384.16 272.811 1384.46 272.51 1385.04 272.069C1386.88 270.667 1389.25 269.427 1391.22 268.161C1396.32 264.834 1401.47 261.589 1406.67 258.426C1408.93 257.038 1411.16 255.592 1413.41 254.185C1414.38 253.579 1415.38 252.846 1416.41 252.357C1417.28 251.942 1418.15 252.09 1419.02 252.407Z" fill="black"/>
<path d="M1418.47 253.543C1418.69 253.709 1418.89 253.871 1419.06 254.1C1419.36 254.515 1419.53 255.019 1419.43 255.534C1419.33 256.085 1418.99 256.41 1418.55 256.722C1417.27 257.632 1415.85 258.414 1414.52 259.246L1404.38 265.479L1392.02 273.129C1390.53 274.029 1389.08 275.133 1387.52 275.893C1387.07 276.113 1386.71 276.08 1386.23 275.997C1385.92 275.835 1385.66 275.678 1385.45 275.387C1385.18 275.007 1385.07 274.549 1385.18 274.093C1385.3 273.556 1385.55 273.268 1386 272.97C1388.76 271.141 1391.6 269.43 1394.4 267.671C1399 264.736 1403.63 261.856 1408.3 259.031C1410.18 257.881 1412.04 256.719 1413.9 255.546C1414.9 254.919 1415.92 254.204 1416.98 253.69C1417.49 253.443 1417.92 253.434 1418.47 253.543Z" fill="#FD4B11"/>
<path d="M1404.23 204.494C1405.07 205.107 1405.85 205.866 1406.63 206.556L1411.34 210.779C1412.76 212.061 1416.64 215.157 1417.61 216.596C1417.34 216.903 1417.1 217.214 1416.87 217.553C1415.81 219.355 1414.38 220.994 1413.09 222.643L1407.22 230.243L1386.61 257.261L1380.01 265.706C1378.85 267.173 1377.73 268.812 1376.42 270.142C1376.24 270.316 1376.08 270.452 1375.84 270.524C1375.5 270.627 1375.1 270.569 1374.75 270.541C1374.62 270.53 1374.67 270.531 1374.53 270.555C1374.11 270.269 1373.71 269.825 1373.33 269.482C1372.26 268.531 1371.2 267.571 1370.15 266.603L1362.17 259.23C1360.49 257.66 1358.85 256.015 1357.08 254.538C1357.37 254.268 1358.06 253.684 1358.16 253.325C1358.5 253.215 1359.02 252.438 1359.21 252.136C1359.8 251.752 1363.12 247.634 1363.77 246.782C1364.57 245.935 1365.3 245.004 1366.06 244.118C1367.8 242.118 1369.5 240.092 1371.17 238.042C1373.91 234.757 1376.72 231.542 1379.61 228.397C1382.2 225.55 1385.05 222.877 1387.84 220.225L1396.76 211.828C1398.99 209.759 1401.06 207.51 1403.32 205.475L1404.23 204.494Z" fill="#ACE4EB"/>
<path d="M1402.23 214.386C1402.86 214.748 1403.4 215.302 1403.71 215.961C1404.03 216.674 1404.08 217.607 1403.77 218.335C1403.28 219.469 1399.22 223.57 1398.19 224.673C1395.02 228.105 1391.82 231.515 1388.61 234.904C1385.98 237.716 1383.34 240.512 1380.69 243.291C1379.71 244.313 1378.78 245.406 1377.75 246.38C1377.41 246.709 1377.06 246.995 1376.61 247.168C1375.76 247.495 1374.92 247.397 1374.11 247.027C1373.55 246.674 1373.1 246.306 1372.75 245.72C1372.3 244.941 1372.19 243.876 1372.51 243.021C1372.68 242.562 1373.21 242.016 1373.54 241.651C1374.68 240.386 1375.89 239.178 1377.06 237.935L1387.13 227.223L1394.67 219.173C1395.8 217.952 1396.88 216.669 1398.06 215.485C1398.53 215.01 1399.01 214.506 1399.64 214.26C1400.52 213.92 1401.38 214.03 1402.23 214.386Z" fill="black"/>
<path d="M1401.4 215.539C1401.65 215.685 1401.9 215.826 1402.09 216.048C1402.39 216.39 1402.56 216.837 1402.52 217.292C1402.48 217.756 1402.34 218.056 1402.04 218.408C1400.66 220.051 1399.08 221.582 1397.61 223.152L1387.8 233.586C1385.08 236.529 1382.35 239.451 1379.59 242.351C1378.66 243.316 1377.57 244.676 1376.55 245.496C1376.09 245.875 1375.5 245.947 1374.92 245.892C1374.67 245.751 1374.44 245.613 1374.25 245.392C1373.92 245.006 1373.72 244.519 1373.79 244.007C1373.86 243.487 1374.3 243.022 1374.64 242.643C1376.47 240.599 1378.41 238.65 1380.29 236.65L1391.95 224.166C1393.67 222.316 1395.39 220.475 1397.13 218.644C1398 217.708 1398.88 216.452 1399.93 215.725C1400.37 215.416 1400.89 215.443 1401.4 215.539Z" fill="#ACE4EB"/>
<path d="M1339.27 243.573C1339.29 243.453 1339.31 243.344 1339.35 243.228C1339.94 241.404 1340.81 239.56 1341.58 237.799L1344.68 230.649L1354.01 209.333C1357.28 201.764 1360.6 194.216 1363.97 186.69L1366.83 180.233C1367.3 179.162 1367.73 178.03 1368.28 176.996C1368.62 176.348 1369.05 175.894 1369.71 175.574C1370.45 175.215 1371.03 175.255 1371.79 175.513C1372.52 175.761 1373.22 176.157 1373.92 176.479L1378.55 178.608C1380.49 179.486 1382.45 180.305 1384.39 181.197C1385.17 181.558 1386.03 181.885 1386.75 182.349C1387.23 182.651 1387.66 183.102 1387.89 183.616C1388.17 184.217 1388.09 184.928 1387.9 185.54C1387.48 186.842 1386.78 188.124 1386.27 189.402C1384.74 193.181 1383.24 196.972 1381.76 200.774L1363.77 246.782C1363.12 247.634 1359.8 251.752 1359.21 252.135C1359.02 252.438 1358.5 253.215 1358.16 253.325C1356.18 252.349 1354.12 251.506 1352.1 250.613L1344.67 247.26C1343.04 246.534 1341.05 245.798 1339.54 244.948C1339.25 244.787 1339.07 244.63 1338.89 244.355C1338.98 244.078 1339.13 243.828 1339.27 243.573Z" fill="#FDA5CF"/>
<path d="M1359.21 252.136C1359.02 252.438 1358.5 253.215 1358.16 253.325C1356.18 252.349 1354.12 251.506 1352.1 250.613L1344.67 247.26C1343.04 246.534 1341.05 245.798 1339.54 244.948C1339.25 244.787 1339.07 244.631 1338.89 244.355C1338.98 244.078 1339.13 243.828 1339.27 243.573C1339.35 243.538 1339.39 243.516 1339.48 243.491C1339.71 243.424 1339.89 243.443 1340.12 243.524C1341.11 243.883 1342.08 244.384 1343.05 244.828L1348.17 247.187C1351.83 248.861 1355.58 250.388 1359.21 252.136Z" fill="black"/>
<path d="M1379.78 187.659C1380.13 187.867 1380.47 188.08 1380.77 188.365C1381.77 189.337 1382.26 190.701 1382.28 192.088C1382.3 192.905 1382.03 193.69 1381.73 194.439C1380.96 196.325 1380.05 198.171 1379.22 200.03L1375.36 208.717L1366.75 228.215C1366.27 229.296 1362.72 237.874 1362.27 238.23C1362.07 238.382 1361.77 238.451 1361.53 238.38C1361.36 238.332 1361.24 238.238 1361.18 238.076C1361.04 237.731 1361.14 237.323 1361.25 236.986C1361.66 235.765 1362.32 234.578 1362.82 233.392C1364.21 230.152 1365.66 226.95 1367.09 223.732L1373.83 208.364C1375.42 204.867 1376.99 201.358 1378.53 197.838C1379.08 196.624 1379.67 195.428 1380.2 194.207C1380.7 193.046 1380.96 191.76 1380.44 190.547C1380.23 190.044 1379.87 189.622 1379.45 189.281C1378.53 188.541 1375.31 187.047 1374.15 186.593L1374.06 186.56C1373.68 186.473 1373.33 186.411 1372.94 186.421C1371.91 186.449 1370.95 186.952 1370.29 187.743C1369.5 188.688 1367.49 193.496 1366.84 194.905L1357.23 216.099L1351.98 227.879C1351.54 228.868 1351.1 229.86 1350.67 230.855C1350.48 231.303 1350.32 231.789 1350.11 232.222C1350.03 232.365 1349.94 232.505 1349.82 232.617C1349.64 232.792 1349.42 232.865 1349.17 232.857C1348.93 232.848 1348.81 232.756 1348.65 232.585C1348.51 232.151 1348.6 231.774 1348.76 231.354C1349.04 230.601 1349.42 229.861 1349.75 229.126L1351.85 224.459L1357.54 211.846L1363.34 198.886C1364.93 195.313 1366.49 191.696 1368.23 188.196C1368.93 186.785 1369.87 185.728 1371.4 185.224C1373.47 184.543 1375.09 185.328 1376.93 186.234L1379.78 187.659Z" fill="black"/>
<path d="M1335.07 194.057C1335.17 194.1 1335.28 194.142 1335.38 194.193C1336.09 194.556 1336.58 195.176 1336.83 195.938C1337.31 197.464 1337 200.887 1337.04 202.685C1337.18 209.13 1337.05 215.565 1336.93 222.009C1336.87 225.674 1336.76 229.338 1336.61 233.001C1336.48 236.772 1336.37 240.569 1336.07 244.33C1335.68 249.158 1335.06 253.916 1334.32 258.701C1334.17 259.755 1334.04 260.812 1333.93 261.871C1333.87 262.489 1333.87 263.16 1333.75 263.767C1333.55 264.77 1332.19 264.482 1331.65 265.445C1330.39 267.703 1329.32 271.323 1328.61 273.869C1328.06 275.856 1327.66 277.927 1327.33 279.965C1327.25 280.467 1327.15 282.02 1326.89 282.391C1326.68 282.682 1326.17 282.795 1325.84 282.9C1325.75 284.831 1325.43 288.956 1324.59 290.608C1324.35 291.094 1323.96 291.551 1323.41 291.702C1323.02 291.81 1322.63 291.78 1322.28 291.56C1321.05 290.777 1320.64 286.03 1320.52 284.515C1320.47 283.896 1320.52 283.213 1320.4 282.612L1320.28 282.583C1319.93 282.512 1319.71 282.457 1319.52 282.12C1319.44 281.973 1318.63 276.438 1318.46 275.609C1317.92 272.97 1316.49 267.441 1314.73 265.447C1314.02 264.639 1312.76 264.351 1312.32 263.775C1312.04 263.422 1312.26 259.429 1312.2 258.62C1312.16 257.98 1312.02 257.332 1311.93 256.697C1311.79 255.648 1311.65 254.598 1311.53 253.546C1311.25 250.97 1311.15 248.331 1311.1 245.74C1310.92 237.303 1311.74 228.825 1312.63 220.445L1313.84 209.073C1314.16 206.474 1314.45 203.872 1314.7 201.266C1314.86 199.693 1314.89 197.95 1315.24 196.412C1315.47 195.467 1315.96 194.791 1316.8 194.293C1317.32 193.986 1317.86 193.845 1318.45 193.79C1319.58 193.683 1320.72 193.736 1321.85 193.755L1326.4 193.818C1327.92 193.834 1329.43 193.84 1330.94 193.834C1332.28 193.834 1333.76 193.742 1335.07 194.057Z" fill="black"/>
<path d="M1332.51 259.779C1332.64 259.994 1332.27 262.6 1332.2 263.048C1331.85 263.216 1331.51 263.402 1331.2 263.639C1330.78 263.963 1330.47 264.348 1330.2 264.804C1329.69 265.68 1329.34 266.689 1328.99 267.638C1328.45 269.06 1327.96 270.5 1327.53 271.959C1327.1 273.417 1326.72 274.89 1326.4 276.377C1326.05 278.007 1325.83 279.661 1325.58 281.308C1324.05 281.447 1322.46 281.178 1320.93 281.154C1320.73 280.095 1320.64 279.006 1320.49 277.94C1320.25 276.328 1319.94 274.732 1319.55 273.15C1319.13 271.624 1318.64 270.118 1318.09 268.632C1317.18 266.165 1316.25 264.021 1313.74 262.872C1313.78 261.716 1313.74 260.554 1313.77 259.396C1318.12 259.548 1322.48 259.65 1326.84 259.701C1328.73 259.721 1330.62 259.827 1332.51 259.779Z" fill="#FCFCFC"/>
<path d="M1334.59 195.495C1334.87 195.644 1335.08 195.82 1335.24 196.095C1335.76 197.014 1335.48 201.643 1335.48 202.966C1335.49 205.143 1335.56 207.319 1335.57 209.496C1335.54 215.302 1335.43 221.106 1335.25 226.91C1335.09 232.757 1334.91 238.626 1334.49 244.462C1334.28 247.186 1334.01 249.903 1333.68 252.614C1333.45 254.471 1333.22 256.372 1332.76 258.189C1326.84 258.158 1320.92 258.069 1315 257.921C1314.58 257.901 1314.15 257.906 1313.73 257.907C1313.54 256.501 1313.28 255.107 1313.14 253.693C1312.29 245.014 1312.71 236.273 1313.46 227.602C1314.15 220.241 1314.93 212.889 1315.8 205.546C1316.01 203.773 1316.2 201.999 1316.39 200.224C1316.5 199.09 1316.51 197.875 1316.76 196.766C1316.84 196.39 1317.08 196.041 1317.38 195.803C1317.76 195.497 1318.24 195.385 1318.73 195.337C1319.94 195.216 1321.2 195.285 1322.41 195.306L1327.62 195.393C1329.89 195.426 1332.35 195.239 1334.59 195.495Z" fill="#FCFCFC"/>
<path d="M1330.29 199.191C1330.4 199.244 1330.51 199.302 1330.62 199.365C1330.74 199.427 1330.84 199.493 1330.95 199.564C1331.05 199.634 1331.16 199.708 1331.26 199.786C1331.36 199.865 1331.45 199.946 1331.55 200.032C1331.64 200.118 1331.73 200.206 1331.82 200.299C1331.9 200.391 1331.99 200.487 1332.07 200.586C1332.15 200.684 1332.22 200.786 1332.29 200.89C1332.36 200.995 1332.43 201.102 1332.5 201.212C1333.19 202.399 1333.35 203.792 1333.38 205.141C1333.4 206.263 1333.3 207.389 1333.23 208.508C1333.13 210.274 1333.02 212.04 1332.89 213.804L1332.09 226.512C1331.88 230.513 1331.63 234.511 1331.34 238.507C1331.26 239.675 1331.41 241.278 1331.09 242.365C1331.01 242.632 1330.86 242.946 1330.59 243.06C1330.41 243.134 1330.2 243.097 1330.03 243.011C1329.67 242.819 1329.55 242.653 1329.54 242.238C1329.53 241.415 1329.65 240.534 1329.71 239.708C1329.85 237.618 1330.04 235.53 1330.16 233.439L1331.3 213.621C1331.47 211.074 1332.2 205.349 1331.59 203.136C1331.3 202.121 1330.72 201.259 1329.78 200.744C1327.61 199.553 1324.54 199.929 1322.27 200.603C1321.59 200.886 1320.98 201.254 1320.72 201.978C1319.84 204.426 1319.71 212.033 1319.55 214.92L1318.54 231.082L1318.1 237.851C1318.02 239.159 1318.03 240.507 1317.88 241.807C1317.85 242.057 1317.8 242.297 1317.59 242.466C1317.39 242.636 1317.12 242.668 1316.86 242.608C1316.67 242.562 1316.51 242.423 1316.42 242.247C1316.29 241.991 1316.33 241.571 1316.34 241.289C1316.45 238.854 1316.67 236.408 1316.83 233.974L1317.51 222.693L1318.33 209.121C1318.43 207.685 1318.46 206.24 1318.6 204.808C1318.7 203.754 1318.79 202.43 1319.22 201.461C1319.73 200.32 1320.71 199.564 1321.84 199.112C1324.33 198.125 1327.83 198.14 1330.29 199.191Z" fill="black"/>
<path d="M28.8059 154.681C30.5212 154.638 32.282 154.374 33.9928 154.204C38.2551 153.781 42.4996 153.253 46.7559 152.779L72.0975 150.022C78.6932 149.267 85.3155 148.356 91.9309 147.821L91.9518 147.837C95.6554 153.435 98.815 159.836 100.314 166.398C100.499 167.207 100.905 168.415 100.744 169.23C100.677 169.574 100.42 169.779 100.136 169.956C98.5764 170.93 94.5471 171.907 92.6196 172.47C90.1689 173.187 87.7029 173.848 85.2216 174.452C82.7404 175.055 80.2465 175.601 77.74 176.089C75.2333 176.577 72.7168 177.006 70.1904 177.378C67.6639 177.749 65.1301 178.062 62.5892 178.316C56.731 178.856 50.7625 178.976 44.8808 179.08C43.3581 179.105 39.4094 179.466 38.1425 179.138C38.1012 179.127 38.0607 179.115 38.02 179.102C37.9847 179.357 37.9523 179.617 37.8248 179.844C37.6793 180.107 37.4378 180.312 37.1455 180.39C36.873 180.461 36.6134 180.411 36.3823 180.251C35.9999 179.986 35.8815 179.613 35.8132 179.174C35.0792 179.52 25.9241 179.823 25.1238 179.465C25.006 179.412 24.9226 179.363 24.8773 179.243C24.4911 178.228 24.704 176.706 24.7277 175.629C24.8779 168.855 26.1487 160.952 28.8059 154.681Z" fill="#FE4B11"/>
<path d="M82.7666 152.342C83.0227 152.367 83.3237 152.374 83.5605 152.482C84.1004 152.726 84.3796 153.61 84.5825 154.127C85.9148 157.524 87.1224 160.992 88.3112 164.44C88.7218 165.631 89.3392 166.943 89.5927 168.167C89.6449 168.419 89.6206 168.814 89.4936 169.043C89.3583 169.286 89.2398 169.321 88.9816 169.371C88.8691 169.448 88.77 169.518 88.6354 169.551C88.3749 169.615 88.1297 169.577 87.9066 169.427C87.7379 169.314 87.6296 169.179 87.5525 168.992C86.7283 166.995 86.1434 164.829 85.4244 162.785C84.9454 161.423 82.1123 154.236 82.0834 153.48C82.0645 152.986 82.453 152.675 82.7666 152.342Z" fill="black"/>
<path d="M50.9806 117.756C54.9582 117.677 58.7201 117.182 62.5971 116.315C62.8569 120.173 63.4085 127.317 63.8851 131.152C61.1331 133.23 57.4553 134.231 54.038 133.747C52.9227 133.589 51.25 133.308 50.4485 132.447C50.717 132.349 51.0746 132.197 51.2658 131.982C52.1912 130.937 51.1107 119.589 50.9806 117.756Z" fill="black"/>
<path d="M35.8135 179.174C36.2135 173.815 36.6538 168.46 37.1344 163.108C37.2762 161.557 37.4263 160.006 37.5847 158.456C37.6494 157.821 37.6497 157.113 37.7818 156.495C37.8372 156.235 37.9615 156 38.1612 155.821C38.3726 155.632 38.6621 155.522 38.9468 155.536C39.2193 155.549 39.4974 155.682 39.6663 155.899C39.9199 156.223 39.9341 156.628 39.9312 157.023C39.9213 158.296 39.6937 159.581 39.5926 160.851C39.3394 164.035 39.0878 167.21 38.7802 170.39C38.5017 173.268 38.4472 176.251 38.0203 179.102C37.985 179.357 37.9526 179.617 37.8251 179.844C37.6796 180.107 37.4381 180.312 37.1458 180.39C36.8733 180.461 36.6137 180.411 36.3826 180.251C36.0002 179.986 35.8818 179.613 35.8135 179.174Z" fill="black"/>
<path d="M29.2937 111.896C16.2165 106.619 13.0004 86.9321 13.027 77.7485C12.5885 78.3019 10.9852 78.5468 8.07995 75.099C5.17473 71.6512 8.05358 68.6826 9.85616 67.6293C7.93315 62.7945 7.35092 54.9323 12.188 54.5041C8.62071 50.9199 10.213 46.8789 12.1214 45.4912C13.2939 44.6387 15.9228 45.6219 17.8981 46.6405C14.5707 44.2512 14.5732 40.3419 15.0762 38.4859C18.4218 35.7635 20.8824 37.6277 22.1583 39.6161C21.0277 37.113 20.0104 33.186 21.9385 30.6472C23.4641 28.6384 25.2734 29.5712 26.6782 31.0936C25.5346 28.8564 25.1773 26.0994 28.218 24.485C31.225 22.8886 33.4629 24.5364 34.8442 26.573C34.053 24.2151 34.0536 21.5145 37.0495 20.5345C41.4083 19.1086 42.9438 24.4001 43.1668 27.2241C42.9793 23.8824 43.8282 17.0744 48.7241 16.5759C52.8376 16.1572 52.8949 19.7644 52.193 22.5085C53.4171 19.3388 56.4789 14.8029 62.0211 14.4237C67.2587 14.0655 66.2019 19.0059 64.3534 22.949C67.9324 17.3362 72.3478 17.6472 74.6084 18.0219C76.2612 18.2959 75.575 22.485 74.7108 25.731C76.3425 21.439 79.2083 20.9935 80.5942 21.392C85.3389 22.857 82.3744 27.7344 79.2454 30.9364C84.0624 26.61 86.1363 26.4805 87.6952 27.2633C90.8813 30.9463 87.2907 36.1555 85.0972 38.2997C88.5981 35.2598 90.0807 35.8543 90.3845 36.5316C92.9346 38.9059 90.7771 44.026 89.3795 46.2893C96.7991 46.3239 95.3882 56.5653 93.6189 62.1891C95.7573 59.861 97.4202 60.4406 97.9983 61.0451C101.289 67.3837 96.273 69.702 93.3534 70.0688L91.7572 85.0788C87.3153 107.41 68.094 114.23 61.7966 115.6C55.4991 116.97 45.6402 118.493 29.2937 111.896Z" fill="black"/>
<path d="M7.37627 76.5652C8.67101 77.954 10.3478 78.4291 12.1928 78.4824C12.945 88.1135 13.8004 98.8207 20.4866 106.425C27.4556 114.352 38.4994 117.068 48.6378 117.736C48.9326 120.14 48.9864 122.569 49.0385 124.987C49.0658 126.248 49.0038 127.759 49.2128 129.001C49.5322 129.146 49.8389 129.283 50.1767 129.383C50.9782 130.245 52.651 130.526 53.7662 130.684L53.9186 130.705C57.3108 131.187 61.5356 131.786 64.2469 129.739L65.334 128.937L65.8446 127.673C65.9337 126.194 65.5759 124.624 65.4442 123.149L64.778 115.751C65.1841 115.637 65.5883 115.516 65.9906 115.388C66.3928 115.26 66.7929 115.127 67.1907 114.986C67.5886 114.846 67.9842 114.699 68.3773 114.546C68.7705 114.392 69.1611 114.233 69.5491 114.067C69.9371 113.901 70.3223 113.729 70.7048 113.551C71.0872 113.373 71.4667 113.188 71.8432 112.998C72.2197 112.807 72.593 112.611 72.9631 112.408C73.3334 112.206 73.7002 111.998 74.0637 111.783C74.4271 111.569 74.787 111.349 75.1433 111.123C75.4997 110.897 75.8523 110.665 76.2011 110.428C76.55 110.19 76.8949 109.948 77.2359 109.699C77.577 109.451 77.9139 109.197 78.2467 108.937C78.5795 108.678 78.908 108.413 79.2323 108.143C79.5566 107.874 79.8765 107.598 80.192 107.318C80.5073 107.038 80.8181 106.753 81.1243 106.462C81.4305 106.172 81.7319 105.877 82.0286 105.577C91.012 96.5482 94.6082 83.7867 94.5722 71.3032C94.962 71.207 95.3534 71.109 95.7341 70.9807C95.843 70.9441 95.9509 70.9047 96.0578 70.8626C96.1648 70.8207 96.2706 70.776 96.3753 70.7288C96.48 70.6815 96.5834 70.6316 96.6856 70.5791C96.7879 70.5267 96.8888 70.4717 96.9882 70.4142C97.0877 70.3567 97.1856 70.2968 97.2822 70.2344C97.3786 70.172 97.4735 70.1073 97.5667 70.0402C97.6599 69.9732 97.7515 69.9037 97.8413 69.832C97.931 69.7603 98.019 69.6865 98.1051 69.6104C98.1912 69.5344 98.2753 69.4563 98.3575 69.376C98.4396 69.2957 98.5198 69.2134 98.5979 69.1291C98.676 69.0449 98.752 68.9587 98.8258 68.8707C98.8996 68.7827 98.9711 68.6929 99.0403 68.6013C99.1097 68.5096 99.1766 68.4163 99.2413 68.3214C99.3059 68.2264 99.3681 68.1299 99.428 68.0319C99.4878 67.9338 99.5451 67.8343 99.6 67.7334C99.6549 67.6325 99.7072 67.5302 99.757 67.4267C100.49 65.9367 100.63 63.9842 100.076 62.4141C99.6941 61.3289 98.971 60.3385 97.906 59.8465C96.8687 59.3673 95.6932 59.4354 94.6419 59.8301C93.6534 60.2012 92.574 60.9085 92.1482 61.9173C92.0336 62.1888 91.9132 62.6187 92.0757 62.8978C92.2135 63.1345 92.3974 63.2294 92.6538 63.292C93.7731 63.565 94.4604 62.746 95.338 62.2377C95.7605 61.9927 96.306 61.7329 96.8013 61.8892C97.1957 62.0137 97.4297 62.3724 97.6051 62.7234C98.0808 63.6756 98.184 64.8956 97.8396 65.9045C97.4267 67.1146 96.2489 68.1718 95.0474 68.5702C94.3889 68.7885 93.629 68.8867 93.017 69.2223C92.654 69.4215 92.4543 69.6286 92.3806 70.0424C92.1309 71.4469 92.2251 73.4847 92.1163 74.9998C91.8126 79.2313 91.1966 83.4553 89.9546 87.5211C86.9111 97.484 80.5921 105.702 71.3451 110.598C60.971 116.091 47.6124 116.783 36.4852 113.337C20.5696 108.409 16.1379 98.6687 14.8262 82.8425C14.7245 81.615 14.7577 77.3547 14.2571 76.5167C13.7426 75.6553 11.9263 76.3052 11.0199 76.0354C9.96596 75.7219 9.02962 74.9984 8.51679 74.0202C8.05712 73.1433 7.77309 71.6273 8.09848 70.679C8.2447 70.2529 8.52904 69.9349 8.93535 69.7409C10.2835 69.0974 11.1161 70.0403 12.3199 70.3759C12.7506 70.496 13.2532 70.3948 13.622 70.1451C13.8396 69.9976 13.9926 69.8025 14.0215 69.5359C14.0568 69.2084 13.7845 68.8243 13.5783 68.5975C12.7385 67.6741 11.3429 67.2309 10.1286 67.1588C8.93514 67.088 7.81586 67.4516 6.92246 68.2595C6.01686 69.0784 5.65084 70.2249 5.60018 71.4184C5.52038 73.2925 6.0835 75.1783 7.37627 76.5652Z" fill="black"/>
<path d="M49.1995 128.839C49.1995 128.839 51.0441 129.958 53.2869 130.513C56.7043 130.997 63.0402 129.755 65.7922 127.677C66.881 128.147 68.0042 128.381 69.0346 128.968C69.323 128.782 69.6023 128.682 69.9509 128.748C70.2533 128.806 70.507 129.073 70.6609 129.326C70.8247 129.596 70.8241 129.938 70.8498 130.244C70.8513 130.262 70.8535 130.279 70.8552 130.297C75.614 131.739 88.7688 141.195 92.2334 148.245C88.1197 148.823 78.5174 154.055 74.3848 154.47L55.3464 164.5L44.08 142.455C40.9951 142.782 37.9061 143.187 34.8092 143.378L34.7973 143.232C37.1449 139.358 41.6587 135.376 44.9289 132.235C44.863 131.879 44.8501 131.58 45.012 131.245C45.1405 130.98 45.3549 130.768 45.6414 130.684C46.0404 130.567 46.3107 130.695 46.6631 130.879C47.5484 130.241 48.4518 129.641 49.1995 128.839Z" fill="#FE4B11"/>
<path d="M44.9281 132.235C44.8621 131.879 44.8493 131.58 45.0112 131.246C45.1396 130.981 45.354 130.768 45.6406 130.685C46.0396 130.568 46.3099 130.695 46.6622 130.88C48.9228 133.66 51.1546 134.49 54.658 134.848C54.7919 134.862 54.9259 134.875 55.0602 134.886C55.1944 134.897 55.3287 134.906 55.4632 134.914C55.5977 134.922 55.7322 134.928 55.8667 134.932C56.0013 134.937 56.136 134.939 56.2707 134.94C56.4054 134.942 56.54 134.941 56.6747 134.939C56.8093 134.936 56.9439 134.932 57.0785 134.927C57.2131 134.921 57.3475 134.914 57.4818 134.905C57.6162 134.896 57.7505 134.885 57.8846 134.873C58.0187 134.861 58.1527 134.847 58.2865 134.831C58.4202 134.816 58.5538 134.799 58.6872 134.78C58.8205 134.761 58.9535 134.74 59.0863 134.718C59.2191 134.696 59.3517 134.672 59.484 134.646C59.6162 134.621 59.748 134.594 59.8796 134.565C60.0112 134.536 60.1424 134.506 60.2733 134.474C60.4041 134.442 60.5345 134.408 60.6644 134.373C60.7944 134.338 60.924 134.301 61.0531 134.262C61.182 134.224 61.3106 134.184 61.4388 134.142C61.5668 134.101 61.6943 134.057 61.8213 134.012C61.9483 133.968 62.0748 133.921 62.2006 133.873C62.3264 133.825 62.4516 133.776 62.5762 133.725C62.7008 133.674 62.8248 133.621 62.9481 133.567C63.0714 133.513 63.194 133.457 63.3161 133.4C63.438 133.343 63.5591 133.284 63.6796 133.224C63.8 133.164 63.9198 133.102 64.0388 133.039C64.1578 132.976 64.2759 132.911 64.3932 132.845C64.5106 132.779 64.6271 132.712 64.7427 132.643C64.8584 132.574 64.9731 132.503 65.087 132.431C65.201 132.36 65.3141 132.286 65.4261 132.212C65.5382 132.137 65.6494 132.061 65.7596 131.984C65.8698 131.906 65.979 131.828 66.0873 131.748C66.1956 131.668 66.3028 131.586 66.409 131.503C66.5154 131.421 66.6206 131.337 66.7247 131.251C67.5623 130.559 68.3127 129.779 69.0338 128.969C69.3222 128.783 69.6015 128.682 69.9501 128.748C70.2524 128.806 70.5062 129.073 70.6601 129.327C70.8238 129.596 70.8233 129.939 70.8489 130.245C70.8505 130.262 70.8526 130.28 70.8543 130.297C69.7408 132.008 68.1938 133.406 66.4888 134.512C62.408 137.159 57.0557 138.088 52.3064 137.07C49.1433 136.392 46.6915 134.971 44.9281 132.235Z" fill="black"/>
<path d="M65.2131 94.84C65.6313 94.8062 66.1664 94.8521 66.5225 95.0949C66.7133 95.2251 66.8115 95.3875 66.8497 95.6139C66.9278 96.0776 66.575 96.6381 66.3135 97.0052C64.2123 99.9547 60.4191 101.598 56.9476 102.188C52.7509 102.902 47.9072 102.309 44.3846 99.8138C43.923 99.4596 43.5056 99.1676 43.315 98.5885C43.1816 98.1836 43.1323 97.8888 43.3252 97.5014C43.6825 97.1763 44.1461 97.0961 44.614 97.2235C45.3665 97.4283 46.1537 98.2254 46.8218 98.6445C48.7813 99.8732 51.887 100.241 54.1772 100.19C57.3186 100.12 60.5828 99.2063 63.0003 97.1284C63.8013 96.44 64.4824 95.6023 65.2131 94.84Z" fill="#FEA6D0"/>
<path d="M68.0964 49.9977C68.5079 49.9275 68.9211 49.8685 69.3359 49.8206C69.7505 49.7727 70.1663 49.7361 70.5831 49.7108C70.9998 49.6855 71.4169 49.6715 71.8343 49.6688C72.2518 49.6661 72.6691 49.6747 73.0861 49.6946C73.5031 49.7145 73.9193 49.7457 74.3346 49.7882C74.7499 49.8306 75.1638 49.8843 75.5762 49.9492C75.9886 50.0141 76.399 50.0901 76.8073 50.1772C77.2157 50.2644 77.6213 50.3625 78.0242 50.4717C79.4426 50.8601 82.2713 51.5291 82.9902 52.9064C83.0134 52.9497 83.0342 52.9941 83.0527 53.0396C83.0714 53.0851 83.0877 53.1314 83.1016 53.1786C83.1156 53.2257 83.1272 53.2733 83.1364 53.3216C83.1455 53.3699 83.1523 53.4185 83.1566 53.4675C83.1609 53.5164 83.1628 53.5655 83.1622 53.6146C83.1615 53.6637 83.1584 53.7127 83.1527 53.7615C83.1472 53.8103 83.1392 53.8587 83.1289 53.9068C83.1184 53.9548 83.1056 54.0022 83.0904 54.049C82.8858 54.6925 82.3352 55.0471 81.7634 55.3262C79.6991 55.1359 77.5362 54.0764 75.3854 53.7582C74.0828 53.5654 72.7363 53.4662 71.42 53.4288C70.2691 53.3962 68.8285 53.5994 67.7247 53.2496C67.3142 53.1197 66.9368 52.9055 66.7431 52.5034C66.5295 52.06 66.6289 51.5637 66.8093 51.1276C67.0771 50.4809 67.4924 50.2605 68.0964 49.9977Z" fill="#ACE5EC"/>
<path d="M32.649 53.0452C33.7134 52.8008 35.3212 52.5797 36.3772 52.8496C36.8622 52.9737 37.2289 53.3002 37.456 53.743C37.4855 53.7993 37.5122 53.857 37.536 53.916C37.5598 53.975 37.5806 54.035 37.5984 54.096C37.616 54.1571 37.6306 54.2189 37.6422 54.2815C37.6537 54.344 37.6621 54.407 37.6673 54.4704C37.6724 54.5337 37.6744 54.5972 37.6731 54.6608C37.6719 54.7244 37.6675 54.7878 37.6598 54.8509C37.6523 54.914 37.6416 54.9766 37.6277 55.0387C37.6138 55.1007 37.5968 55.1619 37.5767 55.2223C37.3836 55.793 36.9521 56.1301 36.4051 56.3392C35.1351 56.8249 33.439 56.8088 32.0794 57.0832C29.8922 57.5245 27.8845 58.5136 25.8753 59.4492C25.3251 59.7243 24.7527 60.0153 24.177 60.2323C23.6537 60.4296 23.0964 60.4549 22.5868 60.1995C22.5264 60.1689 22.4678 60.1352 22.4109 60.0983C22.3542 60.0614 22.2995 60.0216 22.247 59.9789C22.1943 59.9362 22.1442 59.8909 22.0965 59.8429C22.0487 59.7949 22.0036 59.7445 21.9612 59.6917C21.9188 59.6389 21.8794 59.584 21.8428 59.527C21.8062 59.47 21.7728 59.4112 21.7424 59.3506C21.7121 59.2902 21.6851 59.2282 21.6614 59.1648C21.6376 59.1013 21.6172 59.0368 21.6004 58.9713C21.479 58.5015 21.5482 57.9911 21.8283 57.59C23.1063 55.7595 30.3202 53.4631 32.649 53.0452Z" fill="#ACE5EC"/>
<path d="M53.2752 72.8495C54.1309 72.7024 54.835 72.7355 55.6352 73.087C57.087 73.7246 58.0074 75.183 58.5671 76.6062C59.3502 78.5979 59.6707 81.4404 58.7823 83.4499C58.176 84.8211 57.2025 85.6271 55.8223 86.1502C54.7581 86.3211 53.856 86.395 52.8472 85.9381C51.6055 85.3758 50.7545 84.2309 50.2875 82.9794C49.4267 80.6733 49.4832 77.5387 50.5453 75.3052C51.1318 74.0719 51.9993 73.3037 53.2752 72.8495Z" fill="black"/>
<path d="M53.7385 75.0729C53.9678 75.0545 54.1855 75.0471 54.4112 75.102C55.0689 75.262 55.645 75.9491 55.9745 76.5118C56.8307 77.9729 57.3284 80.1644 56.8747 81.8274C56.6073 82.8069 56.1324 83.3984 55.2503 83.8959C54.9455 83.9511 54.635 83.9885 54.3277 83.9263C53.6983 83.7992 53.1615 83.3687 52.8102 82.8436C51.8509 81.4096 51.85 79.2832 52.2009 77.6588C52.4302 76.5963 52.7933 75.6736 53.7385 75.0729Z" fill="#ACE5EC"/>
<path d="M77.6427 80.1243C79.0941 79.8882 80.4692 79.7977 81.858 80.358C83.3676 80.9672 84.647 82.163 85.2838 83.6671C85.9414 85.2204 85.9585 87.1159 85.311 88.6754C84.5734 90.4525 83.1554 91.5756 81.4188 92.2942C79.8576 92.5811 78.4729 92.6664 76.9842 92.0127C75.4652 91.3457 74.3169 90.109 73.7192 88.5673C73.0826 86.9246 73.1076 85.1612 73.8364 83.5529C74.5998 81.8686 75.9242 80.7551 77.6427 80.1243Z" fill="#FEA6D0"/>
<path d="M30.6643 84.5234C32.0701 84.2516 33.9217 84.7809 35.1039 85.5482C36.5526 86.4888 37.4984 88.0386 37.836 89.7169C38.1868 91.4601 37.7961 93.2152 36.7972 94.6836C35.7818 96.176 34.3659 96.9908 32.6168 97.3251C30.8812 97.4937 29.2447 97.3269 27.7735 96.3156C27.6873 96.2563 27.6027 96.1951 27.5196 96.1318C27.4364 96.0684 27.3549 96.0031 27.2751 95.9357C27.1951 95.8683 27.1169 95.7989 27.0405 95.7277C26.964 95.6565 26.8894 95.5834 26.8165 95.5085C26.7436 95.4336 26.6726 95.3569 26.6036 95.2785C26.5345 95.2001 26.4674 95.1201 26.4023 95.0383C26.3372 94.9565 26.2742 94.8732 26.2131 94.7884C26.1521 94.7035 26.0932 94.6173 26.0365 94.5296C25.9797 94.4419 25.9251 94.3528 25.8728 94.2623C25.8204 94.1718 25.7704 94.0801 25.7225 93.9873C25.6747 93.8944 25.6292 93.8003 25.586 93.7051C25.5428 93.6099 25.502 93.5137 25.4635 93.4166C25.4251 93.3195 25.3891 93.2214 25.3554 93.1225C25.3218 93.0235 25.2907 92.9238 25.2621 92.8233C25.2334 92.7228 25.2071 92.6217 25.1834 92.5199C25.1598 92.4181 25.1386 92.3158 25.12 92.213C25.0997 92.1038 25.0821 91.9941 25.0673 91.8839C25.0525 91.7737 25.0403 91.6633 25.031 91.5525C25.0216 91.4418 25.015 91.3309 25.0111 91.2199C25.0072 91.1088 25.0061 90.9977 25.0078 90.8865C25.0094 90.7755 25.0138 90.6645 25.0209 90.5536C25.0281 90.4426 25.0379 90.332 25.0505 90.2216C25.0631 90.1111 25.0785 90.0011 25.0965 89.8915C25.1146 89.7818 25.1354 89.6726 25.1588 89.5641C25.1822 89.4554 25.2084 89.3474 25.2372 89.2401C25.2661 89.1328 25.2975 89.0262 25.3316 88.9204C25.3657 88.8147 25.4023 88.7098 25.4416 88.6058C25.4809 88.5019 25.5228 88.399 25.5671 88.297C25.6115 88.1951 25.6584 88.0944 25.7078 87.9948C25.7571 87.8952 25.8089 87.7969 25.8632 87.6999C25.9174 87.6029 25.974 87.5073 26.033 87.4132C26.092 87.319 26.1533 87.2263 26.2168 87.1351C27.3083 85.5632 28.8233 84.8388 30.6643 84.5234Z" fill="#FEA6D0"/>
<path d="M72.3968 60.1275C73.829 59.8567 75.17 59.8409 76.543 60.3937C78.4169 61.1482 79.7222 62.7482 80.4953 64.575C81.6004 67.1868 81.5266 70.4062 80.4528 73.0175C79.588 75.1206 78.1193 76.6824 76.0179 77.5438C74.6025 78.0736 72.917 78.0031 71.5455 77.3809C69.8696 76.6206 68.6301 75.0622 67.991 73.3651C66.8431 70.3162 67.2402 66.5341 68.5897 63.6151C69.4031 61.856 70.5825 60.7816 72.3968 60.1275Z" fill="black"/>
<path d="M72.9807 62.3387C73.7754 62.1985 74.5148 62.1898 75.2904 62.4339C76.5321 62.8245 77.4953 63.7483 78.0734 64.899C79.0976 66.9376 79.1277 69.5929 78.3925 71.7265C77.8108 73.4143 76.8831 74.5951 75.2725 75.3747C74.4337 75.5891 73.6872 75.6906 72.8467 75.4188C71.7548 75.0655 70.9644 74.2044 70.463 73.1976C69.3538 70.9694 69.4348 68.0475 70.2286 65.7362C70.7505 64.2166 71.5156 63.0477 72.9807 62.3387Z" fill="#FDFDFD"/>
<path d="M74.1695 64.3852C74.6012 64.3306 75.0562 64.3275 75.4721 64.4679C76.1448 64.6948 76.6619 65.262 76.9735 65.8836C77.5676 67.0689 77.7508 68.6949 77.3263 69.9621C77.0217 70.8718 76.5007 71.4628 75.6479 71.8961C75.2225 71.9277 74.7941 71.9403 74.392 71.7762C73.5359 71.4266 72.9084 70.6651 72.5479 69.8334C72.0625 68.7129 71.905 67.2387 72.3756 66.088C72.7361 65.2072 73.3235 64.7513 74.1695 64.3852Z" fill="black"/>
<path d="M31.7164 63.6146C33.5018 63.2908 35.2407 63.4083 36.8843 64.2173C38.9413 65.2299 40.3673 67.123 41.0924 69.2687C42.0066 71.9737 41.8437 75.0575 40.542 77.6062C39.3993 79.8433 37.7491 81.1095 35.3822 81.8782C33.6487 82.2858 31.8587 82.1033 30.2764 81.2642C28.1843 80.1544 26.6512 78.1021 25.9665 75.8581C25.1598 73.2143 25.3216 70.1352 26.6547 67.6842C27.8077 65.5642 29.4284 64.3003 31.7164 63.6146Z" fill="black"/>
<path d="M32.551 65.8205C33.7627 65.6493 34.9879 65.8264 36.071 66.4106C37.5696 67.219 38.4937 68.6784 38.955 70.282C39.5683 72.4133 39.4301 74.7891 38.3419 76.7469C37.4739 78.3085 36.2387 79.2051 34.5376 79.6763C33.3404 79.8571 32.2747 79.7673 31.1969 79.1695C29.6448 78.3085 28.5833 76.6903 28.1138 75.0089C27.5367 72.9426 27.7028 70.5296 28.7719 68.6455C29.6209 67.149 30.9156 66.2721 32.551 65.8205Z" fill="#FDFDFD"/>
<path d="M33.3998 68.3313C33.8864 68.2351 34.4013 68.1531 34.8939 68.2538C35.6872 68.4161 36.3558 68.9273 36.7823 69.6063C37.4897 70.7321 37.6401 72.3204 37.3389 73.5971C37.1206 74.5231 36.6582 75.3177 35.8454 75.8274C35.4931 75.9249 35.1142 75.9822 34.7491 75.9282C34.0078 75.8186 33.3625 75.3223 32.9228 74.7348C32.1052 73.6423 31.6808 72.0574 31.8939 70.7049C32.0619 69.6386 32.5278 68.9578 33.3998 68.3313Z" fill="black"/>
<path d="M53.1947 17.8785C55.3253 15.347 57.7843 13.5862 61.1711 13.3108C62.6939 13.1868 64.3516 13.253 65.5629 14.3045C66.6532 15.2511 66.9937 16.6072 67.0703 17.9936C67.0771 18.1185 67.083 18.2436 67.0881 18.3687C69.2163 17.1859 71.9026 16.009 74.3758 16.7414C75.3425 17.0276 76.1078 17.6475 76.5759 18.5419C76.9278 19.2147 77.0567 19.9549 77.1826 20.696C78.8038 20.1234 80.3428 19.5772 82.002 20.3746C82.1907 20.466 82.3774 20.5612 82.5622 20.6601C83.8635 21.9505 84.3613 23.2633 84.3751 25.0923C84.3774 25.3893 84.3663 25.6802 84.3278 25.975C85.7476 25.7364 87.0303 25.6194 88.2694 26.5071C89.3463 27.2786 89.9016 28.5158 90.0873 29.7979C90.3238 31.4312 89.9868 33.0886 89.2814 34.5687C90.3145 34.6394 91.185 34.9054 91.8962 35.7027C92.9349 36.8672 93.076 38.5988 92.9759 40.0871C92.8476 41.9971 92.2084 43.7858 91.3162 45.4644C92.7309 46.9861 94.7873 48.7094 94.7098 50.7724C94.6615 52.0605 94.155 56.0831 93.2232 56.8825C92.9998 57.0739 92.7076 57.1473 92.4181 57.1052C92.0763 57.0554 91.7571 56.8514 91.5623 56.5669C91.2598 56.1257 91.3855 55.5594 91.5028 55.0767C91.9654 53.1736 91.4327 49.7285 90.3284 47.9349C90.2082 47.7398 90.1306 47.7243 89.9265 47.6466C89.0255 47.8509 88.1779 49.3479 87.161 48.6791C86.8742 48.4905 86.6546 48.1947 86.5974 47.8525C86.5219 47.402 86.7586 46.9641 87.0343 46.6259C87.5665 45.9732 88.3245 45.5424 88.8764 44.9154C90.13 43.4914 90.7778 40.739 90.6282 38.8802C90.5816 38.3021 90.4646 37.5315 89.9974 37.1385C89.7163 36.9022 89.3467 36.8444 88.9905 36.8849C87.2648 37.0817 84.3465 41.1791 83.0219 40.2275C82.7474 40.0303 82.5349 39.7437 82.511 39.3997C82.4713 38.8304 82.8798 38.3064 83.2521 37.9153C84.0021 37.1273 84.907 36.4952 85.6799 35.7316C86.9426 34.4842 87.8705 32.495 87.8347 30.7051C87.8203 29.9783 87.6413 29.216 87.1086 28.6883C86.654 28.2378 86.039 28.0605 85.4099 28.0817C84.5115 28.112 83.642 28.4664 82.8233 28.8083C81.9083 30.4618 80.5141 33.1797 78.607 33.8004C78.3001 33.9002 77.8885 33.9611 77.5959 33.7887C77.3646 33.6524 77.2381 33.4369 77.1897 33.173C77.025 32.276 77.5827 31.3361 78.1076 30.6567C79.0871 29.3883 80.3012 28.4027 81.5702 27.4439C81.9967 26.13 82.375 24.6088 81.7105 23.2971C81.474 22.8301 81.1333 22.4568 80.6289 22.2819C79.2454 21.8021 77.7025 22.8791 76.5158 23.4468C76.3387 25.0724 75.7051 27.5408 74.3362 28.5962C73.9993 28.8561 73.5888 29.0309 73.1573 28.9617C72.8261 28.9086 72.5445 28.7122 72.3677 28.429C71.9898 27.8246 72.0934 27.034 72.2764 26.3811C72.6441 25.0686 73.3697 23.7908 74.3165 22.8095C74.1696 22.7408 74.0769 22.7009 73.9109 22.7201C73.0976 22.8139 72.2713 23.0273 71.4644 23.1731C69.4703 23.5334 67.4023 23.8863 65.3783 23.9899C64.8182 25.0937 63.8926 27.3768 62.6345 27.7839C62.4102 27.8566 62.2132 27.8503 62.0006 27.7439C61.6156 27.5509 61.4247 27.134 61.3138 26.7392C61.1349 26.1016 61.3649 25.5461 61.5963 24.9611C60.8331 24.6848 54.4011 25.4414 53.1193 25.5557C52.9417 25.8304 52.7533 26.0923 52.5137 26.3175C52.2409 26.5737 51.8858 26.7379 51.5065 26.7191C50.9191 26.6899 50.5341 26.2181 50.1866 25.803C48.7829 25.9453 45.7886 26.068 44.5852 26.3845C44.5636 27.2452 44.4754 27.9574 43.7996 28.5764C43.5502 28.8049 43.2438 28.9565 42.898 28.9117C42.6121 28.8744 42.3564 28.672 42.1915 28.4442C41.9835 28.1566 41.8526 27.8198 41.7563 27.481L41.5788 26.7658C40.8311 26.6505 37.4617 27.0123 36.7324 27.2722C36.9937 28.0416 37.4046 29.1773 37.1105 29.9871C37.0124 30.2571 36.825 30.4651 36.5504 30.5599C36.2736 30.6556 35.9258 30.651 35.6599 30.5237C34.8365 30.1289 34.5067 28.3147 34.193 27.5107C31.89 27.7255 29.5894 27.964 27.2914 28.2261C27.2483 28.4155 27.1736 28.7629 27.2044 28.954C27.3308 29.7419 29.834 31.415 29.923 33.4894C29.9428 33.9503 29.8432 34.5797 29.4961 34.9145C29.2425 35.159 28.871 35.2781 28.5223 35.2491C27.234 35.1425 26.0095 33.18 25.6031 32.1147C25.3997 31.582 25.3586 30.9028 25.0033 30.4552C24.7944 30.3481 24.7002 30.2755 24.4509 30.3039C23.7652 30.3823 23.0244 31.0124 22.6144 31.5388C21.3948 33.1046 21.6373 35.2507 21.8467 37.1024C22.6848 37.7541 23.4068 38.4045 23.9104 39.357C24.3295 40.1498 24.5927 41.1699 24.2789 42.0453C24.1621 42.3709 23.9525 42.6857 23.6257 42.8271C23.3602 42.9421 23.0677 42.8952 22.8082 42.7852C21.3813 42.1806 20.5421 39.7446 19.9544 38.4328C19.1456 38.3313 18.3215 38.2882 17.5363 38.5475C16.8721 38.7669 16.3154 39.2005 16.0102 39.839C15.4316 41.0498 15.8206 42.7033 16.2387 43.8999C17.8439 44.5088 19.5124 45.6284 20.4359 47.1139C20.6434 47.4479 20.8055 47.9207 20.6891 48.3127C20.5843 48.6655 20.3205 49.1292 19.9724 49.2923C18.7771 49.852 16.8454 46.8175 15.516 46.3142C14.8026 46.0442 14.0283 46.0316 13.333 46.366C12.5309 46.7518 12.0015 47.4397 11.7115 48.2693C11.2954 49.4605 11.4896 51.322 12.0377 52.4492C12.8375 54.0939 14.5195 54.6751 16.1356 55.2139C16.6859 55.3974 17.6618 55.5864 17.9162 56.1577C18.0592 56.4791 18.0318 56.867 17.8897 57.1839C17.7729 57.4445 17.5532 57.6915 17.2776 57.7877C16.1311 58.1879 13.8691 57.0094 12.7951 56.5684C12.6759 57.0761 12.5436 57.6026 12.5664 58.1279C12.6577 60.2325 13.8209 61.4669 14.2911 63.2868C14.3447 63.4945 14.3405 63.6674 14.2565 63.8656C14.1068 64.2193 13.7444 64.5602 13.3779 64.6786C13.1474 64.7529 12.9282 64.7259 12.7144 64.6145C11.7211 64.0961 10.9877 61.803 10.6597 60.7369C10.0324 58.6985 10.0375 56.8753 11.0313 54.9782C10.3703 54.1641 9.88163 53.332 9.58287 52.3195C9.02225 50.4198 9.08366 48.114 10.0683 46.3598C10.9059 44.8678 12.2028 44.2587 13.7906 43.8235C13.6404 43.223 13.5583 42.5816 13.5006 41.9647C13.3638 40.5 13.5609 38.937 14.535 37.7739C15.7135 36.3666 17.64 36.0417 19.3693 35.9058C19.3502 33.8218 19.4415 31.607 20.8128 29.9073C21.9182 28.5369 23.2048 28.2501 24.8728 28.0857C25.036 27.168 25.3862 26.409 25.7978 25.582C26.6455 24.2746 27.6028 23.3842 29.1633 23.0375C30.5609 22.7271 32.0577 22.8533 33.4269 23.2406C33.9431 21.6176 34.7571 20.1315 36.3354 19.3263C37.4068 18.7797 38.5772 18.753 39.708 19.1293C40.9375 19.5384 41.8994 20.3117 42.8401 21.1765C43.6633 19.0564 44.808 16.7877 46.9989 15.8087C48.1478 15.2952 49.5806 15.183 50.7666 15.637C51.8799 16.0633 52.5806 16.8963 53.1947 17.8785Z" fill="black"/>
<path d="M34.8906 128.855C38.9728 128.175 43.0458 127.444 47.1097 126.662C49.0888 126.298 51.0824 126.013 53.0583 125.636L56.3121 145.564C56.7708 148.33 57.093 151.15 57.6538 153.894L57.8459 155.881C53.3039 156.959 48.703 157.877 44.142 158.881L29.3944 162.277C29.1058 159.621 28.6247 156.943 28.1952 154.306L25.5386 138.692C25.1608 136.442 24.6513 134.157 24.4032 131.895C24.3669 131.564 24.4009 131.341 24.5415 131.041C25.165 130.438 33.3779 129.265 34.8906 128.855Z" fill="#02C2A2"/>
<path d="M39.6712 132.984C39.9348 132.994 40.291 132.993 40.5096 133.159C40.7331 133.329 40.808 133.569 40.8744 133.831C41.0915 134.686 41.1153 135.64 41.2315 136.517C41.5054 138.583 41.774 140.662 42.1465 142.712C43.1712 141.088 44.0598 139.368 45.0539 137.723C45.4352 137.091 45.9776 136.178 46.752 136.006C46.971 135.958 47.1939 135.996 47.3758 136.134C47.6011 136.305 47.76 136.558 47.7895 136.842C47.8554 137.478 43.7933 143.91 43.1478 144.787C44.3613 144.611 50.044 143.632 50.7661 144.09C51.0034 144.241 51.1445 144.464 51.1969 144.739C51.2486 145.009 51.1794 145.273 51.0147 145.492C50.8777 145.674 50.7093 145.778 50.4915 145.841C49.588 146.106 48.5011 146.11 47.557 146.239C46.3945 146.397 45.2453 146.645 44.082 146.809C45.1851 147.643 49.7308 150.793 50.1494 151.702C50.3029 152.036 50.2191 152.435 50.093 152.759C49.8991 152.946 49.795 153.055 49.5135 153.068C48.1435 153.128 44.1078 149.404 42.9015 148.399C43.0554 149.901 43.8558 153.632 43.5066 154.876C43.4054 155.237 43.2692 155.36 42.9652 155.534C42.8033 155.528 42.6521 155.527 42.501 155.462C42.0085 155.247 41.7705 155.037 41.5556 154.562C41.1447 152.459 40.9743 150.303 40.7892 148.17C39.6718 149.741 38.6015 151.394 37.5803 153.029C37.1803 153.67 36.8457 154.412 36.3829 155.006C36.1603 155.292 35.8946 155.551 35.5728 155.723C35.1999 155.923 34.8878 155.951 34.4874 155.83C34.3428 155.685 34.2583 155.636 34.216 155.435C33.9514 154.182 37.6013 149.263 38.4515 147.969C37.2397 148.307 33.2789 149.954 32.3028 149.657C31.9512 149.55 31.7545 149.319 31.6173 148.985C31.5285 148.768 31.5184 148.539 31.62 148.328C31.7725 148.01 32.0459 147.841 32.3535 147.689C32.9202 147.409 33.5916 147.278 34.1916 147.069C35.7739 146.517 37.3464 145.941 38.94 145.421C37.9346 144.334 32.7299 140.608 32.5314 139.695C32.4707 139.416 32.5165 139.13 32.6837 138.896C32.8479 138.666 33.0946 138.525 33.3774 138.504C34.3794 138.429 39.2503 142.736 40.2144 143.521C39.9848 141.593 38.5838 135.112 38.9463 133.685C39.0399 133.316 39.367 133.167 39.6712 132.984Z" fill="black"/>
<path d="M85.4944 1.37709L85.9777 1.36632C86.1974 1.44844 86.303 1.54617 86.4168 1.74605C87.2505 3.21079 88.0589 7.87415 88.6631 9.80317C88.9008 10.5637 89.221 11.2927 89.6559 11.961C91.961 15.4993 97.6275 15.0806 101.358 15.922C101.862 16.035 102.229 16.0837 102.515 16.541C102.466 16.8037 102.435 16.9138 102.202 17.0644C101.599 17.4574 100.787 17.7063 100.12 17.9848C97.7208 18.9869 94.1059 20.1276 92.1898 21.8117C89.2329 24.4119 89.0742 28.7192 88.3464 32.3488C88.2101 33.0271 88.1257 34.0324 87.7983 34.6285C87.6831 34.8385 87.6365 34.8427 87.4207 34.9008L87.2289 34.9811C86.9563 34.9321 86.8926 34.8403 86.7475 34.6061C86.3497 33.9621 86.1198 33.1033 85.8607 32.3885C85.14 30.3999 84.5271 28.3222 83.6848 26.385C83.2972 25.4931 82.8209 24.6431 82.1872 23.9013C81.5791 23.1898 80.8226 22.5678 79.967 22.1771C78.0074 21.2846 71.2541 20.9269 70.221 19.8484C70.3627 19.0884 72.7083 18.3867 73.4267 18.1184C82.1735 14.8594 82.0462 15.3777 84.222 6.00756C84.5716 4.50127 84.8351 2.78063 85.4944 1.37709Z" fill="#FE4B11"/>
<path d="M605.103 87.4573C604.453 88.2169 603.623 89.5084 602.553 89.6231C602.145 89.6666 602.111 89.5472 601.788 89.3303C601.237 88.0905 601.656 86.8094 601.902 85.5331C602.829 80.0466 603.722 74.2226 605.418 68.9231C602.195 66.3698 595.374 63.1931 590.756 60.2753C589.484 59.4718 589.952 57.7723 591.451 57.642C596.887 57.1695 604.281 56.8732 608.071 55.7346C612.89 34.052 607.724 23.3831 622.491 49.9946L623.263 51.0522C624.771 52.0252 639.7 48.3936 642.975 48.6577C643.671 48.714 643.997 48.7858 644.453 49.3008C644.337 50.1563 643.705 50.8916 643.135 51.5137C641.774 52.9982 640.039 54.2329 638.51 55.5465C635.151 58.4679 631.754 61.3444 628.318 64.1761C629.861 67.2576 631.683 70.2599 633.371 73.2685C634.048 74.5191 637.548 80.2387 637.371 81.4064C637.321 81.74 637.184 81.7312 636.925 81.9088C634.679 82.098 631.284 80.2199 629.117 79.4315C625.24 77.8806 621.306 76.3316 617.298 75.1534C612.914 78.707 608.984 83.3517 605.103 87.4573Z" fill="#02C1A1"/>
<path d="M1092.73 243.93C1095.08 243.634 1097.43 243.36 1099.79 243.109C1100.94 242.988 1102.19 242.764 1103.35 242.86C1104.17 242.927 1104.99 243.301 1105.76 243.574C1109.58 244.933 1113.07 246.765 1116.28 249.27C1117.18 249.964 1118.04 250.693 1118.88 251.457C1119.72 252.22 1120.53 253.016 1121.3 253.844C1122.07 254.676 1122.75 255.604 1123.54 256.411C1124 256.992 1124.45 257.581 1124.89 258.178C1125.33 258.775 1125.76 259.378 1126.18 259.989C1126.61 260.601 1127.02 261.22 1127.41 261.846C1127.81 262.471 1128.2 263.103 1128.58 263.742C1128.96 264.381 1129.32 265.026 1129.68 265.677C1130.03 266.328 1130.38 266.986 1130.71 267.649C1131.04 268.312 1131.37 268.98 1131.68 269.655C1131.98 270.329 1132.28 271.008 1132.57 271.693C1133.22 273.222 1136.77 281.946 1136.23 283.053C1136.1 283.336 1135.82 283.515 1135.54 283.618C1135.44 283.614 1135.35 283.614 1135.26 283.582C1135.18 283.555 1135.1 283.501 1135.04 283.448C1134.75 283.209 1134.56 282.843 1134.43 282.497C1133.82 280.954 1133.46 279.26 1132.93 277.68C1132.05 275.093 1130.92 272.495 1129.75 270.021C1127.23 264.668 1124.12 259.514 1120.05 255.191C1119.39 254.492 1118.73 253.752 1117.99 253.141L1117.93 253.098C1117.2 253.104 1115.99 252.459 1115.25 252.201C1111.94 251.039 1108.54 250.228 1105.04 249.967C1103.64 249.863 1102.1 250.063 1100.73 249.786C1097.88 255.446 1094.98 261.082 1092.03 266.696C1090.89 268.867 1089.9 271.212 1088.65 273.308C1088.46 273.616 1088.22 274.024 1087.86 274.14C1087.73 274.179 1087.47 274.208 1087.36 274.14C1086.26 273.485 1083.75 270.668 1082.67 269.595C1078.35 265.294 1074.08 260.914 1069.67 256.708C1067.63 254.72 1065.6 252.737 1063.45 250.867C1061.41 252.943 1059.4 254.948 1057.63 257.274C1050.89 266.104 1047.65 277.2 1045.9 288.021C1045.77 288.854 1045.13 295.083 1044.99 295.333C1044.87 295.542 1044.65 295.684 1044.42 295.743C1044.16 295.81 1043.86 295.785 1043.64 295.62C1043.45 295.48 1043.39 295.244 1043.36 295.023C1043.17 293.685 1043.72 290.617 1043.92 289.144C1045.44 277.687 1048.98 265.811 1055.96 256.454C1057.27 254.69 1062.26 248.864 1064.11 248.044C1065.25 247.539 1067.2 247.433 1068.46 247.243L1075.4 246.2L1075.59 247.864C1072.19 248.478 1068.12 248.832 1064.85 249.738C1067.06 251.627 1069.12 253.641 1071.19 255.681C1072.51 254.585 1075.76 253.363 1077.44 252.82C1077.55 253.652 1077.62 254.488 1077.65 255.327C1079.3 255.14 1080.93 254.806 1082.58 254.568L1094.56 252.876C1094.29 251.907 1094.17 250.889 1093.98 249.901C1093.64 248.49 1093.37 247.056 1093.07 245.635C1092.86 245.108 1092.81 244.491 1092.73 243.93Z" fill="black"/>
<path d="M1093.07 245.635C1095.83 245.33 1098.58 245.004 1101.33 244.735C1100.35 246.36 1099.53 248.115 1098.66 249.803C1097.11 249.924 1095.53 249.877 1093.98 249.902C1093.64 248.491 1093.37 247.056 1093.07 245.635Z" fill="#FDFDFD"/>
<path d="M1103.38 244.641C1108.7 246.581 1113.9 248.98 1117.94 253.098C1117.2 253.105 1115.99 252.46 1115.25 252.202C1111.94 251.04 1108.55 250.228 1105.04 249.967C1103.64 249.863 1102.1 250.063 1100.74 249.787C1101.6 248.073 1102.42 246.305 1103.38 244.641Z" fill="#FDFDFD"/>
<path d="M1093.98 249.902C1095.53 249.877 1097.11 249.924 1098.66 249.803C1097.59 251.834 1087.69 271.294 1087.33 271.533C1086.9 271.35 1072.87 257.243 1071.19 255.682C1072.51 254.585 1075.76 253.364 1077.44 252.82C1077.56 253.652 1077.62 254.488 1077.65 255.328C1079.3 255.14 1080.93 254.807 1082.58 254.568L1094.56 252.876C1094.29 251.908 1094.17 250.89 1093.98 249.902Z" fill="#ACE5EC"/>
<path d="M1123.11 197.591C1125.29 199.204 1126.97 201.004 1127.39 203.789C1127.42 203.921 1127.43 204.054 1127.45 204.187C1127.46 204.32 1127.47 204.454 1127.48 204.588C1127.49 204.722 1127.5 204.855 1127.5 204.99C1127.5 205.124 1127.5 205.258 1127.49 205.392C1127.49 205.526 1127.48 205.659 1127.47 205.793C1127.45 205.926 1127.44 206.06 1127.42 206.192C1127.4 206.325 1127.38 206.457 1127.35 206.589C1127.33 206.721 1127.3 206.851 1127.27 206.982C1127.23 207.112 1127.2 207.241 1127.16 207.37C1127.12 207.498 1127.08 207.625 1127.04 207.752C1126.99 207.878 1126.94 208.003 1126.89 208.127C1126.84 208.251 1126.79 208.374 1126.73 208.495C1126.67 208.616 1126.61 208.736 1126.55 208.854C1126.48 208.972 1126.42 209.089 1126.35 209.204C1126.28 209.319 1126.21 209.432 1126.13 209.543C1126.06 209.654 1125.98 209.763 1125.9 209.871C1125.82 209.973 1125.74 210.073 1125.66 210.17C1125.58 210.268 1125.5 210.364 1125.41 210.458C1125.32 210.552 1125.23 210.643 1125.14 210.733C1125.05 210.822 1124.96 210.909 1124.86 210.994C1124.77 211.079 1124.67 211.161 1124.57 211.241C1124.47 211.32 1124.37 211.398 1124.27 211.472C1124.16 211.547 1124.06 211.619 1123.95 211.689C1123.84 211.758 1123.73 211.825 1123.62 211.889C1123.51 211.953 1123.4 212.015 1123.29 212.073C1123.17 212.132 1123.06 212.187 1122.94 212.24C1122.83 212.293 1122.71 212.343 1122.59 212.39C1122.47 212.437 1122.35 212.48 1122.23 212.521C1122.11 212.562 1121.99 212.6 1121.86 212.635C1121.74 212.67 1121.62 212.702 1121.49 212.731C1121.37 212.759 1121.24 212.785 1121.12 212.807C1120.99 212.83 1120.87 212.849 1120.74 212.865C1119.4 213.042 1118.01 212.819 1116.71 212.448C1112.58 222.535 1103.75 230.886 1093.74 235.059C1092.82 235.432 1091.9 235.791 1090.97 236.136C1091.24 237.789 1091.69 239.422 1092.05 241.057C1092.24 241.92 1092.35 243.15 1092.73 243.931C1092.81 244.491 1092.86 245.108 1093.07 245.635C1093.37 247.056 1093.64 248.491 1093.98 249.902C1094.17 250.89 1094.29 251.908 1094.56 252.876L1082.58 254.568C1080.93 254.807 1079.3 255.14 1077.65 255.328C1077.62 254.488 1077.56 253.652 1077.44 252.82C1077.17 251.114 1077.11 249.362 1076.94 247.643C1076.6 244.301 1076.22 240.94 1075.73 237.617C1074.37 237.685 1073 237.72 1071.65 237.673C1064.9 237.441 1057.9 234.979 1053.23 229.96C1050.66 227.204 1048.12 222.376 1048.26 218.534C1048.98 220.047 1049.71 221.557 1050.6 222.981C1054.08 228.589 1059.48 232.246 1065.89 233.74C1076.02 236.105 1087.26 233.755 1096.02 228.313C1104.98 222.749 1110.43 214.109 1112.8 203.966C1114.08 204.015 1115.51 203.767 1116.72 203.372C1119.67 202.408 1121.73 200.297 1123.11 197.591Z" fill="#FEA6D0"/>
<path d="M1100.74 249.787C1102.1 250.063 1103.64 249.863 1105.04 249.967C1108.55 250.228 1111.94 251.04 1115.25 252.202C1115.99 252.46 1117.2 253.105 1117.94 253.098L1117.99 253.141C1118.73 253.753 1119.39 254.493 1120.05 255.192C1124.12 259.515 1127.23 264.669 1129.75 270.021C1130.92 272.495 1132.05 275.093 1132.93 277.681C1133.46 279.26 1133.82 280.955 1134.43 282.497C1134.57 282.843 1134.75 283.209 1135.04 283.448C1135.1 283.501 1135.18 283.556 1135.26 283.583C1135.35 283.614 1135.44 283.614 1135.54 283.619C1135.82 283.516 1136.1 283.336 1136.23 283.054C1136.77 281.947 1133.22 273.222 1132.57 271.694C1132.28 271.009 1131.99 270.329 1131.68 269.655C1131.37 268.981 1131.04 268.312 1130.71 267.65C1130.38 266.986 1130.04 266.329 1129.68 265.677C1129.32 265.026 1128.96 264.381 1128.58 263.742C1128.2 263.103 1127.81 262.471 1127.42 261.846C1127.02 261.22 1126.61 260.601 1126.19 259.99C1125.77 259.379 1125.33 258.775 1124.89 258.179C1124.45 257.582 1124 256.993 1123.54 256.412C1123.61 256.436 1123.62 256.436 1123.69 256.476C1125.1 257.201 1126.51 258.47 1127.74 259.477C1135.85 266.143 1141.17 275.4 1144.25 285.326C1144.18 285.376 1144.13 285.42 1144.06 285.457C1143.4 285.788 1138.48 286.266 1137.47 286.402L1120.54 288.67L1065.45 296.019C1063.64 296.251 1049.94 298.194 1049.33 298.02C1049.24 292.664 1050.13 287.157 1051.58 282.017C1053.92 273.746 1058.32 266.136 1064.75 260.395C1066.25 259.055 1067.91 257.691 1069.67 256.708C1074.08 260.914 1078.35 265.294 1082.67 269.596C1083.75 270.668 1086.26 273.486 1087.36 274.14C1087.47 274.209 1087.74 274.18 1087.86 274.14C1088.23 274.024 1088.46 273.617 1088.65 273.309C1089.9 271.212 1090.89 268.868 1092.03 266.696C1094.98 261.083 1097.88 255.446 1100.74 249.787Z" fill="#ACE5EC"/>
<path d="M1053.69 165.287C1054.54 163.054 1055.36 160.84 1056.49 158.724C1059.38 153.291 1064.15 148.31 1069.81 145.773C1073.84 143.969 1078.3 143.465 1082.48 145.067C1085.28 146.14 1087.61 147.964 1089.38 150.381C1092.22 148.065 1096.63 146.403 1100.32 146.777C1103.97 147.148 1107.1 149.24 1109.36 152.043C1115.88 160.108 1117.34 174.997 1118.42 185.065C1120.42 185.683 1121.93 187.002 1122.9 188.845C1122.98 188.987 1123.05 189.132 1123.12 189.278C1123.18 189.424 1123.25 189.572 1123.31 189.721C1123.37 189.871 1123.43 190.021 1123.48 190.174C1123.53 190.326 1123.58 190.479 1123.63 190.634C1123.67 190.788 1123.71 190.944 1123.75 191.1C1123.79 191.257 1123.82 191.414 1123.85 191.573C1123.88 191.731 1123.91 191.89 1123.93 192.049C1123.95 192.209 1123.97 192.369 1123.99 192.529C1124 192.69 1124.01 192.851 1124.02 193.011C1124.03 193.172 1124.03 193.333 1124.03 193.495C1124.03 193.656 1124.02 193.817 1124.01 193.978C1124 194.138 1123.99 194.299 1123.97 194.459C1123.96 194.619 1123.93 194.779 1123.91 194.938C1123.88 195.097 1123.86 195.256 1123.82 195.414C1123.79 195.571 1123.75 195.728 1123.71 195.884C1123.67 196.04 1123.63 196.195 1123.58 196.349C1123.45 196.773 1123.3 197.188 1123.11 197.59C1121.73 200.297 1119.67 202.408 1116.72 203.372C1115.51 203.767 1114.08 204.015 1112.8 203.965C1110.43 214.108 1104.98 222.749 1096.03 228.313C1087.26 233.754 1076.02 236.104 1065.89 233.74C1059.49 232.246 1054.08 228.589 1050.6 222.981C1049.71 221.557 1048.98 220.047 1048.26 218.534C1043.24 205.556 1044.6 191.231 1049.47 178.427C1045.33 176.186 1042.29 172.688 1040.93 168.139C1040.77 167.601 1040.63 167.054 1040.53 166.5C1042.5 164.59 1045.78 163.231 1048.5 163.277C1050.53 163.311 1052.16 163.971 1053.69 165.287Z" fill="#FE4B11"/>
<path d="M1049.47 178.428C1049.9 177.381 1051.69 172.682 1052.5 172.376C1053.17 172.125 1054.61 172.736 1055.37 172.788C1055.8 172.818 1056.22 172.836 1056.65 172.842C1057.08 172.848 1057.51 172.842 1057.94 172.824C1058.36 172.806 1058.79 172.777 1059.22 172.735C1059.64 172.693 1060.07 172.64 1060.49 172.574C1060.91 172.509 1061.34 172.432 1061.76 172.343C1062.17 172.254 1062.59 172.153 1063 172.041C1063.42 171.929 1063.83 171.806 1064.23 171.671C1064.64 171.536 1065.04 171.389 1065.44 171.232C1068.8 169.941 1071.87 168.091 1074.75 165.943C1079.8 162.176 1086.44 154.448 1093.41 157.943C1098.22 160.351 1102.66 167.396 1105.63 171.785C1106.33 172.814 1107.78 174.617 1108.11 175.703C1108.16 175.839 1108.11 176.047 1108.04 176.169C1107.91 176.42 1107.65 176.625 1107.38 176.699C1107.19 176.75 1106.99 176.738 1106.82 176.631C1106.16 176.217 1104.91 173.961 1104.41 173.203C1102.99 171.014 1101.51 168.91 1099.94 166.824C1097.42 163.479 1093.57 158.161 1088.77 158.922C1084.38 159.619 1080.48 163.818 1077.11 166.475C1070.68 171.549 1061.75 176.193 1053.32 174.252C1052.54 175.815 1051.86 177.442 1051.16 179.041C1050.54 180.518 1050.07 182.047 1049.6 183.577C1049.46 184.033 1049.32 184.491 1049.19 184.951C1049.06 185.411 1048.93 185.872 1048.81 186.335C1048.69 186.798 1048.58 187.262 1048.47 187.727C1048.36 188.193 1048.26 188.66 1048.16 189.128C1048.06 189.596 1047.97 190.066 1047.88 190.536C1047.8 191.007 1047.72 191.478 1047.65 191.951C1047.57 192.423 1047.5 192.897 1047.44 193.371C1047.38 193.845 1047.32 194.32 1047.27 194.796C1047.22 195.271 1047.18 195.747 1047.14 196.224C1047.1 196.701 1047.07 197.178 1047.04 197.655C1047.02 198.133 1047 198.611 1046.98 199.089C1046.97 199.567 1046.96 200.045 1046.96 200.523C1046.96 201.001 1046.96 201.479 1046.97 201.957C1046.98 202.436 1046.99 202.914 1047.02 203.391C1047.04 203.869 1047.06 204.346 1047.1 204.823C1047.13 205.3 1047.17 205.777 1047.22 206.253C1047.34 207.537 1047.37 209.133 1047.79 210.343C1048.03 212.727 1048.91 215.354 1049.83 217.56C1052.3 223.465 1056.42 228.313 1062.44 230.774C1071.07 234.305 1081.42 233.083 1089.84 229.523C1090.11 229.407 1090.38 229.289 1090.65 229.167C1090.92 229.045 1091.19 228.919 1091.46 228.791C1091.73 228.662 1091.99 228.53 1092.25 228.394C1092.52 228.259 1092.78 228.12 1093.04 227.978C1093.3 227.836 1093.56 227.691 1093.82 227.543C1094.07 227.394 1094.33 227.243 1094.58 227.088C1094.84 226.933 1095.09 226.775 1095.34 226.614C1095.59 226.453 1095.83 226.289 1096.08 226.122C1096.32 225.955 1096.57 225.785 1096.81 225.611C1097.05 225.438 1097.29 225.262 1097.52 225.083C1097.76 224.903 1097.99 224.721 1098.22 224.536C1098.46 224.351 1098.69 224.163 1098.91 223.973C1099.14 223.782 1099.37 223.588 1099.59 223.392C1099.81 223.195 1100.03 222.996 1100.25 222.794C1100.46 222.592 1100.68 222.388 1100.89 222.181C1101.1 221.973 1101.31 221.764 1101.52 221.551C1101.73 221.339 1101.93 221.124 1102.13 220.906C1102.34 220.688 1102.53 220.468 1102.73 220.246C1102.93 220.023 1103.12 219.798 1103.31 219.571C1103.5 219.344 1103.69 219.114 1103.87 218.882C1104.06 218.65 1104.24 218.416 1104.42 218.179C1104.6 217.942 1104.77 217.704 1104.95 217.463C1105.12 217.222 1105.29 216.979 1105.46 216.733C1105.62 216.488 1105.79 216.241 1105.95 215.992C1106.11 215.742 1106.27 215.491 1106.42 215.238C1106.58 214.985 1106.73 214.729 1106.88 214.472C1107.02 214.215 1107.17 213.957 1107.31 213.696C1107.45 213.435 1107.59 213.173 1107.72 212.909C1107.86 212.645 1107.99 212.379 1108.12 212.112C1108.25 211.844 1108.37 211.575 1108.5 211.305C1108.62 211.034 1108.74 210.762 1108.85 210.489C1108.97 210.215 1109.08 209.941 1109.19 209.664C1109.68 208.425 1110.17 207.152 1110.5 205.861C1110.76 204.889 1110.81 203.612 1111.24 202.723C1111.36 202.461 1111.6 202.358 1111.87 202.286C1113.21 201.928 1114.74 202.201 1116.2 201.668C1118.5 200.828 1120.31 199.254 1121.36 197.024C1122.3 195.02 1122.5 192.722 1121.73 190.631C1121.18 189.148 1120.21 187.826 1118.75 187.156C1117.31 186.668 1115.96 186.489 1114.54 187.174C1113.18 187.83 1112.36 189.027 1111.61 190.28C1111.26 190.418 1110.94 190.43 1110.58 190.407C1110.21 190.032 1110.11 189.818 1110.08 189.289C1110.29 189.02 1110.43 188.664 1110.62 188.374C1110.77 188.139 1110.93 187.913 1111.1 187.695C1111.28 187.477 1111.46 187.267 1111.65 187.067C1111.85 186.867 1112.05 186.677 1112.26 186.497C1112.47 186.317 1112.69 186.149 1112.92 185.991C1114.63 184.834 1116.44 184.694 1118.42 185.066C1120.42 185.684 1121.93 187.003 1122.9 188.846C1122.98 188.988 1123.05 189.133 1123.12 189.279C1123.18 189.425 1123.25 189.573 1123.31 189.722C1123.37 189.872 1123.42 190.022 1123.48 190.175C1123.53 190.327 1123.58 190.48 1123.63 190.635C1123.67 190.789 1123.71 190.945 1123.75 191.101C1123.79 191.258 1123.82 191.415 1123.85 191.574C1123.88 191.732 1123.91 191.891 1123.93 192.05C1123.95 192.21 1123.97 192.37 1123.99 192.53C1124 192.691 1124.01 192.852 1124.02 193.012C1124.03 193.173 1124.03 193.334 1124.03 193.496C1124.03 193.657 1124.02 193.818 1124.01 193.979C1124 194.139 1123.99 194.3 1123.97 194.46C1123.95 194.62 1123.93 194.78 1123.91 194.939C1123.88 195.098 1123.86 195.257 1123.82 195.415C1123.79 195.572 1123.75 195.729 1123.71 195.885C1123.67 196.041 1123.63 196.196 1123.58 196.35C1123.45 196.774 1123.3 197.189 1123.11 197.591C1121.73 200.298 1119.67 202.409 1116.72 203.373C1115.51 203.768 1114.08 204.016 1112.8 203.966C1110.43 214.109 1104.98 222.75 1096.02 228.314C1087.26 233.755 1076.02 236.105 1065.89 233.741C1059.48 232.247 1054.08 228.59 1050.6 222.982C1049.71 221.558 1048.98 220.048 1048.26 218.535C1043.24 205.557 1044.6 191.232 1049.47 178.428Z" fill="black"/>
<path d="M1111.61 190.279C1112.36 189.026 1113.19 187.829 1114.54 187.173C1115.96 186.489 1117.31 186.668 1118.75 187.156C1120.21 187.825 1121.18 189.147 1121.73 190.63C1122.5 192.722 1122.3 195.02 1121.36 197.023C1120.32 199.253 1118.5 200.827 1116.2 201.667C1114.74 202.201 1113.21 201.928 1111.87 202.285C1111.6 202.357 1111.36 202.461 1111.24 202.723C1110.81 203.612 1110.76 204.888 1110.5 205.86C1110.17 207.151 1109.68 208.425 1109.19 209.664C1109.08 209.94 1108.97 210.215 1108.85 210.488C1108.74 210.762 1108.62 211.034 1108.5 211.304C1108.37 211.575 1108.25 211.844 1108.12 212.111C1107.99 212.378 1107.86 212.644 1107.73 212.908C1107.59 213.172 1107.45 213.435 1107.31 213.695C1107.17 213.956 1107.02 214.215 1106.88 214.472C1106.73 214.729 1106.58 214.984 1106.42 215.237C1106.27 215.49 1106.11 215.742 1105.95 215.991C1105.79 216.24 1105.62 216.488 1105.46 216.733C1105.29 216.978 1105.12 217.221 1104.95 217.462C1104.77 217.703 1104.6 217.942 1104.42 218.178C1104.24 218.415 1104.06 218.649 1103.87 218.881C1103.69 219.113 1103.5 219.343 1103.31 219.57C1103.12 219.798 1102.93 220.023 1102.73 220.245C1102.53 220.468 1102.34 220.688 1102.13 220.905C1101.93 221.123 1101.73 221.338 1101.52 221.55C1101.31 221.763 1101.1 221.973 1100.89 222.18C1100.68 222.387 1100.46 222.592 1100.25 222.794C1100.03 222.996 1099.81 223.195 1099.59 223.391C1099.37 223.588 1099.14 223.781 1098.91 223.972C1098.69 224.163 1098.46 224.351 1098.22 224.536C1097.99 224.721 1097.76 224.903 1097.52 225.082C1097.29 225.261 1097.05 225.437 1096.81 225.611C1096.57 225.784 1096.32 225.954 1096.08 226.121C1095.83 226.289 1095.59 226.453 1095.34 226.614C1095.09 226.775 1094.84 226.933 1094.58 227.087C1094.33 227.242 1094.07 227.394 1093.82 227.542C1093.56 227.69 1093.3 227.836 1093.04 227.978C1092.78 228.12 1092.52 228.258 1092.26 228.394C1091.99 228.529 1091.73 228.661 1091.46 228.79C1091.19 228.919 1090.92 229.044 1090.65 229.166C1090.38 229.288 1090.11 229.407 1089.84 229.522C1081.43 233.082 1071.08 234.304 1062.44 230.773C1056.42 228.312 1052.3 223.464 1049.83 217.56C1048.91 215.353 1048.03 212.727 1047.79 210.342C1048.35 211.074 1048.45 212.548 1048.79 213.442C1049.84 216.22 1051.99 219.828 1054.03 222.003C1058.68 226.961 1064.41 229.076 1071.13 229.275C1080.73 229.558 1090.46 225.683 1097.4 219.103C1097.72 218.801 1098.04 218.494 1098.35 218.183C1098.67 217.871 1098.97 217.555 1099.28 217.234C1099.58 216.913 1099.88 216.587 1100.17 216.257C1100.46 215.927 1100.75 215.592 1101.03 215.254C1101.31 214.915 1101.59 214.571 1101.86 214.224C1102.14 213.876 1102.4 213.525 1102.66 213.169C1102.92 212.814 1103.18 212.454 1103.43 212.091C1103.68 211.727 1103.92 211.36 1104.16 210.989C1104.4 210.618 1104.63 210.243 1104.86 209.865C1105.09 209.487 1105.31 209.106 1105.53 208.721C1105.74 208.336 1105.95 207.948 1106.15 207.556C1106.36 207.165 1106.56 206.771 1106.75 206.373C1106.94 205.976 1107.12 205.576 1107.3 205.172C1107.48 204.769 1107.66 204.364 1107.82 203.955C1107.99 203.547 1108.15 203.136 1108.3 202.723C1108.46 202.309 1108.61 201.894 1108.75 201.476C1109.31 199.845 1109.83 198.187 1110.14 196.485C1110.5 194.433 1110.52 192.474 1110.58 190.406C1110.94 190.429 1111.26 190.418 1111.61 190.279Z" fill="#FEA6D0"/>
<path d="M1051.16 179.04C1052.27 179.394 1053.37 179.74 1054.52 179.942C1061.2 181.115 1068.12 179.079 1074.02 176.019C1074.62 175.704 1075.22 175.375 1075.81 175.034C1076.4 174.693 1076.98 174.338 1077.55 173.971C1078.12 173.604 1078.69 173.225 1079.24 172.833C1079.8 172.442 1080.34 172.038 1080.88 171.622C1081.42 171.206 1081.95 170.779 1082.47 170.339C1082.99 169.9 1083.5 169.45 1084 168.989C1084.5 168.527 1084.99 168.055 1085.47 167.572C1085.94 167.089 1086.41 166.596 1086.87 166.092C1087.78 165.09 1089.79 162.279 1090.64 161.718C1091.47 162.137 1094.51 167.38 1095.29 168.601C1097.88 172.612 1100.51 176.592 1103.19 180.539C1104.6 182.607 1105.96 184.748 1107.51 186.715C1108.03 187.379 1108.65 188.023 1109.27 188.596C1109.52 188.82 1109.88 189.039 1110.08 189.289C1110.11 189.818 1110.21 190.031 1110.58 190.406C1110.52 192.474 1110.5 194.433 1110.14 196.485C1109.83 198.186 1109.31 199.845 1108.75 201.476C1108.61 201.893 1108.46 202.309 1108.3 202.722C1108.15 203.136 1107.99 203.547 1107.82 203.955C1107.66 204.363 1107.48 204.769 1107.3 205.172C1107.12 205.575 1106.94 205.976 1106.75 206.373C1106.56 206.77 1106.36 207.165 1106.15 207.556C1105.95 207.947 1105.74 208.336 1105.53 208.72C1105.31 209.105 1105.09 209.487 1104.86 209.865C1104.63 210.243 1104.4 210.618 1104.16 210.989C1103.92 211.36 1103.68 211.727 1103.43 212.09C1103.18 212.454 1102.92 212.813 1102.66 213.169C1102.4 213.525 1102.14 213.876 1101.86 214.224C1101.59 214.571 1101.31 214.914 1101.03 215.253C1100.75 215.592 1100.46 215.927 1100.17 216.257C1099.88 216.587 1099.58 216.913 1099.28 217.234C1098.97 217.554 1098.67 217.871 1098.35 218.182C1098.04 218.494 1097.72 218.801 1097.4 219.102C1090.46 225.682 1080.73 229.558 1071.13 229.274C1064.41 229.076 1058.68 226.96 1054.03 222.002C1051.99 219.828 1049.84 216.22 1048.79 213.441C1048.45 212.548 1048.35 211.074 1047.79 210.342C1047.37 209.132 1047.34 207.536 1047.22 206.252C1047.17 205.776 1047.13 205.3 1047.1 204.823C1047.07 204.345 1047.04 203.868 1047.02 203.39C1046.99 202.913 1046.98 202.435 1046.97 201.957C1046.96 201.478 1046.96 201 1046.96 200.522C1046.96 200.044 1046.97 199.566 1046.98 199.088C1047 198.61 1047.02 198.132 1047.05 197.654C1047.07 197.177 1047.1 196.7 1047.14 196.223C1047.18 195.746 1047.22 195.27 1047.27 194.795C1047.32 194.319 1047.38 193.844 1047.44 193.37C1047.5 192.896 1047.57 192.423 1047.65 191.95C1047.72 191.478 1047.8 191.006 1047.88 190.536C1047.97 190.065 1048.06 189.596 1048.16 189.127C1048.26 188.659 1048.36 188.192 1048.47 187.727C1048.58 187.261 1048.69 186.797 1048.81 186.334C1048.93 185.871 1049.06 185.41 1049.19 184.95C1049.32 184.49 1049.46 184.033 1049.6 183.576C1050.07 182.046 1050.54 180.517 1051.16 179.04Z" fill="#FDFDFD"/>
<path d="M1083.63 214.607C1083.94 214.583 1084.24 214.541 1084.5 214.748C1084.69 214.906 1084.77 215.125 1084.78 215.37C1084.85 216.473 1083.96 217.789 1083.29 218.594C1081.83 220.323 1079.79 221.293 1077.55 221.474C1075.18 221.666 1073.23 220.85 1071.45 219.325C1071.18 219.052 1070.86 218.763 1070.74 218.386C1070.62 217.97 1070.56 217.589 1070.77 217.192C1071.11 216.946 1071.55 217.013 1071.9 217.205C1072.29 217.413 1072.6 217.848 1072.91 218.153C1073.86 219.092 1075.24 219.586 1076.55 219.663C1078.85 219.799 1081.28 218.828 1082.4 216.728C1082.74 216.105 1083.05 215.098 1083.58 214.648C1083.6 214.634 1083.62 214.621 1083.63 214.607Z" fill="black"/>
<path d="M1055.84 194.049C1054.72 194.814 1053.98 196.665 1052.93 197.234C1052.7 197.358 1052.44 197.437 1052.19 197.353C1052.02 197.299 1051.89 197.185 1051.82 197.025C1051.66 196.66 1051.75 196.225 1051.91 195.876C1052.15 195.344 1052.58 194.915 1052.96 194.476C1054.54 192.655 1056.24 191.146 1058.54 190.285C1060.4 189.589 1062.31 189.597 1064.11 190.448C1065.52 191.109 1067.14 192.746 1067.63 194.231C1067.72 194.493 1067.76 194.787 1067.6 195.033C1067.48 195.237 1067.25 195.329 1067.03 195.381C1066.23 195.565 1065.09 193.554 1064.59 192.992C1064.27 192.629 1063.92 192.367 1063.5 192.118C1062.06 191.446 1060.62 191.45 1059.13 192.004C1057.89 192.463 1056.85 193.212 1055.84 194.049Z" fill="black"/>
<path d="M1087.88 190.362C1086.57 191.184 1086.05 192.597 1084.99 193.607C1084.87 193.725 1084.72 193.811 1084.55 193.833C1084.28 193.867 1084.02 193.771 1083.82 193.6C1083.62 193.431 1083.48 193.158 1083.49 192.891C1083.51 192.109 1084.79 190.741 1085.32 190.201C1087.53 187.923 1090.74 186.363 1093.94 186.333C1095.65 186.317 1097.65 186.6 1098.92 187.858C1099.54 188.481 1100.36 189.749 1100.32 190.669C1100.31 190.906 1100.22 191.145 1100.04 191.3C1099.81 191.488 1099.58 191.542 1099.3 191.523C1098.56 191.195 1098.32 190.095 1097.82 189.486C1097.06 188.568 1096.03 188.273 1094.89 188.157C1092.32 188.106 1089.95 188.816 1087.88 190.362Z" fill="black"/>
<path d="M1056.75 204.916C1057.71 204.77 1058.65 205.042 1059.43 205.621C1060.33 206.297 1060.93 207.369 1061.08 208.482C1061.25 209.653 1060.9 210.819 1060.18 211.747C1059.26 212.923 1057.99 213.492 1056.53 213.658C1055.56 213.711 1054.58 213.543 1053.74 213.033C1052.92 212.54 1052.37 211.767 1052.16 210.841C1051.89 209.674 1052.16 208.475 1052.81 207.479C1053.74 206.051 1055.11 205.262 1056.75 204.916Z" fill="#FE4B11"/>
<path d="M1096.06 200.949C1097.17 200.73 1098.17 200.825 1099.16 201.417C1100.1 201.98 1100.76 202.867 1101.01 203.937C1101.34 205.305 1101.2 206.88 1100.44 208.086C1099.65 209.329 1098.49 209.826 1097.11 210.149C1096.17 210.284 1095.23 210.203 1094.36 209.798C1094.3 209.771 1094.24 209.742 1094.19 209.711C1094.13 209.681 1094.07 209.649 1094.01 209.616C1093.96 209.583 1093.9 209.548 1093.85 209.512C1093.79 209.476 1093.74 209.439 1093.69 209.401C1093.64 209.362 1093.58 209.322 1093.53 209.281C1093.48 209.24 1093.43 209.198 1093.38 209.154C1093.34 209.111 1093.29 209.066 1093.24 209.02C1093.2 208.974 1093.15 208.927 1093.11 208.879C1093.06 208.831 1093.02 208.782 1092.98 208.731C1092.94 208.681 1092.9 208.63 1092.86 208.578C1092.82 208.525 1092.78 208.472 1092.74 208.418C1092.71 208.364 1092.67 208.309 1092.64 208.253C1092.6 208.197 1092.57 208.141 1092.54 208.083C1092.51 208.026 1092.48 207.968 1092.45 207.909C1092.42 207.85 1092.4 207.79 1092.37 207.73C1092.35 207.67 1092.32 207.609 1092.3 207.548C1091.87 206.335 1092.02 204.872 1092.58 203.724C1093.29 202.253 1094.56 201.467 1096.06 200.949Z" fill="#FE4B11"/>
<path d="M1087.88 190.362C1089.95 188.816 1092.32 188.107 1094.89 188.158C1096.23 189.45 1096.86 190.915 1096.88 192.788C1096.9 194.302 1096.43 195.789 1095.36 196.887C1094.53 197.736 1093.5 198.164 1092.32 198.173C1091.12 198.183 1089.96 197.747 1089.11 196.905C1088.07 195.885 1087.58 194.409 1087.59 192.978C1087.59 192.191 1087.71 191.358 1087.87 190.587C1087.89 190.452 1087.89 190.511 1087.88 190.362Z" fill="#ACE5EC"/>
<path d="M1091.92 190.256C1092.09 190.248 1092.28 190.236 1092.45 190.264C1092.79 190.319 1093.06 190.528 1093.24 190.817C1093.73 191.601 1093.89 193.423 1093.64 194.313C1093.53 194.733 1093.3 194.886 1092.94 195.092C1092.69 195.12 1092.38 195.146 1092.13 195.074C1091.79 194.976 1091.59 194.687 1091.45 194.384C1091.09 193.626 1090.85 191.687 1091.17 190.904C1091.32 190.548 1091.58 190.405 1091.92 190.256Z" fill="black"/>
<path d="M1055.84 194.049C1056.85 193.212 1057.89 192.463 1059.13 192.004C1060.62 191.451 1062.06 191.446 1063.5 192.119C1063.5 192.149 1063.49 192.18 1063.49 192.211C1063.45 192.542 1063.96 193.373 1064.09 193.724C1064.93 195.93 1065.47 199.18 1063.48 200.948C1062.54 201.776 1061.24 202.103 1060.01 202.012C1059.93 202.006 1059.85 201.998 1059.78 201.989C1059.7 201.979 1059.62 201.968 1059.55 201.954C1059.47 201.941 1059.4 201.926 1059.32 201.909C1059.25 201.891 1059.17 201.873 1059.1 201.852C1059.02 201.831 1058.95 201.809 1058.88 201.785C1058.8 201.76 1058.73 201.734 1058.66 201.706C1058.59 201.678 1058.52 201.649 1058.44 201.618C1058.37 201.586 1058.3 201.553 1058.24 201.518C1058.17 201.484 1058.1 201.447 1058.03 201.409C1057.97 201.371 1057.9 201.332 1057.83 201.29C1057.77 201.249 1057.7 201.206 1057.64 201.162C1057.58 201.117 1057.52 201.071 1057.46 201.024C1057.4 200.977 1057.34 200.928 1057.28 200.877C1057.22 200.827 1057.16 200.775 1057.11 200.722C1057.05 200.669 1057 200.615 1056.94 200.559C1056.89 200.503 1056.84 200.446 1056.79 200.388C1055.7 199.116 1055.46 197.475 1055.61 195.857C1055.66 195.274 1055.85 194.617 1055.84 194.049Z" fill="#ACE5EC"/>
<path d="M1059.49 193.796C1059.75 193.727 1060.03 193.674 1060.3 193.689C1060.64 193.709 1060.92 193.89 1061.13 194.15C1061.72 194.877 1061.87 196.826 1061.73 197.731C1061.65 198.193 1061.47 198.38 1061.1 198.642C1060.86 198.71 1060.6 198.762 1060.35 198.763C1059.99 198.764 1059.72 198.622 1059.48 198.356C1058.87 197.653 1058.77 195.886 1058.85 194.979C1058.9 194.413 1059.08 194.149 1059.49 193.796Z" fill="black"/>
<path d="M1060.6 182.112C1060.73 182.09 1060.87 182.071 1061.01 182.056C1063.78 181.755 1066.47 182.141 1068.69 183.95C1074.02 188.286 1072.59 196.014 1072.49 202.053C1072.46 203.574 1072.48 205.095 1072.55 206.614C1072.62 208.134 1072.73 209.651 1072.9 211.163C1073.17 211.169 1073.45 211.167 1073.72 211.158C1074 211.149 1074.27 211.132 1074.55 211.107C1074.82 211.082 1075.1 211.05 1075.37 211.011C1075.64 210.971 1075.92 210.924 1076.19 210.87C1076.46 210.815 1076.73 210.753 1076.99 210.684C1077.26 210.615 1077.52 210.538 1077.79 210.454C1078.05 210.37 1078.31 210.279 1078.57 210.181C1078.83 210.083 1079.08 209.977 1079.33 209.865C1078.29 206.131 1078.01 195.527 1078.52 191.749C1078.74 190.097 1079.18 188.393 1079.93 186.899C1081.1 184.547 1083.11 182.736 1085.62 181.918C1088.97 180.832 1093.01 180.728 1096.47 181.191C1096.97 181.258 1097.71 181.285 1098.13 181.529C1098.34 181.652 1098.48 181.818 1098.54 182.059C1098.6 182.319 1098.54 182.614 1098.39 182.834C1098.2 183.11 1097.94 183.157 1097.62 183.171C1096.71 183.212 1095.71 182.957 1094.8 182.884C1092.33 182.688 1089.94 182.799 1087.52 183.308C1086.11 183.674 1084.77 184.137 1083.62 185.069C1082.06 186.339 1081.16 188.208 1080.67 190.124C1079.55 194.456 1080.11 201.769 1080.58 206.315C1080.68 207.242 1081.21 209.952 1081.12 210.587C1081.08 210.895 1080.92 211.061 1080.67 211.237C1079.17 212.297 1073.66 213.381 1071.85 212.953C1071.08 212.77 1071.11 211.11 1071.05 210.461C1070.8 208.036 1070.69 205.605 1070.72 203.167C1070.76 198.632 1071.69 191.639 1069.52 187.666C1069.46 187.556 1069.39 187.448 1069.33 187.341C1069.26 187.234 1069.2 187.129 1069.13 187.025C1069.05 186.922 1068.98 186.82 1068.91 186.72C1068.83 186.621 1068.75 186.523 1068.67 186.427C1068.59 186.331 1068.51 186.237 1068.42 186.146C1068.34 186.054 1068.25 185.965 1068.16 185.877C1068.07 185.79 1067.98 185.705 1067.88 185.623C1067.79 185.54 1067.69 185.46 1067.59 185.382C1067.5 185.304 1067.4 185.229 1067.29 185.156C1067.19 185.083 1067.09 185.013 1066.98 184.946C1066.88 184.878 1066.77 184.813 1066.66 184.751C1066.55 184.689 1066.44 184.63 1066.33 184.573C1066.22 184.517 1066.11 184.463 1065.99 184.412C1065.88 184.361 1065.76 184.313 1065.64 184.268C1065.53 184.223 1065.41 184.181 1065.29 184.142C1065.17 184.102 1065.05 184.066 1064.93 184.033C1061.92 183.188 1058.29 184.249 1055.57 185.639C1054.59 186.142 1053.68 186.769 1052.71 187.289C1052.27 187.526 1052 187.583 1051.52 187.424C1051.22 187.325 1051.12 187.211 1051 186.944C1051.01 186.687 1051.08 186.519 1051.23 186.309C1052.67 184.327 1058.14 182.543 1060.6 182.112Z" fill="black"/>
<path d="M1147.07 312.228C1147.03 312.866 1147.11 313.845 1146.61 314.316C1146.42 314.496 1146.35 314.448 1146.1 314.462C1145.34 314.043 1145.06 313.228 1144.7 312.482C1143.05 309.327 1141.26 306.012 1140.08 302.656C1137.45 302.598 1132.74 303.611 1129.26 303.906C1128.3 303.988 1127.89 302.941 1128.6 302.296C1131.19 299.956 1134.84 296.95 1136.34 294.907C1130.42 281.991 1123.67 278.545 1141.47 286.413L1142.28 286.654C1143.42 286.568 1149.63 278.953 1151.4 277.823C1151.78 277.583 1151.97 277.494 1152.4 277.581C1152.68 278.061 1152.64 278.681 1152.59 279.218C1152.47 280.5 1152.06 281.8 1151.79 283.059C1151.2 285.846 1150.58 288.624 1149.92 291.394C1151.9 292.37 1153.98 293.197 1156.01 294.08C1156.83 294.456 1160.83 296.021 1161.19 296.685C1161.29 296.874 1161.22 296.923 1161.15 297.113C1160.08 298.077 1157.63 298.43 1156.22 298.864C1153.64 299.57 1151.04 300.299 1148.54 301.246C1147.68 304.75 1147.46 308.636 1147.07 312.228Z" fill="#FDA5CF"/>
<path d="M341.813 241.876C335.736 237.716 329.712 233.48 323.741 229.169C320.821 227.096 317.818 225.14 314.912 223.049L294.707 252.764C291.891 256.883 289.255 261.192 286.291 265.199L284.49 268.261C291.01 273.409 297.746 278.342 304.352 283.385L325.601 299.932C328.059 295.864 330.846 291.903 333.518 287.971L349.522 264.768C351.82 261.421 354.357 258.116 356.455 254.653C356.762 254.145 356.874 253.761 356.872 253.171C356.319 251.729 343.946 243.674 341.813 241.876Z" fill="#FFA7D1"/>
<path d="M332.221 243.728C331.788 243.546 331.213 243.278 330.736 243.382C330.248 243.488 329.947 243.82 329.643 244.193C328.652 245.408 327.897 246.93 327.051 248.259C325.059 251.387 323.066 254.539 320.926 257.569C320.491 254.178 320.348 250.737 319.979 247.335C319.837 246.031 319.648 244.149 318.527 243.291C318.21 243.049 317.821 242.943 317.424 243.03C316.932 243.137 316.486 243.426 316.225 243.862C315.641 244.839 317.37 258.265 317.753 260.166C315.927 258.971 307.492 253.126 305.983 253.324C305.487 253.389 305.091 253.643 304.801 254.047C304.515 254.444 304.428 254.923 304.529 255.4C304.614 255.796 304.808 256.089 305.112 256.356C306.371 257.461 308.122 258.283 309.549 259.199C311.306 260.326 312.974 261.589 314.729 262.726C312.322 263.245 302.623 264.917 301.265 266.07C300.768 266.493 300.603 267.199 300.563 267.817C300.736 268.265 300.822 268.519 301.267 268.75C303.432 269.876 312.739 266.896 315.44 266.178C314.064 268.487 309.973 273.907 309.603 276.177C309.495 276.835 309.623 277.135 309.983 277.645C310.248 277.756 310.493 277.869 310.786 277.876C311.742 277.9 312.284 277.738 312.987 277.134C315.228 274.049 317.121 270.697 319.02 267.395C319.645 270.767 320.131 274.238 320.552 277.643C320.716 278.978 320.699 280.426 321.001 281.732C321.145 282.36 321.379 282.978 321.769 283.497C322.221 284.099 322.704 284.378 323.441 284.484C323.783 284.358 323.956 284.342 324.175 284.05C325.543 282.227 323.344 271.55 322.944 268.823C324.645 270.279 329.8 275.909 331.598 276.163C332.246 276.254 332.737 276.028 333.209 275.592C333.515 275.309 333.703 274.947 333.698 274.53C333.69 273.902 333.376 273.425 332.994 272.949C332.289 272.071 331.304 271.357 330.493 270.569C328.354 268.491 326.249 266.38 324.067 264.346C326.505 263.347 337.7 261.239 338.705 259.915C339.013 259.511 339.153 259.015 339.059 258.512C338.967 258.018 338.675 257.604 338.234 257.358C336.673 256.486 325.581 259.781 323.437 260.323C325.254 257.385 332.378 247.978 332.864 245.403C332.99 244.738 332.574 244.253 332.221 243.728Z" fill="black"/>
<path d="M786.466 60.4241C787.189 61.1054 787.626 61.891 787.37 62.8783C787.157 63.8279 786.436 64.5488 785.504 64.7372C784.936 64.8658 784.377 64.8346 783.611 64.9121C783.693 65.5977 783.866 66.0881 783.839 66.5674C783.855 67.73 783.253 68.4577 782.228 68.8812C781.245 69.2671 780.424 68.9008 779.699 68.2594C779.357 67.9199 779.104 67.425 778.805 67.0478C778.47 66.5884 778.346 65.9405 777.6 65.6585C776.888 66.2197 776.093 66.8164 775.337 67.4553C774.793 67.8656 774.249 68.276 773.564 68.3579C772.554 68.5019 771.727 68.2555 771.134 67.3811C770.54 66.5467 770.629 65.6703 771.039 64.7718C771.357 64.1085 772.253 63.838 772.342 62.9615C771.69 62.4444 770.878 62.6395 770.212 62.362C769.314 61.9513 768.626 61.3521 768.522 60.3448C768.323 58.8914 769.268 57.7423 770.761 57.5451C771.487 57.4654 772.266 57.8694 773.011 57.4302C772.916 56.9842 772.863 56.5005 772.81 56.0168C772.763 54.6922 773.329 53.8824 774.472 53.5055C775.413 53.1573 776.398 53.4526 777.148 54.3758C777.558 54.9195 777.926 55.5009 778.215 56.0779C779.166 57.6934 779.202 57.7755 780.76 56.4201C781.303 56.0098 781.809 55.5572 782.351 55.1868C782.768 54.8896 783.261 54.6767 783.742 54.6635C785.633 54.5285 786.935 56.3238 786.158 58.0432C785.929 58.5513 785.505 58.9683 785.117 59.4675C785.363 60.0821 786.046 60.0401 786.466 60.4241ZM795.143 70.4829C796.073 70.3345 797.806 70.1507 798.139 69.2078C798.185 69.0902 798.19 69.0103 798.197 68.8905C798.168 67.9675 796.635 67.4413 796.517 67.3946C795.341 66.9284 794.21 66.3846 793.125 65.7232C788.593 62.9464 789.213 58.2938 791.485 55.6162C794.06 52.5548 797.411 51.3795 801.32 51.6777C802.119 51.7222 802.94 52.0885 803.681 52.4504C804.768 53.0719 805.178 54.3367 804.832 55.5192C804.487 56.6618 803.449 57.325 802.091 57.2493C801.252 57.2025 800.855 57.1403 800.101 57.0181C799.464 56.9425 796.759 56.5914 795.643 57.9313C795.428 58.1997 795.073 58.8209 795.128 59.9858C795.321 60.8378 795.902 61.1907 796.527 61.466C797.581 61.9655 798.677 62.4272 799.689 62.9644C800.698 63.5415 801.748 64.1208 802.586 64.8887C804.718 66.8905 804.873 69.8638 803.024 72.1243C802.119 73.2757 800.953 74.052 799.638 74.6597C797.787 75.5179 795.841 75.9302 793.826 76.1384C792.455 76.3022 791.257 75.5143 790.882 74.3316C790.399 72.9425 791.16 71.5027 792.711 70.9883C793.077 70.8885 793.404 70.7865 793.728 70.7245C794.378 70.5604 794.739 70.5405 795.143 70.4829ZM814.059 56.795C813.371 56.9169 812.962 61.381 813.348 61.6429C813.732 61.9448 814.777 61.8829 815.575 61.9274C817.126 62.1341 819.647 62.1946 820.299 62.7117C821.186 63.3221 821.519 63.8214 821.579 64.9064C821.33 68.6583 813.653 66.9482 813.149 67.3608C812.814 67.6225 812.74 68.9405 812.645 69.9367C812.496 71.1703 811.783 73.1737 812.666 73.1428C816.798 73.0528 819.045 73.6989 819.178 74.9082C819.484 75.8868 819.02 77.0227 818.381 77.7082C817.231 78.926 815.15 78.169 810.906 78.1325C808.021 78.1319 807.05 75.4336 807.233 72.8798C807.695 66.7361 808.001 60.5435 808.586 54.3665C808.934 52.4229 809.824 51.5511 811.79 51.5005C814.59 51.5765 817.528 51.3397 820.304 51.8551C822.946 52.6034 822.608 56.5106 819.903 56.8806C817.975 56.9734 814.747 56.6731 814.059 56.795ZM831.025 57.7413C830.337 57.8631 829.928 62.3273 830.314 62.5892C830.697 62.891 831.742 62.8291 832.541 62.8737C834.092 63.0804 836.613 63.1408 837.265 63.6579C838.152 64.2683 838.485 64.7676 838.545 65.8526C838.295 69.6045 830.619 67.8944 830.115 68.307C829.78 68.5687 829.706 69.8867 829.611 70.8829C829.462 72.1165 828.749 74.1199 829.632 74.0891C833.764 73.999 836.011 74.6452 836.144 75.8544C836.45 76.833 835.986 77.9689 835.347 78.6544C834.197 79.8723 832.116 79.1152 827.872 79.0788C824.987 79.0782 824.016 76.3799 824.198 73.8261C824.661 67.6823 824.967 61.4897 825.551 55.3127C825.9 53.3691 826.79 52.4973 828.756 52.4467C831.556 52.5227 834.494 52.286 837.269 52.8013C839.912 53.5496 839.574 57.4569 836.869 57.8268C834.941 57.9196 831.713 57.6194 831.025 57.7413ZM871.391 78.341C870.9 77.0718 870.827 76.2264 870.384 74.8396L861.216 74.7289C860.213 76.1953 859.318 77.868 858.009 79.077C855.863 80.9204 852.644 78.297 853.905 75.8034C857.183 70.1772 860.191 64.3757 863.74 58.9249C864.264 58.1528 864.905 57.4274 865.622 56.7864C869.665 53.246 872.618 57.0564 873.309 61.1813C874.373 66.5288 875.838 71.8587 876.538 77.266C876.542 80.0706 872.568 80.9306 871.391 78.341ZM867.764 62.9152C866.452 64.8852 865.296 66.944 864.255 69.0893C866.176 69.1164 867.601 69.4362 869.145 69.0416C869.021 66.9514 868.576 64.8834 867.764 62.9152ZM885.131 71.4956C885.255 73.5857 885.343 74.1515 885.696 74.2914C886.639 74.6244 888.532 71.5651 890.949 67.7337C892.705 64.9872 894.616 62.3295 896.68 59.8006C896.853 59.5698 897.064 59.3813 897.275 59.1927C897.61 58.931 898.322 58.3698 899.281 58.4232C899.798 58.4921 900.308 58.6808 900.69 59.0226C901.803 59.886 902.005 61.2994 901.21 62.6172C900.99 62.9655 900.731 63.3116 900.433 63.6155C896.938 68.1078 893.402 72.5979 889.907 77.0902C889.219 77.9332 888.568 78.8184 887.767 79.5349C885.441 81.7287 882.755 81.0581 881.599 78.0691C881.318 77.3723 881.118 76.6401 880.998 75.9123C880.299 70.5049 879.599 65.0976 878.939 59.6924C878.907 59.5304 878.916 59.3707 878.925 59.2109C878.914 57.9684 879.733 56.9324 880.912 56.6376C881.928 56.3737 883.224 56.8466 883.727 57.8763C884.231 58.9059 884.459 59.8401 884.463 60.4813C884.498 64.169 884.974 67.8412 885.131 71.4956ZM913.942 80.7142C913.451 79.445 913.378 78.5996 912.935 77.2128L903.767 77.102C902.764 78.5685 901.869 80.2412 900.56 81.4502C898.414 83.2936 895.195 80.6702 896.456 78.1766C899.734 72.5504 902.742 66.7489 906.291 61.2981C906.815 60.526 907.456 59.8006 908.173 59.1596C912.216 55.6192 915.169 59.4295 915.86 63.5544C916.924 68.902 918.389 74.2319 919.089 79.6392C919.093 82.4438 915.119 83.3038 913.942 80.7142ZM910.315 65.2884C909.003 67.2584 907.847 69.3172 906.806 71.4625C908.727 71.4896 910.152 71.8094 911.696 71.4148C911.572 69.3246 911.127 67.2566 910.315 65.2884ZM922.19 82.5765C922.163 82.3346 922.177 82.095 922.148 81.8931C922.199 80.2534 922.286 78.6958 922.335 77.0961C922.607 71.5025 922.839 65.9067 923.151 60.3154C923.142 59.7541 923.296 59.1617 923.487 58.6115C923.897 57.7129 924.607 57.1917 925.652 57.1298C926.658 57.0657 927.394 57.5074 927.989 58.3418C928.47 59.0497 928.543 59.895 928.536 60.736C928.329 65.1713 928.124 69.5667 927.916 74.002C927.792 76.2386 927.705 78.5172 927.58 80.7538C927.538 81.5126 927.458 82.2292 927.295 82.9814C926.985 84.246 925.942 84.9891 924.741 84.9622C923.461 84.9309 922.434 83.9522 922.19 82.5765ZM939.414 60.0206C938.548 66.9431 937.024 73.4283 936.632 80.4574C939.676 80.4669 942.261 80.0903 945.23 80.0155C948.933 80.4223 948.025 85.2192 944.621 85.1896C928.184 86.1157 930.456 87.7648 932.272 71.721C932.803 67.9447 933.494 64.1774 934.107 60.3656C934.28 58.6927 935.568 57.162 937.387 57.5839C938.534 57.8482 939.359 58.8557 939.414 60.0206ZM967.101 83.6791C966.611 82.4098 966.538 81.5645 966.095 80.1776L956.926 80.0669C955.923 81.5333 955.029 83.2061 953.719 84.4151C951.573 86.2584 948.354 83.6351 949.615 81.1414C952.894 75.5153 955.901 69.7138 959.45 64.2629C959.974 63.4909 960.616 62.7655 961.332 62.1244C965.376 58.5841 968.328 62.3944 969.02 66.5193C970.084 71.8669 971.549 77.1967 972.249 82.6041C972.253 85.4087 968.279 86.2687 967.101 83.6791ZM963.475 68.2532C962.163 70.2232 961.006 72.282 959.965 74.4274C961.887 74.4544 963.311 74.7742 964.856 74.3796C964.732 72.2895 964.286 70.2215 963.475 68.2532ZM989.218 70.33C988.872 70.7914 988.49 71.1708 988.064 71.6278C988.561 72.0561 989.025 72.3624 989.444 72.7463C991.696 74.7548 992.225 77.4685 990.951 80.2018C990.267 81.6861 989.238 82.9106 987.977 83.9621C986.251 85.4682 984.233 86.4374 982.032 87.1159C981.052 87.4618 980.113 87.77 979.161 88.3179C977.466 89.2649 975.673 88.3637 975.423 86.3867C975.219 85.0132 975.255 83.6531 975.293 82.253C975.447 75.8918 976.32 69.5706 977.074 63.2427C977.301 61.3324 978.364 60.2299 980.268 59.8553C982.986 59.2457 985.573 59.5503 987.982 60.8865C988.761 61.2905 989.451 61.8498 990.054 62.5244C991.443 64.2044 991.775 66.1459 990.701 68.1692C990.297 68.9479 989.738 69.6379 989.218 70.33ZM980.959 75.4781C980.714 77.7079 980.361 79.7314 980.587 82.1477C982.504 81.5335 983.909 80.7705 985.054 79.6325C985.438 79.2133 985.782 78.7918 986.09 78.2882C986.578 77.434 986.335 76.7794 985.436 76.3688C984.029 75.7294 982.554 75.6071 980.959 75.4781ZM982.317 64.7771C981.87 66.3146 981.75 67.7501 981.603 69.6649C983.547 68.5715 985.083 67.6155 985.98 65.9028C984.922 64.7621 983.677 64.8129 982.317 64.7771ZM1002.21 63.5228C1001.34 70.4452 999.817 76.9305 999.425 83.9595C1002.47 83.9691 1005.05 83.5924 1008.02 83.5176C1011.73 83.9245 1010.82 88.7213 1007.41 88.6918C990.977 89.6179 993.249 91.2669 995.065 75.2232C995.596 71.4469 996.287 67.6795 996.9 63.8678C997.073 62.1948 998.361 60.6641 1000.18 61.0861C1001.33 61.3504 1002.15 62.3579 1002.21 63.5228ZM1019.4 68.2477C1018.72 68.3696 1018.31 72.8337 1018.69 73.0956C1019.08 73.3975 1020.12 73.3356 1020.92 73.3801C1022.47 73.5868 1024.99 73.6473 1025.64 74.1644C1026.53 74.7747 1026.86 75.274 1026.92 76.359C1026.67 80.111 1019 78.4008 1018.49 78.8134C1018.16 79.0752 1018.09 80.3931 1017.99 81.3894C1017.84 82.623 1017.13 84.6264 1018.01 84.5955C1022.14 84.5055 1024.39 85.1516 1024.52 86.3609C1024.83 87.3394 1024.37 88.4754 1023.73 89.1608C1022.58 90.3787 1020.5 89.6216 1016.25 89.5852C1013.37 89.5846 1012.4 86.8863 1012.58 84.3325C1013.04 78.1888 1013.35 71.9962 1013.93 65.8191C1014.28 63.8756 1015.17 63.0038 1017.14 62.9532C1019.94 63.0292 1022.87 62.7924 1025.65 63.3078C1028.29 64.0561 1027.95 67.9633 1025.25 68.3333C1023.32 68.4261 1020.09 68.1258 1019.4 68.2477ZM1034.69 83.8433C1035.62 83.6948 1037.36 83.511 1037.69 82.5681C1037.74 82.4505 1037.74 82.3707 1037.75 82.2509C1037.72 81.3278 1036.18 80.8016 1036.07 80.755C1034.89 80.2888 1033.76 79.745 1032.67 79.0835C1028.14 76.3068 1028.76 71.6541 1031.04 68.9765C1033.61 65.9151 1036.96 64.7399 1040.87 65.0381C1041.67 65.0826 1042.49 65.4489 1043.23 65.8107C1044.32 66.4322 1044.73 67.697 1044.38 68.8796C1044.04 70.0222 1043 70.6854 1041.64 70.6097C1040.8 70.5629 1040.4 70.5007 1039.65 70.3785C1039.01 70.3029 1036.31 69.9517 1035.19 71.2916C1034.98 71.5601 1034.62 72.1813 1034.68 73.3461C1034.87 74.1982 1035.45 74.5511 1036.08 74.8264C1037.13 75.3258 1038.23 75.7876 1039.24 76.3248C1040.25 76.9019 1041.3 77.4812 1042.14 78.2491C1044.27 80.2509 1044.42 83.2241 1042.57 85.4847C1041.67 86.6361 1040.5 87.4124 1039.19 88.02C1037.34 88.8783 1035.39 89.2906 1033.38 89.4987C1032 89.6626 1030.81 88.8747 1030.43 87.692C1029.95 86.3029 1030.71 84.8631 1032.26 84.3487C1032.63 84.2489 1032.95 84.1469 1033.28 84.0848C1033.93 83.9208 1034.29 83.9009 1034.69 83.8433ZM1063.22 75.8596C1063.95 76.541 1064.38 77.3265 1064.13 78.3138C1063.91 79.2634 1063.19 79.9844 1062.26 80.1728C1061.69 80.3013 1061.13 80.2702 1060.37 80.3477C1060.45 81.0333 1060.62 81.5237 1060.6 82.0029C1060.61 83.1656 1060.01 83.8932 1058.99 84.3168C1058 84.7027 1057.18 84.3364 1056.46 83.695C1056.11 83.3554 1055.86 82.8606 1055.56 82.4833C1055.23 82.024 1055.1 81.376 1054.36 81.0941C1053.65 81.6553 1052.85 82.252 1052.09 82.8908C1051.55 83.3012 1051.01 83.7115 1050.32 83.7935C1049.31 83.9375 1048.48 83.691 1047.89 82.8167C1047.3 81.9823 1047.39 81.1059 1047.8 80.2074C1048.11 79.544 1049.01 79.2735 1049.1 78.3971C1048.45 77.88 1047.64 78.0751 1046.97 77.7976C1046.07 77.3869 1045.38 76.7877 1045.28 75.7803C1045.08 74.327 1046.03 73.1778 1047.52 72.9807C1048.24 72.901 1049.02 73.3049 1049.77 72.8658C1049.67 72.4198 1049.62 71.9361 1049.57 71.4524C1049.52 70.1277 1050.09 69.318 1051.23 68.941C1052.17 68.5929 1053.16 68.8882 1053.91 69.8114C1054.32 70.3551 1054.68 70.9365 1054.97 71.5134C1055.92 73.1289 1055.96 73.211 1057.52 71.8557C1058.06 71.4453 1058.57 70.9928 1059.11 70.6224C1059.53 70.3252 1060.02 70.1123 1060.5 70.099C1062.39 69.9641 1063.69 71.7594 1062.92 73.4788C1062.69 73.9869 1062.26 74.4039 1061.87 74.903C1062.12 75.5177 1062.8 75.4757 1063.22 75.8596Z" fill="black"/>
</svg>
