<svg width="338" height="142" viewBox="0 0 338 142" fill="none" xmlns="http://www.w3.org/2000/svg">
<path d="M334.026 20.6346C333.872 20.5297 333.737 20.4607 333.546 20.4771C333.198 20.6406 331.166 23.4007 330.727 23.9409C330.449 23.5226 330.558 20.9847 330.273 20.234C330.208 20.0633 330.145 19.9533 329.976 19.8761C329.872 19.8766 329.803 19.8917 329.713 19.9473C329.599 20.0167 329.539 20.1221 329.508 20.2497C329.458 20.4586 329.735 23.7377 329.793 24.1214C329.808 24.2252 329.828 24.2939 329.88 24.3847C329.86 24.3803 329.841 24.3748 329.821 24.3705C329.419 24.2805 327.698 22.4165 327.165 22.0362C327.006 21.9229 326.719 21.7507 326.522 21.7949C326.436 21.8141 326.382 21.862 326.346 21.9418C326.299 22.0476 326.292 22.2449 326.339 22.3512C326.399 22.4863 328.994 24.8795 329.197 24.9495C328.653 25.2336 325.588 25.2925 324.754 25.422C324.491 25.4625 324.12 25.5781 323.976 25.8168C323.916 25.9162 323.918 25.9715 323.944 26.0796C324.038 26.1947 324.149 26.2666 324.292 26.3089C324.648 26.4145 329.127 25.9372 329.465 25.7694C328.616 26.8958 327.635 27.956 326.74 29.0489C326.458 29.3929 326.087 29.7633 325.872 30.1469C325.817 30.2458 325.801 30.2917 325.829 30.4006C325.83 30.4119 325.83 30.4226 325.831 30.4334C325.84 30.5681 325.88 30.6669 325.988 30.7531C326.063 30.8133 326.15 30.837 326.245 30.8241C326.347 30.8097 326.427 30.7578 326.501 30.6881C326.932 30.2845 327.31 29.7279 327.69 29.2697C328.448 28.356 329.26 27.4517 329.946 26.4836C329.91 26.8071 330.257 30.1829 330.381 30.4637C330.43 30.5768 330.534 30.6566 330.652 30.6895C330.759 30.7203 330.898 30.7104 330.991 30.6435C331.103 30.5628 331.134 30.4578 331.153 30.3273C331.193 30.0474 331.124 29.7121 331.092 29.432C331.013 28.7354 330.734 27.0267 330.794 26.4355C330.795 26.4212 330.798 26.4065 330.799 26.3923C330.945 26.7168 333.159 28.8327 333.447 28.9784C333.59 29.0505 333.684 29.0651 333.836 29.0151C333.908 28.9461 333.95 28.8998 333.979 28.8019C334.015 28.6823 334.019 28.591 333.967 28.4754C333.772 28.0396 332.403 26.8323 331.983 26.4431C331.764 26.2389 331.441 25.9948 331.298 25.7323C331.294 25.7231 331.289 25.7142 331.285 25.7051C331.376 25.7453 335.589 25.1267 335.886 25.0469C336.051 25.0023 336.305 24.9243 336.385 24.7624C336.427 24.6787 336.426 24.6051 336.384 24.5203C336.325 24.4032 336.188 24.2823 336.06 24.2477C335.403 24.0683 331.598 25.0155 331.189 24.8629C331.169 24.8554 331.15 24.8465 331.13 24.8383C331.795 23.959 332.489 23.0994 333.17 22.2322C333.463 21.8587 333.869 21.4438 334.074 21.0196C334.131 20.9027 334.063 20.753 334.026 20.6346Z" fill="black"/>
<path d="M310.481 2.50162C312.834 2.94248 315.193 3.35368 317.557 3.7352C318.704 3.93023 319.844 4.17073 320.993 4.35805L318.807 15.8369C318.507 17.4315 318.123 19.0284 317.883 20.6316L317.593 21.7498C314.911 21.4342 312.228 21.0198 309.55 20.6603L300.862 19.579C301.232 18.0785 301.502 16.5269 301.792 15.0083L303.446 5.993C303.687 4.69499 303.864 3.35162 304.178 2.07277C304.224 1.88551 304.287 1.77127 304.423 1.63616C304.881 1.43169 309.577 2.42468 310.481 2.50162Z" fill="#FFA7D1"/>
<path d="M312.261 5.13329C312.402 5.19105 312.595 5.26166 312.681 5.39514C312.769 5.53166 312.762 5.67737 312.746 5.83294C312.695 6.34046 312.518 6.86391 312.407 7.36396C312.146 8.54132 311.88 9.72453 311.675 10.9132C312.555 10.2335 313.379 9.47505 314.246 8.77783C314.578 8.51044 315.054 8.12126 315.509 8.18179C315.638 8.19891 315.751 8.26405 315.823 8.37523C315.911 8.5129 315.947 8.6821 315.907 8.84237C315.817 9.20102 312.333 11.891 311.808 12.2399C312.502 12.385 315.785 12.9806 316.086 13.3732C316.185 13.5022 316.218 13.6515 316.192 13.8111C316.166 13.9682 316.076 14.0984 315.943 14.1847C315.833 14.2564 315.721 14.2791 315.59 14.2706C315.046 14.2351 314.454 14.0217 313.916 13.904C313.253 13.7592 312.579 13.666 311.914 13.5241C312.348 14.1968 314.194 16.8114 314.241 17.3888C314.258 17.6004 314.133 17.8006 314 17.9519C313.858 18.0152 313.78 18.0538 313.624 18.0046C312.868 17.7656 311.413 14.9404 310.957 14.1542C310.743 15.0014 310.437 17.1885 310.001 17.7956C309.874 17.9717 309.776 18.0112 309.576 18.0457C309.489 18.0103 309.407 17.9799 309.338 17.9142C309.113 17.7 309.025 17.5381 309.003 17.2376C309.197 16.0128 309.532 14.8068 309.855 13.6107C308.936 14.2426 308.026 14.9288 307.146 15.6152C306.802 15.8841 306.473 16.2211 306.103 16.4521C305.926 16.5632 305.73 16.6517 305.521 16.6813C305.279 16.7157 305.103 16.6689 304.91 16.5237C304.86 16.416 304.824 16.3728 304.841 16.2553C304.946 15.5214 307.905 13.572 308.624 13.0371C307.898 12.9806 305.419 13.0898 304.947 12.7347C304.778 12.6068 304.717 12.4417 304.708 12.2329C304.703 12.0977 304.743 11.9711 304.84 11.8763C304.986 11.7337 305.168 11.6964 305.366 11.6747C305.729 11.6349 306.12 11.6973 306.488 11.7026C307.457 11.7166 308.426 11.7153 309.395 11.7494C309.064 10.9588 306.975 7.90002 307.049 7.36445C307.071 7.20073 307.153 7.05445 307.29 6.96041C307.425 6.86798 307.587 6.84005 307.745 6.88479C308.304 7.04315 310.097 10.3513 310.465 10.9691C310.723 9.87579 311.247 6.07434 311.727 5.37066C311.851 5.18881 312.059 5.1728 312.261 5.13329Z" fill="black"/>
<path d="M292.263 18.9455C293.189 19.6293 294.121 20.3058 295.059 20.9749C295.726 21.4603 296.405 22.0296 297.138 22.4073C298.276 22.9944 299.521 23.4407 300.696 23.9583C303.913 25.3762 320.019 32.295 320.494 35.299C320.51 35.4038 320.509 35.5061 320.506 35.6117C319.976 36.5844 319.406 37.5347 318.876 38.5068C316.956 41.9402 314.939 45.3264 312.97 48.7318L303.771 64.6206L303.024 65.9062C302.698 66.4777 301.569 68.7277 301.08 68.9128C300.906 68.9788 300.44 68.686 300.282 68.592C298.525 67.5479 296.792 66.4674 295.009 65.466C291.504 63.5096 287.928 61.6938 284.28 60.0185C282.952 59.4016 281.648 58.7513 280.295 58.1903C279.297 57.8149 278.02 57.3498 277.099 56.8347C276.151 56.3043 275.28 55.5791 274.401 54.9386L270.077 51.8172C267.689 50.0851 265.239 48.446 262.726 46.8999C261.595 46.1918 260.464 45.4451 259.286 44.8163C258.418 44.2131 255.083 42.6724 254.712 42.0942C254.704 41.8517 254.843 41.5715 254.955 41.3578C255.463 40.3858 256.056 39.4406 256.605 38.4893L259.858 32.8429L271.53 12.6655C272.209 11.4702 272.87 10.2425 273.597 9.07622C273.706 8.90122 273.872 8.60135 274.084 8.56096C274.43 8.4949 274.922 8.69062 275.255 8.78418C278.688 9.748 281.96 12.0302 284.93 13.9563C287.406 15.5623 289.877 17.2078 292.263 18.9455Z" fill="black"/>
<path d="M274.488 9.56C277.766 10.3001 280.719 12.3558 283.512 14.1483C286.344 15.982 289.136 17.8739 291.889 19.824C291.269 20.7167 290.569 21.4519 289.451 21.6548C288.91 21.753 288.409 21.6793 287.893 21.4969C287.461 21.3441 287.047 21.1099 286.638 20.9039L284.172 19.6303C280.113 17.5755 276.306 15.5352 272.42 13.1694C272.192 13.559 271.951 13.9454 271.739 14.3443L271.713 14.3671C271.899 13.8435 272.323 13.2996 272.609 12.8141C273.242 11.7333 273.868 10.6486 274.488 9.56Z" fill="#FEFDFD"/>
<path d="M271.738 14.3443C272.478 14.9329 273.004 15.7437 273.114 16.6936C273.178 17.2421 273.079 17.7287 272.865 18.2344C272.54 19.0036 272.077 19.7353 271.691 20.4767C270.498 22.7654 269.228 25.0103 267.987 27.2731C265.022 32.7293 262.024 38.168 258.995 43.5891C257.945 42.9773 256.879 42.3724 255.792 41.8291L271.712 14.367L271.738 14.3443Z" fill="#FEFDFD"/>
<path d="M291.889 19.8243C293.254 20.8004 294.612 21.7852 295.964 22.7787L292.758 28.3224C291.831 27.8161 290.667 27.3436 289.597 27.6535C289.059 27.8093 288.605 28.1361 288.336 28.6337C288.208 28.87 288.027 29.2921 288.098 29.5577C288.137 29.702 288.247 29.8315 288.383 29.8925C288.487 29.9389 288.598 29.9418 288.703 29.8964C288.856 29.8296 288.926 29.7022 288.971 29.5507C289.094 29.1424 289.135 28.8313 289.552 28.6027C290.056 28.3261 290.768 28.4582 291.291 28.6285C291.471 28.6874 291.648 28.7566 291.82 28.8362C291.992 28.9159 292.16 29.0054 292.322 29.1046L288.898 35.0318C287.96 34.5402 286.741 33.9531 285.661 34.2958C285.149 34.4584 284.706 34.8619 284.468 35.3407C284.355 35.5674 284.192 35.9382 284.287 36.1932C284.339 36.3341 284.468 36.4458 284.609 36.4916C284.713 36.5255 284.83 36.526 284.927 36.4698C285.407 36.1922 284.971 34.9008 286.612 35.1332C287.254 35.2242 287.903 35.501 288.468 35.8123L284.949 41.8884C284.001 41.3943 282.776 40.801 281.685 41.1524C281.16 41.3218 280.75 41.722 280.508 42.2123C280.386 42.46 280.241 42.8474 280.334 43.1257C280.369 43.228 280.44 43.3705 280.532 43.43C280.612 43.4816 280.683 43.4677 280.768 43.435C281.558 43.1273 281.003 41.4693 283.113 42.085C283.59 42.2242 284.074 42.4306 284.511 42.6661C283.401 44.5962 282.338 46.5816 281.159 48.4694C280.248 48.0046 279.013 47.4514 277.971 47.7699C277.314 47.9707 276.885 48.5132 276.59 49.1069C276.478 49.3346 276.4 49.5984 276.478 49.8504C276.513 49.966 276.587 50.068 276.702 50.1143C276.829 50.1656 276.997 50.1485 277.111 50.0744C277.65 49.7247 277.288 48.4357 278.894 48.5989C279.524 48.6629 280.149 48.9769 280.713 49.244L276.999 55.6683C274.067 53.6575 271.238 51.4875 268.32 49.4537C265.288 47.3771 262.18 45.4224 258.996 43.5895C262.025 38.1684 265.022 32.7297 267.988 27.2735C269.229 25.0107 270.498 22.7658 271.692 20.4771C272.078 19.7357 272.54 19.004 272.866 18.2348C273.08 17.7291 273.179 17.2425 273.115 16.694C273.004 15.7441 272.479 14.9333 271.739 14.3447C271.951 13.9457 272.192 13.5593 272.42 13.1697C276.306 15.5356 280.113 17.5758 284.172 19.6306L286.638 20.9042C287.047 21.1102 287.461 21.3445 287.893 21.4972C288.409 21.6796 288.91 21.7533 289.451 21.6551C290.569 21.4522 291.268 20.717 291.889 19.8243Z" fill="#FEFDFD"/>
<path d="M279.987 15.9728C280.147 16.0466 280.315 16.1318 280.465 16.2236C280.575 16.2904 280.668 16.3726 280.697 16.5007C280.589 16.86 280.328 17.2229 280.141 17.5476L279.218 19.1467L278.391 20.5861C278.203 20.9148 278.025 21.2514 277.801 21.5574L277.776 21.553L277.764 21.5961C277.755 21.5991 277.746 21.6031 277.737 21.6051C277.65 21.6239 277.577 21.6185 277.494 21.5876C276.987 21.3982 276.426 21.0428 275.94 20.7867C274.903 20.2487 273.87 19.704 272.84 19.1529C272.622 19.0364 272.157 18.8546 272.068 18.611C272.042 18.5419 272.089 18.4754 272.12 18.4115C272.303 18.0325 272.534 17.6693 272.746 17.3055L273.896 15.3452C274.111 14.9801 274.324 14.6134 274.533 14.2449C274.642 14.0531 274.746 13.8368 274.874 13.6577C274.925 13.5871 274.985 13.519 275.074 13.499C275.172 13.477 275.29 13.5397 275.378 13.5796C275.879 13.805 276.367 14.0926 276.855 14.3466L279.987 15.9728Z" fill="black"/>
<path d="M272.083 29.6662C272.243 29.7399 272.411 29.8251 272.561 29.9169C272.67 29.9838 272.764 30.0659 272.793 30.1941C272.685 30.5534 272.424 30.9162 272.237 31.241L271.313 32.8401L270.487 34.2794C270.298 34.6081 270.12 34.9447 269.896 35.2508L269.872 35.2464L269.86 35.2895C269.851 35.2925 269.842 35.2964 269.833 35.2984C269.746 35.3173 269.673 35.3119 269.59 35.2809C269.083 35.0915 268.522 34.7362 268.036 34.4801C266.999 33.942 265.966 33.3974 264.936 32.8462C264.717 32.7298 264.252 32.548 264.163 32.3044C264.138 32.2353 264.185 32.1687 264.216 32.1049C264.398 31.7259 264.629 31.3627 264.841 30.9989L265.992 29.0386C266.207 28.6735 266.419 28.3067 266.629 27.9382C266.738 27.7465 266.841 27.5301 266.97 27.3511C267.021 27.2804 267.08 27.2123 267.17 27.1924C267.268 27.1704 267.385 27.233 267.474 27.2729C267.975 27.4984 268.463 27.786 268.95 28.04L272.083 29.6662Z" fill="black"/>
<path d="M279.695 16.4785L279.983 16.6308C279.161 18.0825 278.328 19.5277 277.483 20.9661C276.001 20.1893 274.505 19.4294 273.045 18.6119L272.765 18.4471L275.24 14.1666C275.794 14.4748 276.37 14.7521 276.934 15.0421C277.857 15.516 278.777 15.9948 279.695 16.4785Z" fill="#FEFDFD"/>
<path d="M271.792 30.1724L272.079 30.3246C271.258 31.7764 270.424 33.2215 269.579 34.66C268.098 33.8831 266.601 33.1233 265.141 32.3057L264.861 32.141L267.337 27.8604C267.891 28.1687 268.466 28.4459 269.03 28.7359C269.953 29.2099 270.874 29.6887 271.792 30.1724Z" fill="#FEFDFD"/>
<path d="M276.39 23.0093C276.467 23.0403 276.556 23.0883 276.616 23.1442C276.679 23.2025 276.714 23.2795 276.71 23.366C276.707 23.4407 276.681 23.5128 276.649 23.5793C276.377 24.135 276.022 24.6754 275.713 25.2135L274.542 27.2413C274.346 27.5778 274.048 28.209 273.782 28.4561C273.652 28.4724 273.487 28.4074 273.368 28.355C272.776 28.0947 272.201 27.7536 271.628 27.4513L268.491 25.7964C268.403 25.7488 268.303 25.6972 268.235 25.6225C268.175 25.5575 268.139 25.4818 268.143 25.3919C268.147 25.3241 268.167 25.2618 268.199 25.202C268.523 24.5808 268.907 23.976 269.258 23.3679C269.561 22.8429 270.78 20.5996 271.082 20.3258C271.201 20.3033 271.314 20.3443 271.423 20.3902C271.637 20.4803 271.842 20.6132 272.046 20.7249C272.317 20.8736 272.594 21.0125 272.867 21.1577C274.037 21.7801 275.202 22.4228 276.39 23.0093Z" fill="black"/>
<path d="M268.487 36.7022C268.563 36.7332 268.653 36.7811 268.713 36.8371C268.776 36.8953 268.811 36.9724 268.807 37.0588C268.804 37.1336 268.778 37.2056 268.746 37.2722C268.474 37.8278 268.119 38.3683 267.81 38.9064L266.638 40.9341C266.443 41.2707 266.145 41.9019 265.879 42.149C265.749 42.1653 265.584 42.1002 265.465 42.0479C264.873 41.7876 264.298 41.4465 263.725 41.1442L260.588 39.4893C260.5 39.4417 260.4 39.39 260.332 39.3154C260.272 39.2504 260.236 39.1746 260.24 39.0848C260.244 39.017 260.264 38.9547 260.296 38.8949C260.62 38.2737 261.004 37.6689 261.355 37.0607C261.658 36.5357 262.876 34.2924 263.179 34.0187C263.298 33.9962 263.411 34.0372 263.52 34.0831C263.734 34.1732 263.939 34.3061 264.143 34.4178C264.414 34.5664 264.691 34.7053 264.964 34.8506C266.133 35.4729 267.299 36.1157 268.487 36.7022Z" fill="black"/>
<path d="M275.958 23.4357C276.02 23.4708 276.036 23.4758 276.07 23.537C276.045 23.7103 273.857 27.4085 273.585 27.8401L268.976 25.3908C268.934 25.3675 268.899 25.3417 268.863 25.3108C268.86 25.2916 268.851 25.2718 268.856 25.2533C268.9 25.1034 269.384 24.3378 269.493 24.1499L271.32 20.9698C272.856 21.8097 274.417 22.6039 275.958 23.4357Z" fill="#FEFDFD"/>
<path d="M268.054 37.1296C268.116 37.1647 268.132 37.1696 268.166 37.2309C268.141 37.4041 265.953 41.1023 265.681 41.5339L261.072 39.0847C261.03 39.0614 260.996 39.0355 260.959 39.0047C260.957 38.9855 260.947 38.9656 260.953 38.9471C260.997 38.7972 261.481 38.0317 261.589 37.8437L263.417 34.6636C264.953 35.5036 266.514 36.2978 268.054 37.1296Z" fill="#FEFDFD"/>
<path d="M296.725 23.2259C297.198 23.4681 297.704 23.6613 298.192 23.8708L300.954 25.0609C304.834 26.772 317.666 32.3408 319.552 35.3693C319.146 36.2411 318.461 37.3441 317.943 38.1726C316.917 39.8311 315.968 41.5444 314.992 43.2336L309.36 52.9949L307.799 55.7031C307.503 56.2182 307.213 56.8832 306.81 57.3105C305.327 60.0271 303.751 62.6998 302.202 65.3794C301.742 66.1828 301.278 66.9835 300.808 67.7814C299.243 66.8612 297.723 65.8763 296.144 64.9771C292.784 63.0927 289.356 61.3409 285.861 59.7217C284.143 58.9134 282.443 58.0781 280.684 57.3599C279.692 57.0367 278.709 56.5666 277.762 56.1312C279.05 54.0158 280.247 51.8402 281.477 49.6902C281.694 49.8373 281.907 49.9865 282.109 50.1541C282.589 50.5538 283.186 51.1517 283.227 51.8088C283.253 52.244 283.072 52.4327 282.811 52.7349C282.678 52.8887 282.582 53.0171 282.607 53.2316C282.623 53.3673 282.697 53.4953 282.81 53.5734C282.904 53.6382 283.032 53.668 283.144 53.6382C283.4 53.57 283.59 53.3359 283.725 53.1203C284.062 52.5815 284.207 51.9514 284.049 51.3263C283.796 50.3169 282.81 49.4285 281.949 48.923L285.273 43.1354C285.779 43.4306 286.289 43.8193 286.677 44.26C287.801 45.5356 286.439 46.112 286.43 46.6961C286.428 46.8221 286.469 46.9564 286.572 47.0359C286.679 47.118 286.82 47.1361 286.949 47.1118C287.193 47.0659 287.323 46.9115 287.463 46.7181C287.858 46.1695 288.099 45.5085 287.968 44.8254C287.751 43.6942 286.608 42.9387 285.73 42.3278L289.229 36.2491C289.8 36.5893 290.437 37.0128 290.848 37.5448C291.683 38.6248 290.583 39.1397 290.541 39.6375C290.531 39.7599 290.563 39.9077 290.655 39.9939C290.739 40.0721 290.858 40.0915 290.968 40.0792C291.202 40.053 291.388 39.9102 291.524 39.7269C291.881 39.2485 292.116 38.5959 292.017 37.9943C291.832 36.8662 290.553 36.0528 289.698 35.441L293.098 29.5539C293.568 29.8806 294.025 30.2187 294.413 30.6443C295.813 32.1835 294.235 32.545 294.28 33.1768C294.287 33.2782 294.346 33.3651 294.431 33.4184C294.548 33.4919 294.691 33.5096 294.825 33.4844C295.044 33.4428 295.233 33.3045 295.362 33.1254C295.728 32.6167 295.946 32.0279 295.826 31.3942C295.602 30.2123 294.468 29.4159 293.544 28.7814C294.586 26.9195 295.664 25.0766 296.725 23.2259Z" fill="#FEFDFD"/>
<path d="M281.825 37.6434C282.113 37.7865 282.367 37.8991 282.569 38.1599C282.658 38.2743 282.695 38.3703 282.673 38.5171C282.597 38.6544 282.478 38.7179 282.331 38.7611C282.147 38.8151 281.98 38.7456 281.81 38.6738C281.391 38.496 280.979 38.2541 280.573 38.0448L278.216 36.8233L272.949 33.9504C272.752 33.8469 272.245 33.6397 272.144 33.4583C272.082 33.3475 272.07 33.1099 272.123 32.993C272.166 32.9001 272.244 32.844 272.341 32.8199C272.551 32.768 272.811 32.8659 272.999 32.9484C273.475 33.1568 273.938 33.4376 274.397 33.6828C275.033 34.0187 275.672 34.3497 276.313 34.6758C278.97 36.0615 279.152 36.2912 281.825 37.6434Z" fill="#FF4B11"/>
<path d="M277.62 44.9315C277.907 45.0745 278.162 45.1872 278.363 45.448C278.452 45.5624 278.489 45.6584 278.467 45.8052C278.391 45.9425 278.272 46.006 278.125 46.0491C277.941 46.1031 277.774 46.0337 277.604 45.9619C277.185 45.7841 276.773 45.5422 276.367 45.3329L274.01 44.1114L268.743 41.2385C268.546 41.1349 268.039 40.9278 267.938 40.7464C267.876 40.6356 267.864 40.398 267.918 40.2811C267.96 40.1881 268.038 40.132 268.136 40.1079C268.345 40.0561 268.605 40.154 268.794 40.2365C269.27 40.4449 269.732 40.7257 270.191 40.9709C270.827 41.3068 271.466 41.6378 272.108 41.9639C274.764 43.3496 274.946 43.5793 277.62 44.9315Z" fill="black"/>
<path d="M285.735 30.8704C286.023 31.0135 286.277 31.1261 286.479 31.387C286.567 31.5014 286.604 31.5973 286.582 31.7441C286.507 31.8815 286.388 31.945 286.24 31.9881C286.057 32.0421 285.889 31.9726 285.72 31.9009C285.3 31.7231 284.888 31.4812 284.483 31.2719L282.126 30.0503L276.858 27.1774C276.661 27.0739 276.155 26.8668 276.053 26.6854C275.992 26.5746 275.979 26.337 276.033 26.2201C276.076 26.1271 276.154 26.071 276.251 26.0469C276.46 25.995 276.72 26.0929 276.909 26.1755C277.385 26.3838 277.847 26.6647 278.306 26.9098C278.943 27.2457 279.582 27.5767 280.223 27.9029C282.879 29.2886 283.061 29.5182 285.735 30.8704Z" fill="black"/>
<path d="M289.688 24.0233C289.975 24.1663 290.23 24.279 290.431 24.5398C290.52 24.6542 290.557 24.7502 290.535 24.897C290.459 25.0343 290.341 25.0978 290.193 25.1409C290.009 25.1949 289.842 25.1255 289.673 25.0537C289.253 24.8759 288.841 24.634 288.435 24.4247L286.078 23.2032L280.811 20.3303C280.614 20.2267 280.108 20.0196 280.006 19.8382C279.944 19.7274 279.932 19.4898 279.986 19.3729C280.028 19.2799 280.106 19.2238 280.204 19.1997C280.413 19.1479 280.673 19.2458 280.862 19.3283C281.338 19.5367 281.8 19.8175 282.259 20.0627C282.896 20.3986 283.534 20.7296 284.176 21.0557C286.832 22.4414 287.014 22.6711 289.688 24.0233Z" fill="#FF4B11"/>
<path d="M301.333 57.0057C301.618 57.1434 302.022 57.2901 302.211 57.5596C302.27 57.6434 302.304 57.7477 302.276 57.8495C302.24 57.9806 302.115 58.1275 301.987 58.1765C301.844 58.2308 301.665 58.1878 301.531 58.1326C301.062 57.9402 300.605 57.6695 300.155 57.4345L297.797 56.2088L289.96 52.1395C289.733 52.029 289.301 51.8805 289.157 51.6674C289.077 51.5505 289.042 51.3971 289.09 51.2602C289.135 51.1341 289.236 51.0404 289.362 50.9998C289.471 50.9644 289.584 50.9678 289.691 51.0068C290.039 51.1329 290.393 51.3588 290.722 51.5309L292.995 52.7168L301.333 57.0057Z" fill="black"/>
<path d="M305.208 50.2898C305.494 50.4276 305.898 50.5743 306.087 50.8437C306.145 50.9276 306.18 51.0318 306.152 51.1337C306.116 51.2648 305.991 51.4117 305.862 51.4607C305.72 51.5149 305.541 51.472 305.406 51.4168C304.938 51.2244 304.481 50.9537 304.031 50.7186L301.673 49.493L293.836 45.4237C293.609 45.3132 293.177 45.1647 293.032 44.9516C292.953 44.8347 292.917 44.6813 292.966 44.5444C293.011 44.4183 293.112 44.3246 293.238 44.284C293.347 44.2486 293.459 44.252 293.567 44.291C293.915 44.4171 294.269 44.643 294.598 44.8151L296.87 46.001L305.208 50.2898Z" fill="black"/>
<path d="M309.084 43.5735C309.37 43.7112 309.774 43.858 309.963 44.1274C310.021 44.2113 310.056 44.3155 310.028 44.4174C309.991 44.5485 309.867 44.6953 309.738 44.7444C309.596 44.7986 309.417 44.7557 309.282 44.7005C308.814 44.5081 308.357 44.2373 307.907 44.0023L305.549 42.7767L297.712 38.7073C297.485 38.5969 297.053 38.4484 296.908 38.2353C296.829 38.1184 296.793 37.965 296.842 37.8281C296.887 37.702 296.988 37.6083 297.114 37.5677C297.223 37.5323 297.335 37.5357 297.443 37.5747C297.791 37.7008 298.145 37.9267 298.474 38.0988L300.746 39.2847L309.084 43.5735Z" fill="black"/>
<path d="M312.613 37.4632C312.898 37.6009 313.302 37.7476 313.491 38.0171C313.549 38.1009 313.584 38.2052 313.556 38.307C313.52 38.4381 313.395 38.585 313.266 38.634C313.124 38.6883 312.945 38.6453 312.81 38.5901C312.342 38.3978 311.885 38.127 311.435 37.892L309.077 36.6663L301.24 32.597C301.013 32.4865 300.581 32.3381 300.436 32.1249C300.357 32.008 300.321 31.8546 300.37 31.7177C300.415 31.5917 300.516 31.4979 300.642 31.4573C300.751 31.4219 300.863 31.4253 300.971 31.4643C301.319 31.5905 301.673 31.8163 302.002 31.9884L304.274 33.1744L312.613 37.4632Z" fill="black"/>
<path d="M317.944 38.1729C316.918 39.8314 315.968 41.5447 314.993 43.2339L309.361 52.9952L307.799 55.7034C307.504 56.2185 307.214 56.8835 306.81 57.3108C307.009 56.6678 307.376 55.9948 307.657 55.3783C308.256 54.0499 308.896 52.7422 309.578 51.4549C310.174 50.3517 310.834 49.2793 311.389 48.1546C312.513 45.878 313.344 43.465 314.535 41.2236C314.975 40.395 315.492 39.3518 316.193 38.7218C316.709 38.2576 317.272 38.142 317.944 38.1729Z" fill="#FEFDFD"/>
<path d="M280.684 57.3598C281.111 56.5869 281.502 55.814 281.975 55.0653C282.093 54.8794 282.274 54.5103 282.496 54.4602C283.058 54.6137 283.989 55.4779 284.526 55.8285C285.013 56.1461 285.532 56.4199 286.04 56.7004C288.463 58.0359 290.954 59.2874 293.426 60.529C294.791 61.2146 296.172 61.8812 297.516 62.6076C299.105 63.4857 300.667 64.4096 302.202 65.3792C301.742 66.1826 301.277 66.9833 300.807 67.7812C299.243 66.861 297.722 65.8761 296.144 64.9769C292.783 63.0925 289.356 61.3407 285.86 59.7215C284.143 58.9132 282.442 58.0779 280.684 57.3598Z" fill="#FEFDFD"/>
<path d="M278.687 17.0605C278.753 17.1135 278.832 17.1714 278.873 17.2479C278.911 17.3216 278.938 17.414 278.905 17.4952C278.861 17.603 278.772 17.6668 278.675 17.7224C278.371 17.8953 277.997 18.0118 277.671 18.143C277.144 18.3552 276.62 18.5783 276.09 18.7844C275.931 18.8465 275.559 18.9899 275.402 18.8934C275.152 18.7404 274.751 17.4748 274.624 17.1402C274.579 17.02 274.506 16.8655 274.513 16.736C274.519 16.6175 274.588 16.434 274.682 16.3572C274.757 16.2967 274.826 16.295 274.916 16.3187C275.032 16.3497 275.153 16.4908 275.211 16.59C275.377 16.8742 275.651 17.7259 275.801 18.0933C276.418 17.888 278.169 16.9463 278.687 17.0605Z" fill="black"/>
<path d="M270.782 30.7534C270.849 30.8063 270.928 30.8642 270.968 30.9408C271.007 31.0145 271.034 31.1069 271.001 31.1881C270.957 31.2958 270.868 31.3597 270.77 31.4153C270.466 31.5882 270.093 31.7047 269.767 31.8358C269.24 32.0481 268.716 32.2712 268.186 32.4772C268.026 32.5394 267.655 32.6828 267.497 32.5863C267.248 32.4333 266.846 31.1676 266.72 30.8331C266.675 30.7129 266.602 30.5583 266.609 30.4289C266.615 30.3104 266.683 30.1269 266.778 30.0501C266.853 29.9896 266.922 29.9879 267.011 30.0116C267.128 30.0426 267.248 30.1836 267.306 30.2829C267.473 30.567 267.747 31.4187 267.897 31.7862C268.514 31.5809 270.264 30.6391 270.782 30.7534Z" fill="black"/>
<path d="M192.963 107.554C193.362 107.849 193.626 108.213 193.557 108.719C193.508 109.203 193.192 109.603 192.741 109.752C192.466 109.85 192.187 109.867 191.811 109.951C191.893 110.287 192.008 110.52 192.023 110.759C192.099 111.336 191.844 111.732 191.36 112.003C190.894 112.253 190.465 112.12 190.067 111.844C189.877 111.696 189.723 111.465 189.552 111.296C189.358 111.088 189.258 110.773 188.871 110.677C188.551 110.998 188.192 111.341 187.854 111.703C187.608 111.939 187.362 112.175 187.027 112.256C186.534 112.388 186.109 112.314 185.763 111.915C185.418 111.536 185.411 111.096 185.561 110.625C185.68 110.277 186.109 110.09 186.101 109.65C185.747 109.431 185.355 109.576 185.008 109.478C184.538 109.327 184.161 109.07 184.05 108.576C183.865 107.867 184.266 107.24 184.996 107.054C185.351 106.971 185.762 107.126 186.106 106.864C186.032 106.648 185.977 106.411 185.922 106.174C185.821 105.519 186.054 105.083 186.599 104.829C187.045 104.6 187.552 104.688 187.979 105.102C188.215 105.348 188.432 105.615 188.609 105.884C189.177 106.63 189.2 106.669 189.893 105.904C190.139 105.668 190.363 105.413 190.61 105.197C190.8 105.025 191.032 104.89 191.27 104.855C192.2 104.676 192.953 105.49 192.669 106.39C192.586 106.656 192.4 106.888 192.237 107.159C192.395 107.449 192.732 107.388 192.963 107.554ZM201.175 106.335C201.03 106.584 200.863 106.795 200.679 107.047C200.951 107.231 201.199 107.355 201.43 107.521C202.667 108.385 203.09 109.701 202.619 111.133C202.368 111.911 201.929 112.58 201.365 113.176C200.597 114.026 199.653 114.627 198.601 115.094C198.134 115.324 197.686 115.532 197.246 115.861C196.46 116.431 195.517 116.09 195.276 115.123C195.093 114.453 195.031 113.776 194.967 113.079C194.667 109.911 194.726 106.721 194.726 103.535C194.725 102.573 195.188 101.963 196.111 101.664C197.424 101.201 198.727 101.199 200.002 101.719C200.413 101.874 200.788 102.111 201.128 102.41C201.917 103.162 202.197 104.106 201.783 105.174C201.628 105.585 201.392 105.96 201.175 106.335ZM197.379 109.38C197.389 110.501 197.334 111.527 197.589 112.713C198.504 112.295 199.156 111.833 199.658 111.2C199.823 110.969 199.969 110.739 200.093 110.471C200.285 110.018 200.125 109.708 199.654 109.557C198.918 109.323 198.178 109.349 197.379 109.38ZM197.42 103.986C197.289 104.776 197.314 105.496 197.355 106.455C198.255 105.797 198.961 105.232 199.305 104.329C198.712 103.825 198.097 103.924 197.42 103.986ZM211.436 113.504C211.374 112.846 211.36 112.627 211.258 112.593C211.116 112.562 210.943 112.994 210.798 113.243C210.162 114.285 208.4 114.937 206.986 114.445C205.942 114.09 205.367 113.245 205.159 112.797C204.833 112.076 204.604 111.309 204.475 110.536C204.16 108.712 204.224 106.864 204.248 105.019C204.258 104.858 204.286 104.676 204.337 104.532C204.503 103.981 205.021 103.608 205.562 103.614C206.105 103.639 206.56 103.871 206.734 104.401C206.859 104.794 206.945 105.21 206.932 105.631C206.972 106.591 206.993 107.551 206.973 108.514C206.918 111.143 207.102 111.512 207.375 111.716C207.71 111.935 208.211 111.943 208.542 111.782C208.988 111.554 209.275 110.694 209.807 108.957C209.805 108.937 209.824 108.916 209.841 108.875C209.907 108.65 210.089 108.038 210.343 106.979C210.473 106.49 210.645 106.039 210.754 105.551C210.834 105.225 210.953 104.897 211.115 104.606C211.386 104.128 211.834 103.92 212.378 103.966C212.943 104.03 213.41 104.442 213.523 104.975C213.585 105.312 213.606 105.652 213.608 105.992C213.603 108.457 213.817 110.909 214.133 113.374C214.198 113.77 214.224 114.19 214.231 114.61C214.221 115.412 213.754 115.943 213.056 116.007C212.338 116.052 211.812 115.664 211.641 114.853C211.614 114.735 211.542 114.559 211.436 113.504ZM216.492 113.245C216.111 111.345 215.715 104.417 215.519 102.906C215.363 101.693 215.84 101.002 217.242 100.673C223.091 99.3625 226.191 106.261 223.074 110.526C221.888 112.063 219.945 114.31 217.819 114.284C217.076 114.25 216.635 113.937 216.492 113.245ZM218.343 103.189C218.245 104.177 218.631 109.042 218.995 111.003C220.695 109.674 221.872 107.996 221.582 105.93C221.405 104.399 220.047 102.881 218.343 103.189ZM227.037 112.58C226.657 110.681 226.26 103.752 226.065 102.241C225.908 101.029 226.386 100.337 227.788 100.008C233.637 98.6979 236.737 105.597 233.619 109.861C232.433 111.399 230.491 113.645 228.365 113.619C227.621 113.586 227.181 113.273 227.037 112.58ZM228.888 102.524C228.79 103.512 229.177 108.378 229.541 110.339C231.241 109.009 232.418 107.332 232.127 105.266C231.95 103.734 230.592 102.216 228.888 102.524ZM239.084 103.425C239.184 103.739 239.343 104.03 239.53 104.459C239.691 104.148 239.839 103.958 239.925 103.732C240.449 102.497 240.952 101.263 241.454 100.009C241.56 99.7817 241.625 99.5371 241.732 99.33C242.056 98.7484 242.662 98.5098 243.234 98.6742C243.805 98.8386 244.201 99.3948 244.179 99.9974C244.159 100.319 244.08 100.665 243.96 100.973C243.72 101.629 243.441 102.288 243.182 102.946C241.918 106.092 240.633 109.239 239.367 112.365C239.211 112.755 239.077 113.164 238.859 113.519C238.517 114.141 237.85 114.364 237.253 114.121C236.657 113.878 236.318 113.278 236.455 112.588C236.5 112.345 236.586 112.119 236.692 111.892C237.001 111.071 237.268 110.212 237.659 109.426C238.013 108.682 237.93 108.006 237.643 107.263C237.239 106.266 236.893 105.226 236.548 104.206C236.08 102.812 235.631 101.418 235.184 100.043C234.938 99.3173 235.313 98.5923 236.015 98.2875C236.621 98.0489 237.381 98.3417 237.703 99.0027C237.887 99.3719 237.993 99.786 238.118 100.179C238.447 101.26 238.756 102.343 239.084 103.425ZM252.868 111.073C252.841 110.954 252.833 110.834 252.807 110.736C252.735 109.919 252.686 109.14 252.616 108.343C252.42 105.55 252.204 102.758 252.028 99.9636C251.99 99.6854 252.031 99.3822 252.093 99.0978C252.244 98.6274 252.566 98.3265 253.081 98.2339C253.576 98.1426 253.968 98.3183 254.312 98.6974C254.593 99.0204 254.68 99.4358 254.726 99.8537C254.886 102.068 255.044 104.262 255.204 106.477C255.274 107.595 255.366 108.731 255.436 109.849C255.46 110.228 255.463 110.589 255.427 110.972C255.347 111.618 254.873 112.049 254.276 112.106C253.638 112.166 253.07 111.741 252.868 111.073ZM259.873 108.126C260.325 107.998 261.175 107.804 261.284 107.316C261.301 107.255 261.298 107.215 261.294 107.155C261.225 106.698 260.433 106.528 260.372 106.512C259.761 106.35 259.167 106.147 258.589 105.883C256.174 104.772 256.207 102.426 257.177 100.962C258.273 99.2894 259.867 98.5076 261.826 98.4242C262.225 98.3991 262.655 98.5323 263.044 98.6681C263.62 98.9124 263.899 99.516 263.797 100.124C263.694 100.711 263.217 101.102 262.539 101.145C262.119 101.171 261.919 101.164 261.537 101.148C261.216 101.148 259.853 101.134 259.378 101.865C259.287 102.011 259.147 102.341 259.243 102.916C259.39 103.327 259.699 103.468 260.026 103.568C260.579 103.753 261.15 103.918 261.684 104.124C262.22 104.351 262.775 104.577 263.237 104.908C264.414 105.776 264.666 107.243 263.882 108.475C263.501 109.1 262.968 109.554 262.351 109.934C261.483 110.47 260.541 110.79 259.553 111.012C258.882 111.175 258.241 110.854 257.985 110.289C257.663 109.628 257.955 108.868 258.695 108.521C258.871 108.45 259.027 108.38 259.184 108.33C259.497 108.21 259.675 108.179 259.873 108.126ZM275.535 101.127C275.635 101.442 275.794 101.732 275.981 102.161C276.142 101.851 276.29 101.661 276.376 101.435C276.9 100.2 277.403 98.9655 277.905 97.7115C278.011 97.4844 278.076 97.2398 278.183 97.0326C278.507 96.4511 279.113 96.2125 279.685 96.3769C280.256 96.5413 280.652 97.0975 280.63 97.7001C280.61 98.0219 280.532 98.3676 280.411 98.6758C280.172 99.3321 279.892 99.991 279.633 100.649C278.369 103.794 277.084 106.941 275.818 110.067C275.662 110.458 275.528 110.867 275.31 111.221C274.968 111.844 274.301 112.067 273.704 111.824C273.108 111.581 272.77 110.981 272.906 110.291C272.951 110.047 273.037 109.822 273.143 109.595C273.452 108.773 273.719 107.915 274.11 107.129C274.464 106.385 274.381 105.709 274.094 104.966C273.69 103.969 273.344 102.929 272.999 101.908C272.531 100.515 272.082 99.1205 271.635 97.7459C271.389 97.02 271.764 96.2949 272.466 95.9902C273.072 95.7516 273.832 96.0443 274.154 96.7054C274.338 97.0746 274.444 97.4887 274.569 97.8816C274.898 98.9631 275.207 100.046 275.535 101.127ZM282.307 98.9971C282.655 98.4742 283.129 98.0435 283.67 97.7289C283.844 97.6177 286.41 96.0532 288.602 97.1175C289.572 97.5773 290.27 98.4752 290.313 98.5126C290.947 99.3544 291.35 100.351 291.456 101.386C291.735 103.914 290.95 106.088 289.181 107.902C288.598 108.5 287.883 108.926 287.081 109.237C285.83 109.737 284.108 109.445 282.985 108.153C282.313 107.353 281.831 106.382 281.646 105.351C281.579 104.935 281.553 104.515 281.508 104.118C281.3 102.407 281.363 101.181 281.861 99.8669C281.982 99.5587 282.124 99.2692 282.307 98.9971ZM287.223 106.082C288.376 104.987 288.889 103.592 288.81 102.014C288.763 101.276 288.561 100.607 288.104 100.035C287.39 99.1978 286.281 99.0874 285.422 99.7627C285.021 100.089 284.705 100.469 284.557 100.98C284.476 101.285 284.356 101.613 284.316 101.937C284.15 103.109 284.023 104.28 284.455 105.415C284.991 106.924 286.029 107.179 287.223 106.082ZM300.4 107.897C300.338 107.239 300.325 107.02 300.222 106.986C300.08 106.955 299.907 107.387 299.762 107.636C299.127 108.678 297.364 109.331 295.95 108.838C294.906 108.483 294.332 107.638 294.123 107.19C293.797 106.469 293.568 105.702 293.439 104.929C293.124 103.105 293.188 101.257 293.212 99.412C293.222 99.2511 293.25 99.0689 293.302 98.9254C293.467 98.3739 293.985 98.0006 294.526 98.0066C295.069 98.0325 295.524 98.2643 295.698 98.7944C295.823 99.1874 295.909 99.6028 295.896 100.024C295.936 100.984 295.957 101.944 295.937 102.908C295.882 105.536 296.066 105.905 296.339 106.109C296.674 106.328 297.175 106.336 297.506 106.175C297.952 105.947 298.239 105.087 298.771 103.35C298.769 103.33 298.788 103.309 298.806 103.268C298.872 103.043 299.053 102.431 299.307 101.373C299.437 100.883 299.609 100.432 299.718 99.9438C299.798 99.6182 299.918 99.29 300.08 98.9992C300.35 98.5213 300.798 98.3127 301.342 98.3586C301.907 98.4232 302.374 98.8346 302.488 99.3685C302.549 99.7053 302.57 100.045 302.572 100.385C302.567 102.85 302.781 105.302 303.097 107.767C303.162 108.164 303.189 108.583 303.195 109.003C303.185 109.805 302.718 110.336 302.021 110.4C301.302 110.445 300.777 110.057 300.605 109.246C300.578 109.128 300.506 108.952 300.4 107.897ZM311.043 102.817C310.819 103.072 310.571 103.268 310.247 103.529C310.82 104.034 311.437 104.295 311.999 104.621C312.499 104.93 313.036 105.177 313.499 105.528C313.959 105.84 314.071 106.334 313.944 106.863C313.835 107.371 313.473 107.654 313.021 107.803C312.707 107.903 312.361 107.824 311.927 107.611C311.227 107.315 311.027 107.007 310.207 106.397C308.712 105.249 308.28 105.396 308.164 105.464C308.107 105.507 308.068 105.53 308.012 105.593C308.042 106.072 308.089 106.49 308.094 106.891C308.112 107.491 307.881 107.966 307.316 108.222C307.024 108.361 306.665 108.384 306.337 108.264C306.029 108.143 305.773 107.899 305.633 107.587C305.493 107.275 305.413 106.96 305.352 106.623C304.876 103.847 304.66 101.055 304.584 98.2545C304.529 96.4343 304.696 96.2234 306.4 95.595C307.888 95.0403 309.353 95.0682 310.78 95.7798C312.932 96.8466 313.638 99.1467 312.404 101.188C312.041 101.792 311.511 102.287 311.043 102.817ZM309.846 98.4438C309.178 98.025 308.564 97.8232 307.821 98.1106C307.567 98.2067 307.401 98.4376 307.378 98.7196C307.328 99.1837 307.317 99.6453 307.346 100.104C307.396 100.582 307.465 101.039 307.53 101.435C307.558 101.574 307.626 101.69 307.749 101.742C307.873 101.795 308.013 101.786 308.129 101.718C308.381 101.582 308.63 101.406 308.859 101.231C309.244 100.967 309.584 100.645 309.862 100.286C309.993 100.138 310.101 99.9508 310.19 99.7648C310.437 99.2283 310.325 98.7343 309.846 98.4438ZM195 134.559C194.843 133.647 194.804 131.766 194.651 131.876C194.663 131.755 194.252 131.901 194.135 131.948C193.349 132.198 191.964 132.486 191.777 132.698C191.57 132.912 191.868 134.456 191.785 135.363C191.672 136.753 189.657 136.9 189.276 135.621C188.72 131.889 188.862 128.092 188.625 124.34C188.539 123.604 188.995 122.894 189.727 122.747C190.857 122.556 191.366 123.626 191.369 124.628C191.438 126.367 190.763 129.957 191.535 129.808C192.287 129.66 193.979 129.473 194.389 128.987C194.78 128.521 194.129 124.554 194.696 122.414C194.812 122.026 195.114 121.727 195.506 121.602C195.899 121.477 196.325 121.55 196.639 121.771C197.245 122.153 197.189 122.858 197.168 123.481C197.049 126.995 197.31 130.506 197.551 134.018C197.57 134.317 197.508 134.601 197.385 134.87C196.891 135.943 195.253 135.705 195 134.559ZM201.965 124.441C201.631 124.542 201.692 126.783 201.899 126.89C202.108 127.017 202.623 126.925 203.022 126.899C203.804 126.91 205.059 126.791 205.414 127.009C205.89 127.26 206.085 127.488 206.179 128.023C206.277 129.901 202.365 129.506 202.139 129.741C201.988 129.89 202.03 130.549 202.041 131.049C202.04 131.671 201.805 132.707 202.241 132.64C204.287 132.351 205.441 132.538 205.579 133.131C205.789 133.599 205.626 134.19 205.349 134.568C204.85 135.241 203.772 134.988 201.663 135.221C200.231 135.392 199.589 134.11 199.528 132.831C199.394 129.753 199.179 126.661 199.104 123.559C199.162 122.574 199.552 122.088 200.525 121.947C201.92 121.819 203.365 121.527 204.773 121.619C206.129 121.834 206.193 123.794 204.872 124.138C203.92 124.298 202.299 124.34 201.965 124.441ZM210.555 122.016C210.534 125.504 210.161 128.814 210.383 132.327C211.895 132.152 213.156 131.812 214.625 131.599C216.488 131.582 216.321 134.017 214.629 134.204C206.523 135.636 207.749 136.321 207.701 128.248C207.741 126.341 207.861 124.43 207.94 122.501C207.927 121.66 208.476 120.824 209.404 120.926C209.989 120.989 210.458 121.441 210.555 122.016ZM220.674 130.015C220.321 130.138 219.968 130.26 219.537 130.408C219.577 131.046 219.607 131.525 219.639 132.024C219.66 132.364 219.741 132.699 219.721 133.021C219.721 133.642 219.272 134.152 218.678 134.269C218.064 134.388 217.486 134.124 217.248 133.518C217.083 133.127 216.998 132.732 216.971 132.313C216.849 130.377 216.749 128.459 216.688 126.539C216.648 125.279 216.71 124.033 216.671 122.773C216.643 122.013 216.952 121.513 217.548 121.114C218.356 120.582 219.271 120.465 220.193 120.467C221.675 120.453 223.006 120.911 224.11 121.883C225.66 123.268 225.944 125.234 224.873 127.005C224.418 127.735 223.833 128.313 223.143 128.798C222.373 129.307 221.537 129.72 220.674 130.015ZM219.429 127.749C220.054 127.489 220.657 127.191 221.235 126.834C221.331 126.767 221.543 126.634 221.791 126.438C222.173 126.133 222.364 125.981 222.548 125.729C222.677 125.54 222.915 125.185 222.846 124.728C222.806 124.41 222.612 124.202 222.44 124.012C222.074 123.614 221.577 123.345 221.05 123.258C220.726 123.199 220.405 123.199 220.087 123.239C219.869 123.273 219.65 123.306 219.433 123.36C219.358 124.387 219.323 125.431 219.367 126.45C219.375 126.891 219.403 127.33 219.429 127.749ZM229.762 122.689C229.427 122.79 229.488 125.031 229.696 125.138C229.904 125.265 230.419 125.173 230.818 125.148C231.601 125.158 232.856 125.039 233.21 125.257C233.687 125.508 233.881 125.736 233.975 126.271C234.074 128.149 230.161 127.754 229.935 127.989C229.784 128.138 229.826 128.797 229.837 129.297C229.836 129.919 229.601 130.956 230.038 130.888C232.084 130.599 233.238 130.787 233.375 131.379C233.585 131.847 233.422 132.438 233.145 132.816C232.647 133.489 231.569 133.236 229.459 133.47C228.027 133.64 227.385 132.358 227.325 131.079C227.191 128.001 226.976 124.909 226.9 121.807C226.959 120.822 227.349 120.336 228.322 120.195C229.717 120.067 231.161 119.775 232.57 119.867C233.926 120.082 233.989 122.042 232.668 122.386C231.716 122.546 230.096 122.588 229.762 122.689ZM241.787 127.222C241.563 127.476 241.314 127.672 240.99 127.933C241.563 128.438 242.181 128.7 242.742 129.025C243.243 129.334 243.779 129.581 244.242 129.933C244.703 130.244 244.814 130.738 244.687 131.267C244.579 131.775 244.216 132.059 243.765 132.207C243.45 132.307 243.105 132.229 242.67 132.016C241.97 131.719 241.771 131.411 240.951 130.801C239.455 129.653 239.024 129.801 238.908 129.868C238.85 129.912 238.812 129.934 238.756 129.998C238.786 130.477 238.832 130.895 238.837 131.295C238.855 131.895 238.625 132.371 238.06 132.627C237.768 132.766 237.409 132.788 237.08 132.669C236.772 132.548 236.516 132.303 236.376 131.991C236.236 131.68 236.156 131.364 236.095 131.027C235.62 128.252 235.404 125.46 235.327 122.659C235.273 120.839 235.44 120.628 237.144 119.999C238.632 119.445 240.096 119.473 241.524 120.184C243.675 121.251 244.381 123.551 243.147 125.593C242.785 126.197 242.255 126.691 241.787 127.222ZM240.59 122.848C239.922 122.43 239.308 122.228 238.565 122.515C238.31 122.611 238.144 122.842 238.122 123.124C238.071 123.588 238.06 124.05 238.089 124.509C238.139 124.987 238.208 125.443 238.273 125.84C238.302 125.978 238.369 126.094 238.493 126.147C238.616 126.199 238.756 126.19 238.872 126.123C239.124 125.987 239.374 125.811 239.603 125.636C239.987 125.371 240.328 125.049 240.606 124.691C240.736 124.542 240.845 124.355 240.933 124.169C241.18 123.633 241.069 123.139 240.59 122.848ZM252.732 131.121C252.705 131.002 252.697 130.883 252.671 130.784C252.599 129.967 252.55 129.189 252.48 128.391C252.284 125.598 252.068 122.806 251.892 120.012C251.854 119.734 251.895 119.43 251.958 119.146C252.108 118.676 252.43 118.375 252.945 118.282C253.44 118.191 253.832 118.367 254.177 118.746C254.458 119.069 254.544 119.484 254.59 119.902C254.75 122.116 254.908 124.311 255.068 126.525C255.138 127.643 255.23 128.779 255.3 129.897C255.324 130.276 255.327 130.637 255.291 131.02C255.211 131.666 254.738 132.097 254.14 132.154C253.503 132.215 252.935 131.79 252.732 131.121ZM263.309 124.863C263.309 124.863 264.231 126.448 264.353 126.16C264.475 125.872 264.501 125.329 264.523 125.047C264.657 123.035 264.792 121.043 264.925 119.03C264.945 118.708 265.004 118.364 265.104 118.057C265.301 117.363 265.88 117.006 266.526 117.086C267.154 117.186 267.607 117.699 267.652 118.417C267.665 118.617 267.657 118.818 267.631 119.04C267.463 121.455 267.294 123.871 267.127 126.306C267.101 126.849 267.056 127.393 266.968 127.919C266.895 128.345 266.759 128.734 266.582 129.106C266.116 129.977 265.193 130.276 264.321 129.789C263.822 129.5 263.357 129.129 262.989 128.691C262.125 127.703 261.339 126.671 260.534 125.659C260.273 125.335 259.807 124.623 259.663 124.572C259.52 124.521 259.51 125.003 259.519 125.142C259.638 126.397 259.757 127.652 259.875 128.887C259.929 129.425 260.044 129.979 260.058 130.519C260.078 130.838 260.02 131.183 259.899 131.491C259.705 131.904 259.321 132.169 258.863 132.218C258.424 132.245 257.991 132.052 257.726 131.668C257.549 131.399 257.429 131.086 257.387 130.747C257.172 128.917 256.976 127.086 256.841 125.251C256.758 124.254 256.795 123.25 256.832 122.246C256.843 121.784 256.933 121.317 257.088 120.907C257.488 119.94 258.488 119.596 259.365 120.162C259.785 120.456 260.147 120.794 260.453 121.196C261.431 122.417 263.309 124.863 263.309 124.863ZM283.033 129.031C282.971 128.374 282.957 128.154 282.855 128.12C282.713 128.089 282.54 128.521 282.395 128.771C281.759 129.813 279.997 130.465 278.583 129.973C277.539 129.618 276.964 128.772 276.756 128.324C276.43 127.603 276.201 126.836 276.072 126.063C275.757 124.239 275.821 122.391 275.845 120.546C275.855 120.385 275.883 120.203 275.934 120.06C276.1 119.508 276.618 119.135 277.159 119.141C277.702 119.167 278.157 119.399 278.331 119.929C278.456 120.322 278.542 120.737 278.529 121.159C278.569 122.118 278.59 123.079 278.57 124.042C278.515 126.67 278.699 127.04 278.972 127.243C279.307 127.462 279.808 127.471 280.139 127.31C280.585 127.081 280.872 126.221 281.404 124.484C281.402 124.464 281.421 124.443 281.438 124.402C281.504 124.177 281.686 123.565 281.94 122.507C282.07 122.018 282.242 121.566 282.351 121.078C282.431 120.752 282.55 120.424 282.712 120.133C282.983 119.656 283.431 119.447 283.975 119.493C284.54 119.557 285.007 119.969 285.12 120.503C285.182 120.84 285.203 121.179 285.205 121.519C285.2 123.985 285.414 126.436 285.73 128.901C285.795 129.298 285.821 129.717 285.828 130.137C285.818 130.94 285.351 131.47 284.653 131.534C283.935 131.579 283.409 131.192 283.238 130.381C283.211 130.262 283.139 130.086 283.033 129.031ZM293.659 122.951C293.659 122.951 294.58 124.536 294.703 124.247C294.825 123.959 294.851 123.416 294.873 123.135C295.007 121.122 295.142 119.13 295.275 117.117C295.295 116.795 295.353 116.451 295.454 116.144C295.651 115.45 296.23 115.093 296.876 115.173C297.504 115.273 297.957 115.786 298.002 116.505C298.015 116.704 298.007 116.905 297.981 117.127C297.813 119.543 297.644 121.958 297.477 124.393C297.451 124.936 297.405 125.48 297.318 126.006C297.245 126.432 297.109 126.821 296.932 127.193C296.466 128.064 295.543 128.363 294.671 127.877C294.172 127.587 293.707 127.216 293.339 126.778C292.475 125.791 291.689 124.758 290.884 123.747C290.623 123.422 290.157 122.71 290.013 122.659C289.87 122.608 289.86 123.09 289.869 123.229C289.988 124.484 290.107 125.739 290.225 126.974C290.279 127.512 290.394 128.066 290.408 128.606C290.428 128.926 290.37 129.27 290.249 129.578C290.055 129.991 289.671 130.256 289.213 130.305C288.774 130.332 288.341 130.139 288.076 129.755C287.899 129.486 287.779 129.173 287.737 128.835C287.522 127.005 287.326 125.173 287.191 123.338C287.108 122.341 287.145 121.337 287.181 120.333C287.192 119.871 287.283 119.405 287.438 118.994C287.838 118.027 288.838 117.683 289.715 118.249C290.135 118.543 290.497 118.881 290.803 119.283C291.781 120.504 293.659 122.951 293.659 122.951ZM300.898 128.085C300.871 127.967 300.863 127.847 300.837 127.749C300.766 126.931 300.717 126.153 300.646 125.356C300.45 122.563 300.234 119.771 300.058 116.976C300.02 116.698 300.061 116.395 300.124 116.11C300.274 115.64 300.596 115.339 301.111 115.247C301.607 115.155 301.998 115.331 302.343 115.71C302.624 116.033 302.71 116.448 302.756 116.866C302.916 119.081 303.074 121.275 303.234 123.489C303.304 124.607 303.396 125.744 303.467 126.861C303.49 127.241 303.493 127.601 303.457 127.984C303.378 128.63 302.904 129.061 302.306 129.119C301.669 129.179 301.101 128.754 300.898 128.085ZM312.921 120.033C313.32 120.329 313.584 120.693 313.515 121.198C313.466 121.682 313.15 122.083 312.699 122.232C312.424 122.329 312.145 122.347 311.769 122.43C311.851 122.766 311.966 122.999 311.981 123.239C312.057 123.815 311.802 124.212 311.318 124.483C310.852 124.733 310.423 124.599 310.025 124.324C309.835 124.175 309.681 123.945 309.51 123.775C309.316 123.567 309.216 123.253 308.829 123.157C308.509 123.478 308.15 123.821 307.812 124.183C307.566 124.419 307.321 124.655 306.985 124.736C306.492 124.867 306.067 124.794 305.721 124.395C305.376 124.016 305.369 123.575 305.519 123.105C305.638 122.757 306.067 122.569 306.059 122.129C305.705 121.911 305.313 122.056 304.966 121.957C304.496 121.807 304.119 121.55 304.008 121.056C303.823 120.346 304.224 119.72 304.954 119.533C305.309 119.451 305.72 119.605 306.064 119.343C305.99 119.127 305.935 118.89 305.88 118.653C305.779 117.998 306.012 117.563 306.557 117.308C307.003 117.08 307.51 117.168 307.937 117.582C308.173 117.827 308.39 118.094 308.567 118.364C309.135 119.109 309.158 119.148 309.851 118.383C310.097 118.147 310.321 117.892 310.568 117.677C310.758 117.504 310.99 117.369 311.228 117.334C312.158 117.155 312.911 117.97 312.627 118.869C312.544 119.135 312.358 119.367 312.195 119.638C312.353 119.929 312.69 119.867 312.921 120.033Z" fill="black"/>
<path d="M13.8546 79.11L13.6509 79.1394C13.5639 79.1929 13.5258 79.2455 13.491 79.3459C13.2355 80.0813 13.1976 82.2913 13.0686 83.2247C13.0179 83.5927 12.9306 83.9519 12.7911 84.2913C12.0517 86.0885 9.64421 86.298 8.13159 86.9515C7.92705 87.0395 7.77596 87.0881 7.68567 87.3195C7.72306 87.4373 7.74342 87.4859 7.85112 87.5388C8.12951 87.6774 8.48668 87.7346 8.78507 87.8157C9.85772 88.1078 11.45 88.3773 12.3639 89.0185C13.7742 90.0086 14.1195 91.9855 14.66 93.6092C14.7611 93.9127 14.8616 94.3707 15.0377 94.6226C15.0997 94.7113 15.1195 94.7099 15.214 94.7214L15.2997 94.7449C15.4111 94.7029 15.4319 94.6559 15.4777 94.5376C15.6031 94.212 15.6442 93.7992 15.7067 93.4509C15.8809 92.4817 16.004 91.4791 16.2325 90.525C16.3376 90.0857 16.4827 89.6595 16.7009 89.2721C16.9103 88.9004 17.1879 88.5595 17.522 88.3184C18.2874 87.7671 21.1012 87.122 21.4654 86.5507C21.3567 86.2099 20.326 86.0528 20.0069 85.98C16.1217 85.0974 16.2088 85.3276 14.6886 81.157C14.4443 80.4865 14.2223 79.711 13.8546 79.11Z" fill="#FEA7D0"/>
<path d="M16.0356 103.249C14.149 102.113 12.2875 100.909 10.4217 99.7305C9.63608 99.2344 8.8561 98.6751 8.04617 98.2332C7.94356 98.1772 7.85894 98.1229 7.74161 98.1473C7.63016 98.215 7.55931 98.3065 7.49225 98.4232C7.24986 98.8448 7.04317 99.3019 6.82171 99.7382L5.3991 102.555C4.35251 104.586 3.29582 106.612 2.22903 108.631C1.92402 109.215 1.43418 110.336 1.07827 110.809C0.852377 111.281 0.60487 111.74 0.362524 112.202C0.386804 112.236 0.40985 112.275 0.438622 112.305C0.633331 112.511 0.990938 112.682 1.22836 112.842C1.7458 113.189 2.25604 113.549 2.7694 113.903L10.2067 119.024C10.5804 119.283 12.486 120.709 12.7993 120.701C13.3483 119.716 13.8506 118.693 14.3749 117.691C15.3147 115.925 16.2462 114.154 17.1692 112.378L19.313 108.301C19.6693 107.627 20.0582 106.956 20.3899 106.267C20.4177 106.21 20.4224 106.166 20.4257 106.103C20.1291 105.733 16.7038 103.672 16.0356 103.249Z" fill="#02C2A2"/>
<path d="M14.2761 104.313C14.1412 104.212 14.023 104.146 13.857 104.162C13.5529 104.318 11.7787 106.966 11.3958 107.484C11.1532 107.083 11.2481 104.648 10.9989 103.928C10.9424 103.765 10.8871 103.659 10.7403 103.585C10.6493 103.586 10.5889 103.6 10.51 103.653C10.4111 103.72 10.358 103.821 10.3312 103.944C10.2875 104.144 10.5299 107.289 10.5802 107.657C10.5936 107.756 10.6104 107.822 10.6561 107.909C10.6386 107.905 10.6217 107.9 10.6044 107.896C10.2535 107.809 8.75096 106.022 8.28587 105.657C8.14713 105.548 7.89658 105.383 7.72435 105.425C7.6497 105.444 7.60254 105.49 7.57111 105.566C7.52956 105.668 7.52371 105.857 7.56507 105.959C7.61724 106.089 9.88232 108.384 10.0594 108.451C9.58506 108.724 6.90943 108.78 6.18078 108.904C5.95126 108.943 5.62768 109.054 5.50208 109.283C5.44967 109.378 5.45115 109.431 5.47349 109.535C5.55575 109.645 5.65238 109.714 5.77792 109.755C6.08839 109.856 9.99834 109.398 10.2937 109.237C9.55286 110.318 8.69625 111.335 7.91442 112.383C7.66825 112.713 7.3449 113.068 7.15731 113.436C7.10893 113.531 7.09501 113.575 7.11969 113.679C7.11991 113.69 7.12032 113.7 7.121 113.711C7.12908 113.84 7.16386 113.935 7.25796 114.017C7.32357 114.075 7.39926 114.098 7.48228 114.085C7.57164 114.072 7.64162 114.022 7.70641 113.955C8.08211 113.568 8.41241 113.034 8.74426 112.595C9.40597 111.718 10.1144 110.851 10.7133 109.922C10.6822 110.233 10.9852 113.47 11.0935 113.74C11.1366 113.848 11.2271 113.925 11.3299 113.956C11.4235 113.986 11.5449 113.976 11.626 113.912C11.7237 113.835 11.7506 113.734 11.7671 113.609C11.8024 113.34 11.742 113.019 11.7144 112.75C11.6448 112.082 11.4015 110.443 11.454 109.876C11.4552 109.863 11.4571 109.848 11.4586 109.835C11.5859 110.146 13.5187 112.175 13.7705 112.315C13.8951 112.384 13.9775 112.398 14.1095 112.35C14.1729 112.284 14.2091 112.24 14.2349 112.146C14.2664 112.031 14.2695 111.944 14.224 111.833C14.0538 111.415 12.8586 110.257 12.4923 109.884C12.3007 109.688 12.0185 109.454 11.8944 109.202C11.8902 109.193 11.8863 109.184 11.8823 109.176C11.9624 109.214 15.6406 108.621 15.9 108.544C16.0437 108.502 16.265 108.427 16.3352 108.272C16.3716 108.191 16.3713 108.121 16.3348 108.039C16.2833 107.927 16.1633 107.811 16.0519 107.778C15.4777 107.606 12.1563 108.514 11.7989 108.368C11.7815 108.361 11.7645 108.352 11.7473 108.344C12.3283 107.501 12.9341 106.677 13.5286 105.845C13.7846 105.487 14.1384 105.089 14.3178 104.682C14.3672 104.57 14.3083 104.426 14.2761 104.313Z" fill="black"/>
<path d="M31.4493 113.197C31.2563 113.068 31.067 112.923 30.9012 112.754C30.559 112.406 30.2909 111.966 30.1655 111.47C29.9803 110.738 29.9431 109.926 29.8619 109.171C29.7063 107.77 29.5627 106.367 29.4311 104.962C29.1508 102.214 28.8439 99.4696 28.6017 96.716C28.4916 95.3368 28.3922 93.9566 28.3033 92.5756C28.1552 90.6897 28.039 88.8015 27.9546 86.9108C27.8825 85.0205 27.5818 80.8997 28.7774 79.4977C29.1072 79.1111 29.5383 78.8432 29.9948 78.6828C31.037 78.3167 32.2639 78.2788 33.3498 78.1987C34.9664 78.0914 36.5841 78.0069 38.2028 77.9453C44.122 77.711 50.0427 77.6436 55.965 77.7431C57.44 77.7595 58.9145 77.7984 60.3885 77.8599C61.524 77.9044 62.6759 77.923 63.7959 78.1529C64.4204 78.2812 65.0727 78.5228 65.5436 79.0105C65.9048 79.3846 66.1398 79.9308 66.2867 80.4448C66.5906 81.5082 66.6795 82.7041 66.8247 83.8044C67.1209 86.2093 67.3539 88.6217 67.5236 91.0414C67.6933 93.4612 67.7995 95.8842 67.8421 98.3107C67.5872 98.2758 67.3064 98.2852 67.0591 98.223C67.0169 97.2539 67.002 96.2836 66.9561 95.3147C66.7995 91.6563 66.5101 88.0108 66.0881 84.3779C65.9413 83.1529 65.8277 81.6468 65.4494 80.4923C65.3465 80.1785 65.1773 79.8778 64.9528 79.6516C64.5718 79.2677 63.9964 79.11 63.5005 79.0183C62.5107 78.8353 61.4881 78.8195 60.4868 78.7793C58.7261 78.7085 56.9678 78.6962 55.2063 78.671C47.8055 78.5393 40.4102 78.7033 33.0202 79.1628C31.9096 79.2397 30.1144 79.2287 29.342 80.2291C29.0032 80.6679 28.8675 81.2438 28.7966 81.8025C28.5786 83.5223 28.7351 85.5031 28.811 87.2405C29.0012 91.2432 29.2892 95.2374 29.675 99.223C29.9454 102.133 30.2485 105.039 30.5844 107.941C30.6886 108.836 30.7949 110.463 31.0135 111.275C31.0253 111.319 31.0385 111.361 31.0532 111.404C31.0679 111.446 31.084 111.488 31.1016 111.529C31.1192 111.57 31.1382 111.61 31.1585 111.65C31.1788 111.689 31.2005 111.728 31.2235 111.766C31.2465 111.803 31.2708 111.84 31.2963 111.876C31.3218 111.912 31.3485 111.946 31.3764 111.98C31.4043 112.013 31.4333 112.045 31.4634 112.076C31.4935 112.107 31.5246 112.137 31.5568 112.166C31.9644 112.526 32.4618 112.594 32.9643 112.523C33.4947 112.449 34.0149 112.292 34.5418 112.195L34.4504 113.137L34.1673 113.202C34.2609 113.236 34.3413 113.25 34.4383 113.262C34.4157 113.54 34.4076 113.835 34.3413 114.105C34.2156 114.829 34.1947 115.586 34.1218 116.319C34.0462 117.079 33.9128 117.855 33.9018 118.619C34.0014 118.746 34.0736 118.851 34.2271 118.892C34.9171 119.073 35.8626 119.15 36.5878 119.26L41.3172 119.982L56.5695 122.29C57.7734 123.84 59.2617 125.138 61.1815 125.296C62.8699 125.435 64.5365 124.685 65.7968 123.477C66.0079 123.275 66.1975 123.067 66.3565 122.812C66.5353 123.316 66.6925 123.865 66.9254 124.341C67.4768 125.466 68.5617 126.401 69.6136 126.908C71.0792 127.613 72.4559 127.588 73.954 127.02C74.1556 127.381 74.3015 127.798 74.391 128.21C74.4844 128.638 74.5222 129.082 74.4796 129.521C74.3504 130.854 74.0032 132.169 73.7507 133.479C73.5276 134.637 73.2785 135.788 73.0483 136.944C72.8737 137.821 72.7282 138.724 72.4994 139.586C72.4256 139.864 72.3358 140.135 72.1924 140.38C72.009 140.692 71.7655 140.849 71.4384 140.926C70.5332 141.14 69.1326 140.937 68.2105 140.819C66.9774 140.661 65.7471 140.44 64.5193 140.238C62.6446 139.944 60.7722 139.633 58.9022 139.306L45.8429 137.179L33.4542 135.125C31.6008 134.836 29.7508 134.521 27.9043 134.182C27.4299 134.095 26.9507 134.035 26.4784 133.935C26.2571 133.888 26.0456 133.82 25.8576 133.678C25.4252 133.354 25.1492 132.908 25.0599 132.337C24.9553 131.667 25.0388 130.892 25.0564 130.212C25.0815 129.237 25.0925 128.264 25.1327 127.289C25.1706 126.332 25.2172 125.376 25.2723 124.421C25.3207 123.605 25.342 122.765 25.5504 121.976C25.6505 121.596 25.8307 121.231 26.0268 120.902C26.4168 120.248 26.9132 119.638 27.3496 119.016C28.0734 117.972 28.8062 116.935 29.5481 115.906C30.1903 115.011 30.8474 114.126 31.4493 113.197Z" fill="#02C0A1"/>
<path d="M46.866 127.443C46.9807 127.455 47.0952 127.468 47.2097 127.483C48.4758 127.645 49.7402 127.853 51.0036 128.041C51.7051 128.145 52.711 128.212 53.3573 128.459C53.6513 128.571 53.837 128.722 54.024 128.993C54.4381 129.592 54.4079 130.17 54.3256 130.872C55.5617 130.972 56.804 131.17 58.0344 131.337L63.1459 132.022C64.624 132.229 66.1037 132.42 67.5851 132.596C68.4643 132.702 69.3557 132.779 70.2308 132.917C70.3656 132.938 70.5708 132.967 70.6704 133.076C70.7467 133.16 70.7744 133.286 70.7649 133.402C70.7554 133.517 70.7051 133.633 70.6167 133.699C70.4975 133.789 70.3394 133.788 70.201 133.783C69.7465 133.766 69.2782 133.678 68.8252 133.622L66.0793 133.286C62.1277 132.8 58.1913 132.165 54.235 131.724L54.2155 131.775C53.9868 132.371 53.6846 132.75 53.1303 132.997C53.0472 133.018 52.9639 133.035 52.8788 133.041C52.4586 133.074 52.0013 132.971 51.5833 132.913L49.6005 132.631L47.5123 132.332C47.0634 132.267 46.5941 132.225 46.1556 132.101C45.8673 132.019 45.6495 131.916 45.4284 131.691C45.0503 131.305 44.9732 130.849 44.9429 130.311C43.4653 130.105 41.9812 129.964 40.501 129.785L33.7341 128.917L31.0795 128.581C30.6019 128.524 30.0883 128.503 29.6185 128.4C29.5424 128.383 29.4521 128.348 29.3934 128.289C29.3097 128.205 29.2411 128.064 29.2526 127.935C29.2632 127.815 29.3091 127.716 29.3944 127.64C29.518 127.53 29.6663 127.527 29.8186 127.533C30.3525 127.554 30.9086 127.666 31.4417 127.731L35.1525 128.206C38.4388 128.633 41.7271 129.041 45.0174 129.43C45.122 128.866 45.2538 128.346 45.6417 127.929C45.9877 127.556 46.3934 127.43 46.866 127.443Z" fill="black"/>
<path d="M49.5506 128.727L51.6933 129.035C52.172 129.104 52.6617 129.157 53.1323 129.277C53.3504 129.484 53.4434 129.654 53.5462 129.944C53.4815 130.466 53.48 131.604 53.1017 131.93C52.951 132.059 52.7653 132.119 52.5765 132.134C52.2416 132.16 51.861 132.06 51.5277 132.01L49.7961 131.755L47.6174 131.444C47.243 131.39 46.8365 131.366 46.4736 131.256C46.2784 131.196 46.0807 131.084 45.9405 130.921C45.7747 130.728 45.7407 130.452 45.7538 130.198C45.7797 129.692 45.8306 128.903 46.2078 128.563C46.3601 128.426 46.5481 128.366 46.7424 128.354C47.0715 128.333 47.4341 128.423 47.7609 128.47L49.5506 128.727Z" fill="#02C0A1"/>
<path d="M31.4493 113.197C31.2563 113.068 31.067 112.923 30.9012 112.754C30.559 112.406 30.2909 111.966 30.1655 111.47C29.9803 110.738 29.9431 109.926 29.8619 109.171C29.7063 107.77 29.5627 106.367 29.4311 104.962C29.1508 102.214 28.8439 99.4696 28.6017 96.716C28.4916 95.3368 28.3922 93.9566 28.3033 92.5756C28.1552 90.6897 28.039 88.8015 27.9546 86.9108C27.8825 85.0205 27.5818 80.8997 28.7774 79.4977C29.1072 79.1111 29.5383 78.8432 29.9948 78.6828C31.037 78.3167 32.2639 78.2788 33.3498 78.1987C34.9665 78.0914 36.5841 78.0069 38.2028 77.9453C44.122 77.711 50.0427 77.6436 55.965 77.7431C57.44 77.7595 58.9145 77.7984 60.3885 77.8599C61.524 77.9044 62.6759 77.923 63.7959 78.1529C64.4204 78.2812 65.0727 78.5228 65.5436 79.0105C65.9048 79.3847 66.1398 79.9308 66.2867 80.4448C66.5906 81.5082 66.6795 82.7041 66.8247 83.8044C67.1209 86.2093 67.3539 88.6217 67.5236 91.0414C67.6933 93.4611 67.7995 95.8842 67.8421 98.3107C67.5872 98.2758 67.3064 98.2852 67.0591 98.223C67.0169 97.2539 67.002 96.2836 66.9561 95.3147C66.7995 91.6563 66.5101 88.0108 66.0881 84.3779C65.9413 83.1529 65.8277 81.6468 65.4494 80.4923C65.3465 80.1785 65.1773 79.8778 64.9528 79.6516C64.5718 79.2677 63.9964 79.11 63.5005 79.0183C62.5107 78.8353 61.4881 78.8195 60.4868 78.7793C58.7261 78.7085 56.9678 78.6962 55.2063 78.671C47.8055 78.5393 40.4102 78.7033 33.0202 79.1628C31.9096 79.2397 30.1144 79.2287 29.342 80.2291C29.0032 80.6679 28.8675 81.2438 28.7966 81.8025C28.5786 83.5223 28.7351 85.5031 28.811 87.2405C29.0012 91.2432 29.2892 95.2374 29.675 99.223C29.9454 102.133 30.2485 105.039 30.5844 107.941C30.6886 108.836 30.7949 110.463 31.0135 111.275C31.0253 111.318 31.0385 111.361 31.0532 111.404C31.0679 111.446 31.084 111.488 31.1016 111.529C31.1192 111.57 31.1382 111.61 31.1585 111.65C31.1788 111.689 31.2005 111.728 31.2235 111.766C31.2465 111.803 31.2708 111.84 31.2963 111.876C31.3218 111.912 31.3485 111.946 31.3764 111.98C31.4043 112.013 31.4333 112.045 31.4634 112.076C31.4935 112.107 31.5246 112.137 31.5568 112.166C31.9644 112.526 32.4618 112.594 32.9643 112.523C33.4947 112.449 34.0149 112.292 34.5418 112.195L34.4504 113.137L34.1674 113.202C34.2609 113.236 34.3413 113.25 34.4383 113.262C34.4157 113.54 34.4076 113.835 34.3413 114.105C33.8336 114.09 33.3194 114.012 32.8123 114.038C32.6238 114.31 32.4677 114.62 32.2985 114.907C31.9818 115.444 31.662 115.98 31.3391 116.513C30.4608 117.966 29.5396 119.4 28.698 120.879C28.6223 121.012 28.5002 121.177 28.5544 121.34C28.6222 121.544 28.8977 121.665 29.0687 121.734C30.1117 122.159 31.3941 122.265 32.5019 122.44L35.7176 122.97L52.5225 125.595L63.2742 127.32C64.8469 127.599 66.4223 127.857 68.0005 128.095C68.8099 128.223 69.6418 128.401 70.4561 128.463C71.4871 128.541 71.4768 128.377 72.3642 127.96C72.5062 127.893 72.6503 127.847 72.7956 127.933C72.8804 127.983 72.9229 128.064 72.9485 128.162C72.9843 128.3 72.9411 128.478 72.8742 128.597C72.6542 128.987 72.0356 129.233 71.6438 129.316C71.4753 129.352 71.3054 129.375 71.1341 129.387C70.9628 129.399 70.7915 129.399 70.6202 129.387C69.5939 129.319 68.4647 129.074 67.4366 128.915L60.5357 127.798L47.6214 125.693L35.7591 123.862C33.8029 123.554 31.8297 123.284 29.8855 122.895C29.2959 122.777 28.6139 122.627 28.1159 122.238C27.8872 122.059 27.7309 121.814 27.6889 121.504C27.6562 121.264 27.7051 121.011 27.7978 120.792C28.1172 120.038 28.7678 119.116 29.1998 118.403C30.2047 116.744 31.1905 115.05 32.2777 113.454C31.9962 113.384 31.7242 113.294 31.4493 113.197Z" fill="black"/>
<path d="M34.5415 112.195C34.0146 112.293 33.4944 112.449 32.964 112.523C32.4615 112.594 31.9641 112.527 31.5565 112.166C31.5243 112.137 31.4932 112.108 31.4631 112.077C31.433 112.046 31.404 112.013 31.3761 111.98C31.3482 111.946 31.3215 111.912 31.2959 111.876C31.2704 111.84 31.2462 111.804 31.2232 111.766C31.2002 111.728 31.1785 111.69 31.1582 111.65C31.1378 111.611 31.1189 111.57 31.1013 111.529C31.0837 111.488 31.0676 111.446 31.0529 111.404C31.0382 111.362 31.025 111.319 31.0132 111.275C30.7946 110.463 30.6882 108.836 30.5841 107.942C30.2482 105.04 29.9451 102.134 29.6747 99.2233C29.2889 95.2376 29.0009 91.2434 28.8107 87.2407C28.7348 85.5033 28.5783 83.5225 28.7963 81.8027C28.8672 81.244 29.0029 80.6681 29.3417 80.2293C30.1141 79.2289 31.9093 79.2399 33.0199 79.163C40.4099 78.7035 47.8052 78.5396 55.206 78.6712C56.9675 78.6964 58.7257 78.7087 60.4865 78.7795C61.4878 78.8198 62.5104 78.8356 63.5001 79.0185C63.9961 79.1103 64.5714 79.2679 64.9525 79.6518C65.177 79.878 65.3462 80.1787 65.449 80.4925C65.8274 81.647 65.941 83.1531 66.0877 84.3782C66.5098 88.011 66.7991 91.6566 66.9558 95.3149C67.0017 96.2838 67.0166 97.2541 67.0588 98.2232C67.3061 98.2854 67.5869 98.276 67.8418 98.3109C69.0931 98.6365 70.067 99.055 70.7688 100.315C71.0041 100.737 71.1517 101.202 71.3447 101.647C72.4444 100.706 73.4857 100.025 74.9281 100.217C76.0534 100.367 77.0758 101.067 77.7688 102.045C78.5278 103.115 78.9086 104.339 79.0511 105.677C79.2982 107.995 78.8726 110.373 78.6541 112.674C78.3702 115.779 78.0553 118.88 77.7096 121.978C77.5038 123.727 76.943 124.968 75.6481 126.067C75.1491 126.49 74.5499 126.802 73.9536 127.02C72.4556 127.588 71.0789 127.614 69.6133 126.908C68.5614 126.402 67.4765 125.466 66.9251 124.341C66.6922 123.865 66.535 123.317 66.3562 122.813C66.1972 123.067 66.0076 123.275 65.7965 123.477C64.5361 124.686 62.8696 125.435 61.1812 125.296C59.2614 125.138 57.7731 123.84 56.5692 122.29L41.3169 119.982L36.5875 119.261C35.8623 119.151 34.9168 119.073 34.2268 118.892C34.0733 118.851 34.0011 118.747 33.9014 118.619C33.9125 117.856 34.0459 117.079 34.1214 116.32C34.1944 115.586 34.2153 114.829 34.341 114.105C34.4073 113.835 34.4154 113.54 34.438 113.262C34.341 113.25 34.2605 113.236 34.167 113.202L34.4501 113.137L34.5415 112.195Z" fill="#FEFDFD"/>
<path d="M60.849 91.8242C60.9545 91.6507 61.0453 91.5187 61.2407 91.4752C61.3572 91.4493 61.4665 91.4715 61.5621 91.5514C61.6522 91.6267 61.7304 91.7458 61.7554 91.8674C61.9096 92.6188 61.9156 93.5551 61.9842 94.3335C62.1666 96.4056 62.3132 98.4811 62.5303 100.55C62.3343 100.844 62.0017 101.424 61.7456 101.618L61.7213 101.621C61.7172 100.437 61.5092 98.9325 61.394 97.7404L60.849 91.8242Z" fill="#02C0A1"/>
<path d="M37.8831 92.714C37.9594 92.7234 38.0495 92.7261 38.1222 92.7521C38.2301 92.7908 38.302 92.8981 38.3442 93.009C38.5036 93.4277 38.5491 97.6548 38.5666 98.2966L38.7816 105.315C38.9526 109.2 39.1027 113.085 39.2316 116.971C39.2365 117.152 39.2399 117.407 39.1567 117.568C39.0824 117.711 38.9877 117.758 38.8494 117.804C38.7155 117.77 38.5681 117.739 38.464 117.633C38.361 117.527 38.3114 117.348 38.2993 117.198C38.2765 116.914 38.3074 116.622 38.293 116.337C38.2076 114.648 38.1684 112.961 38.1041 111.271L37.7335 101.053C37.6581 98.3881 37.6287 95.7158 37.5177 93.0528C37.6239 92.8933 37.7156 92.7936 37.8831 92.714Z" fill="#02C0A1"/>
<path d="M38.795 89.2763C38.776 89.1839 38.764 89.1024 38.7789 89.0078C38.8116 88.799 38.9854 88.6454 39.1349 88.532C39.4432 88.2983 39.8013 88.1296 40.1216 87.9132C40.8407 87.4246 41.5573 86.9318 42.2714 86.4347C42.7269 86.1179 43.2465 85.672 43.7534 85.4803C44.0244 85.3778 54.9336 85.0738 55.1555 85.1225C55.5523 85.2096 55.9728 85.4487 56.3483 85.6179L58.8462 86.7653C59.4406 87.0396 60.0828 87.2623 60.6556 87.5825C60.7795 87.6517 60.9269 87.745 60.9995 87.8804C61.0748 88.0208 61.0453 88.1395 61.014 88.2885C60.2966 89.5636 59.4458 90.7654 58.6818 92.0094L56.5716 95.434C56.1703 96.0848 55.781 96.7645 55.3489 97.3902C55.2798 97.4902 55.2128 97.5774 55.1008 97.6184C55.0061 97.653 54.9321 97.6381 54.8437 97.5936C54.3971 97.369 53.9583 97.0064 53.5378 96.7232C52.5242 96.0406 51.5039 95.3295 50.4539 94.7176C50.7227 97.0186 50.9213 99.3338 51.1411 101.641L51.8124 108.297L52.3586 113.66C52.4106 114.155 52.4681 114.649 52.5311 115.142C52.5577 115.344 52.6194 115.561 52.6262 115.763C52.6309 115.903 52.5875 116.055 52.5123 116.168C52.4383 116.279 52.3145 116.375 52.187 116.386C52.0874 116.395 52.0124 116.356 51.9398 116.284C51.8395 116.186 51.7983 116.02 51.7734 115.882C51.7039 115.494 51.7069 115.09 51.656 114.699C51.4434 113.065 51.3153 111.422 51.1469 109.782L49.6618 94.7519C48.8275 95.4323 48.0021 96.1254 47.1856 96.8313C46.6645 97.2826 46.132 97.8184 45.5649 98.1972C45.469 98.2612 45.4003 98.3098 45.2836 98.2974C45.1669 98.285 45.0874 98.2037 45.0138 98.1121C44.5192 97.4957 44.0722 96.8059 43.6147 96.1553L41.2291 92.7523C40.711 92.0125 40.1889 91.2761 39.6627 90.5432C39.4101 90.1892 39.1326 89.8382 38.9024 89.4669C38.8636 89.4054 38.8278 89.3418 38.795 89.2763Z" fill="black"/>
<path d="M53.9806 86.0339C54.0707 86.0297 54.1158 86.0211 54.2002 86.0652C54.1989 86.0914 54.2035 86.1189 54.1962 86.144C54.1504 86.3017 53.5927 87.149 53.4698 87.3603C52.3164 89.3444 51.189 91.3537 49.9769 93.295C49.1185 92.2123 48.297 91.0691 47.4759 89.9509L45.7028 87.5832C45.396 87.1709 45.0704 86.7699 44.7966 86.3298C45.9679 86.214 47.1696 86.2474 48.3456 86.2113C50.2236 86.1388 52.1019 86.0796 53.9806 86.0339Z" fill="#FEFDFD"/>
<path d="M43.7849 86.4677C45.0927 88.1829 46.3838 89.9132 47.6581 91.6584C48.2082 92.3977 48.8289 93.0981 49.3304 93.8775C48.3345 94.7054 47.3453 95.5429 46.3628 96.3898C46.1954 96.5324 45.6178 97.0831 45.463 97.1505C45.4393 97.1608 45.4121 97.1531 45.3866 97.1545C44.1965 95.5408 43.0721 93.8559 41.9149 92.2128C41.2143 91.2182 40.4316 90.2626 39.7916 89.2208C40.1543 88.9369 40.5508 88.6921 40.93 88.4353C41.8842 87.7889 42.8611 87.1648 43.7849 86.4677Z" fill="#FEFDFD"/>
<path d="M55.2004 86.0989C55.8336 86.3038 56.4601 86.6439 57.0693 86.9246C58.0485 87.3757 59.0371 87.8066 59.998 88.3035L55.143 96.092L54.8424 96.5472C53.5146 95.5731 52.1032 94.7106 50.7247 93.8256C51.1974 92.8165 51.8308 91.8513 52.3894 90.8961L55.2004 86.0989Z" fill="#FEFDFD"/>
<path d="M34.6324 110.98C33.8652 110.955 33.2172 110.772 32.6716 110.144C32.3991 109.83 32.2474 109.493 32.1802 109.065C32.0314 108.116 32.0164 106.782 31.9459 105.784L31.427 97.6353L31.1234 92.8573C31.0765 92.0602 31.0562 91.2638 30.9977 90.4672C30.8941 89.0938 30.8047 87.7194 30.7295 86.3438C30.6708 85.3796 30.5854 84.3934 30.6127 83.4274C30.6368 82.575 30.7522 81.6138 31.3452 80.9938C31.7747 80.5447 32.3444 80.4499 32.9094 80.3912C34.0008 80.2778 35.1146 80.3007 36.2105 80.2794C38.0465 80.2438 39.8732 80.2095 41.7096 80.2215C44.5757 80.2401 47.4464 80.1895 50.3129 80.1729L57.8933 80.0497C59.1394 80.0164 60.4165 79.864 61.6601 79.934C62.6725 79.9909 63.6054 80.3601 64.2897 81.2054C64.6465 81.6462 64.8468 82.1063 64.9432 82.6871C65.0815 83.5214 65.0533 84.4386 65.0719 85.2865C65.1119 86.8334 65.1324 88.3805 65.1334 89.928C65.1411 91.8355 65.1566 93.7381 65.1401 95.6461C65.1327 96.4952 65.1512 97.3567 65.1007 98.2033C65.0933 98.3286 65.0814 98.4533 65.0649 98.5775C65.7428 98.3551 66.3537 98.2409 67.0592 98.2231C67.3066 98.2853 67.5874 98.276 67.8423 98.3109C69.0936 98.6364 70.0675 99.055 70.7693 100.315C71.0046 100.737 71.1522 101.202 71.3452 101.647C72.4449 100.706 73.4862 100.025 74.9286 100.217C76.0538 100.367 77.0763 101.067 77.7693 102.045C78.5283 103.115 78.9091 104.339 79.0516 105.677C79.2987 107.995 78.8731 110.373 78.6545 112.674C78.3707 115.779 78.0558 118.88 77.7101 121.978C77.5043 123.727 76.9435 124.968 75.6486 126.067C75.1496 126.49 74.5504 126.802 73.9541 127.02C72.4561 127.588 71.0794 127.614 69.6137 126.908C68.5619 126.401 67.477 125.466 66.9256 124.341C66.6927 123.865 66.5355 123.317 66.3567 122.813C66.1977 123.067 66.0081 123.275 65.797 123.477C64.5366 124.686 62.8701 125.435 61.1816 125.296C59.2619 125.138 57.7735 123.84 56.5697 122.29L41.3174 119.982L36.588 119.261C35.8628 119.151 34.9173 119.073 34.2273 118.892C34.0737 118.851 34.0016 118.747 33.9019 118.619C34.6931 118.481 35.5304 118.459 36.3296 118.395C38.1987 118.245 40.0676 118.141 41.9384 118.023C46.8895 117.655 51.8429 117.331 56.7987 117.051C57.2873 115.166 57.9299 113.332 58.4784 111.468C59.0653 109.474 59.6364 107.474 60.2441 105.488C60.4171 104.922 60.5595 104.343 60.7451 103.783C60.8446 103.483 60.9674 103.183 61.1052 102.902C61.2816 102.542 61.686 102.018 61.7213 101.621L61.7456 101.619C62.0017 101.425 62.3343 100.844 62.5304 100.55C63.0126 100.019 63.5409 99.5127 64.1212 99.1159C64.2998 98.9938 64.9006 98.7232 64.9824 98.5954C64.9376 98.2119 64.9254 97.8233 64.8799 97.4386C64.723 96.1105 64.5288 94.7923 64.352 93.4679C64.2398 92.6278 64.1729 91.7332 63.9542 90.9176C63.8519 90.5359 63.7018 90.1851 63.4901 89.8616C62.8604 88.8991 62.0596 88.4754 61.0137 88.2885C61.0451 88.1395 61.0745 88.0208 60.9992 87.8804C60.9266 87.745 60.7792 87.6517 60.6553 87.5825C60.0825 87.2623 59.4403 87.0396 58.846 86.7653L56.348 85.6179C55.9725 85.4487 55.552 85.2096 55.1552 85.1225C54.9333 85.0738 44.0241 85.3778 43.7531 85.4803C43.2462 85.672 42.7266 86.1179 42.2711 86.4347C41.557 86.9318 40.8404 87.4246 40.1214 87.9132C39.801 88.1296 39.4429 88.2983 39.1347 88.532C38.9851 88.6454 38.8113 88.799 38.7786 89.0078C38.7638 89.1024 38.7757 89.1839 38.7947 89.2763C38.1725 89.2524 37.3949 89.8379 36.9585 90.2817C36.3551 90.8953 35.9198 91.6618 35.7212 92.5398C35.5393 93.3445 35.5265 94.2095 35.4867 95.0352L35.3315 98.6743L34.6324 110.98Z" fill="#FDA7CF"/>
<path d="M71.7515 106.094C72.0235 104.913 72.2406 103.188 73.2838 102.519C73.8251 102.171 74.4828 102.147 75.0765 102.331C76.0754 102.642 76.8346 103.504 77.323 104.481C77.7768 105.389 78.1608 107.114 78.081 108.146C77.4683 106.888 76.5942 105.94 75.3241 105.526C74.046 105.109 72.8937 105.407 71.7515 106.094Z" fill="#FE4B11"/>
<path d="M62.5293 103.944C63.4193 102.382 64.3439 100.915 66.0823 100.475C66.9013 100.268 67.8787 100.263 68.6117 100.771C69.1849 101.168 69.5309 101.786 69.6776 102.506C69.9054 103.624 69.3786 104.716 69.1613 105.787C69.16 105.793 69.1579 105.8 69.1561 105.806C68.7086 104.804 68.0212 104.039 67.0906 103.577C66.0321 103.051 64.722 102.999 63.6252 103.419C63.2592 103.56 62.9255 103.781 62.5634 103.931L62.5293 103.944Z" fill="#FE4B11"/>
<path d="M60.6353 80.9341C60.793 80.927 60.9306 80.9576 61.0565 81.0682C61.067 81.0774 61.0771 81.0871 61.0867 81.0975C61.0963 81.1079 61.1054 81.1188 61.114 81.1302C61.1225 81.1416 61.1305 81.1535 61.138 81.1658C61.1454 81.1781 61.1522 81.1909 61.1584 81.204C61.1647 81.2171 61.1702 81.2306 61.1751 81.2444C61.1801 81.2581 61.1843 81.2721 61.1879 81.2864C61.1915 81.3007 61.1944 81.3151 61.1965 81.3297C61.1988 81.3443 61.2003 81.359 61.2011 81.3738C61.2021 81.3885 61.2023 81.4033 61.2018 81.4181C61.2012 81.4329 61.2 81.4477 61.198 81.4623C61.196 81.4769 61.1933 81.4914 61.1899 81.5057C61.1864 81.52 61.1823 81.5341 61.1774 81.5479C61.1725 81.5617 61.1669 81.5752 61.1607 81.5883C61.1545 81.6015 61.1477 81.6142 61.1402 81.6264C61.1327 81.6388 61.1246 81.6506 61.1159 81.6619C61.1072 81.6732 61.098 81.684 61.0882 81.6942C60.9663 81.8204 60.7759 81.8382 60.6164 81.8521C59.5124 81.9475 58.3779 81.9182 57.2707 81.9304L52.6095 82.0193L34.2205 82.4148C34.0689 82.4159 33.9302 82.4237 33.8065 82.3116C33.7006 82.2157 33.5929 82.0623 33.5927 81.9048C33.5926 81.8018 33.6367 81.7242 33.6991 81.6525C33.8003 81.5363 33.8905 81.5178 34.0316 81.5032C34.7584 81.4276 35.5345 81.4785 36.2667 81.4692C37.6281 81.4493 38.9893 81.421 40.3504 81.3842C45.0678 81.3029 49.7846 81.1951 54.5009 81.0607C56.5443 81.0136 58.5942 81.0515 60.6353 80.9341Z" fill="black"/>
<path d="M71.7518 106.094C72.894 105.407 74.0462 105.109 75.3243 105.526C76.5945 105.94 77.4685 106.888 78.0813 108.146C78.0947 108.291 78.0927 108.405 78.0639 108.547C77.9832 109.257 77.9402 109.964 77.8367 110.672C77.701 111.601 77.5079 112.524 77.334 113.445L76.6416 117.165L76.0706 120.162C75.9575 120.75 75.8594 121.349 75.7129 121.928C75.6959 121.997 75.6773 122.065 75.6572 122.133C75.6371 122.202 75.6155 122.269 75.5923 122.336C75.5691 122.403 75.5445 122.469 75.5184 122.535C75.4922 122.6 75.4646 122.665 75.4355 122.729C75.4064 122.793 75.3759 122.856 75.3439 122.919C75.312 122.981 75.2786 123.042 75.2439 123.103C75.2092 123.163 75.1731 123.223 75.1357 123.282C75.0982 123.34 75.0595 123.398 75.0195 123.454C74.9794 123.511 74.9381 123.566 74.8956 123.62C74.8531 123.674 74.8094 123.727 74.7644 123.779C74.7195 123.831 74.6734 123.882 74.6262 123.931C74.579 123.98 74.5306 124.028 74.4812 124.075C74.4318 124.121 74.3814 124.167 74.33 124.211C74.2786 124.255 74.2262 124.297 74.1728 124.338C74.1194 124.379 74.0651 124.419 74.01 124.457C73.9548 124.495 73.8989 124.531 73.842 124.566C72.9519 125.116 71.8126 125.181 70.8408 124.881C69.8859 124.587 69.0213 123.863 68.5435 122.902C68.2547 122.321 68.1084 121.663 68.1543 121.001C68.1975 120.379 68.3902 119.752 68.5343 119.152L69.2625 116.121C69.8439 113.661 70.3999 111.197 71.0053 108.744C71.1504 108.156 71.2703 107.558 71.4269 106.974C71.3595 106.848 71.309 106.731 71.3353 106.581C71.3747 106.357 71.5953 106.215 71.7518 106.094Z" fill="#FE4B11"/>
<path d="M71.752 106.093C72.8942 105.407 74.0464 105.108 75.3245 105.525C76.5947 105.939 77.4687 106.887 78.0815 108.146C78.0949 108.29 78.0929 108.404 78.0641 108.546C77.9868 108.628 77.9017 108.708 77.7958 108.738C77.6541 108.778 77.5176 108.72 77.4113 108.616C77.2588 108.467 77.1453 108.173 77.0338 107.979C76.7377 107.464 76.2661 107.001 75.7908 106.693C75.759 106.673 75.7269 106.653 75.6945 106.634C75.6621 106.615 75.6294 106.597 75.5964 106.579C75.5635 106.561 75.5302 106.544 75.4967 106.527C75.4632 106.51 75.4295 106.494 75.3955 106.479C75.3615 106.463 75.3273 106.449 75.2929 106.434C75.2585 106.42 75.2238 106.407 75.189 106.394C75.1541 106.381 75.1191 106.369 75.0839 106.357C75.0487 106.346 75.0133 106.335 74.9778 106.324C74.9422 106.314 74.9065 106.304 74.8707 106.295C74.8349 106.286 74.7989 106.278 74.7628 106.27C74.7267 106.262 74.6905 106.255 74.6542 106.249C74.6179 106.243 74.5815 106.237 74.5451 106.232C74.5085 106.227 74.472 106.223 74.4354 106.219C74.3988 106.215 74.3621 106.212 74.3255 106.21C74.2887 106.208 74.252 106.206 74.2153 106.205C74.1785 106.204 74.1417 106.204 74.105 106.204C74.0682 106.204 74.0315 106.205 73.9947 106.207C73.958 106.209 73.9213 106.211 73.8846 106.214C73.848 106.217 73.8114 106.221 73.7748 106.225C73.7383 106.23 73.7018 106.235 73.6654 106.24C73.629 106.246 73.5927 106.252 73.5565 106.26C73.5203 106.267 73.4842 106.274 73.4483 106.283C73.4123 106.291 73.3765 106.3 73.3407 106.31C73.3051 106.319 73.2696 106.33 73.2342 106.341C73.1988 106.352 73.1636 106.363 73.1286 106.376C73.0936 106.388 73.0587 106.401 73.0241 106.414C72.9895 106.428 72.9551 106.442 72.9208 106.457C72.8866 106.472 72.8527 106.487 72.819 106.503C72.7852 106.519 72.7517 106.536 72.7185 106.553C72.6853 106.571 72.6523 106.588 72.6196 106.607C72.5869 106.625 72.5545 106.644 72.5224 106.664C72.4903 106.684 72.4585 106.704 72.427 106.725C72.2469 106.843 72.0291 107.121 71.821 107.151C71.6744 107.171 71.5412 107.057 71.4271 106.974C71.3597 106.848 71.3092 106.73 71.3355 106.58C71.3749 106.356 71.5955 106.215 71.752 106.093Z" fill="black"/>
<path d="M71.7019 110.155C72.5788 110.462 73.4251 111.439 73.9992 112.193C74.6994 111.876 76.093 111.466 76.8216 111.693C76.9147 111.722 77.0244 111.782 77.0609 111.888C77.0956 111.988 77.0611 112.112 77.024 112.205C76.9678 112.347 76.9089 112.434 76.7752 112.495C76.4676 112.634 76.0559 112.596 75.7251 112.635C75.3323 112.682 74.9237 112.78 74.5539 112.934L74.5132 112.952C74.8712 113.36 75.7635 114.518 75.8011 115.053C75.8077 115.148 75.7909 115.249 75.7261 115.317C75.5883 115.461 75.3993 115.43 75.2273 115.412C75.1615 115.382 75.1106 115.348 75.0611 115.29C74.8492 115.04 74.6652 114.672 74.4819 114.389C74.2249 113.993 73.944 113.619 73.6568 113.248C72.9233 113.499 72.2455 113.87 71.5658 114.255C71.4055 114.346 71.25 114.392 71.0731 114.322C70.9507 114.274 70.8377 114.179 70.7953 114.039C70.7658 113.942 70.7801 113.857 70.8179 113.767C71.018 113.287 72.6431 112.725 73.1388 112.526C72.926 112.211 72.6528 111.94 72.3808 111.688C72.0717 111.402 71.4748 111.077 71.3429 110.649C71.3146 110.557 71.3142 110.461 71.3618 110.375C71.4358 110.243 71.5727 110.19 71.7019 110.155Z" fill="black"/>
<path d="M62.5284 103.944L62.5624 103.93C62.9245 103.781 63.2583 103.559 63.6243 103.419C64.7211 102.998 66.0312 103.051 67.0897 103.576C68.0203 104.038 68.7077 104.803 69.1552 105.805C69.1909 105.989 69.2248 106.136 69.1219 106.303C69.0683 106.389 68.9919 106.464 68.9238 106.537C68.6478 107.379 68.4784 108.272 68.2513 109.132C67.6913 111.241 67.1552 113.358 66.6429 115.481L65.9246 118.518C65.7174 119.399 65.5764 120.59 65.126 121.352C64.6562 122.148 63.8271 122.658 62.9957 122.846C61.939 123.084 60.8496 122.788 59.9626 122.13C59.1633 121.537 58.5298 120.599 58.3502 119.548C58.2586 119.011 58.2844 118.47 58.38 117.936C58.4926 117.309 58.6883 116.684 58.8501 116.069L59.9356 112.086L60.8954 108.58C61.1385 107.665 61.3568 106.73 61.6605 105.837C61.8206 105.366 62.0055 104.916 62.2653 104.501C62.2671 104.484 62.2684 104.467 62.2707 104.45C62.3009 104.221 62.3568 104.082 62.5284 103.944Z" fill="#FE4B11"/>
<path d="M62.5283 103.944L62.5624 103.93C62.9245 103.781 63.2582 103.559 63.6243 103.419C64.721 102.998 66.0312 103.051 67.0897 103.576C68.0203 104.038 68.7076 104.804 69.1551 105.806C69.1908 105.99 69.2247 106.136 69.1218 106.303C69.0682 106.39 68.9919 106.464 68.9237 106.537C68.7923 106.534 68.6709 106.527 68.5668 106.425C68.3962 106.258 68.2774 105.96 68.1597 105.743C67.7525 104.993 67.1251 104.484 66.3661 104.228C65.5121 103.94 64.4938 103.999 63.6782 104.405C63.4408 104.523 63.2292 104.693 62.9964 104.82C62.8517 104.899 62.694 104.936 62.5393 104.87C62.3944 104.808 62.3221 104.648 62.2652 104.502C62.267 104.485 62.2683 104.467 62.2706 104.45C62.3008 104.221 62.3567 104.082 62.5283 103.944Z" fill="black"/>
<path d="M62.168 107.754C62.8709 107.861 63.9464 109.157 64.4289 109.729C65.0024 109.483 66.5832 108.899 67.1506 109.074C67.2543 109.106 67.3572 109.169 67.4042 109.281C67.4506 109.392 67.4444 109.532 67.4039 109.643C67.3675 109.744 67.3109 109.827 67.2194 109.874C67.0079 109.984 66.6882 109.997 66.457 110.041C65.968 110.136 65.4823 110.263 65.0332 110.499C65.4443 111.033 66.0637 111.916 66.2821 112.576C66.3203 112.692 66.3451 112.815 66.2822 112.927C66.1769 113.115 65.9601 113.142 65.7799 113.172C65.3986 112.898 64.6347 111.353 64.2492 110.802C63.5495 111.091 62.9435 111.508 62.3014 111.917C62.1397 112.02 61.9776 112.109 61.7877 112.043C61.6654 112 61.5186 111.882 61.4734 111.748C61.4475 111.67 61.4568 111.588 61.4864 111.514C61.6966 110.986 63.1509 110.34 63.6605 110.125C63.259 109.603 62.0425 108.776 61.8676 108.349C61.8197 108.233 61.8018 108.115 61.8554 107.995C61.9211 107.847 62.0377 107.805 62.168 107.754Z" fill="black"/>
</svg>
