<svg width="366" height="171" viewBox="0 0 366 171" fill="none" xmlns="http://www.w3.org/2000/svg">
<path d="M319.579 56.9627C319.906 57.2716 320.23 57.5857 320.568 57.8822C320.834 58.1151 321.118 58.3341 321.372 58.5787C321.446 58.7384 321.475 58.8944 321.417 59.0654C321.368 59.206 321.255 59.317 321.118 59.3719C320.978 59.4276 320.811 59.4344 320.673 59.3724C320.593 59.3367 320.525 59.2769 320.459 59.2213C319.953 58.7827 319.435 58.3524 318.952 57.8892C318.879 57.8182 318.808 57.7305 318.763 57.6389C318.755 57.6225 318.748 57.6057 318.742 57.5886C318.736 57.5714 318.731 57.554 318.726 57.5364C318.722 57.5187 318.719 57.5008 318.716 57.4828C318.714 57.4647 318.712 57.4466 318.712 57.4284C318.711 57.4101 318.712 57.3919 318.713 57.3738C318.715 57.3556 318.717 57.3376 318.72 57.3197C318.723 57.3018 318.728 57.284 318.733 57.2666C318.738 57.2491 318.744 57.232 318.751 57.2152C318.758 57.1986 318.766 57.1823 318.774 57.1665C318.783 57.1507 318.792 57.1353 318.802 57.1204C318.813 57.1055 318.823 57.0912 318.835 57.0774C318.847 57.0636 318.859 57.0504 318.872 57.0378C318.884 57.0252 318.898 57.0133 318.912 57.002C318.926 56.9908 318.941 56.9803 318.956 56.9706C318.971 56.9608 318.986 56.9518 319.003 56.9435C319.019 56.9353 319.035 56.9279 319.052 56.9214C319.241 56.8458 319.399 56.8833 319.579 56.9627Z" fill="black"/>
<path d="M318.952 57.8892C319.435 58.3523 319.953 58.7826 320.459 59.2212C320.281 59.3957 320.1 59.5655 319.914 59.7305C319.507 60.0934 317.841 61.5203 317.353 61.4923L317.315 61.4363C317.266 60.8796 317.928 59.6697 318.222 59.1749C318.462 58.7706 318.771 58.3635 318.939 57.9236C318.944 57.9122 318.947 57.9006 318.952 57.8892Z" fill="#ACE4EB"/>
<path d="M314.511 54.4006C314.999 54.7383 315.424 54.9392 316.013 55.027C315.708 55.9495 315.465 56.9299 315.082 57.8218C314.781 58.0275 314.497 58.092 314.135 58.0207C313.799 57.9547 313.39 57.7563 313.204 57.4556C313.114 57.3091 313.097 57.1456 313.139 56.9806C313.249 56.5545 314.235 54.8713 314.511 54.4006Z" fill="#FDA5CF"/>
<path d="M351.676 42.77C352.109 42.4742 353.393 41.5543 353.881 41.6339C354.376 41.7147 354.672 42.2441 354.925 42.6262C355.474 43.4573 355.986 44.3142 356.537 45.1436C356.931 45.7352 357.55 46.5377 357.845 47.1614C357.913 47.3063 357.925 47.514 357.89 47.6693C357.859 47.803 357.747 47.9188 357.651 48.0098C357.311 48.3312 356.866 48.5939 356.484 48.8671C356.285 49.0092 356.088 49.1851 355.879 49.3097C355.871 49.3145 355.863 49.3188 355.855 49.3233C355.66 48.8215 355.148 48.1625 354.85 47.6939L352.588 44.1606C352.289 43.6949 351.958 43.2452 351.676 42.77Z" fill="#FD4B11"/>
<path d="M326.751 58.1864C326.868 58.5021 327.117 58.8108 327.299 59.0958L328.371 60.788C329.347 62.3501 330.298 63.9259 331.296 65.4741C331.586 65.9236 331.855 66.4037 332.163 66.8387C331.542 67.0761 330.993 67.5571 330.344 67.712C328.994 66.9296 327.826 66.4653 326.25 66.8793C325.434 67.0935 323.676 67.778 322.996 68.2339C322.705 67.5149 322.075 66.6273 321.685 65.9114C322.067 65.6075 322.435 65.2762 322.805 64.9565C323.987 63.9336 324.897 62.9362 324.95 61.2888C324.963 60.8747 324.795 59.9035 324.854 59.643C324.942 59.2514 326.372 58.4334 326.751 58.1864Z" fill="#FD4B11"/>
<path d="M322.892 47.2441C323.648 47.8773 324.352 48.5823 325.073 49.255L328.494 52.4147C328.944 52.8297 329.397 53.2411 329.853 53.6487C330.017 53.7956 330.188 53.9859 330.368 54.1083C330.372 54.2396 330.357 54.3336 330.263 54.4323C330.203 54.496 330.123 54.5382 330.039 54.5615C330.032 54.567 330.025 54.5725 330.017 54.5782C329.557 54.9366 328.679 56.1697 328.109 56.1097C327.705 56.0671 327.3 55.8747 326.889 55.8109C325.501 55.5955 324.068 56.2713 322.992 57.0961C322.402 57.5481 321.925 58.0904 321.372 58.5784C321.118 58.3338 320.834 58.1148 320.568 57.8819C320.23 57.5853 319.906 57.2712 319.579 56.9623C320.088 56.4089 320.492 55.7091 320.855 55.0523C321.567 53.7627 321.852 52.3561 321.364 50.9302C321.225 50.5233 320.967 50.1561 320.854 49.7434C320.85 49.7314 320.847 49.7194 320.844 49.7073C320.963 49.3947 322.172 48.1288 322.508 47.6922C322.626 47.5301 322.752 47.3875 322.892 47.2441Z" fill="#ACE4EB"/>
<path d="M322.892 47.2444C323.648 47.8776 324.352 48.5827 325.073 49.2554L328.494 52.4151C328.943 52.8301 329.397 53.2414 329.853 53.6491C330.017 53.7959 330.188 53.9863 330.368 54.1087C330.372 54.24 330.356 54.3339 330.263 54.4327C330.203 54.4963 330.123 54.5385 330.039 54.5618C329.579 54.2731 329.174 53.8792 328.77 53.5182C327.902 52.7443 327.07 51.9348 326.216 51.1469C325.32 50.3206 324.403 49.5181 323.519 48.6795C323.18 48.358 322.82 48.0394 322.507 47.6925C322.626 47.5305 322.751 47.3878 322.892 47.2444Z" fill="black"/>
<path d="M323.354 46.7246C323.31 46.8783 323.015 47.1286 322.892 47.2443C322.752 47.3877 322.626 47.5304 322.508 47.6924C322.172 48.1291 320.963 49.3949 320.844 49.7076C320.085 50.5744 319.351 51.4617 318.641 52.3692C318.168 52.9705 317.707 53.6588 317.16 54.1932C317.011 54.3395 316.874 54.4364 316.669 54.4891C316.694 54.6279 316.704 54.7152 316.623 54.8396C316.552 54.9472 316.401 54.9995 316.28 55.0149C316.192 55.0262 316.101 55.0272 316.013 55.0271C315.424 54.9393 314.999 54.7385 314.511 54.4008C314.451 54.3393 314.392 54.2766 314.334 54.2125C314.247 54.1131 314.169 53.9769 314.192 53.8391C314.215 53.6998 314.317 53.6259 314.424 53.5485C314.407 52.7766 314.569 51.9728 314.675 51.2085L315.109 48.0573C315.193 47.4738 315.32 46.8679 315.318 46.2787C315.08 45.9351 314.66 45.6446 314.505 45.2566C314.25 44.6204 314.834 43.4877 315.096 42.8808C315.174 42.9987 315.25 43.0656 315.373 43.1348C316.02 43.4989 316.873 43.8146 317.571 44.1255L320.758 45.5624C321.623 45.9451 322.506 46.3066 323.354 46.7246Z" fill="#FDA5CF"/>
<path d="M316.669 54.4888C316.694 54.6276 316.704 54.715 316.623 54.8393C316.552 54.9469 316.401 54.9992 316.28 55.0147C316.192 55.0259 316.101 55.027 316.013 55.0269C315.424 54.9391 314.999 54.7383 314.511 54.4006C314.45 54.3391 314.392 54.2763 314.334 54.2123C314.247 54.1129 314.169 53.9767 314.192 53.8388C314.215 53.6996 314.317 53.6256 314.424 53.5482C314.625 53.6523 314.803 53.8174 314.99 53.9457C315.549 54.3283 316.013 54.3929 316.669 54.4888Z" fill="black"/>
<path d="M351.676 42.7697C351.958 43.2449 352.289 43.6946 352.588 44.1603L354.85 47.6936C355.149 48.1622 355.66 48.8213 355.855 49.323C355.709 49.4355 355.562 49.5463 355.423 49.6676C353.356 51.1564 351.377 52.7762 349.367 54.3413C345.62 57.2556 341.847 60.1369 338.049 62.9853C337.261 63.5612 336.465 64.1238 335.659 64.673C335.273 64.9318 332.684 66.5722 332.634 66.6548C332.48 66.7607 332.348 66.8116 332.163 66.8385C331.856 66.4035 331.587 65.9235 331.297 65.4739C330.298 63.9258 329.347 62.35 328.372 60.7878L327.299 59.0956C327.118 58.8106 326.869 58.502 326.751 58.1862C326.911 58.0389 327.057 57.9544 327.267 57.8973C327.716 57.6876 328.139 57.3385 328.545 57.0548L330.65 55.5979C333.803 53.4423 336.906 51.2186 340.111 49.14C341.258 48.4057 342.424 47.7005 343.607 47.0243C344.79 46.348 345.988 45.7016 347.204 45.0852C347.891 44.7311 348.577 44.3633 349.268 44.0188C349.905 43.7011 350.566 43.4072 351.183 43.0504C351.343 42.9449 351.504 42.8548 351.676 42.7697Z" fill="#FD4B11"/>
<path d="M351.676 42.7693C351.958 43.2446 352.289 43.6943 352.588 44.16L354.85 47.6933C355.148 48.1619 355.66 48.8209 355.855 49.3227C355.709 49.4351 355.562 49.546 355.423 49.6673C354.788 48.6212 354.104 47.6018 353.438 46.5749L351.183 43.0501C351.343 42.9446 351.504 42.8545 351.676 42.7693Z" fill="black"/>
<path d="M327.266 57.8976C327.54 58.2596 327.763 58.6703 328.002 59.0567L329.241 61.0411L331.354 64.4066C331.715 64.9822 332.101 65.551 332.436 66.1414C332.529 66.3062 332.615 66.4639 332.634 66.6552C332.479 66.761 332.347 66.8119 332.163 66.8389C331.855 66.4039 331.586 65.9238 331.296 65.4743C330.297 63.9262 329.347 62.3503 328.371 60.7882L327.299 59.096C327.117 58.811 326.868 58.5023 326.751 58.1866C326.91 58.0392 327.056 57.9548 327.266 57.8976Z" fill="black"/>
<path d="M349.438 46.331C349.483 46.3531 349.526 46.3775 349.569 46.4042C349.611 46.4309 349.652 46.4599 349.691 46.491C349.73 46.5221 349.768 46.5552 349.803 46.5903C349.839 46.6255 349.873 46.6624 349.904 46.7012C349.919 46.7187 349.932 46.7365 349.946 46.7547C349.959 46.7729 349.972 46.7914 349.985 46.8103C349.997 46.8292 350.009 46.8484 350.021 46.8679C350.032 46.8874 350.043 46.9071 350.053 46.9272C350.064 46.9473 350.074 46.9676 350.083 46.9882C350.093 47.0088 350.101 47.0296 350.11 47.0506C350.118 47.0717 350.126 47.0929 350.133 47.1143C350.14 47.1358 350.147 47.1574 350.153 47.1792C350.159 47.201 350.164 47.2229 350.169 47.245C350.174 47.2671 350.178 47.2893 350.182 47.3116C350.186 47.3339 350.189 47.3562 350.192 47.3787C350.194 47.4012 350.196 47.4237 350.198 47.4462C350.199 47.4688 350.2 47.4914 350.2 47.514C350.201 47.5366 350.2 47.5592 350.199 47.5818C350.198 47.6044 350.197 47.627 350.195 47.6495C350.193 47.672 350.19 47.6945 350.187 47.7169C350.148 47.9859 350.011 48.3432 349.786 48.5123C349.118 49.0122 348.196 49.5308 347.474 49.973L343.913 52.1721L339.322 55.0026C338.321 55.6264 337.322 56.3 336.289 56.8666C335.923 57.0672 335.558 57.0606 335.168 56.9463C334.891 56.8021 334.66 56.6305 334.502 56.3535C334.491 56.3354 334.481 56.317 334.472 56.2984C334.462 56.2798 334.453 56.2609 334.445 56.2418C334.436 56.2227 334.428 56.2034 334.421 56.1839C334.413 56.1644 334.406 56.1447 334.4 56.1248C334.393 56.1049 334.387 56.0848 334.382 56.0647C334.376 56.0444 334.372 56.0241 334.367 56.0037C334.363 55.9832 334.359 55.9626 334.356 55.9419C334.352 55.9213 334.35 55.9006 334.347 55.8798C334.345 55.859 334.344 55.8382 334.343 55.8173C334.341 55.7964 334.341 55.7755 334.341 55.7546C334.341 55.7337 334.341 55.7128 334.342 55.6919C334.344 55.671 334.345 55.6502 334.347 55.6294C334.35 55.6086 334.352 55.5878 334.356 55.5672C334.359 55.5465 334.363 55.526 334.367 55.5055C334.371 55.485 334.376 55.4647 334.381 55.4445C334.387 55.4243 334.393 55.4043 334.399 55.3844C334.496 55.0756 334.627 54.9465 334.874 54.7575C335.663 54.1569 336.677 53.6253 337.522 53.0827C339.708 51.657 341.916 50.2663 344.145 48.9107C345.114 48.316 346.068 47.6963 347.032 47.0933C347.448 46.8333 347.876 46.5193 348.317 46.3096C348.691 46.1319 349.063 46.1952 349.438 46.331Z" fill="black"/>
<path d="M349.199 46.8182C349.297 46.8893 349.38 46.9589 349.451 47.0571C349.581 47.2347 349.655 47.4509 349.613 47.6713C349.568 47.9078 349.424 48.0467 349.236 48.1805C348.687 48.5705 348.079 48.9057 347.506 49.2621L343.164 51.9336L337.865 55.2118C337.229 55.5976 336.605 56.0706 335.938 56.3966C335.745 56.4907 335.591 56.4767 335.383 56.441C335.251 56.3718 335.138 56.3042 335.05 56.1796C334.935 56.0169 334.888 55.8206 334.932 55.625C334.984 55.395 335.092 55.2717 335.285 55.1439C336.466 54.3599 337.683 53.6268 338.885 52.873C340.856 51.615 342.842 50.3807 344.843 49.1701C345.646 48.6773 346.446 48.1794 347.243 47.6764C347.673 47.4079 348.108 47.1017 348.563 46.8812C348.781 46.7755 348.965 46.7717 349.199 46.8182Z" fill="#FD4B11"/>
<path d="M343.099 25.7978C343.46 26.0606 343.791 26.3858 344.126 26.6816L346.143 28.4912C346.754 29.0408 348.417 30.3678 348.832 30.9844C348.715 31.1161 348.612 31.2492 348.513 31.3944C348.06 32.1669 347.446 32.8691 346.896 33.5759L344.381 36.833L335.548 48.4116L332.718 52.0309C332.222 52.6595 331.741 53.3618 331.178 53.9317C331.104 54.0066 331.032 54.0649 330.93 54.0958C330.785 54.1397 330.612 54.1151 330.464 54.1028C330.407 54.0981 330.43 54.0984 330.368 54.1088C330.188 53.9864 330.017 53.796 329.853 53.6492C329.397 53.2415 328.943 52.8302 328.494 52.4152L325.073 49.2555C324.352 48.5828 323.648 47.8777 322.892 47.2445C323.015 47.1288 323.31 46.8785 323.354 46.7248C323.501 46.6779 323.721 46.3447 323.803 46.2152C324.055 46.0507 325.479 44.2861 325.758 43.9209C326.102 43.558 326.415 43.159 326.741 42.7791C327.484 41.9218 328.214 41.0538 328.932 40.1751C330.102 38.7674 331.306 37.3896 332.545 36.0416C333.657 34.8215 334.878 33.6761 336.075 32.5397L339.896 28.9409C340.852 28.0543 341.739 27.0905 342.706 26.2183L343.099 25.7978Z" fill="#ACE4EB"/>
<path d="M342.24 30.0366C342.509 30.1918 342.743 30.4292 342.873 30.7118C343.013 31.0175 343.033 31.4172 342.899 31.7294C342.69 32.2152 340.951 33.9725 340.511 34.4455C339.151 35.9162 337.781 37.3778 336.402 38.8301C335.278 40.035 334.147 41.2332 333.008 42.4245C332.588 42.8622 332.189 43.3305 331.75 43.7482C331.602 43.889 331.453 44.0116 331.26 44.0859C330.895 44.2261 330.536 44.1841 330.189 44.0252C329.948 43.8741 329.755 43.7163 329.608 43.4654C329.413 43.1312 329.369 42.6752 329.505 42.3084C329.578 42.1119 329.802 41.8779 329.944 41.7213C330.433 41.1792 330.954 40.6618 331.454 40.129L335.769 35.5383L338.999 32.0881C339.487 31.5651 339.948 31.0153 340.452 30.508C340.654 30.3044 340.859 30.088 341.132 29.9826C341.508 29.8369 341.878 29.8841 342.24 30.0366Z" fill="black"/>
<path d="M341.884 30.5312C341.992 30.5937 342.099 30.6543 342.182 30.7492C342.311 30.8957 342.382 31.0873 342.366 31.2825C342.349 31.4813 342.286 31.6099 342.159 31.7606C341.568 32.465 340.889 33.1211 340.259 33.7936L336.056 38.2654C334.893 39.5267 333.72 40.7788 332.537 42.0217C332.141 42.4352 331.671 43.0182 331.237 43.3696C331.036 43.532 330.783 43.5626 330.535 43.539C330.429 43.479 330.33 43.4197 330.25 43.3251C330.11 43.1594 330.022 42.9508 330.052 42.7316C330.082 42.5083 330.271 42.3091 330.416 42.1469C331.199 41.2711 332.034 40.4357 332.838 39.5783L337.834 34.2285C338.57 33.4354 339.311 32.6465 340.056 31.8618C340.43 31.4609 340.806 30.9225 341.254 30.611C341.445 30.4786 341.667 30.4902 341.884 30.5312Z" fill="#ACE4EB"/>
<path d="M315.258 42.5452C315.267 42.4937 315.276 42.447 315.292 42.3972C315.545 41.6157 315.917 40.8252 316.246 40.0708L317.579 37.0066L321.574 27.8713C322.977 24.6276 324.401 21.3929 325.846 18.1674L327.068 15.4003C327.271 14.9411 327.456 14.4563 327.69 14.0129C327.837 13.7353 328.019 13.5409 328.304 13.4038C328.623 13.25 328.87 13.2667 329.196 13.3776C329.508 13.4837 329.809 13.6536 330.109 13.7914L332.093 14.7038C332.925 15.08 333.765 15.4312 334.595 15.8132C334.931 15.968 335.297 16.1084 335.609 16.3069C335.812 16.4365 335.995 16.6297 336.096 16.8502C336.214 17.1078 336.182 17.4125 336.098 17.6748C335.918 18.2325 335.618 18.7819 335.401 19.3296C334.745 20.9493 334.101 22.5739 333.47 24.2032L325.758 43.9204C325.479 44.2856 324.055 46.0502 323.803 46.2147C323.721 46.3442 323.501 46.6774 323.354 46.7243C322.506 46.3064 321.623 45.9448 320.758 45.5621L317.571 44.1253C316.873 43.8143 316.02 43.4986 315.373 43.1345C315.25 43.0653 315.174 42.9984 315.096 42.8805C315.135 42.7618 315.199 42.6546 315.258 42.5452Z" fill="#FDA5CF"/>
<path d="M323.803 46.2146C323.721 46.3441 323.501 46.6772 323.354 46.7241C322.506 46.3062 321.623 45.9446 320.758 45.5619L317.571 44.1251C316.873 43.8141 316.02 43.4984 315.373 43.1343C315.25 43.0652 315.174 42.9982 315.096 42.8803C315.135 42.7616 315.199 42.6545 315.258 42.545C315.292 42.5299 315.31 42.5204 315.347 42.5097C315.446 42.481 315.525 42.4893 315.621 42.5239C316.048 42.6779 316.463 42.8927 316.876 43.0829L319.072 44.0939C320.643 44.8114 322.246 45.4656 323.803 46.2146Z" fill="black"/>
<path d="M332.621 18.5832C332.771 18.672 332.915 18.7634 333.042 18.8855C333.474 19.302 333.684 19.8867 333.692 20.4812C333.697 20.8311 333.585 21.1678 333.455 21.4885C333.126 22.2971 332.736 23.088 332.377 23.8846L330.723 27.6076L327.035 35.9637C326.828 36.4271 325.307 40.1029 325.113 40.2557C325.03 40.3209 324.901 40.3502 324.798 40.3199C324.727 40.2992 324.675 40.2592 324.647 40.1895C324.587 40.0418 324.629 39.8668 324.678 39.7224C324.854 39.1995 325.135 38.6906 325.352 38.1824C325.946 36.7939 326.566 35.4217 327.18 34.0426L330.068 27.4563C330.752 25.9577 331.424 24.454 332.085 22.9453C332.318 22.4251 332.572 21.9125 332.798 21.3893C333.012 20.8915 333.124 20.3403 332.903 19.8208C332.811 19.6051 332.659 19.4241 332.478 19.2779C332.084 18.9611 330.706 18.3206 330.205 18.1262L330.167 18.1119C330.007 18.0749 329.854 18.0482 329.688 18.0527C329.245 18.0646 328.834 18.28 328.552 18.6189C328.215 19.0239 327.352 21.0845 327.072 21.6882L322.957 30.7712L320.705 35.8198C320.515 36.2436 320.327 36.6686 320.142 37.0948C320.06 37.2872 319.995 37.4951 319.902 37.6811C319.871 37.7422 319.831 37.8023 319.781 37.8502C319.704 37.9252 319.608 37.9565 319.502 37.9528C319.397 37.9492 319.349 37.9096 319.279 37.8362C319.217 37.6504 319.257 37.489 319.325 37.309C319.447 36.9862 319.607 36.6689 319.748 36.3539L320.65 34.3539L323.088 28.9484L325.575 23.3944C326.254 21.863 326.923 20.3132 327.668 18.813C327.968 18.2083 328.373 17.7554 329.029 17.5395C329.917 17.2476 330.61 17.5842 331.396 17.9724L332.621 18.5832Z" fill="black"/>
<path d="M313.459 21.3248C313.503 21.3429 313.547 21.3609 313.589 21.3827C313.896 21.5387 314.107 21.8042 314.211 22.1308C314.42 22.7849 314.285 24.2515 314.302 25.0224C314.364 27.7845 314.306 30.5422 314.256 33.3037C314.229 34.8745 314.183 36.4447 314.118 38.0144C314.065 39.6304 314.016 41.2577 313.887 42.8694C313.722 44.9386 313.452 46.9777 313.138 49.0284C313.072 49.4801 313.016 49.933 312.97 50.3871C312.944 50.652 312.943 50.9394 312.891 51.1996C312.805 51.6291 312.225 51.506 311.995 51.9186C311.454 52.8861 310.995 54.4378 310.691 55.5287C310.453 56.3802 310.281 57.268 310.142 58.1412C310.107 58.3566 310.064 59.0217 309.951 59.181C309.863 59.3055 309.642 59.354 309.504 59.3989C309.462 60.2267 309.326 61.9945 308.969 62.7022C308.864 62.9109 308.696 63.1066 308.463 63.1712C308.296 63.2177 308.127 63.2045 307.978 63.1105C307.449 62.775 307.273 60.7403 307.224 60.0913C307.203 59.8259 307.225 59.5333 307.171 59.2756L307.122 59.2633C306.97 59.2327 306.876 59.2094 306.794 59.0647C306.759 59.0017 306.414 56.6298 306.34 56.2746C306.107 55.1434 305.494 52.7741 304.743 51.9193C304.439 51.573 303.899 51.4499 303.707 51.203C303.589 51.0516 303.682 49.3405 303.658 48.9936C303.64 48.7193 303.581 48.4416 303.541 48.1695C303.48 47.72 303.423 47.2699 303.372 46.8191C303.249 45.7154 303.207 44.5841 303.184 43.4739C303.109 39.8579 303.458 36.2246 303.841 32.6333L304.359 27.7597C304.497 26.6461 304.62 25.531 304.729 24.4143C304.796 23.74 304.808 22.9932 304.962 22.334C305.057 21.9287 305.269 21.639 305.628 21.4256C305.85 21.2942 306.083 21.2339 306.337 21.21C306.82 21.1643 307.307 21.1871 307.792 21.1952L309.744 21.2222C310.392 21.2292 311.04 21.2315 311.688 21.2292C312.262 21.2292 312.899 21.1898 313.459 21.3248Z" fill="black"/>
<path d="M312.361 49.4908C312.418 49.5829 312.258 50.6996 312.23 50.8919C312.08 50.9638 311.931 51.0435 311.799 51.1451C311.619 51.284 311.486 51.4491 311.371 51.6442C311.151 52.0198 311.004 52.452 310.852 52.859C310.62 53.4684 310.412 54.0856 310.227 54.7106C310.042 55.3357 309.88 55.9668 309.742 56.6039C309.594 57.3025 309.498 58.0116 309.392 58.7174C308.736 58.7767 308.056 58.6616 307.397 58.6511C307.315 58.1973 307.276 57.7306 307.209 57.2737C307.108 56.5833 306.975 55.8991 306.809 55.2212C306.627 54.5672 306.419 53.9217 306.184 53.2847C305.791 52.2275 305.394 51.3086 304.318 50.8163C304.336 50.3208 304.316 49.8228 304.329 49.3267C306.196 49.392 308.063 49.4355 309.931 49.4572C310.74 49.4659 311.553 49.5113 312.361 49.4908Z" fill="#FCFCFC"/>
<path d="M313.254 21.9415C313.372 22.0054 313.462 22.0806 313.529 22.1984C313.754 22.5925 313.632 24.576 313.634 25.1432C313.638 26.076 313.67 27.0088 313.671 27.9416C313.659 30.4298 313.614 32.9174 313.538 35.4044C313.467 37.9105 313.39 40.4255 313.21 42.9265C313.122 44.0938 313.006 45.2585 312.863 46.4203C312.763 47.2162 312.664 48.0309 312.468 48.8093C309.931 48.7963 307.394 48.758 304.858 48.6947C304.676 48.6858 304.494 48.688 304.311 48.6886C304.23 48.086 304.118 47.4888 304.059 46.8828C303.697 43.1631 303.877 39.4173 304.197 35.7009C304.495 32.5463 304.829 29.3956 305.2 26.2487C305.289 25.4891 305.373 24.7289 305.452 23.9681C305.498 23.4821 305.505 22.9614 305.61 22.486C305.646 22.3248 305.747 22.1753 305.876 22.0734C306.042 21.9423 306.247 21.8944 306.454 21.8737C306.974 21.8217 307.512 21.8513 308.035 21.8604L310.264 21.8975C311.237 21.9117 312.293 21.8317 313.254 21.9415Z" fill="#FCFCFC"/>
<path d="M311.409 23.5251C311.458 23.5481 311.506 23.5729 311.554 23.5996C311.601 23.6262 311.647 23.6546 311.692 23.6848C311.737 23.715 311.781 23.7468 311.824 23.7803C311.867 23.8138 311.908 23.8489 311.948 23.8856C311.989 23.9222 312.027 23.9604 312.064 24C312.102 24.0396 312.137 24.0805 312.171 24.1228C312.205 24.1651 312.238 24.2087 312.268 24.2535C312.299 24.2982 312.328 24.3441 312.356 24.3911C312.652 24.8999 312.722 25.4968 312.733 26.0753C312.743 26.5561 312.699 27.0385 312.671 27.5182C312.628 28.275 312.58 29.0315 312.526 29.7877L312.182 35.234C312.093 36.9485 311.985 38.6619 311.858 40.3742C311.826 40.875 311.89 41.5621 311.753 42.0277C311.72 42.1423 311.655 42.2766 311.538 42.3255C311.463 42.3571 311.371 42.3416 311.3 42.3044C311.144 42.2222 311.093 42.1512 311.09 41.9735C311.084 41.6208 311.136 41.2433 311.161 40.889C311.222 39.9933 311.302 39.0985 311.355 38.2023L311.843 29.7092C311.916 28.6177 312.23 26.164 311.965 25.2159C311.844 24.7809 311.595 24.4112 311.192 24.1909C310.26 23.6805 308.946 23.8415 307.972 24.1303C307.682 24.2515 307.422 24.4092 307.31 24.7197C306.932 25.7686 306.877 29.0287 306.806 30.2659L306.373 37.1923L306.185 40.0934C306.152 40.654 306.156 41.2314 306.092 41.7886C306.08 41.8958 306.056 41.9986 305.969 42.0712C305.881 42.1439 305.764 42.1576 305.656 42.1319C305.574 42.1122 305.502 42.0525 305.465 41.9771C305.411 41.8674 305.428 41.6876 305.433 41.5667C305.478 40.5229 305.573 39.4749 305.642 38.4319L305.932 33.5973L306.285 27.7806C306.326 27.1654 306.34 26.5461 306.398 25.9323C306.441 25.4805 306.482 24.9131 306.666 24.498C306.884 24.009 307.304 23.6848 307.791 23.4913C308.855 23.0685 310.355 23.0747 311.409 23.5251Z" fill="black"/>
<path d="M13.2695 72.762C14.0597 72.7422 14.8708 72.6202 15.6589 72.5422C17.6223 72.3475 19.5776 72.104 21.5383 71.8855L33.2121 70.6155C36.2504 70.268 39.301 69.8482 42.3485 69.6016L42.3581 69.609C44.0642 72.188 45.5197 75.1365 46.2101 78.1595C46.2952 78.5322 46.4825 79.0883 46.4083 79.4639C46.3772 79.6223 46.259 79.7167 46.1282 79.7986C45.4097 80.247 43.5536 80.6972 42.6657 80.9562C41.5368 81.2867 40.4008 81.5912 39.2578 81.8695C38.1148 82.1474 36.9659 82.3988 35.8113 82.6238C34.6566 82.8482 33.4973 83.0462 32.3336 83.2176C31.1697 83.3885 30.0025 83.5325 28.832 83.6496C26.1334 83.8982 23.384 83.9537 20.6745 84.0012C19.9731 84.0131 18.1541 84.1794 17.5705 84.0282C17.5514 84.0231 17.5328 84.0173 17.514 84.0115C17.4978 84.1289 17.4828 84.2485 17.4241 84.3533C17.3571 84.4745 17.2458 84.569 17.1112 84.6048C16.9857 84.6377 16.8661 84.6145 16.7596 84.5409C16.5835 84.4187 16.5289 84.2469 16.4975 84.0446C16.1593 84.204 11.942 84.3438 11.5733 84.1788C11.5191 84.1544 11.4807 84.1316 11.4598 84.0766C11.2819 83.6088 11.3799 82.9077 11.3908 82.4119C11.46 79.291 12.0455 75.6505 13.2695 72.762Z" fill="#FE4B11"/>
<path d="M38.1271 71.6846C38.2451 71.6958 38.3837 71.6993 38.4928 71.7488C38.7415 71.8615 38.8702 72.2685 38.9636 72.5065C39.5773 74.0714 40.1336 75.669 40.6812 77.2576C40.8704 77.806 41.1548 78.4104 41.2716 78.9742C41.2956 79.0904 41.2844 79.2725 41.2259 79.378C41.1636 79.4898 41.109 79.5059 40.9901 79.5291C40.9382 79.5644 40.8926 79.5969 40.8306 79.6121C40.7106 79.6414 40.5976 79.6237 40.4948 79.555C40.4172 79.5027 40.3673 79.4405 40.3317 79.3546C39.9521 78.4345 39.6826 77.4366 39.3514 76.495C39.1308 75.8678 37.8257 72.5571 37.8124 72.2087C37.8037 71.9812 37.9826 71.8381 38.1271 71.6846Z" fill="black"/>
<path d="M23.4845 55.752C25.3168 55.7158 27.0497 55.4876 28.8357 55.0883C28.9554 56.8653 29.2095 60.1563 29.429 61.9232C28.1613 62.8801 26.4671 63.3414 24.8929 63.1184C24.3791 63.0456 23.6086 62.9163 23.2393 62.5194C23.3631 62.4744 23.5278 62.4045 23.6158 62.3051C24.0421 61.824 23.5444 56.5964 23.4845 55.752Z" fill="black"/>
<path d="M16.4976 84.0443C16.6819 81.5757 16.8847 79.1087 17.1061 76.6433C17.1714 75.9288 17.2406 75.2146 17.3135 74.5005C17.3433 74.2081 17.3435 73.8817 17.4043 73.5971C17.4299 73.4774 17.4871 73.369 17.5791 73.2867C17.6765 73.1995 17.8099 73.1488 17.941 73.1551C18.0665 73.1612 18.1946 73.2225 18.2725 73.3227C18.3893 73.4718 18.3958 73.6583 18.3945 73.8404C18.3899 74.4269 18.2851 75.0186 18.2385 75.6036C18.1219 77.0706 18.006 78.5331 17.8643 79.9978C17.736 81.3237 17.7108 82.698 17.5142 84.0112C17.4979 84.1287 17.483 84.2483 17.4243 84.353C17.3573 84.4742 17.246 84.5687 17.1114 84.6046C16.9858 84.6374 16.8662 84.6143 16.7598 84.5406C16.5836 84.4185 16.5291 84.2466 16.4976 84.0443Z" fill="black"/>
<path d="M13.4943 53.0531C7.4702 50.6221 5.98868 41.5533 6.00093 37.3228C5.79893 37.5778 5.06035 37.6906 3.72204 36.1023C2.38373 34.5141 3.70989 33.1466 4.54026 32.6613C3.65442 30.4342 3.38621 26.8124 5.61444 26.6151C3.97115 24.9641 4.70464 23.1026 5.58375 22.4633C6.12387 22.0706 7.33489 22.5235 8.24484 22.9927C6.71204 21.8921 6.71318 20.0912 6.94492 19.2363C8.4861 17.9822 9.61956 18.8409 10.2073 19.7569C9.6865 18.6038 9.2179 16.7948 10.1061 15.6253C10.8089 14.6999 11.6423 15.1296 12.2895 15.831C11.7627 14.8004 11.5981 13.5303 12.9988 12.7867C14.384 12.0512 15.4149 12.8103 16.0512 13.7485C15.6867 12.6623 15.687 11.4183 17.0671 10.9668C19.075 10.31 19.7823 12.7475 19.885 14.0484C19.7986 12.509 20.1897 9.37289 22.445 9.14329C24.3399 8.95039 24.3663 10.6121 24.043 11.8762C24.6069 10.416 26.0173 8.32651 28.5704 8.15186C30.9831 7.98682 30.4963 10.2627 29.6448 12.0791C31.2934 9.4935 33.3274 9.63677 34.3688 9.80938C35.1302 9.93558 34.8141 11.8653 34.416 13.3606C35.1676 11.3835 36.4878 11.1782 37.1262 11.3619C39.3119 12.0367 37.9463 14.2835 36.5049 15.7585C38.7238 13.7656 39.6792 13.7059 40.3973 14.0665C41.865 15.7631 40.211 18.1627 39.2006 19.1505C40.8133 17.7501 41.4962 18.024 41.6362 18.336C42.8109 19.4297 41.817 21.7884 41.1732 22.831C44.5911 22.8469 43.9411 27.5647 43.1261 30.1553C44.1112 29.0828 44.8772 29.3498 45.1435 29.6283C46.6596 32.5482 44.3487 33.6161 43.0038 33.7851L42.2685 40.6996C40.2223 50.9864 31.3679 54.1282 28.467 54.7593C25.566 55.3904 21.0244 56.0919 13.4943 53.0531Z" fill="black"/>
<path d="M3.39768 36.7775C3.99411 37.4173 4.76654 37.6361 5.61646 37.6607C5.96296 42.0973 6.35701 47.0297 9.43705 50.5328C12.6474 54.184 17.7348 55.4356 22.4051 55.7432C22.5409 56.8504 22.5657 57.9693 22.5897 59.0834C22.6022 59.664 22.5736 60.3602 22.6699 60.9322C22.8171 60.9993 22.9584 61.0625 23.114 61.1086C23.4832 61.5055 24.2538 61.6348 24.7675 61.7076L24.8377 61.7176C26.4004 61.9392 28.3465 62.2152 29.5955 61.2725L30.0963 60.9027L30.3315 60.3205C30.3726 59.6394 30.2077 58.9162 30.147 58.2367L29.8402 54.8287C30.0272 54.776 30.2134 54.7202 30.3988 54.6615C30.5841 54.6027 30.7683 54.541 30.9516 54.4764C31.1349 54.4116 31.3171 54.344 31.4982 54.2735C31.6793 54.2029 31.8593 54.1294 32.038 54.053C32.2167 53.9766 32.3942 53.8974 32.5704 53.8153C32.7466 53.7331 32.9214 53.6482 33.0948 53.5605C33.2682 53.4727 33.4402 53.3822 33.6107 53.2889C33.7813 53.1957 33.9502 53.0997 34.1177 53.0009C34.2851 52.9022 34.4509 52.8007 34.615 52.6967C34.7792 52.5926 34.9416 52.4858 35.1023 52.3765C35.263 52.2672 35.4219 52.1553 35.579 52.0409C35.7361 51.9264 35.8913 51.8094 36.0446 51.69C36.1979 51.5705 36.3493 51.4486 36.4986 51.3242C36.648 51.1999 36.7954 51.0732 36.9407 50.9441C37.086 50.815 37.2291 50.6836 37.3702 50.5498C37.5112 50.4161 37.6501 50.2802 37.7868 50.142C41.925 45.9828 43.5817 40.1041 43.5651 34.3535C43.7446 34.3092 43.9249 34.2641 44.1003 34.205C44.1505 34.1881 44.2002 34.17 44.2494 34.1506C44.2987 34.1313 44.3474 34.1107 44.3957 34.0889C44.4439 34.0671 44.4915 34.0441 44.5386 34.02C44.5857 33.9958 44.6322 33.9705 44.678 33.944C44.7238 33.9175 44.769 33.8899 44.8134 33.8612C44.8578 33.8325 44.9015 33.8026 44.9445 33.7717C44.9874 33.7408 45.0296 33.7089 45.071 33.6758C45.1123 33.6428 45.1528 33.6088 45.1925 33.5737C45.2322 33.5387 45.2709 33.5027 45.3088 33.4657C45.3466 33.4288 45.3835 33.3909 45.4195 33.352C45.4555 33.3132 45.4905 33.2735 45.5245 33.233C45.5585 33.1925 45.5914 33.1511 45.6233 33.1089C45.6553 33.0666 45.6861 33.0237 45.7159 32.98C45.7456 32.9362 45.7743 32.8917 45.8019 32.8466C45.8295 32.8014 45.8559 32.7555 45.8811 32.7091C45.9064 32.6626 45.9305 32.6155 45.9534 32.5678C46.2912 31.8814 46.3555 30.982 46.1006 30.2587C45.9245 29.7588 45.5914 29.3026 45.1008 29.0759C44.623 28.8552 44.0815 28.8866 43.5971 29.0684C43.1418 29.2393 42.6446 29.5652 42.4484 30.0299C42.3956 30.1549 42.3402 30.3529 42.415 30.4815C42.4785 30.5906 42.5632 30.6343 42.6813 30.6631C43.1969 30.7889 43.5136 30.4116 43.9178 30.1774C44.1125 30.0646 44.3637 29.9449 44.5919 30.0169C44.7736 30.0743 44.8814 30.2395 44.9622 30.4012C45.1813 30.8398 45.2288 31.4018 45.0702 31.8666C44.88 32.424 44.3374 32.911 43.7839 33.0945C43.4806 33.1951 43.1306 33.2403 42.8486 33.395C42.6814 33.4867 42.5894 33.5821 42.5555 33.7727C42.4404 34.4197 42.4839 35.3585 42.4337 36.0564C42.2938 38.0057 42.0101 39.9515 41.4379 41.8244C40.0359 46.4139 37.125 50.1994 32.8653 52.4548C28.0864 54.9852 21.9327 55.3042 16.8069 53.7169C9.47528 51.4466 7.43376 46.9597 6.82954 39.6692C6.7827 39.1037 6.79798 37.1412 6.56738 36.7552C6.33036 36.3584 5.49369 36.6578 5.07614 36.5335C4.59064 36.389 4.1593 36.0558 3.92306 35.6051C3.71131 35.2012 3.58047 34.5028 3.73037 34.066C3.79773 33.8697 3.92871 33.7232 4.11587 33.6339C4.73692 33.3374 5.12046 33.7718 5.67498 33.9264C5.87339 33.9817 6.10491 33.9351 6.27483 33.82C6.37504 33.7521 6.44553 33.6622 6.45884 33.5394C6.47513 33.3886 6.34965 33.2116 6.25469 33.1072C5.86783 32.6818 5.22492 32.4776 4.66557 32.4444C4.11578 32.4118 3.60018 32.5793 3.18862 32.9514C2.77146 33.3287 2.60285 33.8568 2.57951 34.4066C2.54275 35.2699 2.80215 36.1386 3.39768 36.7775Z" fill="black"/>
<path d="M22.6638 60.8578C22.6638 60.8578 23.5135 61.3731 24.5467 61.6288C26.1209 61.8518 29.0396 61.2795 30.3073 60.3226C30.8089 60.5387 31.3263 60.6469 31.8009 60.9173C31.9338 60.8316 32.0625 60.7852 32.2231 60.8158C32.3623 60.8424 32.4792 60.9655 32.5501 61.0822C32.6255 61.2063 32.6253 61.3642 32.6371 61.5051C32.6378 61.5132 32.6388 61.5212 32.6396 61.5292C34.8318 62.1936 40.8917 66.5494 42.4876 69.7971C40.5926 70.0637 36.1693 72.4737 34.2655 72.665L25.4954 77.2851L20.3054 67.1299C18.8844 67.2807 17.4614 67.4671 16.0348 67.5551L16.0293 67.488C17.1108 65.7032 19.19 63.8689 20.6965 62.422C20.6661 62.258 20.6602 62.1202 20.7348 61.9663C20.7939 61.8441 20.8927 61.7464 21.0247 61.7078C21.2085 61.6539 21.333 61.7126 21.4954 61.7976C21.9032 61.5037 22.3193 61.2272 22.6638 60.8578Z" fill="#FE4B11"/>
<path d="M20.6963 62.4219C20.6659 62.2579 20.66 62.1201 20.7345 61.9662C20.7937 61.844 20.8925 61.7463 21.0245 61.7077C21.2083 61.6538 21.3328 61.7125 21.4951 61.7975C22.5365 63.0785 23.5646 63.4608 25.1784 63.6254C25.2401 63.632 25.3019 63.6379 25.3637 63.643C25.4255 63.6481 25.4874 63.6525 25.5494 63.6561C25.6113 63.6596 25.6733 63.6624 25.7352 63.6644C25.7972 63.6664 25.8593 63.6677 25.9214 63.6682C25.9834 63.6687 26.0454 63.6684 26.1074 63.6674C26.1694 63.6663 26.2314 63.6645 26.2934 63.6619C26.3554 63.6593 26.4174 63.656 26.4792 63.6519C26.5412 63.6478 26.603 63.6429 26.6648 63.6372C26.7266 63.6315 26.7883 63.6251 26.8499 63.6179C26.9115 63.6107 26.973 63.6028 27.0345 63.5941C27.0959 63.5854 27.1572 63.5759 27.2184 63.5656C27.2796 63.5554 27.3406 63.5445 27.4016 63.5327C27.4624 63.521 27.5232 63.5084 27.5838 63.4952C27.6444 63.4819 27.7049 63.468 27.7651 63.4532C27.8254 63.4385 27.8855 63.423 27.9453 63.4067C28.0052 63.3905 28.0649 63.3735 28.1244 63.3558C28.1838 63.3381 28.243 63.3196 28.302 63.3005C28.361 63.2813 28.4198 63.2613 28.4783 63.2407C28.5368 63.22 28.595 63.1987 28.653 63.1766C28.7109 63.1545 28.7686 63.1317 28.826 63.1082C28.8834 63.0846 28.9405 63.0604 28.9973 63.0354C29.0541 63.0105 29.1106 62.9849 29.1668 62.9585C29.223 62.9322 29.2788 62.9052 29.3343 62.8775C29.3898 62.8497 29.4449 62.8214 29.4997 62.7923C29.5546 62.7632 29.609 62.7334 29.663 62.703C29.7171 62.6726 29.7707 62.6415 29.824 62.6097C29.8773 62.5779 29.9302 62.5454 29.9826 62.5124C30.0352 62.4793 30.0872 62.4456 30.1388 62.4112C30.1905 62.3768 30.2417 62.3418 30.2925 62.3061C30.3432 62.2705 30.3935 62.2342 30.4434 62.1973C30.4933 62.1605 30.5427 62.123 30.5916 62.0849C30.6406 62.0468 30.6891 62.008 30.737 61.9687C31.1229 61.65 31.4686 61.2907 31.8007 60.9172C31.9336 60.8316 32.0623 60.7851 32.2228 60.8158C32.3621 60.8423 32.479 60.9654 32.5499 61.0821C32.6253 61.2062 32.6251 61.3641 32.6369 61.5051C32.6376 61.5131 32.6386 61.5211 32.6394 61.5291C32.1264 62.3173 31.4138 62.9612 30.6284 63.4707C28.7485 64.6902 26.283 65.118 24.0952 64.6492C22.638 64.3368 21.5086 63.6824 20.6963 62.4219Z" fill="black"/>
<path d="M30.0407 45.1958C30.2333 45.1802 30.4798 45.2014 30.6439 45.3132C30.7317 45.3732 30.777 45.448 30.7946 45.5523C30.8306 45.7659 30.668 46.0241 30.5476 46.1932C29.5797 47.5519 27.8323 48.309 26.2331 48.5808C24.2999 48.9094 22.0686 48.6363 20.4459 47.487C20.2332 47.3238 20.041 47.1894 19.9532 46.9226C19.8917 46.7361 19.869 46.6003 19.9579 46.4218C20.1225 46.272 20.336 46.2351 20.5516 46.2938C20.8982 46.3881 21.2608 46.7553 21.5686 46.9484C22.4712 47.5144 23.9019 47.6839 24.9569 47.6604C26.404 47.6281 27.9077 47.2072 29.0213 46.25C29.3903 45.9328 29.7041 45.547 30.0407 45.1958Z" fill="#FEA6D0"/>
<path d="M31.3689 24.539C31.5585 24.5066 31.7488 24.4794 31.9399 24.4574C32.1309 24.4353 32.3224 24.4185 32.5144 24.4068C32.7064 24.3952 32.8985 24.3887 33.0908 24.3874C33.2831 24.3862 33.4753 24.3902 33.6674 24.3994C33.8595 24.4085 34.0512 24.4229 34.2426 24.4425C34.4339 24.462 34.6245 24.4867 34.8145 24.5166C35.0045 24.5465 35.1936 24.5815 35.3817 24.6217C35.5698 24.6618 35.7566 24.707 35.9422 24.7573C36.5956 24.9362 37.8987 25.2444 38.2299 25.8789C38.2405 25.8988 38.2501 25.9193 38.2586 25.9402C38.2672 25.9612 38.2747 25.9825 38.2812 26.0043C38.2876 26.026 38.293 26.0479 38.2972 26.0701C38.3014 26.0924 38.3045 26.1148 38.3065 26.1374C38.3085 26.1599 38.3093 26.1825 38.309 26.2051C38.3088 26.2277 38.3073 26.2503 38.3047 26.2728C38.3022 26.2953 38.2985 26.3176 38.2937 26.3397C38.2889 26.3618 38.283 26.3837 38.276 26.4052C38.1817 26.7017 37.9281 26.865 37.6647 26.9936C36.7138 26.9059 35.7174 26.4178 34.7266 26.2712C34.1266 26.1824 33.5063 26.1367 32.9 26.1195C32.3698 26.1045 31.7061 26.1981 31.1977 26.037C31.0086 25.9771 30.8347 25.8784 30.7455 25.6932C30.6471 25.489 30.6929 25.2603 30.776 25.0595C30.8993 24.7616 31.0907 24.66 31.3689 24.539Z" fill="#ACE5EC"/>
<path d="M15.04 25.9433C15.5303 25.8307 16.271 25.7288 16.7574 25.8531C16.9808 25.9103 17.1498 26.0607 17.2544 26.2647C17.268 26.2907 17.2803 26.3172 17.2912 26.3444C17.3022 26.3716 17.3118 26.3992 17.32 26.4273C17.3281 26.4555 17.3348 26.4839 17.3402 26.5128C17.3455 26.5416 17.3493 26.5706 17.3517 26.5998C17.3541 26.629 17.355 26.6582 17.3544 26.6875C17.3538 26.7168 17.3518 26.746 17.3483 26.7751C17.3448 26.8041 17.3399 26.833 17.3335 26.8616C17.3271 26.8901 17.3193 26.9183 17.31 26.9462C17.2211 27.2091 17.0223 27.3643 16.7703 27.4607C16.1853 27.6844 15.4039 27.677 14.7776 27.8034C13.7701 28.0067 12.8452 28.4623 11.9197 28.8933C11.6662 29.02 11.4025 29.1541 11.1373 29.2541C10.8963 29.3449 10.6396 29.3566 10.4048 29.239C10.377 29.2248 10.35 29.2093 10.3238 29.1923C10.2976 29.1753 10.2725 29.157 10.2483 29.1373C10.224 29.1176 10.2009 29.0968 10.1789 29.0747C10.1569 29.0525 10.1361 29.0293 10.1166 29.005C10.0971 28.9807 10.0789 28.9554 10.0621 28.9291C10.0452 28.9029 10.0298 28.8758 10.0158 28.8479C10.0019 28.82 9.98943 28.7915 9.97851 28.7623C9.96754 28.7331 9.95817 28.7033 9.9504 28.6731C9.89449 28.4567 9.92638 28.2216 10.0554 28.0368C10.6441 27.1936 13.9672 26.1358 15.04 25.9433Z" fill="#ACE5EC"/>
<path d="M24.5414 35.0659C24.9356 34.9982 25.2599 35.0134 25.6286 35.1753C26.2974 35.4691 26.7213 36.1409 26.9791 36.7965C27.3399 37.7139 27.4875 39.0234 27.0783 39.949C26.799 40.5807 26.3505 40.952 25.7148 41.193C25.2245 41.2717 24.8089 41.3057 24.3442 41.0953C23.7722 40.8362 23.3802 40.3088 23.1651 39.7323C22.7686 38.67 22.7946 37.226 23.2839 36.1972C23.554 35.629 23.9537 35.2751 24.5414 35.0659Z" fill="black"/>
<path d="M24.7552 36.0901C24.8608 36.0817 24.9611 36.0783 25.0651 36.1036C25.3681 36.1773 25.6335 36.4938 25.7852 36.753C26.1797 37.4261 26.4089 38.4356 26.1999 39.2017C26.0768 39.6529 25.858 39.9253 25.4517 40.1545C25.3112 40.18 25.1682 40.1972 25.0267 40.1686C24.7367 40.11 24.4894 39.9117 24.3276 39.6698C23.8857 39.0092 23.8853 38.0297 24.0469 37.2814C24.1525 36.7919 24.3198 36.3669 24.7552 36.0901Z" fill="#ACE5EC"/>
<path d="M35.7666 38.4172C36.4351 38.3085 37.0686 38.2668 37.7084 38.5249C38.4038 38.8055 38.9932 39.3564 39.2865 40.0493C39.5894 40.7648 39.5973 41.638 39.299 42.3564C38.9592 43.175 38.306 43.6923 37.5061 44.0234C36.7869 44.1555 36.149 44.1949 35.4632 43.8937C34.7635 43.5865 34.2345 43.0168 33.9592 42.3066C33.6659 41.5498 33.6775 40.7375 34.0132 39.9967C34.3648 39.2208 34.9749 38.7078 35.7666 38.4172Z" fill="#FEA6D0"/>
<path d="M14.1255 40.443C14.7731 40.3177 15.626 40.5616 16.1706 40.915C16.838 41.3483 17.2737 42.0623 17.4292 42.8354C17.5907 43.6384 17.4108 44.4469 16.9506 45.1233C16.4829 45.8108 15.8306 46.1862 15.0249 46.3401C14.2254 46.4178 13.4715 46.3409 12.7938 45.8751C12.7541 45.8478 12.7151 45.8196 12.6769 45.7904C12.6385 45.7612 12.601 45.7311 12.5642 45.7001C12.5274 45.669 12.4914 45.6371 12.4562 45.6043C12.4209 45.5715 12.3865 45.5378 12.353 45.5033C12.3194 45.4688 12.2867 45.4335 12.2549 45.3974C12.2231 45.3613 12.1921 45.3244 12.1622 45.2867C12.1322 45.249 12.1031 45.2107 12.075 45.1716C12.0469 45.1325 12.0198 45.0928 11.9936 45.0523C11.9675 45.0119 11.9423 44.9709 11.9182 44.9292C11.8941 44.8875 11.871 44.8453 11.849 44.8026C11.827 44.7597 11.806 44.7164 11.7861 44.6726C11.7662 44.6287 11.7474 44.5844 11.7297 44.5397C11.712 44.4949 11.6954 44.4498 11.6799 44.4042C11.6644 44.3586 11.6501 44.3126 11.6369 44.2663C11.6237 44.2201 11.6116 44.1735 11.6007 44.1266C11.5898 44.0797 11.58 44.0326 11.5715 43.9852C11.5621 43.9349 11.554 43.8844 11.5472 43.8336C11.5403 43.7829 11.5348 43.732 11.5304 43.681C11.5261 43.6299 11.5231 43.5789 11.5213 43.5277C11.5195 43.4766 11.519 43.4254 11.5198 43.3742C11.5205 43.323 11.5225 43.2719 11.5258 43.2208C11.5291 43.1697 11.5336 43.1187 11.5394 43.0678C11.5453 43.017 11.5523 42.9663 11.5606 42.9158C11.569 42.8653 11.5785 42.815 11.5893 42.765C11.6001 42.7149 11.6122 42.6652 11.6255 42.6157C11.6387 42.5663 11.6532 42.5172 11.6689 42.4684C11.6846 42.4197 11.7015 42.3714 11.7196 42.3235C11.7377 42.2757 11.757 42.2282 11.7774 42.1813C11.7979 42.1343 11.8195 42.0879 11.8422 42.0421C11.8649 41.9962 11.8888 41.9509 11.9138 41.9062C11.9388 41.8615 11.9649 41.8175 11.992 41.7741C12.0192 41.7308 12.0474 41.6881 12.0767 41.6461C12.5795 40.9219 13.2774 40.5883 14.1255 40.443Z" fill="#FEA6D0"/>
<path d="M33.3501 29.2059C34.0098 29.0812 34.6276 29.0739 35.26 29.3285C36.1233 29.6761 36.7246 30.4131 37.0807 31.2547C37.5898 32.4578 37.5558 33.9408 37.0611 35.1438C36.6628 36.1126 35.9862 36.832 35.0182 37.2288C34.3662 37.4729 33.5897 37.4404 32.9579 37.1538C32.1859 36.8035 31.6149 36.0857 31.3205 35.3039C30.7917 33.8994 30.9747 32.1571 31.5963 30.8125C31.971 30.0021 32.5143 29.5072 33.3501 29.2059Z" fill="black"/>
<path d="M33.6188 30.2239C33.9849 30.1593 34.3256 30.1553 34.6828 30.2678C35.2548 30.4477 35.6985 30.8733 35.9648 31.4033C36.4366 32.3424 36.4505 33.5656 36.1118 34.5485C35.8439 35.326 35.4165 35.8699 34.6746 36.229C34.2882 36.3278 33.9443 36.3745 33.5571 36.2494C33.0541 36.0866 32.69 35.6899 32.4591 35.2261C31.9481 34.1997 31.9854 32.8537 32.3511 31.789C32.5915 31.089 32.944 30.5505 33.6188 30.2239Z" fill="#FDFDFD"/>
<path d="M34.1667 31.1668C34.3655 31.1416 34.5751 31.1402 34.7667 31.2048C35.0766 31.3094 35.3148 31.5707 35.4583 31.857C35.732 32.403 35.8164 33.1521 35.6209 33.7358C35.4805 34.1549 35.2405 34.4271 34.8477 34.6267C34.6517 34.6413 34.4544 34.6471 34.2692 34.5715C33.8748 34.4104 33.5857 34.0596 33.4197 33.6765C33.1961 33.1604 33.1235 32.4813 33.3403 31.9512C33.5063 31.5454 33.7769 31.3354 34.1667 31.1668Z" fill="black"/>
<path d="M14.6104 30.8112C15.4328 30.662 16.2339 30.7161 16.991 31.0888C17.9386 31.5553 18.5955 32.4274 18.9295 33.4158C19.3506 34.6618 19.2756 36.0824 18.676 37.2565C18.1496 38.287 17.3894 38.8703 16.2991 39.2244C15.5005 39.4122 14.6759 39.3281 13.947 38.9416C12.9833 38.4303 12.2771 37.4849 11.9617 36.4512C11.5901 35.2333 11.6646 33.8149 12.2787 32.6859C12.8098 31.7093 13.5564 31.1271 14.6104 30.8112Z" fill="black"/>
<path d="M14.9948 31.8275C15.553 31.7487 16.1174 31.8302 16.6163 32.0993C17.3067 32.4717 17.7324 33.144 17.9449 33.8827C18.2274 34.8645 18.1637 35.9589 17.6625 36.8608C17.2626 37.5802 16.6936 37.9932 15.91 38.2103C15.3585 38.2935 14.8676 38.2522 14.3711 37.9768C13.6561 37.5802 13.1671 36.8348 12.9508 36.0602C12.685 35.1084 12.7615 33.9968 13.254 33.1289C13.6451 32.4395 14.2415 32.0355 14.9948 31.8275Z" fill="#FDFDFD"/>
<path d="M15.3859 32.9845C15.61 32.9401 15.8472 32.9024 16.0742 32.9487C16.4396 33.0235 16.7476 33.259 16.9441 33.5718C17.2699 34.0904 17.3392 34.822 17.2005 35.4102C17.0999 35.8367 16.8869 36.2028 16.5125 36.4376C16.3502 36.4825 16.1756 36.5089 16.0075 36.484C15.666 36.4335 15.3687 36.2049 15.1661 35.9342C14.7895 35.431 14.594 34.7009 14.6922 34.0778C14.7696 33.5867 14.9842 33.273 15.3859 32.9845Z" fill="black"/>
<path d="M24.5044 9.74332C25.4859 8.57714 26.6186 7.76603 28.1787 7.63914C28.8803 7.58206 29.6439 7.61252 30.2019 8.09693C30.7041 8.53297 30.861 9.15768 30.8963 9.7963C30.8994 9.85387 30.9021 9.91147 30.9045 9.9691C31.8848 9.42426 33.1223 8.88212 34.2616 9.21947C34.7069 9.35132 35.0595 9.6369 35.2751 10.0489C35.4372 10.3588 35.4966 10.6998 35.5545 11.0412C36.3014 10.7774 37.0103 10.5258 37.7746 10.8931C37.8616 10.9353 37.9476 10.9791 38.0327 11.0247C38.6322 11.6191 38.8615 12.2239 38.8679 13.0664C38.8689 13.2032 38.8638 13.3372 38.8461 13.473C39.5001 13.3631 40.091 13.3092 40.6618 13.7181C41.1579 14.0735 41.4137 14.6434 41.4992 15.234C41.6082 15.9864 41.4529 16.7499 41.128 17.4318C41.6039 17.4643 42.0049 17.5869 42.3325 17.9541C42.811 18.4906 42.876 19.2883 42.8299 19.9738C42.7708 20.8537 42.4763 21.6777 42.0653 22.4509C42.717 23.1519 43.6643 23.9457 43.6286 24.8961C43.6063 25.4895 43.373 27.3425 42.9438 27.7107C42.8409 27.7989 42.7063 27.8328 42.5729 27.8133C42.4154 27.7904 42.2684 27.6964 42.1787 27.5654C42.0393 27.3621 42.0972 27.1013 42.1513 26.8789C42.3643 26.0022 42.119 24.4152 41.6102 23.589C41.5549 23.4991 41.5192 23.492 41.4251 23.4562C41.0101 23.5503 40.6196 24.2399 40.1512 23.9318C40.0191 23.8449 39.9179 23.7086 39.8915 23.551C39.8568 23.3435 39.9658 23.1418 40.0928 22.986C40.338 22.6853 40.6871 22.4869 40.9414 22.198C41.5189 21.542 41.8173 20.2741 41.7484 19.4179C41.7269 19.1516 41.673 18.7966 41.4578 18.6155C41.3283 18.5067 41.158 18.4801 40.994 18.4987C40.199 18.5894 38.8547 20.4769 38.2445 20.0385C38.118 19.9477 38.0202 19.8157 38.0091 19.6572C37.9908 19.3949 38.179 19.1536 38.3505 18.9734C38.696 18.6104 39.1129 18.3192 39.4689 17.9674C40.0506 17.3928 40.478 16.4765 40.4615 15.652C40.4549 15.3171 40.3724 14.966 40.127 14.7229C39.9176 14.5154 39.6343 14.4337 39.3445 14.4435C38.9307 14.4574 38.5301 14.6207 38.153 14.7782C37.7315 15.5399 37.0892 16.7919 36.2107 17.0778C36.0694 17.1238 35.8798 17.1518 35.745 17.0724C35.6384 17.0096 35.5801 16.9104 35.5579 16.7888C35.482 16.3756 35.7389 15.9426 35.9807 15.6297C36.4319 15.0454 36.9912 14.5913 37.5758 14.1497C37.7722 13.5444 37.9465 12.8437 37.6404 12.2394C37.5314 12.0243 37.3745 11.8523 37.1421 11.7717C36.5048 11.5507 35.794 12.0469 35.2474 12.3084C35.1658 13.0572 34.8739 14.1943 34.2433 14.6805C34.0881 14.8002 33.8991 14.8807 33.7003 14.8488C33.5477 14.8244 33.418 14.7339 33.3365 14.6035C33.1625 14.3251 33.2102 13.9609 33.2945 13.6601C33.4639 13.0555 33.7981 12.4668 34.2343 12.0148C34.1666 11.9831 34.1239 11.9648 34.0474 11.9736C33.6728 12.0168 33.2922 12.1151 32.9205 12.1823C32.0018 12.3483 31.0492 12.5108 30.1168 12.5586C29.8588 13.067 29.4324 14.1188 28.8529 14.3063C28.7495 14.3398 28.6588 14.3369 28.5609 14.2878C28.3835 14.199 28.2956 14.0069 28.2445 13.825C28.1621 13.5313 28.268 13.2754 28.3746 13.0059C28.0231 12.8787 25.0601 13.2272 24.4697 13.2798C24.3878 13.4064 24.301 13.5271 24.1907 13.6308C24.065 13.7488 23.9014 13.8244 23.7267 13.8158C23.4561 13.8023 23.2787 13.585 23.1187 13.3938C22.472 13.4593 21.0927 13.5158 20.5384 13.6616C20.5284 14.0581 20.4878 14.3862 20.1764 14.6714C20.0616 14.7766 19.9204 14.8464 19.7611 14.8258C19.6294 14.8087 19.5116 14.7154 19.4357 14.6104C19.3399 14.478 19.2796 14.3228 19.2352 14.1668L19.1534 13.8373C18.809 13.7842 17.2569 13.9509 16.9209 14.0706C17.0413 14.425 17.2306 14.9482 17.0951 15.3212C17.0499 15.4456 16.9636 15.5414 16.8371 15.5851C16.7096 15.6292 16.5494 15.627 16.4269 15.5684C16.0476 15.3865 15.8956 14.5508 15.7511 14.1804C14.6902 14.2794 13.6305 14.3892 12.5718 14.51C12.552 14.5972 12.5176 14.7573 12.5318 14.8453C12.59 15.2082 13.7431 15.979 13.7841 16.9346C13.7932 17.1469 13.7473 17.4368 13.5875 17.591C13.4706 17.7037 13.2995 17.7585 13.1389 17.7452C12.5454 17.6961 11.9814 16.792 11.7941 16.3013C11.7004 16.0559 11.6815 15.743 11.5178 15.5369C11.4216 15.4875 11.3782 15.4541 11.2633 15.4672C10.9475 15.5033 10.6062 15.7935 10.4174 16.036C9.85557 16.7573 9.96726 17.7459 10.0637 18.5989C10.4498 18.8991 10.7824 19.1987 11.0144 19.6375C11.2074 20.0027 11.3287 20.4727 11.1841 20.8759C11.1303 21.0259 11.0338 21.1709 10.8832 21.236C10.7609 21.289 10.6262 21.2674 10.5067 21.2167C9.84931 20.9382 9.46274 19.8161 9.19201 19.2118C8.81943 19.165 8.4398 19.1452 8.07811 19.2646C7.77213 19.3657 7.51569 19.5654 7.3751 19.8595C7.10858 20.4173 7.28777 21.179 7.48037 21.7302C8.21978 22.0107 8.9884 22.5265 9.41384 23.2108C9.50942 23.3646 9.5841 23.5824 9.53047 23.763C9.4822 23.9255 9.36068 24.1392 9.20032 24.2143C8.64967 24.4721 7.75984 23.0743 7.14742 22.8424C6.81879 22.718 6.46211 22.7122 6.14182 22.8663C5.77233 23.044 5.52844 23.3609 5.39489 23.743C5.20317 24.2918 5.29263 25.1493 5.54513 25.6685C5.91357 26.4262 6.68839 26.6939 7.43288 26.9421C7.68634 27.0266 8.13593 27.1137 8.25309 27.3768C8.31897 27.5249 8.30635 27.7036 8.2409 27.8496C8.18707 27.9696 8.08591 28.0834 7.95891 28.1277C7.43079 28.3121 6.38879 27.7692 5.89404 27.5661C5.83914 27.7999 5.77819 28.0425 5.78869 28.2844C5.83072 29.2539 6.36658 29.8226 6.58318 30.661C6.60789 30.7566 6.60596 30.8363 6.56725 30.9276C6.49829 31.0905 6.33133 31.2475 6.16249 31.3021C6.05631 31.3363 5.95535 31.3238 5.85686 31.2725C5.39931 31.0337 5.06146 29.9774 4.91034 29.4863C4.62136 28.5473 4.62374 27.7074 5.08152 26.8335C4.77704 26.4585 4.55192 26.0752 4.4143 25.6088C4.15605 24.7337 4.18433 23.6715 4.63791 22.8634C5.02374 22.1761 5.62118 21.8955 6.3526 21.695C6.28343 21.4184 6.24559 21.123 6.21901 20.8388C6.15599 20.164 6.24683 19.444 6.69555 18.9082C7.23843 18.26 8.12586 18.1103 8.92248 18.0477C8.9137 17.0877 8.95573 16.0674 9.58744 15.2844C10.0967 14.6531 10.6893 14.521 11.4577 14.4453C11.5329 14.0226 11.6942 13.6729 11.8838 13.292C12.2743 12.6897 12.7153 12.2795 13.4341 12.1198C14.078 11.9768 14.7675 12.035 15.3982 12.2134C15.636 11.4658 16.011 10.7812 16.738 10.4103C17.2316 10.1585 17.7707 10.1461 18.2917 10.3195C18.858 10.5079 19.3011 10.8642 19.7345 11.2625C20.1137 10.2859 20.641 9.24079 21.6503 8.78981C22.1795 8.55327 22.8395 8.50158 23.3858 8.71073C23.8987 8.90711 24.2215 9.29085 24.5044 9.74332Z" fill="black"/>
<path d="M16.0725 60.8648C17.953 60.5517 19.8293 60.2151 21.7014 59.8548C22.613 59.6872 23.5314 59.5557 24.4416 59.382L25.9405 68.5621C26.1518 69.8361 26.3002 71.1352 26.5585 72.3994L26.647 73.3147C24.5547 73.8112 22.4353 74.2339 20.3342 74.6965L13.5407 76.2608C13.4077 75.0377 13.1861 73.8039 12.9883 72.5892L11.7645 65.3964C11.5905 64.36 11.3557 63.3073 11.2415 62.2653C11.2247 62.1128 11.2404 62.0103 11.3052 61.8721C11.5924 61.594 15.3757 61.054 16.0725 60.8648Z" fill="#02C2A2"/>
<path d="M18.275 62.7674C18.3964 62.772 18.5605 62.7719 18.6612 62.8483C18.7642 62.9264 18.7987 63.0372 18.8293 63.1579C18.9292 63.5515 18.9402 63.991 18.9938 64.3952C19.1199 65.3469 19.2437 66.3043 19.4153 67.249C19.8873 66.5006 20.2966 65.7084 20.7546 64.9504C20.9302 64.6597 21.1801 64.2387 21.5368 64.1597C21.6377 64.1374 21.7404 64.1551 21.8242 64.2187C21.9279 64.2975 22.0012 64.4141 22.0148 64.545C22.0451 64.8378 20.1739 67.8006 19.8765 68.2048C20.4355 68.1236 23.0533 67.6725 23.3859 67.8838C23.4952 67.9531 23.5603 68.0559 23.5844 68.1824C23.6082 68.3068 23.5763 68.4288 23.5005 68.5296C23.4374 68.6134 23.3598 68.661 23.2594 68.6904C22.8432 68.8123 22.3426 68.8143 21.9076 68.8734C21.3721 68.9462 20.8427 69.0605 20.3069 69.1359C20.815 69.5204 22.909 70.9714 23.1019 71.3903C23.1726 71.5438 23.134 71.7276 23.0759 71.877C22.9865 71.9632 22.9386 72.0134 22.8089 72.0192C22.1778 72.047 20.3188 70.3317 19.763 69.8685C19.834 70.5604 20.2027 72.2792 20.0418 72.8524C19.9952 73.0186 19.9324 73.075 19.7924 73.1554C19.7178 73.1526 19.6482 73.1523 19.5786 73.122C19.3517 73.0233 19.2421 72.9262 19.1431 72.7077C18.9538 71.7389 18.8753 70.7456 18.79 69.7632C18.2753 70.4866 17.7822 71.2481 17.3118 72.0015C17.1275 72.2967 16.9734 72.6385 16.7602 72.9121C16.6577 73.0437 16.5353 73.1634 16.387 73.2426C16.2153 73.3345 16.0715 73.3473 15.8871 73.2916C15.8204 73.2247 15.7815 73.2022 15.762 73.1098C15.6401 72.5324 17.3215 70.2666 17.7131 69.6703C17.1549 69.8263 15.3304 70.585 14.8807 70.4483C14.7187 70.399 14.6281 70.2922 14.5649 70.1383C14.524 70.0387 14.5194 69.9332 14.5661 69.8357C14.6364 69.6892 14.7623 69.6116 14.904 69.5415C15.1651 69.4124 15.4744 69.3524 15.7508 69.256C16.4797 69.0017 17.2041 68.736 17.9382 68.4969C17.475 67.9961 15.0774 66.2795 14.986 65.859C14.958 65.7305 14.9792 65.5988 15.0561 65.491C15.1318 65.3851 15.2454 65.3199 15.3757 65.3103C15.8373 65.2759 18.0811 67.2599 18.5252 67.6213C18.4195 66.7335 17.7741 63.7477 17.9411 63.0905C17.9842 62.9206 18.1349 62.852 18.275 62.7674Z" fill="black"/>
<path d="M39.3833 2.14151L39.6059 2.13655C39.7071 2.17438 39.7558 2.2194 39.8082 2.31147C40.1922 2.98622 40.5646 5.13442 40.8429 6.02304C40.9525 6.3734 41.1 6.70918 41.3003 7.01707C42.3622 8.64702 44.9725 8.45412 46.6909 8.84171C46.9232 8.89375 47.0924 8.9162 47.2238 9.12689C47.2015 9.24789 47.1869 9.29858 47.0795 9.36798C46.8021 9.54899 46.4281 9.66368 46.1206 9.79196C45.0155 10.2536 43.3502 10.7791 42.4675 11.5549C41.1054 12.7526 41.0323 14.7368 40.6971 16.4088C40.6343 16.7213 40.5954 17.1844 40.4446 17.459C40.3915 17.5557 40.3701 17.5576 40.2706 17.5844L40.1823 17.6214C40.0567 17.5989 40.0273 17.5565 39.9605 17.4487C39.7773 17.152 39.6714 16.7564 39.552 16.4271C39.22 15.5111 38.9377 14.554 38.5497 13.6616C38.3711 13.2507 38.1517 12.8591 37.8598 12.5174C37.5797 12.1897 37.2312 11.9031 36.8371 11.7232C35.9343 11.312 32.8234 11.1473 32.3475 10.6504C32.4128 10.3003 33.4933 9.9771 33.8242 9.85348C37.8535 8.35223 37.7948 8.59098 38.7971 4.27457C38.9582 3.58069 39.0796 2.78806 39.3833 2.14151Z" fill="#FE4B11"/>
<path d="M209.179 144.689C209.541 145.03 209.759 145.422 209.632 145.916C209.525 146.391 209.164 146.751 208.698 146.846C208.414 146.91 208.135 146.894 207.752 146.933C207.793 147.276 207.88 147.521 207.866 147.761C207.874 148.342 207.573 148.706 207.06 148.918C206.569 149.11 206.159 148.927 205.796 148.607C205.625 148.437 205.499 148.189 205.349 148.001C205.181 147.771 205.119 147.447 204.747 147.306C204.39 147.587 203.993 147.885 203.615 148.205C203.343 148.41 203.071 148.615 202.728 148.656C202.224 148.728 201.81 148.605 201.514 148.167C201.216 147.75 201.261 147.312 201.466 146.863C201.625 146.531 202.073 146.396 202.118 145.958C201.792 145.699 201.385 145.797 201.053 145.658C200.603 145.453 200.26 145.153 200.208 144.649C200.108 143.923 200.581 143.348 201.327 143.249C201.69 143.21 202.079 143.412 202.452 143.192C202.404 142.969 202.378 142.727 202.351 142.485C202.328 141.823 202.611 141.418 203.183 141.23C203.653 141.056 204.146 141.203 204.52 141.665C204.726 141.937 204.91 142.227 205.054 142.516C205.53 143.324 205.547 143.365 206.326 142.687C206.598 142.482 206.851 142.256 207.122 142.07C207.33 141.922 207.577 141.815 207.818 141.809C208.763 141.741 209.414 142.639 209.025 143.499C208.911 143.753 208.699 143.961 208.505 144.211C208.628 144.518 208.97 144.497 209.179 144.689ZM213.518 149.718C213.983 149.644 214.849 149.552 215.016 149.081C215.039 149.022 215.041 148.982 215.045 148.922C215.03 148.461 214.264 148.198 214.205 148.174C213.617 147.941 213.051 147.669 212.509 147.338C210.243 145.95 210.553 143.624 211.689 142.285C212.976 140.754 214.652 140.167 216.606 140.316C217.006 140.338 217.416 140.521 217.787 140.702C218.33 141.013 218.535 141.645 218.362 142.237C218.19 142.808 217.671 143.139 216.992 143.102C216.573 143.078 216.374 143.047 215.997 142.986C215.678 142.948 214.326 142.773 213.768 143.443C213.66 143.577 213.483 143.887 213.51 144.47C213.607 144.896 213.897 145.072 214.21 145.21C214.737 145.46 215.285 145.691 215.791 145.959C216.296 146.248 216.82 146.537 217.24 146.921C218.306 147.922 218.383 149.409 217.458 150.539C217.006 151.115 216.423 151.503 215.765 151.807C214.84 152.236 213.867 152.442 212.86 152.546C212.174 152.628 211.575 152.234 211.388 151.643C211.146 150.948 211.527 150.228 212.302 149.971C212.485 149.921 212.648 149.87 212.81 149.839C213.135 149.757 213.316 149.747 213.518 149.718ZM222.976 142.874C222.632 142.935 222.427 145.167 222.62 145.298C222.812 145.449 223.335 145.418 223.734 145.441C224.51 145.544 225.77 145.574 226.096 145.833C226.54 146.138 226.706 146.388 226.736 146.93C226.611 148.806 222.773 147.951 222.521 148.157C222.353 148.288 222.317 148.947 222.269 149.445C222.194 150.062 221.838 151.064 222.28 151.048C224.345 151.003 225.469 151.326 225.536 151.931C225.689 152.42 225.457 152.988 225.137 153.331C224.562 153.94 223.522 153.561 221.399 153.543C219.957 153.543 219.472 152.194 219.563 150.917C219.794 147.845 219.947 144.749 220.239 141.66C220.414 140.688 220.859 140.252 221.842 140.227C223.242 140.265 224.71 140.147 226.098 140.404C227.42 140.779 227.25 142.732 225.898 142.917C224.934 142.964 223.32 142.813 222.976 142.874ZM231.459 143.348C231.115 143.408 230.91 145.641 231.103 145.772C231.295 145.922 231.818 145.891 232.217 145.914C232.993 146.017 234.253 146.047 234.579 146.306C235.023 146.611 235.189 146.861 235.219 147.403C235.094 149.279 231.256 148.424 231.004 148.63C230.836 148.761 230.8 149.42 230.752 149.918C230.677 150.535 230.321 151.537 230.763 151.521C232.828 151.476 233.952 151.799 234.018 152.404C234.171 152.893 233.939 153.461 233.62 153.804C233.045 154.413 232.005 154.035 229.882 154.016C228.44 154.016 227.954 152.667 228.046 151.39C228.277 148.318 228.43 145.222 228.722 142.133C228.897 141.161 229.342 140.726 230.324 140.7C231.725 140.738 233.193 140.62 234.581 140.878C235.902 141.252 235.733 143.205 234.381 143.39C233.417 143.437 231.803 143.287 231.459 143.348ZM251.642 153.647C251.397 153.013 251.36 152.59 251.138 151.897L246.554 151.841C246.053 152.575 245.606 153.411 244.951 154.015C243.878 154.937 242.268 153.625 242.899 152.379C244.538 149.566 246.042 146.665 247.816 143.939C248.078 143.553 248.399 143.191 248.757 142.87C250.779 141.1 252.255 143.005 252.601 145.068C253.133 147.741 253.866 150.406 254.216 153.11C254.218 154.512 252.231 154.942 251.642 153.647ZM249.828 145.934C249.173 146.919 248.594 147.949 248.074 149.022C249.035 149.035 249.747 149.195 250.519 148.998C250.457 147.953 250.234 146.919 249.828 145.934ZM258.512 150.225C258.574 151.27 258.618 151.553 258.794 151.623C259.266 151.789 260.213 150.259 261.421 148.344C262.299 146.971 263.254 145.642 264.286 144.377C264.373 144.262 264.478 144.168 264.584 144.073C264.751 143.942 265.108 143.662 265.587 143.689C265.845 143.723 266.1 143.817 266.291 143.988C266.848 144.42 266.949 145.127 266.552 145.786C266.442 145.96 266.312 146.133 266.163 146.285C264.415 148.531 262.648 150.776 260.9 153.022C260.556 153.444 260.231 153.886 259.83 154.244C258.667 155.341 257.324 155.006 256.746 153.511C256.605 153.163 256.506 152.797 256.446 152.433C256.096 149.729 255.746 147.026 255.416 144.323C255.4 144.242 255.405 144.162 255.409 144.082C255.404 143.461 255.813 142.943 256.402 142.796C256.91 142.664 257.558 142.9 257.81 143.415C258.062 143.93 258.176 144.397 258.178 144.718C258.195 146.561 258.434 148.397 258.512 150.225ZM272.917 154.834C272.672 154.199 272.636 153.777 272.414 153.083L267.83 153.028C267.328 153.761 266.881 154.598 266.226 155.202C265.153 156.124 263.544 154.812 264.174 153.565C265.814 150.752 267.317 147.851 269.092 145.126C269.354 144.74 269.675 144.377 270.033 144.057C272.055 142.287 273.531 144.192 273.877 146.254C274.408 148.928 275.141 151.593 275.491 154.297C275.493 155.699 273.506 156.129 272.917 154.834ZM271.104 147.121C270.448 148.106 269.87 149.135 269.349 150.208C270.31 150.222 271.022 150.382 271.794 150.184C271.733 149.139 271.51 148.105 271.104 147.121ZM277.041 155.765C277.028 155.644 277.035 155.524 277.02 155.423C277.046 154.604 277.09 153.825 277.114 153.025C277.25 150.228 277.366 147.43 277.522 144.635C277.518 144.354 277.594 144.058 277.69 143.783C277.895 143.333 278.25 143.073 278.773 143.042C279.275 143.01 279.644 143.231 279.941 143.648C280.181 144.002 280.218 144.424 280.215 144.845C280.111 147.063 280.008 149.26 279.905 151.478C279.842 152.596 279.799 153.736 279.736 154.854C279.715 155.233 279.675 155.592 279.594 155.968C279.439 156.6 278.917 156.971 278.317 156.958C277.677 156.942 277.163 156.453 277.041 155.765ZM285.654 144.487C285.22 147.948 284.458 151.191 284.262 154.706C285.785 154.71 287.077 154.522 288.561 154.485C290.413 154.688 289.959 157.087 288.257 157.072C280.038 157.535 281.174 158.359 282.082 150.337C282.348 148.449 282.693 146.566 283 144.66C283.087 143.823 283.73 143.058 284.64 143.269C285.213 143.401 285.626 143.905 285.654 144.487ZM299.497 156.316C299.252 155.682 299.215 155.259 298.994 154.566L294.41 154.51C293.908 155.244 293.461 156.08 292.806 156.684C291.733 157.606 290.124 156.294 290.754 155.048C292.393 152.235 293.897 149.334 295.672 146.608C295.934 146.222 296.254 145.86 296.613 145.539C298.634 143.769 300.111 145.674 300.456 147.737C300.988 150.41 301.721 153.075 302.071 155.779C302.073 157.181 300.086 157.611 299.497 156.316ZM297.684 148.604C297.028 149.589 296.45 150.618 295.929 151.691C296.89 151.704 297.602 151.864 298.374 151.667C298.312 150.622 298.09 149.588 297.684 148.604ZM310.556 149.642C310.382 149.873 310.192 150.062 309.979 150.291C310.227 150.505 310.459 150.658 310.668 150.85C311.794 151.854 312.059 153.211 311.422 154.578C311.08 155.32 310.565 155.932 309.935 156.458C309.072 157.211 308.063 157.696 306.963 158.035C306.472 158.208 306.003 158.362 305.527 158.636C304.679 159.109 303.783 158.659 303.658 157.67C303.556 156.984 303.574 156.303 303.593 155.603C303.67 152.423 304.107 149.262 304.483 146.098C304.597 145.143 305.128 144.592 306.08 144.405C307.439 144.1 308.733 144.252 309.938 144.92C310.327 145.122 310.672 145.402 310.974 145.739C311.668 146.579 311.834 147.55 311.297 148.562C311.095 148.951 310.815 149.296 310.556 149.642ZM306.426 152.216C306.304 153.331 306.127 154.343 306.24 155.551C307.198 155.244 307.901 154.862 308.473 154.293C308.665 154.084 308.837 153.873 308.992 153.621C309.236 153.194 309.114 152.867 308.664 152.661C307.961 152.342 307.223 152.28 306.426 152.216ZM307.105 146.865C306.882 147.634 306.822 148.352 306.748 149.309C307.72 148.763 308.488 148.285 308.936 147.428C308.407 146.858 307.785 146.883 307.105 146.865ZM317.05 146.238C316.617 149.7 315.855 152.942 315.659 156.457C317.181 156.461 318.474 156.273 319.958 156.236C321.81 156.439 321.355 158.838 319.653 158.823C311.435 159.286 312.571 160.11 313.479 152.088C313.744 150.2 314.09 148.317 314.396 146.411C314.483 145.574 315.127 144.809 316.036 145.02C316.61 145.152 317.023 145.656 317.05 146.238ZM325.648 148.601C325.304 148.662 325.1 150.894 325.293 151.025C325.485 151.176 326.007 151.145 326.407 151.167C327.182 151.27 328.442 151.301 328.768 151.559C329.212 151.864 329.379 152.114 329.408 152.656C329.284 154.532 325.445 153.677 325.193 153.884C325.026 154.015 324.989 154.673 324.941 155.172C324.867 155.788 324.511 156.79 324.952 156.775C327.018 156.73 328.142 157.053 328.208 157.657C328.361 158.147 328.129 158.715 327.809 159.057C327.235 159.666 326.194 159.288 324.072 159.27C322.63 159.269 322.144 157.92 322.235 156.643C322.467 153.571 322.619 150.475 322.912 147.386C323.086 146.415 323.531 145.979 324.514 145.953C325.914 145.992 327.383 145.873 328.771 146.131C330.092 146.505 329.923 148.459 328.571 148.644C327.606 148.69 325.992 148.54 325.648 148.601ZM333.293 156.399C333.758 156.324 334.624 156.232 334.791 155.761C334.814 155.702 334.816 155.662 334.82 155.602C334.805 155.141 334.039 154.878 333.98 154.854C333.392 154.621 332.826 154.349 332.284 154.019C330.018 152.63 330.328 150.304 331.464 148.965C332.751 147.434 334.427 146.847 336.381 146.996C336.781 147.018 337.191 147.201 337.562 147.382C338.105 147.693 338.31 148.325 338.137 148.917C337.965 149.488 337.446 149.82 336.767 149.782C336.347 149.758 336.149 149.727 335.772 149.666C335.453 149.628 334.101 149.453 333.543 150.123C333.435 150.257 333.258 150.568 333.285 151.15C333.382 151.576 333.672 151.752 333.985 151.89C334.512 152.14 335.06 152.371 335.566 152.639C336.07 152.928 336.595 153.218 337.014 153.601C338.08 154.602 338.158 156.089 337.233 157.219C336.781 157.795 336.198 158.183 335.54 158.487C334.615 158.916 333.642 159.122 332.634 159.226C331.949 159.308 331.35 158.914 331.162 158.323C330.921 157.628 331.301 156.908 332.077 156.651C332.26 156.601 332.423 156.55 332.585 156.519C332.91 156.437 333.091 156.427 333.293 156.399ZM347.558 152.407C347.92 152.747 348.138 153.14 348.01 153.634C347.904 154.109 347.543 154.469 347.077 154.563C346.793 154.628 346.513 154.612 346.131 154.651C346.172 154.994 346.258 155.239 346.245 155.478C346.252 156.06 345.952 156.424 345.439 156.635C344.948 156.828 344.537 156.645 344.175 156.324C344.004 156.155 343.877 155.907 343.728 155.719C343.56 155.489 343.498 155.165 343.125 155.024C342.769 155.305 342.372 155.603 341.994 155.922C341.722 156.128 341.45 156.333 341.107 156.374C340.602 156.446 340.188 156.322 339.892 155.885C339.595 155.468 339.64 155.03 339.845 154.581C340.004 154.249 340.452 154.114 340.496 153.675C340.17 153.417 339.764 153.514 339.431 153.376C338.982 153.17 338.638 152.871 338.586 152.367C338.487 151.64 338.959 151.066 339.706 150.967C340.069 150.927 340.458 151.129 340.831 150.91C340.783 150.687 340.757 150.445 340.73 150.203C340.707 149.541 340.99 149.136 341.561 148.947C342.032 148.773 342.524 148.921 342.899 149.383C343.104 149.654 343.288 149.945 343.433 150.234C343.908 151.041 343.926 151.082 344.705 150.405C344.977 150.2 345.23 149.973 345.501 149.788C345.709 149.639 345.955 149.533 346.196 149.526C347.141 149.459 347.792 150.357 347.404 151.216C347.29 151.47 347.078 151.679 346.884 151.928C347.007 152.236 347.348 152.215 347.558 152.407Z" fill="black"/>
<path d="M66.8396 29.9802C66.6193 30.4406 66.3809 31.1869 65.8688 31.3847C65.6734 31.4601 65.6404 31.4058 65.4529 31.3415C65.0172 30.8031 65.0546 30.1161 65.0076 29.4544C64.7398 26.6271 64.4108 23.638 64.5464 20.8015C62.746 20.0227 59.3231 19.3907 56.7098 18.6348C55.7593 18.3599 55.7628 17.2282 56.6951 16.8966C59.2508 15.9877 62.5066 14.9418 64.1125 13.9491C63.6239 2.62332 59.6677 -1.95391 70.4629 9.21467L70.9831 9.63409C71.8551 9.91454 78.7353 6.15214 80.3849 5.84967C80.7354 5.78545 80.9055 5.77785 81.1983 5.9715C81.2544 6.40851 81.0398 6.85455 80.8408 7.23657C80.3662 8.1481 79.6737 8.98604 79.0937 9.83555C77.8235 11.7195 76.5286 13.5864 75.2091 15.4362C76.3769 16.7515 77.6718 17.9909 78.9011 19.2512C79.4002 19.7783 81.8809 22.1357 81.9482 22.7347C81.9673 22.9058 81.899 22.9195 81.7946 23.0413C80.7121 23.4313 78.7907 22.9538 77.6181 22.8514C75.5018 22.599 73.3581 22.3549 71.2262 22.3036C69.5345 24.6346 68.2104 27.4436 66.8396 29.9802Z" fill="#02C1A1"/>
<path d="M75.4581 137.282C72.5483 135.29 69.6639 133.262 66.805 131.198C65.4067 130.206 63.969 129.269 62.5777 128.267L52.9033 142.495C51.5552 144.467 50.293 146.53 48.8736 148.449L48.0113 149.915C51.1332 152.38 54.3583 154.742 57.5215 157.157L67.6956 165.08C68.8726 163.132 70.2067 161.235 71.486 159.352L79.149 148.243C80.2492 146.64 81.464 145.058 82.4684 143.399C82.6155 143.157 82.6692 142.973 82.6683 142.69C82.4035 142 76.4793 138.143 75.4581 137.282Z" fill="#FFA7D1"/>
<path d="M70.865 138.169C70.6578 138.082 70.3826 137.953 70.1542 138.003C69.9206 138.054 69.7762 138.213 69.6308 138.391C69.1561 138.973 68.7948 139.702 68.3898 140.338C67.4359 141.836 66.4815 143.345 65.4569 144.796C65.2489 143.172 65.1802 141.525 65.0034 139.896C64.9356 139.271 64.8449 138.37 64.3082 137.96C64.1564 137.843 63.9704 137.793 63.7802 137.834C63.5447 137.886 63.331 138.024 63.2061 138.233C62.9268 138.7 63.7543 145.129 63.9377 146.039C63.0635 145.467 59.0247 142.669 58.302 142.763C58.0646 142.794 57.8754 142.916 57.7362 143.109C57.5993 143.299 57.5576 143.529 57.6062 143.757C57.6467 143.947 57.7397 144.087 57.8851 144.215C58.488 144.744 59.3262 145.138 60.0096 145.576C60.851 146.116 61.6497 146.721 62.4897 147.265C61.3375 147.514 56.6936 148.314 56.0434 148.866C55.8051 149.069 55.7265 149.407 55.7074 149.703C55.7899 149.917 55.8312 150.039 56.0442 150.149C57.081 150.688 61.537 149.262 62.8304 148.918C62.1717 150.023 60.2126 152.618 60.0353 153.705C59.9839 154.02 60.0451 154.164 60.2173 154.408C60.3446 154.462 60.4616 154.515 60.602 154.519C61.0595 154.53 61.3191 154.453 61.6556 154.164C62.7288 152.686 63.6352 151.082 64.5445 149.5C64.8436 151.115 65.0765 152.777 65.2779 154.408C65.3567 155.046 65.3485 155.74 65.4927 156.365C65.5621 156.666 65.6741 156.962 65.8609 157.21C66.0773 157.499 66.3084 157.632 66.6612 157.683C66.8252 157.622 66.9079 157.615 67.0127 157.475C67.6675 156.602 66.6149 151.49 66.4231 150.185C67.2377 150.882 69.7061 153.577 70.5669 153.699C70.8771 153.742 71.1123 153.634 71.3383 153.425C71.4846 153.29 71.5748 153.117 71.5723 152.917C71.5687 152.616 71.418 152.388 71.235 152.16C70.8979 151.739 70.4259 151.398 70.0376 151.02C69.0134 150.025 68.0057 149.015 66.9609 148.041C68.1284 147.562 73.4886 146.553 73.9699 145.919C74.1171 145.726 74.1844 145.488 74.1393 145.247C74.0951 145.011 73.9553 144.813 73.7443 144.695C72.9969 144.277 67.686 145.855 66.6592 146.115C67.5292 144.708 70.9405 140.204 71.1731 138.971C71.2333 138.652 71.034 138.42 70.865 138.169Z" fill="black"/>
</svg>
