<svg width="469" height="356" viewBox="0 0 469 356" fill="none" xmlns="http://www.w3.org/2000/svg">
<mask id="mask0_1676_52104" style="mask-type:alpha" maskUnits="userSpaceOnUse" x="0" y="0" width="469" height="356">
<rect width="469" height="356" fill="#D9D9D9"/>
</mask>
<g mask="url(#mask0_1676_52104)">
<circle cx="255.599" cy="160.135" r="52.496" transform="rotate(-9.32504 255.599 160.135)" fill="#FFA7D1"/>
<path d="M261.838 153.605C262.213 152.004 262.899 150.492 263.858 149.157C264.817 147.821 266.03 146.687 267.427 145.82C268.824 144.953 270.379 144.369 272.001 144.103C273.624 143.836 275.283 143.892 276.884 144.267C278.485 144.642 279.997 145.328 281.333 146.287C282.669 147.246 283.803 148.459 284.67 149.856" stroke="#ADE6ED" stroke-width="4.81614"/>
<path d="M218.125 160.783C218.499 159.182 219.186 157.67 220.145 156.334C221.104 154.999 222.317 153.865 223.714 152.998C225.111 152.13 226.665 151.547 228.288 151.281C229.911 151.014 231.57 151.07 233.171 151.445C234.772 151.819 236.284 152.506 237.62 153.465C238.955 154.424 240.089 155.637 240.956 157.034" stroke="#ADE6ED" stroke-width="4.81614"/>
<path d="M251.576 144.553L247.77 160.885C246.991 164.225 249.856 167.286 253.241 166.73L267.047 164.463" stroke="#ADE6ED" stroke-width="4.81614"/>
<path d="M235.702 179.858C234.9 179.99 234.077 179.932 233.304 179.689C232.53 179.446 231.827 179.024 231.252 178.459C230.677 177.895 230.248 177.203 229.999 176.441C229.75 175.678 229.688 174.868 229.819 174.076C229.95 173.284 230.27 172.533 230.753 171.886C231.236 171.238 231.867 170.712 232.595 170.351C233.323 169.99 234.126 169.804 234.94 169.809C235.753 169.814 236.552 170.01 237.272 170.38" stroke="#ADE6ED" stroke-width="4.81614"/>
<path d="M235.702 179.859C234.899 179.991 234.139 180.309 233.483 180.787C232.828 181.264 232.297 181.889 231.933 182.607C231.569 183.326 231.383 184.119 231.391 184.921C231.398 185.723 231.599 186.51 231.977 187.219C232.354 187.927 232.898 188.536 233.562 188.996C234.226 189.455 234.993 189.752 235.798 189.861C236.603 189.97 237.424 189.889 238.193 189.624C238.962 189.359 239.657 188.918 240.22 188.338" stroke="#ADE6ED" stroke-width="4.81614"/>
<circle cx="255.846" cy="160.362" r="52.6354" transform="rotate(-9.32504 255.846 160.362)" fill="white"/>
<path d="M248.289 109.241C262.028 106.985 276.1 110.279 287.41 118.399C298.72 126.518 306.341 138.798 308.597 152.537C310.853 166.276 307.559 180.348 299.44 191.658C291.32 202.968 279.04 210.589 265.301 212.845L256.795 161.043L248.289 109.241Z" fill="black"/>
<path d="M265.793 222.561L316.168 237.377L335.992 285.998L310.338 331.812L258.525 340.321L219.567 305.116L222.802 252.708L265.793 222.561Z" fill="#03C3A3"/>
<circle cx="242.596" cy="78.1822" r="25.7163" transform="rotate(-9.32504 242.596 78.1822)" fill="#FF4B11"/>
<circle cx="236.142" cy="38.8741" r="25.7163" transform="rotate(-9.32504 236.142 38.8741)" fill="#FF4B11"/>
<path d="M166.369 513.293C160.128 475.287 169.241 436.359 191.702 405.071C214.164 373.784 248.134 352.701 286.14 346.46C324.147 340.219 363.075 349.332 394.363 371.793C425.65 394.255 446.733 428.225 452.974 466.231L309.671 489.762L166.369 513.293Z" fill="#FFA7D1"/>
<mask id="mask1_1676_52104" style="mask-type:alpha" maskUnits="userSpaceOnUse" x="164" y="344" width="289" height="170">
<path d="M166.369 513.293C160.128 475.287 169.241 436.359 191.702 405.071C214.164 373.784 248.134 352.701 286.14 346.46C324.147 340.219 363.075 349.332 394.363 371.793C425.65 394.255 446.733 428.225 452.974 466.231L309.671 489.762L166.369 513.293Z" fill="#F5B539"/>
</mask>
<g mask="url(#mask1_1676_52104)">
<path d="M224.017 320.871L246.313 333.205L229.132 352.021L206.837 339.687L224.017 320.871Z" fill="#FF4B11"/>
<path d="M350.784 355.702L373.08 368.036L355.899 386.852L333.604 374.518L350.784 355.702Z" fill="#FF4B11"/>
<path d="M445.246 319.673L467.542 332.007L450.361 350.823L428.066 338.489L445.246 319.673Z" fill="#FF4B11"/>
<path d="M255.493 348.849L277.789 361.183L260.608 379.999L238.313 367.665L255.493 348.849Z" fill="#FF4B11"/>
<path d="M316.49 338.833L338.785 351.166L321.605 369.983L299.309 357.649L316.49 338.833Z" fill="#FF4B11"/>
</g>
<path d="M264.451 213.047C261.991 214.859 259.285 215.634 256.413 215.17C234.629 211.754 212.434 199.504 205.845 177.094C204.447 180.603 199.333 211.058 194.056 197.901C191.854 182.538 200.299 168.857 204.464 154.878C191.101 155.579 177.773 159.194 164.407 160.907C162.088 161.052 158.826 162.636 157.445 159.981C156.146 156.67 161.049 154.437 162.795 152.129C189.817 128.433 216.248 104.069 243.614 80.7986C265.408 90.6668 287.109 100.541 308.888 110.43C319.678 115.34 330.461 120.269 341.235 125.2C345.96 126.427 345.605 131.796 340.432 131.757C327.953 134.156 315.481 136.544 303.002 138.943C300.091 139.506 299.676 139.395 298.271 136.592C296.761 133.032 293.173 131.372 290.728 128.56C283.509 121.988 275.561 113.73 265.278 113.056C259.123 111.865 253.145 109.047 246.969 112.046C219.246 118.299 203.049 147.701 209.617 174.925C214.8 200.278 242.33 209.129 264.468 213.035L264.451 213.047ZM198.248 189.266C200.415 184.572 201.382 179.537 201.681 174.338C199.329 178.996 198.087 183.915 198.248 189.266Z" fill="black"/>
<path d="M80.8208 62.4356C79.2627 66.9816 78.2905 70.6093 79.6067 74.5984C81.0736 77.6649 76.437 79.683 75.343 77.0467C74.0628 69.4231 73.6381 61.6023 70.3756 54.4459C69.5956 52.5139 67.2222 51.1744 66.7794 53.8268C63.7169 60.9445 71.6639 74.4851 67.889 78.2423C63.2211 76.5613 63.661 59.2811 58.7655 54.6608C53.8929 55.357 61.1775 81.0264 56.9941 80.5699C54.2564 80.4053 54.7545 76.364 54.2503 74.3868C53.5983 70.1281 52.2557 60.3413 48.6365 58.3747C60.0244 151.654 124.612 229.498 207.577 270.23C210.581 272.826 224.127 274.968 223.236 278.743C222.646 280.21 220.988 280.123 219.747 279.58C128.226 241.444 56.5825 156.519 44.2748 56.8324C48.564 51.9513 48.8107 51.958 52.8198 56.9318C54.8264 51.2065 56.5149 47.9147 62.6746 52.4692C69.4028 41.1587 74.0295 53.3451 76.7185 60.0003C87.4026 46.7834 90.1412 87.6763 90.9215 93.4637C102.825 160.719 158.159 221.154 221.234 245.383C224.276 247.284 232.209 246.416 232.305 250.624C231.191 253.217 226.585 251.11 224.392 250.525C159.267 227.956 108.267 170.163 88.3486 104.829C85.7243 90.7451 87.894 75.4866 80.8162 62.408L80.8208 62.4356Z" fill="black"/>
<path d="M344.574 350.991C349.094 357.176 354.379 362.441 360.481 367.279C361.457 363.792 356.736 363.622 357.684 360.424C358.855 358.238 361.472 360.605 362.962 361.277C369.315 364.997 376.219 367.123 383.259 368.528C385.728 365.959 370.205 355.287 367.394 354.105C363.381 352.212 368.503 348.262 368.881 345.498C378.146 312.197 393.362 280.045 396 245.262C397.642 218.108 375.06 205.572 351.111 216.176C333.766 222.53 317.548 231.553 302.448 242.036C295.224 240.378 309.509 233.099 311.477 231.453C341.894 212.558 395.958 187.55 399.814 243.067C398.06 279.84 381.116 313.372 371.953 348.565C376.383 351.041 401.223 361.449 392.368 367.457C390.955 367.944 390.003 368.356 389.644 369.965C383.607 375.416 374.458 369.397 367.739 367.939C366.524 368.649 367.337 369.46 367.402 370.196C368.06 375.588 362.419 373.33 359.856 371.407C354.334 366.597 337.865 355.57 342.056 347.389C353.628 323.82 362.552 299.08 372.204 274.684C375.516 264.775 380.244 254.398 378.939 243.745C374.032 227.551 352.161 234.761 341.889 241.513C333.766 246.116 326.64 252.181 318.931 257.35C316.44 257.938 316.281 254.497 318.284 253.582C333.685 242.284 352.553 225.124 373.012 231.866C379.669 234.563 383.203 239.633 383.035 246.833C376.898 283.372 359.076 317.02 344.576 351L344.574 350.991ZM388.331 363.065C384.265 359.008 382.885 358.138 378.305 356.934C381.842 359.377 383.412 362.842 388.331 363.065Z" fill="black"/>
<path d="M296.004 142.455C294.863 159.604 270.25 164.496 258.619 155.095C246.691 140.375 285.731 125.62 296.004 142.455ZM286.63 140.186C287.529 154.458 272.784 160.603 266.733 146.703C266.353 145.537 266.796 143.924 264.88 143.124C251.556 153.439 270.207 157.737 279.131 155.081C286.219 154.588 298.859 143.337 286.629 140.176L286.63 140.186ZM270.705 140.466C267.037 146.483 275.776 153.922 280.524 149.069C286.652 138.935 279.469 135.918 270.705 140.466Z" fill="black"/>
<path d="M273.568 165.265C276.092 187.02 256.807 199.74 239.566 185.505C236.341 182.547 231.248 174.132 238.018 172.454C250.213 170.508 261.211 167.086 273.568 165.265ZM269.86 170.174C259.203 170.789 249.119 174.373 238.718 176.601C240.649 185.488 250.863 188.79 258.816 187.182C266.681 185.787 269.302 177.305 269.86 170.174Z" fill="black"/>
<path d="M304.992 147.953C312.217 154.912 319.993 162.697 323.515 172.24C324.003 181.137 313.591 174.266 311.021 170.578C306.951 165.982 303.998 160.656 301.488 155.086C299.28 151.073 300.873 149.385 304.992 147.953ZM305.865 154.764C308.753 160.791 312.619 170.013 319.244 172.053C317.656 166.984 311.972 159.46 305.865 154.764Z" fill="black"/>
<path d="M227.213 136.448C237.904 134.834 242.942 149.75 236.288 145.929C234.773 142.681 231.523 139.284 227.655 140.287C224.036 141.024 222.636 144.58 221.984 147.909C215.917 151.976 218.849 137.793 227.223 136.446L227.213 136.448Z" fill="black"/>
<path d="M229.529 157.055C226.496 156.987 221.117 160.062 219.339 156.716C219.257 155.756 220.148 154.797 221.092 154.68C226.84 154.483 232.974 152.436 238.561 153.446C241.45 157.64 231.822 156.755 229.572 157.256C229.561 157.192 229.551 157.128 229.539 157.054L229.529 157.055Z" fill="black"/>
<path d="M198.248 189.265C198.087 183.915 199.327 178.986 201.681 174.338C201.391 179.536 200.416 184.581 198.248 189.265Z" fill="white"/>
<path d="M286.641 140.194C298.862 143.356 286.23 154.606 279.143 155.098C270.228 157.753 251.559 153.457 264.891 143.141C266.808 143.942 266.364 145.555 266.745 146.721C272.805 160.618 287.538 154.457 286.633 140.204L286.641 140.194Z" fill="white"/>
<path d="M270.715 140.474C279.498 135.923 286.654 138.953 280.534 149.077C275.787 153.929 267.047 146.491 270.715 140.474Z" fill="white"/>
<path d="M269.858 170.164C269.31 177.294 266.679 185.777 258.814 187.173C250.861 188.781 240.647 185.478 238.716 176.591C249.118 174.373 259.203 170.789 269.858 170.164Z" fill="white"/>
<path d="M305.863 154.755C311.979 159.449 317.654 166.975 319.242 172.043C312.617 170.003 308.752 160.791 305.863 154.755Z" fill="white"/>
</g>
</svg>
