<svg width="1508" height="751" viewBox="0 0 1508 751" fill="none" xmlns="http://www.w3.org/2000/svg">
<path d="M897.931 151.646C1009.05 128.473 1351.54 299.378 1507.9 422.669V594.237C1343.67 487.285 977.4 382.065 885.155 362.457C769.848 337.947 786.817 174.818 897.931 151.646Z" fill="url(#paint0_linear_1760_77632)"/>
<path d="M805.156 236.551C806.864 236.985 808.695 237.232 810.458 237.301C802.807 262.5 803.062 303.895 815.571 327.349C822.568 340.467 835.381 348.954 849.362 353.167C864.102 357.61 879.09 357.294 894.165 355.077C896.279 354.728 901.442 353.622 905.181 351.992L925.403 345.139C938.267 339.188 951.694 329.268 960.665 318.23C964.766 313.184 968.186 307.717 971.511 302.145C971.785 302.057 972.057 301.964 972.328 301.868C981.886 298.451 990.413 290.143 994.711 281.021C997.737 274.601 999.006 266.725 996.538 259.944C995.336 256.642 993.195 253.722 989.932 252.231C986.404 250.62 982.711 251.101 979.182 252.396C979.542 245.521 977.878 236.469 976.451 229.644C977.164 226.915 978.031 224.272 978.472 221.477C980.516 208.534 977.421 194.971 970.835 183.731C961.208 167.305 944.994 157.263 926.86 152.535C906.809 147.307 882.137 148.435 862.39 154.438C860.034 155.179 857.7 155.987 855.39 156.861C853.08 157.735 850.796 158.674 848.539 159.678C846.282 160.682 844.056 161.75 841.86 162.881C839.664 164.012 837.502 165.205 835.374 166.459C818.567 176.338 799.143 194.486 794.104 214.01C792.807 219.037 792.758 224.643 795.449 229.228C797.614 232.916 801.007 235.496 805.156 236.551Z" fill="black"/>
<path d="M979.099 257.306C981.839 256.05 984.718 254.988 987.711 256.095C989.839 256.882 991.294 258.644 992.186 260.677C994.428 265.784 993.61 272.164 991.586 277.2C988.211 285.601 980.913 293.286 972.549 296.838C971.869 297.127 971.169 297.39 970.444 297.543C971.504 294.873 972.756 292.281 973.716 289.573C977.105 280.011 979.775 267.453 979.099 257.306Z" fill="#FEFDFD"/>
<mask id="mask0_1760_77632" style="mask-type:alpha" maskUnits="userSpaceOnUse" x="797" y="153" width="117" height="80">
<path d="M811.813 232.632C811.651 232.652 811.491 232.669 811.329 232.683C807.778 232.986 804.211 232.154 801.464 229.783C799.099 227.741 797.862 224.812 797.675 221.73C797.024 211.01 805.656 198.571 812.41 190.974C826.458 175.172 846.006 163.304 866.388 157.803C868.409 157.278 870.442 156.805 872.487 156.382C874.532 155.96 876.586 155.589 878.649 155.269C880.712 154.949 882.782 154.681 884.859 154.465C886.936 154.249 889.017 154.085 891.102 153.973C893.838 157.118 913.042 178.105 913.452 179.587C911.881 179.021 910.329 178.407 908.755 177.849C890.494 171.373 869.856 173.315 852.481 181.638C836.119 189.474 824.319 203.258 816.85 219.584C814.91 223.824 813.361 228.237 811.813 232.632Z" fill="#FF6837"/>
</mask>
<g mask="url(#mask0_1760_77632)">
<path d="M821.782 140.405C843.151 136.074 864.527 131.314 885.851 126.713C894.83 124.775 903.975 122.465 912.991 120.87C914.134 120.668 915.104 120.454 916.103 120.735C916.899 121.259 917.237 121.872 917.452 122.628C918.232 125.355 918.558 128.246 919.094 131.033L922.485 149.019C925.119 162.019 927.868 174.995 930.733 187.945C931.53 191.684 932.172 198.756 933.822 201.917C934.276 204.913 934.973 207.865 935.613 210.825C935.269 210.996 934.923 211.19 934.551 211.332C932.04 212.29 928.14 212.859 925.393 213.502C919.41 214.893 913.446 216.373 907.475 217.812L821.007 238.606C816.656 239.663 794.104 245.653 791.236 245.235C789.576 238.881 788.478 232.363 787.103 225.944C784.535 214.609 782.061 203.256 779.683 191.883L773.994 165.745C773.038 161.419 771.768 157.075 771.086 152.698C771.029 152.332 771.136 152.076 771.327 151.702C775.349 149.915 814.141 142.059 821.782 140.405Z" fill="black"/>
</g>
<path d="M891.399 154.45C895.188 154.134 898.976 154.174 902.773 154.268C921.586 154.733 940.568 159.58 955.195 171.929C955.543 172.225 955.888 172.525 956.228 172.83C956.569 173.134 956.906 173.442 957.24 173.754C957.573 174.067 957.902 174.384 958.228 174.704C958.553 175.025 958.875 175.349 959.193 175.678C959.51 176.006 959.824 176.338 960.133 176.675C960.443 177.011 960.748 177.35 961.049 177.694C961.35 178.038 961.647 178.385 961.939 178.736C962.232 179.087 962.52 179.441 962.804 179.799C963.088 180.157 963.368 180.518 963.643 180.883C963.918 181.248 964.188 181.616 964.454 181.987C964.72 182.359 964.982 182.734 965.239 183.112C965.495 183.489 965.748 183.87 965.995 184.254C966.243 184.638 966.485 185.025 966.723 185.415C966.961 185.805 967.194 186.198 967.423 186.594C967.651 186.989 967.875 187.388 968.093 187.789C968.312 188.19 968.526 188.594 968.734 189C968.943 189.407 969.147 189.815 969.345 190.227C969.544 190.638 969.738 191.052 969.926 191.468C970.115 191.884 970.298 192.303 970.476 192.723C970.655 193.144 970.828 193.567 970.996 193.992C971.164 194.416 971.326 194.843 971.484 195.272C971.641 195.701 971.793 196.132 971.94 196.564C972.087 196.997 972.229 197.431 972.365 197.867C972.501 198.303 972.632 198.741 972.758 199.18C972.883 199.619 973.003 200.06 973.118 200.503C973.233 200.945 973.342 201.388 973.446 201.833C973.549 202.278 973.648 202.724 973.741 203.172C973.834 203.619 973.921 204.067 974.003 204.517C974.085 204.966 974.161 205.416 974.232 205.868C974.303 206.319 974.368 206.771 974.428 207.224C974.488 207.677 974.542 208.131 974.591 208.585C974.639 209.039 974.683 209.494 974.72 209.949C975.468 218.937 973.915 227.61 969.583 235.548C962.756 223.201 954.811 212.019 945.003 201.832C941.986 198.697 938.793 195.505 935.387 192.801C936.015 191.347 937.725 188.31 937.16 186.738C936.931 186.1 936.387 185.591 935.76 185.35C935.207 185.137 934.6 185.112 934.066 185.393C932.717 186.101 932.319 188.656 931.731 189.942C928.527 187.837 925.325 185.793 921.923 184.014C919.236 182.609 916.455 181.419 913.749 180.063C913.339 178.581 894.136 157.594 891.399 154.45Z" fill="black"/>
<path d="M927.096 199.936C929.011 198.736 930.686 197.407 932.32 195.848C935.391 198.274 938.133 200.977 940.871 203.767C942.11 205.017 943.325 206.29 944.514 207.586C945.704 208.883 946.868 210.202 948.007 211.544C949.145 212.885 950.258 214.249 951.343 215.634C952.429 217.018 953.487 218.424 954.518 219.85C955.549 221.276 956.552 222.721 957.527 224.186C958.502 225.651 959.448 227.134 960.365 228.636C961.282 230.138 962.17 231.657 963.029 233.193C963.887 234.729 964.715 236.281 965.513 237.849C966.198 239.194 967.285 241.898 969.136 241.704C970.13 241.601 970.933 240.815 971.504 240.05C973.729 237.069 975.151 233.098 976.451 229.644C977.878 236.469 979.542 245.521 979.182 252.396C976.078 253.865 969.768 257.819 968.533 261.118C968.271 261.82 968.326 262.471 968.658 263.139C968.86 263.543 969.142 263.852 969.583 263.989C970.273 264.203 971.045 263.93 971.638 263.573C974.22 262.015 975.885 259.061 979.1 257.306C979.776 267.453 977.105 280.011 973.716 289.573C972.756 292.281 971.504 294.873 970.444 297.543C969.696 297.605 969.17 297.737 968.658 298.319C967.439 299.704 966.176 302.832 965.143 304.542C963.964 306.471 962.716 308.354 961.401 310.193C960.085 312.031 958.705 313.82 957.26 315.558C943.239 332.479 922.067 344.041 900.863 348.997C897.401 349.807 893.662 350.735 890.109 351.02C889.893 351.038 889.885 351.034 889.701 351.033C892.839 349.639 895.948 348.184 899.029 346.668C918.322 337.204 937.339 317.308 944.309 296.871C944.235 296.823 944.16 296.777 944.087 296.728C941.753 295.141 940.128 292.816 939.673 290.011C939.645 289.839 939.622 289.667 939.602 289.493C939.583 289.32 939.568 289.146 939.557 288.972C939.546 288.798 939.54 288.624 939.538 288.45C939.536 288.276 939.538 288.101 939.544 287.927C939.551 287.753 939.562 287.579 939.577 287.405C939.592 287.231 939.612 287.058 939.636 286.885C939.659 286.713 939.688 286.541 939.72 286.369C939.752 286.198 939.789 286.028 939.83 285.858C939.87 285.689 939.916 285.52 939.965 285.353C940.014 285.186 940.067 285.02 940.125 284.855C940.182 284.69 940.244 284.527 940.309 284.366C940.375 284.204 940.445 284.044 940.518 283.886C940.592 283.728 940.669 283.572 940.75 283.418C940.832 283.263 940.917 283.111 941.005 282.961C941.094 282.811 941.187 282.663 941.283 282.518C941.379 282.372 941.479 282.229 941.582 282.089C943.506 279.508 945.981 278.645 949.061 278.204C949.733 274.903 949.772 271.173 949.787 267.81C949.866 250.645 944.994 234.156 937.473 218.839C935.608 215.121 933.652 211.453 931.606 207.832C930.096 205.201 928.468 202.645 927.096 199.936Z" fill="#FEFDFD"/>
<path d="M944.309 296.871C944.235 296.823 944.16 296.777 944.087 296.728C941.753 295.141 940.128 292.816 939.673 290.011C939.645 289.839 939.622 289.667 939.602 289.493C939.583 289.32 939.568 289.146 939.557 288.972C939.546 288.798 939.54 288.624 939.538 288.45C939.535 288.275 939.538 288.101 939.544 287.927C939.551 287.753 939.562 287.579 939.577 287.405C939.592 287.231 939.612 287.058 939.636 286.885C939.659 286.713 939.688 286.541 939.72 286.369C939.752 286.198 939.789 286.027 939.83 285.858C939.87 285.688 939.916 285.52 939.965 285.353C940.014 285.185 940.067 285.019 940.125 284.855C940.182 284.69 940.244 284.527 940.309 284.366C940.375 284.204 940.445 284.044 940.518 283.886C940.592 283.728 940.669 283.572 940.75 283.417C940.831 283.263 940.917 283.111 941.005 282.961C941.094 282.811 941.187 282.663 941.283 282.518C941.379 282.372 941.479 282.229 941.582 282.089C943.506 279.508 945.981 278.644 949.061 278.204C952.106 278.422 954.777 279.263 956.817 281.654C958.532 283.665 959.391 286.463 959.182 289.093C958.972 291.738 957.661 294.342 955.626 296.053C955.505 296.154 955.382 296.251 955.257 296.346C955.131 296.441 955.003 296.532 954.873 296.621C954.743 296.709 954.611 296.794 954.477 296.876C954.342 296.958 954.206 297.036 954.068 297.111C953.929 297.186 953.789 297.258 953.648 297.326C953.506 297.394 953.363 297.459 953.218 297.52C953.073 297.581 952.926 297.638 952.779 297.692C952.631 297.746 952.482 297.796 952.331 297.842C952.181 297.888 952.03 297.931 951.877 297.97C951.725 298.009 951.572 298.044 951.418 298.075C951.263 298.106 951.109 298.134 950.953 298.157C950.798 298.181 950.642 298.201 950.485 298.217C950.329 298.233 950.172 298.245 950.015 298.253C949.858 298.261 949.701 298.265 949.543 298.265C949.386 298.266 949.229 298.262 949.072 298.255C948.915 298.247 948.758 298.236 948.602 298.221C947.067 298.073 945.67 297.575 944.309 296.871Z" fill="#FF4B11"/>
<path d="M847.048 209.635C848.715 211.842 851.021 213.575 853.489 214.794C857.825 216.936 863.033 217.018 867.566 215.429C873.67 213.291 877.483 208.36 880.186 202.73C880.812 203.254 881.443 203.782 882.119 204.239C885.803 206.729 890.098 207.743 894.473 206.834C899.357 205.82 903.258 202.864 905.986 198.756C908.009 200.295 910.322 201.541 912.783 202.209C917.777 203.565 922.686 202.439 927.096 199.936C928.468 202.645 930.096 205.201 931.606 207.832C933.652 211.452 935.608 215.121 937.473 218.839C944.994 234.156 949.867 250.645 949.787 267.81C949.772 271.173 949.733 274.903 949.061 278.204C945.982 278.644 943.506 279.508 941.582 282.089C941.479 282.229 941.379 282.372 941.283 282.518C941.187 282.663 941.094 282.811 941.006 282.961C940.917 283.111 940.832 283.263 940.75 283.417C940.669 283.572 940.592 283.728 940.518 283.886C940.445 284.044 940.375 284.204 940.31 284.366C940.244 284.527 940.183 284.69 940.125 284.855C940.068 285.02 940.014 285.186 939.965 285.353C939.916 285.52 939.871 285.688 939.83 285.858C939.789 286.027 939.753 286.198 939.72 286.369C939.688 286.541 939.66 286.713 939.636 286.885C939.612 287.058 939.592 287.231 939.577 287.405C939.562 287.579 939.551 287.753 939.545 287.927C939.538 288.101 939.536 288.275 939.538 288.45C939.54 288.624 939.547 288.798 939.557 288.972C939.568 289.146 939.583 289.32 939.602 289.493C939.622 289.667 939.646 289.839 939.673 290.011C940.128 292.816 941.753 295.141 944.087 296.728C944.16 296.777 944.235 296.823 944.31 296.871C937.339 317.308 918.322 337.204 899.029 346.668C895.949 348.184 892.839 349.639 889.701 351.033C879.231 353.376 862.786 352.327 852.431 349.509C838.911 345.831 826.952 338.378 819.906 325.991C810.127 308.797 808.536 279.62 810.547 260.207C811.386 252.11 812.973 244.245 815.127 236.403C817.562 235.904 819.926 235.281 822.249 234.389C833.83 229.942 842.076 220.792 847.048 209.635Z" fill="#FEFDFD"/>
<path d="M914.782 305.251C915.515 305.108 916.138 304.983 916.872 305.241C917.322 305.4 917.686 305.71 917.858 306.16C918.304 307.331 917.686 308.896 917.19 309.972C917.094 310.186 916.995 310.399 916.893 310.61C916.791 310.821 916.687 311.031 916.58 311.239C916.473 311.448 916.364 311.655 916.252 311.861C916.14 312.067 916.025 312.271 915.908 312.474C915.791 312.677 915.671 312.879 915.549 313.079C915.427 313.279 915.302 313.477 915.175 313.674C915.048 313.871 914.918 314.066 914.786 314.26C914.654 314.454 914.52 314.646 914.383 314.836C914.246 315.026 914.107 315.215 913.966 315.402C913.824 315.589 913.68 315.774 913.534 315.957C913.388 316.141 913.24 316.322 913.089 316.502C912.938 316.681 912.786 316.859 912.631 317.035C912.476 317.211 912.318 317.384 912.159 317.556C911.999 317.728 911.838 317.898 911.675 318.066C911.511 318.234 911.345 318.4 911.177 318.563C911.01 318.727 910.84 318.889 910.668 319.048C910.496 319.208 910.323 319.365 910.147 319.52C909.971 319.676 909.794 319.829 909.614 319.979C909.435 320.13 909.254 320.279 909.07 320.425C908.887 320.571 908.702 320.715 908.516 320.857C908.329 320.998 908.14 321.138 907.95 321.274C907.76 321.412 907.568 321.546 907.374 321.678C907.18 321.81 906.985 321.94 906.789 322.068C906.592 322.195 906.393 322.32 906.193 322.442C905.993 322.564 905.792 322.684 905.589 322.802C905.386 322.919 905.182 323.034 904.976 323.146C904.77 323.259 904.563 323.368 904.355 323.475C904.146 323.583 903.936 323.687 903.725 323.789C903.514 323.891 903.302 323.99 903.088 324.087C902.875 324.183 902.66 324.277 902.444 324.368C902.228 324.46 902.011 324.548 901.793 324.634C901.575 324.72 901.355 324.803 901.135 324.884C900.966 324.944 900.796 325.002 900.625 325.059C900.454 325.115 900.282 325.169 900.11 325.221C899.938 325.273 899.765 325.323 899.591 325.37C899.418 325.418 899.244 325.464 899.069 325.507C898.894 325.55 898.719 325.591 898.543 325.63C898.368 325.669 898.192 325.706 898.015 325.741C897.838 325.775 897.661 325.808 897.484 325.838C897.306 325.868 897.129 325.896 896.951 325.922C896.773 325.948 896.594 325.971 896.415 325.992C896.237 326.014 896.058 326.033 895.879 326.05C895.7 326.067 895.52 326.081 895.341 326.094C895.161 326.106 894.982 326.116 894.802 326.124C894.622 326.132 894.442 326.138 894.262 326.141C894.082 326.145 893.902 326.146 893.722 326.145C893.542 326.144 893.363 326.14 893.183 326.135C893.003 326.13 892.823 326.122 892.643 326.112C892.464 326.102 892.284 326.09 892.105 326.075C891.925 326.061 891.746 326.044 891.567 326.025C891.388 326.006 891.21 325.985 891.031 325.962C890.853 325.938 890.675 325.913 890.497 325.885C890.319 325.857 890.142 325.827 889.965 325.795C889.788 325.763 889.611 325.728 889.435 325.692C889.259 325.655 889.083 325.617 888.908 325.576C888.732 325.535 888.558 325.491 888.384 325.446C888.209 325.401 888.036 325.353 887.863 325.304C887.69 325.254 887.518 325.202 887.346 325.148C887.174 325.094 887.003 325.038 886.833 324.98C886.663 324.922 886.493 324.862 886.324 324.799C886.156 324.737 885.988 324.672 885.821 324.606C885.653 324.539 885.487 324.47 885.322 324.4C885.156 324.329 884.992 324.256 884.828 324.182C884.664 324.107 884.502 324.03 884.34 323.951C883.686 323.647 882.921 323.259 882.38 322.777C881.857 322.312 881.483 321.546 881.449 320.845C881.421 320.275 881.621 319.679 882.03 319.275C882.496 318.815 883.158 318.65 883.798 318.751C884.68 318.89 885.681 319.603 886.494 319.994C888.699 321.052 891.228 321.526 893.665 321.549C900.9 321.617 907.98 317.163 911.597 310.952C912.59 309.247 913.259 306.709 914.667 305.357C914.704 305.321 914.744 305.286 914.782 305.251Z" fill="black"/>
<path d="M882.681 266.077C882.805 266.063 882.928 266.052 883.052 266.043C883.721 265.999 884.403 266.088 884.903 266.579C885.199 266.869 885.342 267.238 885.418 267.638C885.923 270.334 886.113 275.25 886.375 278.17C887.132 286.3 887.767 294.439 888.279 302.588C890.869 301.863 896.432 299.06 898.855 299.53C899.333 299.622 899.814 299.857 900.065 300.293C900.376 300.834 900.344 301.644 900.144 302.216C899.861 303.026 898.999 303.358 898.285 303.69C895.875 304.431 888.278 307.831 886.24 307.561C885.665 307.485 885.161 307.104 884.828 306.643C884.484 306.167 884.411 305.408 884.331 304.837C883.697 300.316 883.414 295.648 883.052 291.096L881.584 272.243C881.478 270.776 880.962 269.134 881.299 267.681C881.492 266.847 881.986 266.51 882.681 266.077Z" fill="black"/>
<path d="M831.96 312.129C834.061 311.57 836.438 311.589 838.48 312.372C840.84 313.277 842.684 315.168 843.664 317.483C844.665 319.847 844.803 322.528 843.833 324.924C842.646 327.854 840.562 329.622 837.7 330.807C835.353 331.503 832.851 331.55 830.587 330.539C828.32 329.527 826.618 327.622 825.748 325.311C824.779 322.737 824.805 319.909 825.954 317.4C827.172 314.74 829.273 313.147 831.96 312.129Z" fill="#FF4B11"/>
<path d="M840.226 248.837C846.199 246.982 852.978 246.965 858.803 249.346C865.05 251.9 869.251 257.281 871.776 263.383C875.641 272.723 877.331 287.718 873.323 297.227C870.622 303.635 865.095 308.189 858.763 310.746C858.714 310.765 858.665 310.785 858.616 310.803C852.435 312.991 845.349 312.898 839.408 310.008C832.916 306.851 828.858 300.258 826.576 293.642C823.397 284.424 821.857 269.584 826.314 260.611C829.139 254.923 834.264 250.864 840.226 248.837Z" fill="black"/>
<path d="M843.246 252.547C847.739 251.357 853.252 251.594 857.486 253.522C862.796 255.94 866.086 260.741 868.037 266.068C871.097 274.426 872.901 287.707 868.962 296.02C866.435 301.351 861.822 304.844 856.34 306.762C856.069 306.858 855.796 306.949 855.52 307.033C850.665 308.525 845.27 308.233 840.769 305.797C835.313 302.843 831.894 296.559 830.181 290.769C827.867 282.944 826.476 269.323 830.555 261.942C833.26 257.046 838.011 254.093 843.246 252.547Z" fill="#FEFDFD"/>
<path d="M834.182 268.729C834.669 268.561 835.155 268.397 835.676 268.399C835.786 268.4 835.896 268.407 836.006 268.419C836.116 268.432 836.224 268.449 836.332 268.472C836.44 268.495 836.547 268.524 836.652 268.557C836.757 268.591 836.86 268.63 836.961 268.673C837.063 268.717 837.162 268.766 837.258 268.819C837.355 268.873 837.448 268.931 837.539 268.994C837.63 269.057 837.717 269.124 837.801 269.196C837.885 269.267 837.966 269.342 838.042 269.422C838.746 270.15 839.091 271.15 839.066 272.156C839.032 273.475 838.479 274.359 837.536 275.21C837.105 275.388 836.692 275.543 836.222 275.573C835.309 275.633 834.395 275.35 833.734 274.705C833.008 273.995 832.657 272.983 832.645 271.982C832.628 270.577 833.218 269.665 834.182 268.729Z" fill="black"/>
<path d="M907.938 226.194C914.352 224.113 921.49 224.136 927.73 226.792C933.371 229.193 937.36 234.025 939.599 239.641C941.387 244.125 942.485 248.83 943.181 253.597C944.285 261.145 944.479 268.145 941.379 275.275C938.659 281.533 933.763 285.795 927.469 288.273C927.266 288.348 927.062 288.419 926.857 288.486C920.584 290.549 913.129 290.305 907.219 287.299C900.042 283.65 895.716 275.261 893.355 267.882C890.32 258.398 888.982 246.601 893.75 237.46C896.706 231.794 901.942 228.105 907.938 226.194Z" fill="black"/>
<path d="M911.185 229.847C916.329 228.512 922.836 228.944 927.507 231.56C932.66 234.447 935.74 240.194 937.304 245.713C939.904 254.886 941.354 266.718 936.456 275.326C933.728 280.118 929.439 283.296 924.157 284.725C919.352 285.922 913.534 285.74 909.103 283.349C902.633 279.858 899.208 272.176 897.21 265.437C894.872 257.55 893.522 246.961 897.673 239.437C900.545 234.23 905.641 231.429 911.185 229.847Z" fill="#FEFDFD"/>
<path d="M901.724 260.646C900.238 252.271 896.715 238.808 899.504 233.923C901.816 229.877 903.577 229.359 907.332 230.265C911.806 231.344 914.357 223.657 917.872 229.936C921.14 235.776 923.969 247.631 926.303 258.38C928.636 269.13 930.638 279.666 929.547 283.719C927.696 288.872 923.313 285.55 919.414 285.919C915.464 286.293 914.431 290.61 910.766 285.8C905.972 279.509 903.323 269.66 901.724 260.646Z" fill="black"/>
<path d="M833.96 282.724C832.474 274.348 828.951 260.886 831.74 256.001C834.052 251.954 835.813 251.436 839.568 252.343C844.042 253.421 846.593 245.735 850.108 252.014C853.377 257.854 856.205 269.708 858.539 280.458C860.873 291.207 862.874 301.743 861.783 305.797C859.932 310.95 855.549 307.628 851.65 307.997C847.7 308.371 846.667 312.687 843.002 307.878C838.208 301.587 835.559 291.737 833.96 282.724Z" fill="black"/>
<path d="M905.997 243.859C906.341 243.78 906.691 243.703 907.045 243.736C908.103 243.834 909.139 244.458 909.777 245.295C910.509 246.255 910.87 247.532 910.659 248.729C910.455 249.886 909.828 250.449 908.932 251.097C908.063 251.286 907.305 251.385 906.456 251.045C905.208 250.545 904.663 249.353 904.141 248.213C904.24 246.336 904.664 245.222 905.997 243.859Z" fill="black"/>
<path d="M595.275 183.477C484.631 160.402 155.802 261.389 0.100098 384.158V555C163.63 448.501 503.42 369.406 595.275 349.881C710.094 325.475 733.58 212.32 595.275 183.477Z" fill="url(#paint1_linear_1760_77632)"/>
<g clip-path="url(#clip0_1760_77632)">
<circle cx="610.57" cy="266.071" r="82.0603" transform="rotate(-168.258 610.57 266.071)" fill="white"/>
<path d="M593.872 346.416C572.564 341.987 553.888 329.275 541.952 311.076C530.017 292.877 525.8 270.682 530.229 249.374C534.658 228.065 547.37 209.389 565.569 197.453C583.768 185.518 605.963 181.301 627.271 185.73L610.572 266.073L593.872 346.416Z" fill="#FF4B11"/>
<path d="M627.904 184.173L686.196 148.589L588.619 128.308L627.904 184.173Z" fill="#03C3A3"/>
<circle cx="645.191" cy="99.0746" r="40.1991" transform="rotate(11.7418 645.191 99.0746)" fill="#FF4B11"/>
<rect x="405.654" y="327.749" width="375.98" height="230.16" rx="115.08" transform="rotate(11.7418 405.654 327.749)" fill="#FFA7D1"/>
<path d="M475.085 566.286C476.856 559.627 479.889 552.977 479.44 545.618C411.932 533.716 349.502 456.007 399.278 393C401.423 389.337 408.665 383.13 408.969 391.188C407.804 398.226 404.855 405.042 406.685 412.271C411.303 454.917 445.953 493.533 489.375 496.529C496.909 475.39 500.849 452.567 506.99 430.827C508.851 418.291 506.376 419.965 519.448 418.782C523.158 410.099 522.772 399.999 535.28 402.39C542.892 403.854 534.894 413.982 536.326 419.625C566.675 421.586 597.174 421.329 627.065 427.572C640.828 430.656 626.499 457.215 627.136 467.68C631.986 470.906 633.327 475.264 630.457 480.98C654.198 487.821 624.453 511.012 614.488 517.933C609.127 541.294 603.615 565.235 597.982 589.76C593.192 593.261 586.482 593.4 580.71 596.756C568.401 587.319 549.473 589.325 535.176 582.513C517.566 576.604 498.981 574.811 480.982 570.415C478.666 569.888 476.293 569.276 475.076 566.328L475.085 566.286ZM614.046 465.078C604.725 464.823 596.662 470.398 590.263 476.482C581.419 485.601 569.652 490.168 558.145 494.773C485.755 525.329 406.37 485.737 398.698 405.237C370.676 444.552 398.797 497.041 434.462 521.039C476.555 547.401 530.911 548.694 576.578 530.941C594.152 522.49 612.421 514.422 626.595 500.634C629.681 498.387 637.473 487.962 629.616 488.249C620.805 489.187 614.408 507.078 606.22 501.803C604.408 496.201 627.409 483.548 624.564 475.542C614.874 473.052 600.331 497.988 596.719 489.883C602.684 481.371 610.976 475.696 614.06 465.081L614.046 465.078ZM496.741 498.104C520.945 501.855 545.15 494.291 567.147 484.749C581.551 479.093 590.606 464.956 605.664 460.091C610.786 452.773 613.171 441.299 613.708 431.987C601.459 428.131 531.464 423.974 514.75 425.993C509.531 441.509 497.27 490.19 496.744 498.09L496.741 498.104ZM595.211 528.278C560.32 547.02 524.525 551.714 486.193 546.56C484.461 552.602 482.764 558.264 482.939 564.866C500.673 568.82 518.502 571.097 535.839 576.457C550.026 580.508 564.163 586.304 579.092 586.355C585.063 567.721 591.211 549.243 595.211 528.278ZM607.149 522.958C601.381 524.722 601.987 528.823 600.421 533.425C597.239 551.955 588.59 569.08 586.146 587.568C590.765 587.397 593.148 585.525 594.095 581.181C598.349 561.431 603.023 542.884 607.149 522.958ZM614.522 457.421C617.566 458.455 619.207 459.72 621.572 462.087C622.961 452.401 626.783 443.533 626.418 434.405L621.155 433.311C617.323 440.793 616.971 449.146 614.525 457.406L614.522 457.421ZM526.96 419.584C531.752 418.361 531.025 412.985 529.87 408.874C527.789 412.372 526.508 415.529 526.96 419.584ZM621.27 466.833C620.374 467.064 620.754 467.813 620.775 468.502C621.696 468.291 621.291 467.522 621.27 466.833Z" fill="black"/>
<path d="M508.442 163.028C415.605 124.154 570.785 74.9265 625.432 178.337C657.179 166.564 695.661 157.605 724.738 180.294C742.821 191.302 756.768 235.307 720.982 223.134C723.013 242.211 713.024 259.847 691.629 256.397C697.224 307.941 656.004 348.042 605.37 349.457C599.462 349.391 592.956 350.123 587.254 348.848C584.991 347.35 584.199 343.568 587.761 343.4C656.321 350.668 709.746 291.368 675.084 226.175C662.181 201.772 631.183 187.825 604.351 188.843C578.713 194.784 554.244 205.763 528.795 212.8C478.889 229.255 457.977 185.679 508.459 163.016L508.442 163.028ZM619.79 182.718C604.883 144.975 561.741 123.234 522.664 121.811C467.708 124.904 480.113 154.281 525.469 160.076C534.516 159.574 541.346 170.239 528.348 167.701C501.104 159.314 459.024 207.276 506.978 210.38C526.921 209.716 545.342 200.697 564.257 195.174C582.776 189.48 599.827 179.61 619.793 182.703L619.79 182.718ZM628.361 185.08C652.866 193.969 677.372 207.653 684.86 234.34C687.65 240.89 689.589 252.251 698.88 250.937C705.28 250.138 710.51 247.027 713.085 240.937C722.377 213.628 700.153 216.319 698.327 203.627C705.214 196.766 718.254 221.227 733.573 219.112C743.534 216.939 732.235 194.194 726.938 190.041C701.176 164.215 657.637 169.369 628.378 185.068L628.361 185.08Z" fill="black"/>
<path d="M906.37 135.968C896.489 141.552 898.957 159.961 891.558 159.405C886.253 158.228 896.156 141.438 891.688 133.438C882.467 137.64 885.709 156.477 878.309 156.711C871.815 154.096 882.166 139.588 878.044 132.359C863.235 142.754 871.058 165.968 860.349 178.258C851.484 180.747 860.314 158.241 854.951 154.119C842.066 211.097 831.429 269.003 801.106 320.034C781.319 351.875 753.08 407.91 715.08 417.773C709.951 418.463 708.515 412.061 714.103 411.734C761.524 398.216 811.78 291.732 826.877 246.157C836.041 218.464 840.47 189.565 846.463 161.094C847.869 152.468 851.362 142.103 861.564 150.223C866.404 141.969 866.83 130.4 876.322 125.822C880.465 123.215 882.843 125.808 884.588 130.012C893.028 124.412 894.159 120.046 898.741 132.864C929.648 111.671 897.936 204.248 895.734 214.986C865.754 306.39 817.856 394.441 750.912 464.018C749.058 467.355 739.931 470.028 742.554 463.636C749.002 455.597 757.92 449.917 764.118 441.573C834.094 356.264 893.686 246.674 906.37 135.968Z" fill="black"/>
<path d="M533.941 246.459C526.18 251.367 518.868 255.981 511.417 260.685C509.654 259.5 508.165 258.505 506.874 257.627C514.624 243.322 533.357 235.38 546.953 226.385C557.924 219.345 569.956 218.66 581.798 223.325C595.176 227.833 609.083 259.219 598.19 270.101C569.312 292.058 544.083 279.206 533.956 246.462L533.941 246.459ZM583.765 233.262C580.848 248.154 577.046 260.718 571.12 274.27C581.948 275.151 590.101 266.067 594.829 257.209C596.201 249.961 590.853 236.462 583.762 233.276L583.765 233.262ZM554.939 269.79C556.266 256.176 560.33 246.286 559.899 233.11C552.573 233.851 546.357 238.916 540.302 243.061C541.957 253.782 546.455 262.355 554.95 269.808L554.939 269.79Z" fill="black"/>
<path d="M639.511 307.2C624.271 303.631 617.851 282.615 620.518 268.996C628.157 255.368 639.231 226.286 659.157 236.234C684.359 251.79 672.351 311.495 639.511 307.2ZM662.222 248.26C659.836 265.898 655.554 282.635 649.468 299.385C666.418 294.511 671.045 261.081 662.222 248.26ZM638.396 251.854C632.64 254.632 626.429 270.701 625.968 277.066C627.332 283.677 628.413 295.514 635.461 297.977C634.818 275.943 634.698 275.084 638.393 251.868L638.396 251.854Z" fill="black"/>
<path d="M576.341 300.114C576.618 302.003 576.865 303.751 577.095 305.362C585.02 309.332 611.455 314.588 620.932 314.027C622.796 298.112 635.312 320.157 620.022 320.478C605.7 319.868 591.965 315.435 578.041 312.482C569.623 309.883 558.921 294.007 576.341 300.114Z" fill="black"/>
<path d="M607.421 290.317C610.227 292.567 608.027 296.993 604.559 296.139C600.862 294.67 603.82 289.315 607.421 290.317Z" fill="black"/>
<path d="M583.752 233.259C590.819 236.41 596.199 249.975 594.818 257.191C590.087 266.064 581.923 275.131 571.109 274.253C577.036 260.701 580.849 248.154 583.755 233.245L583.752 233.259Z" fill="white"/>
<path d="M554.936 269.806C546.438 262.367 541.944 253.78 540.288 243.059C546.343 238.914 552.559 233.848 559.885 233.108C560.313 246.299 556.252 256.174 554.925 269.788L554.936 269.806Z" fill="white"/>
<path d="M662.223 248.261C671.032 261.079 666.436 294.5 649.469 299.385C655.555 282.636 659.837 265.898 662.223 248.261Z" fill="white"/>
<path d="M638.401 251.84C634.717 275.074 634.825 275.915 635.468 297.949C628.418 295.501 627.326 283.646 625.973 277.053C626.445 270.63 632.595 254.713 638.401 251.84Z" fill="white"/>
<path d="M558.354 31.5417L558.917 31.698C559.142 31.8697 559.23 32.0196 559.292 32.2904C559.745 34.2754 559.051 39.9504 559.076 42.3921C559.086 43.3546 559.201 44.3093 559.471 45.2341C560.901 50.1307 567.6 51.6249 571.62 53.9004C572.164 54.2072 572.572 54.3917 572.742 55.0203C572.594 55.3071 572.519 55.4233 572.197 55.5161C571.363 55.7602 570.338 55.7647 569.469 55.8536C566.344 56.1748 561.766 56.2317 558.962 57.5102C554.635 59.4846 552.947 64.4102 550.838 68.3535C550.444 69.0903 549.995 70.2233 549.408 70.7983C549.202 71.001 549.147 70.9895 548.877 70.9814L548.627 71.0073C548.329 70.8555 548.287 70.727 548.201 70.4056C547.966 69.5219 548 68.4485 547.95 67.5315C547.811 64.9802 547.827 62.3635 547.53 59.8292C547.393 58.6625 547.139 57.5132 546.665 56.4342C546.21 55.399 545.553 54.4156 544.7 53.6651C542.745 51.9488 535.061 49.1772 534.242 47.5693C534.672 46.7398 537.629 46.7474 538.554 46.6879C549.806 45.9733 549.478 46.5281 555.266 36.4521C556.196 34.8323 557.102 32.9346 558.354 31.5417Z" fill="#FF4B11"/>
</g>
<path d="M741.323 351.235L741.908 351.274C742.165 351.397 742.282 351.526 742.398 351.78C743.248 353.638 743.726 359.357 744.25 361.752C744.456 362.696 744.764 363.611 745.218 364.464C747.624 368.985 754.513 369.085 758.929 370.5C759.526 370.69 759.964 370.788 760.26 371.371C760.173 371.683 760.124 371.813 759.826 371.97C759.056 372.38 758.049 372.594 757.213 372.859C754.208 373.813 749.72 374.804 747.225 376.634C743.376 379.458 742.724 384.644 741.456 388.95C741.219 389.755 741.01 390.96 740.551 391.645C740.389 391.886 740.332 391.886 740.065 391.934L739.825 392.01C739.501 391.922 739.434 391.804 739.284 391.506C738.872 390.685 738.686 389.623 738.45 388.732C737.792 386.253 737.274 383.678 736.463 381.248C736.091 380.129 735.606 379.052 734.92 378.088C734.262 377.164 733.414 376.331 732.423 375.768C730.151 374.48 722.032 373.326 720.9 371.913C721.152 371.01 724.061 370.414 724.957 370.166C735.87 367.165 735.661 367.778 739.291 356.692C739.875 354.91 740.377 352.86 741.323 351.235Z" fill="#FF4B11"/>
<path d="M1180.61 139.903L1181.09 140.242C1181.25 140.48 1181.28 140.652 1181.25 140.929C1181 142.958 1178.42 148.084 1177.62 150.4C1177.3 151.312 1177.08 152.253 1177.03 153.219C1176.72 158.33 1182.54 162.014 1185.56 165.527C1185.97 166.001 1186.3 166.314 1186.24 166.966C1186.01 167.186 1185.9 167.271 1185.56 167.249C1184.69 167.197 1183.72 166.853 1182.87 166.643C1179.81 165.887 1175.46 164.387 1172.38 164.644C1167.62 165.042 1164.36 169.123 1161.03 172.134C1160.4 172.696 1159.6 173.614 1158.85 173.958C1158.58 174.08 1158.54 174.05 1158.28 173.951L1158.04 173.891C1157.81 173.646 1157.81 173.511 1157.84 173.178C1157.92 172.263 1158.31 171.261 1158.58 170.377C1159.31 167.92 1160.21 165.453 1160.79 162.958C1161.06 161.809 1161.21 160.637 1161.13 159.457C1161.05 158.325 1160.76 157.172 1160.21 156.174C1158.95 153.89 1152.62 148.665 1152.4 146.868C1153.08 146.23 1155.88 147.24 1156.77 147.498C1167.64 150.639 1167.15 151.052 1176.03 143.495C1177.46 142.28 1178.96 140.795 1180.61 139.903Z" fill="#FF4B11"/>
<path d="M530.994 389.251C531.588 389.208 532.072 389.233 532.571 389.582C533.272 390.588 534.485 401.449 534.835 403.639C536.269 402.927 540.014 395.747 541.999 394.13C542.45 393.762 542.8 393.559 543.388 393.614C543.675 393.782 543.841 393.934 544.002 394.231C544.205 394.604 544.204 394.992 544.086 395.393C543.891 396.049 537.898 404.66 537.127 405.627C536.919 405.889 536.757 406.048 536.467 406.215C536.53 406.235 536.592 406.251 536.654 406.271C537.907 406.663 545.631 404.261 547.708 404.06C548.327 404.001 549.394 403.983 549.869 404.419C550.074 404.609 550.147 404.827 550.119 405.105C550.082 405.473 549.786 406.028 549.486 406.246C549.105 406.524 538.126 408.994 537.454 408.864C538.502 410.515 546.871 415.564 548.97 417.252C549.631 417.783 550.47 418.693 550.487 419.581C550.495 419.952 550.402 420.101 550.159 420.359C549.715 420.527 549.295 420.549 548.83 420.436C547.68 420.161 536.073 411.703 535.407 410.7C535.954 415.163 536.974 419.654 537.705 424.099C537.935 425.498 538.368 427.112 538.35 428.513C538.345 428.875 538.316 429.027 538.064 429.282C538.046 429.313 538.027 429.342 538.008 429.37C537.768 429.727 537.5 429.937 537.065 430.003C536.762 430.049 536.484 429.977 536.242 429.789C535.983 429.586 535.844 429.315 535.75 429.005C535.205 427.204 535.048 425.064 534.728 423.193C534.092 419.462 533.292 415.672 532.941 411.906C532.524 412.855 526.184 421.622 525.394 422.199C525.078 422.433 524.664 422.488 524.286 422.391C523.941 422.305 523.573 422.056 523.423 421.723C523.243 421.322 523.325 420.983 523.481 420.593C523.815 419.755 524.541 418.94 525.075 418.217C526.405 416.421 529.898 412.148 530.675 410.42C530.694 410.378 530.711 410.334 530.729 410.292C529.809 410.956 520.323 413.268 519.294 413.21C518.785 413.182 518.501 413.071 518.163 412.692C518.073 412.386 518.032 412.192 518.106 411.875C518.197 411.487 518.333 411.229 518.661 410.993C519.894 410.101 525.599 408.95 527.378 408.545C528.31 408.331 529.591 408.172 530.402 407.674C530.43 407.657 530.457 407.639 530.484 407.621C530.167 407.586 519.518 399.161 518.825 398.467C518.441 398.081 517.866 397.462 517.902 396.887C517.92 396.589 518.038 396.387 518.289 396.219C518.638 395.99 519.211 395.875 519.618 395.983C521.72 396.536 530.716 405.217 532.09 405.449C532.157 405.46 532.225 405.466 532.293 405.475C531.856 401.986 531.31 398.507 530.812 395.027C530.598 393.528 530.14 391.737 530.249 390.238C530.279 389.825 530.704 389.519 530.994 389.251Z" fill="black"/>
<path d="M361.994 106.251C362.588 106.208 363.072 106.233 363.571 106.582C364.272 107.588 365.485 118.449 365.835 120.639C367.269 119.927 371.014 112.747 372.999 111.13C373.45 110.762 373.8 110.559 374.388 110.614C374.675 110.782 374.841 110.934 375.002 111.231C375.205 111.604 375.204 111.992 375.086 112.393C374.891 113.049 368.898 121.66 368.127 122.627C367.919 122.889 367.757 123.048 367.467 123.215C367.53 123.235 367.592 123.251 367.654 123.271C368.907 123.663 376.631 121.261 378.708 121.06C379.327 121.001 380.394 120.983 380.869 121.419C381.074 121.609 381.147 121.827 381.119 122.105C381.082 122.473 380.786 123.028 380.486 123.246C380.105 123.524 369.126 125.994 368.454 125.864C369.502 127.515 377.871 132.564 379.97 134.252C380.631 134.783 381.47 135.693 381.487 136.581C381.495 136.952 381.402 137.101 381.159 137.359C380.715 137.527 380.295 137.549 379.83 137.436C378.68 137.161 367.073 128.703 366.407 127.7C366.954 132.163 367.974 136.654 368.705 141.099C368.935 142.498 369.368 144.112 369.35 145.513C369.345 145.875 369.316 146.027 369.064 146.282C369.046 146.313 369.027 146.342 369.008 146.37C368.768 146.727 368.5 146.937 368.065 147.003C367.762 147.049 367.484 146.977 367.242 146.789C366.983 146.586 366.844 146.315 366.75 146.005C366.205 144.204 366.048 142.064 365.728 140.193C365.092 136.462 364.292 132.672 363.941 128.906C363.524 129.855 357.184 138.622 356.394 139.199C356.078 139.433 355.664 139.488 355.286 139.391C354.941 139.305 354.573 139.056 354.423 138.723C354.243 138.322 354.325 137.983 354.481 137.593C354.815 136.755 355.541 135.94 356.075 135.217C357.405 133.421 360.898 129.148 361.675 127.42C361.694 127.378 361.711 127.334 361.729 127.292C360.809 127.956 351.323 130.268 350.294 130.21C349.785 130.182 349.501 130.071 349.163 129.692C349.073 129.386 349.032 129.192 349.106 128.875C349.197 128.487 349.333 128.229 349.661 127.993C350.894 127.101 356.599 125.95 358.378 125.545C359.31 125.331 360.591 125.172 361.402 124.674C361.43 124.657 361.457 124.639 361.484 124.621C361.167 124.586 350.518 116.161 349.825 115.467C349.441 115.081 348.866 114.462 348.902 113.887C348.92 113.589 349.038 113.387 349.289 113.219C349.638 112.99 350.211 112.875 350.618 112.983C352.72 113.536 361.716 122.217 363.09 122.449C363.157 122.46 363.225 122.466 363.293 122.475C362.856 118.986 362.31 115.507 361.812 112.027C361.598 110.528 361.14 108.737 361.249 107.238C361.279 106.825 361.704 106.519 361.994 106.251Z" fill="black"/>
<path d="M961.994 389.251C962.588 389.208 963.072 389.233 963.571 389.582C964.272 390.588 965.485 401.449 965.835 403.639C967.269 402.927 971.014 395.747 972.999 394.13C973.45 393.762 973.8 393.559 974.388 393.614C974.675 393.782 974.841 393.934 975.002 394.231C975.205 394.604 975.204 394.992 975.086 395.393C974.891 396.049 968.898 404.66 968.127 405.627C967.919 405.889 967.757 406.048 967.467 406.215C967.53 406.235 967.592 406.251 967.654 406.271C968.907 406.663 976.631 404.261 978.708 404.06C979.327 404.001 980.394 403.983 980.869 404.419C981.074 404.609 981.147 404.827 981.119 405.105C981.082 405.473 980.786 406.028 980.486 406.246C980.105 406.524 969.126 408.994 968.454 408.864C969.502 410.515 977.871 415.564 979.97 417.252C980.631 417.783 981.47 418.693 981.487 419.581C981.495 419.952 981.402 420.101 981.159 420.359C980.715 420.527 980.295 420.549 979.83 420.436C978.68 420.161 967.073 411.703 966.407 410.7C966.954 415.163 967.974 419.654 968.705 424.099C968.935 425.498 969.368 427.112 969.35 428.513C969.345 428.875 969.316 429.027 969.064 429.282C969.046 429.313 969.027 429.342 969.008 429.37C968.768 429.727 968.5 429.937 968.065 430.003C967.762 430.049 967.484 429.977 967.242 429.789C966.983 429.586 966.844 429.315 966.75 429.005C966.205 427.204 966.048 425.064 965.728 423.193C965.092 419.462 964.292 415.672 963.941 411.906C963.524 412.855 957.184 421.622 956.394 422.199C956.078 422.433 955.664 422.488 955.286 422.391C954.941 422.305 954.573 422.056 954.423 421.723C954.243 421.322 954.325 420.983 954.481 420.593C954.815 419.755 955.541 418.94 956.075 418.217C957.405 416.421 960.898 412.148 961.675 410.42C961.694 410.378 961.711 410.334 961.729 410.292C960.809 410.956 951.323 413.268 950.294 413.21C949.785 413.182 949.501 413.071 949.163 412.692C949.073 412.386 949.032 412.192 949.106 411.875C949.197 411.487 949.333 411.229 949.661 410.993C950.894 410.101 956.599 408.95 958.378 408.545C959.31 408.331 960.591 408.172 961.402 407.674C961.43 407.657 961.457 407.639 961.484 407.621C961.167 407.586 950.518 399.161 949.825 398.467C949.441 398.081 948.866 397.462 948.902 396.887C948.92 396.589 949.038 396.387 949.289 396.219C949.638 395.99 950.211 395.875 950.618 395.983C952.72 396.536 961.716 405.217 963.09 405.449C963.157 405.46 963.225 405.466 963.293 405.475C962.856 401.986 962.31 398.507 961.812 395.027C961.598 393.528 961.14 391.737 961.249 390.238C961.279 389.825 961.704 389.519 961.994 389.251Z" fill="black"/>
<path d="M1113.3 384.096C1112.9 384.568 1112.38 385.371 1111.72 385.443C1111.46 385.47 1111.44 385.395 1111.24 385.261C1110.9 384.49 1111.16 383.693 1111.31 382.9C1111.89 379.489 1112.44 375.868 1113.5 372.574C1111.93 371.329 1108.98 369.847 1106.4 368.39C1104.77 367.473 1105.29 365.516 1107.15 365.378C1110.08 365.162 1113.3 364.929 1115.15 364.375C1118.14 350.895 1114.93 344.262 1124.11 360.806L1124.59 361.464C1125.53 362.069 1134.81 359.811 1136.85 359.975C1137.28 360.01 1137.48 360.055 1137.77 360.375C1137.69 360.907 1137.3 361.364 1136.95 361.751C1136.1 362.674 1135.02 363.441 1134.07 364.258C1131.98 366.074 1129.87 367.862 1127.73 369.623C1128.69 371.538 1129.83 373.405 1130.88 375.275C1131.3 376.053 1133.47 379.609 1133.36 380.334C1133.33 380.542 1133.25 380.536 1133.09 380.647C1131.69 380.764 1129.58 379.597 1128.23 379.107C1125.82 378.143 1123.38 377.18 1120.88 376.447C1118.16 378.656 1115.71 381.544 1113.3 384.096Z" fill="#02C1A1"/>
<path d="M411.958 430.935C411.553 431.407 411.037 432.21 410.372 432.282C410.119 432.309 410.097 432.234 409.897 432.1C409.554 431.329 409.814 430.532 409.968 429.739C410.544 426.328 411.099 422.707 412.153 419.413C410.583 418.168 407.637 416.686 405.054 415.229C403.427 414.312 403.943 412.355 405.806 412.217C408.738 412.001 411.958 411.768 413.803 411.214C416.799 397.734 413.587 391.101 422.767 407.645L423.247 408.303C424.185 408.907 433.466 406.65 435.502 406.814C435.935 406.849 436.137 406.894 436.421 407.214C436.349 407.746 435.956 408.203 435.601 408.59C434.755 409.512 433.677 410.28 432.726 411.097C430.638 412.913 428.526 414.701 426.39 416.462C427.349 418.377 428.482 420.244 429.531 422.114C429.952 422.892 432.128 426.447 432.018 427.173C431.987 427.381 431.902 427.375 431.741 427.486C430.344 427.603 428.234 426.436 426.887 425.946C424.476 424.981 422.031 424.018 419.539 423.286C416.814 425.495 414.37 428.383 411.958 430.935Z" fill="#02C1A1"/>
<defs>
<linearGradient id="paint0_linear_1760_77632" x1="810.582" y1="239.266" x2="1460.32" y2="690.651" gradientUnits="userSpaceOnUse">
<stop stop-color="white"/>
<stop offset="0.84" stop-color="white" stop-opacity="0"/>
</linearGradient>
<linearGradient id="paint1_linear_1760_77632" x1="690.4" y1="232.288" x2="60.6905" y2="709.571" gradientUnits="userSpaceOnUse">
<stop stop-color="#03C3A3" stop-opacity="0.4"/>
<stop offset="0.715" stop-color="#DFFCFF"/>
</linearGradient>
<clipPath id="clip0_1760_77632">
<rect width="334.719" height="331.73" fill="white" transform="translate(470.662 0.73877) rotate(11.7418)"/>
</clipPath>
</defs>
</svg>
