<svg width="469" height="356" viewBox="0 0 469 356" fill="none" xmlns="http://www.w3.org/2000/svg">
<mask id="mask0_1676_51322" style="mask-type:alpha" maskUnits="userSpaceOnUse" x="0" y="0" width="469" height="356">
<rect width="469" height="356" fill="#D9D9D9"/>
</mask>
<g mask="url(#mask0_1676_51322)">
<circle cx="231.166" cy="161.932" r="54.3557" transform="rotate(-170.85 231.166 161.932)" fill="white"/>
<path d="M222.523 215.596C208.29 213.303 195.551 205.451 187.108 193.766C178.665 182.081 175.21 167.521 177.502 153.288C179.795 139.056 187.647 126.317 199.332 117.874C211.017 109.431 225.578 105.976 239.81 108.268L231.166 161.932L222.523 215.596Z" fill="#FF4B11"/>
<path d="M240.185 107.221L277.692 81.9284L212.517 71.4306L240.185 107.221Z" fill="#03C3A3"/>
<circle cx="249.075" cy="50.3918" r="26.6273" transform="rotate(9.15013 249.075 50.3918)" fill="#FF4B11"/>
<rect x="97.4194" y="208.882" width="249.044" height="152.455" rx="76.2273" transform="rotate(9.15013 97.4194 208.882)" fill="#FFA7D1"/>
<path d="M150.509 364.645C151.481 360.186 153.29 355.695 152.772 350.839C107.745 344.985 64.1065 295.434 95.1564 252.251C96.4662 249.763 101.072 245.439 101.515 250.762C100.955 255.454 99.2074 260.052 100.635 264.781C104.968 292.862 129.053 317.376 157.876 318.058C162.227 303.845 164.151 288.625 167.563 274.055C168.42 265.704 166.832 266.886 175.447 265.712C177.641 259.855 177.083 253.183 185.432 254.391C190.513 255.131 185.524 262.073 186.64 265.764C206.781 266.153 226.954 265.069 246.921 268.305C256.12 269.934 247.434 287.937 248.169 294.843C251.475 296.832 252.493 299.676 250.765 303.544C266.679 307.359 247.692 323.596 241.305 328.474C238.457 344.093 235.527 360.1 232.534 376.498C229.469 378.957 225.033 379.25 221.315 381.644C212.887 375.768 200.422 377.663 190.758 373.583C178.928 370.201 166.577 369.571 154.535 367.201C152.986 366.922 151.398 366.588 150.504 364.674L150.509 364.645ZM239.429 293.513C233.254 293.624 228.085 297.554 224.034 301.771C218.454 308.071 210.805 311.445 203.328 314.837C156.343 337.224 102.627 313.404 95.1396 260.365C77.7748 287.22 97.9548 321.11 122.273 335.922C150.916 352.105 186.923 351.332 216.609 338.217C227.985 332.099 239.832 326.213 248.798 316.665C250.773 315.085 255.617 307.954 250.426 308.379C244.624 309.264 240.927 321.294 235.35 318.049C233.984 314.396 248.825 305.334 246.703 300.122C240.216 298.764 231.34 315.701 228.707 310.446C232.399 304.635 237.716 300.631 239.439 293.515L239.429 293.513ZM162.797 318.88C178.925 320.637 194.715 314.907 208.985 307.934C218.347 303.76 223.915 294.134 233.733 290.464C236.903 285.468 238.138 277.804 238.214 271.626C229.994 269.442 183.553 268.787 172.554 270.624C169.565 281.047 162.91 313.627 162.798 318.871L162.797 318.88ZM228.859 335.897C206.333 349.344 182.787 353.522 157.269 351.26C156.303 355.31 155.35 359.107 155.663 363.471C167.516 365.556 179.383 366.528 191.015 369.556C200.524 371.811 210.052 375.224 219.933 374.81C223.326 362.301 226.84 349.889 228.859 335.897ZM236.599 332.019C232.835 333.359 233.359 336.055 232.46 339.147C230.91 351.503 225.7 363.094 224.637 375.402C227.688 375.15 229.208 373.84 229.705 370.937C231.929 357.741 234.466 345.328 236.599 332.019ZM239.515 288.432C241.56 289.025 242.684 289.813 244.32 291.308C244.949 284.857 247.212 278.875 246.698 272.846L243.182 272.28C240.871 277.345 240.888 282.883 239.516 288.422L239.515 288.432ZM180.441 266.017C183.576 265.065 182.933 261.529 182.046 258.843C180.774 261.22 180.02 263.348 180.441 266.017ZM244.262 294.458C243.676 294.637 243.95 295.122 243.984 295.577C244.588 295.41 244.297 294.913 244.262 294.458Z" fill="black"/>
<path d="M160.505 96.8067C97.9088 73.8641 199.118 36.6421 238.377 103.433C259.031 94.6917 284.226 87.611 304.146 101.753C316.442 108.496 326.989 137.197 302.944 130.214C304.86 142.776 298.778 154.745 284.517 153.103C289.764 187.043 263.689 214.812 230.226 217.266C226.315 217.398 222.032 218.078 218.22 217.405C216.678 216.482 216.041 214.003 218.393 213.785C263.977 216.541 297.553 175.701 272.665 133.6C263.396 117.839 242.466 109.539 224.741 111.016C207.954 115.716 192.092 123.713 175.463 129.132C142.932 141.515 127.79 113.307 160.516 96.7987L160.505 96.8067ZM234.774 106.501C223.78 81.9724 194.581 68.8784 168.68 69.1074C132.408 72.8001 141.497 91.8674 171.683 94.3432C177.654 93.7403 182.493 100.593 173.816 99.3029C155.538 94.5691 129.129 127.566 160.954 128.184C174.131 127.147 186.05 120.627 198.401 116.407C210.484 112.084 221.471 105.042 234.776 106.491L234.774 106.501ZM240.516 107.807C256.998 112.955 273.623 121.276 279.378 138.711C281.42 142.962 283.043 150.421 289.152 149.273C293.363 148.553 296.731 146.337 298.252 142.23C303.583 123.882 288.957 126.328 287.369 117.984C291.721 113.238 301.082 129.034 311.156 127.175C317.681 125.439 309.524 110.727 305.894 108.137C288.074 91.8199 259.418 96.534 240.528 107.799L240.516 107.807Z" fill="black"/>
<path d="M423.004 66.9826C416.634 70.9734 418.818 83.0804 413.906 82.9346C410.36 82.3145 416.41 70.908 413.214 65.7479C407.238 68.8048 409.947 81.1724 405.058 81.5486C400.682 80.0125 407.097 70.1024 404.153 65.4425C394.665 72.7648 400.537 87.8911 393.819 96.3442C388.027 98.2572 393.196 83.1 389.524 80.533C382.704 118.622 377.4 157.257 358.864 191.933C346.724 213.596 329.717 251.52 304.867 259.184C301.494 259.795 300.351 255.601 304.04 255.218C335.013 244.852 365.079 172.886 373.704 142.276C378.938 123.677 381.004 104.421 384.116 85.4026C384.788 79.6528 386.789 72.6894 393.783 77.757C396.739 72.1502 396.674 64.4823 402.818 61.1689C405.481 59.3192 407.132 60.9641 408.413 63.6935C413.83 59.7349 414.448 56.8125 417.864 65.1571C437.68 50.2077 419.469 112.417 418.334 119.588C401.233 180.968 372.176 240.667 329.962 288.712C328.835 290.976 322.876 293.018 324.421 288.71C328.446 283.197 334.177 279.171 338.029 273.464C381.777 214.919 417.928 140.617 423.004 66.9826Z" fill="black"/>
<path d="M179.876 151.25C174.888 154.73 170.187 158.002 165.398 161.339C164.196 160.607 163.18 159.994 162.3 159.451C167 149.753 179.158 143.937 187.884 137.578C194.934 132.591 202.875 131.777 210.85 134.509C219.838 137.091 229.98 157.443 223.098 164.97C204.647 180.364 187.568 172.616 179.886 151.252L179.876 151.25ZM212.45 141.026C210.966 150.967 208.826 159.395 205.31 168.54C212.502 168.799 217.625 162.543 220.488 156.54C221.179 151.703 217.235 142.931 212.448 141.035L212.45 141.026ZM194.469 166.06C194.939 157.012 197.333 150.346 196.653 141.64C191.827 142.349 187.866 145.887 183.983 148.812C185.4 155.856 188.633 161.394 194.477 166.071L194.469 166.06Z" fill="black"/>
<path d="M251.551 188.281C241.36 186.375 236.482 172.661 237.839 163.569C242.486 154.323 248.943 134.747 262.425 140.733C279.568 150.272 273.41 190.139 251.551 188.281ZM264.814 148.599C263.763 160.342 261.431 171.545 257.906 182.811C268.975 179.078 271.036 156.819 264.814 148.599ZM249.156 151.691C245.43 153.702 241.801 164.52 241.687 168.746C242.788 173.08 243.858 180.88 248.595 182.299C247.509 167.738 247.405 167.173 249.154 151.7L249.156 151.691Z" fill="black"/>
<path d="M209.54 185.485C209.78 186.726 209.996 187.876 210.197 188.935C215.559 191.324 233.209 194.011 239.463 193.356C240.22 182.769 249.162 196.981 239.055 197.652C229.559 197.677 220.338 195.155 211.036 193.618C205.388 192.151 197.83 181.965 209.54 185.485Z" fill="black"/>
<path d="M229.814 178.071C231.738 179.476 230.415 182.471 228.095 182.009C225.604 181.148 227.401 177.516 229.814 178.071Z" fill="black"/>
<path d="M162.805 318.891C162.918 313.638 169.573 281.058 172.56 270.645C183.551 268.797 229.991 269.461 238.22 271.647C238.157 277.807 236.9 285.487 233.74 290.484C223.931 294.156 218.355 303.771 208.992 307.955C194.72 314.937 178.932 320.658 162.803 318.901L162.805 318.891ZM182.097 302.586C222.845 300.534 212.296 310.071 218.241 280.448C218.861 278.602 216.298 278.189 214.945 278.157C204.674 278.204 193.844 275.286 183.827 277.76C182.275 285.334 181.268 291.646 179.55 299.34C180.296 300.291 181.157 301.378 182.106 302.588L182.097 302.586Z" fill="white"/>
<path d="M228.857 335.907C226.836 349.908 223.322 362.32 219.931 374.82C210.062 375.225 200.523 371.821 191.013 369.565C179.371 366.536 167.515 365.565 155.662 363.48C155.348 359.117 156.292 355.318 157.267 351.269C182.795 353.533 206.331 349.354 228.857 335.907Z" fill="white"/>
<path d="M236.608 332.03C234.474 345.339 231.935 357.761 229.713 370.948C229.218 373.841 227.688 375.15 224.645 375.413C225.708 363.105 230.918 351.514 232.468 339.158C233.367 336.066 232.842 333.38 236.608 332.03Z" fill="white"/>
<path d="M239.523 288.443C240.896 282.894 240.877 277.366 243.188 272.3L246.704 272.867C247.219 278.896 244.955 284.878 244.326 291.329C242.691 289.833 241.566 289.046 239.521 288.452L239.523 288.443Z" fill="white"/>
<path d="M180.45 266.019C180.031 263.34 180.793 261.223 182.056 258.845C182.943 261.53 183.585 265.066 180.45 266.019Z" fill="white"/>
<path d="M244.26 294.467C244.285 294.921 244.575 295.428 243.982 295.586C243.948 295.131 243.684 294.648 244.26 294.467Z" fill="white"/>
<path d="M212.44 141.024C217.212 142.898 221.177 151.712 220.48 156.529C217.615 162.542 212.485 168.786 205.303 168.529C208.818 159.384 210.966 150.967 212.442 141.015L212.44 141.024Z" fill="white"/>
<path d="M194.467 166.07C188.621 161.402 185.39 155.855 183.974 148.81C187.856 145.886 191.818 142.348 196.643 141.639C197.321 150.354 194.93 157.01 194.459 166.059L194.467 166.07Z" fill="white"/>
<path d="M264.814 148.599C271.026 156.817 268.986 179.07 257.905 182.811C261.43 171.545 263.763 160.342 264.814 148.599Z" fill="white"/>
<path d="M249.157 151.681C247.415 167.166 247.512 167.719 248.597 182.28C243.859 180.871 242.781 173.059 241.688 168.737C241.808 164.473 245.401 153.756 249.157 151.681Z" fill="white"/>
<path d="M182.097 302.586C181.148 301.377 180.296 300.291 179.541 299.338C181.25 291.643 182.256 285.331 183.818 277.759C193.835 275.285 204.664 278.203 214.935 278.155C216.29 278.178 218.861 278.602 218.241 280.448C212.293 310.032 222.902 300.543 182.097 302.586Z" fill="black"/>
</g>
</svg>
