<svg width="51" height="51" viewBox="0 0 51 51" fill="none" xmlns="http://www.w3.org/2000/svg">
<path d="M33.4365 46.3719H37.6032V44.2886H39.6865V42.2052H41.7699V40.1219H43.8532V38.0386H45.9365V33.8719H48.0199V17.2052H45.9365V13.0386H43.8532V10.9552H41.7699V8.87189H39.6865V6.78855H37.6032V4.70522H33.4365V2.62189H16.7699V4.70522H12.6032V6.78855H10.5199V8.87189H8.43652V10.9552H6.35319V13.0386H4.26986V17.2052H2.18652V33.8719H4.26986V38.0386H6.35319V40.1219H8.43652V42.2052H10.5199V44.2886H12.6032V46.3719H16.7699V48.4552H33.4365V46.3719ZM31.3532 27.6219H10.5199V23.4552H31.3532V21.3719H29.2699V19.2886H27.1865V17.2052H25.1032V15.1219H23.0199V13.0386H25.1032V10.9552H27.1865V13.0386H29.2699V15.1219H31.3532V17.2052H33.4365V19.2886H35.5199V21.3719H37.6032V23.4552H39.6865V27.6219H37.6032V29.7052H35.5199V31.7886H33.4365V33.8719H31.3532V35.9552H29.2699V38.0386H27.1865V40.1219H25.1032V38.0386H23.0199V35.9552H25.1032V33.8719H27.1865V31.7886H29.2699V29.7052H31.3532V27.6219Z" fill="white"/>
</svg>
