<svg width="58" height="57" viewBox="0 0 58 57" fill="none" xmlns="http://www.w3.org/2000/svg">
<path d="M56.1567 14.7153H53.4492V36.0478H56.1567V14.7153Z" fill="black"/>
<path d="M53.4487 36.0478H50.7412V38.7078H53.4487V36.0478Z" fill="black"/>
<path d="M53.4487 12.0553H50.7412V14.7153H53.4487V12.0553Z" fill="black"/>
<path d="M50.7419 38.7078H48.0166V41.3853H50.7419V38.7078Z" fill="black"/>
<path d="M50.7419 9.37781H48.0166V12.0553H50.7419V9.37781Z" fill="black"/>
<path d="M48.0161 41.3853H45.3086V44.0453H48.0161V41.3853Z" fill="black"/>
<path d="M48.0161 6.71783H45.3086V9.37783H48.0161V6.71783Z" fill="black"/>
<path d="M45.3083 44.0453H42.583V46.7053H45.3083V44.0453Z" fill="black"/>
<path d="M45.3088 22.7128H39.876V28.0503H45.3088V22.7128Z" fill="black"/>
<path d="M45.3088 4.04028H39.876V6.71778H45.3088V4.04028Z" fill="black"/>
<path d="M42.583 46.7053H37.168V49.3828H42.583V46.7053Z" fill="black"/>
<path d="M37.1682 49.3828H31.7354V52.0428H37.1682V49.3828Z" fill="black"/>
<path d="M12.7295 52.0428V49.3828H10.022V52.0428H7.31445V54.7203H31.7354V52.0428H12.7295Z" fill="black"/>
<path d="M31.7355 22.7128H26.3027V28.0503H31.7355V22.7128Z" fill="black"/>
<path d="M39.8761 1.38031H20.8701V4.04031H39.8761V1.38031Z" fill="black"/>
<path d="M20.8701 4.04028H15.4551V6.71778H20.8701V4.04028Z" fill="black"/>
<path d="M15.4548 46.7053H18.1623V44.0453H12.7295V49.3828H15.4548V46.7053Z" fill="black"/>
<path d="M18.1623 22.7128H12.7295V28.0503H18.1623V22.7128Z" fill="black"/>
<path d="M15.4553 6.71783H10.0225V9.37783H15.4553V6.71783Z" fill="black"/>
<path d="M12.73 41.3853H10.0225V44.0453H12.73V41.3853Z" fill="black"/>
<path d="M10.022 38.7078H7.31445V41.3853H10.022V38.7078Z" fill="black"/>
<path d="M10.022 9.37781H7.31445V12.0553H10.022V9.37781Z" fill="black"/>
<path d="M7.31418 36.0478H4.58887V38.7078H7.31418V36.0478Z" fill="black"/>
<path d="M7.31418 12.0553H4.58887V14.7153H7.31418V12.0553Z" fill="black"/>
<path d="M4.58934 14.7153H1.88184V36.0478H4.58934V14.7153Z" fill="black"/>
</svg>
