<svg width="50" height="50" viewBox="0 0 50 50" fill="none" xmlns="http://www.w3.org/2000/svg">
<path d="M33.333 45.8333H37.4997V43.75H39.583V41.6666H41.6663V39.5833H43.7497V37.5H45.833V33.3333H47.9163V16.6666H45.833V12.5H43.7497V10.4166H41.6663V8.33331H39.583V6.24998H37.4997V4.16665H33.333V2.08331H16.6663V4.16665H12.4997V6.24998H10.4163V8.33331H8.33301V10.4166H6.24967V12.5H4.16634V16.6666H2.08301V33.3333H4.16634V37.5H6.24967V39.5833H8.33301V41.6666H10.4163V43.75H12.4997V45.8333H16.6663V47.9166H33.333V45.8333ZM31.2497 27.0833H10.4163V22.9166H31.2497V20.8333H29.1663V18.75H27.083V16.6666H24.9997V14.5833H22.9163V12.5H24.9997V10.4166H27.083V12.5H29.1663V14.5833H31.2497V16.6666H33.333V18.75H35.4163V20.8333H37.4997V22.9166H39.583V27.0833H37.4997V29.1666H35.4163V31.25H33.333V33.3333H31.2497V35.4166H29.1663V37.5H27.083V39.5833H24.9997V37.5H22.9163V35.4166H24.9997V33.3333H27.083V31.25H29.1663V29.1666H31.2497V27.0833Z" fill="black"/>
</svg>
