<svg width="92" height="92" viewBox="0 0 92 92" fill="none" xmlns="http://www.w3.org/2000/svg">
<g clip-path="url(#clip0_400_19667)">
<path d="M91.2932 55.1194L86.9707 55.1194L86.9707 76.7888H91.2932L91.2932 55.1194Z" fill="white"/>
<path d="M86.9701 76.7887L82.6191 76.7887L82.6191 81.1112L86.9701 81.1112L86.9701 76.7887Z" fill="white"/>
<path d="M86.9701 50.7684L82.6191 50.7684L82.6191 55.1194L86.9701 55.1194L86.9701 50.7684Z" fill="white"/>
<path d="M82.6194 81.1112L78.2969 81.1112L78.2969 89.7846L82.6194 89.7846L82.6194 81.1112Z" fill="white"/>
<path d="M82.6198 37.7725L78.2973 37.7725L78.2973 33.45L65.3014 33.45L65.3014 37.7725L60.9789 37.7725L60.9789 24.7766L56.6279 24.7766L56.6279 46.446L78.2973 46.446L78.2973 50.7685L82.6198 50.7685L82.6198 37.7725Z" fill="white"/>
<path d="M73.975 50.7684L69.624 50.7684L69.624 63.7928L73.975 63.7928L73.975 50.7684Z" fill="white"/>
<path d="M78.297 24.7766L78.297 20.4541L82.6195 20.4541L82.6195 7.45812L78.297 7.45812V3.10718L65.301 3.10718L65.301 7.45812L60.9785 7.45812L60.9785 20.4541L65.301 20.4541L65.301 24.7766L78.297 24.7766Z" fill="white"/>
<path d="M60.9789 50.7684L56.6279 50.7684L56.6279 63.7928L60.9789 63.7928L60.9789 50.7684Z" fill="white"/>
<path d="M56.6275 20.4541L47.9541 20.4541L47.9541 24.7766L56.6275 24.7766L56.6275 20.4541Z" fill="white"/>
<path d="M47.9543 76.7887L43.6318 76.7887L43.6318 89.7846L47.9543 89.7846L47.9543 76.7887Z" fill="white"/>
<path d="M43.6317 33.45L34.9582 33.45L34.9582 37.7725L30.6357 37.7725L30.6357 68.1154H34.9582L34.9582 50.7685L43.6317 50.7685L43.6317 59.4419L47.9542 59.4419L47.9542 24.7766L43.6317 24.7766L43.6317 33.45Z" fill="white"/>
<path d="M43.6321 72.4377L39.3096 72.4377L39.3096 76.7887L43.6321 76.7887L43.6321 72.4377Z" fill="white"/>
<path d="M39.3089 68.1154L34.958 68.1154L34.958 72.4379L39.3089 72.4379L39.3089 68.1154Z" fill="white"/>
<path d="M39.3092 24.7766L39.3092 20.4541L43.6317 20.4541L43.6317 16.1031L52.3051 16.1031L52.3051 7.45812L47.9542 7.45812L47.9542 3.10718L34.9582 3.10718L34.9582 7.45812L30.6357 7.45812L30.6357 20.4541L34.9582 20.4541L34.9582 24.7766L39.3092 24.7766Z" fill="white"/>
<path d="M4.64391 85.4622L17.6398 85.4622L17.6398 81.1113L21.9623 81.1113L21.9623 68.1153L17.6398 68.1153L17.6398 63.7928L4.64391 63.7928L4.64391 68.1153L0.292969 68.1153L0.292969 81.1113H4.64391L4.64391 85.4622Z" fill="white"/>
<path d="M4.64391 55.1193L17.6398 55.1193L17.6398 50.7684L21.9623 50.7684L21.9623 37.7724L17.6398 37.7724L17.6398 33.45L4.64391 33.45L4.64391 37.7724L0.292969 37.7724L0.292969 50.7684L4.64391 50.7684L4.64391 55.1193Z" fill="white"/>
<path d="M4.64391 24.7766L17.6398 24.7766L17.6398 20.4541L21.9623 20.4541L21.9623 7.45812L17.6398 7.45812L17.6398 3.10718L4.64391 3.10718L4.64391 7.45812L0.292969 7.45812L0.292969 20.4541L4.64391 20.4541L4.64391 24.7766Z" fill="white"/>
</g>
<defs>
<clipPath id="clip0_400_19667">
<rect width="91" height="91" fill="white" transform="translate(0.292969 0.945923)"/>
</clipPath>
</defs>
</svg>
