<svg width="129" height="110" viewBox="0 0 129 110" fill="none" xmlns="http://www.w3.org/2000/svg">
<path d="M128.85 43.6909H122.467V65.4902H128.85V43.6909Z" fill="black"/>
<path d="M39.2775 43.6896H45.6606V38.2129H52.0856V32.7721H77.66V38.2129H84.0851V32.7721H103.276V38.2129H109.659V81.8473H116.084V70.9655H122.468V65.4889H116.084V43.6896H122.468V38.2129H116.084V16.4137H109.659V21.8545H103.276V16.4137H90.4681V10.937H45.6606V16.4137H39.2775V21.8545H32.8944V32.7721H26.4693V16.4137H20.0862V32.7721H13.7031V38.2129H39.2775V43.6896Z" fill="black"/>
<path d="M109.659 81.8452H103.276V87.3219H109.659V81.8452Z" fill="black"/>
<path d="M109.659 10.937H103.276V16.4137H109.659V10.937Z" fill="black"/>
<path d="M103.276 70.9624H96.8506V76.4033H103.276V70.9624Z" fill="black"/>
<path d="M103.276 54.5718H96.8506V65.4893H103.276V54.5718Z" fill="black"/>
<path d="M103.276 5.49365H96.8506V10.9345H103.276V5.49365Z" fill="black"/>
<path d="M45.6603 87.3218V98.2572H32.8941V103.698H20.0859V109.139H122.467V103.698H109.659V98.2572H96.8509V92.7805H103.276V87.3397L45.6603 87.3218ZM90.4679 103.68H64.8935V98.2572H52.0854V92.7805H90.4889L90.4679 103.68Z" fill="black"/>
<path d="M96.8504 76.4058H77.6592V81.8466H96.8504V76.4058Z" fill="black"/>
<path d="M77.6595 70.9624H71.2764V76.4033H77.6595V70.9624Z" fill="black"/>
<path d="M71.2766 54.5718H64.8936V65.4893H71.2766V54.5718Z" fill="black"/>
<path d="M77.6597 38.2125H64.8936V43.6892H77.6597V38.2125Z" fill="black"/>
<path d="M52.0852 43.6909H45.6602V65.4902H52.0852V43.6909Z" fill="black"/>
<path d="M96.8511 0.0541992H39.2773V5.49507H96.8511V0.0541992Z" fill="black"/>
<path d="M45.6604 81.8452H39.2773V87.3219H45.6604V81.8452Z" fill="black"/>
<path d="M45.6604 65.4897H39.2773V70.9664H45.6604V65.4897Z" fill="black"/>
<path d="M13.7031 70.9624V76.4033H32.8944V81.8441H39.2775V70.9624H13.7031Z" fill="black"/>
<path d="M39.2766 5.49365H32.8936V10.9345H39.2766V5.49365Z" fill="black"/>
<path d="M32.8938 10.937H26.4688V16.4137H32.8938V10.937Z" fill="black"/>
<path d="M26.469 43.6909H20.0859V49.1318H26.469V43.6909Z" fill="black"/>
<path d="M20.0862 49.1304H13.7031V60.0479H20.0862V49.1304Z" fill="black"/>
<path d="M13.7024 65.4897H7.27734V70.9664H13.7024V65.4897Z" fill="black"/>
<path d="M13.7024 38.2124H7.27734V43.6891H13.7024V38.2124Z" fill="black"/>
<path d="M7.27762 43.6909H0.894531V65.4902H7.27762V43.6909Z" fill="black"/>
</svg>
