<svg width="92" height="92" viewBox="0 0 92 92" fill="none" xmlns="http://www.w3.org/2000/svg">
<g clip-path="url(#clip0_397_2277)">
<path d="M69.5791 52.6921V57.0146L78.2525 57.0146L78.2525 70.0105L82.575 70.0105L82.575 39.6677L78.2525 39.6677L78.2525 52.6921L69.5791 52.6921Z" fill="#000001"/>
<path d="M73.9302 78.6839L30.5914 78.6839L30.5914 74.3614H26.2405L26.2405 78.6839L21.918 78.6839L21.918 91.6799L82.5752 91.6799L82.5752 78.6839H78.2527L78.2527 70.0105L73.9302 70.0105L73.9302 78.6839ZM73.9302 87.3574L65.2567 87.3574V83.0064L73.9302 83.0064V87.3574Z" fill="#000001"/>
<path d="M65.2568 52.6921L69.5793 52.6921L69.5793 39.6677L78.2528 39.6677L78.2528 35.3452L65.2568 35.3452L65.2568 52.6921Z" fill="#000001"/>
<path d="M69.5793 5.00244L65.2568 5.00244L65.2568 18.0268L69.5793 18.0268L69.5793 5.00244Z" fill="#000001"/>
<path d="M65.2562 18.0269L60.9053 18.0269L60.9053 26.6719L65.2562 26.6719L65.2562 18.0269Z" fill="#000001"/>
<path d="M65.2564 52.6921L56.583 52.6921L56.583 57.0146L65.2564 57.0146L65.2564 52.6921Z" fill="#000001"/>
<path d="M56.583 35.3452L65.2564 35.3452V31.0227L60.9055 31.0227L60.9055 26.6718L56.583 26.6718L56.583 35.3452Z" fill="#000001"/>
<path d="M65.2567 0.679932L52.2607 0.679932L52.2607 5.00243L65.2567 5.00243L65.2567 0.679932Z" fill="#000001"/>
<path d="M52.2611 57.0146L52.2611 52.6921L56.5836 52.6921L56.5836 35.3452L52.2611 35.3452L52.2611 48.3412L47.9102 48.3412L47.9102 57.0146L52.2611 57.0146Z" fill="#000001"/>
<path d="M52.2611 5.00244L47.9102 5.00244L47.9102 18.0268L52.2611 18.0268L52.2611 5.00244Z" fill="#000001"/>
<path d="M47.9094 44.0187L43.5869 44.0187L43.5869 48.3412L47.9094 48.3412L47.9094 44.0187Z" fill="#000001"/>
<path d="M47.9094 18.0269L43.5869 18.0269L43.5869 26.6719L47.9094 26.6719L47.9094 18.0269Z" fill="#000001"/>
<path d="M47.91 57.0146L34.9141 57.0146L34.9141 61.3371L47.91 61.3371L47.91 57.0146Z" fill="#000001"/>
<path d="M43.5875 39.6677L34.9141 39.6677L34.9141 44.0187L43.5875 44.0187L43.5875 39.6677Z" fill="#000001"/>
<path d="M39.265 31.0227L39.265 35.3452L43.5875 35.3452L43.5875 26.6718L34.9141 26.6718L34.9141 31.0227L39.265 31.0227Z" fill="#000001"/>
<path d="M34.9133 52.6921L30.5908 52.6921L30.5908 57.0146L34.9133 57.0146L34.9133 52.6921Z" fill="#000001"/>
<path d="M34.9133 18.0269L30.5908 18.0269L30.5908 26.6719L34.9133 26.6719L34.9133 18.0269Z" fill="#000001"/>
<path d="M34.9139 35.3452L21.918 35.3452L21.918 39.6677L34.9139 39.6677L34.9139 35.3452Z" fill="#000001"/>
<path d="M30.5912 5.00244L26.2402 5.00244L26.2402 18.0268L30.5912 18.0268L30.5912 5.00244Z" fill="#000001"/>
<path d="M26.2405 70.0105L21.918 70.0105L21.918 74.3614L26.2405 74.3614L26.2405 70.0105Z" fill="#000001"/>
<path d="M21.9182 61.3372L17.5957 61.3372L17.5957 70.0106L21.9182 70.0106L21.9182 61.3372Z" fill="#000001"/>
<path d="M21.9182 39.6677L17.5957 39.6677L17.5957 44.0187L21.9182 44.0187L21.9182 39.6677Z" fill="#000001"/>
<path d="M21.9182 26.6718L17.5957 26.6718L17.5957 35.3452L21.9182 35.3452L21.9182 26.6718Z" fill="#000001"/>
<path d="M26.2401 0.679932L13.2441 0.679932L13.2441 5.00243L26.2401 5.00243L26.2401 0.679932Z" fill="#000001"/>
<path d="M17.5951 44.0187L13.2441 44.0187L13.2441 61.3371L17.5951 61.3371L17.5951 44.0187Z" fill="#000001"/>
<path d="M17.5951 18.0269L13.2441 18.0269L13.2441 26.6719L17.5951 26.6719L17.5951 18.0269Z" fill="#000001"/>
<path d="M13.2444 5.00244L8.92188 5.00244L8.92188 18.0268L13.2444 18.0268L13.2444 5.00244Z" fill="#000001"/>
</g>
<defs>
<clipPath id="clip0_397_2277">
<rect width="91" height="91" fill="white" transform="translate(0.248047 0.679932)"/>
</clipPath>
</defs>
</svg>
