<svg width="92" height="92" viewBox="0 0 92 92" fill="none" xmlns="http://www.w3.org/2000/svg">
<g clip-path="url(#clip0_397_2196)">
<path d="M91.642 35.2805L87.291 35.2805L87.291 56.9499L91.642 56.9499L91.642 35.2805Z" fill="#000001"/>
<path d="M87.2903 56.95L82.9678 56.95L82.9678 65.6234L87.2903 65.6234L87.2903 56.95Z" fill="#000001"/>
<path d="M87.2903 26.6071L82.9678 26.6071L82.9678 35.2805L87.2903 35.2805L87.2903 26.6071Z" fill="#000001"/>
<path d="M82.968 65.6234L78.6455 65.6234L78.6455 74.2684L82.968 74.2684L82.968 65.6234Z" fill="#000001"/>
<path d="M82.968 17.9337L78.6455 17.9337L78.6455 26.6072L82.968 26.6072L82.968 17.9337Z" fill="#000001"/>
<path d="M87.2911 13.6112V9.2887L69.9727 9.2887L69.9727 26.6071L74.2952 26.6071L74.2952 17.9337L78.6461 17.9337V13.6112L87.2911 13.6112Z" fill="#000001"/>
<path d="M78.6459 74.2683L74.2949 74.2683L74.2949 78.6193L78.6459 78.6193L78.6459 74.2683Z" fill="#000001"/>
<path d="M74.2945 78.6193L65.6211 78.6193L65.6211 82.9418L74.2945 82.9418L74.2945 78.6193Z" fill="#000001"/>
<path d="M65.6213 56.95L61.2988 56.95L61.2988 61.2725L65.6213 61.2725L65.6213 56.95Z" fill="#000001"/>
<path d="M65.6216 82.9418L56.9766 82.9418L56.9766 87.2927L65.6216 87.2927L65.6216 82.9418Z" fill="#000001"/>
<path d="M56.976 56.95L43.9801 56.95L43.9801 61.2725L39.6291 61.2725L39.6291 65.6234L35.3066 65.6234L35.3066 69.9459L56.976 69.9459L56.976 65.6234L61.2985 65.6234L61.2985 61.2725L56.976 61.2725L56.976 56.95Z" fill="#000001"/>
<path d="M56.976 87.2927L35.3066 87.2927L35.3066 91.6152L56.976 91.6152L56.976 87.2927Z" fill="#000001"/>
<path d="M56.976 26.6072L56.976 22.2847L35.3066 22.2847L35.3066 26.6072L48.3026 26.6072L48.3026 30.9581L43.9801 30.9581L43.9801 35.2806L48.3026 35.2806V39.6031L56.976 39.6031L56.976 48.2765L61.2985 48.2765L61.2985 43.954L65.621 43.954L65.621 56.95L69.972 56.95L69.972 35.2806L65.621 35.2806L65.621 30.9581L61.2985 30.9581L61.2985 26.6072L56.976 26.6072Z" fill="#000001"/>
<path d="M56.976 0.615234L35.3066 0.615234L35.3066 4.93773L56.976 4.93773L56.976 0.615234Z" fill="#000001"/>
<path d="M39.629 52.5989L39.629 48.2764L43.9799 48.2764L43.9799 39.603L39.629 39.603L39.629 30.958L35.3065 30.958L35.3065 26.6071L30.9555 26.6071L30.9555 30.958L26.633 30.958L26.633 35.2805L22.3105 35.2805L22.3105 56.9499L26.633 56.9499L26.633 61.2724L30.9555 61.2724L30.9555 65.6233L35.3065 65.6233L35.3065 52.5989H39.629Z" fill="#000001"/>
<path d="M35.3072 4.93774L26.6338 4.93774L26.6338 9.28868L35.3072 9.28868L35.3072 4.93774Z" fill="#000001"/>
<path d="M26.6334 9.2887L17.96 9.2887L17.96 13.6112L26.6334 13.6112L26.6334 9.2887Z" fill="#000001"/>
<path d="M4.96387 78.6193L4.96387 82.9419L22.3107 82.9419L22.3107 65.6234H17.9598L17.9598 74.2684L13.6373 74.2684L13.6373 78.6193L4.96387 78.6193Z" fill="#000001"/>
<path d="M17.9602 13.6112L13.6377 13.6112L13.6377 17.9337L17.9602 17.9337L17.9602 13.6112Z" fill="#000001"/>
<path d="M13.6379 65.6234L9.31543 65.6234L9.31543 74.2684L13.6379 74.2684L13.6379 65.6234Z" fill="#000001"/>
<path d="M13.6379 17.9337L9.31543 17.9337L9.31543 26.6072L13.6379 26.6072L13.6379 17.9337Z" fill="#000001"/>
<path d="M9.3148 56.95L4.96387 56.95L4.96387 65.6234L9.3148 65.6234L9.3148 56.95Z" fill="#000001"/>
<path d="M9.3148 26.6071L4.96387 26.6071L4.96387 35.2805L9.3148 35.2805L9.3148 26.6071Z" fill="#000001"/>
<path d="M4.9641 35.2805L0.641602 35.2805L0.641602 56.9499L4.9641 56.9499L4.9641 35.2805Z" fill="#000001"/>
</g>
<defs>
<clipPath id="clip0_397_2196">
<rect width="91" height="91" fill="white" transform="translate(0.641602 0.615234)"/>
</clipPath>
</defs>
</svg>
