<svg width="92" height="92" viewBox="0 0 92 92" fill="none" xmlns="http://www.w3.org/2000/svg">
<path d="M89.2972 6.49841L84.9463 6.49841L84.9463 71.5065L89.2972 71.5065L89.2972 6.49841Z" fill="white"/>
<path d="M71.9505 88.8533V84.5024H76.273L76.273 75.829L84.9464 75.829L84.9464 71.5065L19.9383 71.5065L19.9383 75.829H24.2893L24.2893 80.1799L28.6118 80.1799L28.6118 75.829L37.2852 75.829L37.2852 80.1799L41.6077 80.1799L41.6077 75.829L50.2811 75.829L50.2811 80.1799H54.6036L54.6036 75.829L63.2771 75.829L63.2771 80.1799H67.628L67.628 75.829L71.9505 75.829V80.1799L67.628 80.1799L67.628 84.5024L58.9546 84.5024L58.9546 80.1799L54.6036 80.1799L54.6036 84.5024L45.9586 84.5024L45.9586 80.1799H41.6077L41.6077 84.5024L32.9627 84.5024L32.9627 80.1799L28.6118 80.1799L28.6118 84.5024L19.9383 84.5024L19.9383 80.1799L15.6158 80.1799L15.6158 84.5024L6.94238 84.5024L6.94238 88.8533L71.9505 88.8533Z" fill="white"/>
<path d="M37.2854 45.5147L41.6079 45.5147L41.6079 49.8372L45.9588 49.8372L45.9588 54.1881H50.2813L50.2813 58.5106L54.6038 58.5106L54.6038 54.1881L58.9548 54.1881L58.9548 49.8372L63.2773 49.8372L63.2773 45.5147L67.6282 45.5147L67.6282 41.1638L71.9507 41.1638L71.9507 28.1678L67.6282 28.1678V23.8453L54.6038 23.8453L54.6038 28.1678L50.2813 28.1678L50.2813 23.8453L37.2854 23.8453L37.2854 28.1678L32.9629 28.1678L32.9629 41.1638L37.2854 41.1638L37.2854 45.5147Z" fill="white"/>
<path d="M84.9466 2.1759L19.9385 2.1759L19.9385 6.4984L84.9466 6.4984L84.9466 2.1759Z" fill="white"/>
<path d="M15.6164 75.829L11.2939 75.829L11.2939 80.1799L15.6164 80.1799L15.6164 75.829Z" fill="white"/>
<path d="M11.2936 75.829L11.2936 71.5065H6.94262L6.94262 62.8331L11.2936 62.8331L11.2936 58.5106L6.94262 58.5106L6.94262 49.8372L11.2936 49.8372L11.2936 45.5147L6.94262 45.5147L6.94262 36.8412L11.2936 36.8412L11.2936 32.5187L6.94262 32.5187L6.94262 23.8453L11.2936 23.8453L11.2936 19.4943L15.6161 19.4943L15.6161 23.8453L11.2936 23.8453L11.2936 28.1678L15.6161 28.1678L15.6161 36.8412L11.2936 36.8412L11.2936 41.1637L15.6161 41.1637L15.6161 49.8372L11.2936 49.8372L11.2936 54.1881L15.6161 54.1881L15.6161 62.8331L11.2936 62.8331L11.2936 67.184L15.6161 67.184L15.6161 71.5065H19.9386L19.9386 6.49841L15.6161 6.49841L15.6161 15.1719L6.94262 15.1719L6.94262 19.4943L2.62012 19.4943L2.62012 84.5025L6.94262 84.5025L6.94262 75.829H11.2936Z" fill="white"/>
</svg>
