<svg width="24" height="24" viewBox="0 0 24 24" fill="none" xmlns="http://www.w3.org/2000/svg">
<path d="M3 21H21M15.157 11.81L19.987 13.105C20.2443 13.1697 20.4861 13.2849 20.6984 13.444C20.9107 13.603 21.0893 13.8027 21.2237 14.0315C21.3581 14.2602 21.4456 14.5134 21.4812 14.7762C21.5168 15.0391 21.4998 15.3065 21.431 15.5627C21.3623 15.8189 21.2433 16.0589 21.0809 16.2687C20.9186 16.4785 20.7161 16.6539 20.4853 16.7847C20.2545 16.9155 20 16.999 19.7366 17.0305C19.4732 17.062 19.2061 17.0407 18.951 16.968L4.462 13.086L3.117 6.514L6.015 7.29L7.429 9.74L10.327 10.516L10.207 3.237L13.105 4.014L15.157 11.81Z" stroke="#8B8B8B" stroke-width="1.5" stroke-linecap="round" stroke-linejoin="round"/>
</svg>
