<svg width="56" height="57" viewBox="0 0 56 57" fill="none" xmlns="http://www.w3.org/2000/svg">
<rect y="0.951996" width="56" height="56" rx="28" fill="#171717"/>
<path d="M16.5427 35.7429C14.8885 32.952 14.3099 29.6532 14.9155 26.4659C15.5211 23.2785 17.2692 20.4219 19.8318 18.4321C22.3944 16.4424 25.5951 15.4565 28.8331 15.6594C32.071 15.8623 35.1236 17.2402 37.4177 19.5343C39.7118 21.8284 41.0897 24.8809 41.2926 28.1189C41.4955 31.3569 40.5096 34.5576 38.5198 37.1202C36.5301 39.6827 33.6734 41.4309 30.4861 42.0365C27.2988 42.6421 24 42.0635 21.2091 40.4093L16.5983 41.7147C16.4094 41.77 16.2091 41.7734 16.0184 41.7246C15.8277 41.6759 15.6536 41.5767 15.5145 41.4375C15.3753 41.2983 15.2761 41.1243 15.2273 40.9336C15.1786 40.7429 15.182 40.5426 15.2372 40.3537L16.5427 35.7429Z" fill="white"/>
<path d="M28.0144 30.6044C28.9348 30.6044 29.681 29.8583 29.681 28.9379C29.681 28.0174 28.9348 27.2713 28.0144 27.2713C27.094 27.2713 26.3478 28.0174 26.3478 28.9379C26.3478 29.8583 27.094 30.6044 28.0144 30.6044Z" fill="#171717"/>
<path d="M21.3481 30.6044C22.2685 30.6044 23.0147 29.8583 23.0147 28.9379C23.0147 28.0174 22.2685 27.2713 21.3481 27.2713C20.4277 27.2713 19.6815 28.0174 19.6815 28.9379C19.6815 29.8583 20.4277 30.6044 21.3481 30.6044Z" fill="#171717"/>
<path d="M34.6807 30.6044C35.6011 30.6044 36.3472 29.8583 36.3472 28.9379C36.3472 28.0174 35.6011 27.2713 34.6807 27.2713C33.7602 27.2713 33.0141 28.0174 33.0141 28.9379C33.0141 29.8583 33.7602 30.6044 34.6807 30.6044Z" fill="#171717"/>
</svg>
