<svg width="56" height="57" viewBox="0 0 56 57" fill="none" xmlns="http://www.w3.org/2000/svg">
<rect y="0.951996" width="56" height="56" rx="28" fill="#171717"/>
<path fill-rule="evenodd" clip-rule="evenodd" d="M28.6474 21.8597C26.0229 22.9689 20.7777 25.2647 12.9116 28.7471C11.6343 29.2633 10.9652 29.7682 10.9043 30.2619C10.8013 31.0963 11.8296 31.4249 13.23 31.8723C13.4204 31.9332 13.6178 31.9963 13.8201 32.0631C15.1978 32.5181 17.0511 33.0505 18.0145 33.0717C18.8884 33.0909 19.8638 32.7248 20.9407 31.9734C28.2902 26.9322 32.084 24.3842 32.3222 24.3293C32.4902 24.2905 32.7231 24.2418 32.8809 24.3843C33.0386 24.5268 33.0231 24.7966 33.0064 24.869C32.9046 25.3103 28.868 29.1236 26.7791 31.097C26.1278 31.7122 25.6659 32.1486 25.5715 32.2482C25.3599 32.4715 25.1444 32.6827 24.9372 32.8856C23.6572 34.1394 22.6974 35.0796 24.9903 36.6149C26.0921 37.3527 26.9738 37.9628 27.8534 38.5715C28.8141 39.2363 29.7723 39.8993 31.012 40.7251C31.3278 40.9354 31.6295 41.154 31.9233 41.3668C33.0412 42.1766 34.0456 42.9042 35.2864 42.7882C36.0075 42.7208 36.7522 42.0319 37.1305 39.9772C38.0244 35.1214 39.7814 24.6004 40.1875 20.265C40.2231 19.8851 40.1783 19.399 40.1424 19.1856C40.1064 18.9722 40.0313 18.6682 39.7584 18.4431C39.4351 18.1766 38.936 18.1203 38.7128 18.1243C37.6979 18.1425 36.1408 18.6927 28.6474 21.8597Z" fill="white"/>
</svg>
