<svg width="41" height="42" viewBox="0 0 41 42" fill="none" xmlns="http://www.w3.org/2000/svg">
<rect y="0.952026" width="41" height="41" rx="20.5" fill="white"/>
<path d="M11.7428 26.6025C10.4785 24.4857 10.0362 21.9838 10.4991 19.5664C10.962 17.149 12.2981 14.9824 14.2568 13.4733C16.2154 11.9643 18.6618 11.2165 21.1367 11.3704C23.6116 11.5243 25.9448 12.5693 27.6982 14.3092C29.4517 16.0492 30.5048 18.3644 30.6599 20.8202C30.815 23.276 30.0614 25.7035 28.5406 27.6471C27.0198 29.5906 24.8364 30.9165 22.4002 31.3758C19.964 31.8351 17.4427 31.3963 15.3095 30.1417L11.7853 31.1318C11.6409 31.1737 11.4878 31.1763 11.3421 31.1393C11.1963 31.1023 11.0633 31.0271 10.9569 30.9215C10.8505 30.816 10.7747 30.684 10.7375 30.5393C10.7002 30.3947 10.7028 30.2428 10.745 30.0995L11.7428 26.6025Z" fill="#171717"/>
<path d="M20.511 22.7053C21.2145 22.7053 21.7848 22.1394 21.7848 21.4413C21.7848 20.7432 21.2145 20.1773 20.511 20.1773C19.8075 20.1773 19.2372 20.7432 19.2372 21.4413C19.2372 22.1394 19.8075 22.7053 20.511 22.7053Z" fill="white"/>
<path d="M15.4157 22.7053C16.1192 22.7053 16.6895 22.1394 16.6895 21.4413C16.6895 20.7432 16.1192 20.1773 15.4157 20.1773C14.7122 20.1773 14.1419 20.7432 14.1419 21.4413C14.1419 22.1394 14.7122 22.7053 15.4157 22.7053Z" fill="white"/>
<path d="M25.6063 22.7053C26.3098 22.7053 26.8801 22.1394 26.8801 21.4413C26.8801 20.7432 26.3098 20.1773 25.6063 20.1773C24.9028 20.1773 24.3325 20.7432 24.3325 21.4413C24.3325 22.1394 24.9028 22.7053 25.6063 22.7053Z" fill="white"/>
</svg>
