<svg width="42" height="42" viewBox="0 0 42 42" fill="none" xmlns="http://www.w3.org/2000/svg">
<rect x="0.5" y="0.951965" width="41" height="41" rx="20.5" fill="white"/>
<path fill-rule="evenodd" clip-rule="evenodd" d="M21.4914 16.3121C19.5702 17.1241 15.7307 18.8046 9.9727 21.3538C9.03769 21.7316 8.54789 22.1012 8.5033 22.4626C8.42795 23.0734 9.18069 23.3139 10.2057 23.6414C10.3452 23.686 10.4896 23.7321 10.6377 23.7811C11.6462 24.1142 13.0028 24.5039 13.708 24.5193C14.3477 24.5334 15.0617 24.2654 15.85 23.7154C21.2299 20.0252 24.007 18.1601 24.1813 18.1199C24.3043 18.0915 24.4748 18.0558 24.5903 18.1601C24.7058 18.2644 24.6944 18.462 24.6822 18.515C24.6076 18.838 21.6528 21.6293 20.1237 23.0739C19.647 23.5242 19.3089 23.8436 19.2398 23.9166C19.0849 24.08 18.9271 24.2346 18.7754 24.3832C17.8385 25.3009 17.136 25.9891 18.8143 27.113C19.6209 27.6531 20.2663 28.0997 20.9102 28.5453C21.6134 29.0319 22.3148 29.5172 23.2222 30.1217C23.4534 30.2757 23.6742 30.4356 23.8893 30.5914C24.7076 31.1842 25.4429 31.7168 26.3512 31.6319C26.8789 31.5825 27.4241 31.0782 27.701 29.5742C28.3553 26.0198 29.6415 18.3184 29.9388 15.1448C29.9648 14.8668 29.932 14.5109 29.9057 14.3547C29.8794 14.1985 29.8244 13.9759 29.6246 13.8112C29.388 13.6161 29.0226 13.5749 28.8592 13.5778C28.1163 13.5911 26.9766 13.9938 21.4914 16.3121Z" fill="#171717"/>
</svg>
