<svg width="80" height="50" viewBox="0 0 80 50" fill="none" xmlns="http://www.w3.org/2000/svg">
<path d="M78.3827 28.8116C79.5416 31.2643 79.919 33.8786 79.9998 36.3043C79.9459 39.7812 79.1643 42.8807 78.0593 45.9263C78.0054 46.088 77.9515 46.2497 77.8706 46.3845C77.4394 47.1391 76.6039 47.5434 75.8761 47.3278C75.0137 47.0852 74.4746 46.3575 74.5824 45.4142C74.6094 44.9829 74.7711 44.5517 74.9059 44.1205C75.2023 43.0154 75.5527 41.9643 75.8222 40.8593C76.4421 38.3257 76.6038 35.7383 76.0109 33.1509C75.6875 31.7225 75.2832 30.3479 74.3668 29.135C73.4504 27.9761 74.0434 26.5207 75.418 26.2781C76.0918 26.1433 76.7925 26.4129 77.2238 26.9789C77.6819 27.5449 78.0593 28.1648 78.3827 28.8116Z" fill="#171717"/>
<path d="M70.6106 36.7625C69.6673 36.7895 68.8587 36.0618 68.8048 35.1185C68.724 34.1482 69.5595 33.2857 70.5837 33.2587C71.527 33.2318 72.3356 33.9326 72.4164 34.8759C72.4703 35.8462 71.6078 36.7356 70.6106 36.7625ZM70.5837 41.5331C71.527 41.4792 72.3356 42.2069 72.4164 43.1502C72.4703 44.0935 71.6078 44.983 70.6106 45.0099C69.6673 45.0369 68.8587 44.3361 68.8048 43.3928C68.724 42.4225 69.5595 41.56 70.5837 41.5331Z" fill="#171717"/>
<path d="M60.1839 34.7411C60.2917 35.1723 60.4804 35.5766 60.696 36.1696C60.9386 35.7653 61.1542 35.5227 61.2889 35.2263C62.0975 33.6091 62.8791 31.992 63.6607 30.3479C63.8224 30.0514 63.9303 29.728 64.092 29.4585C64.5771 28.7038 65.4126 28.4343 66.1673 28.7038C66.9219 28.9733 67.4071 29.7549 67.3262 30.5635C67.2723 30.9948 67.1376 31.4529 66.9489 31.8572C66.5716 32.7197 66.1403 33.5822 65.736 34.4446C63.7685 38.5683 61.7741 42.692 59.8066 46.7888C59.564 47.3008 59.3484 47.8399 59.025 48.2981C58.5129 49.1066 57.5965 49.3492 56.8149 48.9719C56.0333 48.5946 55.629 47.759 55.8715 46.8427C55.9524 46.5192 56.0872 46.2228 56.2489 45.9263C56.734 44.8482 57.1652 43.7162 57.7582 42.692C58.2972 41.7217 58.2433 40.8054 57.9199 39.7812C57.4617 38.4066 57.0844 36.9781 56.7071 35.5766C56.195 33.663 55.7098 31.7494 55.2247 29.8628C54.9552 28.8655 55.5212 27.9222 56.4914 27.5718C57.327 27.3023 58.3242 27.7605 58.7015 28.6769C58.9171 29.189 59.0249 29.7549 59.1597 30.294C59.5101 31.7764 59.8335 33.2587 60.1839 34.7411Z" fill="#171717"/>
<path d="M43.2049 46.0341C42.8546 43.4467 42.9085 34.0943 42.7737 32.0459C42.6659 30.4018 43.3667 29.5124 45.2803 29.1889C53.2581 27.9222 56.8428 37.4633 52.2878 42.9346C50.5629 44.9021 47.7599 47.759 44.9029 47.5434C43.9057 47.4356 43.3397 46.9774 43.2049 46.0341ZM46.547 32.6658C46.3314 33.9864 46.4392 40.5628 46.7626 43.2311C49.1614 41.587 50.8863 39.4308 50.6707 36.6278C50.5629 34.5524 48.8649 32.3963 46.547 32.6658Z" fill="#171717"/>
<path d="M28.9655 46.0341C28.6152 43.4467 28.6691 34.0943 28.5343 32.0459C28.4265 30.4018 29.1273 29.5124 31.0409 29.1889C39.0187 27.9222 42.6034 37.4633 38.0484 42.9346C36.3235 44.9021 33.5205 47.759 30.6635 47.5434C29.6663 47.4356 29.1003 46.9774 28.9655 46.0341ZM32.3076 32.6658C32.092 33.9864 32.1998 40.5628 32.5232 43.2311C34.922 41.587 36.6469 39.4308 36.4313 36.6278C36.3235 34.5524 34.6255 32.3963 32.3076 32.6658Z" fill="#171717"/>
<path d="M22.1437 45.9532C22.1168 45.0638 22.1168 44.7673 21.982 44.7134C21.7934 44.6595 21.5238 45.2255 21.3082 45.549C20.3649 46.8966 17.9392 47.6243 16.0795 46.8427C14.7049 46.2767 14.0042 45.0908 13.7616 44.4709C13.3843 43.4736 13.1417 42.4225 13.0339 41.3714C12.7644 38.8918 13.0069 36.4122 13.1956 33.9326C13.2226 33.7169 13.2765 33.4744 13.3573 33.2857C13.6268 32.558 14.3546 32.0998 15.0823 32.1537C15.81 32.2346 16.4029 32.5849 16.5916 33.3127C16.7263 33.8517 16.8072 34.4177 16.7533 34.9837C16.7263 36.2774 16.6724 37.5711 16.5646 38.8648C16.2682 42.3956 16.4838 42.9076 16.8342 43.2041C17.2654 43.5275 17.9392 43.5814 18.3974 43.3928C19.0173 43.1233 19.4755 41.9913 20.3379 39.7003C20.3379 39.6734 20.3649 39.6464 20.3918 39.5925C20.4997 39.296 20.7961 38.4875 21.2274 37.086C21.443 36.4391 21.7125 35.8462 21.9012 35.1993C22.0359 34.7681 22.2246 34.3368 22.4672 33.9595C22.8715 33.3396 23.4914 33.097 24.2191 33.2048C24.9737 33.3396 25.5667 33.9326 25.6745 34.6603C25.7284 35.1185 25.7284 35.5766 25.7014 36.0348C25.4858 39.35 25.5667 42.6651 25.7823 46.0071C25.8362 46.5462 25.8362 47.1122 25.8092 47.6782C25.7284 48.7563 25.0546 49.4301 24.1113 49.457C23.141 49.457 22.4672 48.891 22.3055 47.786C22.2785 47.6243 22.1976 47.3817 22.1437 45.9532Z" fill="#171717"/>
<path d="M8.951 35.4419C8.73538 35.7653 8.49281 36.0348 8.22329 36.3582C8.57367 36.6278 8.89709 36.8164 9.19357 37.059C10.7838 38.3258 11.2419 40.1316 10.4873 42.0182C10.083 43.0424 9.43614 43.9049 8.62757 44.6595C7.52253 45.7376 6.20187 46.4653 4.74645 47.0044C4.0996 47.2739 3.4797 47.5165 2.8598 47.9208C1.75476 48.6215 0.514953 48.0825 0.272383 46.7618C0.0837174 45.8454 0.0567651 44.9291 0.0298129 43.9857C-0.104948 39.7003 0.245431 35.4149 0.514953 31.1295C0.59581 29.8358 1.26962 29.0542 2.53637 28.7308C4.34217 28.2187 6.09406 28.3265 7.7651 29.1351C8.30415 29.3776 8.78929 29.728 9.22052 30.1592C10.2178 31.2373 10.5142 32.531 9.86737 33.9325C9.6248 34.4716 9.27443 34.9567 8.951 35.4419ZM3.58751 39.2152C3.50665 40.7245 3.34494 42.0991 3.58751 43.7162C4.85426 43.2311 5.77064 42.6651 6.49835 41.8565C6.74092 41.56 6.95653 41.2636 7.1452 40.9132C7.44167 40.3202 7.25301 39.889 6.63311 39.6464C5.66283 39.2691 4.6656 39.2421 3.58751 39.2152ZM4.0996 31.965C3.85703 33.0162 3.83008 33.9865 3.80312 35.2802C5.06988 34.4716 6.06711 33.7708 6.60616 32.5849C5.85149 31.8572 5.01597 31.9381 4.0996 31.965Z" fill="#171717"/>
<path d="M51.2253 24.4184C50.4706 24.3106 49.9046 23.7177 49.7968 22.963C49.7968 22.9091 49.7968 22.8552 49.7968 22.8013C49.9316 21.2381 50.4167 19.7827 51.36 18.5429C51.7913 17.9499 52.492 17.8151 53.1928 18.0847C53.9205 18.3542 54.3517 19.001 54.3248 19.8096C54.3517 19.9174 54.3248 20.0252 54.2978 20.16C53.8935 21.265 53.5432 22.424 53.058 23.5021C52.7346 24.2567 51.9799 24.5532 51.2253 24.4184Z" fill="#171717"/>
<path d="M42.7334 7.7889C42.8412 8.22014 43.0299 8.62442 43.2455 9.21737C43.488 8.81309 43.7037 8.57052 43.8384 8.27404C44.647 6.65691 45.4286 5.03978 46.2102 3.39569C46.3719 3.09922 46.4797 2.77579 46.6415 2.50627C47.1266 1.75161 47.9621 1.48208 48.7168 1.75161C49.4714 2.02113 49.9566 2.80274 49.8757 3.61131C49.8218 4.04254 49.6871 4.50073 49.4984 4.90501C49.1211 5.76749 48.6898 6.62996 48.2855 7.49243C46.318 11.6161 44.3236 15.7398 42.3561 19.8365C42.1135 20.3486 41.8979 20.8877 41.5744 21.3459C41.0623 22.1544 40.146 22.397 39.3644 22.0197C38.5827 21.6423 38.1785 20.8068 38.421 19.8905C38.5019 19.567 38.6366 19.2705 38.7984 18.9741C39.2835 17.896 39.7147 16.764 40.3077 15.7398C40.8467 14.7695 40.7928 13.8532 40.4694 12.829C40.0112 11.4544 39.6339 10.0259 39.2565 8.62442C38.7445 6.71081 38.2593 4.79721 37.7742 2.91055C37.5047 1.91332 38.0706 0.96999 39.0409 0.619612C39.8764 0.350089 40.8737 0.808277 41.251 1.72465C41.4666 2.23675 41.5744 2.80274 41.7092 3.34179C42.0596 4.82416 42.383 6.30653 42.7334 7.7889Z" fill="#171717"/>
<path d="M30.3393 15.8746C30.9592 15.7398 32.1182 15.5511 32.3068 14.9043C32.3338 14.8234 32.3338 14.7695 32.3338 14.6887C32.2799 14.0688 31.2287 13.7723 31.1479 13.7453C30.3393 13.4758 29.5577 13.1524 28.803 12.7481C25.6496 11.0501 25.8922 7.89671 27.3207 6.01006C28.9378 3.85388 31.1479 2.9375 33.7892 2.99141C34.3282 2.99141 34.8942 3.20702 35.4063 3.42264C36.161 3.79997 36.4844 4.63549 36.2958 5.44406C36.1071 6.22567 35.4333 6.71081 34.5169 6.71081C33.9509 6.71081 33.6814 6.68386 33.1693 6.62996C32.7381 6.603 30.9053 6.46824 30.2046 7.41157C30.0698 7.60024 29.8542 8.03147 29.935 8.81309C30.0967 9.37908 30.501 9.5947 30.9323 9.75641C31.66 10.0529 32.4146 10.3224 33.1154 10.6458C33.8162 10.9962 34.5439 11.3466 35.1368 11.8317C36.6461 13.0985 36.8618 15.093 35.7028 16.6831C35.1368 17.4917 34.3822 18.0577 33.5197 18.5159C32.3068 19.1627 31.0131 19.5131 29.6655 19.7287C28.7491 19.8905 27.9136 19.4053 27.6171 18.6237C27.2398 17.7073 27.698 16.7101 28.7222 16.3058C28.9648 16.2249 29.1804 16.1441 29.396 16.0902C29.8272 15.9554 30.0698 15.9285 30.3393 15.8746Z" fill="#171717"/>
<path d="M21.972 18.3003C21.5946 17.4648 21.5138 16.8988 21.1634 15.9824L14.9913 16.2519C14.3714 17.2761 13.8324 18.435 12.9969 19.2975C11.6223 20.6182 9.35831 18.9741 10.113 17.2491C12.1074 13.3411 13.9132 9.32518 16.0964 5.52492C16.4198 4.98587 16.8241 4.47378 17.2823 4.01559C19.8697 1.48208 21.9989 3.93473 22.6188 6.68386C23.5352 10.2416 24.7211 13.7723 25.3949 17.3839C25.5027 19.2705 22.8614 19.9983 21.972 18.3003ZM18.9533 8.05843C18.1447 9.43299 17.444 10.8615 16.8241 12.3438C18.1178 12.2899 19.0881 12.4516 20.1122 12.1282C19.9505 10.7267 19.5732 9.35213 18.9533 8.05843Z" fill="#171717"/>
<path d="M3.99168 5.95616C3.53349 6.06397 3.42568 9.08262 3.69521 9.24433C3.96473 9.43299 4.66549 9.35214 5.20453 9.35214C6.25567 9.43299 7.95366 9.37909 8.41185 9.70252C9.03175 10.0798 9.27432 10.4033 9.35517 11.131C9.32822 13.6645 4.09949 12.802 3.77606 13.0985C3.56044 13.2872 3.56044 14.1766 3.53349 14.8504C3.47959 15.6859 3.0753 17.0605 3.66825 17.0066C6.44433 16.791 7.98061 17.1413 8.11537 17.9499C8.35794 18.5968 8.08842 19.3784 7.68413 19.8635C6.95643 20.726 5.52796 20.2947 2.67102 20.4295C0.730461 20.5373 -0.024201 18.7585 0.00275122 17.0335C0.0836079 12.8829 0.0566557 8.70528 0.218369 4.52769C0.380082 3.20703 0.946079 2.58713 2.26674 2.47932C4.15339 2.42542 6.12091 2.1559 8.00756 2.39847C9.81336 2.80275 9.7325 5.44407 7.92671 5.79444C6.633 5.92921 4.44987 5.84835 3.99168 5.95616Z" fill="#171717"/>
</svg>
