<svg width="36" height="37" viewBox="0 0 36 37" fill="none" xmlns="http://www.w3.org/2000/svg">
<path d="M18 3.875C16.7563 3.875 15.75 4.88135 15.75 6.125C15.75 6.22168 15.772 6.31397 15.7852 6.40625C11.896 7.39941 9 10.9326 9 15.125V25.25V26.375H7.875H6.75V28.625H14.8359C14.7085 28.981 14.625 29.3545 14.625 29.75C14.625 31.6001 16.1499 33.125 18 33.125C19.8501 33.125 21.375 31.6001 21.375 29.75C21.375 29.3545 21.2915 28.981 21.1641 28.625H29.25V26.375H28.125H27V25.25V15.4414C27 11.2139 24.1743 7.44336 20.2148 6.40625C20.228 6.31397 20.25 6.22168 20.25 6.125C20.25 4.88135 19.2437 3.875 18 3.875ZM17.5078 8.375C17.6704 8.36182 17.833 8.375 18 8.375C18.0703 8.375 18.1406 8.375 18.2109 8.375C21.8848 8.48486 24.75 11.7061 24.75 15.4414V25.25V26.375H11.25V25.25V15.125C11.25 11.5522 14.001 8.62988 17.5078 8.375Z" fill="#282828"/>
</svg>
