<svg width="116" height="32" viewBox="0 0 116 32" fill="none" xmlns="http://www.w3.org/2000/svg">
<rect width="32" height="32" fill="white"/>
<path d="M17.0523 23.2452C9.00678 23.2452 4.41777 17.8055 4.22656 8.75391H8.25668C8.38905 15.3976 11.3601 18.2117 13.7135 18.7919V8.75391H17.5084V14.4837C19.8323 14.2371 22.2736 11.6261 23.0973 8.75391H26.8922C26.2598 12.2933 23.6122 14.9043 21.7295 15.9778C23.6122 16.8481 26.6276 19.1255 27.7749 23.2452H23.5975C22.7003 20.4891 20.4648 18.3567 17.5084 18.0666V23.2452H17.0523Z" fill="#282828"/>
<rect width="32" height="32" transform="translate(42)" fill="white"/>
<path fill-rule="evenodd" clip-rule="evenodd" d="M59.992 10.8098C58.3061 11.5223 54.9368 12.997 49.8839 15.234C49.0634 15.5656 48.6335 15.8899 48.5944 16.2071C48.5283 16.7431 49.1888 16.9541 50.0884 17.2415C50.2107 17.2806 50.3375 17.3211 50.4675 17.3641C51.3525 17.6564 52.5429 17.9984 53.1618 18.012C53.7232 18.0243 54.3497 17.7891 55.0415 17.3064C59.7626 14.0682 62.1996 12.4314 62.3526 12.3961C62.4605 12.3712 62.6101 12.3399 62.7115 12.4315C62.8128 12.523 62.8029 12.6963 62.7921 12.7428C62.7267 13.0263 60.1337 15.4758 58.7919 16.7435C58.3735 17.1387 58.0768 17.419 58.0162 17.483C57.8803 17.6264 57.7418 17.7621 57.6087 17.8924C56.7865 18.6978 56.17 19.3018 57.6428 20.288C58.3506 20.762 58.917 21.1539 59.482 21.5449C60.0991 21.9719 60.7146 22.3978 61.5109 22.9282C61.7138 23.0634 61.9076 23.2038 62.0963 23.3405C62.8145 23.8607 63.4596 24.3281 64.2567 24.2535C64.7199 24.2102 65.1983 23.7677 65.4413 22.4479C66.0155 19.3287 67.1442 12.5703 67.405 9.78536C67.4279 9.54137 67.3991 9.2291 67.376 9.09202C67.3529 8.95494 67.3047 8.75963 67.1293 8.61505C66.9217 8.44382 66.6011 8.40771 66.4577 8.41028C65.8058 8.42195 64.8056 8.77535 59.992 10.8098Z" fill="#282828"/>
<rect width="32" height="32" transform="translate(84)" fill="white"/>
<path fill-rule="evenodd" clip-rule="evenodd" d="M89.1328 15.9696C89.1499 9.9873 94.0001 5.14194 99.9843 5.13281C99.53 10.9226 94.9123 15.5383 89.1328 15.9696ZM99.9842 26.8697C94.0005 26.8605 89.1506 22.0159 89.1328 16.0343C94.9118 16.4655 99.5293 21.0805 99.9842 26.8697ZM110.87 16.0373C110.85 22.0044 106.022 26.8392 100.058 26.8696C100.512 21.0937 105.109 16.4866 110.87 16.0373ZM110.87 15.9666C105.109 15.5173 100.511 10.9095 100.058 5.13294C106.023 5.16328 110.851 9.99885 110.87 15.9666Z" fill="#282828"/>
</svg>
