<svg width="543" height="630" viewBox="0 0 543 630" fill="none" xmlns="http://www.w3.org/2000/svg">
<g clip-path="url(#clip0_479_1724)">
<rect y="64.1797" width="468.294" height="570.55" rx="8" transform="rotate(-7.87725 0 64.1797)" fill="white"/>
<path d="M110.951 103.612L111.869 110.245L102.45 111.548L105.102 130.718L97.8058 131.728L91.3816 85.2953L110.684 82.6247L111.602 89.2579L99.5958 90.919L101.532 104.915L110.951 103.612ZM121.48 81.1311L127.904 127.563L120.607 128.573L114.183 82.1406L121.48 81.1311ZM148.495 124.714C148.126 123.999 147.851 123.316 147.671 122.665C147.491 122.014 147.281 120.826 147.043 119.102L146.033 111.805C145.74 109.683 145.156 108.231 144.282 107.451C143.401 106.626 142.121 106.33 140.441 106.562L137.92 106.911L140.535 125.816L133.239 126.825L126.815 80.3929L137.826 78.8695C141.585 78.3494 144.449 78.8545 146.418 80.3847C148.381 81.8708 149.614 84.4268 150.116 88.053L150.62 91.7012C151.281 96.4771 150.124 99.8371 147.148 101.781C148.97 102.25 150.374 103.273 151.358 104.849C152.336 106.381 153.002 108.43 153.357 110.995L154.348 118.159C154.532 119.485 154.726 120.562 154.931 121.39C155.129 122.174 155.461 122.94 155.925 123.687L148.495 124.714ZM137.002 100.278L139.854 99.8833C141.314 99.6814 142.345 99.1557 142.949 98.306C143.596 97.4502 143.798 96.1379 143.553 94.3691L142.92 89.7922C142.687 88.1118 142.21 86.9385 141.487 86.2724C140.808 85.6002 139.827 85.3528 138.545 85.5302L135.029 86.0166L137.002 100.278ZM154.116 87.9727C153.596 84.2139 154.105 81.2141 155.643 78.9733C157.174 76.6882 159.709 75.301 163.247 74.8115C166.784 74.3221 169.601 74.969 171.695 76.7523C173.783 78.4914 175.088 81.2404 175.608 84.9992L175.81 86.4585L168.911 87.4129L168.645 85.4893C168.425 83.8974 167.956 82.7904 167.239 82.1685C166.516 81.5024 165.557 81.252 164.363 81.4172C163.169 81.5824 162.315 82.0837 161.8 82.9211C161.279 83.7143 161.128 84.9069 161.348 86.4988C161.618 88.4446 162.362 90.0767 163.581 91.3953C164.844 92.7078 166.643 94.1489 168.979 95.7186C170.923 97.072 172.512 98.2943 173.745 99.3857C174.971 100.433 176.08 101.767 177.07 103.387C178.061 105.008 178.709 106.924 179.015 109.135C179.535 112.894 179.007 115.919 177.431 118.21C175.849 120.457 173.289 121.825 169.751 122.314C166.214 122.804 163.379 122.182 161.246 120.449C159.107 118.672 157.778 115.904 157.258 112.145L156.863 109.293L163.762 108.338L164.221 111.655C164.637 114.662 166.105 115.991 168.626 115.642C171.146 115.294 172.198 113.616 171.782 110.609C171.513 108.663 170.747 107.034 169.484 105.721C168.265 104.403 166.488 102.959 164.152 101.389C162.207 100.036 160.622 98.8353 159.395 97.7882C158.162 96.6968 157.051 95.3408 156.061 93.7202C155.07 92.0996 154.422 90.1838 154.116 87.9727ZM198.743 70.4412L199.661 77.0744L192.032 78.1298L197.539 117.929L190.242 118.938L184.736 79.1393L177.108 80.1947L176.19 73.5615L198.743 70.4412ZM232.686 65.7449L242.835 64.3408L249.259 110.773L242.361 111.728L237.754 78.4289L237.319 112.425L230.421 113.38L220.439 81.2978L224.982 114.132L218.614 115.013L212.19 68.5807L222.338 67.1766L232.273 99.4002L232.686 65.7449ZM268.163 80.779L269.08 87.4122L259.064 88.798L260.946 102.396L273.549 100.652L274.466 107.286L254.567 110.039L248.143 63.6064L268.042 60.8532L268.96 67.4864L256.357 69.2301L258.146 82.1648L268.163 80.779ZM292.584 77.4002L293.501 84.0334L283.485 85.4192L285.367 99.0172L297.97 97.2735L298.887 103.907L278.988 106.66L272.564 60.2276L292.463 57.4744L293.381 64.1076L280.778 65.8513L282.567 78.786L292.584 77.4002ZM317.415 54.0221L318.333 60.6553L310.704 61.7107L316.211 101.51L308.914 102.519L303.408 62.7203L295.78 63.7757L294.862 57.1425L317.415 54.0221ZM327.925 52.568L334.349 99.0003L327.053 100.01L320.628 53.5775L327.925 52.568ZM346.185 97.3628L339.618 98.2714L333.194 51.839L342.347 50.5725L353.688 77.3286L349.843 49.5355L356.343 48.6361L362.768 95.0685L355.272 96.1055L341.532 63.7325L346.185 97.3628ZM385.572 65.5486L387.61 80.2743C388.13 84.0331 387.602 87.0581 386.026 89.3492C384.444 91.5961 381.884 92.9643 378.347 93.4538C374.809 93.9433 371.974 93.3215 369.841 91.5885C367.702 89.8113 366.373 87.0433 365.853 83.2845L362.512 59.1397C361.992 55.3809 362.523 52.378 364.105 50.1311C365.681 47.8399 368.238 46.4496 371.776 45.9601C375.313 45.4707 378.152 46.1146 380.29 47.8918C382.423 49.6247 383.749 52.3706 384.269 56.1295L384.893 60.64L377.995 61.5945L377.307 56.6196C376.884 53.5683 375.413 52.2171 372.892 52.5658C370.372 52.9145 369.323 54.6146 369.745 57.6658L373.214 82.7393C373.63 85.7463 375.098 87.0755 377.619 86.7267C380.139 86.378 381.192 84.7001 380.776 81.6931L379.592 73.1362L376.275 73.5951L375.357 66.9619L385.572 65.5486Z" fill="black"/>
<path d="M248.718 358.704C248.95 360.384 249.447 361.532 250.208 362.148C251.008 362.714 251.982 362.917 253.132 362.758C254.282 362.599 255.142 362.141 255.714 361.386C256.324 360.581 256.512 359.338 256.28 357.658L252.811 332.584C252.578 330.904 252.062 329.781 251.263 329.215C250.502 328.6 249.546 328.371 248.396 328.53C247.247 328.689 246.367 329.172 245.757 329.977C245.186 330.732 245.016 331.95 245.249 333.63L248.718 358.704ZM238.017 335.104C237.496 331.345 238.05 328.339 239.676 326.086C241.296 323.789 243.897 322.393 247.479 321.897C251.061 321.402 253.943 322.039 256.126 323.81C258.303 325.537 259.651 328.28 260.171 332.039L263.512 356.184C264.032 359.943 263.482 362.971 261.862 365.268C260.236 367.521 257.632 368.895 254.05 369.391C250.468 369.886 247.588 369.271 245.412 367.544C243.229 365.773 241.877 363.008 241.357 359.249L238.017 335.104ZM279.012 329.703C278.725 327.624 278.178 326.28 277.373 325.671C276.605 325.011 275.647 324.76 274.497 324.919C273.347 325.078 272.468 325.56 271.858 326.366C271.286 327.121 271.117 328.339 271.349 330.019L271.762 333.004L264.864 333.959L264.515 331.438C263.995 327.679 264.504 324.679 266.042 322.439C267.617 320.147 270.196 318.754 273.778 318.258C277.36 317.763 280.198 318.407 282.293 320.19C284.426 321.923 285.752 324.669 286.272 328.428L286.437 329.622C287.122 334.575 285.86 337.994 282.651 339.88C284.619 340.419 286.094 341.477 287.079 343.053C288.101 344.579 288.777 346.536 289.108 348.924L289.613 352.573C290.133 356.331 289.605 359.356 288.029 361.648C286.491 363.888 283.931 365.257 280.349 365.752C276.767 366.248 273.91 365.629 271.778 363.896C269.683 362.113 268.376 359.342 267.856 355.583L267.323 351.736L274.222 350.781L274.818 355.093C275.051 356.773 275.548 357.921 276.309 358.537C277.108 359.102 278.083 359.306 279.233 359.146C280.382 358.987 281.24 358.508 281.805 357.709C282.415 356.903 282.576 355.461 282.289 353.383L281.784 349.735C281.484 347.568 280.897 346.094 280.023 345.314C279.149 344.534 277.871 344.26 276.191 344.492L273.737 344.832L272.819 338.198L275.671 337.804C277.042 337.614 278.055 337.114 278.708 336.302C279.406 335.484 279.627 334.147 279.37 332.29L279.012 329.703ZM302.153 355.029L303.126 362.06L296.095 363.033L295.122 356.002L302.153 355.029Z" fill="black"/>
<path d="M151.327 406.905L151.016 405.677L150.946 405.686C150.785 405.953 150.568 406.219 150.293 406.483C149.692 407.037 148.956 407.375 148.087 407.495C146.784 407.675 145.619 407.361 144.593 406.551C143.567 405.741 142.953 404.606 142.751 403.145C142.549 401.685 142.831 400.425 143.599 399.367C144.366 398.31 145.402 397.69 146.706 397.51C147.852 397.352 148.854 397.547 149.713 398.098C150.58 398.647 151.187 399.359 151.535 400.234L150.009 400.445C149.683 399.859 149.243 399.435 148.688 399.172C148.142 398.899 147.545 398.807 146.898 398.897C145.973 399.025 145.256 399.459 144.746 400.198C144.235 400.938 144.056 401.853 144.207 402.944C144.358 404.035 144.779 404.867 145.471 405.44C146.163 406.013 146.971 406.236 147.895 406.108C148.709 405.996 149.37 405.636 149.88 405.028C150.397 404.41 150.611 403.777 150.522 403.13L150.512 403.061L147.808 403.435L147.645 402.256L151.805 401.681L152.506 406.742L151.327 406.905ZM154.442 406.474L153.099 396.767L159.478 395.884L159.67 397.271L154.747 397.952L155.131 400.726L159.777 400.083L159.969 401.47L155.323 402.113L155.707 404.886L160.63 404.205L160.822 405.592L154.442 406.474ZM164.91 405.026L163.759 396.705L160.708 397.127L160.516 395.741L168.074 394.695L168.266 396.082L165.215 396.504L166.367 404.825L164.91 405.026ZM175.447 403.568L174.296 395.248L171.245 395.67L171.053 394.283L178.611 393.237L178.803 394.624L175.752 395.046L176.903 403.367L175.447 403.568ZM188.356 400.496C187.588 401.554 186.552 402.173 185.249 402.353C183.945 402.534 182.78 402.219 181.754 401.409C180.728 400.6 180.114 399.465 179.912 398.004C179.71 396.543 179.993 395.284 180.761 394.226C181.528 393.168 182.564 392.549 183.867 392.369C185.171 392.188 186.336 392.503 187.362 393.313C188.388 394.122 189.002 395.257 189.204 396.718C189.406 398.179 189.123 399.438 188.356 400.496ZM186.484 394.423C185.792 393.85 184.984 393.627 184.059 393.755C183.135 393.883 182.417 394.317 181.907 395.057C181.397 395.796 181.217 396.711 181.368 397.802C181.519 398.893 181.941 399.725 182.632 400.299C183.324 400.872 184.132 401.095 185.057 400.967C185.981 400.839 186.699 400.405 187.209 399.665C187.719 398.926 187.899 398.011 187.748 396.92C187.597 395.829 187.175 394.997 186.484 394.423ZM194.8 400.891L193.457 391.183L194.913 390.982L195.527 395.419L198.63 390.467L200.46 390.214L197.1 395.555L202.081 399.883L200.25 400.137L195.623 396.113L196.256 400.689L194.8 400.891ZM202.98 399.759L201.637 390.051L203.786 389.754L208.784 396.765L209.062 396.727L208.016 389.169L209.472 388.967L210.815 398.675L208.666 398.972L203.668 391.961L203.39 391.999L204.436 399.557L202.98 399.759ZM220.249 396.083C219.481 397.141 218.446 397.76 217.142 397.941C215.839 398.121 214.674 397.806 213.648 396.997C212.622 396.187 212.008 395.052 211.806 393.591C211.604 392.13 211.886 390.871 212.654 389.813C213.422 388.755 214.457 388.136 215.761 387.956C217.064 387.776 218.229 388.09 219.255 388.9C220.281 389.71 220.895 390.845 221.097 392.306C221.299 393.766 221.017 395.026 220.249 396.083ZM218.377 390.011C217.685 389.437 216.877 389.215 215.953 389.343C215.028 389.471 214.311 389.904 213.801 390.644C213.291 391.383 213.111 392.299 213.262 393.39C213.413 394.481 213.834 395.313 214.526 395.886C215.218 396.459 216.026 396.682 216.95 396.554C217.875 396.426 218.592 395.992 219.102 395.253C219.612 394.513 219.792 393.598 219.641 392.507C219.49 391.416 219.069 390.584 218.377 390.011ZM224.955 396.718L221.185 387.347L222.78 387.126L225.707 394.494L225.985 394.456L226.94 386.55L228.743 386.301L231.809 393.65L232.087 393.612L232.904 385.725L234.498 385.505L233.415 395.548L231.196 395.855L228.316 388.833L228.039 388.872L227.174 396.411L224.955 396.718ZM241.878 394.377L241.398 390.91L236.998 385.159L238.607 384.936L241.782 389.09L242.06 389.052L243.918 384.201L245.527 383.979L242.854 390.709L243.334 394.176L241.878 394.377ZM254.932 391.285C254.165 392.343 253.129 392.962 251.825 393.142C250.522 393.322 249.357 393.008 248.331 392.198C247.305 391.388 246.691 390.253 246.489 388.792C246.287 387.332 246.57 386.072 247.337 385.015C248.105 383.957 249.14 383.338 250.444 383.157C251.748 382.977 252.912 383.292 253.938 384.101C254.964 384.911 255.578 386.046 255.78 387.507C255.983 388.968 255.7 390.227 254.932 391.285ZM253.06 385.212C252.369 384.639 251.56 384.416 250.636 384.544C249.711 384.672 248.994 385.106 248.484 385.845C247.974 386.585 247.794 387.5 247.945 388.591C248.096 389.682 248.517 390.514 249.209 391.087C249.901 391.661 250.709 391.883 251.634 391.755C252.558 391.627 253.275 391.194 253.786 390.454C254.296 389.715 254.475 388.799 254.324 387.708C254.173 386.617 253.752 385.785 253.06 385.212ZM257.506 388.257L256.7 382.433L258.157 382.231L258.962 388.056C259.071 388.842 259.386 389.448 259.907 389.876C260.436 390.293 261.051 390.452 261.754 390.355C262.457 390.258 263.001 389.938 263.388 389.394C263.782 388.84 263.925 388.17 263.816 387.384L263.01 381.56L264.467 381.358L265.272 387.183C265.44 388.394 265.214 389.419 264.596 390.259C263.985 391.088 263.101 391.582 261.946 391.742C260.79 391.902 259.801 391.666 258.979 391.036C258.165 390.395 257.674 389.469 257.506 388.257ZM267.823 390.787L266.48 381.08L270.848 380.475C271.662 380.363 272.377 380.561 272.994 381.069C273.619 381.567 273.995 382.278 274.123 383.202C274.251 384.127 274.083 384.918 273.618 385.576C273.161 386.223 272.525 386.603 271.712 386.716L271.365 386.764L275.312 389.751L273.44 390.01L269.493 387.023L268.8 387.119L269.279 390.586L267.823 390.787ZM268.608 385.732L271.451 385.339C271.848 385.284 272.168 385.075 272.41 384.711C272.652 384.348 272.737 383.912 272.667 383.404C272.597 382.895 272.396 382.499 272.064 382.215C271.733 381.931 271.369 381.817 270.971 381.872L268.128 382.265L268.608 385.732ZM280.107 389.088L278.763 379.38L283.062 378.786C283.858 378.676 284.555 378.848 285.155 379.302C285.754 379.746 286.105 380.348 286.21 381.106C286.295 381.716 286.192 382.268 285.902 382.76C285.788 382.955 285.64 383.145 285.458 383.33L285.468 383.4C285.707 383.498 285.925 383.638 286.119 383.818C286.582 384.235 286.857 384.757 286.944 385.386C287.05 386.153 286.875 386.832 286.42 387.423C285.974 388.012 285.362 388.361 284.586 388.468L280.107 389.088ZM280.805 383.409L283.578 383.025C283.967 382.971 284.276 382.787 284.505 382.473C284.735 382.158 284.821 381.793 284.764 381.377C284.706 380.961 284.524 380.633 284.218 380.392C283.911 380.152 283.564 380.059 283.175 380.113L280.402 380.496L280.805 383.409ZM281.38 387.569L284.293 387.166C284.681 387.112 284.99 386.928 285.22 386.614C285.449 386.299 285.536 385.934 285.478 385.518C285.42 385.102 285.238 384.774 284.932 384.534C284.625 384.293 284.278 384.2 283.89 384.254L280.977 384.657L281.38 387.569ZM288.52 383.967L287.714 378.142L289.17 377.941L289.976 383.765C290.084 384.551 290.399 385.158 290.92 385.585C291.449 386.002 292.064 386.161 292.767 386.064C293.47 385.967 294.014 385.647 294.401 385.103C294.795 384.549 294.938 383.879 294.829 383.094L294.024 377.269L295.48 377.068L296.286 382.892C296.453 384.103 296.227 385.128 295.609 385.968C294.998 386.797 294.115 387.291 292.959 387.451C291.803 387.611 290.814 387.376 289.992 386.745C289.178 386.104 288.687 385.178 288.52 383.967ZM300.101 384.908L302.042 384.64C302.957 384.513 303.671 384.089 304.184 383.368C304.705 382.636 304.894 381.758 304.752 380.731C304.61 379.705 304.19 378.915 303.491 378.362C302.801 377.798 301.998 377.579 301.083 377.706L299.141 377.974L300.101 384.908ZM298.836 386.497L297.493 376.789L300.891 376.319C302.213 376.136 303.381 376.441 304.395 377.233C305.409 378.026 306.014 379.125 306.208 380.53C306.403 381.935 306.119 383.157 305.358 384.195C304.598 385.233 303.556 385.844 302.234 386.026L298.836 386.497ZM309.811 383.565L311.752 383.296C312.668 383.17 313.382 382.746 313.894 382.025C314.415 381.293 314.604 380.414 314.462 379.388C314.32 378.362 313.9 377.572 313.202 377.018C312.511 376.454 311.708 376.236 310.793 376.362L308.851 376.631L309.811 383.565ZM308.547 385.153L307.203 375.446L310.601 374.975C311.923 374.793 313.091 375.097 314.105 375.89C315.12 376.682 315.724 377.781 315.918 379.186C316.113 380.592 315.83 381.813 315.069 382.851C314.308 383.89 313.266 384.5 311.944 384.683L308.547 385.153ZM320.413 383.511L319.933 380.044L315.533 374.293L317.142 374.07L320.317 378.224L320.595 378.186L322.453 373.336L324.062 373.113L321.389 379.843L321.869 383.31L320.413 383.511ZM328.186 382.436L330.38 372.239L332.599 371.932L337.478 381.15L335.883 381.371L334.734 379.198L330.297 379.812L329.781 382.215L328.186 382.436ZM330.6 378.427L334.067 377.947L331.858 373.73L331.581 373.769L330.6 378.427ZM338.517 381.006L337.174 371.299L339.323 371.002L344.321 378.013L344.599 377.974L343.553 370.416L345.009 370.215L346.352 379.922L344.203 380.22L339.205 373.209L338.927 373.247L339.973 380.805L338.517 381.006ZM349.695 378.047L351.636 377.778C352.551 377.651 353.265 377.227 353.778 376.506C354.299 375.775 354.488 374.896 354.346 373.87C354.204 372.843 353.784 372.054 353.085 371.5C352.395 370.936 351.592 370.717 350.677 370.844L348.735 371.113L349.695 378.047ZM348.43 379.635L347.087 369.927L350.485 369.457C351.807 369.274 352.975 369.579 353.989 370.372C355.003 371.164 355.608 372.263 355.802 373.668C355.997 375.074 355.713 376.295 354.952 377.333C354.192 378.371 353.15 378.982 351.828 379.165L348.43 379.635ZM360.364 377.984L362.557 367.787L364.776 367.48L369.656 376.698L368.061 376.919L366.912 374.746L362.475 375.36L361.959 377.763L360.364 377.984ZM362.778 373.975L366.245 373.495L364.036 369.278L363.758 369.317L362.778 373.975ZM369.797 373.64L371.253 373.439C371.318 373.91 371.592 374.287 372.074 374.569C372.565 374.849 373.157 374.942 373.85 374.846C374.608 374.741 375.15 374.534 375.475 374.225C375.798 373.907 375.929 373.526 375.868 373.083C375.769 372.371 375.151 371.985 374.012 371.926L372.092 371.838C371.314 371.805 370.701 371.593 370.251 371.203C369.811 370.811 369.543 370.274 369.448 369.59C369.336 368.776 369.557 368.058 370.111 367.434C370.665 366.802 371.468 366.413 372.522 366.267C373.687 366.106 374.629 366.277 375.349 366.78C376.077 367.273 376.503 367.973 376.629 368.879L375.173 369.08C375.107 368.609 374.848 368.23 374.394 367.944C373.94 367.658 373.38 367.562 372.714 367.654C372.085 367.741 371.611 367.952 371.29 368.289C370.977 368.615 370.848 368.981 370.905 369.388C370.999 370.072 371.545 370.444 372.543 370.504L374.107 370.57C375.111 370.61 375.87 370.816 376.383 371.188C376.904 371.55 377.218 372.114 377.324 372.881C377.439 373.713 377.215 374.442 376.651 375.066C376.086 375.681 375.216 376.07 374.042 376.233C372.868 376.395 371.898 376.228 371.132 375.731C370.366 375.234 369.921 374.537 369.797 373.64ZM379.362 375.355L378.019 365.648L379.475 365.446L380.089 369.884L383.192 364.932L385.022 364.679L381.663 370.02L386.643 374.348L384.812 374.601L380.185 370.577L380.818 375.154L379.362 375.355ZM390.806 373.772L389.463 364.064L390.919 363.863L391.485 367.954L396.408 367.273L395.842 363.182L397.298 362.98L398.641 372.688L397.185 372.889L396.6 368.66L391.677 369.341L392.262 373.57L390.806 373.772ZM400.719 372.4L399.376 362.693L400.832 362.491L402.175 372.199L400.719 372.4ZM404.254 371.911L402.911 362.204L405.407 361.858L409.028 369.131L409.305 369.092L410.816 361.11L413.312 360.765L414.655 370.472L413.199 370.674L412.172 363.254L411.895 363.293L410.425 371.057L408.484 371.326L404.961 364.252L404.684 364.29L405.71 371.71L404.254 371.911ZM176.099 419.63L178.292 409.434L180.511 409.127L185.39 418.345L183.796 418.566L182.647 416.393L178.209 417.006L177.694 419.41L176.099 419.63ZM178.512 415.622L181.979 415.142L179.77 410.925L179.493 410.964L178.512 415.622ZM186.429 418.201L185.086 408.494L187.236 408.196L192.234 415.207L192.511 415.169L191.466 407.611L192.922 407.41L194.265 417.117L192.115 417.415L187.117 410.403L186.84 410.442L187.886 418L186.429 418.201ZM198.77 416.494L198.29 413.027L193.89 407.276L195.499 407.053L198.674 411.207L198.952 411.169L200.81 406.318L202.419 406.096L199.746 412.825L200.226 416.292L198.77 416.494ZM214.922 414.683L213.986 413.95C213.355 414.424 212.637 414.717 211.832 414.828C210.529 415.008 209.364 414.694 208.338 413.884C207.312 413.074 206.698 411.939 206.496 410.478C206.294 409.017 206.576 407.758 207.344 406.7C208.112 405.642 209.147 405.023 210.451 404.843C211.754 404.663 212.919 404.977 213.945 405.787C214.971 406.597 215.585 407.732 215.787 409.193C215.995 410.69 215.692 411.976 214.879 413.049L216.655 414.443L214.922 414.683ZM212.828 413.036L210.64 411.318L212.374 411.078L213.768 412.171C214.298 411.439 214.486 410.513 214.331 409.394C214.18 408.303 213.759 407.471 213.067 406.898C212.375 406.325 211.567 406.102 210.643 406.23C209.718 406.358 209.001 406.791 208.491 407.531C207.981 408.271 207.801 409.186 207.952 410.277C208.103 411.368 208.524 412.2 209.216 412.773C209.908 413.346 210.716 413.569 211.64 413.441C212.056 413.384 212.452 413.249 212.828 413.036ZM217.513 409.943L216.707 404.119L218.163 403.917L218.969 409.742C219.078 410.528 219.393 411.134 219.914 411.561C220.442 411.978 221.058 412.138 221.761 412.041C222.463 411.944 223.008 411.623 223.394 411.08C223.789 410.526 223.932 409.856 223.823 409.07L223.017 403.246L224.473 403.044L225.279 408.869C225.447 410.08 225.221 411.105 224.602 411.944C223.991 412.773 223.108 413.268 221.953 413.428C220.797 413.588 219.808 413.352 218.986 412.722C218.172 412.08 217.681 411.154 217.513 409.943ZM227.83 412.473L226.487 402.766L232.866 401.883L233.058 403.27L228.135 403.951L228.519 406.725L233.164 406.082L233.356 407.469L228.71 408.111L229.094 410.885L234.017 410.204L234.209 411.591L227.83 412.473ZM235.112 408.427L236.568 408.225C236.633 408.697 236.907 409.074 237.389 409.356C237.88 409.636 238.472 409.729 239.165 409.633C239.924 409.528 240.465 409.321 240.79 409.012C241.113 408.694 241.244 408.313 241.183 407.87C241.084 407.158 240.466 406.772 239.327 406.713L237.407 406.625C236.629 406.592 236.016 406.38 235.566 405.99C235.126 405.598 234.858 405.061 234.764 404.376C234.651 403.563 234.872 402.845 235.426 402.221C235.98 401.589 236.783 401.2 237.837 401.054C239.002 400.893 239.944 401.064 240.664 401.567C241.392 402.06 241.819 402.76 241.944 403.666L240.488 403.867C240.423 403.396 240.163 403.017 239.709 402.731C239.255 402.445 238.695 402.349 238.029 402.441C237.4 402.528 236.926 402.739 236.605 403.076C236.292 403.402 236.163 403.768 236.22 404.175C236.314 404.859 236.86 405.231 237.858 405.291L239.422 405.357C240.426 405.397 241.185 405.603 241.698 405.975C242.219 406.337 242.533 406.901 242.639 407.668C242.754 408.5 242.53 409.229 241.966 409.853C241.401 410.468 240.531 410.857 239.357 411.02C238.183 411.182 237.213 411.015 236.447 410.518C235.681 410.021 235.236 409.324 235.112 408.427ZM246.695 409.863L245.543 401.542L242.492 401.964L242.301 400.578L249.859 399.532L250.05 400.919L247 401.341L248.151 409.662L246.695 409.863ZM252.519 409.057L251.176 399.35L252.632 399.148L253.975 408.856L252.519 409.057ZM263.409 406.264C262.641 407.322 261.606 407.941 260.302 408.122C258.999 408.302 257.834 407.987 256.808 407.178C255.782 406.368 255.168 405.233 254.966 403.772C254.764 402.311 255.046 401.052 255.814 399.994C256.582 398.936 257.617 398.317 258.921 398.137C260.224 397.956 261.389 398.271 262.415 399.081C263.441 399.891 264.055 401.026 264.257 402.487C264.459 403.947 264.177 405.207 263.409 406.264ZM261.537 400.192C260.845 399.618 260.037 399.396 259.113 399.524C258.188 399.652 257.471 400.085 256.961 400.825C256.45 401.564 256.271 402.48 256.422 403.571C256.573 404.662 256.994 405.494 257.686 406.067C258.378 406.64 259.186 406.863 260.11 406.735C261.035 406.607 261.752 406.173 262.262 405.434C262.772 404.694 262.952 403.779 262.801 402.688C262.65 401.597 262.229 400.765 261.537 400.192ZM266.59 407.11L265.247 397.403L267.396 397.106L272.394 404.117L272.671 404.078L271.626 396.52L273.082 396.319L274.425 406.026L272.275 406.324L267.277 399.313L267 399.351L268.046 406.909L266.59 407.11ZM275.605 402.824L277.061 402.623C277.126 403.094 277.4 403.471 277.882 403.753C278.373 404.034 278.965 404.126 279.659 404.03C280.417 403.925 280.958 403.719 281.283 403.41C281.606 403.092 281.737 402.711 281.676 402.267C281.578 401.555 280.959 401.17 279.82 401.111L277.9 401.023C277.123 400.989 276.509 400.777 276.059 400.387C275.619 399.996 275.351 399.458 275.257 398.774C275.144 397.96 275.365 397.242 275.92 396.619C276.473 395.986 277.276 395.597 278.33 395.451C279.495 395.29 280.438 395.461 281.157 395.965C281.885 396.458 282.312 397.157 282.437 398.063L280.981 398.265C280.916 397.793 280.656 397.415 280.202 397.129C279.748 396.843 279.188 396.746 278.522 396.838C277.894 396.925 277.419 397.137 277.098 397.473C276.785 397.799 276.657 398.166 276.713 398.573C276.807 399.257 277.354 399.629 278.351 399.688L279.915 399.755C280.919 399.795 281.678 400.001 282.191 400.373C282.712 400.734 283.026 401.298 283.132 402.066C283.247 402.898 283.023 403.626 282.459 404.251C281.894 404.866 281.025 405.255 279.851 405.417C278.676 405.58 277.706 405.412 276.94 404.915C276.174 404.418 275.729 403.721 275.605 402.824ZM290.441 403.81L289.962 400.343L285.562 394.592L287.171 394.37L290.346 398.524L290.623 398.485L292.482 393.635L294.091 393.412L291.418 400.142L291.897 403.609L290.441 403.81ZM303.496 400.718C302.728 401.776 301.693 402.395 300.389 402.575C299.085 402.756 297.921 402.441 296.895 401.631C295.869 400.822 295.255 399.687 295.053 398.226C294.85 396.765 295.133 395.506 295.901 394.448C296.668 393.39 297.704 392.771 299.008 392.591C300.311 392.41 301.476 392.725 302.502 393.535C303.528 394.344 304.142 395.479 304.344 396.94C304.546 398.401 304.263 399.66 303.496 400.718ZM301.624 394.645C300.932 394.072 300.124 393.849 299.199 393.977C298.275 394.105 297.558 394.539 297.047 395.279C296.537 396.018 296.358 396.933 296.509 398.024C296.66 399.115 297.081 399.947 297.773 400.521C298.465 401.094 299.273 401.317 300.197 401.189C301.122 401.061 301.839 400.627 302.349 399.887C302.859 399.148 303.039 398.233 302.888 397.142C302.737 396.051 302.316 395.219 301.624 394.645ZM306.07 397.691L305.264 391.866L306.72 391.665L307.526 397.489C307.635 398.275 307.95 398.882 308.47 399.309C308.999 399.726 309.615 399.886 310.318 399.788C311.02 399.691 311.565 399.371 311.951 398.827C312.346 398.274 312.489 397.604 312.38 396.818L311.574 390.993L313.03 390.792L313.836 396.616C314.004 397.827 313.778 398.853 313.159 399.692C312.548 400.521 311.665 401.015 310.509 401.175C309.354 401.335 308.365 401.1 307.543 400.469C306.728 399.828 306.238 398.902 306.07 397.691ZM319.651 399.769L318.307 390.062L320.804 389.716L324.425 396.989L324.702 396.95L326.212 388.968L328.708 388.623L330.052 398.33L328.595 398.532L327.569 391.112L327.292 391.151L325.822 398.915L323.88 399.184L320.358 392.11L320.08 392.148L321.107 399.568L319.651 399.769ZM331.097 398.185L333.29 387.989L335.509 387.682L340.389 396.9L338.794 397.121L337.645 394.947L333.207 395.561L332.692 397.965L331.097 398.185ZM333.51 394.177L336.977 393.697L334.769 389.48L334.491 389.518L333.51 394.177ZM343.028 396.535L342.549 393.068L338.149 387.316L339.758 387.094L342.933 391.248L343.21 391.209L345.069 386.359L346.678 386.136L344.005 392.866L344.484 396.333L343.028 396.535ZM351.842 395.315L350.499 385.608L351.955 385.406L352.521 389.497L357.444 388.816L356.878 384.725L358.334 384.524L359.677 394.231L358.221 394.433L357.636 390.203L352.713 390.884L353.298 395.114L351.842 395.315ZM360.715 394.088L362.908 383.891L365.127 383.584L370.007 392.802L368.412 393.023L367.263 390.85L362.826 391.464L362.31 393.867L360.715 394.088ZM363.129 390.079L366.596 389.599L364.387 385.382L364.109 385.421L363.129 390.079ZM372.917 392.399L368.177 383.162L369.771 382.941L373.658 390.601L373.935 390.562L375.596 382.135L377.191 381.915L375.136 392.092L372.917 392.399ZM379.645 391.468L378.302 381.761L384.682 380.878L384.873 382.265L379.95 382.946L380.334 385.72L384.98 385.077L385.172 386.464L380.526 387.107L380.91 389.88L385.833 389.199L386.025 390.586L379.645 391.468Z" fill="#8B8B8B"/>
<rect x="60.5872" y="472.37" width="460.602" height="153.836" rx="8" transform="rotate(-7.87725 60.5872 472.37)" fill="#03C3A3" fill-opacity="0.75"/>
<circle cx="288.091" cy="480.646" r="25.4318" transform="rotate(-7.87725 288.091 480.646)" fill="#FFA7D1"/>
<path d="M291.192 477.56C291.393 476.789 291.744 476.065 292.225 475.43C292.706 474.795 293.307 474.26 293.995 473.858C294.682 473.455 295.442 473.191 296.231 473.082C297.02 472.973 297.823 473.02 298.594 473.221C299.364 473.422 300.088 473.773 300.723 474.254C301.359 474.735 301.893 475.336 302.296 476.023" stroke="#ADE6ED" stroke-width="2.33319"/>
<path d="M269.935 480.501C270.136 479.73 270.487 479.006 270.967 478.371C271.448 477.736 272.049 477.202 272.737 476.799C273.424 476.396 274.184 476.133 274.973 476.023C275.762 475.914 276.565 475.962 277.336 476.163C278.107 476.364 278.83 476.715 279.466 477.196C280.101 477.676 280.635 478.277 281.038 478.965" stroke="#ADE6ED" stroke-width="2.33319"/>
<path d="M286.335 473.05L284.291 480.913C283.874 482.522 285.223 484.039 286.869 483.811L293.583 482.882" stroke="#ADE6ED" stroke-width="2.33319"/>
<path d="M278.213 489.954C277.823 490.008 277.425 489.97 277.054 489.842C276.682 489.715 276.346 489.502 276.075 489.222C275.804 488.941 275.604 488.601 275.493 488.229C275.381 487.857 275.362 487.463 275.435 487.082C275.508 486.7 275.672 486.34 275.914 486.032C276.155 485.724 276.468 485.477 276.825 485.311C277.182 485.145 277.573 485.065 277.967 485.078C278.361 485.09 278.745 485.195 279.089 485.383" stroke="#ADE6ED" stroke-width="2.33319"/>
<path d="M278.212 489.954C277.822 490.008 277.45 490.153 277.126 490.376C276.803 490.6 276.538 490.896 276.353 491.239C276.168 491.583 276.068 491.965 276.062 492.353C276.056 492.742 276.144 493.125 276.318 493.473C276.492 493.821 276.748 494.122 277.064 494.353C277.38 494.584 277.748 494.737 278.136 494.799C278.525 494.862 278.923 494.833 279.299 494.714C279.675 494.595 280.017 494.39 280.297 494.116" stroke="#ADE6ED" stroke-width="2.33319"/>
<path d="M292.264 511.003L316.479 518.795L325.485 542.585L312.5 564.459L287.303 567.945L268.867 550.418L271.075 525.077L292.264 511.003Z" fill="#ADE6ED"/>
<path d="M240.555 650.587C237.998 632.104 242.887 613.363 254.148 598.485C265.409 583.608 282.119 573.813 300.602 571.256C319.084 568.699 337.826 573.589 352.703 584.85C367.581 596.111 377.376 612.821 379.933 631.303L310.244 640.945L240.555 650.587Z" fill="#FFA7D1"/>
<mask id="mask0_479_1724" style="mask-type:alpha" maskUnits="userSpaceOnUse" x="239" y="570" width="141" height="81">
<path d="M240.555 650.587C237.998 632.104 242.887 613.363 254.148 598.485C265.409 583.608 282.119 573.813 300.602 571.256C319.084 568.699 337.826 573.589 352.703 584.85C367.581 596.111 377.376 612.821 379.933 631.303L310.244 640.945L240.555 650.587Z" fill="#F5B539"/>
</mask>
<g mask="url(#mask0_479_1724)">
<path d="M270.83 558.103L281.477 564.349L272.926 573.252L262.279 567.005L270.83 558.103Z" fill="#FF4B11"/>
<path d="M243.645 613.708L254.291 619.954L245.74 628.857L235.094 622.61L243.645 613.708Z" fill="#FF4B11"/>
<path d="M274.682 608.453L285.328 614.699L276.778 623.602L266.131 617.355L274.682 608.453Z" fill="#FF4B11"/>
<path d="M305.46 604.722L316.107 610.968L307.556 619.87L296.909 613.624L305.46 604.722Z" fill="#FF4B11"/>
<path d="M335.68 601.236L346.326 607.483L337.776 616.385L327.129 610.139L335.68 601.236Z" fill="#FF4B11"/>
<path d="M365.797 597.069L376.444 603.315L367.893 612.217L357.247 605.971L365.797 597.069Z" fill="#FF4B11"/>
<path d="M272.365 584.88L283.011 591.127L274.461 600.029L263.814 593.783L272.365 584.88Z" fill="#FF4B11"/>
<path d="M302.082 580.769L312.729 587.015L304.178 595.917L293.531 589.671L302.082 580.769Z" fill="#FF4B11"/>
<path d="M331.797 576.524L342.444 582.77L333.893 591.672L323.246 585.426L331.797 576.524Z" fill="#FF4B11"/>
<path d="M377.985 560.231L388.632 566.477L380.081 575.379L369.435 569.133L377.985 560.231Z" fill="#FF4B11"/>
<path d="M261.908 626.34L272.554 632.586L264.004 641.488L253.357 635.242L261.908 626.34Z" fill="#FF4B11"/>
<path d="M291.355 622.26L302.001 628.506L293.451 637.408L282.804 631.162L291.355 622.26Z" fill="#FF4B11"/>
<path d="M321.299 618.595L331.946 624.841L323.395 633.744L312.748 627.498L321.299 618.595Z" fill="#FF4B11"/>
<path d="M350.961 614.491L361.608 620.737L353.057 629.639L342.411 623.393L350.961 614.491Z" fill="#FF4B11"/>
<path d="M380.702 610.519L391.348 616.765L382.798 625.668L372.151 619.421L380.702 610.519Z" fill="#FF4B11"/>
<path d="M257.876 598.356L268.523 604.603L259.972 613.505L249.325 607.259L257.876 598.356Z" fill="#FF4B11"/>
<path d="M287.355 595.115L298.001 601.361L289.451 610.263L278.804 604.017L287.355 595.115Z" fill="#FF4B11"/>
<path d="M319.749 590.633L330.395 596.879L321.844 605.781L311.198 599.535L319.749 590.633Z" fill="#FF4B11"/>
<path d="M349.004 587.182L359.651 593.428L351.1 602.33L340.454 596.084L349.004 587.182Z" fill="#FF4B11"/>
<path d="M239.605 574.596L250.252 580.842L241.701 589.745L231.054 583.498L239.605 574.596Z" fill="#FF4B11"/>
<path d="M285.73 572.038L296.377 578.284L287.826 587.187L277.18 580.94L285.73 572.038Z" fill="#FF4B11"/>
<path d="M315.395 567.934L326.041 574.18L317.49 583.082L306.844 576.836L315.395 567.934Z" fill="#FF4B11"/>
<path d="M346.439 555.513L357.086 561.759L348.535 570.661L337.889 564.415L346.439 555.513Z" fill="#FF4B11"/>
</g>
<path d="M204.642 431.191C203.832 433.374 203.317 435.119 203.905 437.067C204.578 438.57 202.308 439.49 201.81 438.2C201.284 434.493 201.174 430.7 199.681 427.194C199.327 426.249 198.194 425.571 197.947 426.85C196.377 430.26 200.06 436.915 198.186 438.688C195.946 437.817 196.37 429.454 194.056 427.156C191.688 427.434 194.901 439.954 192.881 439.682C191.557 439.569 191.848 437.618 191.628 436.654C191.364 434.583 190.834 429.827 189.105 428.831C193.478 474.145 223.805 512.635 263.486 533.377C264.91 534.671 271.444 535.874 270.966 537.691C270.662 538.395 269.86 538.332 269.266 538.054C225.409 518.465 191.752 476.459 187.012 428.03C189.149 425.719 189.268 425.725 191.149 428.183C192.191 425.435 193.049 423.861 195.976 426.142C199.373 420.747 201.464 426.706 202.685 429.962C208.021 423.691 208.847 443.529 209.154 446.342C214.095 479.059 240.154 509.005 270.404 521.511C271.854 522.469 275.707 522.146 275.702 524.185C275.131 525.427 272.926 524.35 271.871 524.04C240.607 512.312 216.615 483.699 207.769 451.814C206.67 444.961 207.908 437.598 204.64 431.178L204.642 431.191Z" fill="black"/>
<path d="M328.845 574.166C330.958 577.217 333.453 579.831 336.349 582.249C336.865 580.572 334.58 580.432 335.079 578.895C335.673 577.85 336.911 579.029 337.624 579.373C340.656 581.252 343.973 582.366 347.366 583.133C348.592 581.919 341.205 576.56 339.859 575.953C337.938 574.988 340.467 573.137 340.684 571.803C345.579 555.789 353.341 540.404 355.045 523.591C356.172 510.461 345.389 504.113 333.661 508.955C325.183 511.82 317.218 515.992 309.777 520.884C306.299 519.992 313.306 516.642 314.28 515.869C329.242 507.091 355.731 495.641 356.919 522.575C355.619 540.363 347.003 556.395 342.134 573.326C344.25 574.58 356.152 579.924 351.79 582.726C351.1 582.944 350.634 583.132 350.44 583.907C347.449 586.473 343.092 583.446 339.856 582.657C339.259 582.986 339.643 583.389 339.665 583.747C339.918 586.366 337.214 585.203 335.996 584.241C333.381 581.843 325.54 576.302 327.67 572.391C333.563 561.118 338.187 549.246 343.16 537.549C344.886 532.791 347.302 527.823 346.801 522.648C344.622 514.745 333.942 517.969 328.885 521.113C324.895 523.243 321.369 526.093 317.573 528.502C316.359 528.757 316.324 527.088 317.305 526.669C324.902 521.386 334.25 513.307 344.076 516.822C347.267 518.21 348.916 520.709 348.747 524.193C345.327 541.814 336.284 557.891 328.846 574.171L328.845 574.166ZM349.889 580.549C347.969 578.534 347.311 578.096 345.108 577.457C346.791 578.684 347.509 580.381 349.889 580.549Z" fill="black"/>
<path d="M259.961 494.052C259.949 491.459 260.61 489.087 261.806 486.864C261.603 489.378 261.068 491.81 259.961 494.052Z" fill="white"/>
<circle cx="288.207" cy="480.759" r="25.4993" transform="rotate(-7.87725 288.207 480.759)" fill="white"/>
<path d="M285.174 455.909C291.855 454.984 298.63 456.752 304.008 460.823C309.386 464.893 312.927 470.934 313.851 477.615C314.776 484.296 313.008 491.071 308.937 496.449C304.867 501.827 298.826 505.368 292.145 506.292L288.659 481.101L285.174 455.909Z" fill="black"/>
<circle cx="282.797" cy="440.797" r="12.4583" transform="rotate(-7.87725 282.797 440.797)" fill="#FF4B11"/>
<circle cx="280.153" cy="421.681" r="12.4583" transform="rotate(-7.87725 280.153 421.681)" fill="#FF4B11"/>
<path d="M291.731 506.379C290.517 507.226 289.197 507.569 287.812 507.309C277.304 505.388 266.705 499.184 263.788 488.25C263.069 489.932 260.219 504.619 257.824 498.182C256.946 490.715 261.203 484.193 263.391 477.474C256.911 477.65 250.412 479.237 243.918 479.903C242.793 479.945 241.194 480.672 240.558 479.369C239.969 477.75 242.371 476.729 243.245 475.632C256.622 464.487 269.72 453.011 283.258 442.076C293.692 447.122 304.081 452.17 314.508 457.226C319.673 459.736 324.835 462.255 329.992 464.775C332.266 465.427 332.028 468.023 329.523 467.941C323.45 468.95 317.381 469.954 311.308 470.963C309.891 471.2 309.692 471.141 309.046 469.766C308.358 468.023 306.641 467.176 305.491 465.784C302.075 462.512 298.327 458.416 293.355 457.964C290.389 457.311 287.528 455.874 284.501 457.25C270.998 459.94 262.794 473.981 265.641 487.245C267.841 499.587 281.066 504.211 291.739 506.373L291.731 506.379ZM259.96 494.051C261.067 491.805 261.597 489.378 261.805 486.864C260.609 489.091 259.948 491.458 259.96 494.051Z" fill="black"/>
<path d="M307.875 472.578C307.112 480.869 295.133 482.937 289.615 478.242C284.018 470.967 303.106 464.299 307.875 472.578ZM303.363 471.364C303.624 478.287 296.408 481.082 293.647 474.277C293.477 473.708 293.712 472.932 292.794 472.521C286.215 477.353 295.195 479.663 299.549 478.486C302.988 478.334 309.247 473.04 303.363 471.359L303.363 471.364ZM295.647 471.305C293.797 474.174 297.939 477.883 300.297 475.592C303.389 470.758 299.947 469.21 295.647 471.305Z" fill="black"/>
<path d="M296.731 483.35C297.687 493.917 288.191 499.841 280.016 492.736C278.49 491.264 276.126 487.127 279.426 486.397C285.356 485.604 290.724 484.081 296.731 483.35ZM294.875 485.682C289.706 485.85 284.779 487.462 279.714 488.414C280.541 492.741 285.447 494.466 289.318 493.784C293.144 493.205 294.517 489.129 294.875 485.682Z" fill="black"/>
<path d="M312.16 475.35C315.574 478.809 319.245 482.675 320.834 487.339C320.961 491.654 316.002 488.199 314.803 486.381C312.888 484.106 311.523 481.49 310.376 478.762C309.356 476.792 310.148 475.994 312.16 475.35ZM312.499 478.66C313.824 481.614 315.584 486.127 318.767 487.196C318.06 484.722 315.4 481.009 312.499 478.66Z" fill="black"/>
<path d="M274.633 468.827C279.831 468.176 282.087 475.462 278.912 473.53C278.218 471.938 276.686 470.253 274.8 470.692C273.038 471.004 272.317 472.709 271.96 474.314C268.972 476.209 270.566 469.376 274.638 468.826L274.633 468.827Z" fill="black"/>
<path d="M275.503 478.835C274.035 478.764 271.392 480.188 270.573 478.546C270.545 478.08 270.988 477.626 271.447 477.581C274.233 477.556 277.228 476.64 279.922 477.198C281.27 479.264 276.618 478.717 275.522 478.933C275.517 478.901 275.513 478.87 275.508 478.834L275.503 478.835Z" fill="black"/>
<path d="M303.369 471.368C309.249 473.049 302.994 478.343 299.555 478.495C295.206 479.671 286.217 477.362 292.8 472.529C293.718 472.94 293.484 473.716 293.654 474.285C296.418 481.09 303.629 478.287 303.365 471.373L303.369 471.368Z" fill="white"/>
<path d="M295.653 471.309C299.962 469.213 303.391 470.768 300.303 475.596C297.944 477.888 293.803 474.178 295.653 471.309Z" fill="white"/>
<path d="M294.874 485.678C294.521 489.124 293.143 493.2 289.317 493.78C285.446 494.461 280.54 492.737 279.713 488.409C284.778 487.462 289.706 485.85 294.874 485.678Z" fill="white"/>
<path d="M312.5 478.656C315.404 481.004 318.06 484.718 318.767 487.192C315.584 486.123 313.825 481.615 312.5 478.656Z" fill="white"/>
<circle cx="140.61" cy="347.563" r="14.9311" transform="rotate(-7.87725 140.61 347.563)" fill="#03C3A3" fill-opacity="0.75"/>
<path d="M137.364 350.63L138.82 350.429C138.875 350.826 139.1 351.158 139.495 351.424C139.898 351.679 140.367 351.769 140.903 351.695C141.476 351.616 141.901 351.416 142.177 351.095C142.453 350.774 142.559 350.383 142.495 349.92C142.435 349.486 142.214 349.149 141.832 348.91C141.459 348.66 140.985 348.575 140.412 348.654L139.788 348.74L139.606 347.423L140.23 347.336C140.766 347.262 141.168 347.07 141.436 346.76C141.712 346.439 141.82 346.066 141.762 345.64C141.707 345.243 141.509 344.936 141.168 344.719C140.835 344.492 140.414 344.414 139.906 344.484C139.388 344.555 138.986 344.748 138.699 345.061C138.421 345.363 138.309 345.713 138.364 346.11L136.908 346.312C136.8 345.535 137.001 344.839 137.509 344.222C138.027 343.604 138.761 343.229 139.714 343.097C140.638 342.969 141.424 343.134 142.072 343.591C142.728 344.046 143.11 344.662 143.218 345.439C143.305 346.068 143.148 346.636 142.747 347.144C142.57 347.366 142.361 347.555 142.119 347.711L142.128 347.78C142.433 347.87 142.709 347.997 142.958 348.16C143.532 348.561 143.866 349.104 143.961 349.788C144.073 350.602 143.862 351.323 143.328 351.953C142.801 352.573 142.057 352.949 141.095 353.082C140.106 353.219 139.263 353.053 138.567 352.584C137.879 352.104 137.478 351.453 137.364 350.63Z" fill="white"/>
</g>
<rect x="0.563808" y="64.6064" width="467.294" height="569.55" rx="7.5" transform="rotate(-7.87725 0.563808 64.6064)" stroke="#EEEEEE"/>
<defs>
<clipPath id="clip0_479_1724">
<rect y="64.1797" width="468.294" height="570.55" rx="8" transform="rotate(-7.87725 0 64.1797)" fill="white"/>
</clipPath>
</defs>
</svg>
