<svg width="480" height="678" viewBox="0 0 480 678" fill="none" xmlns="http://www.w3.org/2000/svg">
<mask id="path-1-inside-1_479_1525" fill="white">
<path d="M98.3672 58.7774C97.9492 56.8225 99.1951 54.8989 101.15 54.4809L152.792 43.4386C154.747 43.0206 156.671 44.2665 157.089 46.2214L160.943 64.2435L102.221 76.7996L98.3672 58.7774Z"/>
</mask>
<path d="M98.3672 58.7774C97.9492 56.8225 99.1951 54.8989 101.15 54.4809L152.792 43.4386C154.747 43.0206 156.671 44.2665 157.089 46.2214L160.943 64.2435L102.221 76.7996L98.3672 58.7774Z" fill="white"/>
<path d="M97.3893 58.9865C96.8558 56.4916 98.4459 54.0365 100.941 53.503L152.583 42.4607C155.078 41.9272 157.533 43.5173 158.067 46.0123L156.111 46.4305C155.809 45.0157 154.416 44.114 153.002 44.4165L101.359 55.4588C99.9443 55.7613 99.0426 57.1535 99.3451 58.5683L97.3893 58.9865ZM160.943 64.2435L102.221 76.7996L160.943 64.2435ZM101.243 77.0087L97.3893 58.9865C96.8558 56.4916 98.4459 54.0365 100.941 53.503L101.359 55.4588C99.9443 55.7613 99.0426 57.1535 99.3451 58.5683L103.199 76.5905L101.243 77.0087ZM152.583 42.4607C155.078 41.9272 157.533 43.5173 158.067 46.0123L161.92 64.0344L159.965 64.4526L156.111 46.4305C155.809 45.0157 154.416 44.114 153.002 44.4165L152.583 42.4607Z" fill="#EEEEEE" mask="url(#path-1-inside-1_479_1525)"/>
<path d="M106.595 64.2831L108.771 63.8177C109.076 63.7526 109.311 63.5727 109.478 63.278C109.644 62.9833 109.686 62.6412 109.603 62.2519C109.519 61.8625 109.341 61.5674 109.069 61.3666C108.797 61.1657 108.508 61.0978 108.204 61.1629L106.027 61.6284L106.595 64.2831ZM106.274 68.2382L104.685 60.8049L108.03 60.0897C108.653 59.9565 109.217 60.069 109.723 60.4272C110.235 60.7768 110.566 61.3055 110.718 62.0135C110.869 62.7214 110.783 63.343 110.461 63.8783C110.144 64.405 109.675 64.735 109.052 64.8682L106.822 65.345L107.389 67.9998L106.274 68.2382ZM113.067 66.7858L111.477 59.3525L114.822 58.6373C115.445 58.5041 116.01 58.6166 116.516 58.9748C117.027 59.3244 117.359 59.8532 117.51 60.5611C117.661 61.269 117.576 61.8906 117.254 62.426C116.937 62.9527 116.467 63.2826 115.844 63.4158L115.579 63.4726L118.801 65.5597L117.367 65.8662L114.145 63.7791L113.614 63.8927L114.182 66.5474L113.067 66.7858ZM113.387 62.8308L115.564 62.3653C115.868 62.3002 116.104 62.1203 116.27 61.8256C116.437 61.5309 116.478 61.1889 116.395 60.7995C116.312 60.4101 116.134 60.115 115.861 59.9142C115.589 59.7133 115.301 59.6455 114.996 59.7105L112.819 60.176L113.387 62.8308ZM125.533 63.1098C124.999 63.9716 124.233 64.5093 123.235 64.7227C122.236 64.9361 121.318 64.7588 120.478 64.1906C119.638 63.6224 119.099 62.7791 118.86 61.6605C118.621 60.542 118.768 59.5518 119.302 58.69C119.836 57.8281 120.602 57.2905 121.6 57.0771C122.598 56.8636 123.517 57.041 124.356 57.6092C125.196 58.1774 125.735 59.0207 125.975 60.1392C126.214 61.2578 126.066 62.248 125.533 63.1098ZM123.74 58.5183C123.173 58.114 122.535 57.9876 121.827 58.139C121.119 58.2903 120.589 58.6665 120.236 59.2675C119.883 59.8686 119.796 60.5868 119.975 61.4221C120.153 62.2575 120.527 62.8773 121.094 63.2815C121.662 63.6857 122.3 63.8122 123.008 63.6608C123.715 63.5094 124.246 63.1332 124.598 62.5322C124.951 61.9312 125.038 61.213 124.86 60.3776C124.681 59.5423 124.308 58.9225 123.74 58.5183ZM132.912 59.8774L134.08 59.6276C134.076 59.9543 134.02 60.2844 133.914 60.6181C133.815 60.9502 133.659 61.2795 133.448 61.6061C133.236 61.9326 132.946 62.2204 132.578 62.4695C132.209 62.7186 131.784 62.8947 131.303 62.9976C130.304 63.211 129.385 63.0337 128.546 62.4655C127.706 61.8973 127.167 61.0539 126.928 59.9354C126.689 58.8169 126.836 57.8267 127.37 56.9649C127.904 56.103 128.67 55.5654 129.668 55.3519C130.546 55.1642 131.333 55.2624 132.029 55.6465C132.731 56.022 133.245 56.5526 133.569 57.2384L132.401 57.4881C132.111 57.0319 131.743 56.7145 131.298 56.5358C130.851 56.3501 130.383 56.3094 129.895 56.4138C129.187 56.5652 128.657 56.9414 128.304 57.5424C127.951 58.1435 127.864 58.8616 128.043 59.697C128.221 60.5324 128.595 61.1522 129.162 61.5564C129.73 61.9606 130.368 62.0871 131.075 61.9357C131.642 61.8146 132.077 61.5625 132.38 61.1794C132.688 60.7877 132.866 60.3537 132.912 59.8774ZM135.798 61.9253L134.208 54.4921L139.093 53.4476L139.32 54.5095L135.551 55.3156L136.005 57.4394L139.562 56.6787L139.789 57.7406L136.232 58.5013L136.686 60.625L140.456 59.819L140.683 60.8809L135.798 61.9253ZM141.202 58.3825L142.317 58.144C142.394 58.5051 142.627 58.781 143.015 58.9718C143.411 59.1611 143.875 59.1989 144.406 59.0854C144.986 58.9613 145.393 58.7706 145.627 58.5133C145.859 58.249 145.939 57.9469 145.866 57.6071C145.75 57.062 145.249 56.7989 144.365 56.8177L142.875 56.8588C142.271 56.8767 141.785 56.7476 141.415 56.4713C141.052 56.1936 140.814 55.7928 140.702 55.2689C140.569 54.6459 140.699 54.0777 141.093 53.5641C141.485 53.0435 142.085 52.6969 142.892 52.5244C143.784 52.3336 144.522 52.4126 145.108 52.7612C145.699 53.1013 146.068 53.6182 146.217 54.3119L145.102 54.5503C145.024 54.1893 144.802 53.9111 144.435 53.7158C144.067 53.5205 143.628 53.4773 143.119 53.5863C142.637 53.6892 142.282 53.8799 142.053 54.1584C141.829 54.4283 141.751 54.719 141.817 55.0305C141.929 55.5544 142.373 55.8112 143.148 55.8009L144.362 55.7635C145.141 55.7375 145.739 55.8539 146.157 56.1124C146.581 56.3624 146.856 56.7811 146.981 57.3687C147.117 58.0059 146.985 58.582 146.585 59.097C146.182 59.605 145.532 59.9551 144.633 60.1473C143.734 60.3396 142.974 60.2651 142.353 59.9241C141.732 59.583 141.348 59.0692 141.202 58.3825ZM147.838 56.9633L148.953 56.7249C149.031 57.086 149.264 57.3619 149.652 57.5527C150.048 57.742 150.511 57.7798 151.042 57.6663C151.623 57.5422 152.03 57.3515 152.264 57.0942C152.496 56.8299 152.576 56.5278 152.503 56.188C152.386 55.6429 151.886 55.3798 151.002 55.3986L149.511 55.4397C148.908 55.4576 148.422 55.3284 148.052 55.0522C147.689 54.7745 147.451 54.3737 147.339 53.8498C147.206 53.2268 147.336 52.6586 147.73 52.145C148.122 51.6244 148.721 51.2778 149.528 51.1053C150.42 50.9145 151.159 50.9935 151.744 51.3421C152.335 51.6821 152.705 52.1991 152.853 52.8928L151.738 53.1312C151.661 52.7702 151.439 52.492 151.071 52.2967C150.704 52.1013 150.265 52.0582 149.756 52.1672C149.274 52.2701 148.919 52.4608 148.69 52.7393C148.466 53.0092 148.388 53.2999 148.454 53.6114C148.566 54.1352 149.01 54.392 149.785 54.3818L150.998 54.3444C151.778 54.3184 152.376 54.4347 152.794 54.6933C153.218 54.9433 153.492 55.362 153.618 55.9496C153.754 56.5868 153.622 57.1628 153.221 57.6779C152.819 58.1859 152.169 58.536 151.269 58.7282C150.37 58.9204 149.611 58.846 148.99 58.505C148.369 58.1639 147.985 57.65 147.838 56.9633Z" fill="black"/>
<g clip-path="url(#clip0_479_1525)">
<rect x="-97.3896" y="119.481" width="468.294" height="570.55" rx="8" transform="rotate(-12.0694 -97.3896 119.481)" fill="white"/>
<path d="M82.2426 136.564L83.6428 143.112L74.3441 145.101L78.3907 164.025L71.1875 165.565L61.3861 119.727L80.4419 115.652L81.8421 122.201L69.9895 124.735L72.9439 138.552L82.2426 136.564ZM91.0993 113.374L100.901 159.212L93.6974 160.752L83.8961 114.914L91.0993 113.374ZM103.569 110.707L111.97 149.997L123.823 147.463L125.223 154.011L106.167 158.086L96.3661 112.247L103.569 110.707ZM125.76 105.962L134.161 145.253L146.013 142.718L147.413 149.267L128.358 153.341L118.556 107.503L125.76 105.962ZM152.677 111.711C151.893 108.044 152.225 105.006 153.673 102.596C155.121 100.187 157.613 98.6037 161.149 97.8476C164.685 97.0915 167.606 97.5168 169.913 99.1236C172.219 100.73 173.765 103.367 174.549 107.034L179.646 130.87C180.43 134.537 180.098 137.576 178.65 139.985C177.202 142.395 174.71 143.978 171.174 144.734C167.638 145.49 164.717 145.065 162.41 143.458C160.104 141.851 158.558 139.214 157.774 135.547L152.677 111.711ZM165.075 134.465C165.719 137.477 167.286 138.718 169.774 138.185C172.262 137.653 173.185 135.881 172.54 132.869L167.248 108.116C166.604 105.104 165.037 103.864 162.549 104.396C160.061 104.928 159.139 106.7 159.783 109.712L165.075 134.465ZM191.314 128.923C191.949 131.892 193.511 133.11 195.999 132.578C198.488 132.046 199.414 130.296 198.78 127.327L191.219 91.9658L198.029 90.5096L205.492 125.412C206.285 129.123 205.98 132.179 204.576 134.579C203.162 136.935 200.709 138.487 197.217 139.234C193.724 139.981 190.851 139.568 188.598 137.995C186.335 136.379 184.807 133.716 184.013 130.005L176.55 95.1022L183.753 93.562L191.314 128.923ZM223.138 85.1408L224.538 91.6891L217.007 93.2994L225.408 132.589L218.205 134.13L209.804 94.8396L202.273 96.4498L200.873 89.9014L223.138 85.1408ZM80.1209 184.236L81.5211 190.784L73.9905 192.394L82.3916 231.684L75.1884 233.224L66.7873 193.934L59.2567 195.545L57.8565 188.996L80.1209 184.236ZM93.0946 229.396L83.2933 183.557L90.4965 182.017L94.697 201.662L102.882 199.912L98.6819 180.267L106.016 178.699L115.817 224.537L108.483 226.105L104.283 206.46L96.0972 208.21L100.298 227.856L93.0946 229.396ZM132.461 193.245L133.861 199.793L123.973 201.908L126.843 215.332L139.285 212.671L140.685 219.22L121.04 223.42L111.239 177.582L130.884 173.381L132.284 179.93L119.842 182.59L122.573 195.359L132.461 193.245ZM166.372 187.09L167.772 193.638L158.473 195.626L162.52 214.551L155.317 216.091L145.515 170.253L164.571 166.178L165.971 172.727L154.119 175.261L157.073 189.078L166.372 187.09ZM169.788 176.567C169.004 172.9 169.336 169.861 170.784 167.452C172.232 165.042 174.724 163.459 178.26 162.703C181.796 161.947 184.717 162.373 187.024 163.979C189.33 165.586 190.876 168.223 191.66 171.89L196.757 195.726C197.541 199.393 197.209 202.432 195.761 204.841C194.313 207.251 191.821 208.834 188.285 209.59C184.749 210.346 181.828 209.92 179.521 208.314C177.215 206.707 175.669 204.07 174.885 200.403L169.788 176.567ZM182.186 199.321C182.83 202.333 184.397 203.573 186.885 203.041C189.373 202.509 190.296 200.737 189.651 197.725L184.359 172.972C183.715 169.96 182.148 168.72 179.66 169.252C177.172 169.784 176.249 171.556 176.894 174.568L182.186 199.321ZM218.851 202.506C218.431 201.82 218.107 201.159 217.879 200.523C217.652 199.886 217.356 198.717 216.992 197.015L215.452 189.811C215.004 187.716 214.315 186.311 213.387 185.596C212.448 184.838 211.15 184.637 209.491 184.991L207.003 185.523L210.993 204.186L203.79 205.727L193.989 159.888L204.859 157.564C208.57 156.77 211.463 157.065 213.539 158.447C215.606 159.785 217.022 162.244 217.787 165.824L218.557 169.426C219.565 174.141 218.656 177.576 215.831 179.733C217.683 180.067 219.157 180.984 220.254 182.485C221.341 183.941 222.156 185.936 222.697 188.468L224.209 195.54C224.489 196.849 224.762 197.91 225.026 198.72C225.282 199.488 225.668 200.227 226.185 200.938L218.851 202.506ZM205.602 178.975L208.418 178.373C209.859 178.065 210.849 177.465 211.389 176.574C211.972 175.673 212.077 174.349 211.704 172.603L210.738 168.085C210.383 166.426 209.821 165.291 209.051 164.679C208.325 164.058 207.329 163.883 206.063 164.154L202.592 164.896L205.602 178.975ZM240.504 149.942L250.523 147.8L260.325 193.638L253.515 195.094L246.486 162.222L248.538 196.158L241.727 197.615L229.427 166.348L236.358 198.763L230.071 200.107L220.27 154.268L230.289 152.126L242.552 183.537L240.504 149.942Z" fill="black"/>
<path d="M169.593 393.45C169.944 395.11 170.52 396.22 171.323 396.781C172.16 397.288 173.146 397.422 174.282 397.183C175.418 396.943 176.244 396.427 176.761 395.633C177.312 394.787 177.413 393.534 177.063 391.874L171.838 367.107C171.487 365.447 170.894 364.363 170.057 363.855C169.254 363.295 168.285 363.134 167.149 363.374C166.013 363.613 165.17 364.156 164.618 365.003C164.101 365.796 164.018 367.023 164.368 368.683L169.593 393.45ZM157.258 370.662C156.474 366.949 156.814 363.912 158.278 361.55C159.732 359.144 162.229 357.568 165.767 356.822C169.305 356.075 172.225 356.508 174.527 358.121C176.82 359.691 178.358 362.332 179.142 366.045L184.174 389.895C184.957 393.607 184.621 396.667 183.167 399.072C181.703 401.434 179.203 402.988 175.664 403.735C172.126 404.481 169.211 404.07 166.918 402.501C164.615 400.887 163.073 398.225 162.289 394.512L157.258 370.662ZM187.175 358.875C188.573 358.58 189.676 358.188 190.485 357.697C191.338 357.198 191.993 356.627 192.451 355.983C192.908 355.339 193.237 354.63 193.439 353.858C193.641 353.085 193.791 352.278 193.887 351.436L198.735 350.413L208.412 396.278L201.204 397.799L193.823 362.811L188.253 363.986L187.175 358.875ZM222.638 386.023L224.103 392.968L217.158 394.433L215.693 387.488L222.638 386.023Z" fill="black"/>
<path d="M80.9595 450.758L78.9103 441.175L85.0711 439.858L85.3638 441.227L80.6406 442.237L81.226 444.975L85.6755 444.023L85.9682 445.392L81.5188 446.344L82.397 450.451L80.9595 450.758ZM88.7674 449.089L86.7182 439.505L88.1557 439.198L90.2049 448.781L88.7674 449.089ZM92.2568 448.343L90.2077 438.759L91.6452 438.452L93.4016 446.666L98.0564 445.671L98.3491 447.04L92.2568 448.343ZM99.6503 446.762L97.6011 437.178L99.0386 436.871L100.795 445.085L105.45 444.09L105.743 445.459L99.6503 446.762ZM117.433 441.657C116.745 442.768 115.758 443.461 114.471 443.736C113.184 444.011 111.999 443.783 110.917 443.05C109.834 442.317 109.139 441.23 108.83 439.788C108.522 438.346 108.712 437.069 109.4 435.958C110.088 434.847 111.076 434.154 112.363 433.879C113.65 433.604 114.835 433.832 115.917 434.565C116.999 435.297 117.695 436.385 118.003 437.827C118.311 439.269 118.122 440.545 117.433 441.657ZM115.122 435.737C114.391 435.216 113.568 435.053 112.656 435.248C111.743 435.443 111.059 435.928 110.605 436.703C110.15 437.478 110.038 438.404 110.268 439.481C110.498 440.558 110.979 441.357 111.711 441.878C112.443 442.399 113.265 442.562 114.178 442.367C115.091 442.172 115.774 441.687 116.229 440.912C116.684 440.137 116.796 439.211 116.566 438.134C116.335 437.057 115.854 436.258 115.122 435.737ZM119.779 438.449L118.55 432.699L119.987 432.392L121.217 438.142C121.383 438.918 121.741 439.5 122.292 439.888C122.849 440.265 123.475 440.379 124.169 440.231C124.862 440.082 125.382 439.723 125.728 439.153C126.081 438.572 126.174 437.893 126.008 437.117L124.779 431.367L126.216 431.06L127.446 436.81C127.702 438.005 127.552 439.044 126.996 439.927C126.447 440.798 125.602 441.356 124.462 441.6C123.321 441.844 122.317 441.681 121.451 441.112C120.592 440.533 120.035 439.645 119.779 438.449ZM132.512 439.735L130.756 431.521L127.744 432.165L127.451 430.796L134.913 429.2L135.205 430.569L132.193 431.213L133.95 439.428L132.512 439.735ZM142.914 437.511L141.158 429.297L138.146 429.941L137.853 428.572L145.314 426.976L145.607 428.345L142.595 428.989L144.351 437.204L142.914 437.511ZM148.663 436.282L146.614 426.698L148.052 426.391L148.915 430.43L153.775 429.39L152.912 425.352L154.349 425.044L156.399 434.628L154.961 434.935L154.068 430.759L149.208 431.799L150.101 435.974L148.663 436.282ZM158.45 434.189L156.401 424.606L162.699 423.259L162.991 424.628L158.131 425.667L158.717 428.405L163.303 427.425L163.596 428.794L159.009 429.775L159.595 432.513L164.455 431.473L164.748 432.842L158.45 434.189ZM169.747 431.773L167.698 422.19L173.859 420.873L174.152 422.242L169.428 423.252L170.014 425.99L174.463 425.038L174.756 426.407L170.307 427.359L171.185 431.466L169.747 431.773ZM184.455 427.326C183.767 428.437 182.78 429.13 181.493 429.405C180.206 429.68 179.021 429.452 177.939 428.719C176.856 427.987 176.161 426.899 175.853 425.457C175.544 424.015 175.734 422.739 176.422 421.627C177.111 420.516 178.098 419.823 179.385 419.548C180.672 419.273 181.857 419.501 182.939 420.234C184.021 420.967 184.717 422.054 185.025 423.496C185.334 424.938 185.144 426.215 184.455 427.326ZM182.145 421.406C181.413 420.885 180.59 420.722 179.678 420.917C178.765 421.112 178.081 421.597 177.627 422.372C177.172 423.147 177.06 424.073 177.29 425.15C177.52 426.227 178.001 427.026 178.733 427.547C179.465 428.068 180.287 428.231 181.2 428.036C182.113 427.841 182.796 427.356 183.251 426.581C183.706 425.806 183.818 424.88 183.588 423.803C183.357 422.726 182.876 421.927 182.145 421.406ZM187.689 427.937L185.64 418.354L189.953 417.432C190.756 417.26 191.484 417.405 192.136 417.867C192.796 418.317 193.223 418.999 193.418 419.912C193.613 420.824 193.503 421.626 193.087 422.316C192.679 422.995 192.073 423.421 191.27 423.592L190.928 423.665L195.082 426.356L193.234 426.751L189.08 424.061L188.395 424.207L189.127 427.63L187.689 427.937ZM188.102 422.838L190.909 422.238C191.301 422.154 191.605 421.922 191.82 421.542C192.034 421.162 192.088 420.721 191.981 420.219C191.873 419.717 191.644 419.337 191.293 419.078C190.941 418.819 190.57 418.731 190.177 418.815L187.371 419.415L188.102 422.838ZM196.594 426.033L194.545 416.45L197.009 415.923L201.152 422.911L201.425 422.852L202.348 414.781L204.812 414.254L206.862 423.838L205.424 424.145L203.858 416.82L203.584 416.879L202.686 424.73L200.769 425.14L196.739 418.343L196.465 418.401L198.031 425.726L196.594 426.033ZM208.759 424.649L208.447 421.852L210.021 421.516L209.854 424.415L208.759 424.649ZM215.365 422.019L213.316 412.436L214.753 412.129L216.802 421.712L215.365 422.019ZM218.854 421.273L216.805 411.69L218.927 411.236L224.424 417.863L224.698 417.805L223.103 410.343L224.54 410.036L226.589 419.619L224.467 420.073L218.97 413.446L218.696 413.505L220.292 420.966L218.854 421.273ZM229.785 417.504L231.702 417.094C232.606 416.901 233.287 416.426 233.745 415.67C234.211 414.902 234.336 414.012 234.119 412.998C233.903 411.985 233.426 411.228 232.689 410.727C231.959 410.215 231.142 410.056 230.238 410.249L228.322 410.659L229.785 417.504ZM228.641 419.181L226.592 409.597L229.946 408.88C231.251 408.601 232.438 408.82 233.508 409.536C234.577 410.252 235.26 411.304 235.557 412.691C235.853 414.078 235.66 415.318 234.977 416.408C234.294 417.499 233.3 418.184 231.995 418.463L228.641 419.181ZM238.227 417.131L236.178 407.548L237.615 407.24L239.664 416.824L238.227 417.131ZM247.996 411.606L249.502 411.284C249.496 411.705 249.425 412.131 249.288 412.561C249.16 412.989 248.96 413.414 248.687 413.835C248.414 414.256 248.04 414.627 247.565 414.948C247.09 415.269 246.542 415.496 245.921 415.629C244.634 415.904 243.45 415.675 242.367 414.943C241.285 414.21 240.589 413.123 240.281 411.681C239.973 410.239 240.163 408.962 240.851 407.851C241.539 406.74 242.527 406.047 243.813 405.772C244.945 405.53 245.96 405.656 246.858 406.151C247.763 406.636 248.425 407.32 248.843 408.204L247.337 408.526C246.963 407.938 246.489 407.528 245.915 407.298C245.339 407.059 244.736 407.006 244.106 407.141C243.193 407.336 242.51 407.821 242.055 408.596C241.6 409.371 241.488 410.297 241.718 411.374C241.949 412.451 242.43 413.25 243.162 413.771C243.893 414.292 244.716 414.455 245.628 414.26C246.359 414.104 246.919 413.779 247.31 413.285C247.708 412.78 247.936 412.22 247.996 411.606ZM250.423 414.523L251.865 404.193L254.055 403.725L259.595 412.562L258.021 412.899L256.716 410.815L252.335 411.752L251.997 414.187L250.423 414.523ZM252.536 410.349L255.959 409.617L253.448 405.573L253.174 405.631L252.536 410.349ZM262.064 412.034L260.308 403.82L257.296 404.464L257.003 403.095L264.465 401.499L264.757 402.868L261.745 403.512L263.502 411.727L262.064 412.034ZM267.814 410.805L265.765 401.221L267.202 400.914L269.251 410.497L267.814 410.805ZM271.303 410.058L269.254 400.475L271.376 400.021L276.873 406.648L277.147 406.59L275.552 399.128L276.989 398.821L279.038 408.404L276.916 408.858L271.419 402.231L271.145 402.29L272.741 409.751L271.303 410.058ZM288.483 406.385L288.082 405.182L288.014 405.197C287.873 405.475 287.675 405.756 287.421 406.039C286.861 406.636 286.153 407.026 285.295 407.21C284.008 407.485 282.823 407.256 281.741 406.524C280.658 405.791 279.963 404.704 279.655 403.262C279.346 401.82 279.536 400.543 280.224 399.432C280.913 398.321 281.9 397.628 283.187 397.353C284.319 397.111 285.333 397.233 286.229 397.719C287.134 398.203 287.792 398.869 288.202 399.716L286.696 400.038C286.328 399.478 285.858 399.087 285.286 398.865C284.721 398.633 284.119 398.585 283.48 398.722C282.567 398.917 281.883 399.402 281.429 400.177C280.974 400.952 280.862 401.878 281.092 402.955C281.322 404.032 281.803 404.831 282.535 405.352C283.267 405.873 284.089 406.036 285.002 405.841C285.805 405.669 286.439 405.262 286.902 404.618C287.373 403.964 287.541 403.318 287.404 402.679L287.389 402.61L284.72 403.181L284.471 402.017L288.578 401.139L289.646 406.136L288.483 406.385ZM296.762 404.615L296.03 401.192L291.222 395.778L292.81 395.438L296.28 399.349L296.554 399.291L298.053 394.317L299.641 393.978L297.467 400.885L298.199 404.307L296.762 404.615ZM309.555 400.576C308.867 401.688 307.88 402.381 306.593 402.656C305.306 402.931 304.121 402.702 303.039 401.97C301.956 401.237 301.261 400.15 300.952 398.708C300.644 397.266 300.834 395.989 301.522 394.878C302.21 393.767 303.198 393.074 304.485 392.799C305.772 392.524 306.957 392.752 308.039 393.485C309.121 394.217 309.817 395.305 310.125 396.747C310.433 398.189 310.244 399.465 309.555 400.576ZM307.244 394.657C306.513 394.136 305.69 393.973 304.778 394.168C303.865 394.363 303.181 394.848 302.727 395.623C302.272 396.398 302.16 397.324 302.39 398.401C302.62 399.478 303.101 400.277 303.833 400.798C304.565 401.319 305.387 401.482 306.3 401.287C307.213 401.092 307.896 400.607 308.351 399.832C308.806 399.057 308.918 398.131 308.688 397.054C308.457 395.977 307.976 395.178 307.244 394.657ZM311.901 397.369L310.672 391.619L312.109 391.312L313.339 397.062C313.505 397.837 313.863 398.419 314.414 398.808C314.971 399.185 315.597 399.299 316.291 399.151C316.984 399.002 317.504 398.643 317.85 398.073C318.203 397.491 318.296 396.813 318.13 396.037L316.901 390.287L318.338 389.98L319.568 395.73C319.824 396.925 319.674 397.964 319.118 398.847C318.569 399.718 317.724 400.276 316.584 400.52C315.443 400.764 314.439 400.601 313.573 400.032C312.714 399.452 312.157 398.565 311.901 397.369ZM322.375 399.138L320.326 389.555L324.639 388.633C325.442 388.461 326.17 388.606 326.822 389.068C327.481 389.518 327.909 390.2 328.104 391.113C328.299 392.026 328.189 392.827 327.773 393.517C327.365 394.196 326.759 394.622 325.956 394.793L325.614 394.866L329.768 397.557L327.92 397.952L323.766 395.262L323.081 395.408L323.813 398.831L322.375 399.138ZM322.788 394.039L325.595 393.439C325.987 393.355 326.291 393.123 326.506 392.743C326.72 392.363 326.774 391.922 326.666 391.42C326.559 390.918 326.33 390.538 325.979 390.279C325.627 390.02 325.256 389.932 324.863 390.016L322.056 390.616L322.788 394.039ZM93.3646 463.036L95.2813 462.626C96.1849 462.433 96.866 461.958 97.3246 461.201C97.7903 460.434 97.9149 459.543 97.6983 458.53C97.4817 457.517 97.0048 456.76 96.2678 456.259C95.5379 455.747 94.7212 455.588 93.8176 455.781L91.901 456.191L93.3646 463.036ZM92.2199 464.712L90.1707 455.129L93.5249 454.412C94.8301 454.133 96.0173 454.351 97.0867 455.067C98.1561 455.784 98.8392 456.835 99.1358 458.223C99.4324 459.61 99.2393 460.849 98.5563 461.94C97.8733 463.031 96.8792 463.716 95.574 463.995L92.2199 464.712ZM101.806 462.663L99.7568 453.079L106.054 451.733L106.347 453.102L101.487 454.141L102.072 456.879L106.659 455.898L106.952 457.267L102.365 458.248L102.951 460.986L107.811 459.947L108.104 461.316L101.806 462.663ZM112.14 460.453L110.384 452.239L107.372 452.883L107.079 451.513L114.54 449.918L114.833 451.287L111.821 451.931L113.578 460.145L112.14 460.453ZM116.047 459.617L117.489 449.288L119.68 448.819L125.22 457.656L123.646 457.993L122.341 455.909L117.96 456.846L117.622 459.281L116.047 459.617ZM118.161 455.443L121.584 454.711L119.073 450.667L118.799 450.726L118.161 455.443ZM126.246 457.437L124.196 447.853L125.634 447.546L127.683 457.129L126.246 457.437ZM129.735 456.691L127.686 447.107L129.123 446.8L130.88 455.014L135.535 454.019L135.827 455.388L129.735 456.691ZM135.753 452.326L137.19 452.019C137.29 452.484 137.59 452.84 138.091 453.086C138.601 453.33 139.199 453.379 139.883 453.232C140.632 453.072 141.157 452.826 141.458 452.495C141.757 452.154 141.86 451.764 141.767 451.326C141.616 450.624 140.971 450.284 139.831 450.309L137.91 450.361C137.132 450.385 136.504 450.218 136.027 449.862C135.56 449.504 135.253 448.987 135.109 448.312C134.937 447.509 135.105 446.776 135.613 446.114C136.118 445.443 136.891 444.996 137.932 444.773C139.082 444.527 140.034 444.629 140.789 445.079C141.55 445.517 142.027 446.184 142.218 447.078L140.781 447.385C140.681 446.92 140.394 446.561 139.921 446.309C139.447 446.058 138.881 446.002 138.224 446.142C137.604 446.275 137.146 446.521 136.85 446.88C136.562 447.228 136.461 447.603 136.547 448.004C136.691 448.68 137.263 449.011 138.262 448.998L139.827 448.949C140.831 448.916 141.603 449.066 142.142 449.399C142.688 449.722 143.042 450.261 143.204 451.019C143.38 451.84 143.209 452.583 142.693 453.247C142.174 453.902 141.335 454.353 140.176 454.601C139.017 454.849 138.037 454.753 137.237 454.313C136.437 453.874 135.942 453.211 135.753 452.326ZM145.256 454.589L144.944 451.792L146.519 451.456L146.351 454.355L145.256 454.589ZM152.275 446.86L155.081 446.26C155.474 446.176 155.777 445.944 155.992 445.564C156.207 445.185 156.26 444.744 156.153 444.242C156.046 443.74 155.816 443.359 155.465 443.1C155.114 442.841 154.742 442.754 154.35 442.838L151.543 443.438L152.275 446.86ZM151.862 451.959L149.813 442.376L154.125 441.454C154.928 441.282 155.656 441.427 156.309 441.889C156.968 442.34 157.395 443.021 157.59 443.934C157.786 444.847 157.675 445.648 157.26 446.338C156.852 447.018 156.246 447.443 155.443 447.615L152.568 448.229L153.299 451.652L151.862 451.959ZM160.619 450.087L158.57 440.504L162.882 439.581C163.686 439.41 164.413 439.555 165.066 440.017C165.725 440.467 166.152 441.149 166.348 442.062C166.543 442.974 166.433 443.776 166.017 444.466C165.609 445.145 165.003 445.57 164.2 445.742L163.857 445.815L168.012 448.506L166.164 448.901L162.009 446.211L161.325 446.357L162.057 449.78L160.619 450.087ZM161.032 444.988L163.839 444.388C164.231 444.304 164.535 444.072 164.749 443.692C164.964 443.312 165.017 442.871 164.91 442.369C164.803 441.867 164.573 441.487 164.222 441.228C163.871 440.969 163.499 440.881 163.107 440.965L160.3 441.565L161.032 444.988ZM176.691 445.348C176.003 446.459 175.015 447.152 173.728 447.427C172.441 447.702 171.257 447.474 170.174 446.741C169.092 446.009 168.396 444.921 168.088 443.479C167.78 442.037 167.97 440.76 168.658 439.649C169.346 438.538 170.334 437.845 171.62 437.57C172.907 437.295 174.092 437.523 175.174 438.256C176.257 438.988 176.952 440.076 177.261 441.518C177.569 442.96 177.379 444.237 176.691 445.348ZM174.38 439.428C173.648 438.907 172.826 438.744 171.913 438.939C171 439.134 170.317 439.619 169.862 440.394C169.407 441.169 169.295 442.095 169.525 443.172C169.756 444.249 170.237 445.048 170.969 445.569C171.7 446.09 172.523 446.253 173.435 446.058C174.348 445.863 175.032 445.378 175.486 444.603C175.941 443.828 176.053 442.902 175.823 441.825C175.593 440.748 175.112 439.949 174.38 439.428ZM187.318 444.378L186.917 443.175L186.849 443.19C186.708 443.468 186.51 443.749 186.256 444.033C185.696 444.629 184.988 445.02 184.13 445.203C182.843 445.478 181.658 445.249 180.576 444.517C179.493 443.784 178.798 442.697 178.49 441.255C178.181 439.813 178.371 438.536 179.059 437.425C179.748 436.314 180.735 435.621 182.022 435.346C183.154 435.104 184.168 435.226 185.064 435.712C185.969 436.196 186.627 436.862 187.037 437.709L185.531 438.031C185.163 437.471 184.693 437.08 184.121 436.858C183.556 436.626 182.954 436.578 182.315 436.715C181.402 436.91 180.718 437.395 180.264 438.17C179.809 438.945 179.697 439.871 179.927 440.948C180.157 442.025 180.638 442.824 181.37 443.345C182.102 443.866 182.924 444.029 183.837 443.834C184.64 443.662 185.274 443.255 185.737 442.612C186.208 441.957 186.375 441.311 186.239 440.672L186.224 440.603L183.555 441.174L183.306 440.01L187.413 439.132L188.481 444.129L187.318 444.378ZM190.393 443.721L188.344 434.137L192.657 433.215C193.46 433.043 194.188 433.188 194.84 433.65C195.499 434.101 195.927 434.783 196.122 435.695C196.317 436.608 196.207 437.409 195.791 438.1C195.383 438.779 194.777 439.204 193.974 439.376L193.632 439.449L197.786 442.14L195.938 442.535L191.783 439.844L191.099 439.991L191.831 443.413L190.393 443.721ZM190.806 438.621L193.613 438.021C194.005 437.937 194.309 437.706 194.523 437.326C194.738 436.946 194.792 436.505 194.684 436.003C194.577 435.501 194.348 435.12 193.996 434.861C193.645 434.602 193.273 434.515 192.881 434.599L190.074 435.199L190.806 438.621ZM198.271 442.036L199.713 431.706L201.903 431.238L207.443 440.075L205.869 440.411L204.564 438.328L200.183 439.265L199.845 441.7L198.271 442.036ZM200.385 437.862L203.807 437.13L201.296 433.086L201.022 433.144L200.385 437.862ZM208.469 439.856L206.42 430.272L208.884 429.745L213.027 436.733L213.301 436.675L214.223 428.604L216.688 428.077L218.737 437.66L217.299 437.967L215.733 430.643L215.459 430.701L214.561 438.553L212.645 438.963L208.614 432.165L208.34 432.224L209.907 439.548L208.469 439.856ZM222.991 436.75L224.433 426.421L226.624 425.952L232.164 434.789L230.589 435.126L229.285 433.042L224.904 433.979L224.566 436.414L222.991 436.75ZM225.105 432.576L228.528 431.844L226.017 427.8L225.743 427.858L225.105 432.576ZM233.19 434.57L231.14 424.986L233.262 424.533L238.76 431.16L239.033 431.101L237.438 423.64L238.876 423.332L240.925 432.916L238.803 433.369L233.305 426.742L233.032 426.801L234.627 434.262L233.19 434.57ZM244.121 430.801L246.038 430.391C246.941 430.198 247.622 429.723 248.081 428.966C248.547 428.198 248.671 427.308 248.455 426.295C248.238 425.282 247.761 424.525 247.024 424.024C246.294 423.512 245.477 423.352 244.574 423.546L242.657 423.955L244.121 430.801ZM242.976 432.477L240.927 422.894L244.281 422.177C245.586 421.897 246.774 422.116 247.843 422.832C248.912 423.548 249.595 424.6 249.892 425.988C250.189 427.375 249.996 428.614 249.313 429.705C248.63 430.796 247.635 431.481 246.33 431.76L242.976 432.477ZM255.784 429.738L253.735 420.155L255.173 419.848L257.222 429.431L255.784 429.738ZM259.274 428.992L257.225 419.409L259.347 418.955L264.844 425.582L265.118 425.524L263.522 418.062L264.96 417.755L267.009 427.338L264.887 427.792L259.39 421.165L259.116 421.224L260.711 428.685L259.274 428.992ZM271.319 426.417L269.563 418.202L266.551 418.846L266.258 417.477L273.72 415.882L274.012 417.251L271 417.895L272.757 426.109L271.319 426.417ZM277.069 425.187L275.02 415.604L281.317 414.257L281.61 415.626L276.75 416.666L277.335 419.404L281.922 418.423L282.214 419.792L277.628 420.773L278.214 423.511L283.074 422.472L283.366 423.841L277.069 425.187ZM285.144 423.461L283.095 413.877L287.407 412.955C288.211 412.783 288.938 412.928 289.591 413.39C290.25 413.841 290.677 414.523 290.873 415.435C291.068 416.348 290.958 417.15 290.542 417.84C290.134 418.519 289.528 418.944 288.725 419.116L288.382 419.189L292.537 421.88L290.689 422.275L286.534 419.584L285.85 419.731L286.582 423.153L285.144 423.461ZM285.557 418.362L288.364 417.761C288.756 417.678 289.06 417.446 289.274 417.066C289.489 416.686 289.542 416.245 289.435 415.743C289.328 415.241 289.098 414.86 288.747 414.601C288.396 414.342 288.024 414.255 287.632 414.339L284.825 414.939L285.557 418.362ZM294.048 421.557L291.999 411.973L298.297 410.627L298.589 411.996L293.729 413.035L294.315 415.773L298.901 414.792L299.194 416.162L294.608 417.142L295.193 419.88L300.053 418.841L300.346 420.21L294.048 421.557ZM301.015 416.989L302.452 416.682C302.552 417.147 302.852 417.503 303.354 417.749C303.864 417.993 304.461 418.042 305.146 417.895C305.894 417.735 306.419 417.489 306.72 417.158C307.02 416.817 307.123 416.428 307.029 415.989C306.879 415.287 306.233 414.947 305.093 414.972L303.172 415.025C302.394 415.048 301.767 414.881 301.29 414.525C300.822 414.167 300.516 413.65 300.371 412.975C300.2 412.172 300.367 411.439 300.875 410.777C301.38 410.106 302.153 409.659 303.194 409.436C304.344 409.191 305.296 409.292 306.051 409.742C306.813 410.18 307.289 410.847 307.481 411.741L306.043 412.048C305.943 411.583 305.657 411.224 305.183 410.973C304.709 410.721 304.144 410.665 303.487 410.806C302.866 410.938 302.408 411.184 302.112 411.543C301.824 411.891 301.723 412.266 301.809 412.667C301.953 413.343 302.525 413.674 303.524 413.661L305.089 413.613C306.094 413.579 306.865 413.729 307.404 414.062C307.95 414.385 308.304 414.925 308.466 415.682C308.642 416.504 308.472 417.246 307.955 417.91C307.436 418.565 306.598 419.017 305.438 419.264C304.279 419.512 303.3 419.416 302.499 418.977C301.699 418.537 301.204 417.874 301.015 416.989ZM312.672 417.575L310.915 409.36L307.903 410.004L307.611 408.635L315.072 407.04L315.365 408.409L312.353 409.053L314.109 417.267L312.672 417.575ZM317.045 413.561L318.483 413.254C318.582 413.72 318.883 414.075 319.384 414.321C319.894 414.565 320.491 414.614 321.176 414.468C321.924 414.308 322.449 414.062 322.751 413.73C323.05 413.389 323.153 413 323.059 412.562C322.909 411.859 322.264 411.52 321.123 411.544L319.202 411.597C318.424 411.62 317.797 411.454 317.32 411.097C316.852 410.739 316.546 410.223 316.402 409.547C316.23 408.744 316.398 408.011 316.905 407.349C317.411 406.678 318.184 406.231 319.224 406.009C320.374 405.763 321.326 405.865 322.081 406.314C322.843 406.753 323.319 407.419 323.511 408.313L322.073 408.621C321.974 408.155 321.687 407.797 321.213 407.545C320.739 407.293 320.174 407.237 319.517 407.378C318.896 407.511 318.438 407.756 318.143 408.116C317.854 408.464 317.753 408.838 317.839 409.24C317.984 409.915 318.555 410.246 319.555 410.233L321.119 410.185C322.124 410.151 322.895 410.301 323.434 410.635C323.981 410.957 324.335 411.497 324.497 412.254C324.672 413.076 324.502 413.819 323.985 414.483C323.467 415.138 322.628 415.589 321.469 415.837C320.31 416.085 319.33 415.989 318.53 415.549C317.729 415.109 317.234 414.447 317.045 413.561Z" fill="#8B8B8B"/>
<rect x="-7.12598" y="522.15" width="460.602" height="153.836" rx="8" transform="rotate(-12.0694 -7.12598 522.15)" fill="#03C3A3" fill-opacity="0.3"/>
<circle cx="224.292" cy="519.551" r="27.0132" transform="rotate(167.931 224.292 519.551)" fill="white"/>
<path d="M229.942 545.967C222.936 547.465 215.622 546.119 209.609 542.224C203.595 538.33 199.375 532.206 197.877 525.2C196.379 518.194 197.726 510.88 201.621 504.866C205.515 498.853 211.639 494.633 218.645 493.135L224.294 519.551L229.942 545.967Z" fill="#FF4B11"/>
<path d="M218.629 492.582L231.455 474.119L199.373 480.979L218.629 492.582Z" fill="#03C3A3"/>
<circle cx="212.526" cy="464.656" r="13.233" transform="rotate(-12.0694 212.526 464.656)" fill="#FF4B11"/>
<path d="M249.325 709.358L223.583 652.375L249.513 646.831L249.325 709.358Z" fill="black"/>
<path d="M279.774 702.847L254.032 645.864L279.962 640.32L279.774 702.847Z" fill="#FF4B11"/>
<rect x="170.776" y="565.36" width="123.768" height="75.7656" rx="37.8828" transform="rotate(-12.0694 170.776 565.36)" fill="#FFA7D1"/>
<g clip-path="url(#clip1_479_1525)">
<path d="M259.658 681.664L250.939 664.032L245.328 682.885L241.268 663.638L231.145 680.504L231.999 660.852L218 674.67L223.714 655.848L206.718 665.751L216.934 648.941L198.009 654.306L212.084 640.565L192.42 641.055L209.47 631.246L190.302 626.83L209.256 621.569L191.788 612.525L211.454 612.143L196.784 599.039L215.928 603.56L204.978 587.22L222.396 596.36L215.853 577.809L230.451 590.994L228.727 571.399L239.588 587.8L242.791 568.392L249.232 586.978L257.161 568.977L258.777 588.581L270.934 573.117L267.624 592.507L283.244 580.552L275.216 598.51L293.319 590.815L281.077 606.212L300.525 603.261L284.839 615.13L304.409 617.109L286.264 624.703L304.728 631.487L285.264 634.33L301.461 645.492L281.902 643.406L294.813 658.246L276.387 651.361L285.203 668.945L269.068 657.694L273.234 676.918L260.404 662.008L259.658 681.664Z" fill="#03C3A3"/>
</g>
<path d="M223.388 627.972C223.036 625.731 223.066 623.325 221.953 621.169C200.04 626.556 170.91 611.45 177.527 585.859C177.687 584.471 179.043 581.639 180.205 584.025C180.79 586.3 180.807 588.744 182.319 590.678C189.378 602.908 204.945 609.933 218.421 605.064C217.88 597.697 216.034 590.3 214.994 582.936C213.889 578.913 213.365 579.746 217.145 577.653C217.108 574.545 215.65 571.554 219.735 570.612C222.222 570.041 221.159 574.154 222.34 575.664C231.741 572.221 240.892 568.09 250.724 565.998C255.279 565.097 254.493 575.001 256.076 578.067C257.965 578.395 258.948 579.529 258.844 581.632C266.903 580.537 261.027 591.474 258.945 594.883C260.435 602.631 261.957 610.574 263.52 618.709C262.543 620.4 260.54 621.333 259.248 623.111C254.287 621.905 248.853 625.024 243.642 624.873C237.553 625.434 231.718 627.364 225.713 628.432C224.945 628.581 224.149 628.712 223.391 627.986L223.388 627.972ZM251.788 579.024C248.947 580.186 247.259 582.936 246.141 585.619C244.689 589.541 241.752 592.48 238.899 595.396C221.158 614.219 191.988 612.846 178.979 589.621C175.765 605.186 191.21 617.256 205.14 619.744C221.321 622.089 237.863 615.255 249.257 603.839C253.427 598.958 257.856 594.1 260.293 588.064C260.923 586.977 261.885 582.802 259.556 583.933C257.028 585.386 257.479 591.624 254.311 591.124C253.021 589.677 258.267 582.81 256.346 580.777C253.097 581.315 252.031 590.758 249.866 588.797C250.531 585.44 252.274 582.629 251.793 579.023L251.788 579.024ZM220.849 604.56C228.637 602.473 234.921 596.978 240.278 591.181C243.864 587.563 244.712 582.102 248.6 578.635C249.171 575.751 248.364 571.978 247.288 569.102C243.087 569.569 221.454 577.619 216.689 580.449C217.179 585.815 219.956 602.106 220.848 604.555L220.849 604.56ZM254.515 600.56C246.497 610.842 236.341 617.013 224.112 620.555C224.393 622.605 224.634 624.536 225.565 626.501C231.431 625.335 237.103 623.651 243.037 622.961C247.848 622.295 252.876 622.162 257.379 620.194C256.701 613.788 256.096 607.406 254.515 600.56ZM257.403 597.372C255.9 598.669 256.628 599.824 256.768 601.418C258.272 607.422 257.943 613.728 259.664 619.621C261.033 618.956 261.502 618.076 261.21 616.641C259.866 610.128 258.808 603.921 257.403 597.372ZM250.913 576.654C251.968 576.561 252.63 576.724 253.657 577.122C252.788 574.021 252.76 570.842 251.438 568.142L249.707 568.512C249.547 571.274 250.551 573.836 250.912 576.649L250.913 576.654ZM219.514 576.896C220.795 575.891 219.861 574.368 218.967 573.284C218.805 574.614 218.839 575.735 219.514 576.896ZM254.197 578.592C253.958 578.78 254.172 578.955 254.269 579.16C254.519 578.974 254.295 578.797 254.197 578.592Z" fill="black"/>
<path d="M179.841 502.091C146.715 502.721 186.907 467.272 217.109 491.153C225.105 483.388 235.504 475.576 247.276 478.545C254.185 479.457 264.234 490.856 251.839 491.946C254.986 497.421 254.321 504.06 247.419 505.865C255.955 520.644 248.87 538.2 233.809 545.355C232.02 546.12 230.158 547.206 228.272 547.58C227.391 547.429 226.65 546.395 227.701 545.871C249.314 538.949 257.523 513.989 238.42 498.962C231.291 493.327 220.102 493.246 212.156 497.119C205.224 502.316 199.314 508.874 192.585 514.376C179.742 525.964 167.653 515.619 179.844 502.085L179.841 502.091ZM215.992 493.222C206.486 483.837 190.604 483.023 178.646 487.788C162.506 496.023 170.146 503.221 184.576 498.939C187.234 497.585 190.709 499.889 186.457 500.853C177.137 501.947 170.838 521.984 185.693 516.546C191.611 513.696 195.96 508.531 200.923 504.354C205.743 500.178 209.566 494.94 215.991 493.218L215.992 493.222ZM218.887 492.795C227.449 492.215 236.647 493.08 242.449 500.122C244.16 501.723 246.254 504.887 248.877 503.257C250.699 502.165 251.86 500.533 251.827 498.357C250.996 488.898 244.66 492.662 242.423 489.082C243.586 486.1 250.764 491.734 255.096 489.061C257.807 487.083 251.382 481.735 249.234 481.188C238.044 476.834 225.616 484.172 218.891 492.789L218.887 492.795Z" fill="black"/>
<path d="M296.087 441.056C293.853 444.051 297.043 449.267 294.741 450.083C292.987 450.434 293.738 444.061 291.329 442.246C289.11 444.737 292.59 449.979 290.393 451.033C288.089 451.108 289.279 445.363 287.077 443.734C283.998 448.833 289.439 454.784 287.848 459.909C285.509 461.837 285.177 453.885 283.014 453.356C286.706 472.229 291.198 491.082 288.847 510.48C287.12 522.7 286.063 543.329 275.929 551.349C274.476 552.239 273.193 550.501 274.832 549.66C287.317 539.287 288.301 500.538 286.791 484.806C285.87 475.248 283.363 465.956 281.384 456.585C280.661 453.8 280.336 450.214 284.487 451.304C284.848 448.175 283.439 444.634 285.689 441.994C286.591 440.658 287.651 441.123 288.736 442.157C290.533 439.349 290.294 437.884 293.377 441.135C299.869 430.645 302.622 462.741 303.385 466.267C306.504 497.78 303.781 530.664 292.866 560.515C292.751 561.766 290.358 563.784 290.299 561.51C291.172 558.232 293.103 555.337 293.861 552C303.598 517.008 306.98 476.083 296.087 441.056Z" fill="black"/>
<path d="M198.609 523.828C196.924 526.338 195.334 528.699 193.716 531.106C193.027 530.984 192.447 530.882 191.941 530.789C192.374 525.451 196.96 520.569 199.859 516.054C202.228 512.475 205.761 510.67 209.947 510.501C214.575 510.081 222.935 517.685 221.1 522.41C215.321 532.861 206.015 532.343 198.613 523.827L198.609 523.828ZM211.86 513.232C212.961 518.105 213.486 522.394 213.502 527.263C216.88 526.09 218.128 522.27 218.375 518.974C217.825 516.609 214.42 513.254 211.861 513.237L211.86 513.232ZM208.033 528.065C206.623 523.788 206.533 520.269 204.652 516.359C202.544 517.555 201.345 519.907 200.073 521.96C201.996 524.969 204.49 526.953 208.039 528.068L208.033 528.065Z" fill="black"/>
<path d="M238.475 528.092C233.411 529.042 228.684 523.566 227.678 519.11C228.167 513.99 227.637 503.76 234.96 504.108C244.618 505.443 248.936 525.021 238.475 528.092ZM237.482 507.322C239.107 512.951 240.042 518.561 240.435 524.414C244.892 520.694 241.843 510.011 237.482 507.322ZM230.784 511.571C229.419 513.173 229.684 518.838 230.392 520.816C231.681 522.626 233.58 526.047 236.029 525.852C232.907 519.302 232.757 519.059 230.785 511.576L230.784 511.571Z" fill="black"/>
<path d="M242.204 637.055C240.938 634.528 239.872 630.64 239.843 628.349C244.204 626.863 248.951 626.358 253.441 625.246C255.821 624.153 256.322 626.45 256.581 628.303C256.385 629.886 259.253 633.552 257.408 633.961C252.347 634.901 247.39 637.109 242.205 637.059L242.204 637.055ZM242.003 630.056C242.764 636.714 244.459 635.282 249.896 633.761C245.675 634.134 243.776 635.781 243.826 630.098C247.291 629.672 254.268 625.535 253.575 631.905C253.013 632.261 252.564 632.543 251.595 633.153C253.333 632.884 254.432 632.772 255.377 632.123C254.889 630.412 254.979 628.818 254.085 627.296C250.058 628.369 245.6 628.188 242.002 630.052L242.003 630.056ZM246.352 631.796C247.901 631.975 249.322 631.534 250.952 630.994C249.495 629.912 247.75 631.016 246.352 631.796Z" fill="black"/>
<path d="M218.509 534.353C218.843 534.885 219.15 535.379 219.433 535.833C222.347 535.976 231.008 534.045 233.787 532.617C232.233 527.576 238.932 532.552 234.37 534.681C229.976 536.4 225.25 536.891 220.664 537.852C217.784 538.188 212.451 534.829 218.509 534.353Z" fill="black"/>
<path d="M221.039 637.425C221.209 638.173 222.828 642.258 220.401 641.32C219.323 638.827 218.546 635.789 218.239 633.112C220.346 630.056 220.505 636.003 221.039 637.425Z" fill="black"/>
<path d="M277.598 624.87C277.931 626.084 279.106 630.479 276.525 628.499C275.73 626.319 275.449 623.926 274.872 621.664C274.637 620.517 275.996 620.497 276.605 621.122C277.185 622.205 277.21 623.672 277.556 624.879L277.598 624.87Z" fill="black"/>
<path d="M226.567 527.272C227.711 527.576 227.637 529.202 226.479 529.405C225.17 529.454 225.349 527.449 226.567 527.272Z" fill="black"/>
<path d="M220.854 604.564C219.962 602.11 217.185 585.819 216.695 580.457C221.455 577.624 243.089 569.578 247.295 569.111C248.373 571.976 249.172 575.76 248.607 578.644C244.723 582.109 243.87 587.567 240.284 591.189C234.929 596.991 228.643 602.481 220.855 604.568L220.854 604.564ZM226.859 593.54C245.367 585.259 242.196 591.575 239.622 576.782C239.577 575.815 238.315 576.085 237.682 576.313C232.933 578.183 227.391 578.779 223.195 581.727C223.838 585.515 224.507 588.62 225.095 592.494C225.612 592.8 226.206 593.149 226.863 593.539L226.859 593.54Z" fill="white"/>
<path d="M254.516 600.565C256.099 607.415 256.703 613.797 257.38 620.198C252.881 622.161 247.85 622.3 243.039 622.966C237.1 623.656 231.433 625.339 225.566 626.505C224.636 624.54 224.39 622.611 224.114 620.56C236.347 617.017 246.499 610.847 254.516 600.565Z" fill="white"/>
<path d="M257.409 597.375C258.814 603.925 259.873 610.136 261.215 616.645C261.506 618.075 261.033 618.956 259.67 619.625C257.949 613.732 258.278 607.425 256.774 601.422C256.634 599.828 255.907 598.678 257.409 597.375Z" fill="white"/>
<path d="M250.919 576.658C250.557 573.84 249.554 571.282 249.714 568.52L251.444 568.15C252.767 570.851 252.795 574.029 253.664 577.131C252.637 576.732 251.974 576.57 250.92 576.663L250.919 576.658Z" fill="white"/>
<path d="M219.519 576.895C218.843 575.729 218.815 574.612 218.972 573.283C219.866 574.367 220.8 575.89 219.519 576.895Z" fill="white"/>
<path d="M254.198 578.597C254.291 578.803 254.517 578.986 254.27 579.166C254.172 578.961 253.963 578.785 254.198 578.597Z" fill="white"/>
<path d="M211.855 513.233C214.403 513.243 217.826 516.613 218.369 518.97C218.123 522.271 216.869 526.087 213.496 527.259C213.48 522.39 212.961 518.105 211.854 513.229L211.855 513.233Z" fill="white"/>
<path d="M208.034 528.069C204.486 526.959 201.992 524.97 200.068 521.961C201.341 519.908 202.54 517.556 204.648 516.36C206.53 520.275 206.619 523.789 208.029 528.066L208.034 528.069Z" fill="white"/>
<path d="M237.482 507.322C241.838 510.012 244.896 520.688 240.435 524.414C240.042 518.561 239.107 512.951 237.482 507.322Z" fill="white"/>
<path d="M230.783 511.566C232.762 519.053 232.906 519.292 236.028 525.843C233.579 526.042 231.675 522.617 230.391 520.811C229.68 518.814 229.417 513.203 230.783 511.566Z" fill="white"/>
<path d="M242.003 630.056C245.602 628.193 250.055 628.374 254.087 627.301C254.981 628.822 254.889 630.412 255.379 632.128C254.434 632.776 253.334 632.884 251.597 633.157C252.564 632.543 253.015 632.265 253.576 631.91C254.269 625.54 247.297 629.675 243.828 630.103C243.78 635.795 245.681 634.137 249.898 633.766C244.447 635.29 242.77 636.713 242.004 630.061L242.003 630.056Z" fill="white"/>
<path d="M246.353 631.796C247.752 631.021 249.496 629.912 250.953 630.994C249.323 631.534 247.901 631.97 246.353 631.796Z" fill="white"/>
<path d="M226.859 593.54C226.202 593.15 225.612 592.8 225.091 592.495C224.498 588.622 223.829 585.517 223.191 581.728C227.386 578.78 232.928 578.184 237.678 576.315C238.31 576.081 239.577 575.815 239.622 576.782C242.188 591.557 245.396 585.253 226.859 593.54Z" fill="black"/>
<circle cx="53.6936" cy="122.803" r="14.9311" transform="rotate(-12.0694 53.6936 122.803)" fill="#B3EDE3"/>
<path d="M55.3159 126.959L53.779 119.771L51.7939 120.196L51.5011 118.827L53.0756 118.49C53.3494 118.431 53.457 118.265 53.3985 117.991L53.2667 117.375L54.7042 117.068L56.7534 126.651L55.3159 126.959Z" fill="white"/>
</g>
<rect x="-96.7962" y="119.865" width="467.294" height="569.55" rx="7.5" transform="rotate(-12.0694 -96.7962 119.865)" stroke="#EEEEEE"/>
<defs>
<clipPath id="clip0_479_1525">
<rect x="-97.3896" y="119.481" width="468.294" height="570.55" rx="8" transform="rotate(-12.0694 -97.3896 119.481)" fill="white"/>
</clipPath>
<clipPath id="clip1_479_1525">
<rect width="108.459" height="53.9195" fill="white" transform="translate(313.483 674.361) rotate(167.931)"/>
</clipPath>
</defs>
</svg>
