<svg width="226" height="285" viewBox="0 0 226 285" fill="none" xmlns="http://www.w3.org/2000/svg">
<mask id="path-1-inside-1_1753_53357" fill="white">
<path d="M98.3608 1.74199C98.3608 0.779913 99.1408 0 100.103 0L125.974 0C126.936 0 127.716 0.779915 127.716 1.74199V10.355H98.3608V1.74199Z"/>
</mask>
<path d="M98.3608 1.74199C98.3608 0.779913 99.1408 0 100.103 0L125.974 0C126.936 0 127.716 0.779915 127.716 1.74199V10.355H98.3608V1.74199Z" fill="white"/>
<path d="M97.8796 1.74199C97.8796 0.514124 98.875 -0.481257 100.103 -0.481257H125.974C127.202 -0.481257 128.197 0.514124 128.197 1.74199L127.235 1.74199C127.235 1.04571 126.67 0.481257 125.974 0.481257H100.103C99.4065 0.481257 98.8421 1.04571 98.8421 1.74199L97.8796 1.74199ZM127.716 10.355H98.3608H127.716ZM97.8796 10.355V1.74199C97.8796 0.514124 98.875 -0.481257 100.103 -0.481257L100.103 0.481257C99.4065 0.481257 98.8421 1.04571 98.8421 1.74199V10.355H97.8796ZM125.974 -0.481257C127.202 -0.481257 128.197 0.514124 128.197 1.74199V10.355H127.235V1.74199C127.235 1.04571 126.67 0.481257 125.974 0.481257V-0.481257Z" fill="#EEEEEE" mask="url(#path-1-inside-1_1753_53357)"/>
<path d="M101.906 5.34865H102.978C103.128 5.34865 103.257 5.28768 103.365 5.16574C103.473 5.0438 103.527 4.88702 103.527 4.6954C103.527 4.50378 103.473 4.347 103.365 4.22506C103.257 4.10312 103.128 4.04215 102.978 4.04215H101.906V5.34865ZM101.358 7.17773L101.358 3.51956H103.004C103.311 3.51956 103.565 3.6293 103.767 3.84879C103.972 4.0648 104.075 4.347 104.075 4.6954C104.075 5.0438 103.972 5.32774 103.767 5.54723C103.565 5.76324 103.311 5.87124 103.004 5.87124H101.906V7.17773H101.358ZM104.701 7.17773V3.51956H106.347C106.653 3.51956 106.908 3.6293 107.11 3.84879C107.315 4.0648 107.418 4.347 107.418 4.6954C107.418 5.0438 107.315 5.32774 107.11 5.54723C106.908 5.76324 106.653 5.87124 106.347 5.87124H106.216L107.523 7.17773H106.817L105.511 5.87124H105.249V7.17773H104.701ZM105.249 5.34865H106.321C106.47 5.34865 106.599 5.28768 106.707 5.16574C106.815 5.0438 106.869 4.88702 106.869 4.6954C106.869 4.50378 106.815 4.347 106.707 4.22506C106.599 4.10312 106.47 4.04215 106.321 4.04215H105.249V5.34865ZM110.937 6.70217C110.599 7.05405 110.185 7.22999 109.693 7.22999C109.202 7.22999 108.788 7.05405 108.45 6.70217C108.112 6.35029 107.943 5.89911 107.943 5.34865C107.943 4.79818 108.112 4.347 108.45 3.99512C108.788 3.64324 109.202 3.4673 109.693 3.4673C110.185 3.4673 110.599 3.64324 110.937 3.99512C111.275 4.347 111.444 4.79818 111.444 5.34865C111.444 5.89911 111.275 6.35029 110.937 6.70217ZM110.556 4.36094C110.329 4.11358 110.042 3.9899 109.693 3.9899C109.345 3.9899 109.058 4.11358 108.831 4.36094C108.605 4.6083 108.491 4.93754 108.491 5.34865C108.491 5.75976 108.605 6.08899 108.831 6.33635C109.058 6.58372 109.345 6.7074 109.693 6.7074C110.042 6.7074 110.329 6.58372 110.556 6.33635C110.782 6.08899 110.895 5.75976 110.895 5.34865C110.895 4.93754 110.782 4.6083 110.556 4.36094ZM114.735 5.9235H115.31C115.275 6.0768 115.216 6.22661 115.132 6.37294C115.052 6.51926 114.946 6.65862 114.814 6.79101C114.681 6.9234 114.516 7.02967 114.317 7.1098C114.119 7.18993 113.901 7.22999 113.664 7.22999C113.173 7.22999 112.758 7.05405 112.42 6.70217C112.082 6.35029 111.913 5.89911 111.913 5.34865C111.913 4.79818 112.082 4.347 112.42 3.99512C112.758 3.64324 113.173 3.4673 113.664 3.4673C114.096 3.4673 114.456 3.59272 114.746 3.84357C115.038 4.09093 115.226 4.39229 115.31 4.74766H114.735C114.645 4.50378 114.504 4.31739 114.312 4.18848C114.12 4.05609 113.904 3.9899 113.664 3.9899C113.315 3.9899 113.028 4.11358 112.802 4.36094C112.575 4.6083 112.462 4.93754 112.462 5.34865C112.462 5.75976 112.575 6.08899 112.802 6.33635C113.028 6.58372 113.315 6.7074 113.664 6.7074C113.943 6.7074 114.173 6.63249 114.354 6.48268C114.538 6.32939 114.666 6.14299 114.735 5.9235ZM115.887 7.17773V3.51956H118.291V4.04215H116.436V5.08735H118.187V5.60994H116.436V6.65514L118.291 6.65514V7.17773L115.887 7.17773ZM118.787 6.05415H119.336C119.336 6.23183 119.418 6.38513 119.581 6.51404C119.749 6.64294 119.963 6.7074 120.224 6.7074C120.51 6.7074 120.721 6.65862 120.856 6.56107C120.992 6.46004 121.06 6.3259 121.06 6.15867C121.06 5.8904 120.851 5.71621 120.433 5.63607L119.728 5.50543C119.442 5.45317 119.226 5.34342 119.08 5.17619C118.937 5.00896 118.865 4.79644 118.865 4.53862C118.865 4.23203 118.984 3.9777 119.221 3.77563C119.458 3.57008 119.775 3.4673 120.172 3.4673C120.611 3.4673 120.951 3.57879 121.191 3.80176C121.435 4.02125 121.557 4.30171 121.557 4.64314H121.008C121.008 4.46546 120.931 4.31216 120.778 4.18326C120.625 4.05435 120.423 3.9899 120.172 3.9899C119.935 3.9899 119.749 4.0439 119.613 4.1519C119.48 4.25642 119.414 4.38533 119.414 4.53862C119.414 4.79644 119.597 4.96192 119.963 5.03509L120.538 5.13961C120.907 5.2058 121.177 5.32077 121.348 5.48452C121.522 5.64478 121.609 5.8695 121.609 6.15867C121.609 6.47223 121.489 6.73004 121.248 6.93211C121.008 7.1307 120.667 7.22999 120.224 7.22999C119.782 7.22999 119.431 7.11851 119.174 6.89553C118.916 6.67256 118.787 6.3921 118.787 6.05415ZM122.053 6.05415H122.602C122.602 6.23183 122.684 6.38513 122.848 6.51404C123.015 6.64294 123.229 6.7074 123.49 6.7074C123.776 6.7074 123.987 6.65862 124.123 6.56107C124.259 6.46004 124.326 6.3259 124.326 6.15867C124.326 5.8904 124.117 5.71621 123.699 5.63607L122.994 5.50543C122.708 5.45317 122.492 5.34342 122.346 5.17619C122.203 5.00896 122.132 4.79644 122.132 4.53862C122.132 4.23203 122.25 3.9777 122.487 3.77563C122.724 3.57008 123.041 3.4673 123.438 3.4673C123.877 3.4673 124.217 3.57879 124.457 3.80176C124.701 4.02125 124.823 4.30171 124.823 4.64314H124.274C124.274 4.46546 124.198 4.31216 124.044 4.18326C123.891 4.05435 123.689 3.9899 123.438 3.9899C123.201 3.9899 123.015 4.0439 122.879 4.1519C122.746 4.25642 122.68 4.38533 122.68 4.53862C122.68 4.79644 122.863 4.96192 123.229 5.03509L123.804 5.13961C124.173 5.2058 124.443 5.32077 124.614 5.48452C124.788 5.64478 124.875 5.8695 124.875 6.15867C124.875 6.47223 124.755 6.73004 124.515 6.93211C124.274 7.1307 123.933 7.22999 123.49 7.22999C123.048 7.22999 122.698 7.11851 122.44 6.89553C122.182 6.67256 122.053 6.3921 122.053 6.05415Z" fill="black"/>
<g clip-path="url(#clip0_1753_53357)">
<rect x="0.353516" y="10.355" width="225.37" height="274.581" rx="3.85006" fill="white"/>
<path d="M78.5964 29.6083V36.4081H83.1726V39.6308H78.5964V48.9443H75.0515V26.3856H84.4295V29.6083H78.5964ZM86.1294 48.9443V26.3856H89.6744V48.9443H86.1294ZM92.2664 48.9443V26.3856H95.8113V45.7217H101.644V48.9443H92.2664ZM103.187 48.9443V26.3856H106.732V45.7217H112.565V48.9443H103.187ZM122.366 31.5741V43.7558C122.366 45.2383 122.979 45.9795 124.203 45.9795C125.428 45.9795 126.04 45.2383 126.04 43.7558V31.5741C126.04 30.0917 125.428 29.3504 124.203 29.3504C122.979 29.3504 122.366 30.0917 122.366 31.5741ZM118.821 43.5302V31.7997C118.821 29.995 119.283 28.5985 120.207 27.6102C121.131 26.6219 122.463 26.1278 124.203 26.1278C125.944 26.1278 127.276 26.6219 128.199 27.6102C129.123 28.5985 129.585 29.995 129.585 31.7997V43.5302C129.585 45.3349 129.123 46.7314 128.199 47.7197C127.276 48.708 125.944 49.2022 124.203 49.2022C122.463 49.2022 121.131 48.708 120.207 47.7197C119.283 46.7314 118.821 45.3349 118.821 43.5302ZM131.728 26.3856H135.273V43.788C135.273 45.249 135.885 45.9795 137.11 45.9795C138.334 45.9795 138.947 45.249 138.947 43.788V26.3856H142.298V43.5625C142.298 45.3886 141.847 46.7959 140.945 47.7842C140.042 48.751 138.732 49.2344 137.013 49.2344C135.294 49.2344 133.984 48.751 133.081 47.7842C132.179 46.7959 131.728 45.3886 131.728 43.5625V26.3856ZM143.698 29.6083V26.3856H154.655V29.6083H150.949V48.9443H147.404V29.6083H143.698ZM66.4198 61.6083V58.3856H77.377V61.6083H73.6709V80.9443H70.1259V61.6083H66.4198ZM82.4831 71.2763V80.9443H78.9382V58.3856H82.4831V68.0536H86.5115V58.3856H90.1209V80.9443H86.5115V71.2763H82.4831ZM96.2362 61.6083V67.8925H101.102V71.1152H96.2362V77.7217H102.359V80.9443H92.6912V58.3856H102.359V61.6083H96.2362ZM113.105 61.6083V68.4081H117.681V71.6308H113.105V80.9443H109.56V58.3856H118.938V61.6083H113.105ZM123.893 63.5741V75.7558C123.893 77.2383 124.505 77.9795 125.73 77.9795C126.954 77.9795 127.567 77.2383 127.567 75.7558V63.5741C127.567 62.0917 126.954 61.3504 125.73 61.3504C124.505 61.3504 123.893 62.0917 123.893 63.5741ZM120.348 75.5302V63.7997C120.348 61.995 120.81 60.5985 121.734 59.6102C122.657 58.6219 123.989 58.1278 125.73 58.1278C127.47 58.1278 128.802 58.6219 129.726 59.6102C130.65 60.5985 131.112 61.995 131.112 63.7997V75.5302C131.112 77.3349 130.65 78.7314 129.726 79.7197C128.802 80.708 127.47 81.2022 125.73 81.2022C123.989 81.2022 122.657 80.708 121.734 79.7197C120.81 78.7314 120.348 77.3349 120.348 75.5302ZM144.437 80.9443H140.827C140.613 80.2998 140.505 79.376 140.505 78.1728V74.6279C140.505 73.5966 140.323 72.8662 139.957 72.4365C139.592 71.9853 139.001 71.7597 138.185 71.7597H136.96V80.9443H133.415V58.3856H138.765C140.591 58.3856 141.923 58.8153 142.761 59.6747C143.599 60.5125 144.018 61.8124 144.018 63.5741V65.3466C144.018 67.6669 143.244 69.1923 141.698 69.9228C143.266 70.5888 144.05 72.1894 144.05 74.7246V78.2051C144.05 79.4297 144.179 80.3428 144.437 80.9443ZM138.668 61.6083H136.96V68.537H138.346C139.055 68.537 139.581 68.3544 139.925 67.9892C140.29 67.6239 140.473 67.0116 140.473 66.1522V63.9286C140.473 62.3817 139.871 61.6083 138.668 61.6083ZM151.28 58.3856L153.89 74.4023L156.307 58.3856H161.238V80.9443H157.887V64.7665L155.437 80.9443H152.086L149.443 64.9921V80.9443H146.349V58.3856H151.28Z" fill="black"/>
<path d="M98.5834 153.911L98.5502 166.093C98.5462 167.575 99.1565 168.318 100.381 168.322C101.606 168.325 102.22 167.585 102.224 166.103L102.257 153.921C102.261 152.439 101.651 151.696 100.426 151.693C99.2018 151.689 98.5874 152.429 98.5834 153.911ZM95.0059 165.858L95.0379 154.127C95.0428 152.323 95.5085 150.927 96.435 149.942C97.3615 148.956 98.6949 148.465 100.435 148.47C102.175 148.475 103.506 148.973 104.427 149.963C105.348 150.954 105.806 152.352 105.802 154.157L105.77 165.887C105.765 167.692 105.299 169.087 104.372 170.073C103.446 171.059 102.113 171.549 100.372 171.544C98.6321 171.54 97.3014 171.042 96.3802 170.051C95.4591 169.06 95.001 167.662 95.0059 165.858ZM110.297 154.104L110.304 151.591C111.528 151.594 112.399 151.36 112.916 150.889C113.433 150.418 113.865 149.71 114.211 148.765L116.596 148.772L116.534 171.331L112.989 171.321L113.036 154.112L110.297 154.104ZM120.845 167.926L124.261 167.936L124.252 171.352L120.836 171.342L120.845 167.926Z" fill="black"/>
<path d="M50.9519 184.395L50.9519 179.679L53.9838 179.679L53.9838 180.352L51.6594 180.352L51.6594 181.7L53.8491 181.7L53.8491 182.374L51.6594 182.374L51.6594 184.395L50.9519 184.395ZM54.7944 184.395L54.7944 179.679L55.5019 179.679L55.5019 184.395L54.7944 184.395ZM56.5117 184.395L56.5117 179.679L57.2192 179.679L57.2192 183.721L59.51 183.721L59.51 184.395L56.5117 184.395ZM60.1503 184.395L60.1503 179.679L60.8577 179.679L60.8577 183.721L63.1485 183.721L63.1485 184.395L60.1503 184.395ZM69.0331 183.782C68.5974 184.236 68.0629 184.462 67.4295 184.462C66.7962 184.462 66.2617 184.236 65.826 183.782C65.3903 183.328 65.1724 182.747 65.1724 182.037C65.1724 181.327 65.3903 180.745 65.826 180.292C66.2617 179.838 66.7962 179.611 67.4295 179.611C68.0629 179.611 68.5974 179.838 69.0331 180.292C69.4688 180.745 69.6866 181.327 69.6866 182.037C69.6866 182.747 69.4688 183.328 69.0331 183.782ZM68.5412 180.763C68.2493 180.445 67.8787 180.285 67.4295 180.285C66.9804 180.285 66.6098 180.445 66.3178 180.763C66.0259 181.082 65.8799 181.507 65.8799 182.037C65.8799 182.567 66.0259 182.991 66.3178 183.31C66.6098 183.629 66.9804 183.789 67.4295 183.789C67.8787 183.789 68.2493 183.629 68.5412 183.31C68.8332 182.991 68.9792 182.567 68.9792 182.037C68.9792 181.507 68.8332 181.082 68.5412 180.763ZM70.4599 182.508L70.4599 179.679L71.1673 179.679L71.1673 182.508C71.1673 182.89 71.2774 183.2 71.4975 183.438C71.7221 183.672 72.005 183.789 72.3464 183.789C72.6878 183.789 72.9685 183.672 73.1886 183.438C73.4132 183.2 73.5255 182.89 73.5255 182.508L73.5255 179.679L74.2329 179.679L74.2329 182.508C74.2329 183.097 74.0578 183.571 73.7074 183.93C73.3615 184.285 72.9079 184.462 72.3464 184.462C71.7849 184.462 71.329 184.285 70.9787 183.93C70.6328 183.571 70.4599 183.097 70.4599 182.508ZM76.3229 184.395L76.3229 180.352L74.8406 180.352L74.8406 179.679L78.5126 179.679L78.5126 180.352L77.0303 180.352L77.0303 184.395L76.3229 184.395ZM81.4419 184.395L81.4419 180.352L79.9596 180.352L79.9596 179.679L83.6316 179.679L83.6316 180.352L82.1493 180.352L82.1493 184.395L81.4419 184.395ZM84.2714 184.395L84.2714 179.679L84.9789 179.679L84.9789 181.666L87.3707 181.666L87.3707 179.679L88.0782 179.679L88.0782 184.395L87.3707 184.395L87.3707 182.34L84.9789 182.34L84.9789 184.395L84.2714 184.395ZM89.0877 184.395L89.0877 179.679L92.187 179.679L92.187 180.352L89.7952 180.352L89.7952 181.7L92.0523 181.7L92.0523 182.374L89.7952 182.374L89.7952 183.721L92.187 183.721L92.187 184.395L89.0877 184.395ZM94.6476 184.395L94.6476 179.679L97.6795 179.679L97.6795 180.352L95.355 180.352L95.355 181.7L97.5447 181.7L97.5447 182.374L95.355 182.374L95.355 184.395L94.6476 184.395ZM102.017 183.782C101.581 184.236 101.047 184.462 100.413 184.462C99.7802 184.462 99.2456 184.236 98.8099 183.782C98.3742 183.328 98.1564 182.747 98.1564 182.037C98.1564 181.327 98.3742 180.745 98.8099 180.292C99.2456 179.838 99.7802 179.611 100.413 179.611C101.047 179.611 101.581 179.838 102.017 180.292C102.453 180.745 102.671 181.327 102.671 182.037C102.671 182.747 102.453 183.328 102.017 183.782ZM101.525 180.763C101.233 180.445 100.863 180.285 100.413 180.285C99.9643 180.285 99.5937 180.445 99.3018 180.763C99.0098 181.082 98.8638 181.507 98.8638 182.037C98.8638 182.567 99.0098 182.991 99.3018 183.31C99.5937 183.629 99.9643 183.789 100.413 183.789C100.863 183.789 101.233 183.629 101.525 183.31C101.817 182.991 101.963 182.567 101.963 182.037C101.963 181.507 101.817 181.082 101.525 180.763ZM103.478 184.395L103.478 179.679L105.6 179.679C105.995 179.679 106.323 179.82 106.584 180.103C106.849 180.382 106.981 180.745 106.981 181.195C106.981 181.644 106.849 182.01 106.584 182.293C106.323 182.571 105.995 182.711 105.6 182.711L105.431 182.711L107.116 184.395L106.206 184.395L104.522 182.711L104.185 182.711L104.185 184.395L103.478 184.395ZM104.185 182.037L105.566 182.037C105.759 182.037 105.926 181.958 106.065 181.801C106.204 181.644 106.274 181.442 106.274 181.195C106.274 180.948 106.204 180.745 106.065 180.588C105.926 180.431 105.759 180.352 105.566 180.352L104.185 180.352L104.185 182.037ZM107.86 184.395L107.86 179.679L109.072 179.679L110.319 183.384L110.454 183.384L111.7 179.679L112.913 179.679L112.913 184.395L112.205 184.395L112.205 180.79L112.071 180.79L110.858 184.395L109.915 184.395L108.702 180.79L108.567 180.79L108.567 184.395L107.86 184.395ZM113.724 184.968L113.859 183.62L114.633 183.62L114.263 184.968L113.724 184.968ZM117.097 184.395L117.097 179.679L117.805 179.679L117.805 184.395L117.097 184.395ZM118.815 184.395L118.815 179.679L119.859 179.679L121.779 183.351L121.914 183.351L121.914 179.679L122.621 179.679L122.621 184.395L121.577 184.395L119.657 180.723L119.522 180.723L119.522 184.395L118.815 184.395ZM124.339 183.721L125.282 183.721C125.726 183.721 126.095 183.566 126.387 183.256C126.683 182.942 126.831 182.535 126.831 182.037C126.831 181.538 126.683 181.134 126.387 180.824C126.095 180.51 125.726 180.352 125.282 180.352L124.339 180.352L124.339 183.721ZM123.631 184.395L123.631 179.679L125.282 179.679C125.924 179.679 126.461 179.901 126.892 180.346C127.323 180.79 127.539 181.354 127.539 182.037C127.539 182.72 127.323 183.283 126.892 183.728C126.461 184.173 125.924 184.395 125.282 184.395L123.631 184.395ZM128.349 184.395L128.349 179.679L129.056 179.679L129.056 184.395L128.349 184.395ZM133.502 182.778L134.243 182.778C134.198 182.976 134.122 183.169 134.014 183.357C133.911 183.546 133.774 183.726 133.603 183.896C133.433 184.067 133.219 184.204 132.963 184.307C132.707 184.411 132.426 184.462 132.121 184.462C131.488 184.462 130.953 184.236 130.517 183.782C130.082 183.328 129.864 182.747 129.864 182.037C129.864 181.327 130.082 180.745 130.517 180.292C130.953 179.838 131.488 179.611 132.121 179.611C132.678 179.611 133.143 179.773 133.516 180.096C133.893 180.415 134.136 180.804 134.243 181.262L133.502 181.262C133.385 180.948 133.203 180.707 132.956 180.541C132.709 180.37 132.431 180.285 132.121 180.285C131.672 180.285 131.301 180.445 131.009 180.763C130.717 181.082 130.571 181.507 130.571 182.037C130.571 182.567 130.717 182.991 131.009 183.31C131.301 183.629 131.672 183.789 132.121 183.789C132.48 183.789 132.777 183.692 133.01 183.499C133.248 183.301 133.412 183.061 133.502 182.778ZM134.351 184.395L136.069 179.679L137.147 179.679L138.865 184.395L138.09 184.395L137.686 183.283L135.53 183.283L135.126 184.395L134.351 184.395ZM135.766 182.643L137.45 182.643L136.675 180.487L136.54 180.487L135.766 182.643ZM140.08 184.395L140.08 180.352L138.598 180.352L138.598 179.679L142.27 179.679L142.27 180.352L140.787 180.352L140.787 184.395L140.08 184.395ZM142.91 184.395L142.91 179.679L143.617 179.679L143.617 184.395L142.91 184.395ZM144.627 184.395L144.627 179.679L145.671 179.679L147.591 183.351L147.726 183.351L147.726 179.679L148.434 179.679L148.434 184.395L147.389 184.395L145.469 180.723L145.334 180.723L145.334 184.395L144.627 184.395ZM153.081 184.395L153.014 183.789L152.98 183.789C152.886 183.905 152.765 184.018 152.617 184.126C152.293 184.35 151.92 184.462 151.498 184.462C150.865 184.462 150.33 184.236 149.895 183.782C149.459 183.328 149.241 182.747 149.241 182.037C149.241 181.327 149.459 180.745 149.895 180.292C150.33 179.838 150.865 179.611 151.498 179.611C152.055 179.611 152.52 179.771 152.893 180.09C153.27 180.409 153.513 180.788 153.62 181.228L152.879 181.228C152.763 180.927 152.581 180.696 152.334 180.534C152.091 180.368 151.813 180.285 151.498 180.285C151.049 180.285 150.678 180.445 150.386 180.763C150.094 181.082 149.948 181.507 149.948 182.037C149.948 182.567 150.094 182.991 150.386 183.31C150.678 183.629 151.049 183.789 151.498 183.789C151.893 183.789 152.233 183.661 152.516 183.405C152.803 183.144 152.947 182.857 152.947 182.542L152.947 182.508L151.633 182.508L151.633 181.936L153.654 181.936L153.654 184.395L153.081 184.395ZM157.156 184.395L157.156 182.711L155.438 179.679L156.219 179.679L157.459 181.868L157.594 181.868L158.8 179.679L159.581 179.679L157.863 182.711L157.863 184.395L157.156 184.395ZM163.583 183.782C163.147 184.236 162.613 184.462 161.98 184.462C161.346 184.462 160.812 184.236 160.376 183.782C159.94 183.328 159.722 182.747 159.722 182.037C159.722 181.327 159.94 180.745 160.376 180.292C160.812 179.838 161.346 179.611 161.98 179.611C162.613 179.611 163.147 179.838 163.583 180.292C164.019 180.745 164.237 181.327 164.237 182.037C164.237 182.747 164.019 183.328 163.583 183.782ZM163.091 180.763C162.799 180.445 162.429 180.285 161.98 180.285C161.53 180.285 161.16 180.445 160.868 180.763C160.576 181.082 160.43 181.507 160.43 182.037C160.43 182.567 160.576 182.991 160.868 183.31C161.16 183.629 161.53 183.789 161.98 183.789C162.429 183.789 162.799 183.629 163.091 183.31C163.383 182.991 163.529 182.567 163.529 182.037C163.529 181.507 163.383 181.082 163.091 180.763ZM165.01 182.508L165.01 179.679L165.717 179.679L165.717 182.508C165.717 182.89 165.827 183.2 166.048 183.438C166.272 183.672 166.555 183.789 166.896 183.789C167.238 183.789 167.519 183.672 167.739 183.438C167.963 183.2 168.076 182.89 168.076 182.508L168.076 179.679L168.783 179.679L168.783 182.508C168.783 183.097 168.608 183.571 168.257 183.93C167.912 184.285 167.458 184.462 166.896 184.462C166.335 184.462 165.879 184.285 165.529 183.93C165.183 183.571 165.01 183.097 165.01 182.508ZM169.761 184.395L169.761 179.679L171.884 179.679C172.279 179.679 172.607 179.82 172.867 180.103C173.132 180.382 173.265 180.745 173.265 181.195C173.265 181.644 173.132 182.01 172.867 182.293C172.607 182.571 172.279 182.711 171.884 182.711L171.715 182.711L173.4 184.395L172.49 184.395L170.806 182.711L170.469 182.711L170.469 184.395L169.761 184.395ZM170.469 182.037L171.85 182.037C172.043 182.037 172.209 181.958 172.348 181.801C172.488 181.644 172.557 181.442 172.557 181.195C172.557 180.948 172.488 180.745 172.348 180.588C172.209 180.431 172.043 180.352 171.85 180.352L170.469 180.352L170.469 182.037ZM55.5545 191.721L56.4978 191.721C56.9425 191.721 57.3108 191.566 57.6028 191.256C57.8992 190.942 58.0474 190.535 58.0474 190.037C58.0474 189.538 57.8992 189.134 57.6028 188.824C57.3108 188.51 56.9425 188.352 56.4978 188.352L55.5545 188.352L55.5545 191.721ZM54.8471 192.395L54.8471 187.679L56.4978 187.679C57.1401 187.679 57.6769 187.901 58.1081 188.346C58.5393 188.79 58.7549 189.354 58.7549 190.037C58.7549 190.72 58.5393 191.283 58.1081 191.728C57.6769 192.173 57.1401 192.395 56.4978 192.395L54.8471 192.395ZM59.5647 192.395L59.5647 187.679L62.664 187.679L62.664 188.352L60.2722 188.352L60.2722 189.7L62.5293 189.7L62.5293 190.374L60.2722 190.374L60.2722 191.721L62.664 191.721L62.664 192.395L59.5647 192.395ZM64.6505 192.395L64.6505 188.352L63.1683 188.352L63.1683 187.679L66.8403 187.679L66.8403 188.352L65.358 188.352L65.358 192.395L64.6505 192.395ZM66.5734 192.395L68.2915 187.679L69.3695 187.679L71.0876 192.395L70.3128 192.395L69.9085 191.283L67.7525 191.283L67.3482 192.395L66.5734 192.395ZM67.9883 190.643L69.6727 190.643L68.8979 188.487L68.7631 188.487L67.9883 190.643ZM71.5924 192.395L71.5924 187.679L72.2998 187.679L72.2998 192.395L71.5924 192.395ZM73.3097 192.395L73.3097 187.679L74.0171 187.679L74.0171 191.721L76.3079 191.721L76.3079 192.395L73.3097 192.395ZM76.5808 190.946L77.2883 190.946C77.2883 191.176 77.3938 191.373 77.6049 191.539C77.8205 191.706 78.0968 191.789 78.4337 191.789C78.802 191.789 79.0737 191.726 79.2489 191.6C79.4241 191.47 79.5117 191.297 79.5117 191.081C79.5117 190.735 79.2422 190.511 78.7032 190.407L77.7936 190.239C77.4253 190.172 77.1468 190.03 76.9581 189.815C76.774 189.599 76.6819 189.325 76.6819 188.993C76.6819 188.597 76.8346 188.269 77.14 188.009C77.4455 187.744 77.8542 187.611 78.3663 187.611C78.9322 187.611 79.3702 187.755 79.6801 188.043C79.9945 188.326 80.1517 188.687 80.1517 189.127L79.4443 189.127C79.4443 188.898 79.3455 188.701 79.1478 188.534C78.9502 188.368 78.6897 188.285 78.3663 188.285C78.0608 188.285 77.8205 188.355 77.6454 188.494C77.4747 188.629 77.3893 188.795 77.3893 188.993C77.3893 189.325 77.6252 189.538 78.0968 189.633L78.8379 189.767C79.314 189.853 79.6622 190.001 79.8822 190.212C80.1068 190.419 80.2191 190.708 80.2191 191.081C80.2191 191.485 80.0642 191.818 79.7542 192.078C79.4443 192.334 79.0041 192.462 78.4337 192.462C77.8632 192.462 77.4118 192.319 77.0794 192.031C76.747 191.744 76.5808 191.382 76.5808 190.946ZM80.8255 192.968L80.9603 191.62L81.7351 191.62L81.3645 192.968L80.8255 192.968ZM84.9065 190.037L86.2877 190.037C86.4808 190.037 86.647 189.958 86.7863 189.801C86.9255 189.644 86.9951 189.442 86.9951 189.195C86.9951 188.948 86.9255 188.745 86.7863 188.588C86.647 188.431 86.4808 188.352 86.2877 188.352L84.9065 188.352L84.9065 190.037ZM84.199 192.395L84.199 187.679L86.3214 187.679C86.7167 187.679 87.0446 187.82 87.3051 188.103C87.5701 188.382 87.7026 188.745 87.7026 189.195C87.7026 189.644 87.5701 190.01 87.3051 190.293C87.0446 190.571 86.7167 190.711 86.3214 190.711L84.9065 190.711L84.9065 192.395L84.199 192.395ZM88.5087 192.395L88.5087 187.679L90.6311 187.679C91.0263 187.679 91.3542 187.82 91.6148 188.103C91.8798 188.382 92.0123 188.745 92.0123 189.195C92.0123 189.644 91.8798 190.01 91.6148 190.293C91.3542 190.571 91.0263 190.711 90.6311 190.711L90.4626 190.711L92.147 192.395L91.2375 192.395L89.5531 190.711L89.2162 190.711L89.2162 192.395L88.5087 192.395ZM89.2162 190.037L90.5974 190.037C90.7905 190.037 90.9567 189.958 91.096 189.801C91.2352 189.644 91.3048 189.442 91.3048 189.195C91.3048 188.948 91.2352 188.745 91.096 188.588C90.9567 188.431 90.7905 188.352 90.5974 188.352L89.2162 188.352L89.2162 190.037ZM96.5493 191.782C96.1136 192.236 95.5791 192.462 94.9458 192.462C94.3124 192.462 93.7779 192.236 93.3422 191.782C92.9065 191.328 92.6887 190.747 92.6887 190.037C92.6887 189.327 92.9065 188.745 93.3422 188.292C93.7779 187.838 94.3124 187.611 94.9458 187.611C95.5791 187.611 96.1136 187.838 96.5493 188.292C96.985 188.745 97.2029 189.327 97.2029 190.037C97.2029 190.747 96.985 191.328 96.5493 191.782ZM96.0575 188.763C95.7655 188.445 95.3949 188.285 94.9458 188.285C94.4966 188.285 94.126 188.445 93.8341 188.763C93.5421 189.082 93.3961 189.507 93.3961 190.037C93.3961 190.567 93.5421 190.991 93.8341 191.31C94.126 191.629 94.4966 191.789 94.9458 191.789C95.3949 191.789 95.7655 191.629 96.0575 191.31C96.3494 190.991 96.4954 190.567 96.4954 190.037C96.4954 189.507 96.3494 189.082 96.0575 188.763ZM101.648 192.395L101.581 191.789L101.547 191.789C101.453 191.905 101.331 192.018 101.183 192.126C100.86 192.35 100.487 192.462 100.065 192.462C99.4314 192.462 98.8969 192.236 98.4612 191.782C98.0255 191.328 97.8077 190.747 97.8077 190.037C97.8077 189.327 98.0255 188.745 98.4612 188.292C98.8969 187.838 99.4314 187.611 100.065 187.611C100.622 187.611 101.087 187.771 101.459 188.09C101.837 188.409 102.079 188.788 102.187 189.228L101.446 189.228C101.329 188.927 101.147 188.696 100.9 188.534C100.658 188.368 100.379 188.285 100.065 188.285C99.6156 188.285 99.245 188.445 98.9531 188.763C98.6611 189.082 98.5151 189.507 98.5151 190.037C98.5151 190.567 98.6611 190.991 98.9531 191.31C99.245 191.629 99.6156 191.789 100.065 191.789C100.46 191.789 100.799 191.661 101.082 191.405C101.37 191.144 101.513 190.857 101.513 190.542L101.513 190.508L100.2 190.508L100.2 189.936L102.221 189.936L102.221 192.395L101.648 192.395ZM103.162 192.395L103.162 187.679L105.284 187.679C105.679 187.679 106.007 187.82 106.268 188.103C106.533 188.382 106.665 188.745 106.665 189.195C106.665 189.644 106.533 190.01 106.268 190.293C106.007 190.571 105.679 190.711 105.284 190.711L105.116 190.711L106.8 192.395L105.89 192.395L104.206 190.711L103.869 190.711L103.869 192.395L103.162 192.395ZM103.869 190.037L105.25 190.037C105.443 190.037 105.61 189.958 105.749 189.801C105.888 189.644 105.958 189.442 105.958 189.195C105.958 188.948 105.888 188.745 105.749 188.588C105.61 188.431 105.443 188.352 105.25 188.352L103.869 188.352L103.869 190.037ZM107.038 192.395L108.757 187.679L109.835 187.679L111.553 192.395L110.778 192.395L110.374 191.283L108.218 191.283L107.813 192.395L107.038 192.395ZM108.453 190.643L110.138 190.643L109.363 188.487L109.228 188.487L108.453 190.643ZM112.057 192.395L112.057 187.679L113.27 187.679L114.517 191.384L114.651 191.384L115.898 187.679L117.111 187.679L117.111 192.395L116.403 192.395L116.403 188.79L116.268 188.79L115.056 192.395L114.112 192.395L112.9 188.79L112.765 188.79L112.765 192.395L112.057 192.395ZM119.204 192.395L120.922 187.679L122 187.679L123.718 192.395L122.944 192.395L122.539 191.283L120.383 191.283L119.979 192.395L119.204 192.395ZM120.619 190.643L122.304 190.643L121.529 188.487L121.394 188.487L120.619 190.643ZM124.223 192.395L124.223 187.679L125.268 187.679L127.188 191.351L127.323 191.351L127.323 187.679L128.03 187.679L128.03 192.395L126.986 192.395L125.065 188.723L124.931 188.723L124.931 192.395L124.223 192.395ZM129.747 191.721L130.69 191.721C131.135 191.721 131.503 191.566 131.795 191.256C132.092 190.942 132.24 190.535 132.24 190.037C132.24 189.538 132.092 189.134 131.795 188.824C131.503 188.51 131.135 188.352 130.69 188.352L129.747 188.352L129.747 191.721ZM129.04 192.395L129.04 187.679L130.69 187.679C131.333 187.679 131.869 187.901 132.301 188.346C132.732 188.79 132.947 189.354 132.947 190.037C132.947 190.72 132.732 191.283 132.301 191.728C131.869 192.173 131.333 192.395 130.69 192.395L129.04 192.395ZM135.343 192.395L135.343 187.679L136.05 187.679L136.05 192.395L135.343 192.395ZM137.06 192.395L137.06 187.679L138.105 187.679L140.025 191.351L140.16 191.351L140.16 187.679L140.867 187.679L140.867 192.395L139.823 192.395L137.902 188.723L137.768 188.723L137.768 192.395L137.06 192.395ZM142.988 192.395L142.988 188.352L141.506 188.352L141.506 187.679L145.178 187.679L145.178 188.352L143.696 188.352L143.696 192.395L142.988 192.395ZM145.818 192.395L145.818 187.679L148.917 187.679L148.917 188.352L146.525 188.352L146.525 189.7L148.782 189.7L148.782 190.374L146.525 190.374L146.525 191.721L148.917 191.721L148.917 192.395L145.818 192.395ZM149.792 192.395L149.792 187.679L151.914 187.679C152.31 187.679 152.637 187.82 152.898 188.103C153.163 188.382 153.295 188.745 153.295 189.195C153.295 189.644 153.163 190.01 152.898 190.293C152.637 190.571 152.31 190.711 151.914 190.711L151.746 190.711L153.43 192.395L152.521 192.395L150.836 190.711L150.499 190.711L150.499 192.395L149.792 192.395ZM150.499 190.037L151.881 190.037C152.074 190.037 152.24 189.958 152.379 189.801C152.518 189.644 152.588 189.442 152.588 189.195C152.588 188.948 152.518 188.745 152.379 188.588C152.24 188.431 152.074 188.352 151.881 188.352L150.499 188.352L150.499 190.037ZM154.174 192.395L154.174 187.679L157.273 187.679L157.273 188.352L154.881 188.352L154.881 189.7L157.139 189.7L157.139 190.374L154.881 190.374L154.881 191.721L157.273 191.721L157.273 192.395L154.174 192.395ZM157.912 190.946L158.62 190.946C158.62 191.176 158.725 191.373 158.936 191.539C159.152 191.706 159.428 191.789 159.765 191.789C160.133 191.789 160.405 191.726 160.58 191.6C160.756 191.47 160.843 191.297 160.843 191.081C160.843 190.735 160.574 190.511 160.035 190.407L159.125 190.239C158.757 190.172 158.478 190.03 158.29 189.815C158.105 189.599 158.013 189.325 158.013 188.993C158.013 188.597 158.166 188.269 158.472 188.009C158.777 187.744 159.186 187.611 159.698 187.611C160.264 187.611 160.702 187.755 161.012 188.043C161.326 188.326 161.483 188.687 161.483 189.127L160.776 189.127C160.776 188.898 160.677 188.701 160.479 188.534C160.282 188.368 160.021 188.285 159.698 188.285C159.392 188.285 159.152 188.355 158.977 188.494C158.806 188.629 158.721 188.795 158.721 188.993C158.721 189.325 158.957 189.538 159.428 189.633L160.169 189.767C160.645 189.853 160.994 190.001 161.214 190.212C161.438 190.419 161.551 190.708 161.551 191.081C161.551 191.485 161.396 191.818 161.086 192.078C160.776 192.334 160.336 192.462 159.765 192.462C159.195 192.462 158.743 192.319 158.411 192.031C158.078 191.744 157.912 191.382 157.912 190.946ZM163.339 192.395L163.339 188.352L161.857 188.352L161.857 187.679L165.529 187.679L165.529 188.352L164.047 188.352L164.047 192.395L163.339 192.395ZM165.801 190.946L166.509 190.946C166.509 191.176 166.614 191.373 166.825 191.539C167.041 191.706 167.317 191.789 167.654 191.789C168.022 191.789 168.294 191.726 168.469 191.6C168.645 191.47 168.732 191.297 168.732 191.081C168.732 190.735 168.463 190.511 167.924 190.407L167.014 190.239C166.646 190.172 166.367 190.03 166.179 189.815C165.994 189.599 165.902 189.325 165.902 188.993C165.902 188.597 166.055 188.269 166.361 188.009C166.666 187.744 167.075 187.611 167.587 187.611C168.153 187.611 168.591 187.755 168.901 188.043C169.215 188.326 169.372 188.687 169.372 189.127L168.665 189.127C168.665 188.898 168.566 188.701 168.368 188.534C168.171 188.368 167.91 188.285 167.587 188.285C167.281 188.285 167.041 188.355 166.866 188.494C166.695 188.629 166.61 188.795 166.61 188.993C166.61 189.325 166.846 189.538 167.317 189.633L168.058 189.767C168.535 189.853 168.883 190.001 169.103 190.212C169.327 190.419 169.44 190.708 169.44 191.081C169.44 191.485 169.285 191.818 168.975 192.078C168.665 192.334 168.225 192.462 167.654 192.462C167.084 192.462 166.632 192.319 166.3 192.031C165.968 191.744 165.801 191.382 165.801 190.946Z" fill="#8B8B8B"/>
<rect x="2.3125" y="208.942" width="221.668" height="74.0345" rx="3.85006" fill="#03C3A3" fill-opacity="0.3"/>
<circle cx="111.484" cy="231.006" r="13.0003" transform="rotate(-180 111.484 231.006)" fill="white"/>
<path d="M111.485 244.006C108.037 244.006 104.73 242.637 102.292 240.199C99.8539 237.761 98.4843 234.454 98.4843 231.006C98.4843 227.558 99.8539 224.252 102.292 221.814C104.73 219.376 108.037 218.006 111.485 218.006L111.485 231.006L111.485 244.006Z" fill="#FF4B11"/>
<path d="M111.533 217.745L119.427 210.346H103.638L111.533 217.745Z" fill="#03C3A3"/>
<circle cx="111.471" cy="203.987" r="6.36849" fill="#FF4B11"/>
<rect x="81.6885" y="247.179" width="59.5641" height="36.4627" rx="18.2314" fill="#FFA7D1"/>
<path d="M100.148 281.94C100.208 280.85 100.464 279.721 100.157 278.594C89.3027 278.924 77.114 268.884 82.8033 257.506C83.0179 256.869 83.9412 255.672 84.2481 256.912C84.2943 258.042 84.0566 259.194 84.5736 260.256C86.6647 266.722 93.2841 271.595 100.116 270.659C100.603 267.138 100.478 263.471 100.73 259.901C100.614 257.896 100.284 258.236 102.274 257.631C102.569 256.164 102.184 254.61 104.201 254.578C105.429 254.559 104.515 256.388 104.919 257.217C109.69 256.543 114.412 255.52 119.25 255.525C121.484 255.559 120.117 260.141 120.554 261.743C121.41 262.087 121.758 262.72 121.498 263.699C125.401 263.995 121.535 268.551 120.212 269.946C120.134 273.742 120.051 277.633 119.967 281.619C119.337 282.316 118.301 282.554 117.514 283.261C115.301 282.194 112.429 283.115 109.992 282.52C107.07 282.171 104.13 282.492 101.196 282.39C100.82 282.383 100.432 282.365 100.148 281.947V281.94ZM118.44 261.762C116.985 262.023 115.915 263.147 115.118 264.297C114.04 265.997 112.362 267.085 110.726 268.17C100.483 275.243 86.8931 271.662 83.108 259.423C80.029 266.424 86.083 273.659 92.3886 276.232C99.7674 278.963 108.24 277.412 114.751 273.186C117.205 271.308 119.778 269.468 121.532 266.872C121.939 266.424 122.811 264.556 121.602 264.854C120.265 265.283 119.85 268.265 118.41 267.71C117.948 266.9 121.108 264.196 120.408 263.046C118.825 262.972 117.373 267.309 116.552 266.168C117.202 264.655 118.306 263.508 118.442 261.762H118.44ZM101.309 270.666C105.184 270.468 108.695 268.514 111.799 266.325C113.851 264.983 114.8 262.498 116.979 261.258C117.537 259.958 117.537 258.102 117.32 256.64C115.296 256.437 104.305 258.049 101.778 258.901C101.468 261.475 101.136 269.422 101.309 270.664V270.666ZM117.556 272.172C112.748 276.204 107.347 278.086 101.235 278.522C101.161 279.515 101.081 280.448 101.321 281.467C104.199 281.508 107.038 281.286 109.9 281.559C112.231 281.73 114.61 282.173 116.928 281.7C117.253 278.617 117.611 275.553 117.556 272.172ZM119.236 270.962C118.398 271.421 118.624 272.038 118.53 272.802C118.633 275.779 117.844 278.714 118.061 281.661C118.772 281.485 119.081 281.118 119.088 280.414C119.111 277.213 119.238 274.186 119.236 270.962ZM118.266 260.559C118.772 260.621 119.067 260.764 119.51 261.055C119.414 259.508 119.72 258.009 119.37 256.605H118.518C118.165 257.889 118.379 259.196 118.266 260.556V260.559ZM103.465 257.513C104.169 257.169 103.883 256.358 103.571 255.758C103.361 256.367 103.264 256.899 103.465 257.513ZM119.617 261.801C119.485 261.866 119.568 261.97 119.594 262.076C119.73 262.014 119.642 261.907 119.617 261.801Z" fill="black"/>
<path d="M92.3212 218.316C76.668 215.279 99.1507 202.641 110.961 216.919C115.505 214.069 121.186 211.439 126.427 214.021C129.587 215.145 133.169 221.521 127.226 220.787C128.156 223.68 127.175 226.738 123.745 226.892C126.275 234.707 121.174 242.256 113.366 244.108C112.447 244.288 111.462 244.611 110.536 244.597C110.137 244.438 109.892 243.877 110.439 243.736C121.308 242.653 127.683 231.733 120.205 222.738C117.417 219.369 112.159 218.205 108.03 219.228C104.245 220.976 100.803 223.468 97.0827 225.38C89.8723 229.541 85.2239 223.456 92.3235 218.314L92.3212 218.316ZM110.227 217.78C106.698 212.406 99.3053 210.425 93.1982 211.464C84.7739 213.716 87.6451 217.872 94.8669 217.309C96.2541 216.94 97.6574 218.374 95.5594 218.399C91.0633 217.976 86.0825 226.772 93.6206 225.708C96.6926 224.962 99.2592 222.969 102.015 221.503C104.704 220.022 107.03 217.942 110.227 217.778V217.78ZM111.633 217.87C115.72 218.459 119.962 219.791 121.984 223.689C122.628 224.615 123.295 226.315 124.694 225.812C125.661 225.481 126.372 224.83 126.575 223.803C127.136 219.267 123.775 220.401 123.083 218.491C123.93 217.205 126.741 220.579 129.049 219.757C130.524 219.099 128.038 215.935 127.083 215.462C122.254 212.286 115.667 214.489 111.635 217.868L111.633 217.87Z" fill="black"/>
<path d="M153.171 201.29C151.819 202.474 152.795 205.25 151.63 205.402C150.769 205.391 151.763 202.467 150.812 201.37C149.518 202.319 150.628 205.137 149.488 205.412C148.396 205.215 149.534 202.631 148.661 201.643C146.7 203.733 148.661 207.081 147.397 209.333C146.102 210.005 146.746 206.229 145.781 205.763C145.619 215.016 145.836 224.34 142.778 233.233C140.736 238.81 138.162 248.412 132.586 251.167C131.813 251.439 131.383 250.493 132.24 250.262C139.159 246.636 143.521 228.499 144.394 220.943C144.922 216.353 144.678 211.727 144.689 207.118C144.629 205.735 144.837 204.014 146.681 204.945C147.166 203.509 146.859 201.701 148.184 200.684C148.742 200.146 149.195 200.472 149.601 201.068C150.729 199.927 150.764 199.214 151.888 201.054C155.999 196.77 154.065 212.152 154.069 213.889C152.366 229.033 147.775 244.235 139.635 257.185C139.455 257.762 138.125 258.471 138.326 257.395C139.067 255.94 140.267 254.772 140.959 253.277C149.063 237.789 154.773 218.87 153.171 201.29Z" fill="black"/>
<path d="M98.9667 230.434C97.9212 231.446 96.9356 232.397 95.9316 233.367C95.62 233.24 95.3569 233.134 95.1284 233.039C95.8693 230.57 98.5189 228.735 100.338 226.901C101.813 225.455 103.657 224.961 105.644 225.303C107.864 225.571 111.033 229.991 109.694 232.03C105.923 236.367 101.596 235.187 98.969 230.434H98.9667ZM106.269 226.781C106.297 229.185 106.112 231.256 105.63 233.549C107.338 233.337 108.31 231.665 108.757 230.139C108.737 228.97 107.472 227.049 106.269 226.783V226.781ZM102.976 233.376C102.743 231.222 103.054 229.557 102.563 227.527C101.45 227.878 100.649 228.864 99.8438 229.702C100.446 231.312 101.42 232.496 102.978 233.378L102.976 233.376Z" fill="black"/>
<path d="M117.3 236.452C114.821 236.39 113.147 233.337 113.122 231.139C113.868 228.779 114.648 223.911 118.059 224.811C122.47 226.412 122.532 236.06 117.3 236.452ZM118.922 226.578C119.121 229.391 118.996 232.125 118.592 234.919C121.064 233.617 120.704 228.282 118.922 226.578ZM115.342 227.904C114.539 228.52 114.094 231.213 114.228 232.215C114.652 233.196 115.202 234.997 116.374 235.152C115.564 231.755 115.518 231.626 115.342 227.906V227.904Z" fill="black"/>
<path d="M108.09 288.108C107.748 286.792 107.637 284.854 107.854 283.773C110.056 283.513 112.341 283.753 114.566 283.681C115.796 283.406 115.801 284.538 115.736 285.436C115.485 286.161 116.466 288.175 115.556 288.182C113.08 288.115 110.525 288.655 108.09 288.11V288.108ZM108.699 284.794C108.387 288.004 109.329 287.501 112.041 287.332C110.017 287.083 108.957 287.667 109.553 284.997C111.226 285.145 114.926 283.9 113.959 286.829C113.659 286.939 113.419 287.027 112.902 287.217C113.747 287.265 114.275 287.323 114.785 287.113C114.728 286.258 114.931 285.517 114.663 284.711C112.66 284.81 110.58 284.277 108.699 284.792V284.794ZM110.571 286.05C111.282 286.291 111.995 286.226 112.816 286.136C112.239 285.48 111.307 285.824 110.571 286.05Z" fill="black"/>
<path d="M107.273 237.39C107.377 237.674 107.471 237.937 107.559 238.18C108.916 238.54 113.186 238.503 114.638 238.11C114.414 235.582 117.066 238.598 114.705 239.14C112.464 239.507 110.19 239.263 107.935 239.253C106.546 239.122 104.374 237.004 107.273 237.39Z" fill="black"/>
<path d="M98.0917 286.152C98.0963 286.521 98.4471 288.606 97.3992 287.92C97.1431 286.639 97.083 285.131 97.2077 283.84C98.5071 282.614 97.9832 285.429 98.0917 286.152Z" fill="black"/>
<path d="M125.973 285.935C126.007 286.54 126.118 288.726 125.103 287.535C124.948 286.429 125.057 285.274 125.013 284.152C125.017 283.588 125.659 283.715 125.883 284.071C126.047 284.639 125.911 285.332 125.952 285.935H125.973Z" fill="black"/>
<path d="M111.778 234.868C112.286 235.127 112.087 235.884 111.522 235.864C110.901 235.755 111.187 234.829 111.778 234.868Z" fill="black"/>
<path d="M101.311 270.669C101.138 269.424 101.47 261.478 101.78 258.906C104.305 258.051 115.296 256.442 117.322 256.645C117.541 258.102 117.537 259.963 116.981 261.263C114.804 262.504 113.853 264.986 111.801 266.33C108.697 268.521 105.186 270.473 101.311 270.671V270.669ZM105.246 266.085C114.79 264.051 112.662 266.704 112.939 259.483C113.015 259.024 112.394 259.024 112.074 259.067C109.65 259.469 106.982 259.192 104.711 260.157C104.633 262.005 104.635 263.533 104.522 265.416C104.734 265.612 104.979 265.836 105.249 266.085H105.246Z" fill="white"/>
<path d="M117.556 272.174C117.611 275.557 117.253 278.622 116.928 281.702C114.613 282.173 112.231 281.732 109.9 281.561C107.036 281.289 104.199 281.511 101.321 281.469C101.081 280.451 101.159 279.518 101.236 278.525C107.35 278.088 112.748 276.206 117.556 272.174Z" fill="white"/>
<path d="M119.238 270.964C119.24 274.188 119.113 277.218 119.09 280.416C119.083 281.118 118.771 281.485 118.063 281.663C117.846 278.716 118.635 275.781 118.531 272.805C118.626 272.04 118.4 271.426 119.238 270.964Z" fill="white"/>
<path d="M118.269 260.561C118.382 259.199 118.167 257.894 118.52 256.61H119.372C119.723 258.014 119.416 259.513 119.513 261.06C119.069 260.769 118.774 260.626 118.269 260.563V260.561Z" fill="white"/>
<path d="M103.467 257.513C103.267 256.896 103.366 256.367 103.574 255.758C103.885 256.358 104.171 257.169 103.467 257.513Z" fill="white"/>
<path d="M119.616 261.803C119.639 261.91 119.727 262.019 119.593 262.079C119.567 261.973 119.486 261.868 119.616 261.803Z" fill="white"/>
<path d="M106.267 226.781C107.465 227.042 108.736 228.973 108.755 230.136C108.307 231.665 107.333 233.335 105.627 233.547C106.11 231.254 106.297 229.185 106.267 226.779V226.781Z" fill="white"/>
<path d="M102.975 233.379C101.417 232.499 100.443 231.312 99.8408 229.703C100.646 228.864 101.447 227.878 102.56 227.527C103.051 229.559 102.74 231.222 102.973 233.377L102.975 233.379Z" fill="white"/>
<path d="M118.922 226.578C120.701 228.282 121.066 233.614 118.592 234.919C118.996 232.125 119.12 229.391 118.922 226.578Z" fill="white"/>
<path d="M115.343 227.901C115.52 231.624 115.564 231.751 116.374 235.148C115.202 234.995 114.65 233.192 114.228 232.213C114.094 231.201 114.535 228.534 115.343 227.901Z" fill="white"/>
<path d="M108.699 284.794C110.58 284.279 112.658 284.813 114.663 284.713C114.931 285.519 114.728 286.258 114.786 287.115C114.276 287.325 113.747 287.265 112.902 287.219C113.419 287.027 113.659 286.942 113.959 286.831C114.926 283.903 111.229 285.147 109.553 285C108.958 287.674 110.02 287.085 112.041 287.334C109.323 287.503 108.39 288.004 108.699 284.796V284.794Z" fill="white"/>
<path d="M105.248 266.085C104.978 265.835 104.735 265.611 104.521 265.415C104.631 263.533 104.629 262.004 104.71 260.157C106.981 259.192 109.649 259.469 112.072 259.067C112.393 259.021 113.016 259.023 112.94 259.483C112.661 266.695 114.805 264.05 105.248 266.085Z" fill="black"/>
<circle cx="71.1217" cy="27.1217" r="7.1857" fill="#B3EDE3"/>
<path d="M71.7635 29.4282V25.891H70.7866V25.2172H71.5614C71.6962 25.2172 71.7635 25.1498 71.7635 25.0151V24.7119H72.471V29.4282H71.7635Z" fill="white"/>
</g>
<rect x="0.594144" y="10.5956" width="224.889" height="274.1" rx="3.60943" stroke="#EEEEEE" stroke-width="0.481257"/>
<defs>
<clipPath id="clip0_1753_53357">
<rect x="0.353516" y="10.355" width="225.37" height="274.581" rx="3.85006" fill="white"/>
</clipPath>
</defs>
</svg>
