<svg width="226" height="275" viewBox="0 0 226 275" fill="none" xmlns="http://www.w3.org/2000/svg">
<g clip-path="url(#clip0_1753_53500)">
<rect x="0.353516" y="0.205078" width="225.37" height="274.581" rx="3.85006" fill="white"/>
<path d="M46.0687 19.4584V26.2582H50.6449V29.4809H46.0687V38.7944H42.5238V16.2357H51.9017V19.4584H46.0687ZM53.6017 38.7944V16.2357H57.1467V38.7944H53.6017ZM70.7602 38.7944H67.1508C66.936 38.1499 66.8285 37.2261 66.8285 36.0229V32.478C66.8285 31.4467 66.6459 30.7162 66.2807 30.2866C65.9154 29.8354 65.3246 29.6098 64.5082 29.6098H63.2836V38.7944H59.7386V16.2357H65.0883C66.9145 16.2357 68.2465 16.6654 69.0844 17.5248C69.9223 18.3626 70.3413 19.6625 70.3413 21.4242V23.1967C70.3413 25.517 69.5678 27.0424 68.0209 27.7729C69.5893 28.4389 70.3735 30.0395 70.3735 32.5747V36.0552C70.3735 37.2798 70.5024 38.1929 70.7602 38.7944ZM64.9916 19.4584H63.2836V26.3871H64.6693C65.3783 26.3871 65.9047 26.2045 66.2485 25.8393C66.6137 25.474 66.7963 24.8617 66.7963 24.0023V21.7787C66.7963 20.2318 66.1947 19.4584 64.9916 19.4584ZM72.2537 21.6498C72.2537 19.8236 72.6942 18.4271 73.575 17.4603C74.4559 16.472 75.7557 15.9779 77.4745 15.9779C79.1932 15.9779 80.493 16.472 81.3739 17.4603C82.2548 18.4271 82.6952 19.8236 82.6952 21.6498V22.3588H79.3436V21.4242C79.3436 19.9418 78.7528 19.2005 77.5711 19.2005C76.3895 19.2005 75.7987 19.9418 75.7987 21.4242C75.7987 22.0472 75.9276 22.6381 76.1854 23.1967C76.4432 23.7553 76.7762 24.2601 77.1844 24.7113C77.5926 25.1625 78.0438 25.6137 78.5379 26.0648C79.0321 26.4945 79.5155 26.9565 79.9881 27.4506C80.4823 27.9233 80.9335 28.4389 81.3417 28.9975C81.7499 29.5346 82.0829 30.1791 82.3407 30.9311C82.5985 31.6831 82.7274 32.4995 82.7274 33.3803C82.7274 35.2065 82.2763 36.6138 81.3739 37.602C80.4716 38.5688 79.161 39.0522 77.4422 39.0522C75.7235 39.0522 74.4129 38.5688 73.5106 37.602C72.6082 36.6138 72.157 35.2065 72.157 33.3803V31.9946H75.5086V33.6059C75.5086 35.0669 76.1209 35.7973 77.3456 35.7973C78.5702 35.7973 79.1825 35.0669 79.1825 33.6059C79.1825 32.768 78.9461 31.9838 78.4735 31.2534C78.0008 30.5014 77.4207 29.8246 76.7332 29.2231C76.0672 28.6215 75.3905 27.9985 74.703 27.3539C74.0155 26.6879 73.4354 25.8715 72.9627 24.9047C72.49 23.9164 72.2537 22.8314 72.2537 21.6498ZM83.7272 19.4584V16.2357H94.6843V19.4584H90.9782V38.7944H87.4333V19.4584H83.7272ZM106.148 16.2357L108.758 32.2524L111.175 16.2357H116.106V38.7944H112.754V22.6166L110.305 38.7944H106.954L104.311 22.8422V38.7944H101.217V16.2357H106.148ZM122.23 19.4584V25.7426H127.096V28.9653H122.23V35.5718H128.353V38.7944H118.685V16.2357H128.353V19.4584H122.23ZM134.094 19.4584V25.7426H138.961V28.9653H134.094V35.5718H140.218V38.7944H130.549V16.2357H140.218V19.4584H134.094ZM141.383 19.4584V16.2357H152.34V19.4584H148.634V38.7944H145.089V19.4584H141.383ZM153.901 38.7944V16.2357H157.446V38.7944H153.901ZM167.612 38.7944L163.196 22.4554V38.7944H160.006V16.2357H164.453L168.095 29.7387V16.2357H171.253V38.7944H167.612ZM179.109 29.4487V26.226H184.072V33.3803C184.072 35.2065 183.62 36.6138 182.718 37.602C181.816 38.5688 180.505 39.0522 178.786 39.0522C177.068 39.0522 175.757 38.5688 174.855 37.602C173.952 36.6138 173.501 35.2065 173.501 33.3803V21.6498C173.501 19.8236 173.952 18.4271 174.855 17.4603C175.757 16.472 177.068 15.9779 178.786 15.9779C180.505 15.9779 181.816 16.472 182.718 17.4603C183.62 18.4271 184.072 19.8236 184.072 21.6498V23.8412H180.72V21.4242C180.72 19.9418 180.108 19.2005 178.883 19.2005C177.658 19.2005 177.046 19.9418 177.046 21.4242V33.6059C177.046 35.0669 177.658 35.7973 178.883 35.7973C180.108 35.7973 180.72 35.0669 180.72 33.6059V29.4487H179.109Z" fill="black"/>
<path d="M99.6132 144.769V156.951C99.6132 158.434 100.226 159.175 101.45 159.175C102.675 159.175 103.287 158.434 103.287 156.951V144.769C103.287 143.287 102.675 142.546 101.45 142.546C100.226 142.546 99.6132 143.287 99.6132 144.769ZM96.0682 156.726V144.995C96.0682 143.19 96.5302 141.794 97.454 140.806C98.3778 139.817 99.7099 139.323 101.45 139.323C103.19 139.323 104.522 139.817 105.446 140.806C106.37 141.794 106.832 143.19 106.832 144.995V156.726C106.832 158.53 106.37 159.927 105.446 160.915C104.522 161.903 103.19 162.397 101.45 162.397C99.7099 162.397 98.3778 161.903 97.454 160.915C96.5302 159.927 96.0682 158.53 96.0682 156.726ZM115.968 146.381V145.124C115.968 144.157 115.807 143.491 115.484 143.126C115.184 142.739 114.732 142.546 114.131 142.546C112.906 142.546 112.294 143.287 112.294 144.769V146.22H108.942V144.995C108.942 143.169 109.394 141.772 110.296 140.806C111.198 139.817 112.509 139.323 114.228 139.323C115.946 139.323 117.257 139.817 118.159 140.806C119.062 141.772 119.513 143.169 119.513 144.995V145.575C119.513 147.981 118.686 149.528 117.031 150.216C118.686 150.946 119.513 152.525 119.513 154.953V156.726C119.513 158.552 119.062 159.959 118.159 160.947C117.257 161.914 115.946 162.397 114.228 162.397C112.509 162.397 111.198 161.914 110.296 160.947C109.394 159.959 108.942 158.552 108.942 156.726V154.856H112.294V156.951C112.294 158.434 112.906 159.175 114.131 159.175C114.732 159.175 115.184 158.992 115.484 158.627C115.807 158.24 115.968 157.574 115.968 156.629V154.856C115.968 153.825 115.785 153.095 115.42 152.665C115.055 152.214 114.464 151.988 113.647 151.988H112.455V148.766H113.841C114.55 148.766 115.076 148.583 115.42 148.218C115.785 147.852 115.968 147.24 115.968 146.381ZM121.913 158.724H125.329V162.14H121.913V158.724Z" fill="black"/>
<path d="M49.8879 173.756L49.8205 173.15L49.7869 173.15C49.6925 173.267 49.5713 173.379 49.423 173.487C49.0996 173.711 48.7268 173.824 48.3046 173.824C47.6713 173.824 47.1367 173.597 46.701 173.143C46.2653 172.69 46.0475 172.108 46.0475 171.398C46.0475 170.688 46.2653 170.107 46.701 169.653C47.1367 169.199 47.6713 168.973 48.3046 168.973C48.8616 168.973 49.3265 169.132 49.6993 169.451C50.0766 169.77 50.3191 170.149 50.4269 170.59L49.6858 170.59C49.569 170.289 49.3871 170.057 49.14 169.896C48.8975 169.73 48.619 169.646 48.3046 169.646C47.8554 169.646 47.4848 169.806 47.1929 170.125C46.9009 170.444 46.7549 170.868 46.7549 171.398C46.7549 171.928 46.9009 172.353 47.1929 172.672C47.4848 172.991 47.8554 173.15 48.3046 173.15C48.6999 173.15 49.039 173.022 49.322 172.766C49.6094 172.505 49.7532 172.218 49.7532 171.904L49.7532 171.87L48.4393 171.87L48.4393 171.297L50.4606 171.297L50.4606 173.756L49.8879 173.756ZM51.4015 173.756L51.4015 169.04L54.5008 169.04L54.5008 169.714L52.109 169.714L52.109 171.061L54.3661 171.061L54.3661 171.735L52.109 171.735L52.109 173.083L54.5008 173.083L54.5008 173.756L51.4015 173.756ZM56.4873 173.756L56.4873 169.714L55.0051 169.714L55.0051 169.04L58.6771 169.04L58.6771 169.714L57.1948 169.714L57.1948 173.756L56.4873 173.756ZM61.6063 173.756L61.6063 169.714L60.1241 169.714L60.1241 169.04L63.7961 169.04L63.7961 169.714L62.3138 169.714L62.3138 173.756L61.6063 173.756ZM67.9628 173.143C67.5271 173.597 66.9926 173.824 66.3592 173.824C65.7259 173.824 65.1914 173.597 64.7557 173.143C64.32 172.69 64.1021 172.108 64.1021 171.398C64.1021 170.688 64.32 170.107 64.7557 169.653C65.1914 169.199 65.7259 168.973 66.3592 168.973C66.9926 168.973 67.5271 169.199 67.9628 169.653C68.3985 170.107 68.6163 170.688 68.6163 171.398C68.6163 172.108 68.3985 172.69 67.9628 173.143ZM67.4709 170.125C67.179 169.806 66.8084 169.646 66.3592 169.646C65.9101 169.646 65.5395 169.806 65.2475 170.125C64.9556 170.444 64.8096 170.868 64.8096 171.398C64.8096 171.928 64.9556 172.353 65.2475 172.672C65.5395 172.991 65.9101 173.15 66.3592 173.15C66.8084 173.15 67.179 172.991 67.4709 172.672C67.7629 172.353 67.9089 171.928 67.9089 171.398C67.9089 170.868 67.7629 170.444 67.4709 170.125ZM71.009 173.756L71.009 169.04L71.7164 169.04L71.7164 171.196L73.5221 169.04L74.4115 169.04L72.4575 171.365L74.5462 173.756L73.6568 173.756L71.7164 171.533L71.7164 173.756L71.009 173.756ZM74.9831 173.756L74.9831 169.04L76.0274 169.04L77.9476 172.712L78.0824 172.712L78.0824 169.04L78.7898 169.04L78.7898 173.756L77.7455 173.756L75.8253 170.084L75.6905 170.084L75.6905 173.756L74.9831 173.756ZM83.4579 173.143C83.0222 173.597 82.4877 173.824 81.8544 173.824C81.2211 173.824 80.6865 173.597 80.2508 173.143C79.8151 172.69 79.5973 172.108 79.5973 171.398C79.5973 170.688 79.8151 170.107 80.2508 169.653C80.6865 169.199 81.2211 168.973 81.8544 168.973C82.4877 168.973 83.0222 169.199 83.4579 169.653C83.8936 170.107 84.1115 170.688 84.1115 171.398C84.1115 172.108 83.8936 172.69 83.4579 173.143ZM82.9661 170.125C82.6741 169.806 82.3036 169.646 81.8544 169.646C81.4052 169.646 81.0346 169.806 80.7427 170.125C80.4507 170.444 80.3047 170.868 80.3047 171.398C80.3047 171.928 80.4507 172.353 80.7427 172.672C81.0346 172.991 81.4052 173.15 81.8544 173.15C82.3036 173.15 82.6741 172.991 82.9661 172.672C83.2581 172.353 83.404 171.928 83.404 171.398C83.404 170.868 83.2581 170.444 82.9661 170.125ZM85.6595 173.756L84.4805 169.04L85.2553 169.04L86.1649 172.746L86.2996 172.746L87.2766 169.04L88.1525 169.04L89.1294 172.746L89.2642 172.746L90.1737 169.04L90.9486 169.04L89.7695 173.756L88.6915 173.756L87.7819 170.219L87.6471 170.219L86.7376 173.756L85.6595 173.756ZM93.8813 173.756L93.8813 172.072L92.1632 169.04L92.9447 169.04L94.1844 171.23L94.3192 171.23L95.5252 169.04L96.3068 169.04L94.5887 172.072L94.5887 173.756L93.8813 173.756ZM100.308 173.143C99.8728 173.597 99.3383 173.824 98.705 173.824C98.0716 173.824 97.5371 173.597 97.1014 173.143C96.6657 172.69 96.4479 172.108 96.4479 171.398C96.4479 170.688 96.6657 170.107 97.1014 169.653C97.5371 169.199 98.0716 168.973 98.705 168.973C99.3383 168.973 99.8728 169.199 100.308 169.653C100.744 170.107 100.962 170.688 100.962 171.398C100.962 172.108 100.744 172.69 100.308 173.143ZM99.8167 170.125C99.5247 169.806 99.1541 169.646 98.705 169.646C98.2558 169.646 97.8852 169.806 97.5932 170.125C97.3013 170.444 97.1553 170.868 97.1553 171.398C97.1553 171.928 97.3013 172.353 97.5932 172.672C97.8852 172.991 98.2558 173.15 98.705 173.15C99.1541 173.15 99.5247 172.991 99.8167 172.672C100.109 172.353 100.255 171.928 100.255 171.398C100.255 170.868 100.109 170.444 99.8167 170.125ZM101.735 171.87L101.735 169.04L102.443 169.04L102.443 171.87C102.443 172.252 102.553 172.562 102.773 172.8C102.997 173.033 103.28 173.15 103.622 173.15C103.963 173.15 104.244 173.033 104.464 172.8C104.689 172.562 104.801 172.252 104.801 171.87L104.801 169.04L105.508 169.04L105.508 171.87C105.508 172.458 105.333 172.932 104.983 173.291C104.637 173.646 104.183 173.824 103.622 173.824C103.06 173.824 102.604 173.646 102.254 173.291C101.908 172.932 101.735 172.458 101.735 171.87ZM106.487 173.756L106.487 169.04L108.609 169.04C109.004 169.04 109.332 169.182 109.593 169.464C109.858 169.743 109.99 170.107 109.99 170.556C109.99 171.005 109.858 171.371 109.593 171.654C109.332 171.933 109.004 172.072 108.609 172.072L108.441 172.072L110.125 173.756L109.215 173.756L107.531 172.072L107.194 172.072L107.194 173.756L106.487 173.756ZM107.194 171.398L108.575 171.398C108.768 171.398 108.935 171.32 109.074 171.162C109.213 171.005 109.283 170.803 109.283 170.556C109.283 170.309 109.213 170.107 109.074 169.95C108.935 169.792 108.768 169.714 108.575 169.714L107.194 169.714L107.194 171.398ZM112.454 173.756L112.454 169.04L114.543 169.04C114.929 169.04 115.25 169.168 115.507 169.424C115.763 169.676 115.891 169.986 115.891 170.354C115.891 170.65 115.805 170.906 115.635 171.122C115.567 171.207 115.484 171.288 115.385 171.365L115.385 171.398C115.493 171.461 115.587 171.542 115.668 171.641C115.861 171.87 115.958 172.137 115.958 172.443C115.958 172.815 115.83 173.128 115.574 173.379C115.322 173.631 115.008 173.756 114.631 173.756L112.454 173.756ZM113.162 171.095L114.509 171.095C114.698 171.095 114.857 171.028 114.988 170.893C115.118 170.758 115.183 170.59 115.183 170.388C115.183 170.185 115.118 170.017 114.988 169.882C114.857 169.747 114.698 169.68 114.509 169.68L113.162 169.68L113.162 171.095ZM113.162 173.116L114.577 173.116C114.765 173.116 114.925 173.049 115.055 172.914C115.185 172.779 115.25 172.611 115.25 172.409C115.25 172.207 115.185 172.038 115.055 171.904C114.925 171.769 114.765 171.701 114.577 171.701L113.162 171.701L113.162 173.116ZM116.803 171.87L116.803 169.04L117.51 169.04L117.51 171.87C117.51 172.252 117.62 172.562 117.84 172.8C118.065 173.033 118.348 173.15 118.689 173.15C119.031 173.15 119.311 173.033 119.531 172.8C119.756 172.562 119.868 172.252 119.868 171.87L119.868 169.04L120.576 169.04L120.576 171.87C120.576 172.458 120.401 172.932 120.05 173.291C119.704 173.646 119.251 173.824 118.689 173.824C118.128 173.824 117.672 173.646 117.322 173.291C116.976 172.932 116.803 172.458 116.803 171.87ZM122.262 173.083L123.205 173.083C123.649 173.083 124.018 172.928 124.31 172.618C124.606 172.303 124.754 171.897 124.754 171.398C124.754 170.9 124.606 170.495 124.31 170.185C124.018 169.871 123.649 169.714 123.205 169.714L122.262 169.714L122.262 173.083ZM121.554 173.756L121.554 169.04L123.205 169.04C123.847 169.04 124.384 169.262 124.815 169.707C125.246 170.152 125.462 170.715 125.462 171.398C125.462 172.081 125.246 172.645 124.815 173.089C124.384 173.534 123.847 173.756 123.205 173.756L121.554 173.756ZM126.979 173.083L127.922 173.083C128.367 173.083 128.735 172.928 129.027 172.618C129.324 172.303 129.472 171.897 129.472 171.398C129.472 170.9 129.324 170.495 129.027 170.185C128.735 169.871 128.367 169.714 127.922 169.714L126.979 169.714L126.979 173.083ZM126.272 173.756L126.272 169.04L127.922 169.04C128.565 169.04 129.102 169.262 129.533 169.707C129.964 170.152 130.18 170.715 130.18 171.398C130.18 172.081 129.964 172.645 129.533 173.089C129.102 173.534 128.565 173.756 127.922 173.756L126.272 173.756ZM132.037 173.756L132.037 172.072L130.319 169.04L131.1 169.04L132.34 171.23L132.475 171.23L133.681 169.04L134.462 169.04L132.744 172.072L132.744 173.756L132.037 173.756ZM135.814 173.756L137.532 169.04L138.61 169.04L140.328 173.756L139.553 173.756L139.149 172.645L136.993 172.645L136.588 173.756L135.814 173.756ZM137.228 172.005L138.913 172.005L138.138 169.849L138.003 169.849L137.228 172.005ZM140.833 173.756L140.833 169.04L141.877 169.04L143.797 172.712L143.932 172.712L143.932 169.04L144.639 169.04L144.639 173.756L143.595 173.756L141.675 170.084L141.54 170.084L141.54 173.756L140.833 173.756ZM146.356 173.083L147.3 173.083C147.744 173.083 148.113 172.928 148.405 172.618C148.701 172.303 148.849 171.897 148.849 171.398C148.849 170.9 148.701 170.495 148.405 170.185C148.113 169.871 147.744 169.714 147.3 169.714L146.356 169.714L146.356 173.083ZM145.649 173.756L145.649 169.04L147.3 169.04C147.942 169.04 148.479 169.262 148.91 169.707C149.341 170.152 149.557 170.715 149.557 171.398C149.557 172.081 149.341 172.645 148.91 173.089C148.479 173.534 147.942 173.756 147.3 173.756L145.649 173.756ZM151.447 173.756L153.165 169.04L154.243 169.04L155.961 173.756L155.186 173.756L154.782 172.645L152.626 172.645L152.222 173.756L151.447 173.756ZM152.862 172.005L154.546 172.005L153.771 169.849L153.637 169.849L152.862 172.005ZM156.23 172.308L156.938 172.308C156.938 172.537 157.043 172.734 157.254 172.901C157.47 173.067 157.746 173.15 158.083 173.15C158.451 173.15 158.723 173.087 158.898 172.961C159.073 172.831 159.161 172.658 159.161 172.443C159.161 172.097 158.891 171.872 158.352 171.769L157.443 171.6C157.075 171.533 156.796 171.391 156.607 171.176C156.423 170.96 156.331 170.686 156.331 170.354C156.331 169.959 156.484 169.631 156.789 169.37C157.095 169.105 157.503 168.973 158.016 168.973C158.581 168.973 159.019 169.116 159.329 169.404C159.644 169.687 159.801 170.048 159.801 170.489L159.094 170.489C159.094 170.26 158.995 170.062 158.797 169.896C158.599 169.73 158.339 169.646 158.016 169.646C157.71 169.646 157.47 169.716 157.295 169.855C157.124 169.99 157.039 170.156 157.039 170.354C157.039 170.686 157.274 170.9 157.746 170.994L158.487 171.129C158.963 171.214 159.311 171.362 159.531 171.573C159.756 171.78 159.868 172.07 159.868 172.443C159.868 172.847 159.713 173.179 159.403 173.44C159.094 173.696 158.653 173.824 158.083 173.824C157.512 173.824 157.061 173.68 156.729 173.393C156.396 173.105 156.23 172.743 156.23 172.308ZM160.677 173.756L160.677 169.04L161.384 169.04L161.384 171.196L163.19 169.04L164.079 169.04L162.125 171.365L164.214 173.756L163.325 173.756L161.384 171.533L161.384 173.756L160.677 173.756ZM166.237 173.756L166.237 169.04L166.944 169.04L166.944 171.028L169.336 171.028L169.336 169.04L170.043 169.04L170.043 173.756L169.336 173.756L169.336 171.701L166.944 171.701L166.944 173.756L166.237 173.756ZM171.053 173.756L171.053 169.04L171.76 169.04L171.76 173.756L171.053 173.756ZM172.77 173.756L172.77 169.04L173.983 169.04L175.23 172.746L175.364 172.746L176.611 169.04L177.824 169.04L177.824 173.756L177.116 173.756L177.116 170.152L176.981 170.152L175.769 173.756L174.825 173.756L173.613 170.152L173.478 170.152L173.478 173.756L172.77 173.756ZM60.8578 181.756L62.5759 177.04L63.6539 177.04L65.372 181.756L64.5972 181.756L64.1929 180.645L62.0369 180.645L61.6327 181.756L60.8578 181.756ZM62.2727 180.005L63.9571 180.005L63.1823 177.849L63.0475 177.849L62.2727 180.005ZM65.8768 181.756L65.8768 177.04L66.9211 177.04L68.8414 180.712L68.9761 180.712L68.9761 177.04L69.6836 177.04L69.6836 181.756L68.6392 181.756L66.719 178.084L66.5843 178.084L66.5843 181.756L65.8768 181.756ZM71.8722 181.756L71.8722 180.072L70.1541 177.04L70.9357 177.04L72.1754 179.23L72.3102 179.23L73.5162 177.04L74.2977 177.04L72.5797 180.072L72.5797 181.756L71.8722 181.756ZM79.6915 181.958L79.294 181.547C78.9616 181.732 78.6 181.824 78.2092 181.824C77.5759 181.824 77.0414 181.597 76.6057 181.143C76.17 180.69 75.9521 180.108 75.9521 179.398C75.9521 178.688 76.17 178.107 76.6057 177.653C77.0414 177.199 77.5759 176.973 78.2092 176.973C78.8426 176.973 79.3771 177.199 79.8128 177.653C80.2485 178.107 80.4663 178.688 80.4663 179.398C80.4663 180.126 80.2373 180.719 79.7791 181.177L80.5337 181.958L79.6915 181.958ZM78.8021 181.035L77.8724 180.072L78.7146 180.072L79.3075 180.685C79.6084 180.371 79.7589 179.942 79.7589 179.398C79.7589 178.868 79.6129 178.444 79.3209 178.125C79.029 177.806 78.6584 177.646 78.2092 177.646C77.7601 177.646 77.3895 177.806 77.0975 178.125C76.8056 178.444 76.6596 178.868 76.6596 179.398C76.6596 179.928 76.8056 180.353 77.0975 180.672C77.3895 180.991 77.7601 181.15 78.2092 181.15C78.4114 181.15 78.609 181.112 78.8021 181.035ZM81.2396 179.87L81.2396 177.04L81.947 177.04L81.947 179.87C81.947 180.252 82.0571 180.562 82.2772 180.8C82.5018 181.033 82.7847 181.15 83.1261 181.15C83.4675 181.15 83.7482 181.033 83.9683 180.8C84.1929 180.562 84.3052 180.252 84.3052 179.87L84.3052 177.04L85.0126 177.04L85.0126 179.87C85.0126 180.458 84.8375 180.932 84.4871 181.291C84.1412 181.646 83.6876 181.824 83.1261 181.824C82.5646 181.824 82.1087 181.646 81.7584 181.291C81.4125 180.932 81.2396 180.458 81.2396 179.87ZM85.9909 181.756L85.9909 177.04L89.0902 177.04L89.0902 177.714L86.6983 177.714L86.6983 179.061L88.9554 179.061L88.9554 179.735L86.6983 179.735L86.6983 181.083L89.0902 181.083L89.0902 181.756L85.9909 181.756ZM89.7292 180.308L90.4367 180.308C90.4367 180.537 90.5422 180.734 90.7533 180.901C90.9689 181.067 91.2452 181.15 91.582 181.15C91.9504 181.15 92.2221 181.087 92.3973 180.961C92.5725 180.831 92.6601 180.658 92.6601 180.443C92.6601 180.097 92.3906 179.872 91.8516 179.769L90.942 179.6C90.5737 179.533 90.2952 179.391 90.1065 179.176C89.9224 178.96 89.8303 178.686 89.8303 178.354C89.8303 177.959 89.983 177.631 90.2884 177.37C90.5939 177.105 91.0026 176.973 91.5147 176.973C92.0806 176.973 92.5186 177.116 92.8285 177.404C93.1429 177.687 93.3001 178.048 93.3001 178.489L92.5927 178.489C92.5927 178.26 92.4939 178.062 92.2962 177.896C92.0986 177.73 91.8381 177.646 91.5147 177.646C91.2092 177.646 90.9689 177.716 90.7938 177.855C90.6231 177.99 90.5377 178.156 90.5377 178.354C90.5377 178.686 90.7735 178.9 91.2452 178.994L91.9863 179.129C92.4624 179.214 92.8105 179.362 93.0306 179.573C93.2552 179.78 93.3675 180.07 93.3675 180.443C93.3675 180.847 93.2125 181.179 92.9026 181.44C92.5927 181.696 92.1525 181.824 91.582 181.824C91.0116 181.824 90.5602 181.68 90.2278 181.393C89.8954 181.105 89.7292 180.743 89.7292 180.308ZM95.1561 181.756L95.1561 177.714L93.6739 177.714L93.6739 177.04L97.3459 177.04L97.3459 177.714L95.8636 177.714L95.8636 181.756L95.1561 181.756ZM97.9857 181.756L97.9857 177.04L98.6931 177.04L98.6931 181.756L97.9857 181.756ZM103.361 181.143C102.926 181.597 102.391 181.824 101.758 181.824C101.125 181.824 100.59 181.597 100.154 181.143C99.7187 180.69 99.5008 180.108 99.5008 179.398C99.5008 178.688 99.7187 178.107 100.154 177.653C100.59 177.199 101.125 176.973 101.758 176.973C102.391 176.973 102.926 177.199 103.361 177.653C103.797 178.107 104.015 178.688 104.015 179.398C104.015 180.108 103.797 180.69 103.361 181.143ZM102.87 178.125C102.578 177.806 102.207 177.646 101.758 177.646C101.309 177.646 100.938 177.806 100.646 178.125C100.354 178.444 100.208 178.868 100.208 179.398C100.208 179.928 100.354 180.353 100.646 180.672C100.938 180.991 101.309 181.15 101.758 181.15C102.207 181.15 102.578 180.991 102.87 180.672C103.162 180.353 103.308 179.928 103.308 179.398C103.308 178.868 103.162 178.444 102.87 178.125ZM104.822 181.756L104.822 177.04L105.866 177.04L107.786 180.712L107.921 180.712L107.921 177.04L108.629 177.04L108.629 181.756L107.584 181.756L105.664 178.084L105.529 178.084L105.529 181.756L104.822 181.756ZM109.402 180.308L110.11 180.308C110.11 180.537 110.215 180.734 110.427 180.901C110.642 181.067 110.918 181.15 111.255 181.15C111.624 181.15 111.895 181.087 112.071 180.961C112.246 180.831 112.333 180.658 112.333 180.443C112.333 180.097 112.064 179.872 111.525 179.769L110.615 179.6C110.247 179.533 109.968 179.391 109.78 179.176C109.596 178.96 109.504 178.686 109.504 178.354C109.504 177.959 109.656 177.631 109.962 177.37C110.267 177.105 110.676 176.973 111.188 176.973C111.754 176.973 112.192 177.116 112.502 177.404C112.816 177.687 112.973 178.048 112.973 178.489L112.266 178.489C112.266 178.26 112.167 178.062 111.969 177.896C111.772 177.73 111.511 177.646 111.188 177.646C110.882 177.646 110.642 177.716 110.467 177.855C110.296 177.99 110.211 178.156 110.211 178.354C110.211 178.686 110.447 178.9 110.918 178.994L111.66 179.129C112.136 179.214 112.484 179.362 112.704 179.573C112.928 179.78 113.041 180.07 113.041 180.443C113.041 180.847 112.886 181.179 112.576 181.44C112.266 181.696 111.826 181.824 111.255 181.824C110.685 181.824 110.233 181.68 109.901 181.393C109.569 181.105 109.402 180.743 109.402 180.308ZM116.41 181.756L116.41 180.072L114.692 177.04L115.474 177.04L116.713 179.23L116.848 179.23L118.054 177.04L118.836 177.04L117.118 180.072L117.118 181.756L116.41 181.756ZM122.837 181.143C122.402 181.597 121.867 181.824 121.234 181.824C120.6 181.824 120.066 181.597 119.63 181.143C119.195 180.69 118.977 180.108 118.977 179.398C118.977 178.688 119.195 178.107 119.63 177.653C120.066 177.199 120.6 176.973 121.234 176.973C121.867 176.973 122.402 177.199 122.837 177.653C123.273 178.107 123.491 178.688 123.491 179.398C123.491 180.108 123.273 180.69 122.837 181.143ZM122.345 178.125C122.054 177.806 121.683 177.646 121.234 177.646C120.785 177.646 120.414 177.806 120.122 178.125C119.83 178.444 119.684 178.868 119.684 179.398C119.684 179.928 119.83 180.353 120.122 180.672C120.414 180.991 120.785 181.15 121.234 181.15C121.683 181.15 122.054 180.991 122.345 180.672C122.637 180.353 122.783 179.928 122.783 179.398C122.783 178.868 122.637 178.444 122.345 178.125ZM124.264 179.87L124.264 177.04L124.972 177.04L124.972 179.87C124.972 180.252 125.082 180.562 125.302 180.8C125.526 181.033 125.809 181.15 126.151 181.15C126.492 181.15 126.773 181.033 126.993 180.8C127.217 180.562 127.33 180.252 127.33 179.87L127.33 177.04L128.037 177.04L128.037 179.87C128.037 180.458 127.862 180.932 127.512 181.291C127.166 181.646 126.712 181.824 126.151 181.824C125.589 181.824 125.133 181.646 124.783 181.291C124.437 180.932 124.264 180.458 124.264 179.87ZM130.601 181.756L130.601 177.04L131.814 177.04L133.06 180.746L133.195 180.746L134.442 177.04L135.654 177.04L135.654 181.756L134.947 181.756L134.947 178.152L134.812 178.152L133.599 181.756L132.656 181.756L131.443 178.152L131.309 178.152L131.309 181.756L130.601 181.756ZM136.162 181.756L137.88 177.04L138.958 177.04L140.676 181.756L139.902 181.756L139.497 180.645L137.341 180.645L136.937 181.756L136.162 181.756ZM137.577 180.005L139.262 180.005L138.487 177.849L138.352 177.849L137.577 180.005ZM141.959 181.756L141.959 180.072L140.241 177.04L141.022 177.04L142.262 179.23L142.397 179.23L143.603 177.04L144.385 177.04L142.666 180.072L142.666 181.756L141.959 181.756ZM146.241 181.756L146.241 177.04L146.949 177.04L146.949 179.028L149.34 179.028L149.34 177.04L150.048 177.04L150.048 181.756L149.34 181.756L149.34 179.701L146.949 179.701L146.949 181.756L146.241 181.756ZM150.552 181.756L152.27 177.04L153.348 177.04L155.066 181.756L154.291 181.756L153.887 180.645L151.731 180.645L151.327 181.756L150.552 181.756ZM151.967 180.005L153.651 180.005L152.877 177.849L152.742 177.849L151.967 180.005ZM156.48 181.756L154.83 177.04L155.604 177.04L156.952 180.948L157.087 180.948L158.434 177.04L159.209 177.04L157.558 181.756L156.48 181.756ZM159.749 181.756L159.749 177.04L162.848 177.04L162.848 177.714L160.457 177.714L160.457 179.061L162.714 179.061L162.714 179.735L160.457 179.735L160.457 181.083L162.848 181.083L162.848 181.756L159.749 181.756Z" fill="#8B8B8B"/>
<rect x="2.31299" y="198.792" width="221.668" height="74.0345" rx="3.85006" fill="#03C3A3" fill-opacity="0.75"/>
<circle cx="110.223" cy="217.743" r="12.2392" fill="#FFA7D1"/>
<path d="M111.904 216.476C112.051 216.122 112.266 215.8 112.537 215.529C112.808 215.258 113.13 215.043 113.484 214.896C113.838 214.749 114.218 214.674 114.602 214.674C114.985 214.674 115.365 214.749 115.719 214.896C116.073 215.043 116.395 215.258 116.666 215.529C116.937 215.8 117.152 216.122 117.299 216.476" stroke="#ADE6ED" stroke-width="1.12286"/>
<path d="M101.577 216.477C101.723 216.122 101.938 215.801 102.21 215.529C102.481 215.258 102.802 215.043 103.157 214.897C103.511 214.75 103.89 214.674 104.274 214.674C104.657 214.674 105.037 214.75 105.391 214.897C105.745 215.043 106.067 215.258 106.338 215.529C106.609 215.801 106.824 216.122 106.971 216.477" stroke="#ADE6ED" stroke-width="1.12286"/>
<path d="M109.886 214.006L108.393 217.62C108.088 218.359 108.631 219.171 109.431 219.171H112.693" stroke="#ADE6ED" stroke-width="1.12286"/>
<path d="M104.899 221.529C104.71 221.529 104.523 221.484 104.354 221.399C104.185 221.314 104.039 221.191 103.928 221.039C103.818 220.887 103.745 220.712 103.716 220.527C103.688 220.342 103.704 220.154 103.764 219.976C103.824 219.799 103.926 219.639 104.062 219.508C104.197 219.377 104.363 219.28 104.544 219.224C104.725 219.169 104.917 219.156 105.104 219.188C105.291 219.22 105.467 219.295 105.619 219.408" stroke="#ADE6ED" stroke-width="1.12286"/>
<path d="M104.899 221.529C104.709 221.529 104.522 221.574 104.354 221.659C104.185 221.744 104.039 221.867 103.928 222.019C103.817 222.171 103.744 222.346 103.716 222.531C103.687 222.716 103.704 222.904 103.764 223.082C103.824 223.259 103.926 223.42 104.061 223.55C104.197 223.681 104.362 223.778 104.543 223.834C104.724 223.889 104.916 223.902 105.103 223.87C105.29 223.838 105.467 223.763 105.618 223.651" stroke="#ADE6ED" stroke-width="1.12286"/>
<path d="M110.209 232.49L121.239 237.802L123.963 249.737L116.33 259.308H104.088L96.4558 249.737L99.1798 237.802L110.209 232.49Z" fill="#ADE6ED"/>
<path d="M76.3523 295.621C76.3523 286.642 79.9194 278.03 86.269 271.68C92.6186 265.331 101.23 261.763 110.21 261.763C119.19 261.763 127.802 265.331 134.151 271.68C140.501 278.03 144.068 286.642 144.068 295.621L110.21 295.621L76.3523 295.621Z" fill="#FFA7D1"/>
<mask id="mask0_1753_53500" style="mask-type:alpha" maskUnits="userSpaceOnUse" x="76" y="261" width="69" height="35">
<path d="M76.3523 295.621C76.3523 286.642 79.9194 278.03 86.269 271.68C92.6186 265.331 101.23 261.763 110.21 261.763C119.19 261.763 127.802 265.331 134.151 271.68C140.501 278.03 144.068 286.642 144.068 295.621L110.21 295.621L76.3523 295.621Z" fill="#F5B539"/>
</mask>
<g mask="url(#mask0_1753_53500)">
<path d="M73.6162 264.916L78.2797 268.595L73.6162 272.275L68.9527 268.595L73.6162 264.916Z" fill="#FF4B11"/>
<path d="M95.8501 266.396L100.514 270.076L95.8501 273.756L91.1866 270.076L95.8501 266.396Z" fill="#FF4B11"/>
<path d="M110.288 266.396L114.952 270.075L110.288 273.755L105.625 270.075L110.288 266.396Z" fill="#FF4B11"/>
<path d="M124.734 266.332L129.397 270.012L124.734 273.692L120.07 270.012L124.734 266.332Z" fill="#FF4B11"/>
<path d="M147.827 261.611L152.491 265.291L147.827 268.971L143.164 265.291L147.827 261.611Z" fill="#FF4B11"/>
<path d="M88.0542 271.865L92.7177 275.545L88.0542 279.225L83.3907 275.545L88.0542 271.865Z" fill="#FF4B11"/>
<path d="M102.321 272.264L106.985 275.944L102.321 279.624L97.6578 275.944L102.321 272.264Z" fill="#FF4B11"/>
<path d="M118.06 272.264L122.723 275.944L118.06 279.623L113.396 275.944L118.06 272.264Z" fill="#FF4B11"/>
<path d="M132.234 272.548L136.897 276.228L132.234 279.908L127.57 276.228L132.234 272.548Z" fill="#FF4B11"/>
<path d="M80.9116 259.332L85.5751 263.012L80.9116 266.692L76.2482 263.012L80.9116 259.332Z" fill="#FF4B11"/>
<path d="M103.069 261.155L107.732 264.835L103.069 268.515L98.4054 264.835L103.069 261.155Z" fill="#FF4B11"/>
<path d="M117.481 261.155L122.145 264.835L117.481 268.515L112.818 264.835L117.481 261.155Z" fill="#FF4B11"/>
<path d="M133.1 257.282L137.764 260.962L133.1 264.642L128.437 260.962L133.1 257.282Z" fill="#FF4B11"/>
</g>
<path d="M73.7031 188.663C73.1729 189.65 72.8122 190.448 72.9643 191.415C73.1859 192.176 72.043 192.465 71.8909 191.818C71.8843 190.015 72.0821 188.2 71.6019 186.43C71.4954 185.956 71 185.558 70.7979 186.152C69.8244 187.674 71.1412 191.089 70.1308 191.811C69.1204 191.248 69.8744 187.289 68.9226 186.041C67.7753 186.017 68.4815 192.198 67.5363 191.935C66.9127 191.794 67.18 190.883 67.1387 190.409C67.1495 189.404 67.2104 187.102 66.452 186.513C65.5481 208.403 77.4666 228.753 95.0151 241.258C95.6083 241.969 98.6439 242.973 98.2962 243.808C98.105 244.123 97.7269 244.04 97.4618 243.869C77.8468 231.638 64.5725 209.393 65.5068 185.993C66.678 185.032 66.7345 185.043 67.469 186.339C68.1469 185.098 68.6597 184.404 69.9048 185.685C71.88 183.337 72.4841 186.315 72.8513 187.948C75.8086 185.311 74.8938 194.822 74.8547 196.183C75.0525 212.106 85.4999 228.1 99.0959 236.057C99.7238 236.61 101.582 236.71 101.445 237.681C101.091 238.236 100.111 237.577 99.6282 237.36C85.4977 229.707 75.9477 214.484 73.8334 198.701C73.7617 195.361 74.8373 191.933 73.7031 188.657V188.663Z" fill="black"/>
<path d="M123.483 265.014C124.289 266.607 125.306 268.018 126.527 269.362C126.883 268.597 125.803 268.379 126.142 267.679C126.494 267.22 127.007 267.864 127.324 268.075C128.646 269.171 130.154 269.921 131.72 270.51C132.385 270.012 129.217 266.97 128.615 266.592C127.763 266.005 129.091 265.29 129.282 264.668C132.672 257.357 137.387 250.535 139.308 242.632C140.712 236.447 135.99 232.71 130.08 234.244C125.849 235.051 121.777 236.514 117.907 238.356C116.308 237.701 119.869 236.566 120.384 236.262C128.096 233.064 141.479 229.353 140.268 242.271C138.476 250.665 133.311 257.739 129.873 265.49C130.799 266.227 136.12 269.56 133.856 270.608C133.513 270.666 133.278 270.725 133.135 271.082C131.54 272.108 129.662 270.377 128.172 269.788C127.865 269.905 128.022 270.123 128.009 270.295C127.957 271.56 126.744 270.827 126.227 270.288C125.138 268.973 121.766 265.814 123.039 264.09C126.592 259.105 129.58 253.75 132.722 248.502C133.858 246.347 135.338 244.139 135.44 241.638C134.923 237.727 129.619 238.56 127.001 239.725C124.958 240.477 123.089 241.604 121.121 242.502C120.525 242.543 120.619 241.745 121.114 241.61C125.084 239.593 130.073 236.358 134.525 238.682C135.955 239.554 136.577 240.854 136.266 242.504C133.474 250.678 128.102 257.746 123.483 265.016V265.014ZM133.093 269.445C132.311 268.358 132.027 268.105 131.018 267.655C131.74 268.351 131.97 269.208 133.093 269.445Z" fill="black"/>
<path d="M95.9287 222.279C96.0939 221.042 96.5654 219.955 97.2824 218.975C97.0195 220.159 96.6045 221.283 95.9287 222.279Z" fill="white"/>
<circle cx="110.271" cy="217.805" r="12.2717" fill="white"/>
<path d="M110.463 205.758C113.709 205.758 116.822 207.047 119.118 209.343C121.413 211.638 122.703 214.751 122.703 217.997C122.703 221.243 121.413 224.356 119.118 226.652C116.822 228.947 113.709 230.236 110.463 230.236L110.463 217.997L110.463 205.758Z" fill="black"/>
<circle cx="110.327" cy="198.398" r="5.99565" fill="#FF4B11"/>
<circle cx="110.327" cy="189.11" r="5.99565" fill="#FF4B11"/>
<path d="M110.26 230.25C109.625 230.574 108.974 230.65 108.33 230.435C103.448 228.826 98.8043 225.17 98.135 219.765C97.6809 220.519 95.3537 227.333 94.6366 224.107C94.7105 220.489 97.1702 217.661 98.6565 214.602C95.5557 214.258 92.3528 214.586 89.213 214.476C88.6741 214.421 87.8636 214.663 87.6463 213.999C87.4725 213.188 88.685 212.86 89.1739 212.395C96.2858 207.964 103.287 203.357 110.462 199.038C115.103 202.131 119.723 205.223 124.36 208.321C126.657 209.858 128.951 211.399 131.244 212.941C132.285 213.402 132 214.623 130.811 214.419C127.85 214.499 124.89 214.578 121.928 214.658C121.238 214.678 121.146 214.636 120.929 213.939C120.716 213.062 119.953 212.545 119.497 211.806C118.085 210.021 116.568 207.821 114.228 207.277C112.857 206.771 111.588 205.897 110.053 206.353C103.439 206.745 98.6022 212.897 99.0846 219.408C99.3192 225.437 105.319 228.513 110.264 230.248L110.26 230.25ZM95.9273 222.278C96.6031 221.28 97.0159 220.159 97.281 218.974C96.564 219.956 96.0924 221.041 95.9273 222.278Z" fill="black"/>
<path d="M120.185 215.202C119.275 219.104 113.428 219.3 111.107 216.697C108.919 212.86 118.458 210.941 120.185 215.202ZM118.115 214.326C117.782 217.643 114.158 218.5 113.291 215.073C113.247 214.791 113.41 214.436 113 214.18C109.545 216.05 113.673 217.743 115.827 217.469C117.476 217.624 120.809 215.513 118.115 214.323V214.326ZM114.44 213.789C113.369 215.034 115.099 217.076 116.374 216.139C118.167 214.039 116.628 213.073 114.44 213.789Z" fill="black"/>
<path d="M114.163 219.602C113.921 224.703 109.004 226.901 105.575 222.974C104.945 222.172 104.091 220.044 105.712 219.913C108.591 219.926 111.251 219.555 114.163 219.602ZM113.124 220.592C110.649 220.331 108.194 220.774 105.716 220.894C105.825 223.011 108.05 224.157 109.941 224.087C111.803 224.064 112.726 222.211 113.124 220.592Z" fill="black"/>
<path d="M122.045 216.807C123.445 218.681 124.94 220.766 125.39 223.094C125.166 225.159 123.03 223.185 122.578 222.24C121.815 221.029 121.337 219.692 120.97 218.315C120.614 217.309 121.044 216.981 122.045 216.807ZM121.989 218.407C122.426 219.902 122.967 222.17 124.414 222.89C124.24 221.663 123.217 219.718 121.989 218.407Z" fill="black"/>
<path d="M104.586 211.221C107.107 211.254 107.702 214.876 106.316 213.745C106.09 212.941 105.471 212.036 104.543 212.121C103.682 212.154 103.226 212.919 102.95 213.66C101.401 214.367 102.611 211.215 104.588 211.221H104.586Z" fill="black"/>
<path d="M104.341 216.05C103.645 215.919 102.292 216.424 102.009 215.587C102.027 215.363 102.268 215.176 102.489 215.184C103.819 215.356 105.308 215.117 106.555 215.56C107.061 216.634 104.88 216.067 104.343 216.097C104.343 216.082 104.343 216.067 104.343 216.05H104.341Z" fill="black"/>
<path d="M118.117 214.327C120.809 215.516 117.478 217.627 115.829 217.473C113.678 217.747 109.545 216.053 113.002 214.184C113.413 214.44 113.25 214.795 113.293 215.077C114.162 218.503 117.785 217.643 118.115 214.329L118.117 214.327Z" fill="white"/>
<path d="M114.443 213.791C116.635 213.075 118.167 214.043 116.377 216.141C115.101 217.078 113.372 215.036 114.443 213.791Z" fill="white"/>
<path d="M113.124 220.59C112.728 222.209 111.803 224.061 109.94 224.085C108.05 224.155 105.825 223.009 105.716 220.892C108.193 220.774 110.649 220.331 113.124 220.59Z" fill="white"/>
<path d="M121.989 218.405C123.219 219.716 124.24 221.662 124.414 222.888C122.967 222.168 122.426 219.903 121.989 218.405Z" fill="white"/>
<circle cx="48.6935" cy="144.572" r="7.1857" fill="#03C3A3" fill-opacity="0.75"/>
<path d="M47.0187 146.007H47.7262C47.7262 146.201 47.8115 146.374 47.9822 146.526C48.1574 146.674 48.3752 146.749 48.6357 146.749C48.9142 146.749 49.1298 146.681 49.2825 146.546C49.4353 146.412 49.5116 146.232 49.5116 146.007C49.5116 145.796 49.4285 145.621 49.2623 145.482C49.1006 145.338 48.8805 145.266 48.602 145.266H48.2988V144.626H48.602C48.8626 144.626 49.0669 144.561 49.2152 144.431C49.3679 144.296 49.4442 144.125 49.4442 143.919C49.4442 143.726 49.3701 143.566 49.2219 143.44C49.0782 143.31 48.8828 143.245 48.6357 143.245C48.3842 143.245 48.1798 143.31 48.0226 143.44C47.8699 143.566 47.7935 143.726 47.7935 143.919H47.0861C47.0861 143.542 47.2276 143.223 47.5105 142.962C47.798 142.702 48.1731 142.571 48.6357 142.571C49.0849 142.571 49.4487 142.702 49.7272 142.962C50.0102 143.223 50.1517 143.542 50.1517 143.919C50.1517 144.224 50.0394 144.485 49.8148 144.7C49.716 144.795 49.6037 144.871 49.4779 144.929V144.963C49.6172 145.026 49.7407 145.105 49.8485 145.199C50.0955 145.428 50.2191 145.709 50.2191 146.041C50.2191 146.436 50.0708 146.767 49.7744 147.032C49.4824 147.292 49.1029 147.422 48.6357 147.422C48.1551 147.422 47.7643 147.288 47.4634 147.018C47.1669 146.744 47.0187 146.407 47.0187 146.007Z" fill="white"/>
</g>
<rect x="0.594144" y="0.445707" width="224.889" height="274.1" rx="3.60943" stroke="#EEEEEE" stroke-width="0.481257"/>
<defs>
<clipPath id="clip0_1753_53500">
<rect x="0.353516" y="0.205078" width="225.37" height="274.581" rx="3.85006" fill="white"/>
</clipPath>
</defs>
</svg>
