<svg width="226" height="275" viewBox="0 0 226 275" fill="none" xmlns="http://www.w3.org/2000/svg">
<g clip-path="url(#clip0_1753_53420)">
<rect x="0.353516" width="225.37" height="274.581" rx="3.85006" fill="white"/>
<path d="M50.5117 38.5898L49.2226 26.5692L47.9336 38.5898H43.0673L40.5536 16.0311H44.0019L45.9033 33.8203L47.6113 16.0311H51.0273L52.7998 33.9492L54.6367 16.0311H57.7305L55.2168 38.5898H50.5117ZM66.9096 16.0311L70.519 38.5898H66.9418L66.3295 34.497H61.9789L61.3666 38.5898H58.1117L61.7211 16.0311H66.9096ZM64.1381 20.0272L62.4301 31.4355H65.8461L64.1381 20.0272ZM72.1699 38.5898V16.0311H75.7148V38.5898H72.1699ZM77.2756 19.2538V16.0311H88.2327V19.2538H84.5266V38.5898H80.9816V19.2538H77.2756ZM98.3428 19.2538V26.0536H102.919V29.2763H98.3428V38.5898H94.7979V16.0311L104.176 16.0311V19.2538H98.3428ZM109.131 21.2196V33.4013C109.131 34.8838 109.743 35.625 110.968 35.625C112.192 35.625 112.805 34.8838 112.805 33.4013V21.2196C112.805 19.7372 112.192 18.996 110.968 18.996C109.743 18.996 109.131 19.7372 109.131 21.2196ZM105.586 33.1757V21.4452C105.586 19.6405 106.048 18.244 106.972 17.2557C107.895 16.2674 109.227 15.7733 110.968 15.7733C112.708 15.7733 114.04 16.2674 114.964 17.2557C115.888 18.244 116.35 19.6405 116.35 21.4452V33.1757C116.35 34.9804 115.888 36.3769 114.964 37.3652C114.04 38.3535 112.708 38.8477 110.968 38.8477C109.227 38.8477 107.895 38.3535 106.972 37.3652C106.048 36.3769 105.586 34.9804 105.586 33.1757ZM129.675 38.5898H126.065C125.851 37.9453 125.743 37.0215 125.743 35.8183V32.2734C125.743 31.2421 125.561 30.5117 125.195 30.082C124.83 29.6308 124.239 29.4052 123.423 29.4052H122.198V38.5898H118.653V16.0311H124.003C125.829 16.0311 127.161 16.4608 127.999 17.3202C128.837 18.1581 129.256 19.4579 129.256 21.2196V22.9921C129.256 25.3124 128.482 26.8378 126.936 27.5683C128.504 28.2343 129.288 29.8349 129.288 32.3701V35.8506C129.288 37.0752 129.417 37.9883 129.675 38.5898ZM123.906 19.2538H122.198V26.1825H123.584C124.293 26.1825 124.819 25.9999 125.163 25.6347C125.528 25.2694 125.711 24.6571 125.711 23.7977V21.5741C125.711 20.0272 125.109 19.2538 123.906 19.2538ZM139.943 38.5898V31.1132L135.463 16.0311H139.169L141.876 26.3114L144.583 16.0311H147.967L143.488 31.1132V38.5898H139.943ZM152.184 21.2196V33.4013C152.184 34.8838 152.796 35.625 154.021 35.625C155.245 35.625 155.858 34.8838 155.858 33.4013V21.2196C155.858 19.7372 155.245 18.996 154.021 18.996C152.796 18.996 152.184 19.7372 152.184 21.2196ZM148.639 33.1757V21.4452C148.639 19.6405 149.101 18.244 150.025 17.2557C150.948 16.2674 152.28 15.7733 154.021 15.7733C155.761 15.7733 157.093 16.2674 158.017 17.2557C158.941 18.244 159.403 19.6405 159.403 21.4452V33.1757C159.403 34.9804 158.941 36.3769 158.017 37.3652C157.093 38.3535 155.761 38.8477 154.021 38.8477C152.28 38.8477 150.948 38.3535 150.025 37.3652C149.101 36.3769 148.639 34.9804 148.639 33.1757ZM161.545 16.0311H165.09V33.4336C165.09 34.8945 165.702 35.625 166.927 35.625C168.152 35.625 168.764 34.8945 168.764 33.4336V16.0311H172.115V33.208C172.115 35.0342 171.664 36.4414 170.762 37.4297C169.86 38.3965 168.549 38.8799 166.83 38.8799C165.112 38.8799 163.801 38.3965 162.899 37.4297C161.996 36.4414 161.545 35.0342 161.545 33.208V16.0311ZM185.568 38.5898H181.959C181.744 37.9453 181.636 37.0215 181.636 35.8183V32.2734C181.636 31.2421 181.454 30.5117 181.089 30.082C180.723 29.6308 180.133 29.4052 179.316 29.4052H178.092V38.5898H174.547V16.0311H179.896C181.722 16.0311 183.054 16.4608 183.892 17.3202C184.73 18.1581 185.149 19.4579 185.149 21.2196V22.9921C185.149 25.3124 184.376 26.8378 182.829 27.5683C184.397 28.2343 185.181 29.8349 185.181 32.3701V35.8506C185.181 37.0752 185.31 37.9883 185.568 38.5898ZM179.8 19.2538H178.092V26.1825H179.477C180.186 26.1825 180.713 25.9999 181.056 25.6347C181.422 25.2694 181.604 24.6571 181.604 23.7977V21.5741C181.604 20.0272 181.003 19.2538 179.8 19.2538ZM87.5117 48.0311C89.3379 48.0311 90.6699 48.4608 91.5078 49.3202C92.3457 50.1581 92.7647 51.4579 92.7647 53.2196V54.0253C92.7647 56.3456 92.002 57.8603 90.4766 58.5692C92.2383 59.2568 93.1192 60.8681 93.1192 63.4033V65.2402C93.1192 66.9804 92.6573 68.3125 91.7334 69.2363C90.8311 70.1387 89.499 70.5898 87.7373 70.5898H82.1621V48.0311H87.5117ZM87.2861 60.4384H85.707V67.3672H87.7373C88.3604 67.3672 88.8223 67.206 89.1231 66.8838C89.4238 66.54 89.5742 65.9599 89.5742 65.1435V63.1777C89.5742 62.1464 89.3916 61.4374 89.0264 61.0507C88.6826 60.6425 88.1025 60.4384 87.2861 60.4384ZM87.415 51.2538H85.707V57.2157H87.0928C87.8018 57.2157 88.3281 57.0331 88.6719 56.6679C89.0371 56.3026 89.2197 55.6903 89.2197 54.8309V53.5741C89.2197 52.0272 88.6182 51.2538 87.415 51.2538ZM95.0931 48.0311H98.638V65.4336C98.638 66.8945 99.2503 67.625 100.475 67.625C101.7 67.625 102.312 66.8945 102.312 65.4336V48.0311H105.663V65.208C105.663 67.0342 105.212 68.4414 104.31 69.4297C103.408 70.3965 102.097 70.8799 100.378 70.8799C98.6595 70.8799 97.349 70.3965 96.4466 69.4297C95.5443 68.4414 95.0931 67.0342 95.0931 65.208V48.0311ZM108.095 70.5898V48.0311H113.702C117.226 48.0311 118.987 49.8895 118.987 53.6063V65.0146C118.987 68.7314 117.226 70.5898 113.702 70.5898H108.095ZM113.638 51.2538H111.64V67.3672H113.638C114.841 67.3672 115.442 66.6367 115.442 65.1757V53.4452C115.442 51.9842 114.841 51.2538 113.638 51.2538ZM121.25 70.5898V48.0311H126.857C130.381 48.0311 132.142 49.8895 132.142 53.6063V65.0146C132.142 68.7314 130.381 70.5898 126.857 70.5898H121.25ZM126.793 51.2538H124.795V67.3672H126.793C127.996 67.3672 128.597 66.6367 128.597 65.1757V53.4452C128.597 51.9842 127.996 51.2538 126.793 51.2538ZM137.252 70.5898V63.1132L132.772 48.0311H136.479L139.186 58.3114L141.893 48.0311H145.276L140.797 63.1132V70.5898H137.252Z" fill="black"/>
<path d="M100.475 143.682V155.864C100.475 157.347 101.087 158.088 102.312 158.088C103.537 158.088 104.149 157.347 104.149 155.864V143.682C104.149 142.2 103.537 141.459 102.312 141.459C101.087 141.459 100.475 142.2 100.475 143.682ZM96.9301 155.639V143.908C96.9301 142.103 97.392 140.707 98.3158 139.719C99.2397 138.73 100.572 138.236 102.312 138.236C104.052 138.236 105.384 138.73 106.308 139.719C107.232 140.707 107.694 142.103 107.694 143.908V155.639C107.694 157.443 107.232 158.84 106.308 159.828C105.384 160.816 104.052 161.311 102.312 161.311C100.572 161.311 99.2397 160.816 98.3158 159.828C97.392 158.84 96.9301 157.443 96.9301 155.639ZM117.023 144.037C117.023 143.07 116.862 142.404 116.54 142.039C116.239 141.652 115.788 141.459 115.186 141.459C113.961 141.459 113.349 142.2 113.349 143.682V146.1H109.998V143.908C109.998 142.082 110.449 140.685 111.351 139.719C112.253 138.73 113.564 138.236 115.283 138.236C117.001 138.236 118.312 138.73 119.214 139.719C120.117 140.685 120.568 142.082 120.568 143.908C120.568 145.219 120.321 146.465 119.827 147.646C119.354 148.828 118.763 149.838 118.054 150.676C117.367 151.514 116.679 152.298 115.992 153.028C115.304 153.759 114.713 154.5 114.219 155.252C113.747 155.982 113.51 156.681 113.51 157.347C113.51 157.561 113.521 157.723 113.542 157.83H120.246V161.053H109.998V158.281C109.998 157.057 110.234 155.939 110.707 154.93C111.201 153.898 111.791 153.007 112.479 152.255C113.166 151.481 113.854 150.729 114.542 149.999C115.229 149.247 115.809 148.366 116.282 147.356C116.776 146.347 117.023 145.24 117.023 144.037ZM122.775 157.637H126.191V161.053H122.775V157.637Z" fill="black"/>
<path d="M46.446 173.543L45.2669 168.827L46.0417 168.827L46.9513 172.533L47.0861 172.533L48.063 168.827L48.9389 168.827L49.9158 172.533L50.0506 172.533L50.9602 168.827L51.735 168.827L50.5559 173.543L49.4779 173.543L48.5683 170.006L48.4336 170.006L47.524 173.543L46.446 173.543ZM51.6739 173.543L53.392 168.827L54.47 168.827L56.1881 173.543L55.4133 173.543L55.009 172.432L52.853 172.432L52.4488 173.543L51.6739 173.543ZM53.0888 171.792L54.7732 171.792L53.9984 169.636L53.8637 169.636L53.0888 171.792ZM56.6929 173.543L56.6929 168.827L57.4004 168.827L57.4004 173.543L56.6929 173.543ZM59.5219 173.543L59.5219 169.501L58.0397 169.501L58.0397 168.827L61.7116 168.827L61.7116 169.501L60.2294 169.501L60.2294 173.543L59.5219 173.543ZM63.7332 173.543L63.7332 168.827L66.7651 168.827L66.7651 169.501L64.4406 169.501L64.4406 170.848L66.6303 170.848L66.6303 171.522L64.4406 171.522L64.4406 173.543L63.7332 173.543ZM71.1026 172.93C70.6669 173.384 70.1324 173.611 69.4991 173.611C68.8658 173.611 68.3312 173.384 67.8955 172.93C67.4598 172.477 67.242 171.895 67.242 171.185C67.242 170.476 67.4598 169.894 67.8955 169.44C68.3312 168.987 68.8658 168.76 69.4991 168.76C70.1324 168.76 70.6669 168.987 71.1026 169.44C71.5383 169.894 71.7562 170.476 71.7562 171.185C71.7562 171.895 71.5383 172.477 71.1026 172.93ZM70.6108 169.912C70.3188 169.593 69.9483 169.434 69.4991 169.434C69.0499 169.434 68.6793 169.593 68.3874 169.912C68.0954 170.231 67.9494 170.655 67.9494 171.185C67.9494 171.715 68.0954 172.14 68.3874 172.459C68.6793 172.778 69.0499 172.937 69.4991 172.937C69.9483 172.937 70.3188 172.778 70.6108 172.459C70.9028 172.14 71.0487 171.715 71.0487 171.185C71.0487 170.655 70.9028 170.231 70.6108 169.912ZM72.5631 173.543L72.5631 168.827L74.6855 168.827C75.0807 168.827 75.4086 168.969 75.6691 169.252C75.9342 169.53 76.0667 169.894 76.0667 170.343C76.0667 170.792 75.9342 171.158 75.6691 171.441C75.4086 171.72 75.0807 171.859 74.6855 171.859L74.517 171.859L76.2014 173.543L75.2918 173.543L73.6074 171.859L73.2706 171.859L73.2706 173.543L72.5631 173.543ZM73.2706 171.185L74.6518 171.185C74.8449 171.185 75.0111 171.107 75.1504 170.949C75.2896 170.792 75.3592 170.59 75.3592 170.343C75.3592 170.096 75.2896 169.894 75.1504 169.737C75.0111 169.58 74.8449 169.501 74.6518 169.501L73.2706 169.501L73.2706 171.185ZM79.506 173.543L79.506 171.859L77.7879 168.827L78.5695 168.827L79.8092 171.017L79.9439 171.017L81.15 168.827L81.9315 168.827L80.2134 171.859L80.2134 173.543L79.506 173.543ZM85.9332 172.93C85.4975 173.384 84.963 173.611 84.3297 173.611C83.6964 173.611 83.1618 173.384 82.7261 172.93C82.2904 172.477 82.0726 171.895 82.0726 171.185C82.0726 170.476 82.2904 169.894 82.7261 169.44C83.1618 168.987 83.6964 168.76 84.3297 168.76C84.963 168.76 85.4975 168.987 85.9332 169.44C86.3689 169.894 86.5868 170.476 86.5868 171.185C86.5868 171.895 86.3689 172.477 85.9332 172.93ZM85.4414 169.912C85.1494 169.593 84.7789 169.434 84.3297 169.434C83.8805 169.434 83.51 169.593 83.218 169.912C82.926 170.231 82.78 170.655 82.78 171.185C82.78 171.715 82.926 172.14 83.218 172.459C83.51 172.778 83.8805 172.937 84.3297 172.937C84.7789 172.937 85.1494 172.778 85.4414 172.459C85.7334 172.14 85.8793 171.715 85.8793 171.185C85.8793 170.655 85.7334 170.231 85.4414 169.912ZM87.36 171.657L87.36 168.827L88.0675 168.827L88.0675 171.657C88.0675 172.039 88.1775 172.349 88.3976 172.587C88.6222 172.82 88.9052 172.937 89.2466 172.937C89.5879 172.937 89.8687 172.82 90.0888 172.587C90.3133 172.349 90.4256 172.039 90.4256 171.657L90.4256 168.827L91.1331 168.827L91.1331 171.657C91.1331 172.245 90.9579 172.719 90.6076 173.079C90.2617 173.433 89.808 173.611 89.2466 173.611C88.6851 173.611 88.2292 173.433 87.8788 173.079C87.533 172.719 87.36 172.245 87.36 171.657ZM92.1114 173.543L92.1114 168.827L94.2337 168.827C94.629 168.827 94.9569 168.969 95.2174 169.252C95.4824 169.53 95.6149 169.894 95.6149 170.343C95.6149 170.792 95.4824 171.158 95.2174 171.441C94.9569 171.72 94.629 171.859 94.2337 171.859L94.0653 171.859L95.7497 173.543L94.8401 173.543L93.1557 171.859L92.8188 171.859L92.8188 173.543L92.1114 173.543ZM92.8188 171.185L94.2 171.185C94.3932 171.185 94.5593 171.107 94.6986 170.949C94.8378 170.792 94.9075 170.59 94.9075 170.343C94.9075 170.096 94.8378 169.894 94.6986 169.737C94.5593 169.58 94.3932 169.501 94.2 169.501L92.8188 169.501L92.8188 171.185ZM98.0791 173.543L98.0791 168.827L100.168 168.827C100.554 168.827 100.875 168.955 101.131 169.211C101.387 169.463 101.515 169.773 101.515 170.141C101.515 170.437 101.43 170.693 101.259 170.909C101.192 170.994 101.109 171.075 101.01 171.152L101.01 171.185C101.118 171.248 101.212 171.329 101.293 171.428C101.486 171.657 101.583 171.924 101.583 172.23C101.583 172.602 101.455 172.915 101.199 173.166C100.947 173.418 100.633 173.543 100.255 173.543L98.0791 173.543ZM98.7866 170.882L100.134 170.882C100.323 170.882 100.482 170.815 100.612 170.68C100.743 170.545 100.808 170.377 100.808 170.175C100.808 169.973 100.743 169.804 100.612 169.669C100.482 169.535 100.323 169.467 100.134 169.467L98.7866 169.467L98.7866 170.882ZM98.7866 172.903L100.201 172.903C100.39 172.903 100.55 172.836 100.68 172.701C100.81 172.567 100.875 172.398 100.875 172.196C100.875 171.994 100.81 171.825 100.68 171.691C100.55 171.556 100.39 171.488 100.201 171.488L98.7866 171.488L98.7866 172.903ZM102.428 171.657L102.428 168.827L103.135 168.827L103.135 171.657C103.135 172.039 103.245 172.349 103.465 172.587C103.69 172.82 103.973 172.937 104.314 172.937C104.655 172.937 104.936 172.82 105.156 172.587C105.381 172.349 105.493 172.039 105.493 171.657L105.493 168.827L106.201 168.827L106.201 171.657C106.201 172.245 106.025 172.719 105.675 173.079C105.329 173.433 104.876 173.611 104.314 173.611C103.753 173.611 103.297 173.433 102.946 173.079C102.6 172.719 102.428 172.245 102.428 171.657ZM107.886 172.87L108.83 172.87C109.274 172.87 109.643 172.715 109.935 172.405C110.231 172.09 110.379 171.684 110.379 171.185C110.379 170.687 110.231 170.282 109.935 169.973C109.643 169.658 109.274 169.501 108.83 169.501L107.886 169.501L107.886 172.87ZM107.179 173.543L107.179 168.827L108.83 168.827C109.472 168.827 110.009 169.049 110.44 169.494C110.871 169.939 111.087 170.503 111.087 171.185C111.087 171.868 110.871 172.432 110.44 172.876C110.009 173.321 109.472 173.543 108.83 173.543L107.179 173.543ZM112.604 172.87L113.547 172.87C113.992 172.87 114.36 172.715 114.652 172.405C114.949 172.09 115.097 171.684 115.097 171.185C115.097 170.687 114.949 170.282 114.652 169.973C114.36 169.658 113.992 169.501 113.547 169.501L112.604 169.501L112.604 172.87ZM111.896 173.543L111.896 168.827L113.547 168.827C114.189 168.827 114.726 169.049 115.157 169.494C115.589 169.939 115.804 170.503 115.804 171.185C115.804 171.868 115.589 172.432 115.157 172.876C114.726 173.321 114.189 173.543 113.547 173.543L111.896 173.543ZM117.662 173.543L117.662 171.859L115.943 168.827L116.725 168.827L117.965 171.017L118.1 171.017L119.306 168.827L120.087 168.827L118.369 171.859L118.369 173.543L117.662 173.543ZM120.36 174.116L120.495 172.769L121.269 172.769L120.899 174.116L120.36 174.116ZM123.733 173.543L123.733 168.827L124.441 168.827L124.441 170.815L126.833 170.815L126.833 168.827L127.54 168.827L127.54 173.543L126.833 173.543L126.833 171.488L124.441 171.488L124.441 173.543L123.733 173.543ZM128.55 173.543L128.55 168.827L131.649 168.827L131.649 169.501L129.257 169.501L129.257 170.848L131.514 170.848L131.514 171.522L129.257 171.522L129.257 172.87L131.649 172.87L131.649 173.543L128.55 173.543ZM134.647 173.543L133.468 168.827L134.242 168.827L135.152 172.533L135.287 172.533L136.264 168.827L137.14 168.827L138.116 172.533L138.251 172.533L139.161 168.827L139.936 168.827L138.757 173.543L137.679 173.543L136.769 170.006L136.634 170.006L135.725 173.543L134.647 173.543ZM140.512 173.543L140.512 168.827L141.219 168.827L141.219 173.543L140.512 173.543ZM142.229 173.543L142.229 168.827L142.936 168.827L142.936 172.87L145.227 172.87L145.227 173.543L142.229 173.543ZM145.867 173.543L145.867 168.827L146.575 168.827L146.575 172.87L148.866 172.87L148.866 173.543L145.867 173.543ZM154.528 171.926L155.269 171.926C155.224 172.124 155.148 172.317 155.04 172.506C154.937 172.695 154.8 172.874 154.629 173.045C154.458 173.216 154.245 173.353 153.989 173.456C153.733 173.559 153.452 173.611 153.147 173.611C152.513 173.611 151.979 173.384 151.543 172.93C151.107 172.477 150.89 171.895 150.89 171.185C150.89 170.476 151.107 169.894 151.543 169.44C151.979 168.987 152.513 168.76 153.147 168.76C153.704 168.76 154.168 168.921 154.541 169.245C154.919 169.564 155.161 169.952 155.269 170.41L154.528 170.41C154.411 170.096 154.229 169.856 153.982 169.69C153.735 169.519 153.457 169.434 153.147 169.434C152.697 169.434 152.327 169.593 152.035 169.912C151.743 170.231 151.597 170.655 151.597 171.185C151.597 171.715 151.743 172.14 152.035 172.459C152.327 172.778 152.697 172.937 153.147 172.937C153.506 172.937 153.802 172.841 154.036 172.647C154.274 172.45 154.438 172.209 154.528 171.926ZM156.013 173.543L156.013 168.827L156.721 168.827L156.721 170.815L159.113 170.815L159.113 168.827L159.82 168.827L159.82 173.543L159.113 173.543L159.113 171.488L156.721 171.488L156.721 173.543L156.013 173.543ZM164.488 172.93C164.052 173.384 163.518 173.611 162.885 173.611C162.251 173.611 161.717 173.384 161.281 172.93C160.845 172.477 160.627 171.895 160.627 171.185C160.627 170.476 160.845 169.894 161.281 169.44C161.717 168.987 162.251 168.76 162.885 168.76C163.518 168.76 164.052 168.987 164.488 169.44C164.924 169.894 165.142 170.476 165.142 171.185C165.142 171.895 164.924 172.477 164.488 172.93ZM163.996 169.912C163.704 169.593 163.334 169.434 162.885 169.434C162.435 169.434 162.065 169.593 161.773 169.912C161.481 170.231 161.335 170.655 161.335 171.185C161.335 171.715 161.481 172.14 161.773 172.459C162.065 172.778 162.435 172.937 162.885 172.937C163.334 172.937 163.704 172.778 163.996 172.459C164.288 172.14 164.434 171.715 164.434 171.185C164.434 170.655 164.288 170.231 163.996 169.912ZM169.607 172.93C169.171 173.384 168.637 173.611 168.004 173.611C167.37 173.611 166.836 173.384 166.4 172.93C165.964 172.477 165.746 171.895 165.746 171.185C165.746 170.476 165.964 169.894 166.4 169.44C166.836 168.987 167.37 168.76 168.004 168.76C168.637 168.76 169.171 168.987 169.607 169.44C170.043 169.894 170.261 170.476 170.261 171.185C170.261 171.895 170.043 172.477 169.607 172.93ZM169.115 169.912C168.823 169.593 168.453 169.434 168.004 169.434C167.554 169.434 167.184 169.593 166.892 169.912C166.6 170.231 166.454 170.655 166.454 171.185C166.454 171.715 166.6 172.14 166.892 172.459C167.184 172.778 167.554 172.937 168.004 172.937C168.453 172.937 168.823 172.778 169.115 172.459C169.407 172.14 169.553 171.715 169.553 171.185C169.553 170.655 169.407 170.231 169.115 169.912ZM170.832 172.095L171.539 172.095C171.539 172.324 171.645 172.522 171.856 172.688C172.071 172.854 172.348 172.937 172.685 172.937C173.053 172.937 173.325 172.874 173.5 172.748C173.675 172.618 173.763 172.445 173.763 172.23C173.763 171.884 173.493 171.659 172.954 171.556L172.044 171.387C171.676 171.32 171.398 171.179 171.209 170.963C171.025 170.747 170.933 170.473 170.933 170.141C170.933 169.746 171.086 169.418 171.391 169.157C171.696 168.892 172.105 168.76 172.617 168.76C173.183 168.76 173.621 168.903 173.931 169.191C174.245 169.474 174.403 169.836 174.403 170.276L173.695 170.276C173.695 170.047 173.596 169.849 173.399 169.683C173.201 169.517 172.941 169.434 172.617 169.434C172.312 169.434 172.071 169.503 171.896 169.642C171.726 169.777 171.64 169.943 171.64 170.141C171.64 170.473 171.876 170.687 172.348 170.781L173.089 170.916C173.565 171.001 173.913 171.149 174.133 171.36C174.358 171.567 174.47 171.857 174.47 172.23C174.47 172.634 174.315 172.966 174.005 173.227C173.695 173.483 173.255 173.611 172.685 173.611C172.114 173.611 171.663 173.467 171.33 173.18C170.998 172.892 170.832 172.531 170.832 172.095ZM175.279 173.543L175.279 168.827L178.378 168.827L178.378 169.501L175.986 169.501L175.986 170.848L178.243 170.848L178.243 171.522L175.986 171.522L175.986 172.87L178.378 172.87L178.378 173.543L175.279 173.543ZM96.3401 181.543L96.3401 179.859L94.622 176.827L95.4036 176.827L96.6433 179.017L96.7781 179.017L97.9841 176.827L98.7656 176.827L97.0476 179.859L97.0476 181.543L96.3401 181.543ZM102.767 180.93C102.332 181.384 101.797 181.611 101.164 181.611C100.53 181.611 99.996 181.384 99.5603 180.93C99.1246 180.477 98.9067 179.895 98.9067 179.185C98.9067 178.476 99.1246 177.894 99.5603 177.44C99.996 176.987 100.53 176.76 101.164 176.76C101.797 176.76 102.332 176.987 102.767 177.44C103.203 177.894 103.421 178.476 103.421 179.185C103.421 179.895 103.203 180.477 102.767 180.93ZM102.276 177.912C101.984 177.593 101.613 177.434 101.164 177.434C100.715 177.434 100.344 177.593 100.052 177.912C99.7601 178.231 99.6142 178.655 99.6142 179.185C99.6142 179.715 99.7601 180.14 100.052 180.459C100.344 180.778 100.715 180.937 101.164 180.937C101.613 180.937 101.984 180.778 102.276 180.459C102.567 180.14 102.713 179.715 102.713 179.185C102.713 178.655 102.567 178.231 102.276 177.912ZM104.194 179.657L104.194 176.827L104.902 176.827L104.902 179.657C104.902 180.039 105.012 180.349 105.232 180.587C105.456 180.82 105.739 180.937 106.081 180.937C106.422 180.937 106.703 180.82 106.923 180.587C107.147 180.349 107.26 180.039 107.26 179.657L107.26 176.827L107.967 176.827L107.967 179.657C107.967 180.245 107.792 180.719 107.442 181.079C107.096 181.433 106.642 181.611 106.081 181.611C105.519 181.611 105.063 181.433 104.713 181.079C104.367 180.719 104.194 180.245 104.194 179.657ZM110.295 180.095L111.003 180.095C111.003 180.324 111.108 180.522 111.319 180.688C111.535 180.854 111.811 180.937 112.148 180.937C112.517 180.937 112.788 180.874 112.963 180.748C113.139 180.618 113.226 180.445 113.226 180.23C113.226 179.884 112.957 179.659 112.418 179.556L111.508 179.387C111.14 179.32 110.861 179.179 110.673 178.963C110.489 178.747 110.396 178.473 110.396 178.141C110.396 177.746 110.549 177.418 110.855 177.157C111.16 176.892 111.569 176.76 112.081 176.76C112.647 176.76 113.085 176.903 113.395 177.191C113.709 177.474 113.866 177.836 113.866 178.276L113.159 178.276C113.159 178.047 113.06 177.849 112.862 177.683C112.665 177.517 112.404 177.434 112.081 177.434C111.775 177.434 111.535 177.503 111.36 177.642C111.189 177.777 111.104 177.943 111.104 178.141C111.104 178.473 111.34 178.687 111.811 178.781L112.552 178.916C113.029 179.001 113.377 179.149 113.597 179.36C113.821 179.567 113.934 179.857 113.934 180.23C113.934 180.634 113.779 180.966 113.469 181.227C113.159 181.483 112.719 181.611 112.148 181.611C111.578 181.611 111.126 181.467 110.794 181.18C110.462 180.892 110.295 180.531 110.295 180.095ZM118.401 180.93C117.965 181.384 117.43 181.611 116.797 181.611C116.164 181.611 115.629 181.384 115.194 180.93C114.758 180.477 114.54 179.895 114.54 179.185C114.54 178.476 114.758 177.894 115.194 177.44C115.629 176.987 116.164 176.76 116.797 176.76C117.43 176.76 117.965 176.987 118.401 177.44C118.836 177.894 119.054 178.476 119.054 179.185C119.054 179.895 118.836 180.477 118.401 180.93ZM117.909 177.912C117.617 177.593 117.246 177.434 116.797 177.434C116.348 177.434 115.977 177.593 115.685 177.912C115.393 178.231 115.247 178.655 115.247 179.185C115.247 179.715 115.393 180.14 115.685 180.459C115.977 180.778 116.348 180.937 116.797 180.937C117.246 180.937 117.617 180.778 117.909 180.459C118.201 180.14 118.347 179.715 118.347 179.185C118.347 178.655 118.201 178.231 117.909 177.912ZM123.52 180.93C123.084 181.384 122.549 181.611 121.916 181.611C121.283 181.611 120.748 181.384 120.313 180.93C119.877 180.477 119.659 179.895 119.659 179.185C119.659 178.476 119.877 177.894 120.313 177.44C120.748 176.987 121.283 176.76 121.916 176.76C122.549 176.76 123.084 176.987 123.52 177.44C123.955 177.894 124.173 178.476 124.173 179.185C124.173 179.895 123.955 180.477 123.52 180.93ZM123.028 177.912C122.736 177.593 122.365 177.434 121.916 177.434C121.467 177.434 121.096 177.593 120.804 177.912C120.512 178.231 120.366 178.655 120.366 179.185C120.366 179.715 120.512 180.14 120.804 180.459C121.096 180.778 121.467 180.937 121.916 180.937C122.365 180.937 122.736 180.778 123.028 180.459C123.32 180.14 123.466 179.715 123.466 179.185C123.466 178.655 123.32 178.231 123.028 177.912ZM124.98 181.543L124.98 176.827L126.024 176.827L127.945 180.499L128.079 180.499L128.079 176.827L128.787 176.827L128.787 181.543L127.743 181.543L125.822 177.871L125.688 177.871L125.688 181.543L124.98 181.543Z" fill="#8B8B8B"/>
<rect x="2.31299" y="198.587" width="221.668" height="74.0345" rx="3.85006" fill="#03C3A3" fill-opacity="0.6"/>
<circle cx="154.133" cy="90.0412" r="7.1857" fill="#03C3A3" fill-opacity="0.6"/>
<path d="M152.658 92.3481V91.7418L154.598 89.7879C154.728 89.6576 154.818 89.5431 154.867 89.4442C154.921 89.3409 154.948 89.2084 154.948 89.0467C154.948 88.7907 154.879 88.5931 154.739 88.4538C154.605 88.3101 154.416 88.2382 154.174 88.2382C153.935 88.2382 153.736 88.3236 153.574 88.4942C153.412 88.6649 153.331 88.8828 153.331 89.1478H152.624C152.624 88.6762 152.768 88.2944 153.055 88.0024C153.343 87.7104 153.715 87.5645 154.174 87.5645C154.632 87.5645 154.998 87.7014 155.272 87.9754C155.55 88.2449 155.689 88.602 155.689 89.0467C155.689 89.3028 155.631 89.5251 155.514 89.7137C155.402 89.9024 155.236 90.1068 155.016 90.3269L153.702 91.6407V91.6744H155.757V92.3481H152.658Z" fill="white"/>
<circle cx="111.303" cy="209.474" r="12.9354" fill="#FFA7D1"/>
<path d="M113.081 208.88C113.236 208.506 113.463 208.166 113.749 207.879C114.036 207.593 114.376 207.366 114.75 207.211C115.125 207.055 115.526 206.976 115.931 206.976C116.336 206.976 116.738 207.055 117.112 207.211C117.486 207.366 117.826 207.593 118.113 207.879C118.4 208.166 118.627 208.506 118.782 208.88" stroke="#ADE6ED" stroke-width="0.697354"/>
<path d="M102.166 208.88C102.321 208.506 102.548 208.166 102.834 207.879C103.121 207.593 103.461 207.366 103.835 207.211C104.21 207.055 104.611 206.976 105.016 206.976C105.421 206.976 105.823 207.055 106.197 207.211C106.571 207.366 106.911 207.593 107.198 207.879C107.484 208.166 107.712 208.506 107.867 208.88" stroke="#ADE6ED" stroke-width="0.697354"/>
<path d="M110.947 206.27L109.09 210.765C108.901 211.224 109.238 211.729 109.735 211.729H113.914" stroke="#ADE6ED" stroke-width="0.697354"/>
<path d="M105.678 217.078C105.477 217.078 105.28 217.031 105.101 216.941C104.923 216.851 104.769 216.721 104.652 216.56C104.534 216.4 104.458 216.215 104.427 216.019C104.397 215.824 104.415 215.625 104.478 215.437C104.542 215.25 104.65 215.08 104.793 214.942C104.936 214.804 105.11 214.701 105.302 214.642C105.493 214.584 105.696 214.571 105.894 214.604C106.091 214.638 106.278 214.717 106.438 214.836" stroke="#ADE6ED" stroke-width="0.697354"/>
<path d="M105.678 217.078C105.477 217.078 105.28 217.125 105.101 217.215C104.923 217.305 104.769 217.435 104.652 217.595C104.534 217.756 104.458 217.941 104.427 218.136C104.397 218.332 104.415 218.531 104.478 218.719C104.542 218.906 104.65 219.076 104.793 219.214C104.936 219.352 105.11 219.455 105.302 219.513C105.493 219.572 105.696 219.585 105.894 219.552C106.091 219.518 106.278 219.438 106.438 219.32" stroke="#ADE6ED" stroke-width="0.697354"/>
<circle cx="111.303" cy="209.474" r="12.9354" fill="white"/>
<path d="M111.303 222.408C107.872 222.408 104.582 221.046 102.156 218.62C99.7303 216.194 98.3674 212.904 98.3674 209.473C98.3674 206.042 99.7302 202.752 102.156 200.326C104.582 197.9 107.872 196.538 111.303 196.538L111.303 209.473L111.303 222.408Z" fill="#FF4B11"/>
<rect x="92.9692" y="225.371" width="36.6384" height="45.8679" fill="#FFA7D1"/>
<rect x="111.235" y="225.334" width="18.4127" height="45.9297" fill="#03C3A3"/>
<path d="M111.288 274.525C111.288 276.954 110.331 279.284 108.626 281.002C106.921 282.719 104.609 283.684 102.199 283.684C99.7878 283.684 97.4758 282.719 95.7712 281.002C94.0665 279.284 93.1089 276.954 93.1089 274.525L102.199 274.525H111.288Z" fill="#ADE6ED"/>
<path d="M129.553 274.56C129.553 276.998 128.586 279.337 126.863 281.061C125.141 282.786 122.805 283.754 120.369 283.754C117.933 283.754 115.597 282.786 113.875 281.061C112.152 279.337 111.185 276.998 111.185 274.56L120.369 274.56H129.553Z" fill="#ADE6ED"/>
<path d="M111.245 179.643L119.086 195.316H103.404L111.245 179.643Z" fill="black"/>
<mask id="mask0_1753_53420" style="mask-type:alpha" maskUnits="userSpaceOnUse" x="111" y="225" width="19" height="47">
<rect x="111.228" y="225.28" width="18.4127" height="45.9297" fill="#4B4BFF"/>
</mask>
<g mask="url(#mask0_1753_53420)">
<rect x="119.188" y="294.39" width="1.32367" height="110.085" transform="rotate(180 119.188 294.39)" fill="#FF4B11"/>
<rect x="114.775" y="294.39" width="1.32367" height="110.085" transform="rotate(180 114.775 294.39)" fill="#FF4B11"/>
<rect x="123.601" y="294.39" width="1.32367" height="110.085" transform="rotate(180 123.601 294.39)" fill="#FF4B11"/>
<rect x="128.013" y="294.39" width="1.32367" height="110.085" transform="rotate(180 128.013 294.39)" fill="#FF4B11"/>
<rect x="109.922" y="269.02" width="1.32367" height="28.6794" transform="rotate(-90 109.922 269.02)" fill="#FF4B11"/>
<rect x="109.922" y="264.608" width="1.32367" height="28.6794" transform="rotate(-90 109.922 264.608)" fill="#FF4B11"/>
<rect x="109.922" y="260.195" width="1.32367" height="28.6794" transform="rotate(-90 109.922 260.195)" fill="#FF4B11"/>
<rect x="109.923" y="255.783" width="1.32367" height="28.6794" transform="rotate(-90 109.923 255.783)" fill="#FF4B11"/>
<rect x="109.922" y="251.371" width="1.32367" height="28.6794" transform="rotate(-90 109.922 251.371)" fill="#FF4B11"/>
<rect x="109.922" y="246.958" width="1.32367" height="28.6794" transform="rotate(-90 109.922 246.958)" fill="#FF4B11"/>
<rect x="109.922" y="242.546" width="1.32367" height="28.6794" transform="rotate(-90 109.922 242.546)" fill="#FF4B11"/>
<rect x="109.922" y="238.134" width="1.32367" height="28.6794" transform="rotate(-90 109.922 238.134)" fill="#FF4B11"/>
<rect x="109.922" y="233.723" width="1.32367" height="28.6794" transform="rotate(-90 109.922 233.723)" fill="#FF4B11"/>
<rect x="109.923" y="229.31" width="1.32367" height="28.6794" transform="rotate(-90 109.923 229.31)" fill="#FF4B11"/>
</g>
<path d="M60.1872 233.984C60.1505 234.248 60.1183 234.482 60.0793 234.77C58.9747 234.728 58.017 234.22 56.8825 234.214C58.2398 236.378 60.557 239.39 57.8608 241.511C55.0889 243.97 51.5867 242.01 48.8676 240.528C48.5943 240.721 48.7252 240.909 48.8194 241.079C49.7059 242.692 50.9575 243.82 52.8291 244.183C54.2805 244.827 56.7769 243.744 56.7034 245.339C56.7218 251.605 59.6154 257.269 63.4919 262.05C67.7336 266.995 74.5107 267.128 79.9626 264.187C86.0806 260.968 87.9844 253.457 89.9778 247.338C90.421 246.385 91.149 242.789 92.2146 242.874C92.6716 242.975 92.38 243.558 92.2651 243.839C89.8928 249.707 88.779 256.12 84.8359 261.253C82.4612 264.725 78.2976 266.15 74.3522 267.009C71.6538 267.579 69.038 266.752 66.6175 265.614C62.2173 263.498 59.9392 258.726 57.7437 254.61C56.2027 251.787 56.3635 248.528 55.4793 245.548C51.759 245.33 48.3348 243.834 47.4254 239.942C45.1886 236.452 44.9153 235.863 46.4976 231.812C43.7234 230.064 40.7586 226.734 41.6795 223.256C43.0436 220.011 47.6183 221.654 49.5773 223.571C49.9194 223.421 49.7311 223.201 49.7082 223.031C48.9664 220.117 49.1731 215.568 53.0932 215.469C57.2637 216.56 57.7483 222.362 58.9976 225.859C63.9443 227.465 65.7196 232.109 64.0247 236.874C64.5989 238.752 65.1868 240.537 65.3912 242.476C66.0043 246.943 68.4042 252.085 73.1902 253.085C74.8529 253.48 76.318 252.818 77.4296 251.515C80.6516 246.991 81.2142 241.104 83.7106 236.174C84.6866 233.683 89.1533 225.7 91.9321 225.946C92.1136 226.119 92.0309 226.44 91.6979 226.672C89.3761 228.285 87.7938 230.519 86.3906 232.918C83.8139 237.332 82.4084 242.269 80.7228 247.06C79.6641 250.486 77.2803 254.813 73.0753 254.015C67.543 252.834 65.0972 247.046 64.213 241.982C64.1281 240.502 63.9535 239.085 63.2738 237.75C63.0694 237.263 63.0165 236.851 63.2094 236.323C63.8571 234.544 63.8364 232.727 63.3541 230.905C62.7524 227.826 57.1512 225.549 54.3862 226.456C52.6133 226.888 51.364 229.142 52.7648 230.643C54.6572 232.727 57.5761 233.294 60.1918 233.981L60.1872 233.984ZM49.7128 231.422C46.826 230.948 45.6571 235.696 46.9845 237.527C48.9159 240.716 58.0974 244.618 58.2191 238.455C56.9973 234.974 53.3459 231.769 49.7128 231.422ZM51.488 230.7C51.1067 229.352 51.5546 228.171 50.9552 227.047C50.3397 226.158 49.7449 225.246 49.0399 224.432C47.4966 222.429 42.2812 220.804 42.3799 224.823C42.8852 227.261 44.4307 229.506 46.6124 230.73C46.9569 230.919 47.3014 230.976 47.6803 230.778C48.8837 230.183 50.2134 230.634 51.488 230.7ZM57.9343 225.439C56.9032 222.387 56.2762 217.298 52.8866 216.399C48.5392 217.144 50.5372 224.117 51.9886 226.693C53.6398 225.046 55.5597 224.724 57.932 225.436L57.9343 225.439Z" fill="black"/>
<path d="M128.603 206.933C132.11 207.636 133.89 212.616 130.877 214.876C128.589 216.921 125.478 216.469 122.657 216.393C120.058 220.389 115.793 224.083 110.727 223.295C110.355 223.215 109.774 223.226 109.756 222.719C109.765 221.781 113.921 223.224 116.337 221.328C127.315 215.462 124.731 197.276 111.143 197.843C109.65 198.046 109.381 196.897 111.019 196.929C113.65 196.917 116.161 197.487 118.514 198.643C121.466 200.249 123.009 203.533 123.877 206.658C125.069 206.97 126.153 206.577 127.416 206.669C123.098 186.844 98.746 186.516 94.3665 206.54C95.393 206.851 96.4104 206.235 97.4094 206.715C97.3726 206.959 97.3359 207.193 97.306 207.386C96.7526 207.687 96.1578 207.48 95.5102 207.554C94.8625 210.219 95.0003 213.413 95.7926 215.878C96.6332 216.478 98.0432 214.966 98.4773 216.131C98.0019 217.562 91.7714 216.809 90.5359 216.071C86.3975 213.707 88.9122 207.42 93.2504 206.892C98.1374 185.146 123.537 185.466 128.603 206.931V206.933ZM94.3137 207.882C88.0212 207.535 87.4034 216.933 94.6352 215.844C94.2379 213.103 94.1575 210.649 94.3137 207.882ZM126.979 207.781C126.86 207.96 126.816 207.992 126.816 208.029C126.908 210.515 126.359 213.139 126.846 215.554C132.865 215.23 133.091 207.788 126.979 207.781ZM125.696 215.279C125.585 212.735 125.893 210.375 125.703 207.891C125.063 207.75 124.536 207.757 124.123 207.912C124.109 210.488 123.792 212.907 123.186 215.435C124.035 215.513 124.848 215.688 125.696 215.276V215.279Z" fill="black"/>
<path d="M137.213 249.374C137.815 248.848 142.16 241.442 142.29 243.947C135.644 253.188 128.741 262.662 125.149 273.601C124.097 275.979 124.768 277.509 126.931 278.907C130.803 277.402 134.926 276.099 138.288 273.585C142.637 270.028 147.001 265.702 148.317 260.07C151.378 249.119 146.337 236.672 136.751 230.664C134.912 229.811 129.696 225.714 128.109 226.291C127.875 226.422 127.563 226.043 127.613 225.742C128.054 223.623 132.744 227.484 133.931 227.851C145.818 233.676 153.001 247.8 149.095 260.734C147.031 267.588 141.204 273.443 134.939 276.689C132.289 277.804 129.625 278.886 126.966 279.98C125.631 279.683 124.743 277.978 123.739 276.997C123.144 275.977 124.031 274.704 124.185 273.633C126.676 265.492 131.29 258.264 136.014 251.265C136.88 250.109 135.58 248.928 134.96 247.995C132.434 245.215 130.181 242.207 127.735 239.363C127.393 238.676 128.566 238.524 128.764 239.135C131.566 242.545 134.452 246.015 137.217 249.374H137.213Z" fill="black"/>
<path d="M107.227 233.375C110.281 222.608 108.926 224.364 113.505 233.127C113.834 233.104 113.765 232.842 113.788 232.668C113.88 232.001 115.209 222.608 116.178 225.768C113.234 235.31 116.204 241.507 109.845 227.852C108.756 230.083 108.816 232.702 107.649 234.919C106.708 235.937 106.365 233.743 106.016 233.164C105.146 230.855 103.908 228.72 102.838 226.51C103.304 223.736 106.623 232.631 107.227 233.373V233.375Z" fill="black"/>
<path d="M116.766 243.173C116.137 241.392 117.076 239.441 116.229 237.741C115.336 236.314 121.525 236.539 122.234 236.785C122.613 245.429 124.281 242.352 116.766 243.17V243.173ZM121.575 242.095C121.41 240.815 121.761 239.581 121.284 238.572C119.943 239.083 119.458 241.971 118.085 239.974C117.94 239.832 117.814 239.643 117.538 239.825C117.529 240.532 117.409 241.268 117.628 242.033C119.008 242.15 120.071 242.077 121.575 242.095ZM120.549 237.771C119.43 237.509 118.608 237.545 117.729 237.862C118.117 238.66 118.303 238.876 119.065 239.402C119.527 238.894 119.993 238.382 120.549 237.771Z" fill="black"/>
<path d="M96.5637 237.47C98.5296 237.054 100.339 237.306 102.266 237.642C103.371 237.817 102.539 240.289 102.755 241.174C102.748 242.764 102.755 242.69 101.26 242.695C99.7582 242.683 98.2172 242.92 96.7199 242.906C96.1435 241.217 96.6901 239.407 96.5637 237.47ZM101.811 241.688C101.811 241.061 101.816 240.567 101.811 240.075C101.69 238.837 100.479 240.624 100.213 241.052C99.8822 241.539 99.4666 241.569 99.083 241.134C98.5365 240.716 98.2081 239.48 97.4938 239.505C97.4823 240.266 97.3423 241.04 97.5076 241.881C98.9406 241.943 100.289 241.753 101.814 241.691L101.811 241.688ZM101.092 238.522C99.7467 238.099 99.0991 238.067 98.1897 238.398C98.6375 239.002 98.9866 239.659 99.524 240.124C100.066 239.551 100.753 239.223 101.092 238.522Z" fill="black"/>
<path d="M102.292 208.351C101.279 208.433 100.17 208.629 99.12 208.631C98.6561 208.642 98.6515 208.015 99.0052 207.854C99.3175 207.746 99.6505 207.686 99.9789 207.65C101.203 207.663 107.688 206.547 107.691 207.985C107.114 208.7 105.305 207.932 104.338 208.337C103.982 209.823 102.806 209.722 102.292 208.351Z" fill="black"/>
<path d="M117.998 207.976C116.614 210.162 116.632 207.669 115.04 208.126C114.301 208.084 112.884 208.792 112.537 207.887C112.498 207.427 113.022 207.368 113.364 207.356C115.895 207.28 118.432 206.885 120.961 206.998C122.665 208.153 118.582 207.903 117.998 207.979V207.976Z" fill="black"/>
<path d="M112.46 214.305C112.515 213.841 112.26 213.294 112.825 213.163C113.514 213.237 113.4 214.461 114.339 214.452C115.31 214.721 114.601 215.557 113.909 215.311C111.955 214.866 110.52 216.474 107.987 215.137C107.497 214.99 107.036 214.42 107.693 214.179C109.305 214.622 110.809 215.144 112.46 214.305Z" fill="black"/>
<path d="M110.479 253.354C110.502 254.388 109.365 254.753 109.363 253.593C109.457 252.973 110.192 252.715 110.479 253.354Z" fill="black"/>
<path d="M110.465 212.698C109.689 212.209 110.281 211.342 111.018 211.54C111.762 212.002 110.982 212.475 110.465 212.698Z" fill="black"/>
<path d="M109.498 245.395C110.375 245.326 109.939 246.698 109.298 246.611C108.756 246.503 108.836 245.342 109.498 245.395Z" fill="black"/>
<path d="M110.557 262.715C110.162 263.636 109.248 262.646 109.587 262.062C110.04 261.637 110.669 262.095 110.557 262.715Z" fill="black"/>
</g>
<rect x="0.594144" y="0.240628" width="224.889" height="274.1" rx="3.60943" stroke="#EEEEEE" stroke-width="0.481257"/>
<defs>
<clipPath id="clip0_1753_53420">
<rect x="0.353516" width="225.37" height="274.581" rx="3.85006" fill="white"/>
</clipPath>
</defs>
</svg>
