<svg width="485" height="625" viewBox="0 0 485 625" fill="none" xmlns="http://www.w3.org/2000/svg">
<g clip-path="url(#clip0_479_1798)">
<rect x="70.6362" y="0.459961" width="468.294" height="570.55" rx="8" transform="rotate(7.04799 70.6362 0.459961)" fill="white"/>
<path d="M127.465 52.5162C127.93 48.7503 129.195 45.9827 131.258 44.2136C133.326 42.4001 136.133 41.7125 139.677 42.1507C143.221 42.5889 145.776 43.9394 147.34 46.202C148.911 48.4203 149.463 51.4124 148.997 55.1784L148.816 56.6404L141.905 55.7859L142.143 53.8587C142.34 52.2637 142.173 51.0734 141.64 50.2878C141.113 49.4579 140.251 48.9691 139.055 48.8212C137.859 48.6733 136.904 48.9376 136.19 49.6141C135.482 50.2463 135.03 51.3599 134.833 52.9548C134.592 54.9043 134.89 56.673 135.729 58.2611C136.611 59.8546 137.979 61.7105 139.831 63.8288C141.361 65.6374 142.582 67.2277 143.492 68.5997C144.407 69.9274 145.135 71.5018 145.674 73.3228C146.214 75.1438 146.347 77.162 146.073 79.3772C145.607 83.1432 144.318 85.9301 142.205 87.7381C140.098 89.5018 137.272 90.1645 133.728 89.7263C130.183 89.2881 127.604 87.9571 125.989 85.7333C124.381 83.4652 123.809 80.4482 124.275 76.6822L124.628 73.8245L131.54 74.6791L131.129 78.0019C130.756 81.0147 131.833 82.6772 134.358 82.9894C136.883 83.3016 138.332 81.9514 138.705 78.9386C138.946 76.9892 138.625 75.2177 137.743 73.6242C136.904 72.0361 135.559 70.183 133.707 68.0647C132.176 66.2561 130.953 64.6879 130.038 63.3602C129.128 61.9882 128.403 60.3917 127.863 58.5707C127.324 56.7496 127.191 54.7315 127.465 52.5162ZM175.101 47.0702L174.28 53.716L166.637 52.7711L161.707 92.6458L154.397 91.7419L159.327 51.8673L151.684 50.9224L152.506 44.2766L175.101 47.0702ZM188.852 96.0018L188.632 87.4055L179.661 86.2963L177.354 94.5803L170.642 93.7504L183.837 48.1502L194.537 49.4731L196.228 96.9138L188.852 96.0018ZM188.416 80.9688L187.802 57.0072L181.372 80.0978L188.416 80.9688ZM202.992 50.5184L210.634 51.4633L213.596 73.3536L221.799 52.8437L228.777 53.7064L215.694 83.6666L213.788 99.0848L206.478 98.181L208.384 82.7628L202.992 50.5184ZM249.363 56.2516L243.612 102.772L236.301 101.868L242.053 55.3477L249.363 56.2516ZM255.47 104.238L248.89 103.425L254.642 56.9042L263.813 58.0381L267.88 86.8124L271.323 58.9665L277.836 59.7718L272.084 106.292L264.574 105.364L259.636 70.544L255.47 104.238ZM310.218 99.6713C309.752 103.437 308.463 106.224 306.35 108.032C304.243 109.796 301.417 110.459 297.873 110.02C294.328 109.582 291.749 108.251 290.135 106.027C288.526 103.759 287.954 100.742 288.42 96.9763L291.41 72.7856C291.876 69.0197 293.163 66.2549 295.27 64.4912C297.383 62.6832 300.211 61.9984 303.756 62.4366C307.3 62.8748 309.877 64.2279 311.486 66.496C313.1 68.7198 313.674 71.7147 313.209 75.4806L312.65 79.9998L305.738 79.1453L306.355 74.1609C306.732 71.1039 305.659 69.4192 303.133 69.107C300.608 68.7948 299.156 70.1672 298.778 73.2242L295.673 98.3453C295.3 101.358 296.376 103.021 298.902 103.333C301.427 103.645 302.876 102.295 303.249 99.282L304.07 92.6362L310.982 93.4907L310.218 99.6713ZM317.046 75.9551C317.506 72.2334 318.815 69.4714 320.972 67.6689C323.129 65.8664 326.002 65.187 329.591 65.6307C333.179 66.0744 335.8 67.433 337.453 69.7066C339.107 71.9802 339.703 74.9778 339.243 78.6994L336.252 102.89C335.792 106.612 334.483 109.374 332.326 111.176C330.169 112.979 327.296 113.658 323.708 113.214C320.119 112.771 317.498 111.412 315.845 109.139C314.192 106.865 313.595 103.867 314.055 100.146L317.046 75.9551ZM321.308 101.515C320.93 104.572 322.004 106.256 324.529 106.569C327.055 106.881 328.506 105.508 328.884 102.451L331.99 77.3304C332.368 74.2733 331.294 72.5887 328.769 72.2764C326.244 71.9642 324.792 73.3366 324.414 76.3937L321.308 101.515ZM346.135 115.448L339.556 114.634L345.308 68.1136L354.479 69.2475L358.546 98.0218L361.988 70.176L368.501 70.9812L362.75 117.502L355.24 116.573L350.301 81.7534L346.135 115.448ZM394.204 74.159L393.383 80.8048L385.74 79.8599L380.81 119.735L373.5 118.831L378.43 78.956L370.787 78.0111L371.609 71.3654L394.204 74.159ZM407.955 123.091L407.735 114.494L398.764 113.385L396.457 121.669L389.745 120.839L402.94 75.239L413.64 76.5619L415.331 124.003L407.955 123.091ZM407.519 108.058L406.905 84.096L400.475 107.187L407.519 108.058ZM441.316 115.88C440.851 119.646 439.561 122.433 437.449 124.241C435.341 126.004 432.515 126.667 428.971 126.229C425.427 125.79 422.847 124.459 421.233 122.236C419.624 119.968 419.052 116.951 419.518 113.185L422.509 88.994C422.974 85.228 424.261 82.4632 426.368 80.6995C428.481 78.8916 431.31 78.2067 434.854 78.6449C438.398 79.0831 440.975 80.4363 442.584 82.7044C444.198 84.9282 444.773 87.923 444.307 91.689L443.748 96.2081L436.837 95.3536L437.453 90.3693C437.831 87.3122 436.757 85.6276 434.232 85.3153C431.706 85.0031 430.255 86.3755 429.877 89.4326L426.771 114.554C426.398 117.566 427.475 119.229 430 119.541C432.526 119.853 433.975 118.503 434.347 115.49L435.169 108.845L442.08 109.699L441.316 115.88ZM470.592 83.6031L469.77 90.2489L462.128 89.304L457.198 129.179L449.887 128.275L454.817 88.4002L447.175 87.4553L447.996 80.8095L470.592 83.6031Z" fill="black"/>
<path d="M239.133 348.616C238.925 350.3 239.11 351.537 239.687 352.328C240.313 353.08 241.203 353.528 242.355 353.67C243.506 353.812 244.456 353.592 245.203 353.01C245.999 352.389 246.501 351.236 246.71 349.553L249.815 324.432C250.024 322.748 249.814 321.53 249.188 320.778C248.611 319.987 247.746 319.52 246.594 319.378C245.442 319.235 244.468 319.475 243.672 320.096C242.925 320.678 242.447 321.811 242.239 323.495L239.133 348.616ZM234.871 323.056C235.337 319.29 236.646 316.528 238.797 314.77C240.954 312.968 243.827 312.288 247.416 312.732C251.005 313.176 253.626 314.534 255.279 316.808C256.937 319.037 257.534 322.035 257.068 325.801L254.077 349.991C253.612 353.757 252.3 356.541 250.143 358.344C247.992 360.102 245.122 360.759 241.533 360.316C237.944 359.872 235.32 358.536 233.662 356.306C232.009 354.033 231.415 351.013 231.881 347.247L234.871 323.056ZM257.585 346.444L274.763 316.653L282.738 317.639L278.852 349.073L282.307 349.501L281.486 356.146L278.03 355.719L276.986 364.159L269.809 363.272L270.852 354.832L256.763 353.09L257.585 346.444ZM271.674 348.186L273.835 330.708L264.297 347.274L271.674 348.186ZM291.713 358.828L290.842 365.872L283.797 365.001L284.668 357.957L291.713 358.828Z" fill="black"/>
<path d="M148.474 371.943L149.676 362.217L153.983 362.75C154.78 362.848 155.41 363.194 155.872 363.788C156.336 364.372 156.521 365.043 156.427 365.803C156.352 366.414 156.11 366.92 155.703 367.322C155.543 367.48 155.351 367.626 155.127 367.758L155.119 367.828C155.325 367.985 155.499 368.176 155.641 368.4C155.98 368.922 156.111 369.497 156.034 370.127C155.939 370.896 155.595 371.507 155.003 371.961C154.42 372.415 153.74 372.594 152.961 372.498L148.474 371.943ZM150.611 366.635L153.39 366.979C153.779 367.027 154.125 366.929 154.428 366.684C154.731 366.44 154.908 366.109 154.96 365.692C155.011 365.275 154.92 364.911 154.686 364.6C154.451 364.289 154.14 364.109 153.751 364.061L150.972 363.718L150.611 366.635ZM150.096 370.804L153.013 371.164C153.403 371.213 153.749 371.114 154.051 370.87C154.354 370.625 154.532 370.294 154.583 369.877C154.635 369.461 154.543 369.097 154.309 368.786C154.075 368.474 153.763 368.295 153.374 368.247L150.456 367.886L150.096 370.804ZM157.51 373.061L158.713 363.335L165.104 364.125L164.932 365.514L160 364.904L159.656 367.683L164.311 368.259L164.139 369.648L159.484 369.073L159.141 371.852L164.073 372.461L163.902 373.851L157.51 373.061ZM168.976 374.478L170.178 364.752L176.431 365.525L176.259 366.915L171.465 366.322L171.122 369.101L175.637 369.659L175.466 371.049L170.95 370.49L170.435 374.658L168.976 374.478ZM176.9 375.458L178.102 365.732L182.479 366.273C183.294 366.374 183.934 366.749 184.399 367.399C184.875 368.041 185.055 368.825 184.941 369.751C184.826 370.678 184.46 371.399 183.841 371.915C183.233 372.423 182.521 372.626 181.706 372.525L181.359 372.482L184.403 376.385L182.527 376.154L179.483 372.251L178.788 372.165L178.359 375.638L176.9 375.458ZM178.96 370.775L181.808 371.127C182.206 371.177 182.569 371.057 182.896 370.768C183.224 370.479 183.419 370.08 183.482 369.571C183.545 369.061 183.453 368.627 183.206 368.267C182.959 367.908 182.636 367.703 182.238 367.654L179.389 367.302L178.96 370.775ZM185.936 376.575L187.139 366.849L188.598 367.029L187.395 376.755L185.936 376.575ZM189.478 377.013L190.68 367.287L197.072 368.077L196.9 369.467L191.967 368.857L191.624 371.636L196.278 372.211L196.107 373.6L191.452 373.025L191.108 375.804L196.041 376.414L195.869 377.803L189.478 377.013ZM197.673 378.026L198.876 368.3L201.029 368.566L204.053 376.628L204.331 376.663L205.267 369.09L206.726 369.271L205.523 378.997L203.37 378.73L200.346 370.669L200.068 370.634L199.132 378.206L197.673 378.026ZM209.236 378.045L211.181 378.286C212.098 378.399 212.897 378.173 213.578 377.609C214.27 377.036 214.679 376.235 214.806 375.207C214.934 374.179 214.731 373.307 214.199 372.593C213.677 371.87 212.957 371.452 212.04 371.338L210.095 371.098L209.236 378.045ZM207.605 379.254L208.808 369.528L212.212 369.949C213.537 370.113 214.587 370.708 215.363 371.735C216.138 372.762 216.439 373.98 216.265 375.387C216.091 376.795 215.503 377.903 214.5 378.71C213.498 379.517 212.334 379.839 211.009 379.675L207.605 379.254ZM217.217 377.41L218.676 377.59C218.618 378.062 218.785 378.497 219.178 378.893C219.58 379.291 220.129 379.533 220.823 379.619C221.583 379.713 222.159 379.652 222.553 379.438C222.947 379.214 223.172 378.879 223.227 378.435C223.315 377.721 222.816 377.19 221.731 376.839L219.898 376.26C219.156 376.027 218.618 375.664 218.284 375.171C217.959 374.68 217.839 374.091 217.924 373.406C218.024 372.591 218.423 371.954 219.119 371.494C219.817 371.026 220.693 370.857 221.749 370.987C222.916 371.131 223.783 371.539 224.349 372.211C224.925 372.875 225.157 373.661 225.045 374.569L223.586 374.388C223.644 373.916 223.491 373.483 223.126 373.09C222.761 372.697 222.245 372.459 221.578 372.377C220.948 372.299 220.434 372.381 220.038 372.623C219.651 372.858 219.433 373.179 219.383 373.586C219.298 374.272 219.73 374.772 220.678 375.087L222.172 375.553C223.132 375.851 223.812 376.245 224.213 376.737C224.623 377.22 224.781 377.846 224.686 378.615C224.583 379.449 224.178 380.095 223.473 380.553C222.768 381.002 221.828 381.154 220.652 381.008C219.475 380.863 218.581 380.451 217.969 379.774C217.357 379.096 217.106 378.308 217.217 377.41ZM230.396 382.072L229.167 372.045L230.765 372.243L231.695 380.116L231.973 380.151L234.933 372.758L236.739 372.981L237.809 380.872L238.087 380.907L240.907 373.497L242.505 373.694L238.871 383.12L236.648 382.845L235.674 375.318L235.396 375.284L232.619 382.347L230.396 382.072ZM242.49 383.567L243.693 373.841L245.152 374.021L243.949 383.747L242.49 383.567ZM248.324 384.288L249.355 375.952L246.298 375.574L246.47 374.184L254.042 375.121L253.87 376.51L250.814 376.132L249.783 384.469L248.324 384.288ZM254.159 385.01L255.362 375.284L256.821 375.464L256.314 379.563L261.246 380.173L261.753 376.074L263.212 376.254L262.009 385.98L260.55 385.8L261.074 381.562L256.142 380.952L255.618 385.19L254.159 385.01ZM269.372 386.891L269.802 383.417L267.032 376.727L268.643 376.926L270.642 381.758L270.92 381.792L273.965 377.584L275.577 377.783L271.261 383.597L270.831 387.071L269.372 386.891ZM282.783 387.265C281.769 388.089 280.608 388.421 279.302 388.259C277.996 388.098 276.952 387.494 276.169 386.447C275.386 385.401 275.085 384.146 275.266 382.682C275.447 381.219 276.045 380.075 277.059 379.25C278.073 378.426 279.233 378.094 280.539 378.256C281.845 378.417 282.89 379.021 283.673 380.068C284.455 381.114 284.756 382.369 284.575 383.833C284.394 385.296 283.797 386.44 282.783 387.265ZM282.538 380.915C282.017 380.183 281.294 379.76 280.367 379.645C279.441 379.53 278.636 379.765 277.953 380.348C277.27 380.931 276.86 381.769 276.725 382.862C276.59 383.955 276.783 384.868 277.304 385.6C277.824 386.332 278.548 386.755 279.474 386.87C280.401 386.985 281.205 386.75 281.889 386.167C282.572 385.584 282.981 384.746 283.117 383.653C283.252 382.56 283.059 381.647 282.538 380.915ZM286.05 385.003L286.771 379.167L288.23 379.348L287.509 385.183C287.411 385.97 287.559 386.638 287.952 387.185C288.356 387.724 288.91 388.037 289.614 388.124C290.318 388.211 290.926 388.041 291.44 387.616C291.964 387.182 292.274 386.572 292.372 385.784L293.093 379.949L294.552 380.129L293.831 385.965C293.68 387.178 293.198 388.111 292.384 388.762C291.581 389.406 290.6 389.656 289.442 389.513C288.284 389.37 287.389 388.888 286.757 388.067C286.136 387.237 285.9 386.216 286.05 385.003ZM295.367 390.104L296.569 380.379L300.946 380.92C301.761 381.02 302.401 381.396 302.866 382.046C303.342 382.688 303.522 383.472 303.408 384.398C303.293 385.324 302.927 386.045 302.308 386.561C301.7 387.069 300.988 387.273 300.173 387.172L299.826 387.129L302.87 391.032L300.994 390.8L297.95 386.897L297.255 386.811L296.826 390.285L295.367 390.104ZM297.427 385.422L300.275 385.774C300.674 385.823 301.036 385.704 301.364 385.415C301.691 385.126 301.886 384.727 301.949 384.218C302.012 383.708 301.92 383.274 301.673 382.914C301.426 382.554 301.103 382.35 300.705 382.3L297.856 381.948L297.427 385.422ZM307.674 391.626L308.876 381.9L313.183 382.433C313.98 382.531 314.61 382.877 315.072 383.47C315.536 384.054 315.721 384.726 315.627 385.486C315.552 386.097 315.31 386.603 314.903 387.004C314.743 387.163 314.551 387.309 314.327 387.441L314.319 387.51C314.525 387.667 314.699 387.858 314.841 388.083C315.18 388.604 315.311 389.18 315.234 389.81C315.138 390.579 314.795 391.19 314.203 391.643C313.62 392.098 312.939 392.277 312.161 392.181L307.674 391.626ZM309.811 386.318L312.59 386.662C312.979 386.71 313.325 386.612 313.628 386.367C313.931 386.122 314.108 385.791 314.16 385.375C314.211 384.958 314.12 384.594 313.886 384.283C313.651 383.972 313.34 383.792 312.951 383.744L310.172 383.4L309.811 386.318ZM309.296 390.486L312.213 390.847C312.602 390.895 312.948 390.797 313.251 390.552C313.554 390.308 313.732 389.977 313.783 389.56C313.835 389.143 313.743 388.779 313.509 388.468C313.275 388.157 312.963 387.977 312.574 387.929L309.656 387.569L309.296 390.486ZM317.122 388.844L317.843 383.009L319.302 383.189L318.581 389.025C318.483 389.812 318.631 390.479 319.024 391.026C319.428 391.565 319.982 391.878 320.686 391.965C321.39 392.052 321.998 391.883 322.512 391.457C323.036 391.024 323.346 390.413 323.444 389.626L324.165 383.79L325.624 383.971L324.903 389.806C324.753 391.02 324.27 391.952 323.456 392.604C322.653 393.248 321.672 393.498 320.514 393.355C319.356 393.211 318.461 392.729 317.829 391.908C317.208 391.079 316.972 390.058 317.122 388.844ZM328.07 392.737L330.015 392.978C330.932 393.091 331.731 392.865 332.412 392.301C333.103 391.728 333.513 390.927 333.64 389.899C333.767 388.871 333.564 387.999 333.032 387.285C332.51 386.562 331.791 386.144 330.874 386.03L328.928 385.79L328.07 392.737ZM326.439 393.946L327.641 384.22L331.045 384.641C332.37 384.805 333.42 385.4 334.196 386.427C334.972 387.454 335.273 388.671 335.099 390.079C334.925 391.487 334.336 392.595 333.334 393.402C332.331 394.209 331.168 394.531 329.843 394.367L326.439 393.946ZM337.798 393.94L339.743 394.18C340.66 394.294 341.46 394.068 342.141 393.503C342.832 392.931 343.241 392.13 343.369 391.102C343.496 390.074 343.293 389.202 342.761 388.488C342.239 387.765 341.519 387.347 340.602 387.233L338.657 386.993L337.798 393.94ZM336.168 395.149L337.37 385.423L340.774 385.844C342.099 386.008 343.149 386.603 343.925 387.63C344.701 388.657 345.002 389.874 344.827 391.282C344.653 392.69 344.065 393.798 343.062 394.605C342.06 395.412 340.896 395.733 339.572 395.57L336.168 395.149ZM348.056 396.619L348.486 393.145L345.716 386.455L347.328 386.654L349.326 391.486L349.604 391.52L352.649 387.312L354.261 387.511L349.945 393.326L349.515 396.799L348.056 396.619ZM138.487 386.831L143.233 377.543L145.456 377.817L147.796 387.981L146.199 387.784L145.648 385.388L141.202 384.839L140.085 387.028L138.487 386.831ZM141.852 383.579L145.325 384.008L144.277 379.365L143.999 379.33L141.852 383.579ZM148.837 388.11L150.04 378.384L152.193 378.65L155.217 386.712L155.495 386.747L156.431 379.174L157.89 379.355L156.688 389.081L154.534 388.814L151.51 380.753L151.232 380.718L150.296 388.291L148.837 388.11ZM160.4 388.129L162.345 388.37C163.262 388.483 164.062 388.257 164.743 387.693C165.434 387.12 165.843 386.319 165.971 385.291C166.098 384.263 165.895 383.391 165.363 382.677C164.841 381.954 164.121 381.536 163.204 381.422L161.259 381.182L160.4 388.129ZM158.77 389.338L159.972 379.612L163.376 380.033C164.701 380.197 165.751 380.792 166.527 381.819C167.303 382.846 167.604 384.064 167.429 385.471C167.255 386.879 166.667 387.987 165.664 388.794C164.662 389.601 163.498 389.923 162.174 389.759L158.77 389.338ZM171.651 387.898L173.11 388.078C173.052 388.551 173.219 388.985 173.612 389.382C174.014 389.779 174.563 390.021 175.257 390.107C176.017 390.201 176.593 390.141 176.987 389.926C177.381 389.702 177.606 389.368 177.661 388.923C177.749 388.21 177.251 387.678 176.165 387.327L174.333 386.748C173.59 386.515 173.052 386.152 172.718 385.66C172.393 385.168 172.273 384.58 172.358 383.894C172.459 383.079 172.857 382.442 173.553 381.983C174.251 381.514 175.128 381.345 176.184 381.475C177.351 381.62 178.217 382.028 178.783 382.7C179.359 383.363 179.591 384.149 179.479 385.057L178.02 384.876C178.079 384.404 177.925 383.971 177.56 383.578C177.195 383.185 176.679 382.947 176.012 382.865C175.382 382.787 174.869 382.869 174.472 383.112C174.086 383.346 173.867 383.667 173.817 384.075C173.732 384.76 174.164 385.26 175.112 385.575L176.606 386.042C177.567 386.339 178.247 386.734 178.647 387.225C179.057 387.708 179.215 388.335 179.12 389.103C179.017 389.937 178.612 390.583 177.907 391.041C177.202 391.49 176.262 391.642 175.086 391.496C173.909 391.351 173.015 390.939 172.403 390.262C171.791 389.584 171.54 388.796 171.651 387.898ZM182.473 392.269L183.504 383.932L180.447 383.554L180.619 382.165L188.191 383.101L188.02 384.49L184.963 384.113L183.932 392.449L182.473 392.269ZM186.439 392.759L191.184 383.471L193.407 383.746L195.748 393.91L194.15 393.712L193.6 391.317L189.154 390.767L188.036 392.957L186.439 392.759ZM189.803 389.507L193.277 389.937L192.228 385.293L191.951 385.259L189.803 389.507ZM196.789 394.039L197.991 384.313L202.368 384.854C203.183 384.955 203.823 385.33 204.288 385.98C204.764 386.622 204.944 387.406 204.83 388.332C204.715 389.258 204.349 389.98 203.73 390.496C203.122 391.003 202.41 391.207 201.595 391.106L201.247 391.063L204.292 394.966L202.416 394.734L199.372 390.831L198.677 390.745L198.248 394.219L196.789 394.039ZM198.849 389.356L201.697 389.708C202.095 389.757 202.458 389.638 202.785 389.349C203.113 389.06 203.308 388.661 203.371 388.152C203.434 387.642 203.342 387.208 203.095 386.848C202.848 386.488 202.525 386.284 202.127 386.235L199.278 385.882L198.849 389.356ZM207.847 395.406L208.877 387.069L205.821 386.691L205.992 385.302L213.565 386.238L213.393 387.627L210.336 387.25L209.305 395.586L207.847 395.406ZM215.489 396.351L220.234 387.063L222.457 387.338L224.798 397.502L223.2 397.304L222.65 394.908L218.204 394.359L217.087 396.548L215.489 396.351ZM218.853 393.099L222.327 393.528L221.279 388.885L221.001 388.85L218.853 393.099ZM228.992 394.987L230.451 395.168C230.393 395.64 230.56 396.074 230.953 396.471C231.355 396.869 231.904 397.11 232.598 397.196C233.358 397.29 233.934 397.23 234.328 397.015C234.722 396.791 234.947 396.457 235.002 396.012C235.09 395.299 234.591 394.767 233.506 394.417L231.673 393.837C230.931 393.605 230.393 393.242 230.059 392.749C229.734 392.258 229.614 391.669 229.699 390.984C229.799 390.168 230.198 389.531 230.894 389.072C231.592 388.603 232.468 388.434 233.524 388.565C234.691 388.709 235.558 389.117 236.124 389.789C236.7 390.453 236.932 391.238 236.82 392.146L235.361 391.966C235.419 391.493 235.266 391.061 234.901 390.667C234.536 390.274 234.019 390.037 233.353 389.954C232.723 389.876 232.209 389.959 231.813 390.201C231.426 390.435 231.208 390.756 231.158 391.164C231.073 391.849 231.505 392.35 232.453 392.664L233.947 393.131C234.907 393.428 235.587 393.823 235.987 394.314C236.398 394.798 236.556 395.424 236.461 396.193C236.358 397.026 235.953 397.672 235.248 398.13C234.543 398.579 233.603 398.731 232.426 398.586C231.25 398.44 230.356 398.029 229.744 397.351C229.132 396.674 228.881 395.886 228.992 394.987ZM238.204 395.209L238.926 389.374L240.385 389.554L239.663 395.39C239.566 396.177 239.714 396.844 240.107 397.391C240.511 397.93 241.064 398.243 241.768 398.33C242.472 398.417 243.081 398.248 243.595 397.822C244.118 397.389 244.429 396.778 244.526 395.991L245.248 390.155L246.707 390.336L245.985 396.171C245.835 397.385 245.353 398.317 244.539 398.969C243.735 399.612 242.754 399.863 241.597 399.719C240.439 399.576 239.544 399.094 238.912 398.273C238.29 397.444 238.054 396.423 238.204 395.209ZM255.02 397.852L256.548 398.041C256.405 398.437 256.199 398.816 255.928 399.178C255.667 399.541 255.339 399.876 254.943 400.185C254.548 400.493 254.073 400.721 253.518 400.869C252.964 401.017 252.372 401.052 251.742 400.974C250.436 400.812 249.392 400.208 248.609 399.162C247.826 398.115 247.525 396.86 247.706 395.396C247.887 393.933 248.484 392.789 249.499 391.964C250.513 391.14 251.673 390.809 252.979 390.97C254.128 391.112 255.045 391.564 255.731 392.326C256.428 393.08 256.829 393.943 256.935 394.915L255.406 394.726C255.246 394.048 254.932 393.506 254.465 393.1C253.999 392.685 253.446 392.438 252.807 392.359C251.881 392.245 251.076 392.479 250.393 393.062C249.709 393.646 249.3 394.484 249.165 395.577C249.03 396.67 249.223 397.582 249.743 398.314C250.264 399.047 250.988 399.47 251.914 399.584C252.655 399.676 253.291 399.552 253.822 399.214C254.363 398.867 254.762 398.413 255.02 397.852ZM265.169 399.107L266.698 399.296C266.555 399.692 266.348 400.071 266.077 400.433C265.816 400.795 265.488 401.131 265.092 401.439C264.697 401.748 264.222 401.976 263.668 402.124C263.113 402.272 262.521 402.306 261.891 402.229C260.585 402.067 259.541 401.463 258.758 400.416C257.975 399.37 257.674 398.115 257.855 396.651C258.036 395.188 258.634 394.044 259.648 393.219C260.662 392.395 261.822 392.063 263.128 392.225C264.277 392.367 265.194 392.819 265.881 393.581C266.577 394.335 266.979 395.198 267.084 396.17L265.556 395.981C265.395 395.303 265.081 394.761 264.614 394.355C264.148 393.94 263.596 393.693 262.956 393.614C262.03 393.5 261.225 393.734 260.542 394.317C259.859 394.9 259.449 395.739 259.314 396.832C259.179 397.925 259.372 398.837 259.893 399.569C260.413 400.301 261.137 400.725 262.063 400.839C262.804 400.931 263.44 400.807 263.971 400.469C264.512 400.122 264.912 399.668 265.169 399.107ZM267.82 402.821L269.023 393.095L275.414 393.885L275.242 395.274L270.31 394.664L269.966 397.443L274.621 398.019L274.449 399.408L269.794 398.833L269.451 401.612L274.383 402.221L274.211 403.611L267.82 402.821ZM276.016 403.834L277.218 394.108L283.47 394.881L283.299 396.27L278.505 395.678L278.162 398.456L282.677 399.015L282.505 400.404L277.99 399.846L277.474 404.014L276.016 403.834ZM284.351 400.915L285.073 395.079L286.531 395.259L285.81 401.095C285.713 401.882 285.861 402.549 286.254 403.096C286.657 403.635 287.211 403.948 287.915 404.035C288.619 404.122 289.228 403.953 289.741 403.528C290.265 403.094 290.576 402.483 290.673 401.696L291.394 395.861L292.853 396.041L292.132 401.876C291.982 403.09 291.5 404.022 290.686 404.674C289.882 405.318 288.901 405.568 287.743 405.425C286.585 405.282 285.691 404.8 285.059 403.978C284.437 403.149 284.201 402.128 284.351 400.915ZM293.668 406.016L294.871 396.29L296.33 396.471L295.299 404.807L300.023 405.391L299.851 406.781L293.668 406.016ZM304.853 403.449L305.575 397.614L307.034 397.794L306.312 403.63C306.215 404.417 306.363 405.084 306.756 405.631C307.159 406.17 307.713 406.483 308.417 406.57C309.121 406.657 309.73 406.488 310.243 406.062C310.767 405.629 311.078 405.018 311.175 404.231L311.897 398.395L313.355 398.576L312.634 404.411C312.484 405.625 312.002 406.557 311.188 407.209C310.384 407.853 309.403 408.103 308.245 407.96C307.088 407.816 306.193 407.334 305.561 406.513C304.939 405.684 304.703 404.663 304.853 403.449ZM314.17 408.551L315.373 398.825L317.526 399.091L320.55 407.153L320.828 407.188L321.764 399.615L323.223 399.796L322.021 409.522L319.867 409.255L316.843 401.193L316.565 401.159L315.629 408.731L314.17 408.551ZM324.103 409.779L325.305 400.053L326.764 400.233L325.561 409.959L324.103 409.779ZM330.914 410.621L332.116 400.895L333.575 401.076L332.545 409.412L337.269 409.996L337.097 411.386L330.914 410.621ZM338.417 411.549L339.62 401.823L341.079 402.003L339.876 411.729L338.417 411.549ZM341.959 411.987L343.161 402.261L349.414 403.034L349.242 404.423L344.448 403.831L344.105 406.609L348.62 407.168L348.449 408.557L343.933 407.999L343.418 412.167L341.959 411.987ZM349.883 412.966L351.085 403.24L357.477 404.031L357.305 405.42L352.372 404.81L352.029 407.589L356.683 408.165L356.512 409.554L351.857 408.978L351.514 411.757L356.446 412.367L356.274 413.757L349.883 412.966ZM358.735 411.522L358.93 408.231L359.42 404.271L360.879 404.451L360.389 408.411L359.777 411.65L358.735 411.522ZM358.148 413.988L358.345 412.39L359.943 412.588L359.746 414.186L358.148 413.988Z" fill="#8B8B8B"/>
<rect x="24.0464" y="410.483" width="460.602" height="153.836" rx="8" transform="rotate(7.04799 24.0464 410.483)" fill="#03C3A3"/>
<circle cx="121.53" cy="119.816" r="14.9311" transform="rotate(7.04799 121.53 119.816)" fill="#03C3A3"/>
<path d="M117.565 121.647L117.711 120.466L122.191 114.46L124.484 114.744L123.702 121.066L124.883 121.212L124.72 122.532L123.539 122.386L123.281 124.47L121.823 124.289L122.08 122.205L117.565 121.647ZM119.465 120.542L122.243 120.885L122.802 116.37L122.524 116.335L119.473 120.472L119.465 120.542Z" fill="white"/>
<circle cx="119.929" cy="458.315" r="24.5937" transform="rotate(7.04799 119.929 458.315)" fill="#FFA7D1"/>
<path d="M123.42 457.61C123.8 456.94 124.309 456.351 124.916 455.877C125.523 455.403 126.218 455.054 126.961 454.849C127.703 454.643 128.479 454.586 129.244 454.681C130.008 454.775 130.747 455.02 131.417 455.399C132.087 455.779 132.676 456.288 133.15 456.895C133.623 457.503 133.973 458.197 134.178 458.94" stroke="#ADE6ED" stroke-width="2.2563"/>
<path d="M102.824 455.063C103.204 454.393 103.712 453.804 104.32 453.331C104.927 452.857 105.622 452.507 106.365 452.302C107.107 452.097 107.883 452.04 108.647 452.134C109.412 452.229 110.15 452.473 110.821 452.853C111.491 453.233 112.08 453.741 112.553 454.349C113.027 454.956 113.377 455.651 113.582 456.394" stroke="#ADE6ED" stroke-width="2.2563"/>
<path d="M120.004 452.186L116.137 459.024C115.345 460.423 116.229 462.177 117.824 462.374L124.329 463.178" stroke="#ADE6ED" stroke-width="2.2563"/>
<path d="M107.541 471.352C107.162 471.305 106.8 471.17 106.485 470.959C106.169 470.747 105.909 470.465 105.725 470.135C105.541 469.806 105.439 469.438 105.428 469.062C105.417 468.687 105.496 468.315 105.66 467.976C105.823 467.637 106.066 467.342 106.369 467.115C106.671 466.887 107.024 466.734 107.399 466.668C107.774 466.602 108.16 466.624 108.525 466.734C108.89 466.844 109.223 467.037 109.498 467.299" stroke="#ADE6ED" stroke-width="2.2563"/>
<path d="M107.54 471.351C107.161 471.304 106.778 471.346 106.42 471.475C106.062 471.603 105.741 471.813 105.483 472.088C105.224 472.363 105.036 472.695 104.933 473.057C104.831 473.418 104.817 473.799 104.893 474.167C104.97 474.535 105.133 474.881 105.371 475.175C105.609 475.469 105.915 475.704 106.262 475.859C106.609 476.015 106.989 476.087 107.37 476.069C107.75 476.052 108.121 475.945 108.451 475.759" stroke="#ADE6ED" stroke-width="2.2563"/>
<circle cx="119.929" cy="458.315" r="24.5937" transform="rotate(7.04799 119.929 458.315)" fill="white"/>
<path d="M116.911 482.722C110.438 481.922 104.547 478.583 100.536 473.44C96.5243 468.296 94.7204 461.77 95.5207 455.297C96.321 448.823 99.6601 442.933 104.803 438.922C109.947 434.91 116.473 433.106 122.946 433.907L119.929 458.314L116.911 482.722Z" fill="#FF4B11"/>
<rect x="81.5874" y="483.855" width="69.7819" height="87.3244" transform="rotate(7.04799 81.5874 483.855)" fill="#FFA7D1"/>
<rect x="116.099" y="488.227" width="35.0074" height="87.3244" transform="rotate(7.04799 116.099 488.227)" fill="#03C3A3"/>
<path d="M101.957 581.596C101.388 586.197 99.0168 590.384 95.3646 593.236C91.7124 596.088 87.0785 597.371 82.4823 596.803C77.8862 596.234 73.7042 593.862 70.8565 590.206C68.0088 586.551 66.7286 581.912 67.2974 577.311L84.6273 579.454L101.957 581.596Z" fill="#ADE6ED"/>
<path d="M136.616 585.881C136.047 590.483 133.676 594.67 130.024 597.521C126.372 600.373 121.738 601.656 117.142 601.088C112.545 600.52 108.363 598.147 105.516 594.491C102.668 590.836 101.388 586.197 101.957 581.596L119.286 583.739L136.616 585.881Z" fill="#ADE6ED"/>
<path d="M134.985 599.448C134.417 604.049 132.045 608.236 128.393 611.088C124.741 613.94 120.107 615.222 115.511 614.654C110.914 614.086 106.733 611.713 103.885 608.058C101.037 604.402 99.7569 599.764 100.326 595.163L117.656 597.305L134.985 599.448Z" fill="#ADE6ED"/>
<path d="M99.7804 595.095C99.2115 599.696 96.8401 603.883 93.1879 606.735C89.5356 609.587 84.9017 610.87 80.3056 610.302C75.7094 609.733 71.5275 607.361 68.6798 603.705C65.832 600.05 64.5518 595.411 65.1207 590.81L82.4505 592.953L99.7804 595.095Z" fill="#ADE6ED"/>
<path d="M126.778 402.014L137.917 433.418L108.327 429.76L126.778 402.014Z" fill="black"/>
<path d="M109.651 661.97L104.53 616.597L125.668 619.211L109.651 661.97Z" fill="#FF4B11"/>
<path d="M74.7175 657.651L69.5967 612.279L90.7345 614.892L74.7175 657.651Z" fill="black"/>
<circle cx="390.954" cy="533.16" r="24.5937" transform="rotate(-172.952 390.954 533.16)" fill="white"/>
<path d="M387.937 557.568C381.463 556.768 375.573 553.429 371.562 548.285C367.55 543.142 365.746 536.616 366.547 530.143C367.347 523.669 370.686 517.779 375.829 513.767C380.973 509.756 387.499 507.952 393.972 508.752L390.954 533.16L387.937 557.568Z" fill="#FF4B11"/>
<path d="M394.123 508.272L410.662 496.214L381.019 492.549L394.123 508.272Z" fill="#03C3A3"/>
<circle cx="397.199" cy="482.43" r="12.0478" transform="rotate(7.04799 397.199 482.43)" fill="#FF4B11"/>
<rect x="331.259" y="556.608" width="112.682" height="68.9793" rx="34.4896" transform="rotate(7.04799 331.259 556.608)" fill="#FFA7D1"/>
<mask id="mask0_479_1798" style="mask-type:alpha" maskUnits="userSpaceOnUse" x="105" y="488" width="46" height="92">
<rect x="116.1" y="488.122" width="35.0074" height="87.3244" transform="rotate(7.04799 116.1 488.122)" fill="#4B4BFF"/>
</mask>
<g mask="url(#mask0_479_1798)">
<rect x="102.402" y="578.678" width="2.51664" height="54.5271" transform="rotate(-82.952 102.402 578.678)" fill="#FF4B11"/>
<rect x="114.996" y="620.385" width="2.51664" height="209.3" transform="rotate(-172.952 114.996 620.385)" fill="#FF4B11"/>
<rect x="106.67" y="619.355" width="2.51664" height="209.3" transform="rotate(-172.952 106.67 619.355)" fill="#FF4B11"/>
<rect x="123.322" y="621.414" width="2.51664" height="209.3" transform="rotate(-172.952 123.322 621.414)" fill="#FF4B11"/>
<rect x="131.647" y="622.443" width="2.51664" height="209.3" transform="rotate(-172.952 131.647 622.443)" fill="#FF4B11"/>
<rect x="139.973" y="623.473" width="2.51664" height="209.3" transform="rotate(-172.952 139.973 623.473)" fill="#FF4B11"/>
<rect x="148.298" y="624.502" width="2.51664" height="209.3" transform="rotate(-172.952 148.298 624.502)" fill="#FF4B11"/>
<rect x="103.432" y="570.352" width="2.51664" height="54.5271" transform="rotate(-82.952 103.432 570.352)" fill="#FF4B11"/>
<rect x="104.461" y="562.026" width="2.51664" height="54.5271" transform="rotate(-82.952 104.461 562.026)" fill="#FF4B11"/>
<rect x="105.49" y="553.701" width="2.51664" height="54.5271" transform="rotate(-82.952 105.49 553.701)" fill="#FF4B11"/>
<rect x="106.52" y="545.375" width="2.51664" height="54.5271" transform="rotate(-82.952 106.52 545.375)" fill="#FF4B11"/>
<rect x="107.549" y="537.051" width="2.51664" height="54.5271" transform="rotate(-82.952 107.549 537.051)" fill="#FF4B11"/>
<rect x="108.578" y="528.725" width="2.51664" height="54.5271" transform="rotate(-82.952 108.578 528.725)" fill="#FF4B11"/>
<rect x="109.608" y="520.4" width="2.51664" height="54.5271" transform="rotate(-82.952 109.608 520.4)" fill="#FF4B11"/>
<rect x="110.637" y="512.074" width="2.51664" height="54.5271" transform="rotate(-82.952 110.637 512.074)" fill="#FF4B11"/>
<rect x="111.666" y="503.75" width="2.51664" height="54.5271" transform="rotate(-82.952 111.666 503.75)" fill="#FF4B11"/>
<rect x="112.696" y="495.424" width="2.51664" height="54.5271" transform="rotate(-82.952 112.696 495.424)" fill="#FF4B11"/>
<rect x="113.725" y="487.099" width="2.51664" height="54.5271" transform="rotate(-82.952 113.725 487.099)" fill="#FF4B11"/>
</g>
<path d="M17.7599 492.639C17.6289 493.129 17.5135 493.564 17.3729 494.097C15.2982 493.761 13.6097 492.579 11.4706 492.302C13.5267 496.703 17.1963 502.927 11.6142 506.3C5.81034 510.292 -0.340728 505.777 -5.12563 502.346C-5.68632 502.647 -5.48327 503.033 -5.34527 503.375C-4.04891 506.626 -1.95044 509.047 1.49651 510.168C4.08508 511.721 9.04785 510.261 8.53718 513.253C7.11011 525.08 11.2488 536.442 17.4479 546.369C24.298 556.689 37.0545 558.521 48.0279 554.243C60.3228 549.597 65.6674 535.868 70.8562 524.787C71.915 523.091 74.1275 516.476 76.1183 516.885C76.9571 517.182 76.2706 518.216 75.9885 518.718C70.1432 529.237 66.5455 541.078 57.9077 549.844C52.6171 555.841 44.4285 557.558 36.7834 558.259C31.5588 558.704 26.8162 556.533 22.5142 553.823C14.7052 548.803 11.5199 539.267 8.33731 530.989C6.08843 525.302 7.15185 519.191 6.17875 513.362C-0.790288 512.082 -6.9023 508.461 -7.71026 500.904C-11.1167 493.797 -11.4951 492.623 -7.56446 485.348C-12.3912 481.402 -17.2088 474.428 -14.6596 468.079C-11.3287 462.275 -3.08003 466.442 0.169239 470.515C0.849744 470.313 0.545871 469.853 0.542204 469.527C-0.177774 463.856 1.27356 455.32 8.69357 456.048C16.3082 459.081 15.8691 470.141 17.4106 477.031C26.3699 481.216 28.6362 490.392 24.3265 498.989C24.9719 502.665 25.6647 506.171 25.598 509.877C25.7129 518.449 29.0416 528.712 37.8391 531.714C40.8842 532.848 43.8032 531.941 46.2045 529.742C53.3395 521.957 55.7745 510.98 61.6351 502.259C64.0578 497.787 74.3483 483.767 79.5342 484.879C79.8364 485.247 79.6053 485.834 78.9228 486.194C74.1656 488.696 70.6589 492.541 67.4516 496.74C61.56 504.468 57.7561 513.457 53.4578 522.104C50.6609 528.321 45.1536 535.929 37.4053 533.443C27.2419 529.924 23.9772 518.432 23.4902 508.67C23.6751 505.859 23.6765 503.143 22.7053 500.465C22.4333 499.498 22.4295 498.71 22.9168 497.758C24.5537 494.553 24.9387 491.119 24.4538 487.568C24.0367 481.618 13.999 476.015 8.56994 477.083C5.12385 477.484 2.24069 481.446 4.53398 484.604C7.61846 488.978 12.9937 490.729 17.7691 492.636L17.7599 492.639ZM-1.4067 485.361C-6.74325 483.795 -10.0563 492.479 -7.97889 496.245C-5.07858 502.713 11.3358 512.217 13.0031 500.617C11.5099 493.764 5.36766 486.864 -1.4067 485.361ZM2.11126 484.414C1.70658 481.78 2.82709 479.656 1.95822 477.396C1.00433 475.575 0.094807 473.715 -1.04577 472.016C-3.49033 467.875 -12.9523 463.593 -13.7035 471.199C-13.3189 475.917 -10.9263 480.513 -7.09532 483.333C-6.48928 483.769 -5.85268 483.958 -5.09159 483.673C-2.6821 482.831 -0.27818 483.991 2.11126 484.414ZM15.5024 475.99C14.2685 469.991 14.2729 460.242 8.08648 457.756C-0.290151 458.147 1.85299 471.771 3.99075 476.97C7.49074 474.246 11.1884 474.087 15.4986 475.985L15.5024 475.99Z" fill="black"/>
<path d="M357.849 626.156C358.215 624.124 358.958 622.063 358.643 619.876C338.187 617.977 317.633 596.296 330.956 576.256C331.507 575.109 333.518 573.077 333.806 575.477C333.631 577.608 332.917 579.716 333.641 581.83C336.066 594.455 347.363 605.14 360.407 604.97C362.139 598.471 362.756 591.557 364.057 584.913C364.306 581.123 363.607 581.683 367.483 581.009C368.378 578.325 368.015 575.317 371.81 575.725C374.119 575.975 371.979 579.197 372.545 580.847C381.658 580.689 390.762 579.864 399.843 580.996C404.03 581.579 400.401 589.864 400.848 592.974C402.376 593.819 402.883 595.088 402.166 596.865C409.425 598.326 401.11 605.983 398.303 608.295C397.274 615.404 396.215 622.69 395.134 630.154C393.789 631.317 391.788 631.523 390.146 632.667C386.238 630.15 380.634 631.214 376.196 629.529C370.791 628.197 365.196 628.117 359.712 627.245C359.007 627.145 358.284 627.02 357.848 626.169L357.849 626.156ZM396.875 592.518C394.084 592.67 391.812 594.533 390.05 596.507C387.632 599.448 384.229 601.101 380.905 602.759C360.032 613.661 335.349 603.782 331.083 579.925C323.677 592.356 333.364 607.344 344.606 613.638C357.825 620.479 374.093 619.533 387.298 613.11C392.34 610.155 397.599 607.296 401.495 602.83C402.362 602.084 404.433 598.779 402.093 599.057C399.485 599.553 398.013 605.054 395.437 603.679C394.759 602.05 401.319 597.707 400.273 595.386C397.317 594.879 393.585 602.684 392.307 600.352C393.88 597.663 396.218 595.765 396.879 592.519L396.875 592.518ZM362.646 605.26C369.967 605.786 377.012 602.933 383.348 599.544C387.512 597.501 389.87 593.056 394.248 591.234C395.599 588.922 396.03 585.437 395.962 582.642C392.209 581.79 371.199 582.265 366.256 583.279C365.078 588.041 362.61 602.883 362.646 605.255L362.646 605.26ZM392.798 611.857C382.836 618.311 372.259 620.591 360.684 619.992C360.314 621.839 359.946 623.572 360.16 625.54C365.554 626.286 370.936 626.529 376.246 627.704C380.583 628.566 384.948 629.951 389.408 629.6C390.735 623.888 392.118 618.218 392.798 611.857ZM396.234 609.976C394.554 610.644 394.836 611.854 394.481 613.267C393.985 618.88 391.822 624.207 391.545 629.79C392.92 629.625 393.586 629.008 393.763 627.687C394.549 621.683 395.49 616.029 396.234 609.976ZM396.829 590.219C397.763 590.453 398.285 590.791 399.049 591.44C399.226 588.513 400.151 585.77 399.818 583.053L398.219 582.855C397.258 585.183 397.357 587.687 396.829 590.215L396.829 590.219ZM369.746 581.065C371.148 580.582 370.799 578.994 370.353 577.794C369.817 578.89 369.512 579.865 369.746 581.065ZM399.075 592.865C398.813 592.956 398.945 593.17 398.968 593.375C399.238 593.29 399.098 593.07 399.075 592.865Z" fill="black"/>
<path d="M153.164 457.557C159.616 459.702 161.813 469.513 155.6 473.076C150.807 476.401 145.041 474.821 139.738 474.02C133.9 480.953 124.991 486.93 115.616 484.261C114.933 484.022 113.834 483.908 113.918 482.946C114.154 481.179 121.66 484.871 126.661 481.858C148.743 473.35 148.11 438.432 122.338 436.333C119.474 436.366 119.235 434.135 122.317 434.578C127.286 435.17 131.889 436.831 136.061 439.561C141.255 443.28 143.401 449.836 144.31 455.935C146.486 456.802 148.623 456.314 150.985 456.782C147.463 418.367 101.589 412.066 88.6542 448.829C90.5188 449.654 92.5821 448.729 94.3551 449.868C94.229 450.319 94.1049 450.753 94.0036 451.11C92.889 451.549 91.815 451.02 90.5758 451.008C88.732 455.886 88.2469 461.945 89.1668 466.781C90.6129 468.109 93.6262 465.585 94.1735 467.885C92.9425 470.475 81.3621 467.599 79.2028 465.919C71.9458 460.493 78.1573 449.217 86.4662 449.232C100.76 409.34 148.612 415.868 153.164 457.553L153.164 457.557ZM88.2415 451.349C76.4492 449.226 73.0912 466.814 86.9908 466.446C86.8806 461.181 87.3015 456.532 88.2415 451.349ZM149.902 458.778C149.635 459.089 149.545 459.139 149.537 459.209C149.13 463.921 147.482 468.744 147.837 473.415C159.271 474.207 161.431 460.217 149.902 458.778ZM145.731 472.626C146.116 467.801 147.247 463.42 147.467 458.689C146.292 458.273 145.297 458.164 144.481 458.359C143.854 463.216 142.692 467.707 140.958 472.335C142.543 472.681 144.036 473.2 145.731 472.622L145.731 472.626Z" fill="black"/>
<path d="M357.923 504.886C329.239 495.552 374.384 477.042 393.243 506.59C402.437 502.295 413.712 498.675 422.953 504.739C428.625 507.584 433.87 520.386 422.882 517.628C423.957 523.276 421.405 528.789 414.93 528.283C417.866 543.542 406.537 556.531 391.447 558.195C389.681 558.32 387.755 558.698 386.021 558.458C385.308 558.066 384.979 556.955 386.039 556.818C406.696 557.307 421.199 538.284 409.247 519.661C404.795 512.689 395.194 509.283 387.204 510.245C379.691 512.649 372.652 516.528 365.223 519.254C350.72 525.393 343.405 512.89 357.928 504.883L357.923 504.886ZM391.665 508.037C386.287 497.129 372.867 491.693 361.16 492.226C344.821 494.498 349.247 502.969 362.936 503.587C365.627 503.215 367.928 506.233 363.983 505.794C355.64 503.957 344.247 519.315 358.647 519.066C364.588 518.379 369.869 515.233 375.383 513.12C380.775 510.965 385.626 507.598 391.666 508.033L391.665 508.037ZM394.283 508.532C401.821 510.587 409.476 514.073 412.367 521.861C413.361 523.749 414.219 527.095 416.962 526.474C418.854 526.079 420.34 525.021 420.96 523.139C423.066 514.754 416.493 516.103 415.637 512.356C417.526 510.138 422.02 517.125 426.545 516.117C429.466 515.224 425.534 508.707 423.85 507.597C415.521 500.514 402.643 503.122 394.288 508.528L394.283 508.532Z" fill="black"/>
<path d="M476.119 487.045C473.305 488.955 474.494 494.393 472.27 494.408C470.656 494.187 473.203 488.929 471.672 486.649C469.021 488.13 470.451 493.677 468.247 493.929C466.243 493.307 468.979 488.719 467.57 486.661C463.402 490.129 466.308 496.871 463.41 500.805C460.823 501.766 462.909 494.827 461.206 493.727C458.755 511.062 456.997 528.62 449.192 544.606C444.062 554.602 437.002 572.032 425.893 575.91C424.378 576.242 423.792 574.365 425.453 574.13C439.286 568.93 451.686 535.891 455.078 521.907C457.136 513.411 457.75 504.67 458.842 496.019C459.05 493.408 459.839 490.226 463.086 492.401C464.329 489.817 464.172 486.351 466.896 484.751C468.069 483.87 468.843 484.587 469.467 485.8C471.851 483.92 472.082 482.588 473.765 486.305C482.477 479.216 475.275 507.646 474.88 510.908C468.167 538.945 456.02 566.421 437.73 588.845C437.258 589.887 434.597 590.909 435.224 588.936C436.953 586.376 439.477 584.461 441.124 581.817C459.934 554.619 475.046 520.423 476.119 487.045Z" fill="black"/>
<path d="M159.509 539.648C160.768 538.796 170.694 525.836 170.357 530.592C155.66 546.479 140.424 562.744 131.095 582.548C128.555 586.79 129.464 589.834 133.22 592.975C140.877 591.038 148.959 589.542 155.889 585.583C164.926 579.886 174.169 572.74 177.966 562.421C186.297 542.471 179.689 517.81 163.003 504.236C159.731 502.198 150.846 493.251 147.717 493.969C147.245 494.162 146.744 493.374 146.909 492.818C148.236 488.923 156.184 497.301 158.338 498.271C179.409 512.035 189.668 540.362 179.28 563.855C173.785 576.307 161.426 585.994 148.847 590.659C143.587 592.143 138.308 593.564 133.034 595.007C130.586 594.137 129.307 590.713 127.642 588.627C126.758 586.563 128.727 584.368 129.267 582.384C135.868 567.604 146.26 555.041 156.806 542.937C158.71 540.958 156.532 538.426 155.58 536.521C151.462 530.686 147.913 524.485 143.961 518.547C143.476 517.171 145.726 517.159 145.956 518.358C150.447 525.446 155.085 532.666 159.518 539.649L159.509 539.648Z" fill="black"/>
<path d="M367.586 529.181C365.388 530.838 363.317 532.395 361.207 533.983C360.651 533.672 360.182 533.412 359.775 533.181C361.739 528.718 367.14 525.887 370.98 522.866C374.085 520.495 377.662 519.995 381.313 521.098C385.42 522.116 390.343 531.15 387.357 534.667C379.269 541.934 371.418 538.714 367.59 529.182L367.586 529.181ZM382.144 524.018C381.638 528.537 380.811 532.384 379.373 536.577C382.629 536.574 384.841 533.661 386.036 530.899C386.269 528.7 384.34 524.8 382.144 524.022L382.144 524.018ZM374.43 535.636C374.492 531.536 375.464 528.483 375.012 524.558C372.842 524.958 371.109 526.624 369.402 528.011C370.16 531.172 371.714 533.623 374.434 535.64L374.43 535.636Z" fill="black"/>
<path d="M400.608 544.735C395.968 544.043 393.535 537.923 393.998 533.79C395.945 529.532 398.54 520.573 404.736 523.056C412.645 527.085 410.523 545.213 400.608 544.735ZM405.946 526.573C405.666 531.9 404.797 537.004 403.39 542.157C408.334 540.285 408.896 530.186 405.946 526.573ZM398.918 528.231C397.267 529.202 395.805 534.154 395.824 536.067C396.393 538.008 397.007 541.517 399.172 542.08C398.44 535.514 398.383 535.261 398.917 528.235L398.918 528.231Z" fill="black"/>
<path d="M106.661 502.464C114.936 482.86 111.97 485.856 118.566 503.46C119.191 503.494 119.122 502.983 119.206 502.659C119.535 501.423 124.235 484.01 125.327 490.197C117.545 507.516 121.703 519.902 112.889 492.652C110.315 496.608 109.816 501.564 107.098 505.476C105.084 507.177 104.95 502.957 104.426 501.783C103.323 497.222 101.485 492.906 99.9815 488.486C101.508 483.361 105.695 500.918 106.661 502.46L106.661 502.464Z" fill="black"/>
<path d="M122.375 523.177C121.604 519.67 123.831 516.208 122.629 512.802C121.276 509.901 132.902 511.77 134.183 512.399C132.882 528.798 136.745 523.382 122.376 523.172L122.375 523.177ZM131.701 522.265C131.687 519.812 132.638 517.565 131.972 515.551C129.323 516.2 127.734 521.537 125.609 517.449C125.369 517.146 125.175 516.761 124.612 517.04C124.43 518.373 124.033 519.732 124.266 521.227C126.843 521.77 128.867 521.879 131.701 522.265ZM130.773 513.866C128.723 513.111 127.163 512.988 125.43 513.382C125.976 514.977 126.277 515.428 127.593 516.598C128.582 515.748 129.581 514.89 130.773 513.866Z" fill="black"/>
<path d="M85.587 507.702C89.3934 507.376 92.7491 508.275 96.3064 509.358C98.35 509.945 96.2046 514.416 96.4056 516.136C96.0216 519.134 96.0518 518.997 93.2297 518.657C90.3984 518.285 87.4356 518.372 84.6135 517.997C83.9198 514.676 85.3735 511.387 85.587 507.702ZM94.5045 516.887C94.6508 515.703 94.7747 514.772 94.8808 513.843C94.94 511.478 92.2394 514.569 91.637 515.313C90.8994 516.155 90.1081 516.114 89.4857 515.205C88.5519 514.289 88.2207 511.88 86.8671 511.761C86.668 513.193 86.223 514.622 86.3389 516.247C89.0284 516.698 91.6165 516.653 94.5083 516.892L94.5045 516.887ZM93.8868 510.745C91.4461 509.633 90.2316 509.421 88.4385 509.833C89.1425 511.078 89.6478 512.399 90.5536 513.401C91.7097 512.448 93.082 511.988 93.8868 510.745Z" fill="black"/>
<path d="M381.566 544.168C381.695 544.726 381.812 545.242 381.92 545.717C384.384 546.709 392.41 547.631 395.226 547.231C395.393 542.431 399.672 548.709 395.113 549.18C390.82 549.349 386.609 548.362 382.377 547.821C379.799 547.251 376.213 542.771 381.566 544.168Z" fill="black"/>
<path d="M103.186 454.094C101.256 454.014 99.1176 454.124 97.1367 453.883C96.2587 453.797 96.3964 452.612 97.1012 452.391C97.7158 452.26 98.358 452.225 98.9863 452.232C101.293 452.544 113.79 451.95 113.459 454.664C112.205 455.878 108.969 454.008 107.051 454.545C106.032 457.267 103.837 456.802 103.186 454.094Z" fill="black"/>
<path d="M132.909 457.051C129.786 460.851 130.402 456.152 127.293 456.643C125.907 456.393 123.068 457.397 122.625 455.608C122.659 454.732 123.661 454.741 124.309 454.8C129.102 455.247 133.983 455.093 138.727 455.896C141.673 458.474 134.027 457.049 132.908 457.056L132.909 457.051Z" fill="black"/>
<path d="M120.986 467.7C121.198 466.837 120.845 465.746 121.941 465.63C123.224 465.93 122.722 468.214 124.496 468.416C126.266 469.149 124.732 470.562 123.485 469.937C119.902 468.64 116.818 471.34 112.35 468.226C111.462 467.834 110.724 466.651 112.019 466.349C114.958 467.562 117.674 468.897 120.986 467.7Z" fill="black"/>
<path d="M108.136 540.921C107.938 542.877 105.708 543.301 105.974 541.111C106.296 539.962 107.743 539.648 108.136 540.921Z" fill="black"/>
<path d="M117.595 464.204C116.245 463.1 117.565 461.603 118.91 462.148C120.206 463.193 118.622 463.904 117.595 464.204Z" fill="black"/>
<path d="M108.143 525.673C109.815 525.748 108.671 528.234 107.483 527.92C106.485 527.59 106.908 525.419 108.143 525.673Z" fill="black"/>
<path d="M106.099 558.602C105.139 560.248 103.645 558.167 104.423 557.145C105.376 556.448 106.456 557.458 106.099 558.602Z" fill="black"/>
<path d="M390.611 540.48C391.504 541.083 390.956 542.459 389.899 542.289C388.759 541.941 389.511 540.269 390.611 540.48Z" fill="black"/>
<path d="M362.65 605.265C362.614 602.887 365.082 588.046 366.26 583.288C371.199 582.27 392.208 581.799 395.965 582.651C396.039 585.438 395.598 588.931 394.252 591.243C389.878 593.066 387.516 597.506 383.352 599.553C377.015 602.947 369.971 605.796 362.649 605.269L362.65 605.265ZM371.102 597.572C389.493 595.968 384.881 600.455 387.077 586.962C387.327 586.117 386.161 585.973 385.549 585.981C380.906 586.173 375.961 585.033 371.473 586.318C370.897 589.768 370.546 592.639 369.897 596.146C370.25 596.564 370.657 597.041 371.106 597.572L371.102 597.572Z" fill="white"/>
<path d="M392.798 611.862C392.117 618.226 390.734 623.897 389.408 629.605C384.952 629.952 380.583 628.571 376.246 627.709C370.932 626.533 365.554 626.29 360.16 625.544C359.946 623.577 360.31 621.843 360.684 619.997C372.264 620.596 382.836 618.316 392.798 611.862Z" fill="white"/>
<path d="M396.238 609.98C395.494 616.033 394.552 621.692 393.767 627.691C393.591 629.008 392.92 629.625 391.549 629.794C391.825 624.212 393.989 618.884 394.485 613.272C394.84 611.859 394.558 610.653 396.238 609.98Z" fill="white"/>
<path d="M396.833 590.224C397.361 587.692 397.261 585.193 398.222 582.864L399.821 583.062C400.154 585.779 399.23 588.522 399.053 591.449C398.288 590.8 397.767 590.463 396.832 590.228L396.833 590.224Z" fill="white"/>
<path d="M369.75 581.065C369.516 579.861 369.825 578.891 370.356 577.795C370.802 578.994 371.151 580.582 369.75 581.065Z" fill="white"/>
<path d="M399.075 592.869C399.093 593.074 399.233 593.299 398.967 593.381C398.944 593.175 398.817 592.961 399.075 592.869Z" fill="white"/>
<path d="M382.141 524.017C384.329 524.785 386.269 528.705 386.033 530.895C384.838 533.661 382.621 536.569 379.37 536.572C380.808 532.379 381.639 528.538 382.141 524.013L382.141 524.017Z" fill="white"/>
<path d="M374.43 535.64C371.709 533.627 370.156 531.172 369.399 528.01C371.106 526.624 372.838 524.958 375.008 524.557C375.46 528.487 374.489 531.536 374.426 535.635L374.43 535.64Z" fill="white"/>
<path d="M405.947 526.573C408.892 530.186 408.339 540.281 403.391 542.157C404.798 537.004 405.667 531.9 405.947 526.573Z" fill="white"/>
<path d="M398.919 528.227C398.388 535.257 398.441 535.505 399.174 542.071C397.008 541.513 396.391 537.999 395.825 536.062C395.808 534.132 397.255 529.227 398.919 528.227Z" fill="white"/>
<circle cx="257.289" cy="479.344" r="24.5937" transform="rotate(7.04799 257.289 479.344)" fill="#FFA7D1"/>
<path d="M260.957 477.233C261.336 476.563 261.845 475.974 262.452 475.5C263.06 475.026 263.754 474.677 264.497 474.472C265.24 474.266 266.015 474.209 266.78 474.304C267.544 474.398 268.283 474.643 268.953 475.023C269.623 475.402 270.212 475.911 270.686 476.518C271.16 477.126 271.509 477.82 271.714 478.563" stroke="#ADE6ED" stroke-width="2.2563"/>
<path d="M240.359 474.687C240.739 474.016 241.247 473.428 241.855 472.954C242.462 472.48 243.157 472.13 243.9 471.925C244.642 471.72 245.418 471.663 246.183 471.757C246.947 471.852 247.686 472.096 248.356 472.476C249.026 472.856 249.615 473.364 250.089 473.972C250.562 474.579 250.912 475.274 251.117 476.017" stroke="#ADE6ED" stroke-width="2.2563"/>
<path d="M257.54 471.809L253.672 478.648C252.881 480.046 253.764 481.8 255.359 481.998L261.864 482.802" stroke="#ADE6ED" stroke-width="2.2563"/>
<path d="M245.742 485.582C245.364 485.535 245.002 485.4 244.686 485.189C244.371 484.977 244.11 484.695 243.927 484.365C243.743 484.036 243.641 483.668 243.63 483.292C243.618 482.917 243.698 482.544 243.861 482.206C244.025 481.867 244.268 481.572 244.57 481.345C244.873 481.117 245.226 480.964 245.601 480.898C245.976 480.832 246.362 480.854 246.726 480.964C247.091 481.074 247.425 481.267 247.699 481.529" stroke="#ADE6ED" stroke-width="2.2563"/>
<path d="M245.742 485.582C245.364 485.535 244.98 485.578 244.622 485.706C244.264 485.834 243.943 486.045 243.685 486.32C243.426 486.595 243.238 486.927 243.136 487.288C243.033 487.65 243.019 488.03 243.096 488.398C243.172 488.767 243.335 489.112 243.573 489.406C243.811 489.701 244.117 489.935 244.464 490.091C244.812 490.246 245.191 490.318 245.572 490.3C245.952 490.283 246.323 490.177 246.653 489.99" stroke="#ADE6ED" stroke-width="2.2563"/>
<circle cx="257.371" cy="479.479" r="24.659" transform="rotate(7.04799 257.371 479.479)" fill="white"/>
<path d="M260.724 455.503C267.198 456.303 273.088 459.642 277.099 464.785C281.111 469.929 282.915 476.455 282.115 482.928C281.314 489.402 277.975 495.292 272.832 499.303C267.689 503.315 261.162 505.119 254.689 504.318L257.707 479.911L260.724 455.503Z" fill="black"/>
<path d="M253.628 508.75L274.314 522.062L276.803 546.535L259.222 563.74L234.809 560.722L221.947 539.753L230.322 516.623L253.628 508.75Z" fill="#ADE6ED"/>
<circle cx="262.268" cy="440.79" r="12.0478" transform="rotate(7.04799 262.268 440.79)" fill="#FF4B11"/>
<circle cx="264.558" cy="422.269" r="12.0478" transform="rotate(7.04799 264.558 422.269)" fill="#FF4B11"/>
<path d="M170.543 626.301C172.757 608.393 181.994 592.099 196.222 581.002C210.45 569.905 228.504 564.914 246.411 567.128C264.319 569.342 280.613 578.579 291.71 592.807C302.807 607.035 307.798 625.089 305.584 642.996L238.063 634.648L170.543 626.301Z" fill="#FFA7D1"/>
<mask id="mask1_479_1798" style="mask-type:alpha" maskUnits="userSpaceOnUse" x="170" y="566" width="137" height="77">
<path d="M170.543 626.301C172.757 608.393 181.994 592.099 196.222 581.002C210.45 569.905 228.504 564.914 246.411 567.128C264.319 569.342 280.613 578.579 291.71 592.807C302.807 607.035 307.798 625.089 305.584 642.996L238.063 634.648L170.543 626.301Z" fill="#F5B539"/>
</mask>
<g mask="url(#mask1_479_1798)">
<path d="M274.937 553.983L283.33 562.472L273.122 568.66L264.73 560.172L274.937 553.983Z" fill="#FF4B11"/>
<path d="M182.615 592.61L191.008 601.098L180.801 607.287L172.408 598.799L182.615 592.61Z" fill="#FF4B11"/>
<path d="M212.924 595.429L221.317 603.918L211.11 610.106L202.717 601.618L212.924 595.429Z" fill="#FF4B11"/>
<path d="M242.613 599.608L251.006 608.097L240.799 614.285L232.406 605.797L242.613 599.608Z" fill="#FF4B11"/>
<path d="M271.72 603.878L280.112 612.367L269.905 618.555L261.512 610.067L271.72 603.878Z" fill="#FF4B11"/>
<path d="M300.901 607.486L309.294 615.975L299.086 622.163L290.694 613.675L300.901 607.486Z" fill="#FF4B11"/>
<path d="M172.656 564.391L181.049 572.879L170.842 579.068L162.449 570.58L172.656 564.391Z" fill="#FF4B11"/>
<path d="M216.631 572.825L225.024 581.314L214.817 587.502L206.424 579.014L216.631 572.825Z" fill="#FF4B11"/>
<path d="M245.425 576.385L253.818 584.874L243.61 591.062L235.217 582.574L245.425 576.385Z" fill="#FF4B11"/>
<path d="M274.247 579.819L282.64 588.308L272.432 594.496L264.04 586.008L274.247 579.819Z" fill="#FF4B11"/>
<path d="M196.533 608.961L204.925 617.45L194.718 623.639L186.325 615.15L196.533 608.961Z" fill="#FF4B11"/>
<path d="M170.396 606.324L178.788 614.812L168.581 621.001L160.188 612.512L170.396 606.324Z" fill="#FF4B11"/>
<path d="M225.065 612.483L233.458 620.972L223.251 627.16L214.858 618.672L225.065 612.483Z" fill="#FF4B11"/>
<path d="M253.958 616.517L262.351 625.005L252.143 631.194L243.751 622.706L253.958 616.517Z" fill="#FF4B11"/>
<path d="M282.698 620.07L291.091 628.559L280.884 634.747L272.491 626.259L282.698 620.07Z" fill="#FF4B11"/>
<path d="M311.478 623.767L319.87 632.255L309.663 638.444L301.27 629.955L311.478 623.767Z" fill="#FF4B11"/>
<path d="M199.735 581.809L208.128 590.297L197.921 596.486L189.528 587.998L199.735 581.809Z" fill="#FF4B11"/>
<path d="M228.09 586.122L236.483 594.61L226.275 600.799L217.883 592.311L228.09 586.122Z" fill="#FF4B11"/>
<path d="M259.475 590.002L267.868 598.491L257.66 604.68L249.268 596.191L259.475 590.002Z" fill="#FF4B11"/>
<path d="M287.672 594.065L296.065 602.553L285.858 608.742L277.465 600.254L287.672 594.065Z" fill="#FF4B11"/>
<path d="M188.582 555.056L196.974 563.545L186.767 569.733L178.374 561.245L188.582 555.056Z" fill="#FF4B11"/>
<path d="M232.32 564.155L240.713 572.643L230.506 578.832L222.113 570.344L232.32 564.155Z" fill="#FF4B11"/>
<path d="M261.061 567.708L269.453 576.196L259.246 582.385L250.853 573.897L261.061 567.708Z" fill="#FF4B11"/>
<path d="M293.163 563.834L301.556 572.322L291.348 578.511L282.956 570.023L293.163 563.834Z" fill="#FF4B11"/>
</g>
<path d="M254.282 504.297C252.937 504.786 251.618 504.777 250.388 504.189C241.048 499.777 232.689 491.34 232.687 480.397C231.596 481.789 225.275 494.803 224.64 488.192C225.68 480.996 231.282 475.962 235 470.228C228.901 468.779 222.433 468.644 216.199 467.648C215.138 467.407 213.462 467.689 213.192 466.313C213.045 464.653 215.544 464.297 216.634 463.49C231.909 456.407 247.007 448.946 262.381 442.101C270.874 449.415 279.324 456.719 287.808 464.04C292.009 467.672 296.205 471.311 300.397 474.951C302.359 476.126 301.49 478.493 299.17 477.792C293.244 477.222 287.322 476.649 281.396 476.079C280.013 475.948 279.842 475.843 279.58 474.397C279.372 472.598 277.978 471.378 277.25 469.791C274.874 465.883 272.392 461.122 267.859 459.461C265.249 458.113 262.934 456.057 259.762 456.589C246.475 455.739 235.312 466.816 234.669 479.92C233.65 492 244.856 499.614 254.291 504.293L254.282 504.297ZM227.665 484.864C229.259 483.041 230.359 480.905 231.179 478.608C229.507 480.391 228.299 482.438 227.665 484.864Z" fill="black"/>
<path d="M191.631 412.348C190.331 414.186 189.415 415.688 189.479 417.655C189.734 419.227 187.383 419.522 187.24 418.192C187.671 414.597 188.513 411.025 187.991 407.378C187.896 406.406 187.006 405.491 186.457 406.624C184.14 409.419 185.924 416.555 183.731 417.745C181.855 416.373 184.335 408.664 182.744 405.941C180.462 405.61 180.347 418.111 178.527 417.353C177.318 416.917 178.075 415.167 178.11 414.211C178.379 412.211 179.068 407.635 177.701 406.273C170.501 449.705 189.252 493.224 221.165 522.489C222.173 524.053 227.979 526.804 227.079 528.383C226.62 528.965 225.887 528.707 225.4 528.299C189.299 499.071 168.312 451.437 175.944 405.003C178.517 403.376 178.627 403.412 179.772 406.177C181.43 403.868 182.624 402.612 184.791 405.472C189.309 401.277 189.779 407.365 190.109 410.712C196.657 406.182 192.487 424.925 192.074 427.629C188.542 459.431 205.433 493.904 230.585 513.124C231.701 514.38 235.381 515.038 234.869 516.942C234.026 517.96 232.234 516.405 231.326 515.853C205.033 497.107 189.741 464.395 189.416 432.398C190.097 425.721 193.087 419.149 191.633 412.335L191.631 412.348Z" fill="black"/>
<path d="M272.078 576.882C273.293 580.259 274.973 583.323 277.077 586.304C277.976 584.865 275.876 584.166 276.725 582.853C277.54 582.025 278.404 583.435 278.984 583.934C281.349 586.444 284.171 588.312 287.15 589.873C288.599 589.044 283.031 582.198 281.924 581.295C280.37 579.914 283.194 578.815 283.729 577.622C292.291 563.878 303.377 551.435 309.156 536.149C313.48 524.161 304.985 515.544 292.82 517.147C284.184 517.713 275.703 519.626 267.531 522.344C264.503 520.645 271.886 519.26 272.988 518.78C289.155 514.304 316.759 510.203 311.16 535.666C305.516 551.964 293.471 564.798 284.705 579.407C286.369 581.105 296.16 589.063 291.386 590.595C290.687 590.627 290.204 590.687 289.83 591.362C286.397 593.015 283.079 589.101 280.252 587.559C279.612 587.717 279.871 588.19 279.802 588.529C279.386 591.039 277.149 589.279 276.251 588.077C274.404 585.185 268.457 578.054 271.422 574.93C279.736 565.864 287.014 555.923 294.574 546.231C297.372 542.215 300.867 538.175 301.687 533.214C301.62 525.287 290.838 525.64 285.329 527.318C281.07 528.315 277.066 530.1 272.918 531.405C271.721 531.34 272.104 529.772 273.125 529.626C281.539 526.581 292.286 521.36 300.592 527.092C303.229 529.183 304.147 531.929 303.121 535.143C295.537 550.757 283.082 563.527 272.077 576.886L272.078 576.882ZM290.152 588.087C288.86 585.727 288.354 585.154 286.455 584.008C287.722 585.573 287.97 587.338 290.152 588.087Z" fill="black"/>
<path d="M277.786 476.733C275.008 484.291 263.299 483.239 259.313 477.478C255.895 469.286 275.392 467.809 277.786 476.733ZM273.872 474.475C272.391 481.009 264.952 481.824 264.068 474.777C264.051 474.203 264.463 473.536 263.708 472.924C256.357 475.8 264.173 480.196 268.534 480.18C271.785 480.895 278.953 477.507 273.873 474.471L273.872 474.475ZM266.677 472.498C264.234 474.719 267.18 479.216 269.954 477.662C274.047 473.916 271.217 471.612 266.677 472.498Z" fill="black"/>
<path d="M264.689 484.023C262.951 494.135 252.602 497.306 246.732 488.63C245.674 486.875 244.495 482.42 247.76 482.56C253.499 483.296 258.894 483.21 264.689 484.023ZM262.374 485.74C257.503 484.609 252.497 484.888 247.527 484.516C247.222 488.766 251.376 491.599 255.164 491.926C258.883 492.338 261.182 488.872 262.374 485.74Z" fill="black"/>
<path d="M281.1 480.391C283.429 484.474 285.896 489 286.219 493.754C285.263 497.818 281.49 493.355 280.822 491.357C279.6 488.754 278.976 485.97 278.583 483.135C278.121 481.04 279.06 480.491 281.1 480.391ZM280.593 483.568C281.095 486.659 281.615 491.314 284.324 493.106C284.279 490.618 282.718 486.485 280.593 483.568Z" fill="black"/>
<path d="M247.658 464.948C252.677 465.635 252.971 473.005 250.485 470.408C250.233 468.749 249.221 466.792 247.35 466.733C245.626 466.585 244.527 467.999 243.794 469.409C240.53 470.436 243.721 464.448 247.663 464.949L247.658 464.948Z" fill="black"/>
<path d="M245.979 474.517C244.624 474.086 241.8 474.758 241.443 473.019C241.533 472.577 242.06 472.263 242.5 472.335C245.11 473.006 248.137 472.896 250.515 474.088C251.26 476.354 247.049 474.685 245.971 474.613C245.975 474.583 245.979 474.553 245.983 474.518L245.979 474.517Z" fill="black"/>
<path d="M227.664 484.864C228.298 482.438 229.506 480.386 231.178 478.608C230.362 480.906 229.257 483.045 227.664 484.864Z" fill="white"/>
<path d="M273.876 474.48C278.951 477.515 271.788 480.904 268.537 480.189C264.179 480.205 256.355 475.809 263.71 472.933C264.466 473.546 264.054 474.212 264.071 474.786C264.959 481.834 272.395 481.01 273.871 474.484L273.876 474.48Z" fill="white"/>
<path d="M266.681 472.503C271.229 471.617 274.046 473.924 269.958 477.667C267.183 479.221 264.237 474.723 266.681 472.503Z" fill="white"/>
<path d="M262.375 485.735C261.187 488.868 258.884 492.334 255.164 491.922C251.377 491.595 247.222 488.761 247.528 484.512C252.497 484.888 257.503 484.609 262.375 485.735Z" fill="white"/>
<path d="M280.594 483.564C282.723 486.482 284.28 490.614 284.324 493.102C281.616 491.31 281.095 486.659 280.594 483.564Z" fill="white"/>
<path d="M371.102 597.572C370.653 597.041 370.25 596.564 369.893 596.146C370.537 592.638 370.888 589.768 371.468 586.318C375.957 585.033 380.902 586.172 385.545 585.98C386.158 585.968 387.327 586.117 387.078 586.962C384.879 600.437 389.519 595.971 371.102 597.572Z" fill="black"/>
</g>
<rect x="71.0711" y="1.01753" width="467.294" height="569.55" rx="7.5" transform="rotate(7.04799 71.0711 1.01753)" stroke="#EEEEEE"/>
<defs>
<clipPath id="clip0_479_1798">
<rect x="70.6362" y="0.459961" width="468.294" height="570.55" rx="8" transform="rotate(7.04799 70.6362 0.459961)" fill="white"/>
</clipPath>
</defs>
</svg>
