<svg width="519" height="611" viewBox="0 0 519 611" fill="none" xmlns="http://www.w3.org/2000/svg">
<g clip-path="url(#clip0_479_1644)">
<rect y="42.8301" width="468.294" height="570.55" rx="8" transform="rotate(-5.24757 0 42.8301)" fill="white"/>
<path d="M105.309 113.811L95.2401 114.736L85.7516 68.5351L92.8867 67.8798L100.202 104.328L100.355 67.1938L107.424 66.5446L114.496 103.284L114.892 65.8587L121.294 65.2707L120.38 112.427L110.644 113.321L105.692 88.693L105.309 113.811ZM145.618 110.109L143.573 101.756L134.571 102.583L134.081 111.168L127.346 111.787L130.528 64.4226L141.264 63.4366L153.019 109.429L145.618 110.109ZM141.991 95.5132L136.288 72.232L134.922 96.1624L141.991 95.5132ZM159.483 61.7632L163.771 108.441L156.435 109.115L152.148 62.4369L159.483 61.7632ZM185.385 59.3843L185.998 66.0526L178.329 66.7569L182.004 106.767L174.669 107.441L170.994 67.4306L163.325 68.1349L162.713 61.4666L185.385 59.3843ZM217.679 77.3317L218.291 84L208.822 84.8697L210.592 104.141L203.257 104.815L198.97 58.1366L218.375 56.3544L218.987 63.0227L206.917 64.1313L208.21 78.2014L217.679 77.3317ZM222.321 67.2892C221.978 63.555 222.668 60.5776 224.392 58.3571C226.116 56.1366 228.778 54.8609 232.379 54.5302C235.98 54.1995 238.83 54.9688 240.929 56.8382C243.029 58.7076 244.25 61.5094 244.593 65.2437L246.822 89.5163C247.165 93.2506 246.475 96.228 244.751 98.4485C243.027 100.669 240.365 101.945 236.764 102.275C233.163 102.606 230.313 101.837 228.214 99.9674C226.114 98.098 224.893 95.2962 224.55 91.5619L222.321 67.2892ZM231.928 91.355C232.21 94.4224 233.618 95.8398 236.152 95.607C238.686 95.3743 239.812 93.7242 239.53 90.6568L237.215 65.4506C236.933 62.3831 235.525 60.9658 232.991 61.1985C230.457 61.4313 229.331 63.0813 229.613 66.1488L231.928 91.355ZM267.955 98.8727C267.619 98.1414 267.376 97.4465 267.226 96.7878C267.076 96.1291 266.921 94.9329 266.762 93.1992L266.088 85.864C265.892 83.7301 265.375 82.2534 264.538 81.4337C263.696 80.5695 262.431 80.215 260.742 80.3702L258.208 80.6029L259.953 99.6076L252.618 100.281L248.331 53.6031L259.4 52.5864C263.179 52.2394 266.017 52.8753 267.914 54.4943C269.807 56.0688 270.921 58.6788 271.256 62.3241L271.592 65.9917C272.033 70.7929 270.723 74.0962 267.661 75.9017C269.46 76.4537 270.815 77.5397 271.726 79.1596C272.633 80.735 273.205 82.8119 273.441 85.3904L274.103 92.5921C274.225 93.9258 274.37 95.0109 274.536 95.8474C274.699 96.6394 274.994 97.4192 275.424 98.1867L267.955 98.8727ZM257.595 73.9346L260.463 73.6712C261.93 73.5365 262.984 73.0586 263.626 72.2375C264.312 71.4124 264.574 70.1107 264.41 68.3325L263.988 63.7313C263.833 62.042 263.409 60.8481 262.717 60.1495C262.07 59.4468 261.102 59.1547 259.813 59.2731L256.278 59.5977L257.595 73.9346ZM283.114 50.4085L290.782 49.7041L298.338 70.4616L301.985 48.6752L308.987 48.0322L302.584 80.0912L304.005 95.5617L296.67 96.2354L295.249 80.7649L283.114 50.4085ZM311.405 59.1073C311.062 55.3731 311.753 52.3957 313.476 50.1752C315.2 47.9546 317.863 46.679 321.463 46.3483C325.064 46.0176 327.915 46.7869 330.014 48.6563C332.113 50.5257 333.335 53.3275 333.677 57.0617L335.907 81.3344C336.25 85.0687 335.559 88.0461 333.836 90.2666C332.112 92.4871 329.449 93.7627 325.849 94.0934C322.248 94.4242 319.398 93.6548 317.298 91.7854C315.199 89.9161 313.978 87.1142 313.635 83.38L311.405 59.1073ZM321.013 83.1731C321.294 86.2405 322.702 87.6578 325.236 87.4251C327.77 87.1924 328.896 85.5423 328.615 82.4749L326.299 57.2687C326.018 54.2012 324.61 52.7839 322.076 53.0166C319.542 53.2493 318.416 54.8994 318.698 57.9668L321.013 83.1731ZM347.724 80.787C348.002 83.81 349.408 85.2051 351.942 84.9724C354.476 84.7396 355.604 83.1118 355.326 80.0888L352.019 44.0799L358.954 43.443L362.218 78.9851C362.565 82.7638 361.899 85.7614 360.22 87.9778C358.537 90.1498 355.917 91.3991 352.36 91.7257C348.804 92.0524 346 91.3012 343.949 89.4722C341.894 87.5987 340.693 84.7726 340.346 80.9939L337.082 45.4518L344.417 44.7781L347.724 80.787ZM383.609 88.2505C383.273 87.5193 383.029 86.8243 382.879 86.1657C382.729 85.507 382.574 84.3108 382.415 82.577L381.741 75.2419C381.545 73.108 381.029 71.6312 380.191 70.8115C379.35 69.9474 378.085 69.5929 376.395 69.748L373.861 69.9808L375.607 88.9855L368.272 89.6592L363.984 42.981L375.054 41.9643C378.833 41.6172 381.67 42.2532 383.568 43.8722C385.461 45.4467 386.574 48.0566 386.909 51.702L387.246 55.3696C387.687 60.1707 386.377 63.4741 383.315 65.2795C385.114 65.8316 386.469 66.9176 387.38 68.5374C388.286 70.1129 388.858 72.1898 389.095 74.7682L389.756 81.97C389.879 83.3037 390.023 84.3887 390.19 85.2252C390.352 86.0173 390.648 86.797 391.077 87.5646L383.609 88.2505ZM373.249 63.3125L376.116 63.0491C377.583 62.9144 378.638 62.4365 379.28 61.6154C379.966 60.7902 380.227 59.4885 380.064 57.7103L379.641 53.1092C379.486 51.4199 379.063 50.2259 378.371 49.5274C377.724 48.8247 376.755 48.5326 375.466 48.651L371.932 48.9756L373.249 63.3125ZM189.533 126.285C193.311 125.938 196.149 126.574 198.046 128.193C199.939 129.768 201.053 132.378 201.388 136.023L201.541 137.69C201.762 140.091 201.543 142.106 200.886 143.735C200.273 145.361 199.201 146.625 197.67 147.527C201.446 148.615 203.575 151.782 204.057 157.028L204.406 160.828C204.737 164.429 204.034 167.273 202.298 169.361C200.602 171.399 197.932 172.586 194.287 172.921L182.75 173.98L178.463 127.302L189.533 126.285ZM187.544 145.633L190.411 145.37C191.878 145.235 192.933 144.757 193.575 143.936C194.261 143.111 194.523 141.809 194.359 140.031L194.12 137.43C193.965 135.741 193.542 134.547 192.85 133.848C192.203 133.146 191.234 132.854 189.945 132.972L186.411 133.297L187.544 145.633ZM189.473 166.638L193.674 166.252C194.963 166.134 195.889 165.713 196.45 164.989C197.007 164.22 197.208 162.991 197.053 161.302L196.679 157.234C196.483 155.101 195.97 153.668 195.141 152.937C194.352 152.158 193.113 151.846 191.424 152.001L188.156 152.301L189.473 166.638ZM215.862 160.18C216.14 163.203 217.546 164.598 220.08 164.365C222.614 164.132 223.742 162.505 223.464 159.482L220.157 123.473L227.092 122.836L230.356 158.378C230.703 162.157 230.037 165.154 228.358 167.371C226.675 169.543 224.055 170.792 220.498 171.119C216.942 171.445 214.138 170.694 212.087 168.865C210.032 166.991 208.831 164.165 208.484 160.387L205.22 124.845L212.555 124.171L215.862 160.18ZM243.725 121.308C247.371 120.973 250.194 121.7 252.197 123.489C254.199 125.277 255.374 128.061 255.721 131.84L257.889 155.446C258.236 159.224 257.588 162.175 255.945 164.299C254.302 166.422 251.658 167.651 248.012 167.986L236.41 169.052L232.122 122.374L243.725 121.308ZM243.132 161.71L247.267 161.33C248.467 161.22 249.346 160.781 249.903 160.012C250.504 159.24 250.731 158.053 250.584 156.453L248.355 132.18C248.208 130.58 247.769 129.455 247.036 128.804C246.349 128.15 245.405 127.878 244.204 127.989L240.07 128.368L243.132 161.71ZM270.946 118.808C274.591 118.473 277.415 119.2 279.417 120.989C281.419 122.777 282.594 125.561 282.941 129.34L285.109 152.946C285.456 156.724 284.808 159.675 283.165 161.799C281.522 163.922 278.878 165.151 275.233 165.486L263.63 166.552L259.343 119.874L270.946 118.808ZM270.352 159.21L274.487 158.83C275.687 158.72 276.566 158.281 277.123 157.512C277.724 156.74 277.952 155.553 277.805 153.953L275.575 129.68C275.428 128.08 274.989 126.954 274.257 126.304C273.569 125.65 272.625 125.378 271.425 125.489L267.29 125.868L270.352 159.21ZM283.186 117.684L290.854 116.98L298.409 137.737L302.057 115.951L309.059 115.308L302.656 147.367L304.077 162.837L296.742 163.511L295.321 148.04L283.186 117.684Z" fill="black"/>
<path d="M236.557 346.467C236.712 348.156 237.156 349.326 237.888 349.976C238.66 350.578 239.624 350.825 240.78 350.719C241.936 350.613 242.817 350.196 243.422 349.468C244.068 348.691 244.314 347.458 244.159 345.769L241.844 320.563C241.688 318.873 241.225 317.728 240.452 317.126C239.72 316.476 238.776 316.204 237.62 316.311C236.464 316.417 235.563 316.858 234.917 317.635C234.312 318.363 234.087 319.572 234.242 321.261L236.557 346.467ZM226.949 322.401C226.602 318.623 227.293 315.645 229.021 313.469C230.744 311.249 233.407 309.973 237.008 309.642C240.608 309.312 243.459 310.081 245.558 311.95C247.653 313.775 248.875 316.577 249.222 320.356L251.451 344.628C251.798 348.407 251.11 351.407 249.386 353.627C247.658 355.803 244.994 357.057 241.393 357.387C237.792 357.718 234.944 356.971 232.848 355.146C230.749 353.277 229.526 350.453 229.179 346.674L226.949 322.401ZM268.55 318.85C268.358 316.76 267.874 315.392 267.097 314.746C266.361 314.052 265.415 313.758 264.259 313.864C263.103 313.97 262.202 314.411 261.556 315.188C260.951 315.916 260.725 317.125 260.881 318.814L261.34 323.815L254.405 324.452L253.988 319.918C253.641 316.139 254.287 313.166 255.926 310.998C257.606 308.782 260.246 307.508 263.847 307.177C267.447 306.847 270.253 307.62 272.264 309.497C274.314 311.327 275.513 314.13 275.86 317.909C276.085 320.354 275.934 322.61 275.406 324.675C274.874 326.697 274.128 328.581 273.168 330.328C272.248 332.026 271.207 333.624 270.044 335.12C268.926 336.613 267.868 338.032 266.871 339.379C265.919 340.722 265.142 342.026 264.541 343.292C263.936 344.513 263.692 345.768 263.811 347.057C263.852 347.502 263.904 347.833 263.969 348.051L277.839 346.777L278.452 353.446L257.247 355.393L256.72 349.659C256.512 347.391 256.684 345.358 257.236 343.559C257.788 341.76 258.532 340.1 259.468 338.58C260.445 337.011 261.498 335.546 262.629 334.187C263.755 332.784 264.786 331.322 265.723 329.801C266.703 328.277 267.472 326.637 268.028 324.882C268.584 323.128 268.758 321.117 268.55 318.85ZM290.105 345.247L290.754 352.316L283.685 352.965L283.036 345.897L290.105 345.247Z" fill="black"/>
<path d="M128.318 392.776L124.982 383.241L126.585 383.094L129.172 390.589L129.451 390.563L130.768 382.71L132.58 382.544L135.306 390.026L135.585 390L136.763 382.159L138.366 382.012L136.822 391.995L134.592 392.2L132.038 385.054L131.759 385.079L130.549 392.571L128.318 392.776ZM139.136 391.783L141.795 381.697L144.025 381.492L148.477 390.925L146.873 391.072L145.826 388.849L141.364 389.258L140.739 391.635L139.136 391.783ZM141.731 387.889L145.216 387.569L143.203 383.255L142.924 383.281L141.731 387.889ZM149.521 390.829L148.625 381.07L150.089 380.935L150.985 390.694L149.521 390.829ZM155.375 390.291L154.607 381.926L151.539 382.208L151.411 380.814L159.009 380.116L159.137 381.51L156.07 381.792L156.839 390.157L155.375 390.291ZM164.089 389.491L163.192 379.732L169.466 379.156L169.594 380.55L164.784 380.992L165.04 383.78L169.571 383.364L169.699 384.758L165.168 385.174L165.553 389.356L164.089 389.491ZM179.221 386.822C178.406 387.843 177.343 388.414 176.032 388.535C174.722 388.655 173.573 388.287 172.585 387.431C171.597 386.575 171.036 385.413 170.901 383.945C170.766 382.476 171.106 381.231 171.922 380.21C172.737 379.188 173.8 378.617 175.11 378.497C176.421 378.376 177.57 378.744 178.558 379.6C179.545 380.456 180.107 381.618 180.242 383.087C180.376 384.555 180.036 385.8 179.221 386.822ZM177.63 380.669C176.965 380.065 176.168 379.806 175.238 379.891C174.309 379.976 173.572 380.377 173.029 381.092C172.485 381.807 172.264 382.713 172.365 383.81C172.465 384.907 172.848 385.757 173.513 386.362C174.178 386.966 174.975 387.226 175.904 387.14C176.834 387.055 177.57 386.655 178.114 385.939C178.657 385.224 178.878 384.318 178.778 383.221C178.677 382.124 178.294 381.274 177.63 380.669ZM182.359 387.813L181.463 378.054L185.855 377.651C186.673 377.575 187.378 377.806 187.971 378.342C188.572 378.868 188.915 379.595 189.001 380.525C189.086 381.454 188.881 382.237 188.387 382.873C187.901 383.499 187.249 383.849 186.431 383.924L186.082 383.956L189.888 387.121L188.006 387.294L184.2 384.129L183.503 384.193L183.823 387.678L182.359 387.813ZM183.375 382.799L186.233 382.536C186.633 382.5 186.962 382.305 187.22 381.954C187.478 381.602 187.584 381.17 187.537 380.659C187.49 380.148 187.307 379.743 186.989 379.444C186.671 379.145 186.313 379.014 185.913 379.051L183.055 379.314L183.375 382.799ZM196.726 386.493L196.405 383.008L192.274 377.061L193.891 376.912L196.873 381.208L197.152 381.182L199.231 376.422L200.848 376.273L197.869 382.874L198.189 386.359L196.726 386.493ZM209.908 384.003C209.093 385.025 208.03 385.596 206.719 385.716C205.409 385.836 204.26 385.469 203.272 384.613C202.284 383.757 201.723 382.595 201.588 381.126C201.453 379.658 201.793 378.413 202.609 377.391C203.424 376.37 204.487 375.799 205.798 375.678C207.108 375.558 208.257 375.926 209.245 376.782C210.233 377.638 210.794 378.8 210.929 380.268C211.064 381.737 210.723 382.982 209.908 384.003ZM208.317 377.851C207.652 377.247 206.855 376.987 205.926 377.072C204.996 377.158 204.26 377.558 203.716 378.274C203.173 378.989 202.951 379.895 203.052 380.992C203.153 382.088 203.535 382.939 204.2 383.543C204.865 384.148 205.662 384.407 206.591 384.322C207.521 384.237 208.257 383.836 208.801 383.121C209.344 382.405 209.566 381.499 209.465 380.403C209.364 379.306 208.982 378.455 208.317 377.851ZM212.618 381.097L212.081 375.242L213.544 375.107L214.082 380.963C214.155 381.753 214.441 382.373 214.942 382.824C215.451 383.265 216.059 383.452 216.765 383.388C217.472 383.323 218.03 383.028 218.441 382.503C218.861 381.967 219.034 381.305 218.962 380.515L218.424 374.659L219.888 374.525L220.426 380.38C220.537 381.598 220.265 382.612 219.608 383.422C218.96 384.222 218.055 384.675 216.893 384.782C215.732 384.888 214.754 384.608 213.962 383.94C213.178 383.262 212.73 382.315 212.618 381.097ZM222.808 384.098L221.912 374.339L226.304 373.936C227.121 373.86 227.827 374.091 228.42 374.627C229.021 375.153 229.364 375.88 229.45 376.81C229.535 377.739 229.33 378.522 228.836 379.158C228.35 379.784 227.698 380.134 226.88 380.209L226.531 380.241L230.337 383.406L228.455 383.579L224.649 380.414L223.952 380.478L224.272 383.963L222.808 384.098ZM223.824 379.084L226.682 378.821C227.082 378.785 227.411 378.59 227.669 378.239C227.927 377.887 228.033 377.455 227.986 376.944C227.939 376.433 227.756 376.028 227.438 375.729C227.12 375.43 226.762 375.299 226.362 375.336L223.504 375.599L223.824 379.084ZM235.157 382.964L234.26 373.205L238.582 372.808C239.382 372.734 240.07 372.938 240.649 373.419C241.226 373.891 241.55 374.508 241.62 375.27C241.677 375.884 241.549 376.43 241.236 376.908C241.113 377.098 240.957 377.281 240.767 377.458L240.773 377.527C241.008 377.637 241.219 377.786 241.405 377.975C241.848 378.413 242.098 378.947 242.157 379.579C242.227 380.351 242.022 381.021 241.54 381.59C241.067 382.158 240.44 382.478 239.66 382.55L235.157 382.964ZM236.115 377.322L238.903 377.066C239.293 377.03 239.611 376.861 239.854 376.557C240.098 376.254 240.201 375.893 240.163 375.474C240.124 375.056 239.958 374.72 239.662 374.466C239.367 374.212 239.025 374.103 238.634 374.139L235.846 374.395L236.115 377.322ZM236.499 381.505L239.427 381.236C239.817 381.2 240.134 381.03 240.378 380.727C240.622 380.423 240.725 380.062 240.686 379.644C240.648 379.226 240.481 378.89 240.186 378.636C239.891 378.381 239.548 378.272 239.158 378.308L236.23 378.577L236.499 381.505ZM243.796 378.234L243.258 372.378L244.722 372.244L245.26 378.099C245.332 378.889 245.619 379.51 246.119 379.96C246.629 380.401 247.236 380.589 247.943 380.524C248.649 380.459 249.208 380.164 249.619 379.639C250.038 379.104 250.212 378.441 250.139 377.651L249.601 371.796L251.065 371.661L251.603 377.517C251.715 378.734 251.442 379.748 250.786 380.558C250.137 381.358 249.232 381.811 248.071 381.918C246.909 382.025 245.932 381.744 245.139 381.077C244.356 380.399 243.908 379.451 243.796 378.234ZM255.321 379.706L257.273 379.527C258.193 379.442 258.926 379.051 259.471 378.355C260.025 377.648 260.254 376.778 260.16 375.747C260.065 374.715 259.681 373.907 259.009 373.322C258.345 372.727 257.553 372.471 256.633 372.556L254.681 372.735L255.321 379.706ZM253.986 381.234L253.089 371.475L256.505 371.162C257.834 371.04 258.987 371.398 259.964 372.236C260.94 373.074 261.494 374.2 261.623 375.612C261.753 377.025 261.414 378.232 260.607 379.234C259.799 380.236 258.73 380.799 257.401 380.921L253.986 381.234ZM265.083 378.809L267.035 378.63C267.955 378.545 268.688 378.155 269.233 377.458C269.787 376.751 270.016 375.882 269.921 374.85C269.827 373.818 269.443 373.01 268.771 372.425C268.107 371.83 267.315 371.575 266.395 371.659L264.443 371.839L265.083 378.809ZM263.747 380.338L262.851 370.579L266.267 370.265C267.596 370.143 268.749 370.501 269.725 371.339C270.702 372.178 271.255 373.303 271.385 374.716C271.515 376.128 271.176 377.336 270.368 378.338C269.56 379.34 268.492 379.902 267.163 380.024L263.747 380.338ZM275.676 379.242L275.356 375.757L271.225 369.81L272.842 369.661L275.824 373.957L276.102 373.931L278.182 369.171L279.799 369.022L276.82 375.622L277.14 379.108L275.676 379.242ZM281.368 379.914L281.391 377.101L282.994 376.953L282.484 379.812L281.368 379.914ZM288.24 378.088L287.344 368.329L288.807 368.195L289.185 372.308L294.134 371.853L293.757 367.74L295.22 367.606L296.117 377.365L294.653 377.499L294.262 373.247L289.313 373.702L289.704 377.954L288.24 378.088ZM298.206 377.173L297.31 367.414L303.723 366.825L303.851 368.219L298.901 368.674L299.157 371.462L303.828 371.033L303.956 372.427L299.286 372.856L299.542 375.644L304.491 375.19L304.619 376.584L298.206 377.173ZM310.822 376.014L307.486 366.479L309.089 366.332L311.675 373.827L311.954 373.801L313.271 365.948L315.084 365.782L317.809 373.264L318.088 373.238L319.266 365.397L320.869 365.25L319.326 375.233L317.095 375.438L314.541 368.292L314.262 368.317L313.052 375.809L310.822 376.014ZM322.957 374.9L322.061 365.141L323.525 365.006L324.421 374.765L322.957 374.9ZM326.511 374.573L325.614 364.814L327.078 364.68L327.846 373.045L332.586 372.609L332.714 374.004L326.511 374.573ZM334.039 373.882L333.143 364.123L334.607 363.988L335.375 372.353L340.115 371.918L340.243 373.312L334.039 373.882ZM351.652 368.89L353.186 368.749C353.13 369.167 353.009 369.581 352.822 369.992C352.644 370.402 352.395 370.8 352.074 371.185C351.753 371.571 351.338 371.895 350.827 372.157C350.317 372.42 349.746 372.58 349.114 372.638C347.804 372.758 346.655 372.39 345.667 371.535C344.679 370.679 344.118 369.516 343.983 368.048C343.848 366.579 344.188 365.334 345.004 364.313C345.819 363.291 346.882 362.721 348.192 362.6C349.345 362.494 350.337 362.741 351.17 363.339C352.012 363.927 352.587 364.685 352.898 365.612L351.364 365.753C351.063 365.125 350.641 364.662 350.098 364.365C349.554 364.059 348.962 363.935 348.32 363.994C347.391 364.08 346.654 364.48 346.111 365.195C345.567 365.911 345.346 366.817 345.447 367.914C345.548 369.01 345.93 369.861 346.595 370.465C347.26 371.07 348.057 371.329 348.986 371.244C349.73 371.175 350.325 370.919 350.771 370.475C351.226 370.021 351.52 369.493 351.652 368.89ZM355.033 371.954L354.137 362.195L355.601 362.06L355.978 366.173L360.927 365.718L360.55 361.606L362.014 361.471L362.91 371.23L361.446 371.365L361.056 367.113L356.106 367.567L356.497 371.819L355.033 371.954ZM372.453 369.074C371.637 370.096 370.574 370.667 369.264 370.787C367.953 370.908 366.804 370.54 365.816 369.684C364.829 368.828 364.267 367.666 364.133 366.197C363.998 364.729 364.338 363.484 365.153 362.462C365.969 361.441 367.031 360.87 368.342 360.75C369.652 360.629 370.802 360.997 371.789 361.853C372.777 362.709 373.338 363.871 373.473 365.339C373.608 366.808 373.268 368.053 372.453 369.074ZM370.861 362.922C370.196 362.318 369.399 362.058 368.47 362.144C367.541 362.229 366.804 362.629 366.261 363.345C365.717 364.06 365.496 364.966 365.596 366.063C365.697 367.16 366.08 368.01 366.745 368.615C367.409 369.219 368.206 369.479 369.136 369.393C370.065 369.308 370.802 368.907 371.345 368.192C371.889 367.477 372.11 366.571 372.009 365.474C371.909 364.377 371.526 363.527 370.861 362.922ZM383.045 368.102C382.229 369.123 381.166 369.694 379.856 369.814C378.545 369.935 377.396 369.567 376.409 368.711C375.421 367.855 374.86 366.693 374.725 365.225C374.59 363.756 374.93 362.511 375.745 361.49C376.561 360.468 377.624 359.897 378.934 359.777C380.245 359.656 381.394 360.024 382.381 360.88C383.369 361.736 383.93 362.898 384.065 364.367C384.2 365.835 383.86 367.08 383.045 368.102ZM381.453 361.949C380.789 361.345 379.992 361.085 379.062 361.171C378.133 361.256 377.396 361.657 376.853 362.372C376.309 363.087 376.088 363.993 376.188 365.09C376.289 366.187 376.672 367.037 377.337 367.642C378.001 368.246 378.798 368.506 379.728 368.42C380.657 368.335 381.394 367.935 381.937 367.219C382.481 366.504 382.702 365.598 382.601 364.501C382.501 363.404 382.118 362.554 381.453 361.949ZM385.42 366.14L386.884 366.006C386.927 366.48 387.183 366.869 387.652 367.172C388.129 367.475 388.717 367.595 389.414 367.531C390.176 367.461 390.726 367.279 391.065 366.985C391.403 366.683 391.551 366.308 391.51 365.862C391.444 365.146 390.844 364.733 389.709 364.622L387.795 364.446C387.02 364.376 386.417 364.137 385.986 363.726C385.564 363.315 385.321 362.766 385.258 362.078C385.183 361.26 385.436 360.553 386.019 359.955C386.6 359.349 387.421 358.997 388.481 358.9C389.652 358.792 390.585 359.007 391.281 359.542C391.985 360.068 392.379 360.787 392.463 361.697L390.999 361.832C390.956 361.358 390.714 360.968 390.273 360.661C389.833 360.355 389.278 360.233 388.609 360.294C387.977 360.352 387.493 360.542 387.157 360.863C386.829 361.174 386.684 361.535 386.722 361.944C386.785 362.631 387.313 363.028 388.307 363.134L389.866 363.271C390.868 363.358 391.616 363.598 392.112 363.993C392.616 364.378 392.903 364.956 392.974 365.728C393.051 366.564 392.793 367.281 392.201 367.879C391.609 368.468 390.722 368.816 389.542 368.925C388.362 369.033 387.4 368.822 386.658 368.29C385.915 367.758 385.503 367.042 385.42 366.14ZM394.897 368.292L394 358.534L400.413 357.945L400.541 359.339L395.592 359.793L395.848 362.581L400.519 362.153L400.647 363.547L395.976 363.976L396.232 366.764L401.181 366.309L401.31 367.703L394.897 368.292ZM233.022 399.227L232.702 395.742L228.57 389.795L230.188 389.646L233.169 393.941L233.448 393.916L235.527 389.156L237.144 389.007L234.165 395.607L234.486 399.093L233.022 399.227ZM246.204 396.737C245.389 397.759 244.326 398.329 243.016 398.45C241.705 398.57 240.556 398.202 239.568 397.346C238.581 396.491 238.019 395.328 237.884 393.86C237.749 392.391 238.09 391.146 238.905 390.125C239.72 389.103 240.783 388.532 242.094 388.412C243.404 388.292 244.553 388.659 245.541 389.515C246.529 390.371 247.09 391.534 247.225 393.002C247.36 394.47 247.02 395.715 246.204 396.737ZM244.613 390.585C243.948 389.98 243.151 389.721 242.222 389.806C241.292 389.892 240.556 390.292 240.012 391.007C239.469 391.723 239.247 392.629 239.348 393.725C239.449 394.822 239.832 395.673 240.496 396.277C241.161 396.882 241.958 397.141 242.888 397.056C243.817 396.97 244.554 396.57 245.097 395.855C245.641 395.139 245.862 394.233 245.761 393.136C245.66 392.04 245.278 391.189 244.613 390.585ZM248.915 393.831L248.377 387.976L249.841 387.841L250.379 393.696C250.451 394.486 250.738 395.107 251.238 395.558C251.747 395.998 252.355 396.186 253.062 396.121C253.768 396.056 254.327 395.761 254.738 395.236C255.157 394.701 255.331 394.038 255.258 393.248L254.72 387.393L256.184 387.259L256.722 393.114C256.834 394.331 256.561 395.345 255.905 396.155C255.256 396.955 254.351 397.409 253.19 397.515C252.028 397.622 251.051 397.342 250.258 396.674C249.474 395.996 249.026 395.048 248.915 393.831ZM261.622 393.578L263.086 393.443C263.13 393.917 263.386 394.306 263.854 394.61C264.332 394.913 264.919 395.032 265.616 394.968C266.378 394.898 266.929 394.716 267.267 394.423C267.605 394.12 267.753 393.746 267.713 393.299C267.647 392.584 267.046 392.17 265.912 392.059L263.997 391.883C263.222 391.814 262.619 391.574 262.188 391.164C261.766 390.753 261.523 390.203 261.46 389.515C261.385 388.698 261.639 387.99 262.221 387.393C262.803 386.787 263.624 386.435 264.683 386.337C265.854 386.23 266.788 386.444 267.484 386.98C268.188 387.506 268.582 388.224 268.666 389.135L267.202 389.269C267.158 388.795 266.916 388.405 266.476 388.099C266.035 387.792 265.48 387.67 264.811 387.731C264.179 387.79 263.695 387.979 263.359 388.301C263.031 388.612 262.886 388.972 262.924 389.381C262.987 390.069 263.516 390.465 264.51 390.571L266.069 390.709C267.07 390.795 267.819 391.036 268.314 391.431C268.818 391.815 269.105 392.394 269.176 393.165C269.253 394.001 268.996 394.719 268.404 395.317C267.811 395.905 266.925 396.254 265.744 396.362C264.564 396.471 263.603 396.259 262.86 395.727C262.118 395.196 261.705 394.479 261.622 393.578ZM278.553 393.766C277.737 394.788 276.674 395.358 275.364 395.479C274.053 395.599 272.904 395.231 271.917 394.375C270.929 393.52 270.367 392.357 270.233 390.889C270.098 389.42 270.438 388.175 271.253 387.154C272.069 386.132 273.131 385.561 274.442 385.441C275.752 385.321 276.902 385.688 277.889 386.544C278.877 387.4 279.438 388.562 279.573 390.031C279.708 391.499 279.368 392.744 278.553 393.766ZM276.961 387.614C276.297 387.009 275.499 386.75 274.57 386.835C273.641 386.921 272.904 387.321 272.361 388.036C271.817 388.752 271.596 389.658 271.696 390.754C271.797 391.851 272.18 392.702 272.845 393.306C273.509 393.911 274.306 394.17 275.236 394.085C276.165 393.999 276.902 393.599 277.445 392.884C277.989 392.168 278.21 391.262 278.109 390.165C278.009 389.069 277.626 388.218 276.961 387.614ZM289.145 392.793C288.329 393.815 287.267 394.386 285.956 394.506C284.646 394.626 283.496 394.259 282.509 393.403C281.521 392.547 280.96 391.385 280.825 389.916C280.69 388.448 281.03 387.203 281.845 386.181C282.661 385.16 283.724 384.589 285.034 384.468C286.345 384.348 287.494 384.716 288.481 385.572C289.469 386.427 290.031 387.59 290.165 389.058C290.3 390.527 289.96 391.772 289.145 392.793ZM287.553 386.641C286.889 386.037 286.092 385.777 285.162 385.862C284.233 385.948 283.496 386.348 282.953 387.063C282.409 387.779 282.188 388.685 282.289 389.782C282.389 390.878 282.772 391.729 283.437 392.333C284.101 392.938 284.899 393.197 285.828 393.112C286.757 393.026 287.494 392.626 288.037 391.911C288.581 391.195 288.802 390.289 288.702 389.193C288.601 388.096 288.218 387.245 287.553 386.641ZM292.283 393.784L291.387 384.025L293.548 383.827L298.219 391.06L298.498 391.034L297.8 383.436L299.264 383.302L300.16 393.061L297.999 393.259L293.328 386.026L293.049 386.052L293.747 393.65L292.283 393.784Z" fill="#8B8B8B"/>
<rect x="41.7944" y="453.37" width="460.602" height="153.836" rx="8" transform="rotate(-5.24757 41.7944 453.37)" fill="#03C3A3" fill-opacity="0.6"/>
<circle cx="335.309" cy="199.917" r="14.9311" transform="rotate(-5.24757 335.309 199.917)" fill="#03C3A3" fill-opacity="0.6"/>
<path d="M332.504 204.597L332.389 203.342L336.032 198.93C336.277 198.636 336.441 198.382 336.525 198.168C336.617 197.944 336.647 197.665 336.616 197.33C336.568 196.8 336.386 196.404 336.072 196.143C335.765 195.871 335.361 195.758 334.86 195.804C334.367 195.849 333.97 196.064 333.667 196.448C333.365 196.832 333.239 197.298 333.29 197.846L331.826 197.981C331.736 197.005 331.961 196.188 332.501 195.529C333.04 194.87 333.784 194.497 334.732 194.41C335.68 194.323 336.463 194.537 337.082 195.052C337.71 195.557 338.066 196.269 338.15 197.189C338.199 197.719 338.12 198.19 337.914 198.603C337.718 199.014 337.413 199.469 336.999 199.966L334.53 202.934L334.537 203.004L338.789 202.613L338.917 204.008L332.504 204.597Z" fill="white"/>
<circle cx="269.383" cy="455.183" r="26.8784" transform="rotate(-5.24757 269.383 455.183)" fill="#FFA7D1"/>
<path d="M272.949 453.618C273.199 452.814 273.605 452.067 274.143 451.42C274.681 450.772 275.342 450.238 276.087 449.846C276.832 449.454 277.647 449.212 278.486 449.135C279.324 449.058 280.17 449.147 280.974 449.397C281.778 449.646 282.525 450.052 283.172 450.591C283.819 451.129 284.354 451.79 284.746 452.535" stroke="#ADE6ED" stroke-width="1.44903"/>
<path d="M250.363 455.692C250.613 454.888 251.018 454.141 251.557 453.494C252.095 452.847 252.756 452.312 253.501 451.92C254.246 451.528 255.061 451.286 255.9 451.209C256.738 451.132 257.583 451.221 258.387 451.471C259.192 451.721 259.939 452.126 260.586 452.665C261.233 453.203 261.768 453.864 262.16 454.609" stroke="#ADE6ED" stroke-width="1.44903"/>
<path d="M268.037 448.621L265.05 458.276C264.745 459.262 265.539 460.242 266.566 460.147L275.214 459.353" stroke="#ADE6ED" stroke-width="1.44903"/>
<path d="M259.189 471.988C258.774 472.026 258.356 471.967 257.97 471.814C257.583 471.662 257.24 471.421 256.967 471.112C256.694 470.802 256.5 470.433 256.4 470.035C256.301 469.637 256.299 469.221 256.395 468.821C256.49 468.421 256.681 468.05 256.951 467.736C257.221 467.423 257.563 467.177 257.948 467.02C258.333 466.862 258.75 466.796 259.165 466.828C259.58 466.86 259.981 466.989 260.335 467.205" stroke="#ADE6ED" stroke-width="1.44903"/>
<path d="M259.188 471.988C258.773 472.026 258.373 472.161 258.021 472.381C257.669 472.601 257.375 472.9 257.163 473.254C256.951 473.608 256.827 474.006 256.802 474.416C256.777 474.826 256.851 475.235 257.018 475.611C257.185 475.986 257.44 476.317 257.763 476.576C258.085 476.835 258.466 477.014 258.873 477.099C259.28 477.184 259.702 477.173 260.105 477.066C260.507 476.958 260.878 476.759 261.187 476.482" stroke="#ADE6ED" stroke-width="1.44903"/>
<circle cx="269.383" cy="455.183" r="26.8784" transform="rotate(-5.24757 269.383 455.183)" fill="white"/>
<path d="M271.841 481.949C264.742 482.601 257.676 480.406 252.195 475.848C246.714 471.289 243.269 464.74 242.617 457.641C241.965 450.543 244.16 443.476 248.718 437.995C253.277 432.514 259.826 429.069 266.925 428.417L269.383 455.183L271.841 481.949Z" fill="#FF4B11"/>
<rect x="234.468" y="491.562" width="76.1306" height="95.3085" transform="rotate(-5.24757 234.468 491.562)" fill="#FFA7D1"/>
<rect x="272.257" y="488.016" width="38.2596" height="95.4369" transform="rotate(-5.24757 272.257 488.016)" fill="#03C3A3"/>
<path d="M281.716 589.79C282.177 594.817 280.639 599.819 277.438 603.698C274.237 607.576 269.637 610.012 264.648 610.47C259.66 610.928 254.693 609.371 250.839 606.141C246.985 602.91 244.561 598.271 244.099 593.245L262.908 591.517L281.716 589.79Z" fill="#ADE6ED"/>
<path d="M319.515 586.391C319.978 591.437 318.42 596.46 315.184 600.355C311.948 604.25 307.298 606.699 302.258 607.162C297.218 607.625 292.2 606.064 288.308 602.824C284.417 599.583 281.97 594.928 281.507 589.882L300.511 588.137L319.515 586.391Z" fill="#ADE6ED"/>
<path d="M320.991 601.211C321.456 606.276 319.89 611.318 316.638 615.228C313.385 619.139 308.712 621.597 303.647 622.062C298.582 622.527 293.54 620.961 289.63 617.709C285.719 614.456 283.261 609.784 282.796 604.719L301.893 602.965L320.991 601.211Z" fill="#ADE6ED"/>
<path d="M283.085 604.692C283.55 609.757 281.999 614.798 278.774 618.706C275.548 622.614 270.912 625.068 265.886 625.53C260.859 625.992 255.854 624.422 251.97 621.167C248.087 617.912 245.644 613.238 245.179 608.173L264.132 606.433L283.085 604.692Z" fill="#ADE6ED"/>
<path d="M263.595 393.47L282.798 424.412L250.349 427.392L263.595 393.47Z" fill="black"/>
<mask id="mask0_479_1644" style="mask-type:alpha" maskUnits="userSpaceOnUse" x="272" y="484" width="48" height="99">
<rect x="272.232" y="487.904" width="38.2596" height="95.4369" transform="rotate(-5.24757 272.232 487.904)" fill="#4B4BFF"/>
</mask>
<g mask="url(#mask0_479_1644)">
<rect x="278.681" y="587.79" width="2.75043" height="59.5927" transform="rotate(-95.2476 278.681 587.79)" fill="#FF4B11"/>
<rect x="301.836" y="629.394" width="2.75043" height="228.744" transform="rotate(174.752 301.836 629.394)" fill="#FF4B11"/>
<rect x="292.706" y="630.233" width="2.75043" height="228.744" transform="rotate(174.752 292.706 630.233)" fill="#FF4B11"/>
<rect x="310.967" y="628.556" width="2.75043" height="228.744" transform="rotate(174.752 310.967 628.556)" fill="#FF4B11"/>
<rect x="320.097" y="627.717" width="2.75043" height="228.744" transform="rotate(174.752 320.097 627.717)" fill="#FF4B11"/>
<rect x="329.226" y="626.879" width="2.75043" height="228.744" transform="rotate(174.752 329.226 626.879)" fill="#FF4B11"/>
<rect x="338.355" y="626.041" width="2.75043" height="228.744" transform="rotate(174.752 338.355 626.041)" fill="#FF4B11"/>
<rect x="277.844" y="578.66" width="2.75043" height="59.5927" transform="rotate(-95.2476 277.844 578.66)" fill="#FF4B11"/>
<rect x="277.005" y="569.53" width="2.75043" height="59.5927" transform="rotate(-95.2476 277.005 569.53)" fill="#FF4B11"/>
<rect x="276.166" y="560.4" width="2.75043" height="59.5927" transform="rotate(-95.2476 276.166 560.4)" fill="#FF4B11"/>
<rect x="275.328" y="551.27" width="2.75043" height="59.5927" transform="rotate(-95.2476 275.328 551.27)" fill="#FF4B11"/>
<rect x="274.489" y="542.141" width="2.75043" height="59.5927" transform="rotate(-95.2476 274.489 542.141)" fill="#FF4B11"/>
<rect x="273.65" y="533.011" width="2.75043" height="59.5927" transform="rotate(-95.2476 273.65 533.011)" fill="#FF4B11"/>
<rect x="272.812" y="523.882" width="2.75043" height="59.5927" transform="rotate(-95.2476 272.812 523.882)" fill="#FF4B11"/>
<rect x="271.973" y="514.752" width="2.75043" height="59.5927" transform="rotate(-95.2476 271.973 514.752)" fill="#FF4B11"/>
<rect x="271.135" y="505.623" width="2.75043" height="59.5927" transform="rotate(-95.2476 271.135 505.623)" fill="#FF4B11"/>
<rect x="270.297" y="496.493" width="2.75043" height="59.5927" transform="rotate(-95.2476 270.297 496.493)" fill="#FF4B11"/>
<rect x="269.458" y="487.363" width="2.75043" height="59.5927" transform="rotate(-95.2476 269.458 487.363)" fill="#FF4B11"/>
</g>
<path d="M168.273 515.615C168.248 516.169 168.226 516.66 168.199 517.262C165.906 517.386 163.828 516.517 161.479 516.719C164.699 520.939 170.066 526.732 164.89 531.633C159.622 537.247 152.003 533.857 146.095 531.307C145.566 531.758 145.873 532.123 146.1 532.457C148.241 535.626 151.045 537.723 154.987 538.118C158.112 539.174 163.072 536.46 163.223 539.774C164.452 552.735 171.515 563.905 180.445 573.062C190.162 582.488 204.21 581.475 214.932 574.354C226.98 566.53 229.492 550.626 232.454 537.586C233.189 535.529 234.012 527.95 236.233 527.923C237.198 528.046 236.706 529.309 236.521 529.911C232.728 542.504 231.642 555.985 224.458 567.356C220.205 574.991 211.86 578.73 203.86 581.258C198.384 582.95 192.815 581.736 187.59 579.842C178.083 576.3 172.462 566.858 167.137 558.76C163.412 553.21 163.126 546.437 160.73 540.439C152.99 540.694 145.621 538.25 142.999 530.369C137.708 523.572 137.03 522.407 139.535 513.724C133.462 510.633 126.694 504.307 127.939 496.934C130.145 489.962 139.923 492.492 144.341 496.085C145.02 495.711 144.589 495.29 144.509 494.942C142.42 489.055 141.983 479.602 150.076 478.652C158.913 480.118 161.018 492.031 164.268 499.03C174.809 501.413 179.365 510.684 176.763 520.867C178.308 524.642 179.864 528.225 180.655 532.199C182.773 541.325 188.716 551.509 198.809 552.667C202.324 553.169 205.23 551.522 207.283 548.615C213.09 538.641 213.135 526.353 217.364 515.676C218.91 510.336 226.636 492.971 232.432 492.951C232.84 493.273 232.73 493.955 232.085 494.498C227.588 498.277 224.738 503.199 222.29 508.429C217.798 518.052 215.828 528.537 213.25 538.77C211.711 546.06 207.601 555.465 198.748 554.615C187.076 553.222 180.916 541.711 178.124 531.4C177.667 528.355 177.036 525.454 175.376 522.821C174.86 521.852 174.673 521.011 174.972 519.881C175.974 516.078 175.585 512.321 174.241 508.642C172.411 502.386 160.388 498.739 154.84 501.142C151.253 502.373 149.096 507.274 152.28 510.113C156.592 514.065 162.74 514.685 168.283 515.61L168.273 515.615ZM146.113 512.305C140.05 511.874 138.533 521.919 141.628 525.456C146.23 531.688 165.97 538.016 165.051 525.241C161.861 518.271 153.697 512.332 146.113 512.305ZM149.649 510.474C148.604 507.756 149.306 505.227 147.852 503.016C146.41 501.293 145.006 499.519 143.392 497.97C139.818 494.117 128.718 491.747 129.686 500.044C131.195 504.992 134.819 509.343 139.566 511.463C140.315 511.787 141.039 511.841 141.785 511.36C144.162 509.9 146.999 510.579 149.649 510.474ZM161.988 498.362C159.274 492.244 157.01 481.832 149.825 480.617C140.971 482.984 146.431 497.034 149.924 502.088C153.027 498.365 156.939 497.334 161.983 498.357L161.988 498.362Z" fill="black"/>
<path d="M304.696 446.64C312.086 447.428 316.715 457.393 310.91 462.644C306.566 467.31 300.041 466.964 294.191 467.343C289.571 476.105 281.449 484.561 270.817 483.893C270.031 483.797 268.831 483.932 268.697 482.884C268.538 480.943 277.413 483.139 282.052 478.757C303.651 464.533 294.849 427.393 266.84 431.149C263.789 431.852 263.015 429.525 266.409 429.281C271.853 428.757 277.155 429.459 282.245 431.403C288.657 434.166 292.474 440.666 294.864 446.967C297.39 447.387 299.558 446.368 302.189 446.319C289.488 406.118 239.036 410.066 233.78 452.333C235.963 452.78 237.951 451.312 240.109 452.116C240.079 452.627 240.048 453.119 240.023 453.524C238.935 454.252 237.665 453.937 236.339 454.212C235.505 459.851 236.397 466.433 238.505 471.384C240.358 472.465 242.989 469.069 244.108 471.397C243.397 474.449 230.361 474.074 227.665 472.782C218.652 468.677 222.661 455.191 231.537 453.273C237.516 407.348 290.134 403.182 304.696 446.635L304.696 446.64ZM233.925 455.12C220.839 455.598 221.347 475.161 236.104 471.533C234.761 465.936 234.128 460.874 233.925 455.12ZM301.498 448.703C301.285 449.096 301.2 449.171 301.207 449.247C301.87 454.374 301.233 459.908 302.699 464.812C315.093 462.998 314.144 447.555 301.498 448.703ZM300.266 464.46C299.555 459.218 299.743 454.277 298.876 449.173C297.526 449.003 296.437 449.118 295.611 449.517C296.072 454.849 295.876 459.915 295.102 465.261C296.875 465.261 298.59 465.468 300.266 464.455L300.266 464.46Z" fill="black"/>
<path d="M330.578 532.822C331.723 531.619 339.306 515.47 340.053 520.627C328.057 541.012 315.573 561.927 310.22 585.245C308.496 590.366 310.174 593.405 314.916 595.884C322.642 592.034 330.924 588.555 337.403 582.715C345.727 574.528 353.933 564.747 355.586 552.843C359.839 529.602 347.043 504.806 326.067 494.195C322.099 492.78 310.528 485.294 307.354 486.789C306.895 487.105 306.176 486.38 306.224 485.747C306.733 481.28 317.17 488.376 319.697 488.911C345.4 498.704 362.948 526.565 357.323 554.07C354.354 568.644 343.411 581.866 331.064 589.774C325.792 592.584 320.486 595.329 315.191 598.098C312.374 597.738 310.211 594.379 307.948 592.54C306.523 590.542 308.115 587.74 308.23 585.495C311.839 568.176 320.012 552.342 328.457 536.963C330.028 534.407 327.114 532.21 325.654 530.397C319.899 525.125 314.665 519.329 309.064 513.908C308.225 512.552 310.625 512.015 311.15 513.242C317.595 519.765 324.228 526.396 330.587 532.821L330.578 532.822Z" fill="black"/>
<path d="M265.491 505.416C269.765 482.556 267.295 486.446 278.436 503.709C279.111 503.599 278.918 503.07 278.933 502.704C278.996 501.308 279.962 481.619 282.568 487.973C278.29 508.277 285.612 520.535 269.858 493.489C268.03 498.312 268.651 503.721 266.659 508.53C264.904 510.815 263.779 506.34 262.946 505.208C260.707 500.595 257.74 496.414 255.105 492.044C255.543 486.216 264.1 503.99 265.49 505.411L265.491 505.416Z" fill="black"/>
<path d="M287.092 523.876C285.451 520.31 287.024 516.095 284.948 512.738C282.828 509.956 295.677 509.245 297.192 509.619C299.619 527.433 302.484 520.75 287.091 523.871L287.092 523.876ZM296.838 520.732C296.252 518.115 296.745 515.495 295.565 513.499C292.886 514.809 292.433 520.877 289.212 517.007C288.885 516.74 288.588 516.374 288.052 516.802C288.168 518.268 288.06 519.812 288.657 521.354C291.535 521.334 293.722 520.98 296.838 520.732ZM293.892 511.979C291.528 511.65 289.833 511.882 288.074 512.705C289.028 514.281 289.454 514.693 291.132 515.637C291.991 514.498 292.858 513.349 293.892 511.979Z" fill="black"/>
<path d="M244.206 515.915C248.194 514.68 251.987 514.86 256.037 515.188C258.356 515.339 257.106 520.613 257.721 522.402C258.009 525.693 258.009 525.54 254.916 525.834C251.806 526.095 248.663 526.878 245.562 527.134C244.048 523.749 244.835 519.899 244.206 515.915ZM255.865 523.646C255.746 522.348 255.662 521.325 255.559 520.309C255.072 517.769 252.907 521.698 252.437 522.633C251.845 523.704 250.991 523.845 250.115 523.019C248.904 522.258 247.99 519.762 246.517 519.95C246.638 521.526 246.495 523.155 246.997 524.864C249.974 524.72 252.727 524.069 255.871 523.651L255.865 523.646ZM253.776 517.231C250.911 516.612 249.565 516.669 247.746 517.526C248.788 518.692 249.635 519.985 250.835 520.843C251.848 519.557 253.206 518.746 253.776 517.231Z" fill="black"/>
<path d="M250.524 454.573C248.444 454.937 246.186 455.552 244.014 455.756C243.057 455.868 242.928 454.571 243.629 454.171C244.255 453.888 244.933 453.701 245.605 453.563C248.141 453.359 261.348 449.815 261.626 452.791C260.569 454.379 256.679 453.135 254.755 454.156C254.301 457.3 251.849 457.314 250.524 454.573Z" fill="black"/>
<path d="M282.951 450.814C280.501 455.598 280.065 450.436 276.859 451.685C275.321 451.74 272.524 453.474 271.634 451.666C271.466 450.723 272.538 450.5 273.244 450.411C278.466 449.773 283.642 448.473 288.895 448.225C292.641 450.293 284.144 450.551 282.952 450.819L282.951 450.814Z" fill="black"/>
<path d="M272.696 464.959C272.722 463.989 272.091 462.906 273.235 462.527C274.674 462.548 274.67 465.104 276.611 464.907C278.673 465.278 277.363 467.144 275.886 466.767C271.758 466.216 269.093 469.816 263.598 467.531C262.558 467.319 261.494 466.228 262.807 465.604C266.227 466.215 269.439 467.009 272.696 464.959Z" fill="black"/>
<path d="M276.017 546.137C276.261 548.272 273.978 549.244 273.753 546.844C273.83 545.542 275.302 544.87 276.017 546.137Z" fill="black"/>
<path d="M268.262 462.015C266.563 461.15 267.624 459.245 269.187 459.514C270.814 460.328 269.289 461.456 268.262 462.015Z" fill="black"/>
<path d="M272.475 529.854C274.277 529.545 273.635 532.466 272.292 532.407C271.15 532.287 271.096 529.871 272.475 529.854Z" fill="black"/>
<path d="M277.957 565.492C277.315 567.474 275.235 565.598 275.828 564.326C276.683 563.36 278.072 564.187 277.957 565.492Z" fill="black"/>
</g>
<rect x="0.543634" y="43.2823" width="467.294" height="569.55" rx="7.5" transform="rotate(-5.24757 0.543634 43.2823)" stroke="#EEEEEE"/>
<defs>
<clipPath id="clip0_479_1644">
<rect y="42.8301" width="468.294" height="570.55" rx="8" transform="rotate(-5.24757 0 42.8301)" fill="white"/>
</clipPath>
</defs>
</svg>
