<svg width="226" height="275" viewBox="0 0 226 275" fill="none" xmlns="http://www.w3.org/2000/svg">
<g clip-path="url(#clip0_1753_53574)">
<rect x="0.111816" y="0.213867" width="225.37" height="274.581" rx="3.85006" fill="white"/>
<path d="M31.556 21.6581C31.556 19.8319 31.9965 18.4354 32.8773 17.4686C33.7582 16.4803 35.058 15.9862 36.7768 15.9862C38.4955 15.9862 39.7953 16.4803 40.6762 17.4686C41.5571 18.4354 41.9975 19.8319 41.9975 21.6581V22.3671H38.6459V21.4325C38.6459 19.9501 38.0551 19.2088 36.8734 19.2088C35.6918 19.2088 35.101 19.9501 35.101 21.4325C35.101 22.0555 35.2299 22.6464 35.4877 23.205C35.7455 23.7636 36.0785 24.2685 36.4867 24.7196C36.8949 25.1708 37.3461 25.622 37.8403 26.0732C38.3344 26.5028 38.8178 26.9648 39.2905 27.4589C39.7846 27.9316 40.2358 28.4472 40.644 29.0058C41.0522 29.5429 41.3852 30.1874 41.643 30.9394C41.9008 31.6914 42.0297 32.5078 42.0297 33.3886C42.0297 35.2148 41.5786 36.6221 40.6762 37.6103C39.7739 38.5771 38.4633 39.0605 36.7445 39.0605C35.0258 39.0605 33.7152 38.5771 32.8129 37.6103C31.9105 36.6221 31.4593 35.2148 31.4593 33.3886V32.0029H34.8109V33.6142C34.8109 35.0752 35.4232 35.8056 36.6479 35.8056C37.8725 35.8056 38.4848 35.0752 38.4848 33.6142C38.4848 32.7763 38.2485 31.9921 37.7758 31.2617C37.3031 30.5097 36.7231 29.8329 36.0356 29.2314C35.3695 28.6298 34.6928 28.0068 34.0053 27.3622C33.3178 26.6962 32.7377 25.8798 32.265 24.913C31.7924 23.9247 31.556 22.8397 31.556 21.6581ZM43.0295 19.4667V16.244H53.9866V19.4667H50.2806V38.8027H46.7356V19.4667H43.0295ZM62.1838 16.244L65.7932 38.8027H62.216L61.6037 34.7099H57.2531L56.6408 38.8027H53.3859L56.9953 16.244H62.1838ZM59.4123 20.2401L57.7043 31.6484H61.1203L59.4123 20.2401ZM70.7634 38.8027V31.3261L66.2839 16.244H69.99L72.6971 26.5243L75.4041 16.244H78.7879L74.3084 31.3261V38.8027H70.7634ZM85.2255 38.8027V16.244H88.7704V38.8027H85.2255ZM98.9357 38.8027L94.5206 22.4638V38.8027H91.3302V16.244L95.7775 16.244L99.4191 29.747V16.244H102.577V38.8027H98.9357ZM117.048 30.3915H120.4V33.3886C120.4 35.2148 119.949 36.6221 119.046 37.6103C118.144 38.5771 116.833 39.0605 115.115 39.0605C113.396 39.0605 112.085 38.5771 111.183 37.6103C110.281 36.6221 109.829 35.2148 109.829 33.3886V21.6581C109.829 19.8319 110.281 18.4354 111.183 17.4686C112.085 16.4803 113.396 15.9862 115.115 15.9862C116.833 15.9862 118.144 16.4803 119.046 17.4686C119.949 18.4354 120.4 19.8319 120.4 21.6581V23.8495H117.048V21.4325C117.048 19.9501 116.436 19.2088 115.211 19.2088C113.987 19.2088 113.374 19.9501 113.374 21.4325V33.6142C113.374 35.0752 113.987 35.8056 115.211 35.8056C116.436 35.8056 117.048 35.0752 117.048 33.6142V30.3915ZM125.806 21.4325V33.6142C125.806 35.0967 126.418 35.8379 127.642 35.8379C128.867 35.8379 129.479 35.0967 129.479 33.6142V21.4325C129.479 19.9501 128.867 19.2088 127.642 19.2088C126.418 19.2088 125.806 19.9501 125.806 21.4325ZM122.261 33.3886V21.6581C122.261 19.8534 122.723 18.4569 123.646 17.4686C124.57 16.4803 125.902 15.9862 127.642 15.9862C129.383 15.9862 130.715 16.4803 131.639 17.4686C132.562 18.4569 133.024 19.8534 133.024 21.6581V33.3886C133.024 35.1933 132.562 36.5898 131.639 37.5781C130.715 38.5664 129.383 39.0605 127.642 39.0605C125.902 39.0605 124.57 38.5664 123.646 37.5781C122.723 36.5898 122.261 35.1933 122.261 33.3886ZM142.901 38.8027L138.486 22.4638V38.8027H135.296V16.244H139.743L143.385 29.747V16.244H146.543V38.8027H142.901ZM148.05 19.4667V16.244H159.007V19.4667H155.301V38.8027H151.756V19.4667H148.05ZM167.204 16.244L170.814 38.8027H167.236L166.624 34.7099H162.273L161.661 38.8027H158.406L162.016 16.244H167.204ZM164.433 20.2401L162.725 31.6484H166.141L164.433 20.2401ZM179.393 30.3915H182.745V33.3886C182.745 35.2148 182.294 36.6221 181.391 37.6103C180.489 38.5771 179.178 39.0605 177.46 39.0605C175.741 39.0605 174.43 38.5771 173.528 37.6103C172.626 36.6221 172.174 35.2148 172.174 33.3886V21.6581C172.174 19.8319 172.626 18.4354 173.528 17.4686C174.43 16.4803 175.741 15.9862 177.46 15.9862C179.178 15.9862 180.489 16.4803 181.391 17.4686C182.294 18.4354 182.745 19.8319 182.745 21.6581V23.8495H179.393V21.4325C179.393 19.9501 178.781 19.2088 177.556 19.2088C176.332 19.2088 175.719 19.9501 175.719 21.4325V33.6142C175.719 35.0752 176.332 35.8056 177.556 35.8056C178.781 35.8056 179.393 35.0752 179.393 33.6142V30.3915ZM183.864 19.4667V16.244H194.821V19.4667H191.115V38.8027H187.57V19.4667H183.864Z" fill="black"/>
<path d="M101.267 144.305V156.487C101.267 157.969 101.879 158.71 103.104 158.71C104.329 158.71 104.941 157.969 104.941 156.487V144.305C104.941 142.823 104.329 142.081 103.104 142.081C101.879 142.081 101.267 142.823 101.267 144.305ZM97.7221 156.261V144.531C97.7221 142.726 98.184 141.329 99.1078 140.341C100.032 139.353 101.364 138.859 103.104 138.859C104.844 138.859 106.176 139.353 107.1 140.341C108.024 141.329 108.486 142.726 108.486 144.531V156.261C108.486 158.066 108.024 159.462 107.1 160.451C106.176 161.439 104.844 161.933 103.104 161.933C101.364 161.933 100.032 161.439 99.1078 160.451C98.184 159.462 97.7221 158.066 97.7221 156.261ZM109.952 157.582V154.36L116.397 139.117H120.264V154.36H121.94V157.582H120.264V161.675H116.784V157.582H109.952ZM113.207 154.36H116.784V145.884L113.207 154.36ZM123.567 158.259H126.983V161.675H123.567V158.259Z" fill="black"/>
<path d="M59.2248 173.232L59.2248 168.516L61.3135 168.516C61.6998 168.516 62.0209 168.644 62.277 168.9C62.533 169.152 62.661 169.462 62.661 169.83C62.661 170.126 62.5757 170.382 62.405 170.598C62.3376 170.683 62.2545 170.764 62.1557 170.841L62.1557 170.874C62.2635 170.937 62.3578 171.018 62.4387 171.117C62.6318 171.346 62.7284 171.613 62.7284 171.919C62.7284 172.291 62.6004 172.604 62.3443 172.855C62.0928 173.107 61.7784 173.232 61.4011 173.232L59.2248 173.232ZM59.9323 170.571L61.2798 170.571C61.4685 170.571 61.6279 170.504 61.7582 170.369C61.8884 170.234 61.9536 170.066 61.9536 169.864C61.9536 169.661 61.8884 169.493 61.7582 169.358C61.6279 169.224 61.4685 169.156 61.2798 169.156L59.9323 169.156L59.9323 170.571ZM59.9323 172.592L61.3472 172.592C61.5358 172.592 61.6953 172.525 61.8256 172.39C61.9558 172.255 62.0209 172.087 62.0209 171.885C62.0209 171.683 61.9558 171.514 61.8256 171.38C61.6953 171.245 61.5358 171.177 61.3472 171.177L59.9323 171.177L59.9323 172.592ZM63.6069 173.232L63.6069 168.516L66.7062 168.516L66.7062 169.19L64.3144 169.19L64.3144 170.537L66.5714 170.537L66.5714 171.211L64.3144 171.211L64.3144 172.559L66.7062 172.559L66.7062 173.232L63.6069 173.232ZM69.1667 173.232L69.1667 168.516L72.1987 168.516L72.1987 169.19L69.8742 169.19L69.8742 170.537L72.0639 170.537L72.0639 171.211L69.8742 171.211L69.8742 173.232L69.1667 173.232ZM73.0093 173.232L73.0093 168.516L75.1316 168.516C75.5269 168.516 75.8548 168.658 76.1153 168.941C76.3803 169.219 76.5128 169.583 76.5128 170.032C76.5128 170.481 76.3803 170.847 76.1153 171.13C75.8548 171.409 75.5269 171.548 75.1316 171.548L74.9632 171.548L76.6476 173.232L75.738 173.232L74.0536 171.548L73.7167 171.548L73.7167 173.232L73.0093 173.232ZM73.7167 170.874L75.0979 170.874C75.2911 170.874 75.4573 170.796 75.5965 170.638C75.7358 170.481 75.8054 170.279 75.8054 170.032C75.8054 169.785 75.7358 169.583 75.5965 169.426C75.4573 169.268 75.2911 169.19 75.0979 169.19L73.7167 169.19L73.7167 170.874ZM77.3913 173.232L77.3913 168.516L78.0988 168.516L78.0988 173.232L77.3913 173.232ZM79.1086 173.232L79.1086 168.516L82.2079 168.516L82.2079 169.19L79.8161 169.19L79.8161 170.537L82.0732 170.537L82.0732 171.211L79.8161 171.211L79.8161 172.559L82.2079 172.559L82.2079 173.232L79.1086 173.232ZM83.0828 173.232L83.0828 168.516L84.1271 168.516L86.0473 172.188L86.1821 172.188L86.1821 168.516L86.8895 168.516L86.8895 173.232L85.8452 173.232L83.925 169.56L83.7902 169.56L83.7902 173.232L83.0828 173.232ZM88.6065 172.559L89.5498 172.559C89.9945 172.559 90.3628 172.404 90.6548 172.094C90.9512 171.779 91.0995 171.373 91.0995 170.874C91.0995 170.376 90.9512 169.971 90.6548 169.661C90.3628 169.347 89.9945 169.19 89.5498 169.19L88.6065 169.19L88.6065 172.559ZM87.8991 173.232L87.8991 168.516L89.5498 168.516C90.1921 168.516 90.7289 168.738 91.1601 169.183C91.5913 169.628 91.8069 170.192 91.8069 170.874C91.8069 171.557 91.5913 172.121 91.1601 172.565C90.7289 173.01 90.1921 173.232 89.5498 173.232L87.8991 173.232ZM92.3809 171.784L93.0884 171.784C93.0884 172.013 93.1939 172.211 93.405 172.377C93.6206 172.543 93.8969 172.626 94.2338 172.626C94.6021 172.626 94.8738 172.563 95.049 172.437C95.2242 172.307 95.3118 172.134 95.3118 171.919C95.3118 171.573 95.0423 171.348 94.5033 171.245L93.5937 171.076C93.2254 171.009 92.9469 170.868 92.7582 170.652C92.5741 170.436 92.482 170.162 92.482 169.83C92.482 169.435 92.6347 169.107 92.9401 168.846C93.2456 168.581 93.6543 168.449 94.1664 168.449C94.7323 168.449 95.1703 168.592 95.4802 168.88C95.7946 169.163 95.9518 169.524 95.9518 169.965L95.2444 169.965C95.2444 169.736 95.1456 169.538 94.9479 169.372C94.7503 169.206 94.4898 169.122 94.1664 169.122C93.8609 169.122 93.6206 169.192 93.4455 169.331C93.2748 169.466 93.1894 169.632 93.1894 169.83C93.1894 170.162 93.4252 170.376 93.8969 170.47L94.638 170.605C95.1141 170.69 95.4622 170.838 95.6823 171.049C95.9069 171.256 96.0192 171.546 96.0192 171.919C96.0192 172.323 95.8642 172.655 95.5543 172.916C95.2444 173.172 94.8042 173.3 94.2338 173.3C93.6633 173.3 93.2119 173.156 92.8795 172.869C92.5471 172.581 92.3809 172.22 92.3809 171.784ZM98.9506 173.232L97.7715 168.516L98.5463 168.516L99.4559 172.222L99.5907 172.222L100.568 168.516L101.444 168.516L102.42 172.222L102.555 172.222L103.465 168.516L104.24 168.516L103.061 173.232L101.983 173.232L101.073 169.695L100.938 169.695L100.029 173.232L98.9506 173.232ZM104.815 173.232L104.815 168.516L105.523 168.516L105.523 173.232L104.815 173.232ZM107.644 173.232L107.644 169.19L106.162 169.19L106.162 168.516L109.834 168.516L109.834 169.19L108.352 169.19L108.352 173.232L107.644 173.232ZM110.474 173.232L110.474 168.516L111.181 168.516L111.181 170.504L113.573 170.504L113.573 168.516L114.281 168.516L114.281 173.232L113.573 173.232L113.573 171.177L111.181 171.177L111.181 173.232L110.474 173.232ZM117.851 173.232L117.851 171.548L116.133 168.516L116.915 168.516L118.154 170.706L118.289 170.706L119.495 168.516L120.277 168.516L118.559 171.548L118.559 173.232L117.851 173.232ZM124.278 172.619C123.843 173.073 123.308 173.3 122.675 173.3C122.041 173.3 121.507 173.073 121.071 172.619C120.636 172.166 120.418 171.584 120.418 170.874C120.418 170.165 120.636 169.583 121.071 169.129C121.507 168.676 122.041 168.449 122.675 168.449C123.308 168.449 123.843 168.676 124.278 169.129C124.714 169.583 124.932 170.165 124.932 170.874C124.932 171.584 124.714 172.166 124.278 172.619ZM123.787 169.601C123.495 169.282 123.124 169.122 122.675 169.122C122.226 169.122 121.855 169.282 121.563 169.601C121.271 169.92 121.125 170.344 121.125 170.874C121.125 171.404 121.271 171.829 121.563 172.148C121.855 172.467 122.226 172.626 122.675 172.626C123.124 172.626 123.495 172.467 123.787 172.148C124.078 171.829 124.224 171.404 124.224 170.874C124.224 170.344 124.078 169.92 123.787 169.601ZM125.705 171.346L125.705 168.516L126.413 168.516L126.413 171.346C126.413 171.728 126.523 172.038 126.743 172.276C126.967 172.509 127.25 172.626 127.592 172.626C127.933 172.626 128.214 172.509 128.434 172.276C128.658 172.038 128.771 171.728 128.771 171.346L128.771 168.516L129.478 168.516L129.478 171.346C129.478 171.934 129.303 172.408 128.953 172.768C128.607 173.122 128.153 173.3 127.592 173.3C127.03 173.3 126.574 173.122 126.224 172.768C125.878 172.408 125.705 171.934 125.705 171.346ZM130.456 173.232L130.456 168.516L132.579 168.516C132.974 168.516 133.302 168.658 133.563 168.941C133.828 169.219 133.96 169.583 133.96 170.032C133.96 170.481 133.828 170.847 133.563 171.13C133.302 171.409 132.974 171.548 132.579 171.548L132.41 171.548L134.095 173.232L133.185 173.232L131.501 171.548L131.164 171.548L131.164 173.232L130.456 173.232ZM131.164 170.874L132.545 170.874C132.738 170.874 132.904 170.796 133.044 170.638C133.183 170.481 133.253 170.279 133.253 170.032C133.253 169.785 133.183 169.583 133.044 169.426C132.904 169.268 132.738 169.19 132.545 169.19L131.164 169.19L131.164 170.874ZM136.424 173.232L136.424 168.516L138.513 168.516C138.899 168.516 139.22 168.644 139.476 168.9C139.732 169.152 139.86 169.462 139.86 169.83C139.86 170.126 139.775 170.382 139.604 170.598C139.537 170.683 139.454 170.764 139.355 170.841L139.355 170.874C139.463 170.937 139.557 171.018 139.638 171.117C139.831 171.346 139.928 171.613 139.928 171.919C139.928 172.291 139.8 172.604 139.544 172.855C139.292 173.107 138.978 173.232 138.601 173.232L136.424 173.232ZM137.132 170.571L138.479 170.571C138.668 170.571 138.827 170.504 138.958 170.369C139.088 170.234 139.153 170.066 139.153 169.864C139.153 169.661 139.088 169.493 138.958 169.358C138.827 169.224 138.668 169.156 138.479 169.156L137.132 169.156L137.132 170.571ZM137.132 172.592L138.547 172.592C138.735 172.592 138.895 172.525 139.025 172.39C139.155 172.255 139.22 172.087 139.22 171.885C139.22 171.683 139.155 171.514 139.025 171.38C138.895 171.245 138.735 171.177 138.547 171.177L137.132 171.177L137.132 172.592ZM140.773 171.346L140.773 168.516L141.48 168.516L141.48 171.346C141.48 171.728 141.59 172.038 141.81 172.276C142.035 172.509 142.318 172.626 142.659 172.626C143.001 172.626 143.281 172.509 143.501 172.276C143.726 172.038 143.838 171.728 143.838 171.346L143.838 168.516L144.546 168.516L144.546 171.346C144.546 171.934 144.371 172.408 144.02 172.768C143.674 173.122 143.221 173.3 142.659 173.3C142.098 173.3 141.642 173.122 141.291 172.768C140.946 172.408 140.773 171.934 140.773 171.346ZM146.231 172.559L147.175 172.559C147.619 172.559 147.988 172.404 148.28 172.094C148.576 171.779 148.724 171.373 148.724 170.874C148.724 170.376 148.576 169.971 148.28 169.661C147.988 169.347 147.619 169.19 147.175 169.19L146.231 169.19L146.231 172.559ZM145.524 173.232L145.524 168.516L147.175 168.516C147.817 168.516 148.354 168.738 148.785 169.183C149.216 169.628 149.432 170.192 149.432 170.874C149.432 171.557 149.216 172.121 148.785 172.565C148.354 173.01 147.817 173.232 147.175 173.232L145.524 173.232ZM150.949 172.559L151.892 172.559C152.337 172.559 152.705 172.404 152.997 172.094C153.294 171.779 153.442 171.373 153.442 170.874C153.442 170.376 153.294 169.971 152.997 169.661C152.705 169.347 152.337 169.19 151.892 169.19L150.949 169.19L150.949 172.559ZM150.242 173.232L150.242 168.516L151.892 168.516C152.535 168.516 153.071 168.738 153.503 169.183C153.934 169.628 154.149 170.192 154.149 170.874C154.149 171.557 153.934 172.121 153.503 172.565C153.071 173.01 152.535 173.232 151.892 173.232L150.242 173.232ZM156.007 173.232L156.007 171.548L154.289 168.516L155.07 168.516L156.31 170.706L156.445 170.706L157.651 168.516L158.432 168.516L156.714 171.548L156.714 173.232L156.007 173.232ZM55.3343 181.232L57.0524 176.516L58.1304 176.516L59.8485 181.232L59.0736 181.232L58.6694 180.121L56.5134 180.121L56.1091 181.232L55.3343 181.232ZM56.7492 179.481L58.4336 179.481L57.6587 177.325L57.524 177.325L56.7492 179.481ZM60.3533 181.232L60.3533 176.516L61.3976 176.516L63.3178 180.188L63.4525 180.188L63.4525 176.516L64.16 176.516L64.16 181.232L63.1157 181.232L61.1955 177.56L61.0607 177.56L61.0607 181.232L60.3533 181.232ZM65.877 180.559L66.8203 180.559C67.265 180.559 67.6333 180.404 67.9253 180.094C68.2217 179.779 68.3699 179.373 68.3699 178.874C68.3699 178.376 68.2217 177.971 67.9253 177.661C67.6333 177.347 67.265 177.19 66.8203 177.19L65.877 177.19L65.877 180.559ZM65.1696 181.232L65.1696 176.516L66.8203 176.516C67.4626 176.516 67.9994 176.738 68.4306 177.183C68.8618 177.628 69.0774 178.192 69.0774 178.874C69.0774 179.557 68.8618 180.121 68.4306 180.565C67.9994 181.01 67.4626 181.232 66.8203 181.232L65.1696 181.232ZM71.2371 179.784L71.9446 179.784C71.9446 180.013 72.0501 180.211 72.2612 180.377C72.4768 180.543 72.7531 180.626 73.0899 180.626C73.4583 180.626 73.73 180.563 73.9052 180.437C74.0804 180.307 74.168 180.134 74.168 179.919C74.168 179.573 73.8985 179.348 73.3594 179.245L72.4499 179.076C72.0815 179.009 71.8031 178.868 71.6144 178.652C71.4302 178.436 71.3382 178.162 71.3382 177.83C71.3382 177.435 71.4909 177.107 71.7963 176.846C72.1018 176.581 72.5105 176.449 73.0226 176.449C73.5885 176.449 74.0265 176.592 74.3364 176.88C74.6508 177.163 74.808 177.524 74.808 177.965L74.1006 177.965C74.1006 177.736 74.0018 177.538 73.8041 177.372C73.6065 177.206 73.346 177.122 73.0226 177.122C72.7171 177.122 72.4768 177.192 72.3016 177.331C72.131 177.466 72.0456 177.632 72.0456 177.83C72.0456 178.162 72.2814 178.376 72.7531 178.47L73.4942 178.605C73.9703 178.69 74.3184 178.838 74.5385 179.049C74.7631 179.256 74.8754 179.546 74.8754 179.919C74.8754 180.323 74.7204 180.655 74.4105 180.916C74.1006 181.172 73.6604 181.3 73.0899 181.3C72.5195 181.3 72.0681 181.156 71.7357 180.869C71.4033 180.581 71.2371 180.22 71.2371 179.784ZM76.664 181.232L76.664 177.19L75.1818 177.19L75.1818 176.516L78.8537 176.516L78.8537 177.19L77.3715 177.19L77.3715 181.232L76.664 181.232ZM78.5869 181.232L80.305 176.516L81.383 176.516L83.1011 181.232L82.3262 181.232L81.922 180.121L79.766 180.121L79.3617 181.232L78.5869 181.232ZM80.0018 179.481L81.6862 179.481L80.9113 177.325L80.7766 177.325L80.0018 179.481ZM83.6059 181.232L83.6059 176.516L85.7282 176.516C86.1235 176.516 86.4514 176.658 86.7119 176.941C86.9769 177.219 87.1094 177.583 87.1094 178.032C87.1094 178.481 86.9769 178.847 86.7119 179.13C86.4514 179.409 86.1235 179.548 85.7282 179.548L85.5598 179.548L87.2442 181.232L86.3346 181.232L84.6502 179.548L84.3133 179.548L84.3133 181.232L83.6059 181.232ZM84.3133 178.874L85.6945 178.874C85.8877 178.874 86.0538 178.796 86.1931 178.638C86.3323 178.481 86.402 178.279 86.402 178.032C86.402 177.785 86.3323 177.583 86.1931 177.426C86.0538 177.268 85.8877 177.19 85.6945 177.19L84.3133 177.19L84.3133 178.874ZM88.968 181.232L88.968 177.19L87.4858 177.19L87.4858 176.516L91.1578 176.516L91.1578 177.19L89.6755 177.19L89.6755 181.232L88.968 181.232ZM92.674 181.232L94.3921 176.516L95.4701 176.516L97.1882 181.232L96.4133 181.232L96.0091 180.121L93.8531 180.121L93.4488 181.232L92.674 181.232ZM94.0889 179.481L95.7733 179.481L94.9984 177.325L94.8637 177.325L94.0889 179.481ZM99.0428 179.784L99.7503 179.784C99.7503 180.013 99.8558 180.211 100.067 180.377C100.283 180.543 100.559 180.626 100.896 180.626C101.264 180.626 101.536 180.563 101.711 180.437C101.886 180.307 101.974 180.134 101.974 179.919C101.974 179.573 101.704 179.348 101.165 179.245L100.256 179.076C99.8873 179.009 99.6088 178.868 99.4201 178.652C99.236 178.436 99.1439 178.162 99.1439 177.83C99.1439 177.435 99.2966 177.107 99.6021 176.846C99.9075 176.581 100.316 176.449 100.828 176.449C101.394 176.449 101.832 176.592 102.142 176.88C102.457 177.163 102.614 177.524 102.614 177.965L101.906 177.965C101.906 177.736 101.808 177.538 101.61 177.372C101.412 177.206 101.152 177.122 100.828 177.122C100.523 177.122 100.283 177.192 100.107 177.331C99.9367 177.466 99.8514 177.632 99.8514 177.83C99.8514 178.162 100.087 178.376 100.559 178.47L101.3 178.605C101.776 178.69 102.124 178.838 102.344 179.049C102.569 179.256 102.681 179.546 102.681 179.919C102.681 180.323 102.526 180.655 102.216 180.916C101.906 181.172 101.466 181.3 100.896 181.3C100.325 181.3 99.8738 181.156 99.5414 180.869C99.209 180.581 99.0428 180.22 99.0428 179.784ZM103.456 179.346L103.456 176.516L104.163 176.516L104.163 179.346C104.163 179.728 104.273 180.038 104.494 180.276C104.718 180.509 105.001 180.626 105.342 180.626C105.684 180.626 105.965 180.509 106.185 180.276C106.409 180.038 106.522 179.728 106.522 179.346L106.522 176.516L107.229 176.516L107.229 179.346C107.229 179.934 107.054 180.408 106.703 180.768C106.358 181.122 105.904 181.3 105.342 181.3C104.781 181.3 104.325 181.122 103.975 180.768C103.629 180.408 103.456 179.934 103.456 179.346ZM111.643 179.615L112.385 179.615C112.34 179.813 112.263 180.006 112.156 180.195C112.052 180.383 111.915 180.563 111.745 180.734C111.574 180.905 111.36 181.042 111.104 181.145C110.848 181.248 110.568 181.3 110.262 181.3C109.629 181.3 109.094 181.073 108.659 180.619C108.223 180.166 108.005 179.584 108.005 178.874C108.005 178.165 108.223 177.583 108.659 177.129C109.094 176.676 109.629 176.449 110.262 176.449C110.819 176.449 111.284 176.61 111.657 176.934C112.034 177.253 112.277 177.641 112.385 178.099L111.643 178.099C111.527 177.785 111.345 177.545 111.098 177.379C110.851 177.208 110.572 177.122 110.262 177.122C109.813 177.122 109.443 177.282 109.151 177.601C108.859 177.92 108.713 178.344 108.713 178.874C108.713 179.404 108.859 179.829 109.151 180.148C109.443 180.467 109.813 180.626 110.262 180.626C110.622 180.626 110.918 180.529 111.152 180.336C111.39 180.139 111.554 179.898 111.643 179.615ZM116.565 179.615L117.306 179.615C117.261 179.813 117.185 180.006 117.077 180.195C116.974 180.383 116.837 180.563 116.666 180.734C116.495 180.905 116.282 181.042 116.026 181.145C115.77 181.248 115.489 181.3 115.184 181.3C114.551 181.3 114.016 181.073 113.58 180.619C113.145 180.166 112.927 179.584 112.927 178.874C112.927 178.165 113.145 177.583 113.58 177.129C114.016 176.676 114.551 176.449 115.184 176.449C115.741 176.449 116.206 176.61 116.579 176.934C116.956 177.253 117.198 177.641 117.306 178.099L116.565 178.099C116.448 177.785 116.266 177.545 116.019 177.379C115.772 177.208 115.494 177.122 115.184 177.122C114.735 177.122 114.364 177.282 114.072 177.601C113.78 177.92 113.634 178.344 113.634 178.874C113.634 179.404 113.78 179.829 114.072 180.148C114.364 180.467 114.735 180.626 115.184 180.626C115.543 180.626 115.84 180.529 116.073 180.336C116.311 180.139 116.475 179.898 116.565 179.615ZM118.05 181.232L118.05 176.516L121.15 176.516L121.15 177.19L118.758 177.19L118.758 178.537L121.015 178.537L121.015 179.211L118.758 179.211L118.758 180.559L121.15 180.559L121.15 181.232L118.05 181.232ZM122.025 181.232L122.025 176.516L125.057 176.516L125.057 177.19L122.732 177.19L122.732 178.537L124.922 178.537L124.922 179.211L122.732 179.211L122.732 181.232L122.025 181.232ZM125.833 179.346L125.833 176.516L126.541 176.516L126.541 179.346C126.541 179.728 126.651 180.038 126.871 180.276C127.096 180.509 127.379 180.626 127.72 180.626C128.061 180.626 128.342 180.509 128.562 180.276C128.787 180.038 128.899 179.728 128.899 179.346L128.899 176.516L129.607 176.516L129.607 179.346C129.607 179.934 129.431 180.408 129.081 180.768C128.735 181.122 128.281 181.3 127.72 181.3C127.159 181.3 126.703 181.122 126.352 180.768C126.006 180.408 125.833 179.934 125.833 179.346ZM130.585 181.232L130.585 176.516L131.292 176.516L131.292 180.559L133.583 180.559L133.583 181.232L130.585 181.232ZM135.775 179.346L135.775 176.516L136.483 176.516L136.483 179.346C136.483 179.728 136.593 180.038 136.813 180.276C137.038 180.509 137.321 180.626 137.662 180.626C138.003 180.626 138.284 180.509 138.504 180.276C138.729 180.038 138.841 179.728 138.841 179.346L138.841 176.516L139.548 176.516L139.548 179.346C139.548 179.934 139.373 180.408 139.023 180.768C138.677 181.122 138.223 181.3 137.662 181.3C137.1 181.3 136.645 181.122 136.294 180.768C135.948 180.408 135.775 179.934 135.775 179.346ZM140.527 181.232L140.527 176.516L141.571 176.516L143.491 180.188L143.626 180.188L143.626 176.516L144.333 176.516L144.333 181.232L143.289 181.232L141.369 177.56L141.234 177.56L141.234 181.232L140.527 181.232ZM145.343 181.232L145.343 176.516L146.05 176.516L146.05 181.232L145.343 181.232ZM148.646 181.232L148.646 176.516L149.353 176.516L149.353 180.559L151.644 180.559L151.644 181.232L148.646 181.232ZM152.285 181.232L152.285 176.516L152.992 176.516L152.992 181.232L152.285 181.232ZM154.002 181.232L154.002 176.516L157.034 176.516L157.034 177.19L154.709 177.19L154.709 178.537L156.899 178.537L156.899 179.211L154.709 179.211L154.709 181.232L154.002 181.232ZM157.844 181.232L157.844 176.516L160.944 176.516L160.944 177.19L158.552 177.19L158.552 178.537L160.809 178.537L160.809 179.211L158.552 179.211L158.552 180.559L160.944 180.559L160.944 181.232L157.844 181.232ZM161.987 180.02L161.886 178.436L161.886 176.516L162.593 176.516L162.593 178.436L162.492 180.02L161.987 180.02ZM161.852 181.232L161.852 180.458L162.627 180.458L162.627 181.232L161.852 181.232Z" fill="#8B8B8B"/>
<rect x="2.07178" y="198.8" width="221.668" height="74.0345" rx="3.85006" fill="#03C3A3"/>
<circle cx="31.4684" cy="54.215" r="7.1857" fill="#03C3A3"/>
<path d="M29.7572 55.5108V54.9381L31.5426 51.8052H32.6544V54.8708H33.227V55.5108H32.6544V56.5215H31.9469V55.5108H29.7572ZM30.5994 54.8708H31.9469V52.6811H31.8122L30.5994 54.8371V54.8708Z" fill="white"/>
<circle cx="50.6918" cy="215.983" r="11.8359" fill="#FFA7D1"/>
<path d="M52.3174 215.44C52.4593 215.097 52.6672 214.786 52.9294 214.524C53.1915 214.262 53.5028 214.054 53.8453 213.912C54.1878 213.77 54.555 213.697 54.9257 213.697C55.2965 213.697 55.6636 213.77 56.0061 213.912C56.3486 214.054 56.6599 214.262 56.922 214.524C57.1842 214.786 57.3922 215.097 57.534 215.44" stroke="#ADE6ED" stroke-width="1.08586"/>
<path d="M42.3301 215.44C42.472 215.098 42.6799 214.787 42.9421 214.525C43.2042 214.262 43.5155 214.054 43.858 213.913C44.2005 213.771 44.5677 213.698 44.9384 213.698C45.3092 213.698 45.6763 213.771 46.0188 213.913C46.3613 214.054 46.6726 214.262 46.9347 214.525C47.1969 214.787 47.4049 215.098 47.5467 215.44" stroke="#ADE6ED" stroke-width="1.08586"/>
<path d="M50.3654 213.051L48.922 216.546C48.6267 217.261 49.1522 218.046 49.9256 218.046H53.08" stroke="#ADE6ED" stroke-width="1.08586"/>
<path d="M45.5448 222.941C45.3613 222.941 45.1805 222.898 45.0173 222.816C44.854 222.734 44.7129 222.614 44.6057 222.468C44.4985 222.321 44.4282 222.151 44.4006 221.973C44.3731 221.794 44.389 221.611 44.4471 221.44C44.5052 221.269 44.6038 221.113 44.7349 220.987C44.8659 220.86 45.0256 220.766 45.2007 220.713C45.3758 220.659 45.5614 220.647 45.7422 220.678C45.9229 220.709 46.0936 220.781 46.2402 220.89" stroke="#ADE6ED" stroke-width="1.08586"/>
<path d="M45.5438 222.941C45.3604 222.941 45.1795 222.984 45.0163 223.066C44.853 223.149 44.712 223.268 44.6048 223.415C44.4975 223.561 44.4272 223.731 44.3997 223.91C44.3721 224.088 44.388 224.271 44.4461 224.442C44.5042 224.614 44.6029 224.769 44.7339 224.895C44.8649 225.022 45.0246 225.116 45.1997 225.17C45.3749 225.223 45.5604 225.235 45.7412 225.204C45.9219 225.174 46.0926 225.101 46.2393 224.992" stroke="#ADE6ED" stroke-width="1.08586"/>
<circle cx="50.6918" cy="215.983" r="11.8359" fill="white"/>
<path d="M50.6915 227.818C47.5524 227.818 44.5419 226.571 42.3223 224.352C40.1026 222.132 38.8556 219.121 38.8556 215.982C38.8556 212.843 40.1026 209.833 42.3223 207.613C44.5419 205.393 47.5524 204.146 50.6915 204.146L50.6915 215.982L50.6915 227.818Z" fill="#FF4B11"/>
<rect x="33.8872" y="230.446" width="33.583" height="42.0255" fill="#FFA7D1"/>
<rect x="50.6284" y="230.496" width="16.8475" height="42.0255" fill="#03C3A3"/>
<path d="M50.6379 188.688L57.8124 203.029H43.4634L50.6379 188.688Z" fill="black"/>
<circle cx="184.559" cy="235.726" r="11.8359" transform="rotate(-180 184.559 235.726)" fill="white"/>
<path d="M184.559 247.562C181.42 247.562 178.41 246.315 176.19 244.095C173.97 241.876 172.723 238.865 172.723 235.726C172.723 232.587 173.97 229.576 176.19 227.357C178.41 225.137 181.42 223.89 184.559 223.89L184.559 235.726L184.559 247.562Z" fill="#FF4B11"/>
<path d="M184.603 223.651L191.79 216.915H177.416L184.603 223.651Z" fill="#03C3A3"/>
<circle cx="184.546" cy="211.128" r="5.79806" fill="#FF4B11"/>
<rect x="157.432" y="250.451" width="54.229" height="33.1968" rx="16.5984" fill="#FFA7D1"/>
<mask id="mask0_1753_53574" style="mask-type:alpha" maskUnits="userSpaceOnUse" x="50" y="230" width="18" height="43">
<rect x="50.623" y="230.446" width="16.8475" height="42.0255" fill="#4B4BFF"/>
</mask>
<g mask="url(#mask0_1753_53574)">
<rect x="57.9053" y="293.683" width="1.21115" height="100.727" transform="rotate(180 57.9053 293.683)" fill="#FF4B11"/>
<rect x="53.8687" y="293.683" width="1.21115" height="100.727" transform="rotate(180 53.8687 293.683)" fill="#FF4B11"/>
<rect x="61.9429" y="293.683" width="1.21115" height="100.727" transform="rotate(180 61.9429 293.683)" fill="#FF4B11"/>
<rect x="65.98" y="293.683" width="1.21115" height="100.727" transform="rotate(180 65.98 293.683)" fill="#FF4B11"/>
<rect x="49.4277" y="270.469" width="1.21115" height="26.2415" transform="rotate(-90 49.4277 270.469)" fill="#FF4B11"/>
<rect x="49.4277" y="266.432" width="1.21115" height="26.2415" transform="rotate(-90 49.4277 266.432)" fill="#FF4B11"/>
<rect x="49.4282" y="262.395" width="1.21115" height="26.2415" transform="rotate(-90 49.4282 262.395)" fill="#FF4B11"/>
<rect x="49.4287" y="258.357" width="1.21115" height="26.2415" transform="rotate(-90 49.4287 258.357)" fill="#FF4B11"/>
<rect x="49.4282" y="254.32" width="1.21115" height="26.2415" transform="rotate(-90 49.4282 254.32)" fill="#FF4B11"/>
<rect x="49.4282" y="250.283" width="1.21115" height="26.2415" transform="rotate(-90 49.4282 250.283)" fill="#FF4B11"/>
<rect x="49.4282" y="246.246" width="1.21115" height="26.2415" transform="rotate(-90 49.4282 246.246)" fill="#FF4B11"/>
<rect x="49.4277" y="242.209" width="1.21115" height="26.2415" transform="rotate(-90 49.4277 242.209)" fill="#FF4B11"/>
<rect x="49.4282" y="238.172" width="1.21115" height="26.2415" transform="rotate(-90 49.4282 238.172)" fill="#FF4B11"/>
<rect x="49.4282" y="234.135" width="1.21115" height="26.2415" transform="rotate(-90 49.4282 234.135)" fill="#FF4B11"/>
</g>
<path d="M3.92023 238.41C3.88661 238.652 3.85719 238.867 3.82147 239.129C2.81074 239.092 1.93449 238.627 0.89644 238.621C2.13832 240.601 4.25854 243.357 1.7916 245.298C-0.744685 247.547 -3.94919 245.754 -6.43714 244.398C-6.6872 244.575 -6.56742 244.747 -6.48127 244.903C-5.67016 246.379 -4.52495 247.411 -2.81238 247.743C-1.48435 248.332 0.79978 247.341 0.732537 248.8C0.749348 254.534 3.397 259.716 6.94402 264.091C10.8251 268.616 17.0261 268.738 22.0146 266.047C27.6125 263.101 29.3545 256.228 31.1785 250.63C31.584 249.757 32.2501 246.467 33.2251 246.545C33.6433 246.637 33.3764 247.171 33.2714 247.428C31.1007 252.797 30.0816 258.665 26.4736 263.362C24.3009 266.538 20.4912 267.842 16.8811 268.628C14.4121 269.15 12.0187 268.393 9.80391 267.352C5.77779 265.416 3.69329 261.049 1.68443 257.284C0.274451 254.7 0.421543 251.719 -0.387462 248.992C-3.79159 248.792 -6.92465 247.423 -7.75677 243.862C-9.80345 240.668 -10.0535 240.13 -8.6057 236.424C-11.1441 234.824 -13.8569 231.777 -13.0143 228.594C-11.7661 225.626 -7.58026 227.129 -5.78784 228.882C-5.47474 228.746 -5.64705 228.544 -5.66806 228.388C-6.34679 225.722 -6.15767 221.56 -2.57073 221.469C1.24526 222.468 1.68864 227.776 2.83175 230.976C7.35798 232.446 8.98229 236.695 7.43153 241.055C7.95685 242.773 8.49479 244.406 8.68181 246.181C9.24286 250.268 11.4387 254.973 15.8179 255.888C17.3392 256.249 18.6799 255.644 19.6969 254.452C22.645 250.312 23.1599 244.926 25.444 240.414C26.337 238.135 30.4241 230.831 32.9667 231.056C33.1327 231.214 33.057 231.508 32.7524 231.721C30.6279 233.196 29.1801 235.24 27.8962 237.435C25.5385 241.474 24.2525 245.992 22.7102 250.375C21.7415 253.51 19.5603 257.469 15.7128 256.739C10.6507 255.659 8.41284 250.363 7.60383 245.729C7.52608 244.375 7.36638 243.078 6.74439 241.856C6.55738 241.411 6.50905 241.034 6.68556 240.551C7.27813 238.923 7.25922 237.26 6.81794 235.593C6.2674 232.776 1.14229 230.692 -1.38769 231.523C-3.0099 231.918 -4.15302 233.981 -2.87121 235.354C-1.13973 237.26 1.53104 237.78 3.92443 238.408L3.92023 238.41ZM-5.66386 236.066C-8.30521 235.633 -9.37478 239.977 -8.16022 241.652C-6.39302 244.57 2.00803 248.14 2.1194 242.502C1.0015 239.317 -2.33958 236.384 -5.66386 236.066ZM-4.03955 235.406C-4.38836 234.172 -3.97861 233.091 -4.52705 232.063C-5.0902 231.25 -5.63444 230.415 -6.27954 229.671C-7.69163 227.837 -12.4637 226.351 -12.3734 230.028C-11.9111 232.259 -10.4969 234.313 -8.50063 235.433C-8.18544 235.606 -7.87024 235.658 -7.52352 235.478C-6.42243 234.933 -5.20577 235.345 -4.03955 235.406ZM1.85884 230.592C0.915352 227.8 0.341694 223.143 -2.75984 222.321C-6.73763 223.002 -4.90949 229.383 -3.58146 231.739C-2.07061 230.232 -0.313917 229.938 1.85674 230.589L1.85884 230.592Z" fill="black"/>
<path d="M174.238 282.098C174.293 281.106 174.526 280.078 174.246 279.052C164.364 279.352 153.267 270.211 158.447 259.853C158.642 259.272 159.483 258.183 159.762 259.312C159.804 260.34 159.588 261.389 160.058 262.356C161.962 268.243 167.989 272.679 174.209 271.828C174.652 268.622 174.538 265.283 174.768 262.033C174.662 260.208 174.362 260.517 176.173 259.966C176.442 258.631 176.091 257.216 177.928 257.187C179.046 257.17 178.214 258.835 178.581 259.59C182.925 258.976 187.224 258.044 191.628 258.049C193.663 258.08 192.419 262.251 192.816 263.71C193.595 264.024 193.913 264.6 193.675 265.491C197.228 265.76 193.709 269.908 192.505 271.178C192.433 274.635 192.358 278.177 192.282 281.806C191.708 282.441 190.765 282.657 190.048 283.301C188.033 282.329 185.419 283.168 183.2 282.626C180.54 282.308 177.863 282.601 175.192 282.508C174.849 282.502 174.496 282.485 174.238 282.104V282.098ZM190.891 263.727C189.567 263.965 188.592 264.989 187.867 266.036C186.886 267.583 185.358 268.573 183.868 269.561C174.543 276.001 162.17 272.74 158.724 261.597C155.921 267.972 161.433 274.559 167.173 276.901C173.891 279.388 181.605 277.975 187.533 274.128C189.767 272.419 192.11 270.743 193.707 268.38C194.076 267.972 194.871 266.271 193.77 266.542C192.553 266.933 192.175 269.648 190.864 269.143C190.443 268.405 193.32 265.943 192.683 264.896C191.242 264.829 189.92 268.777 189.172 267.739C189.765 266.362 190.769 265.317 190.893 263.727H190.891ZM175.295 271.834C178.823 271.653 182.019 269.875 184.845 267.882C186.713 266.66 187.577 264.398 189.561 263.269C190.069 262.085 190.069 260.395 189.872 259.064C188.029 258.879 178.022 260.347 175.722 261.122C175.44 263.467 175.137 270.701 175.295 271.832V271.834ZM190.086 273.205C185.709 276.876 180.792 278.589 175.228 278.986C175.16 279.891 175.087 280.74 175.305 281.667C177.926 281.705 180.51 281.503 183.116 281.751C185.238 281.907 187.405 282.31 189.515 281.879C189.811 279.073 190.137 276.283 190.086 273.205ZM191.616 272.103C190.853 272.522 191.059 273.083 190.973 273.779C191.067 276.489 190.349 279.161 190.546 281.844C191.193 281.684 191.475 281.35 191.481 280.708C191.502 277.794 191.618 275.038 191.616 272.103ZM190.733 262.632C191.193 262.689 191.462 262.819 191.866 263.084C191.778 261.675 192.057 260.311 191.738 259.033H190.962C190.641 260.201 190.836 261.391 190.733 262.63V262.632ZM177.258 259.859C177.898 259.546 177.638 258.808 177.354 258.261C177.163 258.816 177.075 259.3 177.258 259.859ZM191.963 263.763C191.843 263.822 191.918 263.916 191.942 264.013C192.066 263.956 191.986 263.86 191.963 263.763Z" fill="black"/>
<path d="M66.5201 213.659C69.7288 214.302 71.3573 218.858 68.6004 220.927C66.5075 222.798 63.6602 222.384 61.0798 222.315C58.7011 225.971 54.799 229.351 50.1635 228.63C49.823 228.557 49.2914 228.567 49.2746 228.102C49.283 227.245 53.0864 228.565 55.297 226.83C65.3412 221.463 62.9773 204.823 50.5438 205.342C49.1779 205.527 48.9321 204.476 50.4303 204.505C52.8384 204.495 55.1352 205.016 57.289 206.073C59.9892 207.543 61.4013 210.547 62.1956 213.407C63.2862 213.693 64.278 213.333 65.4337 213.417C61.4832 195.278 39.2009 194.977 35.1937 213.299C36.133 213.583 37.0639 213.02 37.9779 213.459C37.9443 213.682 37.9107 213.896 37.8834 214.073C37.377 214.349 36.8327 214.159 36.2401 214.227C35.6476 216.665 35.7737 219.588 36.4986 221.844C37.2677 222.392 38.5579 221.009 38.955 222.075C38.5201 223.385 32.8192 222.695 31.6887 222.02C27.9021 219.857 30.2031 214.105 34.1725 213.621C38.6441 193.724 61.8846 194.016 66.5201 213.657V213.659ZM35.1454 214.527C29.3878 214.21 28.8225 222.809 35.4395 221.812C35.076 219.304 35.0025 217.059 35.1454 214.527ZM65.0345 214.435C64.9252 214.599 64.8853 214.628 64.8853 214.662C64.9693 216.937 64.4671 219.338 64.9126 221.547C70.4201 221.251 70.626 214.441 65.0345 214.435ZM63.8598 221.295C63.759 218.967 64.0405 216.808 63.8661 214.536C63.2806 214.407 62.7987 214.413 62.4204 214.555C62.4078 216.911 62.1178 219.125 61.5631 221.438C62.3406 221.509 63.0844 221.669 63.8598 221.293V221.295Z" fill="black"/>
<path d="M167.112 224.173C152.861 221.408 173.33 209.902 184.083 222.901C188.22 220.306 193.391 217.912 198.164 220.262C201.04 221.286 204.302 227.091 198.891 226.422C199.737 229.057 198.844 231.84 195.722 231.981C198.025 239.096 193.381 245.968 186.272 247.654C185.436 247.818 184.539 248.113 183.696 248.1C183.332 247.955 183.11 247.444 183.608 247.316C193.503 246.33 199.307 236.388 192.498 228.199C189.96 225.131 185.173 224.072 181.414 225.003C177.968 226.595 174.835 228.863 171.447 230.604C164.883 234.392 160.651 228.853 167.115 224.171L167.112 224.173ZM183.414 223.685C180.202 218.793 173.471 216.989 167.911 217.935C160.241 219.985 162.855 223.769 169.43 223.256C170.693 222.92 171.971 224.225 170.061 224.248C165.967 223.864 161.433 231.872 168.295 230.902C171.092 230.223 173.429 228.409 175.938 227.074C178.386 225.726 180.504 223.832 183.414 223.683V223.685ZM184.694 223.767C188.416 224.303 192.278 225.516 194.119 229.065C194.705 229.908 195.312 231.455 196.585 230.997C197.466 230.696 198.113 230.104 198.298 229.168C198.809 225.039 195.749 226.071 195.119 224.332C195.89 223.161 198.449 226.233 200.551 225.485C201.893 224.885 199.63 222.005 198.76 221.574C194.364 218.683 188.367 220.689 184.696 223.765L184.694 223.767Z" fill="black"/>
<path d="M222.512 208.671C221.281 209.75 222.17 212.277 221.108 212.416C220.325 212.405 221.23 209.744 220.365 208.745C219.186 209.609 220.196 212.174 219.158 212.424C218.164 212.245 219.2 209.893 218.406 208.993C216.62 210.896 218.406 213.944 217.255 215.994C216.076 216.606 216.662 213.168 215.784 212.744C215.637 221.168 215.834 229.658 213.05 237.754C211.19 242.831 208.847 251.573 203.77 254.081C203.067 254.329 202.676 253.467 203.455 253.257C209.755 249.956 213.726 233.444 214.521 226.565C215.002 222.385 214.779 218.174 214.79 213.978C214.735 212.718 214.924 211.152 216.603 211.999C217.044 210.692 216.765 209.046 217.971 208.121C218.48 207.631 218.892 207.927 219.261 208.47C220.289 207.431 220.32 206.781 221.344 208.457C225.086 204.557 223.325 218.561 223.329 220.142C221.779 233.93 217.599 247.77 210.188 259.56C210.024 260.086 208.814 260.731 208.996 259.751C209.671 258.427 210.764 257.363 211.394 256.003C218.772 241.902 223.97 224.677 222.512 208.671Z" fill="black"/>
<path d="M74.3984 252.493C74.949 252.011 78.9247 245.235 79.0444 247.527C72.9632 255.983 66.6467 264.651 63.3602 274.66C62.3978 276.836 63.0114 278.237 64.9908 279.515C68.5337 278.138 72.3055 276.946 75.3818 274.646C79.3617 271.391 83.3542 267.432 84.5583 262.279C87.3593 252.259 82.7469 240.87 73.9761 235.373C72.2929 234.593 67.5208 230.844 66.0688 231.372C65.8545 231.492 65.5687 231.145 65.6149 230.869C66.0184 228.931 70.3093 232.463 71.3957 232.799C82.2721 238.129 88.845 251.052 85.2706 262.887C83.3815 269.158 78.0505 274.515 72.3181 277.486C69.8932 278.506 67.4557 279.496 65.0224 280.497C63.8015 280.225 62.9883 278.665 62.07 277.768C61.5258 276.834 62.3369 275.669 62.4777 274.69C64.7576 267.241 68.9791 260.627 73.3015 254.223C74.0937 253.165 72.9044 252.085 72.337 251.231C70.0256 248.687 67.9642 245.935 65.7263 243.332C65.4132 242.704 66.487 242.565 66.6677 243.124C69.2313 246.244 71.8727 249.419 74.4026 252.493H74.3984Z" fill="black"/>
<path d="M173.162 235.206C172.21 236.127 171.313 236.993 170.399 237.876C170.115 237.76 169.876 237.664 169.667 237.578C170.342 235.33 172.754 233.659 174.41 231.989C175.753 230.673 177.432 230.223 179.241 230.534C181.263 230.778 184.148 234.802 182.929 236.659C179.495 240.607 175.555 239.533 173.164 235.206H173.162ZM179.811 231.88C179.836 234.069 179.668 235.954 179.228 238.042C180.783 237.849 181.668 236.327 182.076 234.937C182.057 233.873 180.905 232.124 179.811 231.882V231.88ZM176.812 237.884C176.6 235.923 176.883 234.407 176.436 232.559C175.423 232.879 174.694 233.776 173.96 234.54C174.509 236.005 175.396 237.083 176.814 237.887L176.812 237.884Z" fill="black"/>
<path d="M189.853 240.685C187.596 240.628 186.072 237.849 186.049 235.847C186.728 233.699 187.438 229.267 190.544 230.087C194.56 231.544 194.616 240.328 189.853 240.685ZM191.33 231.695C191.511 234.256 191.397 236.745 191.029 239.289C193.28 238.103 192.952 233.247 191.33 231.695ZM188.071 232.902C187.34 233.463 186.934 235.915 187.056 236.827C187.442 237.721 187.943 239.36 189.01 239.501C188.272 236.409 188.23 236.291 188.071 232.904V232.902Z" fill="black"/>
<path d="M46.9614 237.853C49.7562 228.001 48.5164 229.608 52.7064 237.626C53.0069 237.605 52.9438 237.366 52.9649 237.206C53.0489 236.596 54.2656 228.001 55.1523 230.892C52.4584 239.624 55.1754 245.294 49.3569 232.799C48.3609 234.841 48.4155 237.237 47.3481 239.266C46.4865 240.198 46.1734 238.19 45.854 237.66C45.0576 235.547 43.925 233.594 42.9458 231.571C43.3724 229.034 46.4088 237.172 46.9614 237.851V237.853Z" fill="black"/>
<path d="M55.6899 246.817C55.1141 245.188 55.9735 243.403 55.1982 241.847C54.3807 240.542 60.0438 240.748 60.6931 240.973C61.0398 248.882 62.5654 246.067 55.6899 246.815V246.817ZM60.09 245.831C59.9387 244.66 60.2602 243.531 59.8232 242.608C58.596 243.075 58.1526 245.718 56.896 243.891C56.7636 243.76 56.6481 243.588 56.3959 243.754C56.3875 244.402 56.2782 245.074 56.4779 245.774C57.7407 245.882 58.7137 245.814 60.09 245.831ZM59.1507 241.874C58.1274 241.635 57.3751 241.668 56.5703 241.959C56.9254 242.688 57.0956 242.886 57.7933 243.367C58.2156 242.903 58.6422 242.434 59.1507 241.874Z" fill="black"/>
<path d="M37.205 241.6C39.0037 241.219 40.6595 241.45 42.4225 241.757C43.4333 241.917 42.6726 244.179 42.8701 244.989C42.8638 246.444 42.8701 246.376 41.5022 246.381C40.1279 246.37 38.7179 246.587 37.3479 246.574C36.8204 245.029 37.3205 243.372 37.205 241.6ZM42.0065 245.46C42.0065 244.886 42.0107 244.434 42.0065 243.984C41.8951 242.851 40.7877 244.486 40.544 244.877C40.2414 245.323 39.861 245.35 39.5101 244.953C39.01 244.57 38.7095 243.439 38.056 243.462C38.0455 244.158 37.9173 244.867 38.0686 245.636C39.3798 245.693 40.6133 245.519 42.0086 245.462L42.0065 245.46ZM41.3488 242.563C40.1174 242.176 39.5248 242.146 38.6927 242.449C39.1025 243.002 39.4219 243.603 39.9136 244.028C40.4095 243.504 41.0378 243.204 41.3488 242.563Z" fill="black"/>
<path d="M180.725 241.538C180.819 241.797 180.905 242.036 180.985 242.257C182.221 242.585 186.108 242.551 187.43 242.194C187.226 239.892 189.64 242.638 187.491 243.132C185.45 243.466 183.381 243.243 181.328 243.235C180.063 243.115 178.085 241.187 180.725 241.538Z" fill="black"/>
<path d="M42.4455 214.956C41.5188 215.031 40.5038 215.21 39.5435 215.212C39.1191 215.223 39.1149 214.649 39.4385 214.502C39.7243 214.403 40.0289 214.348 40.3294 214.314C41.4494 214.327 47.3835 213.305 47.3856 214.621C46.8582 215.275 45.2024 214.573 44.3177 214.943C43.992 216.303 42.9162 216.211 42.4455 214.956Z" fill="black"/>
<path d="M56.8167 214.613C55.5496 216.612 55.5664 214.331 54.1102 214.749C53.4336 214.712 52.1371 215.359 51.8198 214.531C51.784 214.11 52.2631 214.056 52.5762 214.045C54.8919 213.976 57.2138 213.614 59.5274 213.717C61.0866 214.775 57.3504 214.545 56.8167 214.615V214.613Z" fill="black"/>
<path d="M51.7504 220.403C51.8009 219.978 51.5676 219.478 52.0846 219.358C52.715 219.425 52.6099 220.546 53.4693 220.537C54.3582 220.783 53.7089 221.549 53.0764 221.324C51.2882 220.916 49.9748 222.387 47.6571 221.164C47.2095 221.029 46.7872 220.508 47.3881 220.287C48.8632 220.693 50.2396 221.17 51.7504 220.403Z" fill="black"/>
<path d="M49.9368 256.133C49.9578 257.08 48.9176 257.414 48.9155 256.352C49.0017 255.784 49.6741 255.549 49.9368 256.133Z" fill="black"/>
<path d="M49.9241 218.933C49.2139 218.485 49.756 217.693 50.4305 217.874C51.1114 218.296 50.3969 218.729 49.9241 218.933Z" fill="black"/>
<path d="M49.0402 248.851C49.8429 248.788 49.4436 250.043 48.8574 249.963C48.3615 249.864 48.435 248.803 49.0402 248.851Z" fill="black"/>
<path d="M50.0085 264.699C49.647 265.542 48.8107 264.636 49.1217 264.102C49.5357 263.713 50.1114 264.131 50.0085 264.699Z" fill="black"/>
<path d="M184.827 239.242C185.289 239.478 185.108 240.167 184.593 240.148C184.028 240.05 184.289 239.207 184.827 239.242Z" fill="black"/>
<path d="M175.298 271.836C175.14 270.702 175.443 263.468 175.724 261.126C178.023 260.348 188.03 258.883 189.875 259.068C190.074 260.394 190.07 262.089 189.564 263.273C187.582 264.402 186.716 266.662 184.848 267.885C182.022 269.88 178.826 271.657 175.298 271.838V271.836ZM178.88 267.662C187.569 265.81 185.632 268.226 185.884 261.652C185.953 261.233 185.388 261.233 185.096 261.273C182.89 261.639 180.461 261.387 178.393 262.266C178.321 263.947 178.324 265.339 178.221 267.053C178.414 267.231 178.637 267.435 178.883 267.662H178.88Z" fill="white"/>
<path d="M190.087 273.207C190.137 276.287 189.811 279.077 189.515 281.882C187.407 282.31 185.239 281.909 183.117 281.753C180.509 281.505 177.926 281.707 175.306 281.669C175.087 280.742 175.159 279.893 175.228 278.989C180.795 278.591 185.71 276.878 190.087 273.207Z" fill="white"/>
<path d="M191.618 272.105C191.62 275.04 191.504 277.798 191.483 280.71C191.477 281.349 191.193 281.684 190.548 281.845C190.351 279.163 191.069 276.491 190.975 273.781C191.061 273.085 190.855 272.525 191.618 272.105Z" fill="white"/>
<path d="M190.735 262.634C190.838 261.393 190.643 260.206 190.964 259.037H191.74C192.059 260.315 191.78 261.679 191.868 263.088C191.465 262.823 191.196 262.693 190.735 262.636V262.634Z" fill="white"/>
<path d="M177.259 259.859C177.076 259.297 177.167 258.816 177.356 258.261C177.64 258.807 177.9 259.545 177.259 259.859Z" fill="white"/>
<path d="M191.963 263.765C191.984 263.862 192.064 263.961 191.942 264.016C191.918 263.919 191.845 263.824 191.963 263.765Z" fill="white"/>
<path d="M179.809 231.88C180.899 232.118 182.057 233.875 182.074 234.935C181.666 236.327 180.779 237.847 179.227 238.04C179.666 235.952 179.836 234.069 179.809 231.878V231.88Z" fill="white"/>
<path d="M176.813 237.887C175.394 237.086 174.507 236.005 173.959 234.54C174.692 233.776 175.422 232.879 176.434 232.559C176.882 234.409 176.598 235.923 176.81 237.884L176.813 237.887Z" fill="white"/>
<path d="M191.33 231.695C192.95 233.246 193.282 238.101 191.03 239.289C191.398 236.745 191.511 234.256 191.33 231.695Z" fill="white"/>
<path d="M188.071 232.9C188.233 236.289 188.273 236.405 189.01 239.497C187.943 239.358 187.441 237.717 187.056 236.825C186.934 235.904 187.336 233.476 188.071 232.9Z" fill="white"/>
<circle cx="117.539" cy="217.915" r="11.8359" fill="#FFA7D1"/>
<path d="M119.166 216.69C119.307 216.347 119.515 216.036 119.778 215.774C120.04 215.512 120.351 215.304 120.693 215.162C121.036 215.02 121.403 214.947 121.774 214.947C122.145 214.947 122.512 215.02 122.854 215.162C123.197 215.304 123.508 215.512 123.77 215.774C124.032 216.036 124.24 216.347 124.382 216.69" stroke="#ADE6ED" stroke-width="1.08586"/>
<path d="M109.178 216.69C109.32 216.348 109.528 216.037 109.79 215.775C110.052 215.512 110.364 215.304 110.706 215.163C111.049 215.021 111.416 214.948 111.787 214.948C112.157 214.948 112.524 215.021 112.867 215.163C113.209 215.304 113.521 215.512 113.783 215.775C114.045 216.037 114.253 216.348 114.395 216.69" stroke="#ADE6ED" stroke-width="1.08586"/>
<path d="M117.214 214.301L115.77 217.796C115.475 218.511 116 219.296 116.774 219.296H119.928" stroke="#ADE6ED" stroke-width="1.08586"/>
<path d="M112.392 221.577C112.209 221.577 112.028 221.534 111.865 221.451C111.702 221.369 111.561 221.25 111.453 221.103C111.346 220.956 111.276 220.787 111.248 220.608C111.221 220.429 111.237 220.247 111.295 220.075C111.353 219.904 111.451 219.749 111.583 219.622C111.714 219.496 111.873 219.402 112.048 219.348C112.223 219.294 112.409 219.282 112.59 219.313C112.771 219.344 112.941 219.417 113.088 219.525" stroke="#ADE6ED" stroke-width="1.08586"/>
<path d="M112.392 221.577C112.209 221.577 112.028 221.62 111.865 221.702C111.702 221.784 111.561 221.904 111.453 222.05C111.346 222.197 111.276 222.367 111.248 222.545C111.221 222.724 111.237 222.907 111.295 223.078C111.353 223.249 111.451 223.405 111.583 223.531C111.714 223.658 111.873 223.752 112.048 223.805C112.223 223.859 112.409 223.871 112.59 223.84C112.771 223.809 112.941 223.737 113.088 223.628" stroke="#ADE6ED" stroke-width="1.08586"/>
<circle cx="117.586" cy="217.975" r="11.8673" fill="white"/>
<path d="M117.772 206.325C120.911 206.325 123.921 207.572 126.141 209.792C128.361 212.012 129.608 215.022 129.608 218.161C129.608 221.3 128.361 224.311 126.141 226.53C123.921 228.75 120.911 229.997 117.772 229.997L117.772 218.161L117.772 206.325Z" fill="black"/>
<path d="M117.527 232.176L128.193 237.313L130.827 248.855L123.446 258.11H111.608L104.226 248.855L106.861 237.313L117.527 232.176Z" fill="#ADE6ED"/>
<circle cx="117.641" cy="199.207" r="5.79806" fill="#FF4B11"/>
<circle cx="117.64" cy="190.226" r="5.79806" fill="#FF4B11"/>
<path d="M84.7846 293.227C84.7846 284.544 88.2341 276.215 94.3745 270.075C100.515 263.935 108.843 260.485 117.527 260.485C126.21 260.485 134.538 263.935 140.679 270.075C146.819 276.215 150.269 284.544 150.269 293.227L117.527 293.227L84.7846 293.227Z" fill="#FFA7D1"/>
<mask id="mask1_1753_53574" style="mask-type:alpha" maskUnits="userSpaceOnUse" x="84" y="260" width="67" height="34">
<path d="M84.7846 293.227C84.7846 284.543 88.2341 276.215 94.3745 270.075C100.515 263.934 108.843 260.485 117.527 260.485C126.21 260.485 134.538 263.934 140.679 270.075C146.819 276.215 150.269 284.543 150.269 293.227L117.527 293.227L84.7846 293.227Z" fill="#F5B539"/>
</mask>
<g mask="url(#mask1_1753_53574)">
<path d="M82.1387 263.533L86.6485 267.091L82.1387 270.65L77.6289 267.091L82.1387 263.533Z" fill="#FF4B11"/>
<path d="M103.641 264.964L108.15 268.522L103.641 272.081L99.1308 268.522L103.641 264.964Z" fill="#FF4B11"/>
<path d="M117.603 264.964L122.113 268.523L117.603 272.082L113.093 268.523L117.603 264.964Z" fill="#FF4B11"/>
<path d="M131.572 264.902L136.082 268.461L131.572 272.02L127.062 268.461L131.572 264.902Z" fill="#FF4B11"/>
<path d="M153.905 260.338L158.415 263.897L153.905 267.455L149.395 263.897L153.905 260.338Z" fill="#FF4B11"/>
<path d="M96.1011 270.252L100.611 273.811L96.1011 277.37L91.5913 273.811L96.1011 270.252Z" fill="#FF4B11"/>
<path d="M109.898 270.638L114.408 274.197L109.898 277.755L105.388 274.197L109.898 270.638Z" fill="#FF4B11"/>
<path d="M125.117 270.638L129.627 274.197L125.117 277.755L120.607 274.197L125.117 270.638Z" fill="#FF4B11"/>
<path d="M138.825 270.914L143.334 274.473L138.825 278.031L134.315 274.473L138.825 270.914Z" fill="#FF4B11"/>
<path d="M89.1943 258.134L93.7041 261.692L89.1943 265.251L84.6846 261.692L89.1943 258.134Z" fill="#FF4B11"/>
<path d="M110.621 259.896L115.131 263.455L110.621 267.014L106.111 263.455L110.621 259.896Z" fill="#FF4B11"/>
<path d="M124.558 259.897L129.068 263.456L124.558 267.014L120.048 263.456L124.558 259.897Z" fill="#FF4B11"/>
<path d="M139.662 256.151L144.172 259.709L139.662 263.268L135.152 259.709L139.662 256.151Z" fill="#FF4B11"/>
</g>
<path d="M117.576 230.011C116.963 230.324 116.332 230.398 115.71 230.19C110.989 228.634 106.498 225.098 105.851 219.871C105.412 220.601 103.161 227.189 102.468 224.069C102.539 220.571 104.918 217.836 106.355 214.878C103.357 214.546 100.259 214.863 97.2228 214.756C96.7017 214.703 95.9179 214.937 95.7078 214.295C95.5397 213.511 96.7122 213.194 97.185 212.744C104.063 208.459 110.833 204.004 117.772 199.827C122.26 202.818 126.727 205.808 131.212 208.804C133.433 210.29 135.652 211.781 137.868 213.272C138.875 213.717 138.6 214.899 137.45 214.701C134.586 214.779 131.724 214.855 128.86 214.932C128.192 214.951 128.104 214.911 127.894 214.237C127.688 213.389 126.95 212.889 126.509 212.174C125.143 210.448 123.676 208.32 121.413 207.795C120.087 207.305 118.86 206.46 117.376 206.901C110.98 207.28 106.303 213.229 106.769 219.526C106.996 225.356 112.798 228.331 117.58 230.009L117.576 230.011ZM103.716 222.301C104.369 221.336 104.769 220.252 105.025 219.106C104.332 220.056 103.876 221.105 103.716 222.301Z" fill="black"/>
<path d="M82.2234 189.794C81.7107 190.749 81.3619 191.52 81.509 192.456C81.7233 193.192 80.618 193.471 80.4709 192.845C80.4646 191.102 80.6558 189.346 80.1915 187.635C80.0885 187.177 79.6094 186.792 79.414 187.366C78.4726 188.837 79.746 192.14 78.7689 192.838C77.7918 192.294 78.5209 188.465 77.6005 187.259C76.4911 187.235 77.174 193.213 76.2599 192.958C75.6568 192.822 75.9153 191.941 75.8754 191.482C75.8859 190.511 75.9447 188.285 75.2113 187.715C74.3372 208.884 85.8629 228.562 102.833 240.655C103.407 241.343 106.342 242.314 106.006 243.122C105.821 243.426 105.456 243.347 105.199 243.18C86.2306 231.352 73.3937 209.84 74.2973 187.212C75.4299 186.283 75.4845 186.294 76.1948 187.547C76.8504 186.346 77.3463 185.675 78.5503 186.914C80.4604 184.643 81.0446 187.523 81.3997 189.102C84.2596 186.552 83.3749 195.75 83.3371 197.066C83.5283 212.464 93.6315 227.932 106.779 235.626C107.387 236.16 109.183 236.257 109.051 237.197C108.708 237.733 107.761 237.096 107.294 236.886C93.6294 229.485 84.3941 214.764 82.3495 199.501C82.2802 196.272 83.3203 192.956 82.2234 189.788V189.794Z" fill="black"/>
<path d="M130.363 263.628C131.142 265.169 132.126 266.534 133.306 267.833C133.651 267.093 132.607 266.883 132.935 266.206C133.275 265.762 133.771 266.384 134.078 266.588C135.355 267.648 136.814 268.373 138.329 268.943C138.972 268.462 135.908 265.52 135.326 265.155C134.502 264.587 135.786 263.895 135.971 263.294C139.249 256.224 143.809 249.626 145.666 241.984C147.024 236.003 142.458 232.389 136.742 233.873C132.651 234.653 128.713 236.068 124.971 237.849C123.424 237.216 126.868 236.118 127.366 235.824C134.824 232.731 147.766 229.142 146.595 241.635C144.862 249.752 139.867 256.594 136.543 264.089C137.438 264.801 142.584 268.024 140.394 269.038C140.062 269.094 139.835 269.151 139.697 269.496C138.154 270.488 136.339 268.815 134.897 268.245C134.601 268.359 134.752 268.569 134.74 268.735C134.689 269.959 133.517 269.25 133.017 268.729C131.964 267.457 128.703 264.402 129.934 262.735C133.37 257.914 136.259 252.736 139.297 247.66C140.396 245.577 141.827 243.441 141.926 241.023C141.426 237.241 136.297 238.046 133.765 239.173C131.789 239.9 129.982 240.99 128.078 241.858C127.503 241.898 127.593 241.126 128.072 240.996C131.911 239.045 136.736 235.916 141.041 238.164C142.424 239.007 143.025 240.264 142.725 241.86C140.024 249.765 134.83 256.6 130.363 263.63V263.628ZM139.657 267.913C138.9 266.862 138.625 266.618 137.65 266.183C138.348 266.855 138.57 267.684 139.657 267.913Z" fill="black"/>
<path d="M127.174 215.458C126.294 219.232 120.639 219.421 118.395 216.904C116.279 213.194 125.504 211.337 127.174 215.458ZM125.172 214.611C124.85 217.819 121.345 218.647 120.507 215.334C120.465 215.061 120.623 214.718 120.225 214.47C116.884 216.278 120.877 217.916 122.959 217.651C124.554 217.8 127.777 215.758 125.172 214.608V214.611ZM121.619 214.091C120.583 215.296 122.255 217.27 123.489 216.364C125.222 214.333 123.735 213.4 121.619 214.091Z" fill="black"/>
<path d="M121.35 219.713C121.116 224.645 116.361 226.771 113.045 222.974C112.436 222.198 111.61 220.14 113.177 220.014C115.962 220.026 118.534 219.667 121.35 219.713ZM120.345 220.67C117.952 220.417 115.577 220.846 113.182 220.962C113.287 223.01 115.439 224.118 117.267 224.05C119.067 224.027 119.961 222.236 120.345 220.67Z" fill="black"/>
<path d="M128.974 217.009C130.327 218.822 131.773 220.838 132.208 223.089C131.991 225.087 129.926 223.178 129.489 222.263C128.751 221.092 128.289 219.799 127.934 218.468C127.589 217.495 128.005 217.177 128.974 217.009ZM128.919 218.557C129.341 220.003 129.865 222.196 131.264 222.892C131.096 221.706 130.106 219.824 128.919 218.557Z" fill="black"/>
<path d="M112.089 211.608C114.527 211.64 115.102 215.143 113.762 214.049C113.543 213.271 112.944 212.397 112.047 212.479C111.215 212.51 110.774 213.25 110.507 213.967C109.009 214.651 110.179 211.602 112.091 211.608H112.089Z" fill="black"/>
<path d="M111.852 216.278C111.179 216.152 109.87 216.64 109.597 215.83C109.614 215.614 109.847 215.433 110.062 215.441C111.348 215.607 112.787 215.376 113.993 215.805C114.483 216.844 112.373 216.295 111.854 216.324C111.854 216.309 111.854 216.295 111.854 216.278H111.852Z" fill="black"/>
<path d="M103.715 222.301C103.875 221.105 104.331 220.054 105.024 219.105C104.77 220.251 104.369 221.338 103.715 222.301Z" fill="white"/>
<path d="M125.174 214.613C127.777 215.763 124.556 217.804 122.961 217.655C120.881 217.92 116.884 216.282 120.227 214.474C120.624 214.722 120.467 215.065 120.509 215.338C121.349 218.652 124.852 217.819 125.172 214.615L125.174 214.613Z" fill="white"/>
<path d="M121.621 214.093C123.741 213.401 125.222 214.337 123.491 216.366C122.258 217.272 120.585 215.298 121.621 214.093Z" fill="white"/>
<path d="M120.346 220.667C119.964 222.234 119.068 224.025 117.268 224.048C115.439 224.115 113.288 223.007 113.183 220.96C115.578 220.846 117.953 220.417 120.346 220.667Z" fill="white"/>
<path d="M128.919 218.555C130.109 219.822 131.096 221.704 131.264 222.89C129.865 222.194 129.342 220.003 128.919 218.555Z" fill="white"/>
<path d="M178.88 267.663C178.634 267.436 178.414 267.232 178.218 267.053C178.319 265.34 178.317 263.948 178.391 262.266C180.458 261.387 182.887 261.64 185.094 261.274C185.386 261.232 185.953 261.234 185.884 261.652C185.63 268.218 187.582 265.811 178.88 267.663Z" fill="black"/>
</g>
<rect x="0.352445" y="0.454496" width="224.889" height="274.1" rx="3.60943" stroke="#EEEEEE" stroke-width="0.481257"/>
<defs>
<clipPath id="clip0_1753_53574">
<rect x="0.111816" y="0.213867" width="225.37" height="274.581" rx="3.85006" fill="white"/>
</clipPath>
</defs>
</svg>
