<svg width="1258" height="303" viewBox="0 0 1258 303" fill="none" xmlns="http://www.w3.org/2000/svg">
<path d="M133.747 110.964C134.141 110.871 134.316 110.906 134.53 110.521C134.81 110.018 134.871 109.315 135.057 108.762C135.352 107.888 135.744 107.03 136.128 106.191C139.308 99.2491 142.954 96.2203 149.934 93.3559C162.412 88.2349 191.357 86.66 204.946 87.8339C210.93 88.3509 216.892 89.3027 222.453 91.6501C231.168 95.3294 236.895 102.451 240.375 111.057C241.022 112.663 241.591 114.296 242.081 115.956C242.57 117.617 242.979 119.297 243.306 120.997C245.008 130.119 244.532 141.368 243.896 150.629C246.218 150.749 256.023 150.361 257.277 150.849C257.635 151.279 257.636 151.938 257.65 152.476C257.706 154.558 257.587 156.671 257.546 158.755C257.477 162.033 257.442 165.312 257.443 168.591L257.026 215.319C243.282 215.448 229.539 215.654 215.798 215.937L190.041 216.204C161.548 216.837 133.051 217.157 104.551 217.164L75.5926 217.369C70.4016 217.407 65.1566 217.574 59.9712 217.354L71.5385 201.397C73.3231 198.903 75.236 196.496 76.8335 193.874C76.1432 193.856 75.402 193.885 74.7199 193.795C76.2141 193.71 77.7494 193.785 79.2484 193.785L88.1716 193.786L120.872 193.789L131.561 193.802C133.495 193.804 135.474 193.883 137.405 193.775C137.938 193.746 138.747 193.717 139.195 193.424C140.876 192.323 144.689 188.363 146.326 186.783L162.724 170.793C164.414 169.162 166.011 167.42 167.77 165.864C169.356 163.926 170.524 161.506 171.678 159.292C172.306 158.388 172.824 157.326 173.355 156.361L176.471 150.621C175.957 150.473 175.317 150.544 174.772 150.493C174.713 147.145 174.638 143.808 174.5 140.461C174.443 139.091 174.525 137.488 174.205 136.159L173.91 136.002C173.202 135.98 172.375 136.4 171.711 136.645C170.234 136.502 168.622 136.691 167.133 136.732C163.666 136.83 160.198 136.968 156.73 137.023C157.548 133.948 157.9 130.743 158.01 127.57C158.155 123.401 158.6 115.794 155.546 112.643C154.82 111.894 153.935 111.453 152.926 111.216C150.721 110.698 147.706 110.925 145.417 110.927L133.747 110.964Z" fill="#ACE5EC"/>
<path d="M87.9847 132.746C89.4334 132.711 99.1762 132.46 99.8933 132.86C100.337 133.108 100.678 133.679 100.784 134.159C100.72 134.443 100.705 134.56 100.495 134.776C100.02 135.263 99.1463 135.442 98.4964 135.505C97.3456 135.618 96.1274 135.541 94.9685 135.539C92.7657 135.528 90.5629 135.534 88.3602 135.556C80.6774 135.722 72.9937 135.814 65.309 135.833L58.2799 135.897C57.0288 135.91 55.6422 136.025 54.4013 135.873C53.9374 135.815 53.4097 135.683 53.0542 135.361C52.7961 135.127 52.6801 134.821 52.6764 134.479C52.6722 134.096 52.8138 133.776 53.0899 133.508C53.2921 133.312 53.62 133.161 53.8942 133.123C54.9025 132.981 56.0733 133.073 57.101 133.064L63.486 132.981L87.9847 132.746Z" fill="black"/>
<path d="M104.402 139.586C106.071 139.549 110.97 139.11 112.127 140.065C112.361 140.258 112.495 140.496 112.504 140.803C112.514 141.184 112.253 141.713 111.982 141.97C111.618 142.315 110.955 142.389 110.48 142.424C108.873 142.546 107.19 142.439 105.573 142.448L94.6738 142.5L61.1298 142.861C59.7389 142.883 54.7791 143.276 53.7472 142.518C53.4276 142.283 53.2502 141.944 53.2239 141.55C53.1989 141.176 53.3213 140.855 53.5862 140.587C54.0186 140.15 54.7743 140.046 55.355 140.008C57.0056 139.897 58.7244 140.031 60.383 140.024L70.2112 139.917L104.402 139.586Z" fill="black"/>
<path d="M133.746 110.964L145.417 110.927C147.706 110.925 150.721 110.697 152.926 111.216C153.935 111.453 154.82 111.893 155.546 112.643C158.6 115.793 158.155 123.4 158.01 127.569C157.899 130.742 157.548 133.947 156.73 137.023C156.494 137.62 156.231 138.263 155.847 138.782C155.505 139.244 155.053 139.477 154.542 139.714C152.924 140.467 151.147 141.013 149.472 141.636C145.664 143.061 141.835 144.427 137.986 145.735C135.386 146.626 132.606 147.956 129.879 148.305C128.41 148.493 126.837 148.35 125.353 148.377L114.694 148.567L76.7527 149.216C71.0907 149.325 65.4282 149.401 59.7653 149.446C57.2698 149.488 54.6607 149.783 52.1774 149.648C51.7063 149.623 51.0916 149.514 50.7292 149.182C50.4398 148.916 50.3051 148.628 50.2971 148.239C50.2879 147.789 50.4549 147.262 50.8462 147C51.5697 146.516 56.9988 146.65 58.289 146.625L104.342 145.794C110.182 145.716 116.028 145.704 121.867 145.571C124.298 145.515 126.827 145.601 129.242 145.359C130.015 145.281 130.323 145.167 130.865 144.602C132.679 142.708 133.182 139.444 133.145 136.932C133.107 134.272 132.568 131.204 130.571 129.282L130.452 129.17C122.386 128.63 114.206 128.731 106.121 128.683L74.4735 128.302L57.9194 128.245C55.8428 128.226 53.7472 128.278 51.6734 128.194C51.1904 128.174 50.6832 128.186 50.3053 127.836C50.0244 127.576 49.8474 127.175 49.8281 126.794C49.809 126.419 49.9316 126.084 50.2084 125.825C51.1093 124.983 59.7877 121.48 61.6884 120.652L74.3987 115.088C76.5652 114.124 80.0296 112.309 82.1949 111.82C83.6545 111.49 85.3718 111.63 86.8708 111.603L95.3039 111.455L133.746 110.964Z" fill="black"/>
<path d="M129.59 113.87C133.355 113.826 150.633 113.432 152.996 114.343C153.679 114.607 154.016 115.243 154.295 115.889C156.006 119.849 155.281 132.822 153.595 136.906C151.938 137.758 150.109 138.338 148.366 138.988C143.895 140.654 139.347 142.096 134.87 143.743C135.58 141.699 135.964 139.875 136.02 137.698C136.107 134.391 135.388 129.987 132.965 127.522C132.319 126.865 131.648 126.466 130.745 126.293C128.527 125.868 125.138 126.056 122.805 126.001C116.125 125.848 109.444 125.749 102.763 125.703C92.9277 125.562 83.0921 125.492 73.256 125.494C68.1362 125.478 62.9652 125.221 57.8521 125.472C59.7621 124.708 61.5828 123.737 63.4691 122.918C67.5954 121.124 71.7797 119.448 75.907 117.65C78.1154 116.688 80.4503 115.3 82.7798 114.721C84.1728 114.375 85.7753 114.52 87.2059 114.503C89.2891 114.481 91.372 114.447 93.4548 114.401C105.498 114.125 117.543 113.948 129.59 113.87Z" fill="#FDFDFD"/>
<path d="M171.711 136.645C172.376 136.399 173.202 135.979 173.91 136.002L174.205 136.158C174.525 137.488 174.443 139.09 174.5 140.461C174.638 143.808 174.713 147.144 174.772 150.493C175.317 150.544 175.957 150.472 176.471 150.621L173.355 156.36C172.824 157.326 172.307 158.388 171.678 159.292C170.525 161.505 169.357 163.926 167.771 165.863C166.011 167.42 164.414 169.162 162.725 170.793L146.327 186.783C144.689 188.362 140.876 192.323 139.195 193.424C138.747 193.717 137.938 193.745 137.405 193.775C135.474 193.883 133.496 193.803 131.561 193.801L120.872 193.789L88.1718 193.786L79.2486 193.784C77.7496 193.785 76.2144 193.709 74.7201 193.794C72.6079 193.699 70.4617 193.782 68.3445 193.782L56.4692 193.797C54.6036 193.809 51.0703 194.078 49.4024 193.688C49.0888 193.615 48.8707 193.425 48.7261 193.14C48.3028 192.307 48.3801 172.607 48.5325 169.758C48.5626 169.197 48.6434 168.651 48.8214 168.116C49.6672 167.332 57.9523 167.825 59.7827 167.653L59.9105 167.64C58.7437 165.564 57.9373 163.572 57.7019 161.183C57.3013 157.12 58.5463 153.626 61.1057 150.484C62.3025 150.509 63.4994 150.52 64.6963 150.515C70.5884 150.163 76.5703 150.321 82.4751 150.334C96.1286 150.364 109.786 150.764 123.436 150.71C126.747 150.704 130.056 150.723 133.366 150.764C135.093 150.78 137.081 150.985 138.775 150.681C140.256 150.416 141.999 149.415 143.398 148.807L152.788 144.735L165.954 139.186C167.86 138.365 169.892 137.636 171.711 136.645Z" fill="black"/>
<path d="M174.773 150.493C175.317 150.544 175.958 150.472 176.471 150.621L173.355 156.36C172.824 157.326 172.307 158.388 171.678 159.292C171.225 159.136 170.842 158.982 170.37 159.168C169.163 159.64 159.767 169.466 158.13 171.092C153.786 175.463 149.387 179.777 144.933 184.034C143.047 185.837 141.245 187.741 139.257 189.437C140.585 183.813 140.127 177.269 138.649 171.707C138.369 170.655 138.091 169.399 137.49 168.48C137.283 168.164 137.182 168.03 136.8 167.957C134.869 167.587 132.538 167.822 130.57 167.82L117.941 167.823L90.0241 167.826C85.2237 167.824 80.4004 167.722 75.6021 167.826C75.3389 167.763 75.2344 167.758 75.0322 167.568C75.629 166.975 94.3799 166.897 96.9038 166.851L125.194 166.311C127.816 166.29 130.438 166.285 133.061 166.296C134.98 166.299 137.106 166.502 138.978 166.063C141.081 165.571 144.743 163.786 146.903 162.886C152.042 160.745 157.17 158.471 162.228 156.143C166.389 154.228 170.534 152.233 174.773 150.493Z" fill="#FDFDFD"/>
<path d="M51.4028 170.644L135.335 170.747C137.411 176.696 137.685 184.145 135.935 190.191L135.767 190.683C135.426 190.919 134.89 190.885 134.476 190.897C131.594 190.976 128.686 190.903 125.802 190.904L108.543 190.907L51.4169 190.929C51.5113 184.167 51.5066 177.405 51.4028 170.644Z" fill="#FDFDFD"/>
<path d="M171.711 136.645C172.375 136.399 173.202 135.979 173.91 136.002L174.205 136.158C174.525 137.488 174.443 139.09 174.5 140.461C174.638 143.808 174.713 147.144 174.772 150.493C170.534 152.233 166.389 154.228 162.228 156.143C157.17 158.471 152.041 160.745 146.902 162.886C144.743 163.786 141.081 165.571 138.978 166.063C137.106 166.502 134.979 166.299 133.06 166.296C130.438 166.285 127.815 166.29 125.193 166.311L96.9035 166.851C94.3796 166.896 75.6287 166.974 75.0319 167.568C75.2341 167.758 75.3386 167.763 75.6018 167.825L63.4099 167.827C62.7523 166.637 61.9959 165.504 61.463 164.249C59.8525 160.453 60.3617 156.354 62.7679 153.023C63.2917 152.298 64.3494 151.485 64.6459 150.667C64.664 150.617 64.6794 150.566 64.6961 150.515C70.5881 150.163 76.57 150.321 82.4748 150.334C96.1284 150.364 109.786 150.764 123.436 150.71C126.746 150.704 130.056 150.723 133.366 150.764C135.093 150.78 137.081 150.985 138.774 150.681C140.255 150.416 141.999 149.415 143.398 148.807L152.788 144.735L165.954 139.186C167.86 138.365 169.892 137.636 171.711 136.645Z" fill="#FDA6D0"/>
<path d="M228.445 154.078C229.788 154.048 234.157 153.536 235.022 154.382C235.291 154.645 235.375 155.034 235.365 155.4C235.335 156.513 231.375 164.589 230.662 166.16C229.566 168.575 228.609 171.051 227.559 173.487L222.238 185.65C221.077 188.34 220.074 191.186 218.713 193.781C218.577 194.04 218.4 194.263 218.172 194.446C217.832 194.719 217.337 194.874 216.903 194.793C216.695 194.755 216.477 194.678 216.284 194.591C216.263 194.544 216.239 194.498 216.219 194.451C215.854 193.57 216.127 192.905 216.436 192.063C216.776 190.849 217.393 189.601 217.886 188.439C219.026 185.75 220.233 183.087 221.408 180.412L231.692 156.971C230.162 156.99 228.632 157.024 227.103 157.072C227.474 156.051 227.918 155.029 228.445 154.078Z" fill="black"/>
<path d="M239.679 157.76C241.418 157.747 243.157 157.789 244.894 157.886C243.937 160.196 243.22 162.64 242.419 165.011L239.107 174.699C236.019 183.991 232.863 193.259 229.639 202.504L225.078 202.539C223.373 202.639 221.668 202.72 219.961 202.783C220.528 201.117 221.346 199.484 222.056 197.875L226.161 188.665C230.763 178.423 235.527 168.193 239.679 157.76Z" fill="#ACE5EC"/>
<path d="M176.471 150.621C177.26 149.475 177.856 147.469 179.16 146.849C179.558 146.66 180.114 146.66 180.552 146.638C182.714 146.528 184.896 146.544 187.062 146.497L199.484 146.236L218.268 145.765C219.925 145.732 229.198 145.319 229.992 145.795C230.415 146.048 230.839 146.553 230.993 147.022C231.372 148.174 230.55 149.444 230.051 150.441C229.528 151.657 229.025 152.888 228.446 154.079C227.918 155.03 227.475 156.052 227.103 157.073C228.633 157.024 230.163 156.99 231.693 156.971L221.409 180.412C220.234 183.087 219.027 185.75 217.886 188.44C217.394 189.601 216.777 190.849 216.437 192.064C216.128 192.905 215.855 193.57 216.22 194.451C216.24 194.499 216.263 194.544 216.285 194.591C210.63 194.601 204.966 194.809 199.312 194.904L172.685 195.199C170.281 195.222 161.263 195.676 159.664 195.073C158.046 194.463 156.682 193.101 156.044 191.502C155.985 191.349 155.931 191.193 155.883 191.036C155.836 190.879 155.794 190.72 155.759 190.559C155.724 190.398 155.695 190.236 155.672 190.074C155.649 189.911 155.633 189.747 155.623 189.583C155.613 189.419 155.609 189.255 155.612 189.09C155.615 188.926 155.624 188.762 155.64 188.598C155.656 188.434 155.678 188.271 155.706 188.109C155.734 187.947 155.769 187.787 155.81 187.627C156.269 185.844 157.436 184.097 158.334 182.493C160.473 178.67 162.725 174.903 164.899 171.099C165.845 169.443 167.013 167.721 167.731 165.964C167.745 165.931 167.757 165.897 167.771 165.864C169.357 163.926 170.525 161.506 171.678 159.292C172.307 158.388 172.824 157.326 173.355 156.361L176.471 150.621Z" fill="#FD4B11"/>
<path d="M227.103 157.072C228.633 157.024 230.163 156.99 231.693 156.971L221.409 180.412C220.234 183.087 219.027 185.75 217.887 188.439C217.394 189.601 216.777 190.849 216.437 192.063C215.012 191.946 213.532 192.016 212.102 192.018L202.892 192.1L170.486 192.549C168.606 192.568 162.006 192.973 160.644 192.377C159.794 192.005 159.193 191.251 158.876 190.393C158.831 190.274 158.792 190.154 158.759 190.031C158.727 189.908 158.701 189.784 158.681 189.659C158.661 189.533 158.648 189.407 158.641 189.281C158.635 189.154 158.635 189.027 158.641 188.9C158.648 188.774 158.661 188.648 158.68 188.522C158.7 188.397 158.726 188.273 158.758 188.15C158.791 188.028 158.829 187.907 158.874 187.788C158.919 187.67 158.97 187.554 159.027 187.44C159.436 186.612 160.135 185.912 161.029 185.633C162.76 185.093 167.079 185.335 169.085 185.272C180.987 184.961 192.891 184.727 204.796 184.572C206.562 184.558 212.608 184.814 213.852 184.354C214.6 184.077 215.044 183.548 215.442 182.886C217.142 180.061 218.284 176.591 219.634 173.563C222.089 168.05 224.692 162.601 227.103 157.072Z" fill="#FDFDFD"/>
<path d="M9.92598 84.0025C10.357 83.7101 10.7345 83.5177 11.2647 83.5633C12.2363 84.0193 17.9046 91.7155 19.1277 93.2218C19.9028 92.0554 19.5995 84.9788 20.3956 82.8854C20.5762 82.4094 20.7528 82.1027 21.222 81.8875C21.5127 81.8888 21.7054 81.9311 21.9576 82.086C22.2737 82.2796 22.4432 82.5735 22.5288 82.9292C22.6686 83.5118 21.8942 92.6551 21.7333 93.7251C21.6906 94.0147 21.6368 94.206 21.491 94.4593C21.5468 94.4472 21.6008 94.4316 21.6562 94.4196C22.7769 94.1687 27.5773 88.9711 29.0632 87.9107C29.5064 87.5947 30.3068 87.1148 30.8571 87.2378C31.0956 87.2915 31.2462 87.4249 31.3466 87.6474C31.4794 87.9424 31.4981 88.4926 31.3659 88.7892C31.1993 89.1659 23.9629 95.8389 23.3971 96.0343C24.9126 96.8265 33.4606 96.9906 35.7884 97.3516C36.5216 97.4647 37.5554 97.7871 37.9567 98.4525C38.1241 98.7297 38.1194 98.8838 38.048 99.1855C37.7852 99.5063 37.4765 99.7068 37.0754 99.8249C36.0835 100.119 23.5923 98.7885 22.6488 98.3204C25.0155 101.461 27.7521 104.418 30.2498 107.465C31.0363 108.424 32.0693 109.457 32.6686 110.527C32.8232 110.803 32.8677 110.93 32.7888 111.234C32.7881 111.266 32.7868 111.295 32.7846 111.326C32.7588 111.701 32.6477 111.977 32.3471 112.217C32.1375 112.385 31.8956 112.451 31.6304 112.415C31.3449 112.375 31.1214 112.23 30.9144 112.036C29.7141 110.91 28.6589 109.358 27.5987 108.081C25.4847 105.533 23.2213 103.011 21.3081 100.312C21.4077 101.214 20.4396 110.627 20.0937 111.41C19.9559 111.725 19.6668 111.948 19.3381 112.04C19.0391 112.126 18.6513 112.098 18.3922 111.911C18.0803 111.686 17.9941 111.393 17.9415 111.03C17.8287 110.249 18.0216 109.314 18.11 108.533C18.3321 106.591 19.1096 101.826 18.9419 100.178C18.9381 100.138 18.9319 100.097 18.9272 100.057C18.5204 100.962 12.3455 106.862 11.5413 107.269C11.143 107.47 10.8798 107.51 10.4583 107.371C10.2555 107.178 10.14 107.049 10.0575 106.776C9.95696 106.443 9.94686 106.188 10.0923 105.866C10.636 104.651 14.4543 101.284 15.6247 100.199C16.2368 99.6296 17.1383 98.9489 17.5348 98.2169C17.5482 98.1914 17.5606 98.1664 17.5735 98.1412C17.3177 98.2533 5.56666 96.5284 4.73805 96.3057C4.27875 96.1814 3.57189 95.964 3.34755 95.5126C3.23146 95.2791 3.23243 95.0738 3.34899 94.8373C3.51351 94.5109 3.89692 94.1738 4.25281 94.0773C6.08713 93.577 16.6981 96.2183 17.8399 95.7927C17.8955 95.7717 17.9498 95.7471 18.0048 95.7243C16.1487 93.2724 14.2132 90.8753 12.314 88.4572C11.4962 87.4158 10.3658 86.2589 9.79284 85.0761C9.63482 84.75 9.82316 84.3325 9.92598 84.0025Z" fill="black"/>
<path d="M75.5961 33.4409C69.0322 34.6702 62.4538 35.8168 55.8609 36.8806C52.6597 37.4244 49.4797 38.095 46.276 38.6174L52.3735 70.6252C53.209 75.0714 54.2816 79.5244 54.9505 83.9948L55.7589 87.1127C63.2402 86.2327 70.7221 85.077 78.1915 84.0748L102.425 81.0598C101.393 76.8755 100.64 72.5492 99.8318 68.3147L95.2166 43.1763C94.544 39.5569 94.0516 35.811 93.1756 32.2451C93.0473 31.7229 92.8727 31.4044 92.4935 31.0276C91.2142 30.4575 78.1165 33.2263 75.5961 33.4409Z" fill="#FFA7D1"/>
<path d="M70.6331 40.7787C70.2389 40.9398 69.699 41.1367 69.4593 41.5089C69.2144 41.8896 69.234 42.2959 69.2783 42.7296C69.4222 44.1448 69.9142 45.6044 70.2237 46.9988C70.952 50.2817 71.6951 53.581 72.2655 56.8954C69.8131 55.0001 67.5144 52.8854 65.0968 50.9412C64.1696 50.1956 62.8415 49.1104 61.5727 49.2792C61.214 49.3269 60.8973 49.5086 60.6981 49.8186C60.4513 50.2025 60.3505 50.6743 60.463 51.1212C60.715 52.1212 70.432 59.622 71.8963 60.595C69.9592 60.9993 60.8034 62.6603 59.9626 63.755C59.6863 64.1146 59.5959 64.5309 59.6684 64.9761C59.7395 65.414 59.9909 65.7771 60.3617 66.0177C60.6701 66.2177 60.9826 66.281 61.348 66.2572C62.864 66.1582 64.5139 65.5633 66.0161 65.2352C67.8656 64.8313 69.7449 64.5714 71.5989 64.1757C70.3886 66.0514 65.2418 73.342 65.1105 74.9521C65.0623 75.5421 65.4101 76.1004 65.7809 76.5224C66.1783 76.6987 66.3964 76.8063 66.83 76.6693C68.9402 76.0028 72.9964 68.1249 74.2684 65.9328C74.8665 68.295 75.7183 74.3937 76.9364 76.0865C77.2894 76.5774 77.5636 76.6875 78.1211 76.784C78.3631 76.6851 78.5919 76.6005 78.7846 76.4172C79.4125 75.8198 79.6566 75.3685 79.7198 74.5305C79.1787 71.1152 78.2436 67.7525 77.3437 64.4174C79.9067 66.1792 82.444 68.0927 84.897 70.0065C85.8581 70.7565 86.7759 71.6961 87.8063 72.3403C88.3017 72.6499 88.8483 72.8967 89.4313 72.9792C90.1068 73.0751 90.5953 72.9447 91.1353 72.5399C91.2742 72.2396 91.3752 72.119 91.3282 71.7914C91.0357 69.7451 82.7807 64.3094 80.7755 62.8177C82.7999 62.6604 89.7152 62.9648 91.0305 61.9747C91.5043 61.6179 91.6741 61.1576 91.6972 60.5754C91.7122 60.1985 91.6006 59.8455 91.3296 59.5811C90.9224 59.1835 90.4148 59.0794 89.8642 59.019C88.8501 58.9078 87.7602 59.0819 86.735 59.0968C84.031 59.1358 81.3283 59.132 78.6252 59.227C79.5475 57.0226 85.3744 48.4935 85.17 47.0001C85.1077 46.5436 84.88 46.1357 84.4971 45.8735C84.1209 45.6158 83.6687 45.5379 83.2284 45.6626C81.6682 46.1042 76.6688 55.3286 75.6415 57.0514C74.9228 54.0028 73.4592 43.4028 72.12 41.4406C71.7741 40.9335 71.1958 40.8889 70.6331 40.7787Z" fill="black"/>
<path d="M1203.71 116.567L1204.36 116.652C1204.63 116.807 1204.75 116.959 1204.86 117.25C1205.68 119.378 1205.8 125.776 1206.21 128.478C1206.37 129.544 1206.65 130.583 1207.09 131.566C1209.44 136.769 1217.1 137.375 1221.91 139.267C1222.56 139.522 1223.04 139.662 1223.33 140.332C1223.21 140.673 1223.15 140.814 1222.81 140.967C1221.92 141.368 1220.78 141.534 1219.83 141.769C1216.42 142.614 1211.36 143.394 1208.45 145.251C1203.96 148.117 1202.87 153.84 1201.15 158.54C1200.82 159.419 1200.5 160.744 1199.94 161.474C1199.75 161.731 1199.68 161.727 1199.38 161.76L1199.11 161.828C1198.76 161.706 1198.69 161.57 1198.55 161.227C1198.15 160.285 1198.02 159.09 1197.82 158.082C1197.26 155.276 1196.87 152.374 1196.14 149.612C1195.81 148.34 1195.35 147.106 1194.65 145.985C1193.99 144.909 1193.1 143.922 1192.04 143.224C1189.61 141.628 1180.66 139.76 1179.5 138.107C1179.84 137.12 1183.12 136.665 1184.14 136.454C1196.5 133.899 1196.22 134.566 1201.06 122.492C1201.83 120.552 1202.54 118.307 1203.71 116.567Z" fill="#FEA7D0"/>
<path d="M1206.82 227.775C1212.82 224.487 1218.75 221 1224.68 217.589C1227.18 216.153 1229.66 214.534 1232.24 213.255C1232.56 213.093 1232.83 212.935 1233.21 213.006C1233.56 213.202 1233.79 213.467 1234 213.805C1234.77 215.025 1235.43 216.349 1236.13 217.611L1240.66 225.764C1243.99 231.646 1247.35 237.51 1250.74 243.355C1251.71 245.044 1253.27 248.291 1254.4 249.661C1255.12 251.026 1255.91 252.355 1256.68 253.692C1256.6 253.792 1256.53 253.903 1256.44 253.992C1255.82 254.586 1254.68 255.083 1253.93 255.546C1252.28 256.55 1250.66 257.593 1249.02 258.618L1225.37 273.44C1224.18 274.191 1218.11 278.32 1217.12 278.297C1215.37 275.445 1213.77 272.482 1212.11 269.582C1209.12 264.47 1206.15 259.344 1203.22 254.203L1196.4 242.4C1195.26 240.447 1194.03 238.505 1192.97 236.513C1192.88 236.346 1192.87 236.22 1192.86 236.036C1193.8 234.965 1204.7 228.999 1206.82 227.775Z" fill="#02C2A2"/>
<path d="M1212.42 230.85C1212.85 230.559 1213.23 230.368 1213.75 230.413C1214.72 230.867 1220.36 238.53 1221.58 240.03C1222.35 238.869 1222.05 231.822 1222.84 229.738C1223.02 229.264 1223.2 228.959 1223.67 228.744C1223.96 228.746 1224.15 228.788 1224.4 228.942C1224.71 229.135 1224.88 229.427 1224.97 229.782C1225.11 230.362 1224.34 239.466 1224.18 240.531C1224.13 240.819 1224.08 241.01 1223.94 241.262C1223.99 241.25 1224.04 241.235 1224.1 241.223C1225.22 240.973 1230 235.798 1231.48 234.742C1231.92 234.427 1232.71 233.949 1233.26 234.072C1233.5 234.125 1233.65 234.258 1233.75 234.48C1233.88 234.773 1233.9 235.321 1233.77 235.616C1233.6 235.992 1226.4 242.636 1225.83 242.83C1227.34 243.619 1235.85 243.783 1238.17 244.142C1238.9 244.255 1239.93 244.576 1240.33 245.238C1240.5 245.514 1240.49 245.668 1240.42 245.968C1240.16 246.288 1239.85 246.487 1239.45 246.605C1238.47 246.898 1226.03 245.573 1225.09 245.107C1227.44 248.234 1230.17 251.178 1232.66 254.212C1233.44 255.167 1234.47 256.196 1235.07 257.261C1235.22 257.535 1235.26 257.663 1235.18 257.965C1235.18 257.996 1235.18 258.026 1235.18 258.056C1235.15 258.43 1235.04 258.704 1234.74 258.944C1234.54 259.111 1234.3 259.177 1234.03 259.141C1233.75 259.101 1233.52 258.957 1233.32 258.763C1232.12 257.643 1231.07 256.097 1230.02 254.825C1227.91 252.288 1225.66 249.777 1223.75 247.09C1223.85 247.988 1222.89 257.361 1222.54 258.14C1222.41 258.454 1222.12 258.676 1221.79 258.767C1221.49 258.853 1221.11 258.825 1220.85 258.639C1220.54 258.415 1220.45 258.124 1220.4 257.762C1220.29 256.984 1220.48 256.053 1220.57 255.276C1220.79 253.342 1221.56 248.597 1221.4 246.956C1221.39 246.916 1221.39 246.876 1221.38 246.836C1220.98 247.737 1214.83 253.612 1214.03 254.016C1213.63 254.217 1213.37 254.257 1212.95 254.118C1212.75 253.927 1212.63 253.798 1212.55 253.526C1212.45 253.194 1212.44 252.941 1212.59 252.62C1213.13 251.41 1216.93 248.058 1218.09 246.977C1218.7 246.41 1219.6 245.733 1220 245.004C1220.01 244.978 1220.02 244.953 1220.03 244.928C1219.78 245.04 1208.08 243.322 1207.25 243.101C1206.8 242.977 1206.09 242.76 1205.87 242.311C1205.75 242.079 1205.76 241.874 1205.87 241.639C1206.04 241.314 1206.42 240.978 1206.77 240.882C1208.6 240.384 1219.16 243.014 1220.3 242.59C1220.36 242.569 1220.41 242.544 1220.46 242.522C1218.62 240.08 1216.69 237.694 1214.8 235.286C1213.98 234.249 1212.86 233.097 1212.29 231.919C1212.13 231.595 1212.32 231.179 1212.42 230.85Z" fill="black"/>
<path d="M1199.98 215.224C1200.14 215.252 1200.17 215.253 1200.34 215.306C1200.72 215.423 1201.11 215.724 1201.27 216.088C1201.42 216.407 1201.4 216.771 1201.26 217.087C1201.08 217.487 1200.74 217.797 1200.37 218.004C1199.61 218.412 1198.77 218.727 1197.99 219.084L1192.68 221.526L1177.02 228.784C1169.07 232.52 1161.08 236.177 1153.06 239.755C1149.04 241.584 1145.05 243.538 1140.96 245.218C1140.77 245.184 1140.58 245.151 1140.41 245.055C1140.08 244.866 1139.72 244.434 1139.65 244.048C1139.57 243.675 1139.64 243.35 1139.86 243.041C1140.43 242.219 1148.83 238.673 1150.49 237.913L1188.45 220.472C1190.75 219.428 1193.04 218.358 1195.31 217.26C1196.76 216.57 1198.42 215.564 1199.98 215.224Z" fill="black"/>
<path d="M1071.66 249.841C1072.74 250.068 1076 250.534 1076.81 251.006C1074.13 251.659 1071.5 252.71 1068.88 253.572C1063.54 255.291 1058.27 257.181 1053.06 259.244C1050.72 260.184 1048.32 261.118 1046.09 262.313C1044.5 263.169 1042.83 264.263 1041.76 265.756C1038.14 270.796 1038.57 281.733 1040.05 287.635C1040.32 288.691 1040.61 289.823 1041.03 290.827C1041.5 291.948 1042.15 293.064 1042.49 294.229C1042.59 294.587 1042.65 294.968 1042.51 295.325C1042.38 295.629 1042.14 295.857 1041.85 295.992C1041.51 296.149 1041 296.173 1040.67 295.982C1039.55 295.339 1038.27 291.708 1037.88 290.479C1035.73 283.646 1035.19 271.886 1038.59 265.521C1039.73 263.384 1041.55 261.794 1043.56 260.503C1046.86 258.396 1050.83 256.994 1054.48 255.633C1060.14 253.521 1065.87 251.59 1071.66 249.841Z" fill="black"/>
<path d="M1196.18 250.608C1196.43 250.617 1196.69 250.644 1196.92 250.753C1197.26 250.916 1197.54 251.193 1197.67 251.554C1197.79 251.923 1197.74 252.442 1197.53 252.777C1197.37 253.042 1197.04 253.179 1196.77 253.308C1194.01 254.604 1191 255.532 1188.17 256.669L1165.41 265.812C1158.1 268.816 1150.74 271.752 1143.46 274.858L1131.89 279.719C1129.38 280.766 1126.87 281.889 1124.31 282.787C1124.08 282.811 1123.87 282.801 1123.65 282.73C1123.25 282.601 1122.99 282.43 1122.8 282.041C1122.64 281.71 1122.71 281.281 1122.86 280.961C1123.03 280.589 1123.37 280.278 1123.73 280.099C1126.04 278.969 1128.58 278.087 1130.96 277.108L1145.39 271.101C1154.77 267.133 1164.2 263.267 1173.66 259.505L1188.16 253.738C1190.82 252.689 1193.47 251.531 1196.18 250.608Z" fill="black"/>
<path d="M1135.49 256.813C1131.74 253.058 1129.55 248.631 1129.55 243.25C1129.55 238.698 1131.02 234.434 1134.31 231.197C1136.09 229.451 1138.29 228.109 1140.53 227.054C1143.29 225.757 1146.23 224.743 1149.06 223.607L1164.33 217.442L1198.15 203.577C1198.95 203.258 1200.09 202.643 1200.95 202.638C1201.3 202.635 1201.74 202.759 1201.98 203.032C1202.23 203.312 1202.35 203.628 1202.32 204.002C1202.29 204.378 1202.09 204.688 1201.8 204.91C1200.99 205.518 1199.32 206.036 1198.34 206.45C1194.94 207.929 1191.52 209.342 1188.06 210.688C1185.51 211.686 1183.02 212.825 1180.48 213.859L1160.1 222.122L1148.24 226.824C1144.58 228.304 1140.6 229.663 1137.47 232.136C1137.31 232.263 1137.15 232.393 1136.99 232.526C1136.84 232.66 1136.68 232.798 1136.53 232.939C1136.38 233.08 1136.23 233.224 1136.09 233.371C1135.95 233.519 1135.81 233.67 1135.67 233.824C1135.53 233.978 1135.4 234.135 1135.27 234.295C1135.14 234.455 1135.01 234.618 1134.89 234.784C1134.77 234.95 1134.65 235.119 1134.53 235.29C1134.42 235.461 1134.31 235.635 1134.2 235.811C1134.09 235.988 1133.99 236.167 1133.89 236.348C1133.79 236.529 1133.7 236.712 1133.61 236.897C1133.52 237.083 1133.43 237.27 1133.35 237.459C1133.27 237.649 1133.19 237.84 1133.12 238.033C1133.05 238.226 1132.98 238.42 1132.91 238.616C1132.85 238.812 1132.79 239.01 1132.73 239.208C1132.68 239.407 1132.63 239.607 1132.58 239.808C1132.54 240.009 1132.5 240.211 1132.46 240.414C1131.7 244.406 1132.66 248.799 1134.96 252.151C1136.26 254.051 1138.18 255.705 1140.5 256.11C1141.14 256.22 1141.88 256.331 1142.51 256.15C1144.75 255.501 1146.99 254.239 1149.13 253.284C1153.61 251.314 1158.06 249.29 1162.5 247.213C1175.8 241.093 1189.01 234.769 1202.13 228.242C1203.21 227.702 1206.69 225.387 1207.69 226.504C1207.94 226.79 1208.06 227.388 1207.99 227.758C1207.9 228.298 1207.41 228.62 1206.97 228.877C1205.94 229.478 1204.81 229.974 1203.75 230.526C1200.37 232.285 1196.95 233.981 1193.51 235.612L1168.92 247.255C1163.18 249.961 1157.43 252.614 1151.64 255.214C1148.97 256.406 1146.25 257.872 1143.43 258.654C1141.78 259.109 1140.16 258.841 1138.55 258.418C1131.11 261.873 1118.92 265.811 1115.85 274.198C1113.85 279.679 1114.29 287.826 1116.77 293.114C1118.04 295.832 1120.32 298.663 1123.22 299.738C1124.97 300.388 1126.21 299.672 1127.77 298.92L1183.63 271.545C1188.37 269.267 1193.12 267.02 1197.88 264.804C1199.91 263.843 1202.67 262.287 1204.71 261.64C1204.95 261.562 1205.25 261.578 1205.49 261.655C1205.54 261.668 1205.58 261.685 1205.62 261.703C1205.66 261.721 1205.7 261.742 1205.74 261.765C1205.78 261.787 1205.82 261.812 1205.86 261.839C1205.9 261.865 1205.93 261.894 1205.97 261.924C1206 261.955 1206.03 261.987 1206.06 262.021C1206.09 262.055 1206.12 262.09 1206.15 262.127C1206.18 262.164 1206.2 262.202 1206.23 262.241C1206.25 262.281 1206.27 262.321 1206.29 262.363C1206.44 262.681 1206.46 263.125 1206.34 263.457C1206.06 264.268 1202.92 265.52 1202.1 265.908C1186.31 273.275 1170.6 280.819 1154.98 288.54C1147.8 292.18 1140.6 295.744 1133.35 299.233C1131.07 300.31 1128.8 301.702 1126.43 302.547C1124.73 303.154 1123.11 302.714 1121.54 301.952C1117.42 299.947 1114.8 296.129 1113.37 291.866C1111.38 285.904 1111.13 277.389 1113.97 271.692C1116.16 267.311 1120.34 264.39 1124.5 262.041C1125.49 261.48 1126.56 261.002 1127.53 260.41C1128.51 260.159 1131.77 258.405 1132.96 257.853C1133.8 257.512 1134.66 257.197 1135.49 256.813Z" fill="black"/>
<path d="M1026.92 286.023C1025.01 285.139 1023.19 284.128 1021.71 282.604C1019.19 280.014 1017.76 276.655 1017.84 273.026C1017.9 269.811 1019.73 265.112 1020.73 261.985L1025.49 247.142C1031.31 228.361 1037.23 209.614 1043.27 190.902C1045.14 185.021 1046.87 179.083 1048.66 173.178C1049.54 170.294 1050.3 167.345 1051.39 164.53C1052.18 162.456 1053.39 160.71 1055 159.176C1056.71 157.548 1058.64 156.496 1060.98 156.119C1063.53 155.707 1068.07 155.874 1070.88 155.828L1092.72 155.543C1105.75 155.233 1118.77 155.003 1131.8 154.853C1136.06 154.833 1140.4 154.564 1144.65 154.734C1146.32 154.801 1146.52 156.346 1147.51 157.341C1147.93 157.764 1148.17 157.853 1148.77 157.863C1148.82 157.864 1148.87 157.864 1148.92 157.864C1146.45 158.177 1143.8 158.068 1141.31 158.11L1129.09 158.367L1083.89 159.656L1071.51 160.014C1069 160.078 1066.4 160.025 1063.91 160.304C1062.73 162.964 1061.92 165.911 1060.96 168.663C1059.01 174.202 1057.1 179.754 1055.23 185.319L1041.14 226.891L1033.54 249.826C1032.55 252.742 1031.49 255.638 1030.55 258.568C1030.09 260.005 1029.53 261.564 1029.33 263.06C1028.59 264.263 1027.79 265.52 1027.27 266.837C1025.61 271.035 1025.34 276.582 1025.94 281.02C1026.16 282.685 1026.79 284.372 1026.92 286.023Z" fill="#ACE5EC"/>
<path d="M1140.59 197.122C1141.22 196.782 1141.86 196.416 1142.56 196.247C1144.74 195.725 1149.29 196.413 1151.78 196.455C1152.57 196.309 1153.43 196.033 1154.14 196.534C1154.25 196.611 1154.36 196.697 1154.46 196.782C1156.2 196.95 1157.96 196.974 1159.7 197.07C1162.18 197.21 1164.66 197.39 1167.14 197.611C1173.05 198.136 1178.97 198.606 1184.89 199.02C1188.46 199.297 1192.05 199.653 1195.62 199.806L1155.68 216.439C1150.39 218.622 1145.08 220.76 1139.83 223.058C1136.51 224.512 1132.99 225.95 1129.97 227.976C1127.21 229.826 1125.21 232.106 1123.94 235.185C1123.83 235.438 1123.73 235.694 1123.64 235.952C1123.55 236.21 1123.46 236.47 1123.39 236.732C1123.31 236.995 1123.23 237.259 1123.17 237.525C1123.1 237.79 1123.04 238.058 1122.99 238.327C1122.94 238.596 1122.89 238.866 1122.85 239.137C1122.81 239.408 1122.78 239.68 1122.75 239.953C1122.73 240.226 1122.71 240.499 1122.7 240.773C1122.68 241.046 1122.68 241.32 1122.68 241.594C1122.68 241.868 1122.69 242.142 1122.71 242.415C1122.72 242.689 1122.74 242.962 1122.77 243.234C1122.8 243.507 1122.84 243.779 1122.88 244.049C1122.92 244.32 1122.97 244.589 1123.03 244.858C1123.08 245.126 1123.15 245.393 1123.22 245.658C1123.28 245.923 1123.36 246.186 1123.44 246.447C1123.52 246.708 1123.61 246.968 1123.71 247.225C1123.8 247.481 1123.91 247.736 1124.01 247.987C1125.7 251.975 1128.85 255.202 1132.44 257.545C1131.25 257.591 1129.89 257.338 1128.69 257.236C1124.02 256.844 1119.37 256.181 1114.72 255.607L1076.81 251.006C1076 250.534 1072.75 250.068 1071.66 249.841C1070.82 249.393 1070.22 248.792 1069.58 248.116C1068.69 246.93 1068.05 245.661 1067.58 244.255C1065.69 238.561 1065.64 229.125 1068.41 223.73C1069.18 222.232 1070.28 221.177 1071.78 220.41C1074.55 218.991 1077.71 218.098 1080.66 217.107C1084.76 215.686 1088.88 214.298 1093.01 212.943L1137.29 198.225C1138.34 197.914 1139.64 197.665 1140.59 197.122Z" fill="#FD4B11"/>
<path d="M1151.78 196.455C1152.57 196.309 1153.43 196.032 1154.14 196.533C1154.25 196.611 1154.36 196.696 1154.46 196.782C1154.48 197.038 1154.49 197.295 1154.48 197.551C1154.47 197.997 1154.3 198.421 1153.96 198.721C1153.23 199.369 1150.56 199.893 1149.49 200.246L1110.1 213.385C1103.95 215.394 1097.82 217.449 1091.71 219.549C1087.64 220.936 1083.43 222.248 1079.47 223.941C1078.51 224.355 1077.54 224.878 1076.78 225.623C1073.85 228.503 1074 234.615 1074.63 238.32C1074.88 239.778 1075.33 241.236 1075.78 242.645C1076.12 243.681 1077.33 246.203 1077.25 247.13C1077.22 247.454 1076.98 247.8 1076.71 247.973C1076.33 248.216 1075.68 248.305 1075.26 248.117C1074.61 247.826 1074.18 246.748 1073.92 246.116C1071.53 240.386 1070.26 232.785 1072.69 226.898C1073.46 225.029 1074.6 223.468 1076.35 222.424C1078.57 221.105 1081.15 220.305 1083.57 219.433C1087.71 217.957 1091.87 216.529 1096.04 215.148L1130.31 203.603L1143.83 199.13C1146.41 198.283 1149.15 197.547 1151.65 196.507L1151.78 196.455Z" fill="black"/>
<path d="M1148.92 157.864C1149.71 157.822 1151.14 157.572 1151.82 158.064C1152.07 158.243 1152.27 158.609 1152.28 158.914C1152.31 159.812 1148.98 167.961 1148.4 169.715C1145.97 176.945 1143.79 184.252 1141.87 191.633C1141.4 193.454 1141.04 195.3 1140.58 197.122C1139.64 197.665 1138.34 197.914 1137.29 198.225L1093.01 212.943C1088.88 214.298 1084.76 215.686 1080.66 217.107C1077.71 218.098 1074.55 218.991 1071.78 220.41C1070.28 221.177 1069.18 222.232 1068.41 223.731C1065.64 229.125 1065.69 238.561 1067.58 244.255C1068.05 245.662 1068.69 246.93 1069.58 248.116C1061.36 250.44 1053.12 252.655 1045.07 255.53C1042.72 256.37 1040.37 257.21 1038.07 258.199C1036.41 258.916 1034.69 259.877 1032.98 260.438C1031.8 261.464 1030.64 261.622 1029.33 263.06C1029.53 261.564 1030.09 260.005 1030.55 258.568C1031.49 255.638 1032.55 252.742 1033.54 249.826L1041.14 226.891L1055.23 185.319C1057.1 179.754 1059.01 174.202 1060.96 168.663C1061.92 165.911 1062.73 162.964 1063.91 160.304C1066.4 160.025 1069 160.078 1071.51 160.014L1083.89 159.656L1129.09 158.367L1141.31 158.11C1143.8 158.069 1146.45 158.177 1148.92 157.864Z" fill="#ACE5EC"/>
<path d="M1148.92 157.864C1149.71 157.822 1151.14 157.572 1151.82 158.064C1152.07 158.243 1152.27 158.609 1152.28 158.914C1152.31 159.812 1148.98 167.961 1148.4 169.715C1145.97 176.945 1143.79 184.252 1141.87 191.633C1141.4 193.454 1141.04 195.3 1140.58 197.122C1139.64 197.665 1138.34 197.914 1137.29 198.225C1138.79 193.315 1139.73 188.225 1141.19 183.295C1142.73 178.04 1144.41 172.828 1146.22 167.657C1147.05 165.276 1148 162.936 1148.79 160.542L1065.84 162.896C1064.46 166.706 1063.25 170.572 1061.92 174.397C1056.46 189.992 1051.14 205.631 1045.94 221.314L1038.33 244.173C1036.52 249.529 1034.47 254.994 1032.98 260.438C1031.8 261.464 1030.64 261.622 1029.33 263.06C1029.53 261.564 1030.09 260.005 1030.55 258.568C1031.49 255.638 1032.55 252.742 1033.54 249.826L1041.14 226.891L1055.23 185.319C1057.1 179.754 1059.01 174.202 1060.96 168.663C1061.92 165.911 1062.73 162.964 1063.91 160.304C1066.4 160.025 1069 160.078 1071.51 160.014L1083.89 159.656L1129.09 158.367L1141.31 158.11C1143.8 158.069 1146.45 158.177 1148.92 157.864Z" fill="black"/>
<path d="M1129.28 174.922C1129.6 174.942 1129.78 174.882 1130.01 175.112C1129.3 177.607 1128.39 180.07 1127.58 182.534C1126.46 185.893 1125.4 189.287 1124.15 192.598C1121.91 192.485 1119.65 192.627 1117.41 192.657C1112.28 192.724 1107.17 192.851 1102.04 193.022C1097.64 193.168 1093.24 193.104 1088.85 193.196C1083.68 193.305 1078.52 193.559 1073.36 193.655C1073.14 193.665 1072.93 193.663 1072.71 193.657L1072.61 193.484C1073.04 191.439 1073.82 189.38 1074.42 187.367C1075.46 183.877 1076.7 179.103 1078.14 175.887C1081.16 175.918 1084.18 175.812 1087.19 175.791C1101.22 175.624 1115.25 175.334 1129.28 174.922Z" fill="#FDFDFD"/>
<path d="M918.641 18.3846C919.365 19.0659 919.802 19.8515 919.546 20.8388C919.333 21.7884 918.612 22.5093 917.68 22.6977C917.112 22.8263 916.553 22.7951 915.787 22.8726C915.869 23.5582 916.042 24.0486 916.015 24.5279C916.031 25.6905 915.429 26.4182 914.404 26.8417C913.421 27.2276 912.6 26.8613 911.875 26.2199C911.533 25.8804 911.28 25.3855 910.981 25.0083C910.646 24.5489 910.522 23.901 909.776 23.619C909.064 24.1802 908.269 24.7769 907.513 25.4158C906.969 25.8261 906.425 26.2365 905.74 26.3184C904.73 26.4624 903.902 26.216 903.31 25.3416C902.716 24.5072 902.805 23.6308 903.215 22.7323C903.533 22.069 904.429 21.7985 904.518 20.9221C903.866 20.4049 903.054 20.6 902.388 20.3225C901.49 19.9118 900.802 19.3126 900.698 18.3053C900.499 16.8519 901.444 15.7028 902.937 15.5056C903.663 15.4259 904.442 15.8299 905.187 15.3907C905.092 14.9447 905.039 14.461 904.986 13.9773C904.939 12.6527 905.505 11.8429 906.648 11.466C907.589 11.1178 908.574 11.4132 909.324 12.3363C909.734 12.88 910.102 13.4614 910.391 14.0384C911.342 15.6539 911.378 15.736 912.936 14.3806C913.479 13.9703 913.985 13.5177 914.527 13.1473C914.944 12.8501 915.436 12.6372 915.918 12.624C917.808 12.4891 919.11 14.2843 918.334 16.0037C918.105 16.5118 917.681 16.9288 917.293 17.428C917.539 18.0427 918.222 18.0006 918.641 18.3846ZM924.502 12.8624C925.317 11.9063 926.36 11.1632 927.509 10.6664C927.88 10.4868 933.348 7.98739 937.447 10.6198C939.267 11.7628 940.44 13.7112 940.515 13.7955C941.575 15.6174 942.141 17.6921 942.105 19.7733C942.062 24.8588 939.988 28.9898 936.045 32.1751C934.744 33.2243 933.224 33.9007 931.558 34.3286C928.955 35.0247 925.605 34.0367 923.68 31.205C922.535 29.4586 921.808 27.4149 921.684 25.3248C921.651 24.4816 921.698 23.6429 921.702 22.842C921.694 19.3962 922.11 16.9755 923.41 14.4841C923.723 13.9006 924.074 13.3593 924.502 12.8624ZM932.587 28.0962C935.136 26.1953 936.486 23.5463 936.702 20.3934C936.784 18.9157 936.541 17.54 935.769 16.2951C934.549 14.4643 932.372 13.9824 930.506 15.1202C929.634 15.6725 928.915 16.3535 928.5 17.3319C928.267 17.9199 927.951 18.5433 927.796 19.1756C927.187 21.4653 926.659 23.7594 927.249 26.1159C927.956 29.2401 929.957 29.9927 932.587 28.0962ZM958.13 23.9923C958.13 23.9923 959.585 27.3585 959.896 26.815C960.207 26.2714 960.387 25.1998 960.498 24.6451C961.24 20.6803 961.979 16.7554 962.721 12.7906C962.837 12.156 963.034 11.486 963.307 10.9003C963.862 9.5691 965.096 8.99692 966.361 9.30783C967.583 9.65645 968.362 10.7815 968.282 12.2193C968.259 12.6187 968.197 13.0158 968.093 13.4507C967.187 18.2076 966.28 22.9645 965.372 27.7614C965.192 28.833 964.972 29.9024 964.674 30.9275C964.428 31.755 964.066 32.496 963.627 33.1926C962.495 34.8121 960.591 35.1867 958.974 34.0148C958.051 33.3223 957.217 32.4746 956.589 31.5181C955.107 29.3523 953.79 27.1154 952.43 24.9163C951.989 24.2106 951.232 22.6861 950.96 22.5507C950.687 22.4153 950.553 23.3694 950.538 23.6489C950.477 26.1695 950.417 28.69 950.359 31.1706C950.338 32.2512 950.436 33.3784 950.336 34.4545C950.3 35.0935 950.102 35.7635 949.789 36.347C949.306 37.1212 948.48 37.5559 947.559 37.5447C946.681 37.4956 945.866 37.0096 945.432 36.1841C945.143 35.6071 944.979 34.957 944.977 34.2758C944.983 30.5904 945.028 26.9072 945.193 23.2307C945.264 21.2315 945.575 19.2458 945.886 17.26C946.017 16.3459 946.308 15.4407 946.712 14.662C947.736 12.8361 949.804 12.3906 951.412 13.7222C952.175 14.4058 952.814 15.1625 953.326 16.0324C954.981 18.6887 958.13 23.9923 958.13 23.9923ZM991.01 19.977C991.134 20.6249 991.38 21.2396 991.651 22.136C992.044 21.557 992.383 21.2154 992.607 20.7872C993.939 18.4578 995.231 16.1261 996.525 13.7545C996.789 13.3285 996.976 12.8582 997.238 12.4721C998.019 11.394 999.279 11.0637 1000.38 11.5254C1001.47 11.9871 1002.13 13.1854 1001.94 14.3769C1001.82 15.0114 1001.59 15.6793 1001.27 16.2627C1000.64 17.5096 999.932 18.7519 999.262 19.9965C996.005 25.9444 992.709 31.8901 989.455 37.7981C989.053 38.5368 988.689 39.3178 988.172 39.97C987.347 41.1258 985.969 41.4095 984.842 40.7858C983.715 40.1621 983.185 38.8906 983.62 37.5527C983.766 37.0802 983.991 36.652 984.255 36.226C985.063 34.6686 985.795 33.0269 986.759 31.5582C987.637 30.165 987.633 28.8027 987.239 27.2583C986.673 25.1836 986.232 23.0357 985.789 20.9277C985.188 18.0498 984.628 15.1741 984.065 12.3384C983.748 10.8384 984.664 9.48735 986.131 9.04835C987.391 8.71802 988.831 9.47938 989.315 10.8685C989.592 11.6451 989.705 12.4927 989.86 13.3026C990.257 15.5281 990.613 17.7515 991.01 19.977ZM1004.96 17.3499C1005.78 16.3938 1006.82 15.6507 1007.97 15.154C1008.34 14.9743 1013.81 12.4749 1017.91 15.1073C1019.73 16.2504 1020.9 18.1987 1020.98 18.2831C1022.04 20.1049 1022.6 22.1796 1022.57 24.2609C1022.52 29.3464 1020.45 33.4773 1016.51 36.6627C1015.21 37.7119 1013.69 38.3883 1012.02 38.8161C1009.42 39.5123 1006.07 38.5242 1004.14 35.6926C1003 33.9461 1002.27 31.9025 1002.14 29.8123C1002.11 28.9692 1002.16 28.1305 1002.16 27.3295C1002.16 23.8837 1002.57 21.4631 1003.87 18.9716C1004.18 18.3882 1004.53 17.8469 1004.96 17.3499ZM1013.05 32.5838C1015.6 30.6828 1016.95 28.0338 1017.16 24.881C1017.25 23.4033 1017 22.0276 1016.23 20.7826C1015.01 18.9519 1012.83 18.4699 1010.97 19.6078C1010.09 20.16 1009.38 20.8411 1008.96 21.8195C1008.73 22.4074 1008.41 23.0308 1008.26 23.6631C1007.65 25.9528 1007.12 28.2469 1007.71 30.6034C1008.42 33.7277 1010.42 34.4803 1013.05 32.5838ZM1038.79 39.3075C1038.82 37.9873 1038.84 37.548 1038.65 37.457C1038.37 37.3615 1037.93 38.178 1037.58 38.6394C1036.07 40.5583 1032.42 41.4362 1029.73 40.1243C1027.74 39.172 1026.8 37.3568 1026.49 36.4182C1026.01 34.9093 1025.74 33.3317 1025.67 31.7652C1025.47 28.0686 1026.04 24.4144 1026.52 20.7557C1026.58 20.4384 1026.68 20.0834 1026.81 19.8105C1027.27 18.7545 1028.39 18.1357 1029.46 18.2757C1030.54 18.4557 1031.38 19.0238 1031.6 20.1178C1031.76 20.9277 1031.83 21.773 1031.71 22.6073C1031.56 24.5221 1031.37 26.4346 1031.11 28.3428C1030.37 33.5501 1030.65 34.3268 1031.15 34.795C1031.76 35.3099 1032.75 35.4455 1033.45 35.2038C1034.39 34.8556 1035.16 33.2161 1036.63 29.8927C1036.63 29.8527 1036.67 29.815 1036.72 29.7374C1036.9 29.307 1037.41 28.1333 1038.16 26.0922C1038.53 25.1515 1038.98 24.2951 1039.32 23.3522C1039.55 22.7244 1039.87 22.1009 1040.26 21.5619C1040.91 20.6767 1041.85 20.3685 1042.92 20.5884C1044.02 20.8504 1044.85 21.7781 1044.95 22.8653C1044.99 23.5487 1044.96 24.2277 1044.88 24.9044C1044.28 29.7989 1044.13 34.718 1044.17 39.6881C1044.21 40.4913 1044.16 41.33 1044.08 42.1665C1043.87 43.7573 1042.81 44.7001 1041.41 44.662C1039.97 44.5819 1039.02 43.6875 1038.87 42.0367C1038.85 41.7948 1038.75 41.4287 1038.79 39.3075ZM1061.13 31.7398C1060.62 32.1923 1060.08 32.5228 1059.38 32.9642C1060.39 34.1027 1061.56 34.7686 1062.6 35.5476C1063.52 36.28 1064.53 36.897 1065.36 37.7049C1066.2 38.4328 1066.31 39.4402 1065.93 40.4607C1065.59 41.4436 1064.81 41.9205 1063.87 42.1089C1063.23 42.233 1062.56 41.9954 1061.75 41.4694C1060.43 40.7147 1060.1 40.0557 1058.62 38.6508C1055.92 36.0165 1055.03 36.2072 1054.78 36.3136C1054.66 36.3868 1054.58 36.4223 1054.45 36.5354C1054.4 37.4939 1054.39 38.3348 1054.3 39.1314C1054.2 40.3273 1053.63 41.2169 1052.44 41.5916C1051.83 41.7978 1051.11 41.7577 1050.49 41.4425C1049.91 41.1296 1049.46 40.5836 1049.25 39.9313C1049.05 39.2789 1048.96 38.6332 1048.92 37.9498C1048.63 32.3251 1048.87 26.7293 1049.38 21.1491C1049.7 17.5215 1050.08 17.1421 1053.62 16.2975C1056.7 15.5483 1059.6 15.9505 1062.27 17.7017C1066.29 20.3296 1067.15 25.0647 1064.21 28.8272C1063.35 29.9408 1062.18 30.797 1061.13 31.7398ZM1059.78 22.7711C1058.56 21.7813 1057.39 21.2352 1055.84 21.6298C1055.31 21.7606 1054.93 22.1799 1054.82 22.7345C1054.61 23.6442 1054.48 24.5583 1054.43 25.4769C1054.41 26.4376 1054.44 27.3607 1054.48 28.1639C1054.5 28.4457 1054.61 28.692 1054.84 28.8252C1055.07 28.9583 1055.35 28.9739 1055.6 28.8675C1056.13 28.6568 1056.67 28.3663 1057.16 28.0735C1057.99 27.6388 1058.74 27.0798 1059.38 26.4343C1059.67 26.1703 1059.93 25.8242 1060.15 25.4759C1060.77 24.4687 1060.67 23.4614 1059.78 22.7711ZM1085.07 21.8179C1085.89 20.8618 1086.93 20.1187 1088.08 19.6219C1088.45 19.4423 1093.92 16.9429 1098.02 19.5753C1099.84 20.7183 1101.01 22.6667 1101.09 22.751C1102.15 24.5729 1102.71 26.6476 1102.68 28.7288C1102.63 33.8143 1100.56 37.9453 1096.62 41.1306C1095.32 42.1798 1093.8 42.8562 1092.13 43.2841C1089.53 43.9802 1086.18 42.9921 1084.25 40.1605C1083.11 38.4141 1082.38 36.3704 1082.25 34.2803C1082.22 33.4371 1082.27 32.5984 1082.27 31.7975C1082.26 28.3517 1082.68 25.931 1083.98 23.4396C1084.29 22.8561 1084.64 22.3148 1085.07 21.8179ZM1093.16 37.0517C1095.71 35.1508 1097.06 32.5018 1097.27 29.3489C1097.36 27.8712 1097.11 26.4955 1096.34 25.2506C1095.12 23.4198 1092.94 22.9379 1091.08 24.0757C1090.2 24.628 1089.49 25.309 1089.07 26.2874C1088.84 26.8754 1088.52 27.4988 1088.37 28.1311C1087.76 30.4208 1087.23 32.7149 1087.82 35.0714C1088.53 38.1956 1090.53 38.9482 1093.16 37.0517ZM1111.18 34.8519C1111.22 37.8185 1111.56 38.158 1111.75 38.2091C1112.42 38.4067 1113.01 36.5963 1115.33 35.1235C1116.25 34.5335 1117.33 33.8326 1118.64 33.986C1119.95 34.1793 1120.86 35.1913 1121.61 36.0346C1123.12 37.7212 1123.55 39.4276 1124.07 39.3367C1124.32 39.2702 1124.5 38.8797 1124.73 38.3717C1124.87 38.0189 1124.97 37.6639 1125.03 37.3067C1126.23 33.6482 1127.4 29.9874 1128.56 26.3266C1128.85 25.5413 1129.05 24.7115 1129.41 23.9705C1130.06 22.5239 1131.41 21.9185 1132.71 22.4313C1134 22.9042 1134.65 24.1824 1134.37 25.6889C1134.36 25.7688 1134.32 25.8464 1134.31 25.9263C1132.49 31.393 1130.7 36.862 1128.83 42.3265C1128.64 42.9566 1128.32 43.58 1127.97 44.1612C1126.25 46.9499 1123.59 47.2023 1121.32 44.8321C1120.56 44.0287 1119.89 43.1499 1119.3 42.2357C1118.38 40.7821 1118.29 40.2563 1117.77 40.1874C1117.14 40.0719 1116.74 40.8506 1115.22 42.2081C1114.25 43.1154 1113.16 43.8962 1111.96 44.5106C1109.11 46.0343 1106.54 44.729 1106 41.5738C1105.83 40.3224 1105.74 39.0754 1105.77 37.7951C1105.92 33.717 1106.07 29.5989 1106.25 25.523C1106.24 25.0815 1106.3 24.6843 1106.36 24.2473C1106.63 22.9804 1107.85 22.0066 1109.05 22.1133C1110.28 22.2223 1111.23 23.1167 1111.45 24.3305C1111.53 24.9761 1111.53 25.6573 1111.5 26.3363C1111.44 28.7769 1111.13 30.8026 1111.18 34.8519ZM1149.28 34.6532C1149.28 34.6532 1150.73 38.0194 1151.04 37.4759C1151.35 36.9323 1151.53 35.8607 1151.65 35.306C1152.39 31.3412 1153.13 27.4163 1153.87 23.4514C1153.99 22.8169 1154.18 22.1469 1154.46 21.5612C1155.01 20.23 1156.24 19.6578 1157.51 19.9687C1158.73 20.3173 1159.51 21.4424 1159.43 22.8802C1159.41 23.2796 1159.35 23.6767 1159.24 24.1116C1158.33 28.8685 1157.43 33.6254 1156.52 38.4223C1156.34 39.4939 1156.12 40.5633 1155.82 41.5883C1155.58 42.4159 1155.21 43.1569 1154.77 43.8535C1153.64 45.473 1151.74 45.8476 1150.12 44.6757C1149.2 43.9832 1148.36 43.1355 1147.74 42.179C1146.26 40.0131 1144.94 37.7763 1143.58 35.5772C1143.14 34.8715 1142.38 33.347 1142.11 33.2116C1141.83 33.0762 1141.7 34.0303 1141.69 34.3098C1141.63 36.8304 1141.57 39.3509 1141.51 41.8315C1141.49 42.9121 1141.58 44.0393 1141.48 45.1154C1141.45 45.7544 1141.25 46.4244 1140.94 47.0079C1140.45 47.7821 1139.63 48.2168 1138.71 48.2055C1137.83 48.1565 1137.01 47.6704 1136.58 46.845C1136.29 46.268 1136.13 45.6179 1136.13 44.9367C1136.13 41.2513 1136.18 37.5681 1136.34 33.8915C1136.41 31.8924 1136.72 29.9067 1137.03 27.9209C1137.17 27.0068 1137.46 26.1016 1137.86 25.3229C1138.88 23.497 1140.95 23.0515 1142.56 24.3831C1143.32 25.0667 1143.96 25.8234 1144.47 26.6933C1146.13 29.3496 1149.28 34.6532 1149.28 34.6532ZM999.734 68.3779C999.228 68.8304 998.688 69.1609 997.983 69.6023C999.001 70.7408 1000.17 71.4066 1001.2 72.1857C1002.12 72.9181 1003.13 73.5351 1003.97 74.3429C1004.81 75.0709 1004.91 76.0783 1004.54 77.0988C1004.2 78.0817 1003.41 78.5585 1002.48 78.7469C1001.83 78.8711 1001.16 78.6335 1000.35 78.1075C999.033 77.3528 998.709 76.6937 997.225 75.2889C994.527 72.6546 993.635 72.8452 993.389 72.9517C993.265 73.0249 993.183 73.0604 993.056 73.1735C993.003 74.132 992.996 74.9729 992.911 75.7695C992.805 76.9654 992.234 77.855 991.052 78.2297C990.439 78.4359 989.72 78.3958 989.097 78.0806C988.513 77.7676 988.063 77.2217 987.859 76.5693C987.655 75.917 987.571 75.2713 987.529 74.5879C987.242 68.9632 987.474 63.3674 987.985 57.7872C988.308 54.1596 988.689 53.7802 992.222 52.9356C995.308 52.1863 998.21 52.5886 1000.88 54.3398C1004.9 56.9677 1005.75 61.7028 1002.82 65.4653C1001.96 66.5789 1000.79 67.4351 999.734 68.3779ZM998.391 59.4092C997.164 58.4194 995.993 57.8733 994.448 58.2679C993.92 58.3987 993.536 58.818 993.425 59.3726C993.214 60.2823 993.083 61.1964 993.032 62.115C993.018 63.0757 993.047 63.9987 993.082 64.802C993.107 65.0838 993.213 65.3301 993.446 65.4632C993.679 65.5964 993.959 65.612 994.205 65.5056C994.738 65.2949 995.275 65.0043 995.772 64.7116C996.597 64.2769 997.349 63.7179 997.986 63.0724C998.281 62.8084 998.541 62.4623 998.761 62.114C999.378 61.1068 999.274 60.0994 998.391 59.4092ZM1007.75 77.9995C1007.73 77.7576 1007.74 77.518 1007.71 77.3161C1007.76 75.6764 1007.85 74.1188 1007.9 72.5191C1008.17 66.9255 1008.4 61.3298 1008.72 55.7384C1008.71 55.1771 1008.86 54.5847 1009.05 54.0345C1009.46 53.136 1010.17 52.6147 1011.22 52.5528C1012.22 52.4887 1012.96 52.9304 1013.55 53.7648C1014.03 54.4727 1014.11 55.318 1014.1 56.159C1013.89 60.5943 1013.69 64.9897 1013.48 69.425C1013.36 71.6616 1013.27 73.9403 1013.14 76.1768C1013.1 76.9356 1013.02 77.6523 1012.86 78.4044C1012.55 79.669 1011.51 80.4121 1010.31 80.3852C1009.03 80.3539 1008 79.3752 1007.75 77.9995ZM1022.36 73.8064C1023.29 73.658 1025.02 73.4742 1025.36 72.5313C1025.4 72.4137 1025.41 72.3338 1025.42 72.214C1025.39 71.291 1023.85 70.7648 1023.74 70.7182C1022.56 70.252 1021.43 69.7081 1020.34 69.0467C1015.81 66.27 1016.43 61.6173 1018.7 58.9397C1021.28 55.8783 1024.63 54.703 1028.54 55.0012C1029.34 55.0458 1030.16 55.412 1030.9 55.7739C1031.99 56.3954 1032.4 57.6602 1032.05 58.8427C1031.71 59.9853 1030.67 60.6485 1029.31 60.5728C1028.47 60.526 1028.07 60.4638 1027.32 60.3416C1026.68 60.266 1023.98 59.9149 1022.86 61.2548C1022.65 61.5232 1022.29 62.1444 1022.35 63.3093C1022.54 64.1613 1023.12 64.5143 1023.75 64.7895C1024.8 65.289 1025.9 65.7507 1026.91 66.2879C1027.92 66.865 1028.97 67.4443 1029.81 68.2122C1031.94 70.214 1032.09 73.1873 1030.24 75.4478C1029.34 76.5992 1028.17 77.3755 1026.86 77.9832C1025.01 78.8415 1023.06 79.2537 1021.05 79.4619C1019.67 79.6258 1018.48 78.8378 1018.1 77.6551C1017.62 76.266 1018.38 74.8262 1019.93 74.3118C1020.3 74.212 1020.62 74.11 1020.95 74.048C1021.6 73.8839 1021.96 73.864 1022.36 73.8064ZM1042.3 55.6084C1042.19 56.9242 1041.95 58.2332 1041.74 59.9439C1042.53 59.3871 1042.99 59.0921 1043.44 58.7971C1044.91 57.6769 1046.34 56.5146 1047.84 55.4366C1048.3 55.0617 1048.8 54.7689 1049.37 54.6004C1050.51 54.1835 1051.77 54.6542 1052.43 55.6927C1052.94 56.6425 1052.87 57.9604 1052.1 58.7591C1051.67 59.216 1051.09 59.6242 1050.55 59.9946C1049.42 60.853 1048.21 61.6271 1047.19 62.8117C1047.72 64.7245 1048.21 66.6749 1048.79 68.5898C1049.43 70.7489 1050.15 72.8724 1050.83 75.0337C1051.04 75.6461 1051.24 76.2985 1051.37 76.9464C1051.57 78.3199 1050.86 79.5223 1049.63 79.9747C1048.45 80.3894 1047.12 79.8344 1046.47 78.5961C1046.14 77.8971 1045.86 77.2004 1045.66 76.4681C1044.81 73.7765 1043.96 71.045 1043.11 68.3534C1042.9 67.8608 1042.69 67.3682 1042.47 66.9155L1040.64 68.2153C1040.31 71.1219 1039.95 74.0262 1039.59 76.9305C1039.43 78.3239 1039.27 79.7572 1039.07 81.1484C1039 81.7053 1038.81 82.2954 1038.54 82.8013C1038.05 83.6155 1037.15 84.0856 1036.19 83.9922C1035.11 83.8922 1034.26 83.324 1033.96 82.2655C1033.8 81.6154 1033.76 80.932 1033.83 80.2952C1034.26 76.2726 1034.68 72.29 1035.18 68.3118C1035.75 63.8166 1036.4 59.3658 1036.97 54.8707C1037.06 54.0741 1037.26 53.4041 1037.81 52.834C1039.17 51.3876 1041.43 51.7941 1042.09 53.6337C1042.29 54.286 1042.38 54.9717 1042.3 55.6084ZM1070.55 66.9191C1071.27 67.6004 1071.71 68.386 1071.45 69.3733C1071.24 70.3229 1070.52 71.0438 1069.59 71.2322C1069.02 71.3608 1068.46 71.3296 1067.7 71.4071C1067.78 72.0927 1067.95 72.5831 1067.92 73.0624C1067.94 74.225 1067.34 74.9527 1066.31 75.3763C1065.33 75.7621 1064.51 75.3958 1063.78 74.7544C1063.44 74.4149 1063.19 73.92 1062.89 73.5428C1062.55 73.0834 1062.43 72.4355 1061.68 72.1536C1060.97 72.7148 1060.18 73.3114 1059.42 73.9503C1058.88 74.3606 1058.33 74.771 1057.65 74.853C1056.64 74.997 1055.81 74.7505 1055.22 73.8762C1054.62 73.0418 1054.71 72.1654 1055.12 71.2668C1055.44 70.6035 1056.34 70.333 1056.43 69.4566C1055.77 68.9394 1054.96 69.1345 1054.3 68.857C1053.4 68.4464 1052.71 67.8471 1052.61 66.8398C1052.41 65.3864 1053.35 64.2373 1054.85 64.0401C1055.57 63.9604 1056.35 64.3644 1057.1 63.9252C1057 63.4792 1056.95 62.9955 1056.89 62.5118C1056.85 61.1872 1057.41 60.3774 1058.56 60.0005C1059.5 59.6524 1060.48 59.9477 1061.23 60.8709C1061.64 61.4145 1062.01 61.9959 1062.3 62.5729C1063.25 64.1884 1063.29 64.2705 1064.84 62.9151C1065.39 62.5048 1065.89 62.0523 1066.43 61.6818C1066.85 61.3846 1067.34 61.1717 1067.83 61.1585C1069.72 61.0236 1071.02 62.8189 1070.24 64.5383C1070.01 65.0463 1069.59 65.4634 1069.2 65.9625C1069.45 66.5772 1070.13 66.5352 1070.55 66.9191Z" fill="black"/>
</svg>
