<svg width="354" height="126" viewBox="0 0 354 126" fill="none" xmlns="http://www.w3.org/2000/svg">
<path d="M41.456 77.3618C41.5927 77.3294 41.6536 77.3416 41.728 77.2079C41.8252 77.0333 41.8463 76.789 41.9111 76.5969C42.0134 76.2932 42.1496 75.9952 42.2832 75.7037C43.3875 73.2927 44.654 72.2407 47.0783 71.2457C51.4125 69.467 61.4664 68.92 66.1864 69.3277C68.2648 69.5073 70.3357 69.8379 72.2672 70.6532C75.2944 71.9312 77.2835 74.4049 78.4922 77.3942C78.7172 77.9518 78.9147 78.519 79.0848 79.0958C79.2549 79.6726 79.3967 80.2562 79.5103 80.8467C80.1016 84.015 79.9364 87.9225 79.7152 91.1392C80.5221 91.1806 83.9274 91.0461 84.363 91.2156C84.4873 91.365 84.4878 91.5938 84.4928 91.7805C84.5122 92.5036 84.4707 93.2379 84.4565 93.9615C84.4325 95.1002 84.4206 96.239 84.4207 97.3779L84.2759 113.609C79.5021 113.653 74.7287 113.725 69.9557 113.823L61.0094 113.916C51.1124 114.136 41.2142 114.247 31.3149 114.25L21.2565 114.321C19.4535 114.334 17.6317 114.392 15.8306 114.315L19.8484 108.773C20.4682 107.907 21.1327 107.071 21.6876 106.16C21.4478 106.154 21.1903 106.164 20.9534 106.132C21.4724 106.103 22.0057 106.129 22.5263 106.129L25.6257 106.129L36.984 106.13L40.6966 106.135C41.3686 106.135 42.0557 106.163 42.7265 106.126C42.9117 106.115 43.1927 106.105 43.3482 106.004C43.9322 105.621 45.2566 104.246 45.8253 103.697L51.5211 98.143C52.108 97.5764 52.6627 96.9714 53.2738 96.4308C53.8246 95.7577 54.2303 94.917 54.6309 94.1482C54.8493 93.8342 55.0291 93.4654 55.2136 93.1299L56.2958 91.1364C56.1174 91.0847 55.895 91.1097 55.7058 91.092C55.6852 89.9288 55.6592 88.77 55.6111 87.6074C55.5914 87.1313 55.6199 86.5746 55.5088 86.113L55.4062 86.0586C55.1603 86.0508 54.8732 86.1966 54.6425 86.2818C54.1295 86.2321 53.5696 86.2977 53.0525 86.3122C51.8482 86.3461 50.6436 86.394 49.4391 86.4132C49.7232 85.345 49.8453 84.2317 49.8836 83.1297C49.9339 81.6816 50.0885 79.0393 49.0278 77.945C48.7756 77.6847 48.4681 77.5317 48.1178 77.4494C47.3519 77.2693 46.3047 77.3483 45.5095 77.349L41.456 77.3618Z" fill="#ACE5EC"/>
<path d="M25.5607 84.9277C26.0639 84.9157 29.448 84.8284 29.6971 84.9674C29.8512 85.0535 29.9696 85.2519 30.0066 85.4186C29.9844 85.5173 29.9791 85.558 29.9062 85.6328C29.741 85.802 29.4376 85.8641 29.2119 85.8862C28.8122 85.9253 28.389 85.8985 27.9865 85.8979C27.2214 85.8942 26.4562 85.8962 25.6911 85.9037C23.0226 85.9613 20.3537 85.9934 17.6845 85.9999L15.243 86.0222C14.8085 86.0268 14.3268 86.0668 13.8958 86.0137C13.7347 85.9938 13.5514 85.948 13.4279 85.8361C13.3383 85.7549 13.298 85.6484 13.2967 85.5299C13.2952 85.3966 13.3444 85.2854 13.4403 85.1924C13.5105 85.1243 13.6244 85.0721 13.7197 85.0586C14.0699 85.0093 14.4766 85.0414 14.8335 85.0381L17.0513 85.0093L25.5607 84.9277Z" fill="black"/>
<path d="M31.2633 87.3036C31.8429 87.2905 33.5446 87.138 33.9466 87.4698C34.0279 87.5368 34.0743 87.6196 34.0773 87.7261C34.081 87.8584 33.9904 88.0424 33.8962 88.1314C33.7695 88.2513 33.5392 88.277 33.3744 88.2894C32.8161 88.3317 32.2317 88.2946 31.6699 88.2975L27.8842 88.3156L16.233 88.4411C15.7499 88.4488 14.0271 88.585 13.6687 88.3218C13.5577 88.2402 13.4961 88.1224 13.4869 87.9856C13.4783 87.8556 13.5208 87.7443 13.6128 87.6513C13.763 87.4995 14.0255 87.4634 14.2272 87.4499C14.8005 87.4114 15.3975 87.458 15.9736 87.4556L19.3874 87.4184L31.2633 87.3036Z" fill="black"/>
<path d="M41.4559 77.3617L45.5094 77.3489C46.3046 77.3482 47.3518 77.2692 48.1178 77.4493C48.4681 77.5316 48.7756 77.6846 49.0277 77.9449C50.0885 79.0393 49.9339 81.6815 49.8836 83.1296C49.8452 84.2317 49.7231 85.3449 49.439 86.4131C49.3569 86.6204 49.2656 86.8438 49.1324 87.0241C49.0136 87.1847 48.8566 87.2655 48.6791 87.348C48.117 87.6094 47.4998 87.7992 46.918 88.0155C45.5954 88.5104 44.2656 88.985 42.9284 89.4392C42.0253 89.7488 41.06 90.2108 40.1125 90.3319C39.6023 90.3971 39.0561 90.3476 38.5407 90.3567L34.8381 90.4228L21.6596 90.6484C19.6929 90.6861 17.7261 90.7127 15.7592 90.7282C14.8924 90.7427 13.9861 90.8452 13.1236 90.7984C12.9599 90.7896 12.7464 90.7519 12.6206 90.6363C12.52 90.5442 12.4732 90.444 12.4705 90.309C12.4673 90.1526 12.5253 89.9695 12.6612 89.8786C12.9125 89.7104 14.7982 89.7571 15.2464 89.7483L31.2424 89.4598C33.271 89.4328 35.3015 89.4285 37.3295 89.3821C38.1742 89.3628 39.0526 89.3927 39.8914 89.3085C40.1599 89.2817 40.267 89.2419 40.4551 89.0456C41.085 88.3877 41.2598 87.2541 41.2471 86.3815C41.2336 85.4576 41.0465 84.3921 40.3528 83.7244L40.3117 83.6855C37.5099 83.498 34.6685 83.533 31.8604 83.5165L20.8679 83.384L15.118 83.3641C14.3967 83.3575 13.6688 83.3756 12.9485 83.3464C12.7807 83.3397 12.6046 83.3436 12.4733 83.222C12.3757 83.1317 12.3143 82.9926 12.3076 82.8604C12.3009 82.7298 12.3435 82.6138 12.4396 82.5238C12.7526 82.2312 15.7669 81.0146 16.4271 80.7267L20.8419 78.7944C21.5945 78.4595 22.7978 77.8289 23.5499 77.6591C24.0569 77.5446 24.6534 77.5932 25.174 77.5839L28.1032 77.5324L41.4559 77.3617Z" fill="black"/>
<path d="M40.012 78.371C41.32 78.3557 47.3212 78.219 48.1419 78.5355C48.3793 78.627 48.4962 78.8482 48.593 79.0724C49.1874 80.448 48.9356 84.9541 48.3502 86.3724C47.7746 86.6684 47.1391 86.8698 46.5336 87.0956C44.9808 87.6743 43.4009 88.1753 41.846 88.7473C42.0927 88.0374 42.2259 87.4038 42.2456 86.6476C42.2757 85.4989 42.026 83.9694 41.1844 83.1131C40.9601 82.8848 40.727 82.7464 40.4134 82.6862C39.6428 82.5384 38.4659 82.6037 37.6555 82.5848C35.3352 82.5318 33.0147 82.4973 30.6938 82.4814C27.2777 82.4322 23.8614 82.4079 20.4449 82.4085C18.6666 82.4032 16.8705 82.3139 15.0945 82.4011C15.7579 82.1357 16.3903 81.7984 17.0455 81.5138C18.4787 80.8909 19.9321 80.3085 21.3657 79.6841C22.1328 79.3499 22.9438 78.8677 23.7529 78.6669C24.2368 78.5467 24.7934 78.5969 25.2903 78.5911C26.0139 78.5835 26.7374 78.5716 27.4608 78.5554C31.644 78.4597 35.8278 78.3983 40.012 78.371Z" fill="#FDFDFD"/>
<path d="M54.6428 86.2817C54.8735 86.1965 55.1605 86.0506 55.4064 86.0584L55.5091 86.1128C55.6202 86.5745 55.5916 87.1312 55.6113 87.6072C55.6594 88.7698 55.6854 89.9287 55.706 91.0918C55.8952 91.1095 56.1176 91.0846 56.2961 91.1362L55.2138 93.1297C55.0294 93.4652 54.8495 93.8341 54.6311 94.148C54.2306 94.9168 53.8249 95.7576 53.274 96.4306C52.6629 96.9712 52.1082 97.5763 51.5213 98.1428L45.8255 103.697C45.2568 104.245 43.9324 105.621 43.3484 106.003C43.193 106.105 42.912 106.115 42.7267 106.125C42.056 106.163 41.3688 106.135 40.6969 106.135L36.9842 106.13L25.626 106.129L22.5266 106.129C22.0059 106.129 21.4727 106.103 20.9536 106.132C20.22 106.099 19.4745 106.128 18.7391 106.128L14.6143 106.133C13.9663 106.137 12.7391 106.231 12.1597 106.095C12.0508 106.07 11.975 106.004 11.9248 105.905C11.7778 105.615 11.8046 98.7731 11.8576 97.7833C11.868 97.5883 11.8961 97.3987 11.9579 97.213C12.2517 96.9408 15.1295 97.1118 15.7653 97.0522L15.8097 97.0475C15.4044 96.3267 15.1243 95.6346 15.0425 94.8049C14.9034 93.3935 15.3358 92.18 16.2248 91.0885C16.6405 91.0974 17.0562 91.1011 17.472 91.0995C19.5185 90.9773 21.5963 91.0319 23.6473 91.0365C28.3897 91.0471 33.1335 91.186 37.8749 91.167C39.0246 91.1652 40.1743 91.1716 41.3239 91.186C41.9237 91.1913 42.6141 91.2626 43.2025 91.1572C43.7169 91.065 44.3226 90.7172 44.8083 90.5062L48.07 89.0919L52.6431 87.1644C53.3051 86.8791 54.0108 86.6261 54.6428 86.2817Z" fill="black"/>
<path d="M55.7057 91.0918C55.8949 91.1095 56.1173 91.0846 56.2958 91.1362L55.2135 93.1297C55.0291 93.4652 54.8493 93.8341 54.6309 94.148C54.4737 94.0939 54.3407 94.0405 54.1766 94.1048C53.7574 94.269 50.4938 97.6818 49.925 98.2468C48.4163 99.7648 46.8884 101.263 45.3412 102.742C44.686 103.368 44.0601 104.029 43.3696 104.618C43.8308 102.665 43.6719 100.392 43.1585 98.4603C43.0614 98.0948 42.9649 97.6586 42.7559 97.3393C42.6842 97.2297 42.649 97.1831 42.5161 97.1576C41.8456 97.0291 41.036 97.1108 40.3524 97.1103L35.9656 97.1112L26.2691 97.1122C24.6017 97.1117 22.9264 97.076 21.2597 97.1121C21.1683 97.0903 21.132 97.0886 21.0618 97.0226C21.269 96.8165 27.782 96.7894 28.6587 96.7737L38.4849 96.586C39.3957 96.5786 40.3066 96.5769 41.2174 96.5809C41.884 96.5818 42.6226 96.6524 43.273 96.5C44.0034 96.3289 45.2752 95.7089 46.0253 95.3964C47.8104 94.6526 49.5917 93.8629 51.3485 93.0544C52.7939 92.3892 54.2335 91.696 55.7057 91.0918Z" fill="#FDFDFD"/>
<path d="M12.8545 98.0908L42.0077 98.1266C42.7288 100.193 42.8238 102.781 42.2161 104.88L42.1578 105.051C42.0393 105.133 41.853 105.122 41.7092 105.126C40.7082 105.153 39.6983 105.128 38.6965 105.128L32.7018 105.129L12.8594 105.137C12.8922 102.788 12.8905 100.44 12.8545 98.0908Z" fill="#FDFDFD"/>
<path d="M54.6425 86.2817C54.8732 86.1965 55.1603 86.0506 55.4062 86.0584L55.5088 86.1128C55.6199 86.5745 55.5914 87.1312 55.6111 87.6072C55.6592 88.7698 55.6852 89.9287 55.7058 91.0918C54.2336 91.696 52.7939 92.3892 51.3486 93.0544C49.5918 93.8629 47.8104 94.6526 46.0254 95.3963C45.2753 95.7089 44.0034 96.3288 43.273 96.5C42.6226 96.6524 41.884 96.5818 41.2175 96.5809C40.3066 96.5769 39.3958 96.5786 38.4849 96.586L28.6587 96.7737C27.7821 96.7894 21.2691 96.8165 21.0618 97.0226C21.132 97.0886 21.1683 97.0903 21.2598 97.1121L17.025 97.1127C16.7966 96.6992 16.5338 96.3058 16.3488 95.8697C15.7894 94.5513 15.9663 93.1277 16.802 91.9706C16.984 91.7188 17.3513 91.4364 17.4543 91.1521C17.4606 91.1347 17.4659 91.117 17.4718 91.0995C19.5183 90.9773 21.5961 91.0319 23.647 91.0365C28.3895 91.0471 33.1333 91.186 37.8747 91.167C39.0244 91.1652 40.174 91.1716 41.3237 91.186C41.9235 91.1913 42.6139 91.2626 43.2023 91.1572C43.7167 91.065 44.3224 90.7172 44.8081 90.5062L48.0698 89.0919L52.6429 87.1644C53.3049 86.8791 54.0106 86.6261 54.6425 86.2817Z" fill="#FDA6D0"/>
<path d="M74.3486 92.3373C74.815 92.3268 76.3325 92.1489 76.633 92.4428C76.7265 92.5342 76.7556 92.6693 76.7522 92.7964C76.7416 93.1829 75.3662 95.9879 75.1185 96.5335C74.7378 97.3724 74.4055 98.2327 74.0409 99.0787L72.1927 103.303C71.7894 104.238 71.4408 105.226 70.9681 106.128C70.9209 106.218 70.8596 106.295 70.7801 106.359C70.6623 106.453 70.4901 106.507 70.3396 106.479C70.2672 106.466 70.1916 106.439 70.1245 106.409C70.1171 106.393 70.1089 106.377 70.1021 106.36C69.9752 106.054 70.0699 105.823 70.1773 105.531C70.2954 105.109 70.5097 104.676 70.6808 104.272C71.0768 103.338 71.4962 102.413 71.9044 101.484L75.4763 93.342C74.9449 93.3486 74.4135 93.3603 73.8822 93.3772C74.0114 93.0225 74.1653 92.6675 74.3486 92.3373Z" fill="black"/>
<path d="M78.2505 93.616C78.8548 93.6115 79.4586 93.6262 80.0619 93.6599C79.7295 94.4623 79.4807 95.3109 79.2024 96.1346L78.052 99.4997C76.9794 102.727 75.8832 105.946 74.7634 109.158L73.1791 109.17C72.587 109.204 71.9946 109.233 71.4019 109.254C71.5987 108.676 71.8829 108.109 72.1295 107.549L73.5553 104.351C75.1536 100.793 76.8083 97.2399 78.2505 93.616Z" fill="#ACE5EC"/>
<path d="M56.2958 91.1364C56.5697 90.7383 56.7769 90.0416 57.2298 89.8263C57.3681 89.7606 57.5612 89.7606 57.7131 89.7529C58.4643 89.7146 59.2219 89.7202 59.9743 89.7038L64.2891 89.6132L70.8137 89.4496C71.3892 89.438 74.6101 89.2946 74.886 89.4599C75.0329 89.5479 75.18 89.7235 75.2334 89.8862C75.365 90.2863 75.0797 90.7275 74.9063 91.0738C74.7245 91.4962 74.55 91.9237 74.3489 92.3374C74.1656 92.6676 74.0117 93.0226 73.8825 93.3773C74.4137 93.3604 74.9451 93.3487 75.4766 93.3421L71.9046 101.484C71.4965 102.413 71.0771 103.338 70.6811 104.272C70.51 104.676 70.2957 105.109 70.1776 105.531C70.0701 105.823 69.9754 106.054 70.1023 106.36C70.1091 106.377 70.1173 106.393 70.1248 106.409C68.1606 106.412 66.1934 106.485 64.2293 106.518L54.9807 106.62C54.1458 106.628 51.0135 106.786 50.458 106.576C49.8959 106.365 49.4222 105.891 49.2007 105.336C49.18 105.283 49.1613 105.229 49.1448 105.174C49.1282 105.12 49.1138 105.064 49.1015 105.008C49.0893 104.953 49.0792 104.896 49.0713 104.84C49.0635 104.783 49.0578 104.727 49.0543 104.67C49.0509 104.613 49.0496 104.555 49.0506 104.498C49.0516 104.441 49.0548 104.384 49.0603 104.327C49.0657 104.27 49.0733 104.214 49.0831 104.158C49.093 104.101 49.105 104.046 49.1192 103.99C49.2789 103.371 49.6842 102.764 49.996 102.207C50.7388 100.879 51.5212 99.5707 52.2763 98.2493C52.605 97.6741 53.0105 97.0761 53.2601 96.4655C53.2647 96.454 53.2692 96.4424 53.2737 96.4308C53.8246 95.7578 54.2303 94.917 54.6309 94.1482C54.8493 93.8343 55.0291 93.4654 55.2135 93.1299L56.2958 91.1364Z" fill="#FD4B11"/>
<path d="M73.8826 93.3769C74.4139 93.3601 74.9452 93.3484 75.4767 93.3418L71.9048 101.484C71.4966 102.413 71.0772 103.338 70.6812 104.272C70.5101 104.675 70.2958 105.109 70.1777 105.531C69.6826 105.49 69.1687 105.514 68.6719 105.515L65.4731 105.544L54.2169 105.699C53.5639 105.706 51.2716 105.847 50.7986 105.64C50.5031 105.511 50.2944 105.249 50.1843 104.951C50.1686 104.909 50.1551 104.867 50.1438 104.825C50.1325 104.782 50.1234 104.739 50.1165 104.696C50.1097 104.652 50.1051 104.608 50.1029 104.564C50.1005 104.52 50.1005 104.476 50.1028 104.432C50.105 104.388 50.1095 104.344 50.1164 104.301C50.1231 104.257 50.1322 104.214 50.1435 104.172C50.1547 104.129 50.1682 104.087 50.1838 104.046C50.1994 104.005 50.2171 103.964 50.237 103.925C50.3788 103.637 50.6215 103.394 50.932 103.297C51.5334 103.11 53.0336 103.194 53.7302 103.172C57.8644 103.064 61.9991 102.983 66.1343 102.929C66.7478 102.924 68.8479 103.013 69.28 102.853C69.5395 102.757 69.694 102.573 69.8322 102.343C70.4225 101.362 70.8193 100.157 71.288 99.1047C72.141 97.1901 73.0451 95.2972 73.8826 93.3769Z" fill="#FDFDFD"/>
<path d="M3.44771 55.9965C3.59741 55.8949 3.72854 55.8281 3.91271 55.8439C4.25017 56.0023 6.21901 58.6755 6.64385 59.1987C6.91307 58.7936 6.80771 56.3356 7.08425 55.6084C7.14698 55.4431 7.20832 55.3366 7.37127 55.2618C7.47227 55.2623 7.5392 55.277 7.62678 55.3308C7.73659 55.398 7.79545 55.5001 7.82518 55.6237C7.87374 55.826 7.60476 59.0019 7.5489 59.3735C7.53405 59.4741 7.51537 59.5406 7.46474 59.6286C7.4841 59.6243 7.50285 59.6189 7.5221 59.6148C7.91139 59.5276 9.57876 57.7223 10.0949 57.3539C10.2488 57.2442 10.5268 57.0775 10.718 57.1202C10.8008 57.1389 10.8531 57.1852 10.888 57.2625C10.9341 57.365 10.9406 57.5561 10.8947 57.6591C10.8368 57.7899 8.32333 60.1078 8.12678 60.1756C8.65318 60.4508 11.6222 60.5078 12.4308 60.6332C12.6855 60.6724 13.0446 60.7844 13.1839 61.0155C13.2421 61.1118 13.2404 61.1654 13.2157 61.2701C13.1244 61.3816 13.0172 61.4512 12.8778 61.4922C12.5333 61.5945 8.19458 61.1322 7.86686 60.9697C8.68892 62.0606 9.63947 63.0874 10.507 64.1459C10.7802 64.4792 11.139 64.8379 11.3472 65.2094C11.4009 65.3052 11.4163 65.3497 11.3889 65.4552C11.3887 65.4661 11.3882 65.4764 11.3875 65.4869C11.3785 65.6173 11.3399 65.7131 11.2355 65.7965C11.1627 65.8548 11.0787 65.8778 10.9866 65.8653C10.8874 65.8514 10.8098 65.8011 10.7379 65.7336C10.321 65.3427 9.95444 64.8036 9.5862 64.3598C8.85192 63.4749 8.06574 62.599 7.40119 61.6614C7.43577 61.9747 7.09953 65.2443 6.97937 65.5162C6.93153 65.6258 6.83112 65.7031 6.71695 65.735C6.61309 65.7648 6.47837 65.7552 6.38839 65.6904C6.28003 65.6123 6.2501 65.5105 6.23184 65.3842C6.19265 65.113 6.25967 64.7883 6.29036 64.517C6.36751 63.8423 6.63755 62.1874 6.57931 61.6149C6.57799 61.6009 6.57582 61.5867 6.57422 61.573C6.4329 61.8873 4.2881 63.9366 4.00879 64.0777C3.87043 64.1476 3.77901 64.1617 3.6326 64.1132C3.56218 64.0464 3.52205 64.0016 3.49338 63.9068C3.45847 63.7909 3.45496 63.7024 3.50548 63.5906C3.69432 63.1684 5.02059 61.9991 5.4271 61.6222C5.63972 61.4244 5.95286 61.188 6.09058 60.9337C6.09521 60.9249 6.09955 60.9162 6.104 60.9074C6.01515 60.9464 1.93354 60.3472 1.64572 60.2699C1.48619 60.2267 1.24067 60.1512 1.16274 59.9944C1.12242 59.9133 1.12276 59.842 1.16324 59.7599C1.22039 59.6465 1.35356 59.5294 1.47718 59.4959C2.11431 59.3221 5.79994 60.2395 6.19656 60.0917C6.21586 60.0844 6.23473 60.0758 6.25381 60.0679C5.60912 59.2163 4.93683 58.3837 4.27718 57.5438C3.99312 57.182 3.60046 56.7802 3.40146 56.3694C3.34658 56.2561 3.412 56.1111 3.44771 55.9965Z" fill="black"/>
<path d="M26.2576 38.4346C23.9777 38.8616 21.6928 39.2599 19.4028 39.6294C18.2909 39.8183 17.1863 40.0512 16.0735 40.2326L18.1915 51.3503C18.4817 52.8947 18.8542 54.4414 19.0866 55.9941L19.3674 57.0771C21.9659 56.7714 24.5647 56.37 27.1591 56.0219L35.5765 54.9746C35.2181 53.5213 34.9565 52.0186 34.6757 50.5478L33.0727 41.8161C32.839 40.559 32.668 39.2579 32.3637 38.0193C32.3192 37.8379 32.2585 37.7273 32.1268 37.5964C31.6825 37.3984 27.1331 38.3601 26.2576 38.4346Z" fill="#FFA7D1"/>
<path d="M24.5339 40.9836C24.397 41.0396 24.2094 41.108 24.1262 41.2373C24.0411 41.3695 24.0479 41.5106 24.0633 41.6613C24.1133 42.1528 24.2842 42.6598 24.3917 43.1441C24.6446 44.2844 24.9028 45.4304 25.1009 46.5816C24.2491 45.9233 23.4506 45.1888 22.6109 44.5135C22.2888 44.2545 21.8275 43.8776 21.3869 43.9362C21.2622 43.9528 21.1523 44.0159 21.083 44.1236C20.9973 44.2569 20.9623 44.4208 21.0014 44.576C21.0889 44.9234 24.464 47.5287 24.9727 47.8666C24.2998 48.0071 21.1196 48.584 20.8276 48.9643C20.7316 49.0892 20.7002 49.2338 20.7254 49.3884C20.7501 49.5405 20.8374 49.6666 20.9662 49.7502C21.0733 49.8196 21.1819 49.8417 21.3088 49.8334C21.8354 49.799 22.4084 49.5924 22.9302 49.4784C23.5726 49.3381 24.2254 49.2478 24.8693 49.1104C24.449 49.7619 22.6613 52.2942 22.6157 52.8535C22.5989 53.0584 22.7197 53.2523 22.8485 53.3989C22.9866 53.4602 23.0623 53.4975 23.2129 53.45C23.9459 53.2184 25.3548 50.4821 25.7966 49.7207C26.0043 50.5412 26.3002 52.6595 26.7233 53.2475C26.8459 53.418 26.9412 53.4563 27.1348 53.4898C27.2189 53.4554 27.2983 53.426 27.3652 53.3624C27.5833 53.1549 27.6681 52.9981 27.6901 52.7071C27.5021 51.5208 27.1773 50.3528 26.8648 49.1943C27.755 49.8063 28.6363 50.4709 29.4884 51.1357C29.8222 51.3962 30.141 51.7225 30.4989 51.9463C30.6709 52.0538 30.8608 52.1395 31.0633 52.1682C31.2979 52.2015 31.4676 52.1562 31.6552 52.0156C31.7034 51.9113 31.7385 51.8694 31.7222 51.7556C31.6206 51.0449 28.7533 49.1568 28.0568 48.6387C28.7599 48.584 31.1619 48.6898 31.6188 48.3459C31.7834 48.222 31.8423 48.0621 31.8503 47.8599C31.8555 47.7289 31.8168 47.6063 31.7227 47.5145C31.5812 47.3764 31.4049 47.3402 31.2137 47.3192C30.8614 47.2806 30.4829 47.3411 30.1268 47.3463C29.1875 47.3598 28.2488 47.3585 27.3099 47.3915C27.6302 46.6258 29.6542 43.6633 29.5832 43.1446C29.5615 42.986 29.4824 42.8443 29.3495 42.7533C29.2188 42.6637 29.0617 42.6367 28.9088 42.68C28.3668 42.8334 26.6303 46.0374 26.2735 46.6358C26.0239 45.5769 25.5155 41.8951 25.0504 41.2135C24.9302 41.0374 24.7294 41.0219 24.5339 40.9836Z" fill="black"/>
<path d="M178.962 8.34406C179.324 8.68472 179.542 9.07749 179.415 9.57115C179.308 10.046 178.947 10.4064 178.481 10.5006C178.197 10.5649 177.918 10.5493 177.535 10.5881C177.576 10.9309 177.663 11.1761 177.649 11.4157C177.657 11.997 177.356 12.3608 176.843 12.5726C176.352 12.7656 175.942 12.5824 175.579 12.2617C175.408 12.0919 175.282 11.8445 175.132 11.6559C174.964 11.4262 174.902 11.1023 174.53 10.9613C174.173 11.2419 173.776 11.5402 173.398 11.8596C173.126 12.0648 172.854 12.27 172.511 12.311C172.007 12.383 171.593 12.2598 171.297 11.8226C170.999 11.4054 171.044 10.9672 171.249 10.5179C171.408 10.1862 171.856 10.051 171.901 9.61279C171.575 9.35423 171.168 9.45177 170.836 9.31302C170.386 9.10768 170.043 8.80807 169.991 8.30439C169.891 7.57771 170.364 7.00315 171.11 6.90457C171.473 6.86471 171.862 7.06671 172.235 6.84713C172.188 6.62413 172.161 6.38227 172.134 6.14042C172.111 5.4781 172.394 5.07323 172.966 4.88476C173.436 4.71068 173.929 4.85834 174.303 5.31993C174.509 5.59178 174.693 5.88248 174.837 6.17096C175.313 6.9787 175.33 7.01975 176.109 6.34208C176.381 6.1369 176.634 5.91064 176.905 5.72542C177.113 5.57681 177.36 5.47036 177.601 5.46376C178.546 5.39629 179.197 6.29393 178.808 7.15364C178.694 7.40766 178.482 7.61618 178.288 7.86576C178.411 8.17309 178.753 8.15208 178.962 8.34406ZM181.893 5.58296C182.3 5.1049 182.821 4.73336 183.396 4.48498C183.582 4.39516 186.315 3.14546 188.365 4.46165C189.275 5.03319 189.861 6.00737 189.899 6.04953C190.429 6.96047 190.712 7.99782 190.694 9.03843C190.672 11.5812 189.636 13.6467 187.664 15.2393C187.014 15.7639 186.254 16.1021 185.421 16.3161C184.119 16.6641 182.444 16.1701 181.481 14.7543C180.909 13.8811 180.545 12.8592 180.484 11.8142C180.467 11.3926 180.49 10.9732 180.493 10.5727C180.489 8.84984 180.696 7.63953 181.347 6.39381C181.503 6.10207 181.679 5.83142 181.893 5.58296ZM185.935 13.1999C187.21 12.2494 187.885 10.9249 187.993 9.34848C188.034 8.60963 187.912 7.92177 187.526 7.29931C186.916 6.38393 185.828 6.14295 184.895 6.71187C184.458 6.98802 184.099 7.32852 183.891 7.81773C183.775 8.11169 183.617 8.4234 183.54 8.73956C183.235 9.8844 182.971 11.0315 183.266 12.2097C183.619 13.7718 184.62 14.1481 185.935 13.1999ZM198.707 11.1479C198.707 11.1479 199.434 12.831 199.59 12.5593C199.745 12.2875 199.835 11.7517 199.89 11.4743C200.261 9.49191 200.631 7.52946 201.002 5.54704C201.06 5.22976 201.159 4.89475 201.295 4.60189C201.573 3.93631 202.19 3.65022 202.822 3.80568C203.433 3.97998 203.823 4.54253 203.782 5.26142C203.771 5.46111 203.74 5.65968 203.688 5.87711C203.235 8.25557 202.782 10.634 202.327 13.0325C202.237 13.5683 202.128 14.103 201.979 14.6155C201.856 15.0293 201.675 15.3998 201.455 15.7481C200.889 16.5578 199.937 16.7451 199.128 16.1592C198.667 15.8129 198.25 15.389 197.936 14.9108C197.195 13.8279 196.536 12.7095 195.857 11.6099C195.636 11.2571 195.258 10.4948 195.121 10.4271C194.985 10.3594 194.918 10.8365 194.91 10.9762C194.88 12.2365 194.85 13.4968 194.821 14.7371C194.811 15.2774 194.859 15.8409 194.809 16.379C194.792 16.6985 194.693 17.0335 194.536 17.3253C194.294 17.7124 193.882 17.9297 193.421 17.9241C192.982 17.8996 192.575 17.6565 192.357 17.2438C192.213 16.9553 192.131 16.6302 192.13 16.2897C192.133 14.4469 192.155 12.6053 192.238 10.7671C192.274 9.76753 192.429 8.77465 192.585 7.78177C192.65 7.32471 192.796 6.8721 192.998 6.48275C193.509 5.56982 194.543 5.34706 195.347 6.01287C195.729 6.35465 196.048 6.73303 196.305 7.16797C197.132 8.4961 198.707 11.1479 198.707 11.1479ZM215.147 9.14026C215.209 9.46422 215.332 9.77155 215.467 10.2198C215.663 9.93027 215.833 9.75946 215.945 9.54537C216.611 8.38064 217.257 7.2148 217.904 6.02899C218.036 5.81602 218.129 5.58084 218.26 5.38784C218.651 4.84875 219.281 4.68359 219.829 4.91446C220.377 5.14534 220.704 5.74448 220.611 6.34021C220.553 6.65749 220.434 6.99139 220.278 7.28313C219.963 7.90654 219.608 8.52773 219.272 9.15003C217.644 12.124 215.996 15.0968 214.369 18.0508C214.168 18.4202 213.986 18.8107 213.728 19.1368C213.315 19.7147 212.626 19.8565 212.062 19.5447C211.499 19.2328 211.234 18.5971 211.451 17.9281C211.525 17.6918 211.637 17.4778 211.769 17.2648C212.173 16.4861 212.539 15.6652 213.021 14.9309C213.46 14.2343 213.458 13.5531 213.261 12.7809C212.978 11.7436 212.758 10.6696 212.536 9.61563C212.236 8.17667 211.955 6.73883 211.674 5.32095C211.515 4.57097 211.974 3.89544 212.707 3.67594C213.337 3.51077 214.057 3.89145 214.299 4.58599C214.437 4.97431 214.494 5.39811 214.572 5.80306C214.77 6.91583 214.948 8.02749 215.147 9.14026ZM222.123 7.82673C222.53 7.34866 223.052 6.97713 223.627 6.72875C223.812 6.63893 226.546 5.38922 228.596 6.70542C229.505 7.27695 230.092 8.25114 230.13 8.2933C230.66 9.20423 230.942 10.2416 230.924 11.2822C230.903 13.8249 229.866 15.8904 227.894 17.4831C227.244 18.0077 226.484 18.3459 225.651 18.5598C224.35 18.9079 222.674 18.4139 221.712 16.9981C221.14 16.1248 220.776 15.103 220.714 14.0579C220.697 13.6363 220.721 13.217 220.723 12.8165C220.719 11.0936 220.927 9.8833 221.577 8.63758C221.734 8.34584 221.909 8.07519 222.123 7.82673ZM226.165 15.4436C227.44 14.4932 228.115 13.1687 228.223 11.5922C228.264 10.8534 228.142 10.1655 227.756 9.54308C227.146 8.62769 226.058 8.38672 225.125 8.95564C224.689 9.23178 224.329 9.57229 224.122 10.0615C224.005 10.3555 223.848 10.6672 223.77 10.9833C223.466 12.1282 223.201 13.2752 223.496 14.4535C223.85 16.0156 224.85 16.3919 226.165 15.4436ZM239.035 18.8055C239.052 18.1454 239.064 17.9258 238.966 17.8803C238.829 17.8325 238.606 18.2407 238.433 18.4715C237.678 19.4309 235.851 19.8699 234.505 19.2139C233.51 18.7378 233.04 17.8302 232.886 17.3609C232.647 16.6064 232.511 15.8176 232.475 15.0344C232.378 13.1861 232.66 11.359 232.902 9.5296C232.931 9.37096 232.981 9.19347 233.049 9.05703C233.278 8.529 233.836 8.2196 234.373 8.28961C234.909 8.37959 235.334 8.66369 235.444 9.21064C235.521 9.61559 235.558 10.0383 235.494 10.4554C235.421 11.4128 235.328 12.3691 235.194 13.3231C234.829 15.9268 234.967 16.3151 235.215 16.5493C235.521 16.8067 236.018 16.8745 236.365 16.7537C236.835 16.5796 237.222 15.7598 237.955 14.0981C237.957 14.0781 237.978 14.0593 238 14.0204C238.092 13.8052 238.345 13.2184 238.722 12.1979C238.909 11.7275 239.133 11.2993 239.3 10.8279C239.417 10.5139 239.575 10.2022 239.77 9.93269C240.095 9.49011 240.565 9.33601 241.099 9.44595C241.653 9.57698 242.068 10.0408 242.118 10.5844C242.139 10.9261 242.12 11.2656 242.081 11.6039C241.784 14.0512 241.707 16.5107 241.729 18.9958C241.746 19.3974 241.723 19.8168 241.679 20.235C241.575 21.0304 241.048 21.5018 240.348 21.4828C239.629 21.4427 239.153 20.9955 239.079 20.1701C239.066 20.0492 239.016 19.8661 239.035 18.8055ZM250.205 15.0217C249.952 15.2479 249.682 15.4132 249.33 15.6339C249.839 16.2031 250.421 16.536 250.94 16.9256C251.4 17.2918 251.904 17.6003 252.322 18.0042C252.743 18.3682 252.795 18.8718 252.606 19.3821C252.438 19.8736 252.044 20.112 251.578 20.2062C251.254 20.2682 250.921 20.1495 250.515 19.8865C249.855 19.5091 249.693 19.1796 248.951 18.4772C247.602 17.16 247.156 17.2553 247.033 17.3086C246.971 17.3452 246.93 17.3629 246.866 17.4195C246.84 17.8987 246.836 18.3192 246.794 18.7175C246.741 19.3154 246.455 19.7602 245.864 19.9476C245.558 20.0507 245.198 20.0306 244.887 19.873C244.595 19.7165 244.37 19.4436 244.268 19.1174C244.166 18.7912 244.124 18.4684 244.103 18.1267C243.959 15.3143 244.075 12.5164 244.331 9.72633C244.492 7.9125 244.683 7.72283 246.449 7.30054C247.992 6.92589 249.443 7.12701 250.777 8.00261C252.787 9.31658 253.216 11.6841 251.749 13.5654C251.317 14.1222 250.732 14.5503 250.205 15.0217ZM249.534 10.5373C248.92 10.0424 248.335 9.76936 247.562 9.96667C247.298 10.0321 247.106 10.2417 247.051 10.519C246.945 10.9739 246.88 11.4309 246.854 11.8902C246.847 12.3706 246.862 12.8321 246.879 13.2337C246.892 13.3746 246.945 13.4978 247.061 13.5643C247.178 13.6309 247.318 13.6387 247.441 13.5855C247.707 13.4802 247.975 13.3349 248.224 13.1885C248.637 12.9712 249.013 12.6917 249.331 12.3689C249.479 12.2369 249.609 12.0639 249.719 11.8897C250.027 11.3861 249.975 10.8824 249.534 10.5373ZM262.178 10.0607C262.585 9.58264 263.107 9.21111 263.682 8.96273C263.867 8.87291 266.601 7.6232 268.651 8.9394C269.56 9.51093 270.147 10.4851 270.185 10.5273C270.715 11.4382 270.997 12.4756 270.979 13.5162C270.958 16.0589 269.921 18.1244 267.949 19.7171C267.299 20.2417 266.539 20.5799 265.706 20.7938C264.405 21.1419 262.729 20.6478 261.767 19.232C261.195 18.3588 260.831 17.337 260.769 16.2919C260.752 15.8703 260.776 15.451 260.778 15.0505C260.774 13.3276 260.982 12.1173 261.632 10.8716C261.789 10.5798 261.964 10.3092 262.178 10.0607ZM266.22 17.6776C267.495 16.7271 268.17 15.4027 268.278 13.8262C268.319 13.0874 268.197 12.3995 267.811 11.7771C267.201 10.8617 266.113 10.6207 265.18 11.1896C264.744 11.4658 264.384 11.8063 264.177 12.2955C264.06 12.5894 263.903 12.9011 263.825 13.2173C263.521 14.3621 263.256 15.5092 263.551 16.6875C263.905 18.2496 264.905 18.6259 266.22 17.6776ZM275.232 16.5777C275.249 18.061 275.42 18.2308 275.519 18.2563C275.854 18.3551 276.145 17.4499 277.308 16.7135C277.765 16.4185 278.305 16.0681 278.962 16.1448C279.617 16.2414 280.07 16.7474 280.447 17.1691C281.201 18.0124 281.414 18.8656 281.677 18.8201C281.799 18.7869 281.89 18.5916 282.004 18.3376C282.074 18.1612 282.124 17.9837 282.154 17.8051C282.757 15.9759 283.34 14.1455 283.923 12.3151C284.065 11.9224 284.168 11.5075 284.349 11.137C284.67 10.4137 285.348 10.111 285.994 10.3674C286.642 10.6039 286.967 11.243 286.825 11.9962C286.823 12.0361 286.801 12.075 286.798 12.1149C285.885 14.8483 284.991 17.5827 284.057 20.315C283.96 20.63 283.802 20.9418 283.626 21.2324C282.767 22.6267 281.438 22.7529 280.302 21.5678C279.924 21.1661 279.588 20.7267 279.293 20.2696C278.832 19.5428 278.787 19.2799 278.528 19.2454C278.211 19.1877 278.009 19.577 277.25 20.2558C276.764 20.7095 276.222 21.0999 275.624 21.407C274.199 22.1689 272.913 21.5163 272.641 19.9387C272.555 19.3129 272.51 18.6894 272.526 18.0493C272.599 16.0103 272.674 13.9512 272.768 11.9133C272.76 11.6925 272.791 11.4939 272.823 11.2754C272.959 10.642 273.567 10.1551 274.165 10.2084C274.783 10.2629 275.259 10.7101 275.365 11.317C275.407 11.6398 275.408 11.9804 275.389 12.3199C275.361 13.5402 275.205 14.5531 275.232 16.5777ZM294.281 16.4784C294.281 16.4784 295.008 18.1615 295.164 17.8897C295.319 17.6179 295.409 17.0821 295.465 16.8048C295.836 14.8224 296.205 12.8599 296.576 10.8775C296.634 10.5602 296.733 10.2252 296.869 9.93234C297.147 9.26676 297.764 8.98067 298.396 9.13612C299.007 9.31043 299.397 9.87298 299.357 10.5919C299.345 10.7916 299.314 10.9901 299.262 11.2076C298.809 13.586 298.356 15.9645 297.902 18.3629C297.812 18.8987 297.702 19.4334 297.553 19.9459C297.43 20.3597 297.249 20.7302 297.029 21.0785C296.463 21.8883 295.511 22.0755 294.702 21.4896C294.241 21.1434 293.824 20.7195 293.51 20.2413C292.769 19.1583 292.111 18.0399 291.431 16.9404C291.21 16.5875 290.832 15.8253 290.695 15.7576C290.559 15.6899 290.492 16.1669 290.485 16.3067C290.454 17.567 290.424 18.8272 290.395 20.0675C290.385 20.6078 290.434 21.1714 290.384 21.7094C290.366 22.0289 290.267 22.364 290.11 22.6557C289.868 23.0428 289.456 23.2602 288.995 23.2545C288.556 23.23 288.149 22.987 287.932 22.5742C287.787 22.2858 287.705 21.9607 287.704 21.6201C287.707 19.7774 287.73 17.9358 287.812 16.0975C287.848 15.098 288.003 14.1051 288.159 13.1122C288.224 12.6552 288.37 12.2026 288.572 11.8132C289.083 10.9003 290.117 10.6775 290.922 11.3433C291.303 11.6851 291.623 12.0635 291.879 12.4984C292.706 13.8265 294.281 16.4784 294.281 16.4784ZM312.979 18.5227C312.726 18.749 312.456 18.9142 312.103 19.1349C312.612 19.7042 313.195 20.0371 313.714 20.4266C314.174 20.7928 314.678 21.1013 315.096 21.5053C315.516 21.8692 315.568 22.3729 315.379 22.8832C315.212 23.3746 314.818 23.6131 314.352 23.7073C314.028 23.7693 313.694 23.6505 313.288 23.3875C312.628 23.0102 312.466 22.6807 311.724 21.9782C310.375 20.6611 309.929 20.7564 309.806 20.8096C309.744 20.8462 309.703 20.864 309.64 20.9205C309.613 21.3998 309.61 21.8202 309.567 22.2185C309.514 22.8165 309.229 23.2613 308.638 23.4486C308.331 23.5517 307.972 23.5317 307.66 23.3741C307.368 23.2176 307.143 22.9446 307.041 22.6185C306.939 22.2923 306.897 21.9694 306.876 21.6277C306.733 18.8154 306.849 16.0175 307.104 13.2274C307.266 11.4136 307.456 11.2239 309.223 10.8016C310.766 10.427 312.217 10.6281 313.55 11.5037C315.56 12.8176 315.989 15.1852 314.522 17.0664C314.09 17.6232 313.506 18.0513 312.979 18.5227ZM312.307 14.0384C311.694 13.5435 311.108 13.2704 310.336 13.4677C310.072 13.5331 309.88 13.7428 309.824 14.0201C309.719 14.4749 309.653 14.932 309.628 15.3913C309.621 15.8716 309.635 16.3332 309.653 16.7348C309.665 16.8757 309.718 16.9988 309.835 17.0654C309.951 17.132 310.091 17.1398 310.214 17.0866C310.481 16.9812 310.749 16.836 310.998 16.6896C311.41 16.4722 311.786 16.1927 312.105 15.87C312.252 15.738 312.382 15.5649 312.492 15.3908C312.801 14.8872 312.749 14.3835 312.307 14.0384ZM316.989 23.3335C316.976 23.2126 316.982 23.0928 316.968 22.9918C316.994 22.172 317.037 21.3932 317.062 20.5933C317.198 17.7965 317.314 14.9987 317.469 12.203C317.465 11.9223 317.542 11.6261 317.637 11.351C317.843 10.9018 318.198 10.6411 318.72 10.6102C319.223 10.5781 319.591 10.799 319.888 11.2162C320.129 11.5701 320.165 11.9928 320.162 12.4133C320.058 14.6309 319.956 16.8286 319.852 19.0463C319.79 20.1646 319.746 21.3039 319.684 22.4222C319.663 22.8016 319.623 23.1599 319.542 23.536C319.386 24.1683 318.865 24.5398 318.264 24.5264C317.624 24.5107 317.111 24.0214 316.989 23.3335ZM324.293 21.237C324.758 21.1628 325.624 21.0709 325.791 20.5994C325.814 20.5406 325.816 20.5007 325.82 20.4408C325.805 19.9793 325.039 19.7162 324.98 19.6929C324.392 19.4598 323.826 19.1878 323.284 18.8571C321.018 17.4688 321.328 15.1424 322.464 13.8036C323.751 12.2729 325.427 11.6853 327.381 11.8344C327.781 11.8567 328.191 12.0398 328.562 12.2207C329.105 12.5315 329.31 13.1639 329.137 13.7551C328.965 14.3264 328.446 14.658 327.767 14.6202C327.347 14.5968 327.149 14.5657 326.772 14.5046C326.453 14.4668 325.101 14.2912 324.543 14.9612C324.435 15.0954 324.258 15.406 324.285 15.9884C324.382 16.4145 324.672 16.5909 324.985 16.7285C325.512 16.9783 326.06 17.2091 326.566 17.4777C327.071 17.7663 327.595 18.056 328.014 18.4399C329.08 19.4408 329.158 20.9274 328.233 22.0577C327.781 22.6334 327.198 23.0215 326.54 23.3254C325.615 23.7545 324.642 23.9607 323.634 24.0647C322.949 24.1467 322.35 23.7527 322.162 23.1613C321.921 22.4668 322.301 21.7469 323.077 21.4897C323.26 21.4398 323.423 21.3888 323.585 21.3578C323.91 21.2757 324.091 21.2658 324.293 21.237ZM334.262 12.138C334.205 12.7959 334.088 13.4504 333.981 14.3057C334.377 14.0273 334.605 13.8798 334.834 13.7323C335.566 13.1723 336.28 12.5911 337.031 12.0521C337.262 11.8646 337.51 11.7182 337.795 11.634C338.368 11.4256 338.996 11.6609 339.327 12.1802C339.581 12.655 339.545 13.314 339.162 13.7133C338.949 13.9418 338.657 14.1459 338.386 14.3311C337.821 14.7603 337.219 15.1473 336.705 15.7397C336.972 16.696 337.218 17.6712 337.505 18.6287C337.826 19.7082 338.187 20.77 338.528 21.8506C338.631 22.1568 338.733 22.483 338.795 22.807C338.897 23.4937 338.543 24.0949 337.929 24.3211C337.337 24.5285 336.671 24.251 336.345 23.6318C336.184 23.2824 336.043 22.934 335.944 22.5678C335.518 21.2221 335.093 19.8563 334.668 18.5105C334.561 18.2642 334.455 18.0179 334.347 17.7915L333.429 18.4414C333.268 19.8947 333.087 21.3469 332.906 22.7991C332.827 23.4957 332.747 24.2124 332.648 24.908C332.613 25.1864 332.516 25.4815 332.382 25.7344C332.139 26.1415 331.685 26.3766 331.207 26.3299C330.669 26.2799 330.244 25.9958 330.093 25.4666C330.011 25.1415 329.99 24.7998 330.028 24.4814C330.24 22.4701 330.451 20.4788 330.703 18.4897C330.988 16.2421 331.313 14.0167 331.598 11.7691C331.64 11.3708 331.739 11.0358 332.016 10.7508C332.697 10.0276 333.827 10.2309 334.157 11.1506C334.259 11.4768 334.3 11.8196 334.262 12.138ZM348.386 17.7933C348.748 18.134 348.967 18.5268 348.839 19.0204C348.732 19.4952 348.372 19.8557 347.906 19.9499C347.622 20.0142 347.342 19.9986 346.959 20.0373C347 20.3802 347.087 20.6254 347.073 20.865C347.081 21.4463 346.78 21.8101 346.268 22.0219C345.776 22.2148 345.366 22.0317 345.003 21.711C344.832 21.5412 344.706 21.2938 344.556 21.1052C344.389 20.8755 344.327 20.5515 343.954 20.4106C343.598 20.6912 343.2 20.9895 342.822 21.3089C342.55 21.5141 342.278 21.7193 341.936 21.7603C341.431 21.8323 341.017 21.709 340.721 21.2719C340.424 20.8547 340.468 20.4165 340.673 19.9672C340.832 19.6355 341.28 19.5003 341.325 19.0621C340.999 18.8035 340.593 18.901 340.26 18.7623C339.811 18.557 339.467 18.2573 339.415 17.7537C339.315 17.027 339.788 16.4524 340.534 16.3538C340.897 16.314 341.287 16.516 341.659 16.2964C341.612 16.0734 341.585 15.8315 341.559 15.5897C341.535 14.9274 341.818 14.5225 342.39 14.334C342.86 14.16 343.353 14.3076 343.728 14.7692C343.933 15.0411 344.117 15.3318 344.261 15.6202C344.737 16.428 344.755 16.469 345.534 15.7914C345.805 15.5862 346.058 15.3599 346.329 15.1747C346.538 15.0261 346.784 14.9196 347.025 14.913C347.97 14.8456 348.621 15.7432 348.233 16.6029C348.118 16.8569 347.906 17.0655 347.712 17.315C347.835 17.6224 348.177 17.6014 348.386 17.7933Z" fill="black"/>
<path d="M339.145 76.3998L339.317 76.4223C339.39 76.4632 339.422 76.5035 339.451 76.5803C339.666 77.1432 339.698 78.8348 339.806 79.5492C339.849 79.8308 339.922 80.1058 340.04 80.3656C340.662 81.7411 342.686 81.9015 343.959 82.4017C344.131 82.469 344.258 82.5062 344.334 82.6834C344.302 82.7735 344.285 82.8107 344.195 82.8512C343.96 82.9573 343.66 83.0011 343.409 83.0632C342.507 83.2867 341.168 83.493 340.399 83.9838C339.213 84.7416 338.922 86.2547 338.468 87.4976C338.383 87.7298 338.298 88.0804 338.15 88.2732C338.098 88.3411 338.081 88.34 338.002 88.3488L337.93 88.3668C337.836 88.3346 337.819 88.2987 337.78 88.2081C337.675 87.9589 337.64 87.643 337.587 87.3763C337.441 86.6345 337.338 85.8671 337.145 85.1369C337.057 84.8006 336.935 84.4744 336.751 84.1779C336.575 83.8934 336.342 83.6325 336.061 83.4479C335.417 83.0259 333.05 82.5322 332.744 82.0949C332.835 81.8341 333.702 81.7138 333.971 81.6581C337.238 80.9825 337.165 81.1587 338.444 77.9665C338.649 77.4534 338.836 76.8598 339.145 76.3998Z" fill="#FEA7D0"/>
<path d="M339.969 105.803C341.556 104.934 343.121 104.012 344.691 103.11C345.351 102.73 346.007 102.302 346.689 101.964C346.775 101.921 346.846 101.88 346.945 101.898C347.039 101.95 347.098 102.02 347.155 102.11C347.358 102.432 347.532 102.782 347.719 103.116L348.915 105.272C349.795 106.827 350.684 108.377 351.581 109.923C351.838 110.369 352.25 111.228 352.549 111.59C352.739 111.951 352.947 112.302 353.151 112.656C353.131 112.682 353.111 112.712 353.087 112.735C352.923 112.892 352.623 113.024 352.423 113.146C351.988 113.411 351.559 113.687 351.127 113.958L344.872 117.877C344.557 118.076 342.954 119.167 342.691 119.161C342.229 118.407 341.807 117.624 341.366 116.857C340.575 115.506 339.792 114.15 339.016 112.791L337.213 109.67C336.913 109.154 336.586 108.64 336.307 108.113C336.283 108.069 336.279 108.036 336.277 107.987C336.526 107.704 339.407 106.127 339.969 105.803Z" fill="#02C2A2"/>
<path d="M341.449 106.616C341.563 106.539 341.662 106.488 341.802 106.5C342.057 106.621 343.55 108.647 343.872 109.043C344.076 108.736 343.996 106.873 344.205 106.322C344.253 106.197 344.299 106.116 344.423 106.059C344.499 106.06 344.55 106.071 344.617 106.112C344.7 106.163 344.744 106.24 344.767 106.334C344.804 106.487 344.6 108.894 344.558 109.176C344.546 109.252 344.532 109.302 344.494 109.369C344.508 109.366 344.523 109.362 344.537 109.359C344.832 109.293 346.096 107.924 346.487 107.645C346.604 107.562 346.815 107.435 346.96 107.468C347.022 107.482 347.062 107.517 347.088 107.576C347.123 107.653 347.128 107.798 347.094 107.876C347.05 107.975 345.145 109.732 344.996 109.784C345.395 109.992 347.645 110.035 348.258 110.13C348.451 110.16 348.723 110.245 348.829 110.42C348.873 110.493 348.871 110.534 348.853 110.613C348.783 110.698 348.702 110.751 348.597 110.782C348.335 110.859 345.047 110.509 344.799 110.386C345.422 111.212 346.142 111.991 346.8 112.793C347.007 113.046 347.279 113.317 347.436 113.599C347.477 113.672 347.489 113.705 347.468 113.785C347.468 113.794 347.468 113.801 347.467 113.809C347.46 113.908 347.431 113.981 347.352 114.044C347.297 114.088 347.233 114.106 347.163 114.096C347.088 114.086 347.029 114.047 346.975 113.996C346.659 113.7 346.381 113.291 346.102 112.955C345.545 112.284 344.949 111.62 344.446 110.91C344.472 111.147 344.217 113.625 344.126 113.832C344.09 113.915 344.014 113.973 343.927 113.997C343.848 114.02 343.746 114.013 343.678 113.964C343.596 113.904 343.573 113.827 343.559 113.731C343.53 113.526 343.58 113.28 343.604 113.074C343.662 112.563 343.867 111.308 343.823 110.875C343.822 110.864 343.82 110.853 343.819 110.843C343.712 111.081 342.086 112.634 341.874 112.741C341.77 112.794 341.7 112.805 341.589 112.768C341.536 112.718 341.505 112.684 341.484 112.612C341.457 112.524 341.455 112.457 341.493 112.372C341.636 112.052 342.641 111.166 342.949 110.88C343.111 110.73 343.348 110.551 343.452 110.358C343.456 110.352 343.459 110.345 343.462 110.338C343.395 110.368 340.301 109.914 340.083 109.855C339.962 109.822 339.776 109.765 339.717 109.646C339.687 109.585 339.687 109.531 339.718 109.469C339.761 109.383 339.862 109.294 339.956 109.268C340.438 109.137 343.232 109.832 343.533 109.72C343.547 109.715 343.562 109.708 343.576 109.702C343.087 109.057 342.578 108.425 342.078 107.789C341.862 107.515 341.565 107.21 341.414 106.899C341.372 106.813 341.422 106.703 341.449 106.616Z" fill="black"/>
<path d="M338.159 102.485C338.202 102.492 338.209 102.492 338.256 102.507C338.356 102.537 338.458 102.617 338.502 102.713C338.541 102.797 338.535 102.894 338.498 102.977C338.451 103.083 338.362 103.165 338.262 103.22C338.063 103.328 337.839 103.411 337.633 103.506L336.229 104.151L332.089 106.07C329.987 107.058 327.876 108.025 325.755 108.971C324.691 109.454 323.635 109.971 322.555 110.415C322.504 110.406 322.455 110.398 322.41 110.372C322.321 110.322 322.228 110.208 322.208 110.106C322.188 110.007 322.206 109.921 322.263 109.84C322.416 109.622 324.636 108.685 325.076 108.484L335.112 103.872C335.72 103.596 336.325 103.313 336.926 103.023C337.307 102.841 337.746 102.575 338.159 102.485Z" fill="black"/>
<path d="M304.231 111.637C304.519 111.697 305.378 111.82 305.593 111.945C304.885 112.118 304.189 112.396 303.496 112.624C302.086 113.078 300.692 113.578 299.315 114.123C298.696 114.372 298.061 114.619 297.472 114.935C297.05 115.161 296.608 115.451 296.325 115.845C295.369 117.178 295.482 120.07 295.875 121.63C295.946 121.909 296.023 122.208 296.134 122.474C296.257 122.77 296.429 123.066 296.518 123.373C296.546 123.468 296.562 123.569 296.524 123.663C296.491 123.744 296.427 123.804 296.35 123.84C296.259 123.881 296.126 123.887 296.037 123.837C295.742 123.667 295.403 122.707 295.301 122.382C294.733 120.575 294.588 117.466 295.488 115.783C295.79 115.218 296.27 114.798 296.803 114.456C297.674 113.899 298.726 113.529 299.69 113.169C301.187 112.61 302.701 112.1 304.231 111.637Z" fill="black"/>
<path d="M337.155 111.84C337.222 111.843 337.291 111.85 337.352 111.879C337.442 111.922 337.516 111.995 337.548 112.09C337.581 112.188 337.567 112.325 337.513 112.414C337.47 112.484 337.382 112.52 337.31 112.554C336.582 112.897 335.785 113.142 335.037 113.443L329.02 115.86C327.086 116.654 325.141 117.431 323.217 118.252L320.157 119.537C319.494 119.814 318.831 120.111 318.153 120.348C318.092 120.355 318.035 120.352 317.977 120.333C317.873 120.299 317.803 120.254 317.754 120.151C317.712 120.064 317.73 119.95 317.77 119.866C317.815 119.767 317.904 119.685 318 119.638C318.61 119.339 319.282 119.106 319.911 118.847L323.727 117.259C326.207 116.209 328.699 115.187 331.202 114.193L335.034 112.668C335.738 112.391 336.44 112.084 337.155 111.84Z" fill="black"/>
<path d="M321.107 113.481C320.116 112.488 319.538 111.317 319.539 109.895C319.539 108.691 319.927 107.564 320.798 106.708C321.267 106.246 321.849 105.891 322.442 105.613C323.171 105.27 323.949 105.001 324.698 104.701L328.733 103.071L337.676 99.4051C337.887 99.3206 338.189 99.1581 338.416 99.1567C338.51 99.1561 338.624 99.1888 338.689 99.261C338.755 99.335 338.786 99.4186 338.778 99.5174C338.77 99.6168 338.719 99.6989 338.64 99.7577C338.426 99.9184 337.985 100.055 337.727 100.165C336.829 100.556 335.923 100.929 335.01 101.285C334.335 101.549 333.675 101.85 333.003 102.124L327.614 104.308L324.48 105.552C323.512 105.943 322.46 106.302 321.633 106.956C321.59 106.99 321.548 107.024 321.506 107.059C321.465 107.095 321.424 107.131 321.384 107.168C321.344 107.206 321.306 107.244 321.267 107.283C321.229 107.322 321.192 107.362 321.156 107.402C321.12 107.443 321.084 107.485 321.05 107.527C321.016 107.569 320.982 107.612 320.95 107.656C320.918 107.7 320.886 107.745 320.856 107.79C320.825 107.835 320.796 107.881 320.768 107.928C320.74 107.975 320.712 108.022 320.686 108.07C320.66 108.118 320.635 108.166 320.611 108.215C320.588 108.264 320.565 108.314 320.543 108.364C320.522 108.414 320.501 108.464 320.482 108.515C320.463 108.566 320.444 108.618 320.427 108.669C320.411 108.721 320.395 108.773 320.38 108.826C320.366 108.879 320.352 108.931 320.34 108.985C320.328 109.038 320.317 109.091 320.307 109.145C320.108 110.2 320.36 111.362 320.967 112.248C321.312 112.751 321.82 113.188 322.435 113.295C322.602 113.324 322.799 113.353 322.965 113.305C323.558 113.134 324.15 112.8 324.715 112.548C325.899 112.027 327.078 111.492 328.249 110.942C331.768 109.324 335.261 107.652 338.728 105.927C339.014 105.784 339.933 105.172 340.197 105.467C340.265 105.543 340.297 105.701 340.279 105.799C340.254 105.941 340.123 106.027 340.007 106.094C339.735 106.253 339.437 106.384 339.156 106.53C338.262 106.996 337.36 107.444 336.449 107.875L329.948 110.954C328.431 111.669 326.908 112.371 325.379 113.058C324.672 113.373 323.953 113.761 323.207 113.967C322.773 114.088 322.344 114.017 321.917 113.905C319.95 114.819 316.728 115.86 315.916 118.077C315.386 119.526 315.504 121.681 316.159 123.079C316.496 123.797 317.097 124.546 317.864 124.83C318.327 125.002 318.655 124.813 319.068 124.614L333.838 117.376C335.09 116.774 336.346 116.179 337.605 115.593C338.142 115.339 338.872 114.928 339.41 114.757C339.475 114.736 339.552 114.741 339.617 114.761C339.629 114.764 339.64 114.769 339.651 114.774C339.662 114.779 339.673 114.784 339.684 114.79C339.694 114.796 339.704 114.802 339.714 114.81C339.724 114.817 339.733 114.824 339.742 114.832C339.752 114.84 339.76 114.849 339.768 114.858C339.776 114.867 339.784 114.876 339.791 114.886C339.798 114.895 339.805 114.906 339.811 114.916C339.817 114.926 339.823 114.937 339.828 114.948C339.867 115.032 339.873 115.15 339.843 115.237C339.768 115.452 338.938 115.783 338.721 115.885C334.545 117.833 330.392 119.828 326.261 121.869C324.365 122.832 322.459 123.774 320.543 124.697C319.94 124.981 319.339 125.35 318.713 125.573C318.263 125.733 317.835 125.617 317.421 125.415C316.331 124.885 315.638 123.876 315.262 122.749C314.735 121.173 314.667 118.921 315.419 117.415C315.997 116.256 317.103 115.484 318.203 114.863C318.466 114.715 318.747 114.588 319.004 114.432C319.263 114.365 320.126 113.902 320.439 113.756C320.661 113.665 320.89 113.582 321.107 113.481Z" fill="black"/>
<path d="M292.402 121.204C291.897 120.97 291.417 120.703 291.025 120.3C290.358 119.615 289.981 118.727 290.001 117.767C290.019 116.917 290.503 115.675 290.765 114.848L292.025 110.924C293.563 105.958 295.13 101.001 296.726 96.0536C297.219 94.4988 297.678 92.9288 298.152 91.3675C298.383 90.605 298.586 89.8252 298.871 89.0808C299.082 88.5324 299.402 88.0709 299.827 87.6654C300.279 87.2348 300.789 86.9567 301.408 86.857C302.083 86.7482 303.282 86.7923 304.026 86.7801L309.801 86.7047C313.244 86.6227 316.688 86.5619 320.132 86.5224C321.259 86.517 322.406 86.446 323.531 86.4909C323.971 86.5085 324.024 86.917 324.286 87.18C324.397 87.2921 324.461 87.3156 324.621 87.3182C324.634 87.3185 324.646 87.3183 324.659 87.3183C324.007 87.4011 323.307 87.3725 322.648 87.3833L319.416 87.4515L307.465 87.7922L304.193 87.8869C303.529 87.9037 302.841 87.8896 302.182 87.9634C301.871 88.6669 301.656 89.4459 301.404 90.1736C300.888 91.6381 300.383 93.106 299.889 94.5775L296.161 105.569L294.153 111.633C293.893 112.404 293.612 113.17 293.363 113.944C293.241 114.324 293.093 114.737 293.039 115.132C292.843 115.45 292.632 115.783 292.494 116.131C292.056 117.241 291.985 118.708 292.143 119.881C292.203 120.321 292.368 120.767 292.402 121.204Z" fill="#ACE5EC"/>
<path d="M322.456 97.6983C322.623 97.6084 322.793 97.5117 322.979 97.4671C323.555 97.3289 324.758 97.5108 325.415 97.5221C325.624 97.4835 325.851 97.4104 326.04 97.5428C326.07 97.5634 326.098 97.5859 326.126 97.6086C326.584 97.6528 327.048 97.6593 327.509 97.6847C328.165 97.7216 328.821 97.7692 329.476 97.8276C331.039 97.9664 332.604 98.0906 334.169 98.2001C335.113 98.2734 336.062 98.3675 337.008 98.408L326.448 102.806C325.048 103.383 323.645 103.948 322.256 104.556C321.379 104.94 320.447 105.32 319.649 105.856C318.921 106.345 318.391 106.948 318.054 107.762C318.027 107.829 318.001 107.897 317.976 107.965C317.952 108.033 317.929 108.102 317.908 108.171C317.887 108.241 317.868 108.311 317.85 108.381C317.833 108.451 317.817 108.522 317.803 108.593C317.789 108.664 317.777 108.735 317.767 108.807C317.756 108.879 317.748 108.951 317.741 109.023C317.734 109.095 317.729 109.167 317.726 109.24C317.723 109.312 317.721 109.384 317.722 109.457C317.722 109.529 317.725 109.602 317.729 109.674C317.733 109.746 317.738 109.818 317.746 109.891C317.754 109.963 317.763 110.034 317.774 110.106C317.786 110.178 317.799 110.249 317.814 110.32C317.828 110.391 317.845 110.461 317.863 110.531C317.881 110.601 317.902 110.671 317.923 110.74C317.945 110.809 317.969 110.878 317.994 110.946C318.019 111.013 318.046 111.081 318.075 111.147C318.52 112.201 319.352 113.055 320.302 113.674C319.988 113.686 319.629 113.619 319.31 113.593C318.076 113.489 316.847 113.314 315.618 113.162L305.593 111.945C305.378 111.82 304.519 111.697 304.231 111.637C304.011 111.519 303.852 111.36 303.681 111.181C303.446 110.868 303.277 110.532 303.153 110.16C302.653 108.655 302.64 106.16 303.374 104.734C303.577 104.338 303.866 104.059 304.263 103.856C304.995 103.481 305.832 103.245 306.611 102.983C307.697 102.607 308.785 102.24 309.877 101.881L321.586 97.9899C321.862 97.9077 322.207 97.8419 322.456 97.6983Z" fill="#FD4B11"/>
<path d="M325.415 97.522C325.624 97.4833 325.851 97.4103 326.04 97.5427C326.07 97.5633 326.098 97.5858 326.126 97.6085C326.129 97.6761 326.132 97.7441 326.13 97.8118C326.127 97.9297 326.083 98.0419 325.993 98.1211C325.799 98.2926 325.093 98.4311 324.811 98.5242L314.395 101.998C312.771 102.53 311.15 103.073 309.534 103.628C308.456 103.995 307.345 104.342 306.298 104.789C306.042 104.899 305.786 105.037 305.586 105.234C304.813 105.995 304.851 107.612 305.019 108.591C305.085 108.977 305.203 109.362 305.323 109.735C305.41 110.009 305.731 110.675 305.71 110.92C305.702 111.006 305.64 111.098 305.568 111.143C305.466 111.208 305.295 111.231 305.184 111.181C305.012 111.105 304.898 110.82 304.829 110.652C304.198 109.138 303.861 107.128 304.504 105.571C304.708 105.077 305.01 104.664 305.473 104.388C306.058 104.04 306.742 103.828 307.38 103.597C308.476 103.207 309.575 102.829 310.679 102.464L319.738 99.4121L323.314 98.2293C323.996 98.0053 324.719 97.8107 325.382 97.5359L325.415 97.522Z" fill="black"/>
<path d="M324.659 87.3181C324.869 87.307 325.246 87.2409 325.426 87.371C325.492 87.4184 325.545 87.5151 325.548 87.5959C325.556 87.8333 324.676 89.9877 324.521 90.4515C323.879 92.3633 323.304 94.295 322.796 96.2468C322.671 96.7283 322.577 97.2161 322.456 97.6979C322.207 97.8416 321.862 97.9073 321.586 97.9895L309.877 101.881C308.785 102.239 307.696 102.606 306.61 102.982C305.832 103.244 304.995 103.48 304.262 103.855C303.866 104.058 303.577 104.337 303.374 104.733C302.64 106.16 302.653 108.655 303.153 110.16C303.277 110.532 303.446 110.867 303.681 111.181C301.509 111.795 299.331 112.381 297.202 113.141C296.581 113.363 295.958 113.585 295.351 113.847C294.911 114.036 294.458 114.29 294.005 114.439C293.692 114.71 293.385 114.752 293.039 115.132C293.093 114.737 293.241 114.324 293.363 113.944C293.612 113.17 293.893 112.404 294.153 111.633L296.161 105.569L299.889 94.5773C300.383 93.1058 300.888 91.6379 301.404 90.1734C301.656 89.4457 301.871 88.6667 302.182 87.9632C302.841 87.8894 303.529 87.9035 304.193 87.8867L307.465 87.792L319.416 87.4513L322.648 87.3831C323.307 87.3723 324.007 87.4009 324.659 87.3181Z" fill="#ACE5EC"/>
<path d="M324.659 87.3181C324.869 87.307 325.246 87.2409 325.426 87.371C325.492 87.4184 325.545 87.5151 325.548 87.5959C325.556 87.8333 324.676 89.9877 324.521 90.4515C323.879 92.3633 323.304 94.295 322.796 96.2468C322.671 96.7283 322.577 97.2161 322.456 97.6979C322.207 97.8416 321.862 97.9073 321.586 97.9895C321.982 96.6913 322.23 95.3457 322.616 94.0422C323.024 92.6528 323.467 91.2746 323.945 89.9076C324.164 89.2779 324.416 88.6591 324.625 88.0263L302.693 88.6486C302.329 89.6561 302.008 90.6781 301.656 91.6896C300.214 95.8129 298.807 99.9478 297.433 104.094L295.42 110.138C294.941 111.555 294.398 112.999 294.005 114.439C293.692 114.71 293.385 114.752 293.039 115.132C293.093 114.737 293.241 114.324 293.363 113.944C293.612 113.17 293.893 112.404 294.153 111.633L296.161 105.569L299.889 94.5773C300.383 93.1058 300.888 91.6379 301.404 90.1734C301.656 89.4457 301.871 88.6667 302.182 87.9632C302.841 87.8894 303.529 87.9035 304.193 87.8867L307.465 87.792L319.416 87.4513L322.648 87.3831C323.307 87.3723 324.007 87.4009 324.659 87.3181Z" fill="black"/>
<path d="M319.467 91.8291C319.55 91.8342 319.598 91.8185 319.66 91.8794C319.472 92.539 319.232 93.1902 319.016 93.8417C318.722 94.7298 318.44 95.6272 318.11 96.5024C317.518 96.4727 316.921 96.5102 316.329 96.518C314.971 96.5359 313.62 96.5694 312.263 96.6146C311.102 96.6534 309.939 96.6363 308.777 96.6607C307.411 96.6895 306.047 96.7565 304.681 96.782C304.623 96.7847 304.568 96.7841 304.511 96.7824L304.482 96.7368C304.597 96.196 304.802 95.6516 304.961 95.1194C305.237 94.1966 305.564 92.9345 305.946 92.0843C306.743 92.0923 307.541 92.0644 308.339 92.0588C312.049 92.0146 315.758 91.938 319.467 91.8291Z" fill="#FDFDFD"/>
</svg>
