<svg width="1435" height="393" viewBox="0 0 1435 393" fill="none" xmlns="http://www.w3.org/2000/svg">
<path d="M855.177 284.957C856.026 285.473 856.617 286.151 856.572 287.17C856.561 288.143 856.006 288.998 855.133 289.376C854.604 289.62 854.051 289.706 853.318 289.941C853.541 290.594 853.812 291.038 853.886 291.512C854.142 292.646 853.705 293.483 852.79 294.111C851.909 294.692 851.03 294.505 850.187 294.028C849.782 293.767 849.432 293.336 849.061 293.029C848.638 292.649 848.382 292.041 847.594 291.92C847.014 292.618 846.361 293.366 845.753 294.149C845.307 294.663 844.86 295.177 844.207 295.4C843.249 295.751 842.388 295.682 841.627 294.95C840.872 294.257 840.777 293.381 840.992 292.417C841.165 291.702 841.985 291.251 841.89 290.376C841.145 290.005 840.391 290.365 839.682 290.232C838.718 290.017 837.921 289.574 837.609 288.61C837.112 287.23 837.798 285.909 839.218 285.406C839.911 285.177 840.757 285.411 841.395 284.826C841.209 284.41 841.056 283.947 840.903 283.485C840.583 282.199 840.968 281.29 842.007 280.683C842.855 280.147 843.88 280.231 844.806 280.978C845.32 281.425 845.801 281.917 846.203 282.421C847.47 283.804 847.521 283.877 848.763 282.227C849.21 281.713 849.611 281.165 850.063 280.69C850.41 280.312 850.847 280.002 851.316 279.889C853.137 279.364 854.783 280.849 854.381 282.692C854.263 283.237 853.935 283.733 853.659 284.302C854.027 284.852 854.687 284.669 855.177 284.957ZM863.463 278.452C862.816 278.714 863.344 283.166 863.776 283.342C864.214 283.557 865.223 283.279 866.014 283.157C867.574 283.037 870.052 282.572 870.797 282.942C871.792 283.355 872.221 283.774 872.505 284.823C873.041 288.544 865.177 288.468 864.77 288.976C864.497 289.302 864.699 290.606 864.812 291.6C864.923 292.838 864.642 294.946 865.5 294.732C869.522 293.785 871.855 293.95 872.236 295.105C872.739 295.999 872.521 297.206 872.039 298.01C871.167 299.44 868.974 299.132 864.815 299.979C861.994 300.578 860.483 298.14 860.13 295.605C859.306 289.499 858.317 283.378 857.605 277.214C857.542 275.241 858.231 274.203 860.143 273.745C862.898 273.237 865.722 272.395 868.544 272.322C871.285 272.504 871.766 276.396 869.198 277.321C867.331 277.812 864.111 278.19 863.463 278.452ZM882.227 286.393C882.783 288.411 882.987 288.946 883.361 289.01C884.353 289.14 885.569 285.753 887.137 281.503C888.283 278.452 889.6 275.455 891.093 272.552C891.214 272.29 891.381 272.062 891.548 271.834C891.822 271.508 892.402 270.811 893.35 270.664C893.87 270.624 894.409 270.703 894.853 270.957C896.122 271.57 896.613 272.911 896.11 274.365C895.967 274.752 895.785 275.144 895.557 275.503C893.072 280.624 890.547 285.751 888.062 290.872C887.564 291.84 887.112 292.841 886.478 293.708C884.659 296.338 881.891 296.24 880.14 293.557C879.719 292.934 879.372 292.259 879.104 291.572C877.295 286.428 875.486 281.285 873.716 276.135C873.652 275.983 873.628 275.825 873.603 275.667C873.335 274.453 873.92 273.27 875.011 272.736C875.951 272.267 877.316 272.46 878.023 273.363C878.729 274.265 879.147 275.131 879.284 275.758C880.085 279.358 881.314 282.851 882.227 286.393ZM904.729 272.058C904.081 272.321 904.609 276.772 905.041 276.948C905.479 277.164 906.489 276.886 907.279 276.763C908.839 276.643 911.317 276.178 912.063 276.548C913.057 276.961 913.487 277.38 913.771 278.429C914.307 282.151 906.442 282.074 906.035 282.582C905.762 282.908 905.964 284.213 906.078 285.207C906.188 286.445 905.908 288.552 906.765 288.339C910.788 287.392 913.12 287.556 913.502 288.712C914.005 289.605 913.787 290.813 913.304 291.616C912.433 293.046 910.24 292.738 906.081 293.585C903.259 294.184 901.748 291.747 901.396 289.211C900.571 283.105 899.582 276.984 898.87 270.821C898.807 268.847 899.496 267.809 901.409 267.351C904.164 266.843 906.988 266.001 909.81 265.928C912.55 266.111 913.032 270.003 910.463 270.927C908.596 271.419 905.376 271.796 904.729 272.058ZM929.556 276.874C929.556 276.874 931.679 279.864 931.87 279.268C932.061 278.672 932.014 277.586 932.008 277.02C931.909 272.988 931.817 268.995 931.718 264.962C931.699 264.318 931.753 263.621 931.899 262.992C932.165 261.574 933.253 260.758 934.554 260.799C935.822 260.886 936.818 261.825 937.038 263.248C937.1 263.643 937.121 264.044 937.11 264.491C937.212 269.333 937.315 274.174 937.423 279.055C937.47 280.141 937.477 281.232 937.399 282.297C937.33 283.158 937.13 283.958 936.845 284.73C936.075 286.55 934.29 287.312 932.465 286.502C931.418 286.017 930.426 285.361 929.613 284.556C927.714 282.745 925.96 280.831 924.173 278.963C923.594 278.364 922.538 277.03 922.243 276.955C921.948 276.879 922.015 277.84 922.058 278.117C922.523 280.595 922.988 283.073 923.447 285.511C923.652 286.572 923.981 287.655 924.107 288.728C924.205 289.36 924.151 290.057 923.966 290.693C923.654 291.551 922.937 292.147 922.034 292.328C921.164 292.463 920.267 292.156 919.67 291.439C919.268 290.935 918.972 290.333 918.829 289.667C918.068 286.061 917.346 282.449 916.743 278.819C916.397 276.848 916.289 274.841 916.18 272.834C916.118 271.913 916.215 270.967 916.448 270.121C917.069 268.123 919 267.257 920.85 268.225C921.738 268.735 922.52 269.342 923.202 270.087C925.373 272.341 929.556 276.874 929.556 276.874ZM956.41 284.006C956.334 283.775 956.297 283.538 956.227 283.347C955.936 281.732 955.697 280.191 955.413 278.616C954.516 273.088 953.58 267.566 952.722 262.032C952.597 261.485 952.624 260.873 952.696 260.295C952.911 259.331 953.497 258.674 954.506 258.396C955.476 258.124 956.289 258.403 957.044 259.096C957.662 259.688 957.909 260.5 958.077 261.324C958.796 265.705 959.509 270.047 960.229 274.429C960.572 276.642 960.96 278.889 961.303 281.103C961.42 281.854 961.49 282.572 961.488 283.341C961.447 284.643 960.581 285.586 959.402 285.81C958.143 286.045 956.935 285.301 956.41 284.006ZM969.274 262.463C968.982 262.67 968.475 263.315 968.761 263.595C969.047 263.874 969.77 263.317 971.224 263.294C972.678 263.271 973.28 264.028 973.656 265.144C973.985 266.226 973.558 267.385 972.597 267.979C971.67 268.527 969.953 269.198 969.543 269.424C969.485 269.311 969.769 273.234 969.984 275.144C970.213 276.889 970.404 278.641 970.588 280.353C970.656 280.787 970.677 281.189 970.62 281.602C970.551 282.989 969.579 284.03 968.308 284.187C967.11 284.291 965.884 283.429 965.517 282.11C965.429 281.8 965.38 281.483 965.364 281.121C964.47 274.824 963.858 268.524 963.516 262.141C963.507 261.818 963.497 261.496 963.488 261.173C963.529 259.346 964.482 258.186 966.179 257.64C967.452 257.24 968.732 256.88 970.025 256.599C971.739 256.171 973.466 255.823 975.187 255.435C975.735 255.309 976.334 255.257 976.893 255.211C978.222 255.167 979.376 256.081 979.617 257.379C979.795 258.526 979.163 259.676 977.948 260.188C977.34 260.444 976.719 260.621 976.054 260.765C974.175 261.177 972.296 261.59 970.417 262.002C970.027 262.103 969.644 262.244 969.274 262.463ZM1003.31 259.538C1003.56 260.146 1003.93 260.696 1004.38 261.516C1004.65 260.868 1004.91 260.463 1005.04 259.998C1005.86 257.443 1006.63 254.893 1007.41 252.304C1007.58 251.833 1007.66 251.334 1007.84 250.902C1008.38 249.685 1009.54 249.1 1010.71 249.324C1011.88 249.547 1012.77 250.584 1012.83 251.788C1012.85 252.432 1012.76 253.135 1012.57 253.771C1012.22 255.122 1011.78 256.484 1011.38 257.841C1009.43 264.336 1007.45 270.837 1005.49 277.293C1005.25 278.099 1005.06 278.938 1004.69 279.684C1004.12 280.986 1002.83 281.55 1001.6 281.174C1000.37 280.798 999.584 279.665 999.732 278.266C999.777 277.773 999.907 277.308 1000.08 276.836C1000.54 275.145 1000.92 273.387 1001.56 271.75C1002.13 270.204 1001.84 268.872 1001.13 267.444C1000.15 265.532 999.269 263.523 998.397 261.553C997.211 258.863 996.065 256.167 994.925 253.51C994.303 252.109 994.919 250.596 996.262 249.862C997.426 249.277 998.993 249.722 999.754 250.981C1000.19 251.683 1000.47 252.488 1000.79 253.248C1001.64 255.343 1002.46 257.443 1003.31 259.538ZM1016.41 254.067C1017.01 252.963 1017.87 252.019 1018.89 251.294C1019.22 251.041 1024.05 247.46 1028.6 249.182C1030.62 249.922 1032.17 251.584 1032.27 251.651C1033.68 253.212 1034.67 255.124 1035.06 257.167C1036.08 262.151 1034.91 266.623 1031.71 270.558C1030.66 271.855 1029.31 272.832 1027.77 273.597C1025.37 274.819 1021.89 274.549 1019.42 272.18C1017.93 270.71 1016.8 268.862 1016.24 266.843C1016.04 266.025 1015.91 265.195 1015.74 264.411C1015.02 261.042 1014.92 258.588 1015.68 255.88C1015.86 255.245 1016.09 254.642 1016.41 254.067ZM1027.48 267.287C1029.58 264.898 1030.35 262.026 1029.91 258.897C1029.68 257.435 1029.16 256.14 1028.14 255.082C1026.57 253.545 1024.34 253.526 1022.75 255.027C1022.01 255.749 1021.45 256.565 1021.25 257.608C1021.14 258.231 1020.96 258.907 1020.94 259.558C1020.82 261.924 1020.78 264.278 1021.85 266.46C1023.19 269.369 1025.31 269.689 1027.48 267.287ZM1054.06 268.513C1053.82 267.215 1053.75 266.78 1053.54 266.731C1053.25 266.695 1052.98 267.587 1052.74 268.11C1051.66 270.301 1048.27 271.919 1045.37 271.195C1043.22 270.678 1041.92 269.098 1041.43 268.244C1040.65 266.867 1040.05 265.38 1039.66 263.863C1038.7 260.288 1038.49 256.596 1038.2 252.917C1038.19 252.594 1038.22 252.226 1038.29 251.931C1038.52 250.803 1039.49 249.965 1040.57 249.879C1041.65 249.832 1042.6 250.211 1043.04 251.236C1043.36 251.996 1043.61 252.807 1043.66 253.65C1043.91 255.553 1044.13 257.463 1044.26 259.385C1044.63 264.63 1045.07 265.332 1045.65 265.688C1046.35 266.064 1047.35 265.99 1047.98 265.609C1048.83 265.073 1049.24 263.309 1049.99 259.753C1049.98 259.713 1050.02 259.668 1050.04 259.582C1050.13 259.123 1050.39 257.87 1050.7 255.716C1050.87 254.719 1051.13 253.788 1051.26 252.796C1051.36 252.133 1051.54 251.458 1051.81 250.849C1052.26 249.848 1053.11 249.352 1054.2 249.344C1055.34 249.371 1056.35 250.105 1056.67 251.148C1056.85 251.808 1056.96 252.48 1057.02 253.158C1057.46 258.069 1058.33 262.913 1059.41 267.765C1059.61 268.544 1059.74 269.374 1059.83 270.21C1059.95 271.809 1059.12 272.951 1057.74 273.205C1056.32 273.425 1055.2 272.748 1054.71 271.164C1054.64 270.933 1054.46 270.596 1054.06 268.513ZM1080.53 247.573C1080.53 247.573 1080.49 246.567 1080.21 246.53C1079.96 246.528 1077.25 247.029 1076.53 247.343C1075.92 247.599 1075.26 247.782 1074.57 247.808C1073.46 247.9 1072.42 247.25 1072.02 246.18C1071.59 244.992 1071.89 243.811 1072.99 243.074C1073.55 242.745 1074.15 242.45 1074.81 242.306C1077.96 241.454 1081.11 240.642 1084.27 239.869C1086.07 239.429 1087.86 238.989 1089.67 238.629C1090.41 238.473 1091.14 238.441 1091.87 238.489C1092.99 238.64 1093.72 239.418 1093.91 240.44C1094.16 241.495 1093.83 242.477 1092.86 243.071C1092.19 243.419 1091.5 243.687 1090.76 243.882C1089.17 244.331 1087.57 244.661 1085.85 245.089C1085.9 245.931 1085.88 246.582 1085.98 247.215C1086.44 251.475 1086.93 255.729 1087.38 259.949C1087.53 260.859 1087.55 261.786 1087.53 262.72C1087.39 264.158 1086.47 265.029 1085.12 265.158C1083.79 265.242 1082.6 264.334 1082.4 263.029C1082.03 260.901 1081.85 258.702 1081.6 256.556C1080.95 251.353 1080.53 247.573 1080.53 247.573ZM1110.91 259.664C1110.43 257.877 1110.01 254.137 1109.73 254.383C1109.73 254.14 1108.93 254.506 1108.71 254.621C1107.19 255.262 1104.48 256.086 1104.15 256.542C1103.78 257.005 1104.65 260.027 1104.65 261.849C1104.68 264.637 1100.69 265.295 1099.7 262.818C1097.91 255.485 1097.51 247.897 1096.36 240.466C1096.05 239.016 1096.83 237.519 1098.26 237.094C1100.48 236.508 1101.69 238.547 1101.87 240.542C1102.33 243.993 1101.63 251.266 1103.14 250.829C1104.61 250.399 1107.95 249.72 1108.68 248.676C1109.37 247.678 1107.36 239.895 1108.1 235.53C1108.26 234.736 1108.81 234.085 1109.57 233.764C1110.33 233.444 1111.19 233.513 1111.85 233.896C1113.13 234.548 1113.14 235.962 1113.22 237.206C1113.62 244.228 1114.77 251.172 1115.89 258.123C1115.98 258.716 1115.91 259.294 1115.71 259.851C1114.92 262.078 1111.62 261.902 1110.91 259.664ZM1120.2 258.63C1120.12 258.399 1120.09 258.162 1120.01 257.97C1119.72 256.355 1119.49 254.814 1119.2 253.239C1118.3 247.711 1117.37 242.189 1116.51 236.655C1116.38 236.108 1116.41 235.497 1116.48 234.919C1116.7 233.955 1117.29 233.297 1118.29 233.019C1119.26 232.748 1120.08 233.026 1120.83 233.719C1121.45 234.311 1121.7 235.123 1121.86 235.947C1122.58 240.329 1123.3 244.671 1124.02 249.052C1124.36 251.266 1124.75 253.513 1125.09 255.726C1125.21 256.477 1125.28 257.195 1125.28 257.964C1125.23 259.266 1124.37 260.21 1123.19 260.433C1121.93 260.669 1120.72 259.925 1120.2 258.63ZM1140.13 244.248C1140.13 244.248 1142.25 247.239 1142.44 246.642C1142.63 246.046 1142.59 244.96 1142.58 244.395C1142.48 240.362 1142.39 236.369 1142.29 232.337C1142.27 231.692 1142.33 230.996 1142.47 230.366C1142.74 228.949 1143.83 228.133 1145.13 228.174C1146.4 228.261 1147.39 229.199 1147.61 230.622C1147.67 231.018 1147.69 231.419 1147.68 231.866C1147.79 236.707 1147.89 241.549 1148 246.43C1148.04 247.515 1148.05 248.607 1147.97 249.672C1147.9 250.532 1147.7 251.332 1147.42 252.105C1146.65 253.925 1144.86 254.687 1143.04 253.877C1141.99 253.391 1141 252.735 1140.19 251.93C1138.29 250.12 1136.53 248.206 1134.75 246.337C1134.17 245.739 1133.11 244.405 1132.82 244.329C1132.52 244.253 1132.59 245.214 1132.63 245.491C1133.1 247.969 1133.56 250.447 1134.02 252.886C1134.23 253.947 1134.55 255.029 1134.68 256.103C1134.78 256.735 1134.72 257.431 1134.54 258.067C1134.23 258.925 1133.51 259.522 1132.61 259.702C1131.74 259.837 1130.84 259.531 1130.24 258.814C1129.84 258.309 1129.55 257.708 1129.4 257.042C1128.64 253.436 1127.92 249.824 1127.32 246.193C1126.97 244.223 1126.86 242.216 1126.75 240.209C1126.69 239.287 1126.79 238.342 1127.02 237.496C1127.64 235.497 1129.57 234.631 1131.42 235.6C1132.31 236.11 1133.09 236.717 1133.78 237.461C1135.95 239.716 1140.13 244.248 1140.13 244.248ZM1156.9 228.374C1157.06 229.684 1157.11 231.013 1157.25 232.731C1157.91 232.022 1158.3 231.638 1158.68 231.255C1159.88 229.855 1161.04 228.421 1162.28 227.054C1162.65 226.591 1163.08 226.202 1163.6 225.918C1164.64 225.273 1165.96 225.472 1166.83 226.35C1167.52 227.173 1167.72 228.478 1167.14 229.418C1166.82 229.954 1166.33 230.474 1165.88 230.949C1164.95 232.024 1163.94 233.031 1163.18 234.404C1164.1 236.163 1164.98 237.969 1165.94 239.723C1167.02 241.701 1168.17 243.628 1169.28 245.601C1169.61 246.157 1169.95 246.753 1170.2 247.361C1170.69 248.662 1170.25 249.985 1169.14 250.683C1168.07 251.335 1166.65 251.068 1165.75 249.993C1165.29 249.376 1164.87 248.753 1164.53 248.078C1163.13 245.622 1161.74 243.127 1160.34 240.671C1160.03 240.234 1159.72 239.796 1159.42 239.398L1157.89 241.051C1158.18 243.961 1158.43 246.877 1158.68 249.794C1158.82 251.189 1158.96 252.625 1159.05 254.026C1159.1 254.586 1159.03 255.203 1158.88 255.754C1158.57 256.651 1157.78 257.3 1156.82 257.408C1155.75 257.533 1154.8 257.154 1154.29 256.182C1153.99 255.58 1153.81 254.92 1153.75 254.281C1153.33 250.258 1152.91 246.275 1152.58 242.279C1152.2 237.764 1151.91 233.275 1151.54 228.759C1151.45 227.963 1151.51 227.266 1151.93 226.594C1152.96 224.896 1155.26 224.823 1156.28 226.486C1156.62 227.081 1156.84 227.735 1156.9 228.374ZM869.325 320.773C869.581 321.381 869.95 321.931 870.401 322.752C870.665 322.104 870.926 321.699 871.056 321.234C871.874 318.678 872.653 316.129 873.426 313.54C873.596 313.069 873.68 312.57 873.856 312.138C874.396 310.921 875.56 310.336 876.729 310.559C877.897 310.783 878.786 311.819 878.851 313.024C878.87 313.668 878.776 314.371 878.591 315.007C878.234 316.357 877.797 317.72 877.401 319.077C875.452 325.572 873.464 332.073 871.509 338.528C871.27 339.335 871.076 340.174 870.706 340.92C870.139 342.222 868.85 342.786 867.618 342.41C866.386 342.034 865.603 340.901 865.75 339.502C865.795 339.009 865.926 338.543 866.096 338.072C866.562 336.38 866.937 334.622 867.574 332.985C868.144 331.44 867.857 330.108 867.15 328.68C866.166 326.768 865.288 324.759 864.416 322.789C863.23 320.099 862.084 317.402 860.943 314.746C860.321 313.344 860.937 311.832 862.281 311.098C863.445 310.513 865.011 310.958 865.773 312.216C866.206 312.918 866.492 313.724 866.812 314.484C867.663 316.578 868.474 318.679 869.325 320.773ZM882.427 315.303C883.025 314.198 883.891 313.255 884.912 312.53C885.237 312.277 890.066 308.695 894.623 310.418C896.64 311.158 898.193 312.82 898.284 312.887C899.7 314.448 900.684 316.36 901.082 318.403C902.097 323.387 900.928 327.858 897.733 331.794C896.679 333.091 895.333 334.068 893.792 334.833C891.39 336.055 887.908 335.785 885.436 333.416C883.953 331.945 882.817 330.098 882.261 328.079C882.054 327.261 881.925 326.431 881.763 325.646C881.039 322.278 880.942 319.824 881.696 317.116C881.881 316.48 882.112 315.878 882.427 315.303ZM893.502 328.523C895.601 326.134 896.37 323.262 895.926 320.133C895.699 318.67 895.175 317.376 894.161 316.318C892.587 314.781 890.358 314.762 888.769 316.263C888.031 316.985 887.469 317.8 887.266 318.844C887.161 319.467 886.982 320.143 886.961 320.793C886.842 323.16 886.802 325.513 887.869 327.696C889.21 330.605 891.324 330.925 893.502 328.523ZM920.077 329.749C919.835 328.45 919.768 328.016 919.558 327.967C919.269 327.931 919.002 328.822 918.759 329.346C917.682 331.536 914.29 333.155 911.385 332.431C909.24 331.913 907.943 330.333 907.447 329.479C906.667 328.103 906.072 326.616 905.675 325.099C904.716 321.524 904.509 317.832 904.222 314.152C904.212 313.83 904.236 313.462 904.312 313.167C904.542 312.038 905.505 311.201 906.585 311.115C907.67 311.068 908.619 311.447 909.062 312.472C909.382 313.231 909.629 314.043 909.678 314.886C909.933 316.789 910.148 318.699 910.284 320.62C910.651 325.866 911.084 326.568 911.665 326.923C912.371 327.3 913.371 327.226 914 326.845C914.848 326.309 915.263 324.544 916.007 320.988C916.001 320.949 916.035 320.903 916.062 320.818C916.153 320.359 916.404 319.106 916.718 316.952C916.887 315.954 917.148 315.024 917.277 314.032C917.377 313.369 917.556 312.694 917.826 312.085C918.278 311.084 919.132 310.587 920.224 310.58C921.361 310.606 922.365 311.341 922.689 312.384C922.872 313.044 922.976 313.716 923.041 314.394C923.478 319.305 924.35 324.148 925.425 329.001C925.627 329.779 925.755 330.609 925.845 331.446C925.971 333.045 925.136 334.186 923.758 334.44C922.335 334.661 921.219 333.984 920.73 332.4C920.654 332.169 920.48 331.831 920.077 329.749ZM940.355 317.702C939.955 318.25 939.496 318.685 938.897 319.263C940.13 320.165 941.408 320.575 942.585 321.121C943.638 321.646 944.751 322.04 945.737 322.656C946.711 323.193 947.022 324.157 946.865 325.234C946.742 326.265 946.07 326.895 945.198 327.273C944.59 327.529 943.887 327.436 942.984 327.09C941.536 326.626 941.082 326.049 939.338 324.983C936.152 322.967 935.319 323.339 935.1 323.495C934.994 323.592 934.921 323.644 934.821 323.781C934.968 324.73 935.136 325.554 935.219 326.35C935.363 327.542 934.99 328.531 933.911 329.143C933.355 329.472 932.644 329.583 931.968 329.404C931.332 329.219 930.778 328.779 930.443 328.183C930.108 327.587 929.892 326.973 929.708 326.314C928.258 320.871 927.322 315.35 926.662 309.785C926.223 306.17 926.518 305.719 929.797 304.159C932.661 302.784 935.583 302.574 938.555 303.733C943.034 305.467 944.857 309.921 942.769 314.211C942.156 315.48 941.19 316.56 940.355 317.702ZM937.177 309.208C935.772 308.495 934.512 308.204 933.084 308.912C932.594 309.149 932.306 309.639 932.313 310.205C932.295 311.138 932.357 312.06 932.498 312.969C932.685 313.912 932.905 314.808 933.106 315.587C933.188 315.857 933.344 316.076 933.599 316.158C933.855 316.24 934.132 316.197 934.35 316.042C934.828 315.725 935.292 315.329 935.718 314.939C936.435 314.342 937.054 313.639 937.543 312.875C937.777 312.556 937.959 312.163 938.102 311.777C938.496 310.664 938.185 309.7 937.177 309.208ZM976.82 322.131C976.156 321.505 975.593 320.742 974.847 319.846C973.947 320.309 973.193 320.669 972.433 320.989C969.129 322.392 965.64 321.556 963.423 318.742C962.82 317.986 962.324 317.132 961.906 316.265C961.001 314.341 960.862 312.663 960.73 311.024C960.73 311.024 960.382 306.949 961.439 303.587C961.706 302.696 962.064 301.871 962.064 301.871C962.422 301.047 962.871 300.289 963.418 299.638C964.065 298.849 965.259 297.936 966.791 297.375C968.296 296.899 969.856 296.778 971.392 297.026C972.895 297.319 974.282 297.914 975.515 298.816C976.793 299.751 977.871 300.96 978.651 302.337C979.714 304.237 980.249 306.38 980.218 308.53C980.184 310.924 979.435 313.145 978.449 315.402C978.869 316.025 979.284 316.609 979.704 317.232C980.072 317.782 980.514 318.28 980.849 318.876C981.623 320.213 981.39 321.585 980.23 322.453C979.215 323.217 977.828 323.149 976.82 322.131ZM968.983 316.221C969.81 316.336 970.64 316.207 971.329 315.17C970.708 314.294 970.066 313.544 969.529 312.696C968.865 311.544 968.992 310.27 969.836 309.451C970.641 308.638 971.906 308.442 973.05 309.034C973.534 309.283 973.991 309.617 974.538 310.017C974.796 309.33 974.89 308.627 974.859 307.904C974.852 307.864 974.834 307.745 974.861 307.66C974.757 306.988 974.568 306.289 974.312 305.681C973.894 304.815 973.394 303.678 972.192 302.974C971.48 302.558 970.714 302.312 969.859 302.283C969.214 302.302 968.561 302.524 968.062 302.966C967.883 303.115 967.75 303.298 967.616 303.48C967.282 303.937 967.039 304.46 966.888 305.05C966.369 306.669 966.101 308.329 966.127 310.066C966.162 311.599 966.261 313.283 967.236 314.873C967.662 315.535 968.195 316.1 968.983 316.221ZM998.94 317.53C998.699 316.232 998.631 315.797 998.422 315.748C998.133 315.712 997.866 316.603 997.623 317.127C996.546 319.318 993.154 320.936 990.249 320.212C988.104 319.695 986.807 318.115 986.31 317.26C985.53 315.884 984.936 314.397 984.539 312.88C983.58 309.305 983.372 305.613 983.086 301.934C983.076 301.611 983.1 301.243 983.176 300.948C983.406 299.82 984.369 298.982 985.448 298.896C986.534 298.849 987.483 299.228 987.925 300.253C988.245 301.013 988.493 301.824 988.542 302.667C988.797 304.57 989.012 306.48 989.147 308.402C989.515 313.647 989.947 314.349 990.529 314.704C991.235 315.081 992.235 315.007 992.864 314.626C993.712 314.09 994.127 312.326 994.871 308.77C994.865 308.73 994.898 308.684 994.926 308.599C995.017 308.14 995.268 306.887 995.582 304.733C995.751 303.736 996.011 302.805 996.141 301.813C996.241 301.15 996.419 300.475 996.689 299.866C997.142 298.865 997.996 298.369 999.087 298.361C1000.22 298.388 1001.23 299.122 1001.55 300.165C1001.74 300.825 1001.84 301.497 1001.9 302.175C1002.34 307.086 1003.21 311.93 1004.29 316.782C1004.49 317.56 1004.62 318.391 1004.71 319.227C1004.83 320.826 1004 321.968 1002.62 322.221C1001.2 322.442 1000.08 321.765 999.594 320.181C999.518 319.95 999.344 319.613 998.94 317.53ZM1011.2 296.04C1010.55 296.302 1011.08 300.754 1011.51 300.929C1011.95 301.145 1012.96 300.867 1013.75 300.745C1015.31 300.624 1017.79 300.159 1018.53 300.53C1019.53 300.942 1019.96 301.361 1020.24 302.41C1020.78 306.132 1012.91 306.055 1012.51 306.564C1012.23 306.889 1012.43 308.194 1012.55 309.188C1012.66 310.426 1012.38 312.534 1013.24 312.32C1017.26 311.373 1019.59 311.538 1019.97 312.693C1020.47 313.586 1020.26 314.794 1019.77 315.597C1018.9 317.028 1016.71 316.72 1012.55 317.566C1009.73 318.166 1008.22 315.728 1007.87 313.192C1007.04 307.086 1006.05 300.966 1005.34 294.802C1005.28 292.828 1005.97 291.791 1007.88 291.332C1010.63 290.825 1013.46 289.982 1016.28 289.909C1019.02 290.092 1019.5 293.984 1016.93 294.908C1015.07 295.4 1011.85 295.777 1011.2 296.04ZM1029.4 308.116C1030.27 307.777 1031.93 307.237 1032.06 306.246C1032.08 306.121 1032.07 306.042 1032.05 305.923C1031.83 305.027 1030.22 304.831 1030.1 304.809C1028.85 304.598 1027.63 304.301 1026.43 303.88C1021.42 302.106 1021.06 297.426 1022.73 294.334C1024.61 290.805 1027.64 288.959 1031.53 288.437C1032.32 288.315 1033.2 288.503 1034 288.702C1035.19 289.084 1035.85 290.236 1035.76 291.465C1035.66 292.654 1034.78 293.519 1033.44 293.727C1032.61 293.856 1032.21 293.877 1031.45 293.915C1030.81 293.973 1028.09 294.192 1027.28 295.735C1027.12 296.042 1026.9 296.723 1027.2 297.851C1027.56 298.645 1028.21 298.869 1028.88 299.008C1030.01 299.278 1031.18 299.501 1032.28 299.817C1033.39 300.171 1034.53 300.52 1035.51 301.096C1038.01 302.611 1038.78 305.487 1037.45 308.083C1036.8 309.397 1035.82 310.399 1034.66 311.267C1033.03 312.491 1031.21 313.299 1029.28 313.922C1027.98 314.367 1026.64 313.845 1026.03 312.766C1025.27 311.508 1025.71 309.941 1027.12 309.116C1027.46 308.942 1027.76 308.774 1028.06 308.646C1028.66 308.351 1029.01 308.256 1029.4 308.116ZM1047.03 293.241C1047.03 293.241 1046.99 292.234 1046.7 292.198C1046.46 292.195 1043.75 292.697 1043.03 293.011C1042.42 293.267 1041.76 293.45 1041.07 293.475C1039.95 293.568 1038.92 292.918 1038.51 291.848C1038.09 290.659 1038.39 289.479 1039.49 288.742C1040.05 288.413 1040.65 288.117 1041.31 287.974C1044.46 287.122 1047.61 286.309 1050.77 285.537C1052.57 285.097 1054.36 284.657 1056.17 284.296C1056.91 284.14 1057.64 284.109 1058.37 284.157C1059.49 284.308 1060.22 285.086 1060.41 286.107C1060.66 287.162 1060.32 288.145 1059.36 288.739C1058.69 289.086 1058 289.355 1057.26 289.55C1055.67 289.999 1054.07 290.329 1052.35 290.757C1052.4 291.599 1052.38 292.25 1052.48 292.882C1052.94 297.142 1053.43 301.396 1053.88 305.617C1054.02 306.526 1054.05 307.454 1054.03 308.387C1053.89 309.826 1052.97 310.697 1051.61 310.826C1050.29 310.909 1049.1 310.001 1048.9 308.697C1048.53 306.569 1048.35 304.37 1048.1 302.223C1047.45 297.021 1047.03 293.241 1047.03 293.241ZM1067.59 307.258C1067.51 307.027 1067.48 306.79 1067.41 306.598C1067.12 304.984 1066.88 303.442 1066.59 301.867C1065.7 296.339 1064.76 290.817 1063.9 285.284C1063.78 284.736 1063.8 284.125 1063.88 283.547C1064.09 282.583 1064.68 281.925 1065.69 281.647C1066.66 281.376 1067.47 281.655 1068.22 282.347C1068.84 282.94 1069.09 283.751 1069.26 284.575C1069.98 288.957 1070.69 293.299 1071.41 297.68C1071.75 299.894 1072.14 302.141 1072.48 304.355C1072.6 305.106 1072.67 305.823 1072.67 306.593C1072.63 307.894 1071.76 308.838 1070.58 309.061C1069.32 309.297 1068.11 308.553 1067.59 307.258ZM1075.4 285.405C1076 284.3 1076.86 283.356 1077.88 282.632C1078.21 282.379 1083.04 278.797 1087.59 280.52C1089.61 281.26 1091.16 282.922 1091.26 282.988C1092.67 284.55 1093.66 286.462 1094.05 288.505C1095.07 293.488 1093.9 297.96 1090.7 301.896C1089.65 303.192 1088.3 304.17 1086.76 304.935C1084.36 306.157 1080.88 305.887 1078.41 303.518C1076.92 302.047 1075.79 300.199 1075.23 298.181C1075.02 297.363 1074.9 296.533 1074.73 295.748C1074.01 292.38 1073.91 289.925 1074.67 287.218C1074.85 286.582 1075.08 285.98 1075.4 285.405ZM1086.47 298.625C1088.57 296.235 1089.34 293.364 1088.9 290.235C1088.67 288.772 1088.15 287.477 1087.13 286.42C1085.56 284.883 1083.33 284.864 1081.74 286.365C1081 287.087 1080.44 287.902 1080.24 288.946C1080.13 289.569 1079.95 290.244 1079.93 290.895C1079.81 293.261 1079.77 295.615 1080.84 297.798C1082.18 300.707 1084.3 301.027 1086.47 298.625ZM1110.61 289.3C1110.61 289.3 1112.73 292.29 1112.92 291.694C1113.11 291.098 1113.06 290.012 1113.06 289.447C1112.96 285.414 1112.87 281.421 1112.77 277.389C1112.75 276.744 1112.8 276.047 1112.95 275.418C1113.21 274 1114.3 273.184 1115.6 273.225C1116.87 273.312 1117.87 274.251 1118.09 275.674C1118.15 276.069 1118.17 276.471 1118.16 276.918C1118.26 281.759 1118.36 286.6 1118.47 291.481C1118.52 292.567 1118.53 293.659 1118.45 294.723C1118.38 295.584 1118.18 296.384 1117.89 297.157C1117.12 298.976 1115.34 299.738 1113.51 298.928C1112.47 298.443 1111.48 297.787 1110.66 296.982C1108.76 295.171 1107.01 293.257 1105.22 291.389C1104.64 290.791 1103.59 289.457 1103.29 289.381C1103 289.305 1103.06 290.266 1103.11 290.543C1103.57 293.021 1104.04 295.499 1104.5 297.937C1104.7 298.999 1105.03 300.081 1105.16 301.154C1105.25 301.787 1105.2 302.483 1105.02 303.119C1104.7 303.977 1103.99 304.574 1103.08 304.754C1102.21 304.889 1101.32 304.583 1100.72 303.866C1100.32 303.361 1100.02 302.759 1099.88 302.093C1099.12 298.487 1098.4 294.875 1097.79 291.245C1097.45 289.275 1097.34 287.268 1097.23 285.26C1097.17 284.339 1097.26 283.393 1097.5 282.548C1098.12 280.549 1100.05 279.683 1101.9 280.651C1102.79 281.161 1103.57 281.769 1104.25 282.513C1106.42 284.767 1110.61 289.3 1110.61 289.3ZM1137.46 296.433C1137.38 296.202 1137.35 295.964 1137.28 295.773C1136.99 294.158 1136.75 292.617 1136.46 291.042C1135.57 285.514 1134.63 279.992 1133.77 274.458C1133.65 273.911 1133.67 273.3 1133.74 272.722C1133.96 271.757 1134.55 271.1 1135.56 270.822C1136.53 270.55 1137.34 270.829 1138.09 271.522C1138.71 272.114 1138.96 272.926 1139.13 273.75C1139.85 278.132 1140.56 282.474 1141.28 286.855C1141.62 289.069 1142.01 291.316 1142.35 293.529C1142.47 294.28 1142.54 294.998 1142.54 295.767C1142.5 297.069 1141.63 298.013 1140.45 298.236C1139.19 298.471 1137.98 297.728 1137.46 296.433ZM1150.88 289.294C1151.75 288.956 1153.41 288.416 1153.54 287.424C1153.56 287.299 1153.55 287.22 1153.53 287.102C1153.31 286.205 1151.7 286.009 1151.58 285.988C1150.33 285.776 1149.11 285.479 1147.91 285.058C1142.9 283.284 1142.54 278.604 1144.21 275.513C1146.09 271.983 1149.12 270.137 1153.01 269.616C1153.8 269.493 1154.68 269.681 1155.48 269.881C1156.67 270.263 1157.33 271.415 1157.24 272.643C1157.14 273.832 1156.26 274.697 1154.92 274.905C1154.09 275.034 1153.69 275.056 1152.93 275.093C1152.29 275.151 1149.57 275.37 1148.76 276.913C1148.6 277.22 1148.38 277.902 1148.68 279.03C1149.04 279.823 1149.69 280.047 1150.36 280.187C1151.49 280.456 1152.66 280.68 1153.76 280.995C1154.87 281.35 1156.01 281.698 1156.99 282.275C1159.5 283.79 1160.26 286.666 1158.93 289.261C1158.28 290.576 1157.3 291.577 1156.14 292.445C1154.51 293.67 1152.69 294.477 1150.76 295.1C1149.46 295.545 1148.12 295.024 1147.51 293.945C1146.75 292.686 1147.19 291.12 1148.6 290.294C1148.94 290.12 1149.24 289.953 1149.54 289.825C1150.14 289.529 1150.49 289.435 1150.88 289.294ZM960.208 359.313C961.087 358.974 962.743 358.434 962.873 357.443C962.894 357.318 962.882 357.239 962.864 357.12C962.644 356.223 961.035 356.028 960.91 356.006C959.663 355.795 958.443 355.498 957.244 355.077C952.234 353.303 951.873 348.623 953.539 345.531C955.421 342.002 958.454 340.155 962.34 339.634C963.131 339.512 964.01 339.699 964.81 339.899C966.002 340.281 966.667 341.433 966.574 342.662C966.475 343.851 965.597 344.716 964.253 344.924C963.423 345.053 963.021 345.074 962.258 345.112C961.619 345.17 958.901 345.389 958.087 346.932C957.933 347.239 957.714 347.92 958.01 349.048C958.376 349.842 959.018 350.066 959.687 350.205C960.822 350.475 961.99 350.698 963.091 351.014C964.199 351.368 965.346 351.717 966.325 352.293C968.827 353.808 969.596 356.684 968.258 359.28C967.612 360.594 966.633 361.596 965.473 362.464C963.841 363.688 962.023 364.496 960.096 365.118C958.788 365.564 957.453 365.042 956.84 363.963C956.079 362.705 956.524 361.138 957.934 360.313C958.272 360.139 958.57 359.971 958.873 359.843C959.475 359.548 959.825 359.453 960.208 359.313ZM977.84 344.438C977.84 344.438 977.806 343.431 977.517 343.395C977.273 343.392 974.558 343.894 973.838 344.208C973.23 344.464 972.57 344.647 971.886 344.672C970.767 344.765 969.735 344.115 969.327 343.045C968.9 341.856 969.202 340.676 970.303 339.939C970.859 339.61 971.461 339.314 972.126 339.171C975.273 338.319 978.426 337.506 981.585 336.734C983.379 336.294 985.172 335.854 986.979 335.493C987.723 335.337 988.447 335.306 989.183 335.354C990.299 335.505 991.027 336.283 991.226 337.304C991.47 338.359 991.137 339.342 990.176 339.936C989.502 340.283 988.815 340.552 988.076 340.747C986.486 341.196 984.877 341.526 983.163 341.954C983.212 342.796 983.192 343.447 983.29 344.079C983.747 348.339 984.244 352.593 984.696 356.814C984.837 357.723 984.859 358.651 984.842 359.584C984.7 361.023 983.783 361.894 982.427 362.023C981.104 362.106 979.911 361.198 979.709 359.894C979.339 357.766 979.16 355.567 978.908 353.42C978.264 348.217 977.84 344.438 977.84 344.438ZM1007.69 356.652C1007.45 355.353 1007.38 354.918 1007.17 354.87C1006.88 354.834 1006.62 355.725 1006.37 356.248C1005.3 358.439 1001.9 360.058 998.998 359.334C996.853 358.816 995.556 357.236 995.06 356.382C994.28 355.005 993.685 353.519 993.288 352.002C992.329 348.426 992.122 344.735 991.835 341.055C991.825 340.733 991.849 340.365 991.925 340.07C992.155 338.941 993.118 338.104 994.198 338.018C995.283 337.971 996.233 338.35 996.675 339.374C996.995 340.134 997.242 340.946 997.291 341.788C997.546 343.692 997.761 345.601 997.897 347.523C998.264 352.769 998.697 353.471 999.278 353.826C999.984 354.203 1000.98 354.128 1001.61 353.748C1002.46 353.212 1002.88 351.447 1003.62 347.891C1003.61 347.852 1003.65 347.806 1003.68 347.721C1003.77 347.262 1004.02 346.008 1004.33 343.855C1004.5 342.857 1004.76 341.926 1004.89 340.935C1004.99 340.272 1005.17 339.596 1005.44 338.988C1005.89 337.987 1006.74 337.49 1007.84 337.483C1008.97 337.509 1009.98 338.244 1010.3 339.287C1010.49 339.947 1010.59 340.619 1010.65 341.297C1011.09 346.208 1011.96 351.051 1013.04 355.904C1013.24 356.682 1013.37 357.512 1013.46 358.348C1013.58 359.948 1012.75 361.089 1011.37 361.343C1009.95 361.564 1008.83 360.887 1008.34 359.303C1008.27 359.072 1008.09 358.734 1007.69 356.652ZM1023.75 348.213C1023.07 348.521 1022.39 348.829 1021.56 349.201C1021.75 350.465 1021.9 351.414 1022.05 352.402C1022.16 353.074 1022.38 353.728 1022.4 354.373C1022.51 355.61 1021.71 356.706 1020.55 357.048C1019.35 357.396 1018.15 356.974 1017.56 355.81C1017.16 355.063 1016.92 354.29 1016.79 353.46C1016.2 349.626 1015.65 345.825 1015.18 342.012C1014.87 339.509 1014.77 337.016 1014.46 334.513C1014.27 333.005 1014.8 331.952 1015.91 331.051C1017.42 329.845 1019.22 329.445 1021.06 329.282C1024.01 328.987 1026.75 329.656 1029.12 331.393C1032.46 333.871 1033.38 337.735 1031.57 341.456C1030.79 342.993 1029.73 344.25 1028.45 345.34C1027.01 346.494 1025.42 347.469 1023.75 348.213ZM1020.86 343.925C1022.06 343.294 1023.2 342.59 1024.29 341.774C1024.47 341.625 1024.87 341.32 1025.33 340.885C1026.03 340.209 1026.39 339.871 1026.71 339.336C1026.93 338.937 1027.34 338.185 1027.12 337.289C1026.98 336.662 1026.56 336.283 1026.18 335.936C1025.38 335.21 1024.34 334.764 1023.27 334.686C1022.62 334.626 1021.98 334.685 1021.35 334.822C1020.92 334.929 1020.5 335.036 1020.07 335.182C1020.11 337.241 1020.23 339.327 1020.5 341.349C1020.6 342.225 1020.73 343.095 1020.86 343.925ZM1037.78 352.354C1037.7 352.123 1037.66 351.886 1037.59 351.695C1037.3 350.08 1037.06 348.539 1036.78 346.964C1035.88 341.436 1034.95 335.914 1034.09 330.38C1033.96 329.833 1033.99 329.221 1034.06 328.644C1034.28 327.679 1034.86 327.022 1035.87 326.744C1036.84 326.472 1037.65 326.751 1038.41 327.444C1039.03 328.036 1039.27 328.848 1039.44 329.672C1040.16 334.053 1040.87 338.395 1041.59 342.777C1041.94 344.99 1042.33 347.237 1042.67 349.451C1042.79 350.202 1042.86 350.92 1042.85 351.689C1042.81 352.991 1041.95 353.934 1040.77 354.158C1039.51 354.393 1038.3 353.649 1037.78 352.354ZM1047.24 350.645C1046.14 346.93 1044.1 333.201 1043.43 330.227C1042.9 327.841 1043.73 326.377 1046.46 325.468C1057.87 321.797 1065.3 334.976 1059.86 344.035C1057.78 347.313 1054.32 352.14 1050.08 352.472C1048.59 352.541 1047.66 351.998 1047.24 350.645ZM1049.11 330.279C1049.09 332.265 1050.74 341.886 1051.82 345.725C1054.97 342.769 1057.01 339.215 1056.06 335.153C1055.43 332.134 1052.45 329.357 1049.11 330.279ZM1080.84 330.949C1081.69 331.465 1082.28 332.143 1082.23 333.162C1082.22 334.135 1081.67 334.99 1080.79 335.368C1080.26 335.612 1079.71 335.697 1078.98 335.932C1079.2 336.586 1079.47 337.03 1079.55 337.504C1079.8 338.638 1079.36 339.475 1078.45 340.102C1077.57 340.684 1076.69 340.497 1075.85 340.02C1075.44 339.759 1075.09 339.327 1074.72 339.021C1074.3 338.641 1074.04 338.033 1073.25 337.912C1072.67 338.609 1072.02 339.358 1071.41 340.14C1070.97 340.655 1070.52 341.169 1069.87 341.392C1068.91 341.743 1068.05 341.674 1067.29 340.941C1066.53 340.249 1066.44 339.373 1066.65 338.409C1066.82 337.694 1067.64 337.243 1067.55 336.367C1066.8 335.997 1066.05 336.357 1065.34 336.224C1064.38 336.009 1063.58 335.566 1063.27 334.602C1062.77 333.222 1063.46 331.901 1064.88 331.398C1065.57 331.169 1066.42 331.402 1067.05 330.818C1066.87 330.401 1066.72 329.939 1066.56 329.477C1066.24 328.191 1066.63 327.281 1067.67 326.675C1068.51 326.139 1069.54 326.223 1070.47 326.97C1070.98 327.417 1071.46 327.909 1071.86 328.413C1073.13 329.796 1073.18 329.868 1074.42 328.219C1074.87 327.704 1075.27 327.157 1075.72 326.682C1076.07 326.304 1076.51 325.994 1076.98 325.881C1078.8 325.356 1080.44 326.841 1080.04 328.684C1079.92 329.229 1079.59 329.725 1079.32 330.294C1079.69 330.844 1080.35 330.661 1080.84 330.949Z" fill="black"/>
<path d="M35.0526 28.0616C34.8295 26.8817 34.135 25.2619 34.3749 24.0888C34.4988 23.4821 34.8303 23.2067 35.3338 22.885L35.4595 22.8744C37.0034 22.7586 38.2537 23.8288 39.3541 24.7734C40.3574 25.7269 41.0749 26.7598 41.8085 27.9284C42.2943 28.9976 43.1162 30.6454 42.7007 31.8301C42.5347 32.3032 42.1725 32.608 41.7195 32.7994C40.6044 33.2705 39.1637 33.2493 37.9735 33.2954C36.0901 33.3088 33.8609 33.0386 32.1304 32.2831C32.0996 32.2688 32.0687 32.2548 32.0382 32.2401C31.5696 32.0132 31.1011 31.6699 30.9366 31.1536C30.7975 30.7166 30.8764 30.208 31.1101 29.8183C31.8226 28.6303 33.815 28.3552 35.0526 28.0616Z" fill="black"/>
<path d="M39.0984 31.6588C39.6528 30.9382 40.2266 30.2333 40.8197 29.5442C40.9891 29.9859 41.3574 30.6544 41.137 31.1263C41.0348 31.345 40.7819 31.4527 40.5607 31.5071C40.0988 31.6207 39.573 31.6226 39.0984 31.6588Z" fill="#02C0A1"/>
<path d="M35.8991 24.5199C36.8765 24.8481 37.6204 25.3887 38.3843 26.0685C38.1074 26.3857 36.7858 28.2835 36.6653 28.3428C36.578 27.0646 36.1436 25.7787 35.8991 24.5199Z" fill="#02C0A1"/>
<path d="M38.3833 26.0681C39.3632 27.126 40.2485 28.2069 40.8188 29.544C40.2256 30.2331 39.6519 30.938 39.0975 31.6586C37.2977 31.6896 34.5421 31.6084 32.9063 30.9361C32.7089 30.8548 32.6224 30.8031 32.5346 30.6097C33.1994 29.7175 35.148 30.0038 36.0886 29.3722C36.4582 29.124 36.5713 28.8598 36.6488 28.4327C36.6543 28.4026 36.6591 28.3725 36.6643 28.3424C36.7848 28.2831 38.1064 26.3853 38.3833 26.0681Z" fill="#02C0A1"/>
<path d="M39.3533 24.7738C40.1442 24.1354 40.8651 23.4665 41.7329 22.9251C47.7848 19.1499 56.0802 18.3545 63.0387 19.1179C64.9516 19.3278 66.886 19.926 68.8176 19.8995C69.7523 18.208 70.9765 16.1776 72.9722 15.6037C73.3818 15.4859 73.8275 15.4833 74.2086 15.6921C74.5882 15.9001 74.8307 16.2795 74.9393 16.6912C75.2029 17.6911 74.4862 21.0693 74.0883 22.0608C75.3766 22.1079 76.5965 22.666 77.7563 23.1832C81.6137 24.9032 85.2121 27.2736 88.0966 30.3804C89.7497 32.1608 91.0176 34.1602 92.1099 36.322C98.4857 35.2171 109.297 34.481 115.591 35.7832C117.507 36.1797 119.571 36.9044 121.182 38.0377C123.002 39.3185 123.954 41.3048 124.316 43.4548C124.767 46.1314 124.204 48.8706 122.599 51.0846C122.285 51.5177 121.934 51.927 121.59 52.3366C123.265 56.0835 125.677 61.3708 124.09 65.4625C123.869 66.0307 123.595 66.5436 123.241 67.0397C122.131 68.2399 121.041 69.3784 119.721 70.3575C115.748 73.3037 111.159 75.4221 106.626 77.3438C95.3013 82.1443 83.407 85.5418 71.4342 88.2832C70.0207 88.6069 68.619 89.0069 67.1984 89.2967C64.988 89.7476 62.738 90.1033 60.5129 90.4834C55.3562 91.3644 50.1705 92.1401 44.9354 92.3434C41.3545 92.4823 38.093 92.0493 34.6702 90.9659C34.0538 90.6714 33.4635 90.3316 32.8991 89.9465C30.0426 87.9877 29.428 84.819 28.8342 81.6154C27.9318 81.6211 26.9653 81.4534 26.1014 81.1947C23.5021 80.4159 21.3659 78.5592 20.0948 76.1806C18.5823 73.3505 18.1458 70.1848 19.1105 67.1098C21.2439 60.3083 31.394 55.3383 37.2395 52.2538C36.3496 51.1063 35.5214 49.9158 34.7549 48.6825C32.8034 45.5964 31.1976 41.7601 31.2617 38.0525C31.2956 36.0879 31.7018 34.1903 32.1296 32.2835C33.8601 33.0389 36.0893 33.3092 37.9727 33.2958C39.1629 33.2497 40.6036 33.2709 41.7187 32.7998C42.1717 32.6084 42.5339 32.3036 42.6999 31.8305C43.1154 30.6458 42.2935 28.998 41.8078 27.9288C41.0741 26.7602 40.3566 25.7273 39.3533 24.7738Z" fill="#FDA5CF"/>
<path d="M62.7577 77.3294C63.2454 77.7094 63.9065 77.5147 64.4326 77.7981L64.2239 78.2164C63.7337 78.2977 63.2904 78.4377 62.8225 78.602L62.7577 77.3294Z" fill="#FDA5CF"/>
<path d="M39.353 24.7734C40.1439 24.1351 40.8648 23.4662 41.7326 22.9247C47.7845 19.1496 56.0799 18.3542 63.0384 19.1175C64.9513 19.3275 66.8857 19.9257 68.8173 19.8992C69.752 18.2076 70.9762 16.1773 72.9719 15.6034C73.3815 15.4856 73.8272 15.483 74.2083 15.6918C74.5879 15.8998 74.8304 16.2792 74.939 16.6909C75.2026 17.6908 74.4859 21.069 74.088 22.0605C74.2369 22.6696 75.0608 23.0903 75.4423 23.5804C79.6359 26.3898 83.7233 32.3719 85.1824 37.2164C85.7865 39.2218 86.228 41.9821 85.1489 43.9119C82.9448 47.8533 71.6255 51.2477 67.2394 52.4461C59.7945 54.4803 49.3646 56.881 42.249 52.7734C38.9631 50.8765 36.785 47.9328 35.8113 44.2863C34.6165 39.8116 35.7827 37.1096 37.9724 33.2954C39.1626 33.2493 40.6033 33.2706 41.7184 32.7995C42.1714 32.6081 42.5336 32.3033 42.6996 31.8302C43.1151 30.6455 42.2932 28.9977 41.8075 27.9285C41.0738 26.7598 40.3563 25.727 39.353 24.7734Z" fill="#FD4B11"/>
<path d="M65.399 30.6961C65.8504 30.5981 66.1835 30.6704 66.5709 30.9272C66.9605 31.1855 67.2536 31.5983 67.3357 32.0622C67.4027 32.4408 67.2746 32.7286 67.0633 33.0331C67.013 33.0496 66.9629 33.0672 66.9123 33.0826C66.5667 33.188 66.2303 33.1329 65.9179 32.9567C65.5232 32.734 65.262 32.3355 65.163 31.8982C65.055 31.4212 65.156 31.1073 65.399 30.6961Z" fill="#FCFCFC"/>
<path d="M58.9007 36.1577C59.0074 36.1483 59.1315 36.131 59.2396 36.1402C59.6841 36.1783 60.148 36.5615 60.4204 36.8929C60.6706 37.1971 60.8712 37.6149 60.8133 38.0183C60.7606 38.3858 60.5512 38.5703 60.2646 38.7714C60.146 38.7802 60.0256 38.792 59.9065 38.7838C59.4742 38.754 58.9989 38.389 58.7385 38.0628C58.4964 37.7592 58.3267 37.3754 58.3806 36.9801C58.4312 36.6094 58.6167 36.3827 58.9007 36.1577Z" fill="#FCFCFC"/>
<path d="M68.7305 37.8607C68.819 37.8256 68.8819 37.7973 68.9776 37.7747C69.3344 37.6901 69.6907 37.8347 69.99 38.0222C70.4288 38.2969 70.7798 38.769 70.8794 39.282C70.9545 39.6698 70.7761 39.9186 70.5651 40.2168C70.5022 40.2363 70.4394 40.2565 70.3754 40.272C69.9359 40.3798 69.5172 40.2498 69.1474 40.0029C68.7558 39.7415 68.4584 39.3301 68.3835 38.8601C68.3148 38.4287 68.4777 38.1942 68.7305 37.8607Z" fill="#FCFCFC"/>
<path d="M47.1199 45.9035C47.7364 45.8557 48.2761 46.0347 48.7833 46.3895C49.162 46.6544 49.5125 47.0488 49.5682 47.5249C49.6154 47.9292 49.4376 48.2171 49.1912 48.5173C49.0536 48.5426 48.911 48.5697 48.7707 48.5712C48.3049 48.5764 47.6871 48.1558 47.358 47.853C47.0523 47.5717 46.685 47.1078 46.7122 46.6619C46.7336 46.3109 46.8899 46.1471 47.1199 45.9035Z" fill="#FCFCFC"/>
<path d="M73.71 31.0507C73.7976 31.0313 73.8854 31.0123 73.9747 31.0011C74.3456 30.9542 74.6835 31.1629 74.9542 31.396C75.4195 31.7965 75.8523 32.4993 75.8656 33.1289C75.8733 33.4919 75.7094 33.7078 75.4786 33.9691C75.455 33.9755 75.4316 33.9823 75.4079 33.9885C75.0316 34.0871 74.759 34.0464 74.4296 33.8377C73.8699 33.4829 73.4775 32.8458 73.3701 32.1959C73.291 31.7175 73.4268 31.4267 73.71 31.0507Z" fill="#FCFCFC"/>
<path d="M40.3486 41.3678C40.4781 41.355 40.6047 41.3455 40.7348 41.3543C41.1349 41.3814 41.5538 41.6929 41.8009 41.9929C42.0902 42.3444 42.2719 42.8205 42.2158 43.2794C42.1615 43.7246 41.9233 43.9578 41.5768 44.2119C41.4116 44.2312 41.2412 44.2432 41.0756 44.2173C40.6797 44.1551 40.2853 43.8296 40.0613 43.5102C39.8006 43.139 39.6526 42.662 39.7444 42.2093C39.8218 41.8281 40.0411 41.5867 40.3486 41.3678Z" fill="#FCFCFC"/>
<path d="M49.9473 29.3415C49.9723 29.3351 49.9974 29.3282 50.0225 29.3223C50.5109 29.2051 50.8632 29.3444 51.2813 29.6054C51.8098 29.9352 52.3491 30.498 52.459 31.135C52.5251 31.5175 52.3554 31.7675 52.1319 32.0586C51.6701 32.1864 51.3325 32.1099 50.9074 31.8907C50.3393 31.5976 49.8446 31.0359 49.6838 30.4105C49.5751 29.988 49.7252 29.693 49.9473 29.3415Z" fill="#FCFCFC"/>
<path d="M45.2611 36.0974C45.3608 36.0689 45.4903 36.0232 45.5967 36.0187C46.0916 35.9977 46.7555 36.4474 47.1416 36.7511C47.5227 37.0508 47.9931 37.5012 48.0343 38.0171C48.0597 38.3337 47.9288 38.497 47.7392 38.7294C47.6028 38.8033 47.4609 38.8724 47.308 38.9047C46.8991 38.9912 46.3708 38.7014 46.0486 38.4759C45.5665 38.1382 45.0565 37.5841 44.9622 36.98C44.9042 36.6083 45.0481 36.3875 45.2611 36.0974Z" fill="#FCFCFC"/>
<path d="M59.7251 27.1266C60.429 26.3775 61.1359 25.6595 62.0305 25.1378C63.0915 24.519 64.0853 24.3331 65.2863 24.6576C63.8131 25.8047 61.9304 26.5972 60.6093 27.9796C60.2932 27.7131 59.9675 27.4647 59.7251 27.1266Z" fill="#FDA5CF"/>
<path d="M66.6783 45.1787C66.9131 45.11 67.155 45.0409 67.4015 45.0494C67.4551 45.0509 67.5084 45.0551 67.5614 45.0619C67.6146 45.0688 67.6673 45.0783 67.7194 45.0905C67.7716 45.1026 67.823 45.1172 67.8737 45.1345C67.9244 45.1517 67.9741 45.1714 68.0229 45.1935C68.0716 45.2158 68.1191 45.2404 68.1653 45.2673C68.2116 45.2942 68.2565 45.3233 68.2999 45.3548C68.3433 45.3862 68.385 45.4197 68.4251 45.4552C68.4651 45.4908 68.5032 45.5282 68.5395 45.5676C68.5741 45.6061 68.6067 45.6462 68.6373 45.6879C68.6679 45.7297 68.6963 45.7728 68.7226 45.8174C68.749 45.8619 68.7731 45.9076 68.795 45.9546C68.8168 46.0014 68.8362 46.0493 68.8533 46.0982C68.8703 46.147 68.8849 46.1966 68.8971 46.2469C68.9093 46.2972 68.919 46.348 68.9262 46.3992C68.9333 46.4504 68.938 46.5019 68.94 46.5536C68.942 46.6053 68.9416 46.6569 68.9386 46.7086C68.9087 47.2825 68.6273 47.6992 68.2115 48.0699C67.9412 48.2016 67.6692 48.2867 67.3643 48.2683C67.3136 48.2657 67.2633 48.2605 67.2134 48.2527C67.1633 48.2449 67.1137 48.2346 67.0647 48.2218C67.0157 48.2089 66.9675 48.1936 66.9201 48.1758C66.8726 48.1581 66.8262 48.1379 66.7809 48.1154C66.7355 48.0928 66.6914 48.0681 66.6485 48.041C66.6057 48.0139 66.5644 47.9848 66.5246 47.9536C66.4848 47.9223 66.4466 47.889 66.4102 47.8538C66.3738 47.8186 66.3392 47.7816 66.3066 47.7429C66.2681 47.6967 66.232 47.6487 66.1986 47.5987C66.165 47.5488 66.1341 47.4974 66.1058 47.4443C66.0776 47.3912 66.0523 47.3368 66.0297 47.2811C66.0072 47.2254 65.9876 47.1686 65.9709 47.1108C65.9541 47.0531 65.9405 46.9946 65.9299 46.9355C65.9192 46.8763 65.9116 46.8167 65.9072 46.7567C65.9028 46.6968 65.9014 46.6368 65.9032 46.5767C65.9049 46.5166 65.9097 46.4567 65.9177 46.3971C65.9869 45.8375 66.2544 45.5232 66.6783 45.1787Z" fill="#FCFCFC"/>
<path d="M58.2565 45.1951C58.5821 45.0886 58.9235 45.0219 59.2669 45.0719C59.325 45.0802 59.3826 45.0914 59.4397 45.1055C59.4967 45.1197 59.553 45.1368 59.6083 45.1566C59.6636 45.1764 59.7178 45.199 59.7708 45.2244C59.8238 45.2498 59.8755 45.2778 59.9256 45.3083C59.9758 45.3389 60.0243 45.372 60.0711 45.4076C60.1179 45.4431 60.1627 45.4809 60.2057 45.5209C60.2487 45.5611 60.2896 45.6033 60.3282 45.6476C60.3669 45.6918 60.4032 45.7379 60.4372 45.7858C60.4731 45.8383 60.5062 45.8924 60.5367 45.9481C60.5672 46.0039 60.5947 46.0611 60.6194 46.1197C60.644 46.1782 60.6657 46.2379 60.6843 46.2986C60.703 46.3593 60.7186 46.4208 60.731 46.4832C60.7434 46.5455 60.7527 46.6083 60.7589 46.6716C60.765 46.7348 60.7679 46.7982 60.7677 46.8617C60.7674 46.9252 60.7639 46.9886 60.7573 47.0518C60.7506 47.115 60.7407 47.1777 60.7278 47.2399C60.6028 47.8585 60.235 48.2505 59.7177 48.5773C59.4329 48.6667 59.1438 48.7298 58.844 48.6863C58.779 48.6766 58.7146 48.6635 58.6509 48.6472C58.5872 48.6308 58.5245 48.6112 58.4628 48.5883C58.4011 48.5654 58.3407 48.5394 58.2817 48.5104C58.2228 48.4812 58.1655 48.4491 58.1098 48.4141C58.0541 48.3789 58.0004 48.341 57.9487 48.3004C57.8971 48.2598 57.8476 48.2165 57.8003 48.1707C57.753 48.125 57.7083 48.0769 57.666 48.0265C57.6238 47.976 57.5843 47.9236 57.5475 47.869C57.2605 47.4502 57.1452 46.9224 57.2611 46.4253C57.3992 45.8339 57.7621 45.5073 58.2565 45.1951Z" fill="#FCFCFC"/>
<path d="M76.3641 40.1136C76.7456 39.9896 77.1413 39.9256 77.5419 39.9829C78.2225 40.0801 78.8026 40.464 79.1922 41.0252C79.2381 41.09 79.2804 41.157 79.3194 41.2261C79.3583 41.2953 79.3935 41.3663 79.4249 41.4393C79.4565 41.5121 79.4842 41.5863 79.508 41.662C79.5317 41.7378 79.5515 41.8145 79.5672 41.8922C79.583 41.97 79.5948 42.0484 79.6024 42.1274C79.61 42.2064 79.6136 42.2856 79.613 42.3648C79.6124 42.4442 79.6077 42.5234 79.5989 42.6023C79.59 42.6811 79.5772 42.7593 79.5603 42.8368C79.3875 43.634 78.895 44.1172 78.239 44.5426C77.7471 44.6922 77.2806 44.7266 76.7762 44.6047C76.1306 44.4487 75.5503 44.0305 75.2179 43.453C74.9183 42.9324 74.861 42.3122 75.0205 41.7367C75.2259 40.9959 75.7097 40.4856 76.3641 40.1136Z" fill="#FCFCFC"/>
<path d="M68.8172 19.899C69.7519 18.2075 70.976 16.1772 72.9718 15.6033C73.3813 15.4855 73.827 15.4828 74.2082 15.6917C74.5878 15.8997 74.8302 16.2791 74.9389 16.6907C75.2025 17.6906 74.4857 21.0689 74.0878 22.0603C74.2367 22.6695 75.0607 23.0902 75.4421 23.5803C75.5883 24.1008 75.6168 24.5322 75.4408 25.0536C75.1033 26.053 74.011 26.9403 73.0845 27.3963C69.3617 29.2287 67.8645 25.4284 65.439 24.6992C65.3886 24.6841 65.3374 24.6711 65.2866 24.6571C64.0856 24.3327 63.0918 24.5186 62.0308 25.1373C61.1362 25.6591 60.4293 26.3771 59.7254 27.1261C55.5839 31.4395 53.1031 39.8345 53.3238 45.7269C53.3764 47.13 53.5731 48.4339 53.9611 49.7834C54.1505 50.4423 55.0252 52.0965 54.7588 52.6662C54.6413 52.9172 54.4224 53.0599 54.1655 53.1355C53.9786 53.121 53.854 53.0921 53.7044 52.9716C52.5652 52.054 52.034 48.9663 51.8575 47.5959C50.9352 40.434 53.881 31.8727 58.2344 26.2151C59.7911 24.5446 61.6885 22.9365 64.0894 22.8311C65.5891 22.7651 66.8347 23.4859 68.0218 24.3146C69.4629 23.5845 70.9592 22.9729 72.3929 22.2315L72.6714 21.1444C71.9002 21.2929 70.9386 21.1123 70.2752 20.6961C69.9775 21.1991 69.6993 22.33 69.1671 22.5844C68.9322 22.6966 68.624 22.6806 68.3847 22.5932C68.1751 22.5167 67.9487 22.3637 67.885 22.1373C67.7124 21.5239 68.5033 20.427 68.8172 19.899Z" fill="black"/>
<path d="M70.2763 20.6959C71.1351 19.0371 71.8836 18.0826 73.4746 17.1028C73.3286 18.3905 73.0949 19.9207 72.6725 21.1441C71.9013 21.2926 70.9397 21.1121 70.2763 20.6959Z" fill="#02C0A1"/>
<path d="M68.0219 24.3151C69.463 23.585 70.9593 22.9734 72.393 22.232L72.4062 22.3295C72.4824 22.8639 72.5962 23.2086 73.0393 23.5343C73.4057 23.8036 73.7957 24.003 73.9358 24.4652C73.8857 24.878 73.5809 25.1339 73.2681 25.3783C72.5815 25.9149 71.7547 26.3567 70.8586 26.2243C69.7031 26.0538 68.8144 25.0915 68.0219 24.3151Z" fill="#FD4B11"/>
<path d="M39.3525 24.7736C40.1434 24.1352 40.8642 23.4663 41.732 22.9249C47.784 19.1497 56.0793 18.3544 63.0379 19.1177C64.9507 19.3276 66.8851 19.9259 68.8168 19.8993C68.5029 20.4273 67.712 21.5242 67.8846 22.1376C67.9483 22.364 68.1747 22.5169 68.3842 22.5935C68.6236 22.6809 68.9318 22.6969 69.1667 22.5847C69.6989 22.3303 69.9771 21.1994 70.2748 20.6964C70.9382 21.1126 71.8997 21.2932 72.671 21.1447L72.3925 22.2318C70.9588 22.9732 69.4625 23.5848 68.0214 24.3149C66.8343 23.4862 65.5887 22.7654 64.089 22.8314C61.6881 22.9368 59.7907 24.5449 58.234 26.2154C56.0096 25.1427 53.9143 24.397 51.4187 24.2771C47.7364 24.1001 44.4961 25.4821 41.8069 27.9287C41.0733 26.76 40.3557 25.7272 39.3525 24.7736Z" fill="#FDA5CF"/>
<path d="M28.8342 81.6154C34.9273 81.3915 37.718 76.6392 39.5693 71.4516C40.2087 69.6599 40.649 67.7322 41.6606 66.1012C42.4029 64.9041 43.5304 63.8888 44.785 63.2516C47.661 61.7909 52.0822 61.6601 55.1331 62.6575C55.3927 62.4659 55.5976 62.3393 55.9367 62.3815C57.054 62.5201 58.8408 64.5011 59.495 65.4081C61.9749 68.8468 62.3357 73.2533 62.7585 77.3298L62.8233 78.6024C63.2912 78.438 63.7345 78.298 64.2247 78.2168L64.4334 77.7985C64.5241 77.7115 64.6046 77.6326 64.7219 77.5818C65.2723 77.344 66.1329 77.2964 66.736 77.182C67.8778 76.965 69.0157 76.7292 70.1496 76.4746C69.3365 74.0192 68.2903 71.7766 67.9358 69.1784C67.8868 68.8306 67.849 68.4817 67.8226 68.1314C67.7962 67.7812 67.7811 67.4305 67.7773 67.0793C67.7735 66.7282 67.781 66.3773 67.7999 66.0266C67.8189 65.6759 67.8491 65.3262 67.8905 64.9776C67.932 64.6288 67.9848 64.2817 68.0488 63.9365C68.1127 63.5911 68.1877 63.2482 68.2737 62.9078C68.3599 62.5673 68.4569 62.2299 68.5648 61.8957C68.6727 61.5616 68.7913 61.2312 68.9206 60.9046C69.1271 60.3782 69.3374 59.744 69.6927 59.2989C69.8668 59.0807 70.0922 58.8816 70.3906 58.8904C70.7162 58.8999 70.9742 59.0964 71.1972 59.3108C72.8925 57.0775 75.957 56.1844 78.6107 55.8204C80.8066 55.5192 82.9689 55.5769 85.1719 55.7441C85.2023 55.5196 85.2215 55.265 85.362 55.0782C85.4881 54.9103 85.6566 54.7923 85.8694 54.7648C86.7701 54.6482 88.2894 55.942 88.956 56.4877C93.3952 60.1216 92.8266 64.967 93.359 70.0848C96.4435 69.0343 99.5461 67.9631 102.567 66.7418C101.306 62.7392 97.604 56.9919 98.557 52.78C98.8774 51.3635 99.7532 50.2479 100.978 49.4893C102.245 48.7049 105.192 47.8236 106.644 48.2136C106.901 48.2826 107.095 48.4046 107.221 48.6467C107.359 48.9098 107.298 49.1958 107.207 49.4597C107.199 49.4843 107.189 49.5085 107.181 49.5329C107.925 49.7411 108.623 49.9454 109.292 50.3394C110.241 50.8985 111.034 51.7026 111.9 52.3764C114.405 54.3238 117.119 55.1596 120.037 53.5102C120.612 53.1851 121.103 52.7797 121.589 52.3367C123.265 56.0836 125.677 61.3708 124.09 65.4626C123.869 66.0307 123.595 66.5437 123.241 67.0398C122.13 68.24 121.041 69.3785 119.721 70.3576C115.748 73.3038 111.159 75.4222 106.626 77.3439C95.3013 82.1443 83.407 85.5419 71.4341 88.2833C70.0207 88.6069 68.619 89.007 67.1984 89.2968C64.988 89.7477 62.7379 90.1034 60.5129 90.4834C55.3562 91.3645 50.1705 92.1402 44.9354 92.3434C41.3544 92.4824 38.0929 92.0494 34.6702 90.9659C34.0538 90.6715 33.4634 90.3317 32.8991 89.9466C30.0426 87.9878 29.428 84.8191 28.8342 81.6154Z" fill="#FEFDFD"/>
<path d="M102.567 66.7413C101.306 62.7388 97.6041 56.9914 98.5571 52.7795C98.8775 51.3631 99.7533 50.2475 100.979 49.4888C102.245 48.7045 105.192 47.8232 106.644 48.2131C106.901 48.2822 107.095 48.4042 107.221 48.6463C107.359 48.9094 107.298 49.1953 107.207 49.4593C107.199 49.4839 107.189 49.5081 107.181 49.5325C106.537 49.921 104.396 49.8617 103.403 50.1315C102.214 50.4545 101.083 51.0481 100.473 52.1722C100.077 52.9016 99.9621 53.7255 100.015 54.5442C100.238 57.9872 102.857 62.6928 103.945 66.1486C106.855 65.0108 109.697 63.7232 112.471 62.286C113.48 61.7615 114.506 61.0345 115.463 60.5551C115.716 60.4279 116.023 60.3833 116.302 60.4397C116.567 60.4936 116.839 60.6456 116.967 60.8924C117.051 61.0524 117.038 61.235 116.964 61.3962C116.371 62.6896 106.165 66.8436 104.366 67.6457C104.695 69.4362 104.798 71.1302 104.017 72.8231C103.328 74.3165 102.206 75.3398 100.663 75.907C98.9947 76.5203 96.918 76.6322 95.2842 75.8519C93.6418 75.0673 92.8972 73.6879 92.3215 72.0368C89.2056 72.8796 86.1319 73.9394 83.0286 74.8381C79.483 75.8329 75.9165 76.7461 72.329 77.5775C72.7896 78.8781 73.2877 80.192 73.393 81.5797C73.5034 83.0357 73.0554 84.449 72.0951 85.5545C70.9041 86.926 69.0657 87.7276 67.2705 87.8452C65.8603 87.9375 64.4806 87.6153 63.4107 86.6493C61.5969 85.0114 61.4219 82.0157 61.2887 79.7392C55.8905 80.6824 50.5587 81.38 45.0799 81.6268C44.2672 81.6634 42.987 81.8898 42.2345 81.5614C41.9979 81.4581 41.8832 81.3336 41.7813 81.0932C41.772 80.8867 41.7955 80.7008 41.9213 80.5296C42.1274 80.2489 42.3585 80.2036 42.6823 80.1656C44.3038 79.9753 46.006 80.0537 47.6462 79.925C52.2165 79.5816 56.7595 79.018 61.2752 78.2342C60.9671 74.7912 60.5607 70.0812 58.7828 67.0872C58.3913 66.4278 57.8554 65.8359 57.3041 65.3072C56.8375 64.8598 55.1161 63.742 54.9547 63.3475C54.9404 63.0724 55.0195 62.9042 55.1331 62.6571C55.3928 62.4654 55.5977 62.3389 55.9368 62.381C57.0541 62.5197 58.8409 64.5007 59.4951 65.4076C61.975 68.8464 62.3358 73.2529 62.7586 77.3293L62.8234 78.602C63.2913 78.4376 63.7345 78.2976 64.2248 78.2163L64.4335 77.798C64.5242 77.7111 64.6047 77.6322 64.722 77.5814C65.2724 77.3436 66.133 77.2959 66.7361 77.1815C67.8779 76.9646 69.0158 76.7288 70.1497 76.4741C69.3365 74.0187 68.2904 71.7762 67.9359 69.1779C67.8869 68.8302 67.8491 68.4812 67.8227 68.131C67.7963 67.7807 67.7812 67.4301 67.7774 67.0789C67.7736 66.7278 67.7811 66.3768 67.8 66.0262C67.819 65.6755 67.8492 65.3258 67.8906 64.9771C67.9321 64.6283 67.9849 64.2813 68.0489 63.936C68.1128 63.5907 68.1878 63.2478 68.2738 62.9074C68.36 62.5668 68.457 62.2295 68.5649 61.8953C68.6728 61.5611 68.7914 61.2308 68.9206 60.9042C69.1271 60.3778 69.3375 59.7436 69.6928 59.2984C69.8669 59.0802 70.0923 58.8812 70.3907 58.89C70.7163 58.8995 70.9743 59.096 71.1973 59.3103C72.8926 57.0771 75.9571 56.184 78.6108 55.82C80.8067 55.5188 82.9689 55.5765 85.172 55.7436C85.2023 55.5192 85.2216 55.2646 85.362 55.0778C85.4882 54.9098 85.6567 54.7919 85.8694 54.7644C86.7702 54.6478 88.2895 55.9416 88.956 56.4872C93.3953 60.1212 92.8267 64.9666 93.3591 70.0843C96.4435 69.0338 99.5462 67.9627 102.567 66.7413Z" fill="black"/>
<path d="M102.613 68.3627L102.844 68.2809L102.963 68.3578C103.291 69.2414 103.108 70.7178 102.815 71.613C102.43 72.7947 101.622 73.7372 100.509 74.2857C99.1172 74.9714 97.5551 74.962 96.1142 74.4578C96.0474 74.4253 95.9812 74.3919 95.9155 74.3574C94.801 73.7691 94.1254 72.7924 93.747 71.6144C94.985 71.0723 96.3316 70.6898 97.6091 70.244C99.2889 69.6487 100.957 69.0216 102.613 68.3627Z" fill="#FDA5CF"/>
<path d="M62.8236 78.602C63.2915 78.4377 63.7347 78.2976 64.2249 78.2164C64.2916 78.48 64.3721 78.7901 64.6 78.9646C64.7885 79.1093 65.0055 79.1107 65.2305 79.0912C65.817 79.0402 66.4117 78.8538 66.9888 78.7306C68.2479 78.4618 69.5075 78.1773 70.7748 77.9498C71.2423 79.0297 71.6488 80.2465 71.7729 81.4202C71.8862 82.4906 71.7335 83.5468 71.0185 84.395C70.1416 85.435 68.7013 86.1337 67.3506 86.2387C66.3359 86.3177 65.1814 86.0954 64.4017 85.4095C62.9762 84.1555 62.9537 80.4407 62.8236 78.602Z" fill="#FDA5CF"/>
<path d="M71.1971 59.3108C72.8923 57.0775 75.9568 56.1844 78.6105 55.8204C80.8064 55.5192 82.9687 55.5769 85.1717 55.7441C85.9627 56.4391 86.9291 56.93 87.7731 57.5602C91.1254 60.063 91.2715 63.6593 91.5458 67.498C91.6189 68.5222 91.7578 69.5342 91.9018 70.5502C88.7676 71.4656 85.66 72.4686 82.5166 73.3566C78.9381 74.3379 75.3455 75.2648 71.739 76.1371C69.7697 71.1379 68.451 67.4232 70.2144 62.0364C70.5033 61.1539 71.275 60.2489 71.1971 59.3108Z" fill="#FEFDFD"/>
<path d="M123.242 67.0394C124.105 67.0071 124.989 66.9176 125.851 66.9474C125.982 66.9531 126.113 66.9616 126.243 66.9731C126.373 66.9846 126.504 66.999 126.633 67.0162C126.763 67.0335 126.892 67.0537 127.021 67.0768C127.15 67.0998 127.279 67.1257 127.406 67.1545C127.534 67.1833 127.661 67.2149 127.787 67.2494C127.914 67.2838 128.039 67.3211 128.164 67.3611C128.288 67.4012 128.412 67.444 128.535 67.4896C128.657 67.5352 128.779 67.5835 128.9 67.6345C129.02 67.6855 129.14 67.7391 129.258 67.7954C129.376 67.8518 129.493 67.9108 129.608 67.9723C129.724 68.0339 129.838 68.0981 129.951 68.1647C130.063 68.2314 130.175 68.3005 130.284 68.372C130.394 68.4437 130.502 68.5177 130.608 68.5942C130.714 68.6706 130.819 68.7493 130.922 68.8305C131.024 68.9116 131.125 68.9949 131.224 69.0805C131.323 69.1661 131.42 69.2539 131.516 69.3438C134.481 72.1033 136.533 77.0795 136.676 81.0904C136.737 82.8199 136.328 84.9093 135.286 86.3301C136.532 86.1935 137.781 86.4214 138.932 86.9103C142.447 88.4027 144.671 92.1794 146.041 95.5744C147.641 99.5415 149.161 104.675 147.38 108.805C143.987 116.671 127.206 124.05 119.452 127.162C114.807 128.98 110.113 130.661 105.371 132.206C100.628 133.751 95.8446 135.156 91.0202 136.423C80.9877 139.114 70.7633 141.423 60.4446 142.673C56.8936 143.104 53.3269 143.523 49.7447 143.547C45.4988 143.575 40.8226 143.229 36.886 141.531C31.6866 139.288 28.2894 134.63 26.2609 129.501C25.0381 126.41 23.7271 122.05 25.1513 118.835C26.5811 115.608 31.3834 113.463 34.5365 112.228C34.0318 111.773 33.5056 111.375 33.0326 110.88C31.177 108.937 29.814 106.327 28.9985 103.783C28.169 101.195 27.4809 98.0528 28.8108 95.5083C29.9386 93.3503 32.3932 91.6826 34.6707 90.9656C38.0934 92.0491 41.3549 92.4821 44.9359 92.3431C50.1709 92.1399 55.3567 91.3641 60.5134 90.4831C62.7384 90.103 64.9885 89.7473 67.1989 89.2965C68.6195 89.0067 70.0212 88.6066 71.4346 88.2829C83.4075 85.5416 95.3018 82.144 106.626 77.3436C111.159 75.4218 115.749 73.3034 119.721 70.3572C121.041 69.3782 122.131 68.2396 123.242 67.0394Z" fill="#FEFDFD"/>
<path d="M41.2532 124.938C41.5104 124.878 41.7056 124.84 41.9584 124.963C42.2441 125.102 42.4866 125.405 42.7123 125.63C43.5016 126.415 44.1442 126.832 45.1961 127.185C48.7116 128.364 53.1989 128.329 56.878 128.23C70.62 127.859 85.7884 124.444 98.9944 120.641C101.98 119.812 104.941 118.904 107.878 117.916C110.815 116.929 113.724 115.863 116.604 114.72C118.807 113.854 121.009 112.984 123.154 111.983C126.917 110.228 130.684 108.331 134.158 106.051C135.286 105.303 136.383 104.513 137.449 103.681C138.068 103.2 139.153 102.158 139.835 101.869C140.029 101.786 140.3 101.835 140.475 101.94C140.71 102.081 140.859 102.333 140.899 102.599C140.935 102.838 140.753 103.029 140.62 103.208C139.304 104.474 137.696 105.53 136.195 106.559C129.067 111.449 121.138 114.685 113.054 117.623C110.29 118.634 107.506 119.59 104.703 120.491C101.9 121.391 99.081 122.236 96.2448 123.024C93.4084 123.813 90.5576 124.544 87.6922 125.219C84.8269 125.894 81.9492 126.512 79.0592 127.073C69.7695 128.886 56.0081 131.082 46.8339 129.228C45.3718 128.932 43.8125 128.55 42.5647 127.697C42.0325 127.333 40.9548 126.426 40.901 125.748C40.8725 125.385 41.0344 125.201 41.2532 124.938Z" fill="black"/>
<path d="M123.242 67.0394C124.105 67.0071 124.989 66.9176 125.851 66.9474C125.982 66.9531 126.112 66.9616 126.243 66.973C126.373 66.9846 126.503 66.999 126.633 67.0161C126.763 67.0335 126.892 67.0537 127.021 67.0768C127.15 67.0998 127.278 67.1257 127.406 67.1545C127.534 67.1833 127.661 67.2149 127.787 67.2494C127.913 67.2838 128.039 67.3211 128.163 67.3611C128.288 67.4011 128.412 67.444 128.535 67.4896C128.657 67.5352 128.779 67.5835 128.899 67.6345C129.02 67.6855 129.139 67.7391 129.258 67.7954C129.376 67.8518 129.493 67.9108 129.608 67.9723C129.724 68.0339 129.838 68.0981 129.951 68.1647C130.063 68.2314 130.174 68.3004 130.284 68.372C130.394 68.4437 130.502 68.5177 130.608 68.5941C130.714 68.6706 130.819 68.7493 130.921 68.8304C131.024 68.9116 131.125 68.9949 131.224 69.0804C131.323 69.1661 131.42 69.2539 131.515 69.3438C134.48 72.1033 136.533 77.0795 136.676 81.0904C136.737 82.8199 136.328 84.9093 135.286 86.3301C134.996 86.6036 134.744 86.9494 134.473 87.2462C133.845 87.9335 133.194 88.5915 132.487 89.1983C129.046 92.1507 123.959 94.598 119.825 96.443C115.586 98.3355 111.195 100.068 106.792 101.543C103.462 102.659 100.097 103.641 96.743 104.675C95.1462 105.167 93.5651 105.712 91.9628 106.187C89.7802 106.833 87.5656 107.383 85.3701 107.984C76.4253 110.434 67.431 112.58 58.2396 113.866C53.2215 114.568 48.1281 115.136 43.0565 114.689C41.0578 114.513 38.8586 114.2 37.0021 113.435C36.2066 113.107 35.4836 112.572 34.6798 112.278C34.6322 112.261 34.5841 112.244 34.5363 112.228C34.0316 111.773 33.5054 111.375 33.0324 110.88C31.1769 108.937 29.8138 106.327 28.9984 103.783C28.1688 101.195 27.4807 98.0528 28.8106 95.5083C29.9384 93.3503 32.393 91.6826 34.6705 90.9656C38.0932 92.049 41.3547 92.4821 44.9357 92.3431C50.1708 92.1399 55.3565 91.3641 60.5132 90.4831C62.7382 90.103 64.9883 89.7473 67.1987 89.2965C68.6193 89.0066 70.021 88.6066 71.4344 88.2829C83.4073 85.5415 95.3016 82.144 106.626 77.3436C111.159 75.4218 115.749 73.3034 119.721 70.3572C121.041 69.3782 122.131 68.2396 123.242 67.0394Z" fill="#FDA5CF"/>
<path d="M36.0336 103.471C36.145 103.451 36.3229 103.391 36.4304 103.398C36.8079 103.422 37.9825 104.402 38.4165 104.629C41.2059 106.092 46.5634 106.148 49.6835 106.095C61.8972 105.886 75.1806 103.29 87.0129 100.322C91.4246 99.2417 95.8003 98.0314 100.14 96.6908C104.48 95.3502 108.775 93.8816 113.028 92.2851C116.674 90.9026 120.246 89.3479 123.743 87.6211C125.295 86.8271 126.838 86.0167 128.373 85.1897C128.973 84.8605 129.57 84.3349 130.228 84.1557C130.442 84.0975 130.687 84.0757 130.873 84.2231C131.056 84.3687 131.176 84.7264 131.165 84.9614C131.153 85.203 130.989 85.3397 130.828 85.4967C127.89 87.3624 124.77 88.8834 121.613 90.332C115.451 93.1588 109.09 95.4051 102.633 97.4471C97.9891 98.9141 93.3077 100.25 88.5889 101.454C83.87 102.658 79.121 103.729 74.3419 104.667C66.1213 106.285 43.6127 110.096 36.6212 105.343C36.2392 105.083 35.7585 104.747 35.7111 104.245C35.6796 103.911 35.8302 103.709 36.0336 103.471Z" fill="black"/>
<path d="M476.53 242.037C483.769 243.393 491.024 244.657 498.295 245.831C501.825 246.43 505.332 247.17 508.865 247.746L502.14 283.045C501.219 287.948 500.036 292.859 499.299 297.789L498.407 301.228C490.156 300.257 481.905 298.983 473.668 297.878L446.942 294.553C448.08 289.938 448.911 285.167 449.802 280.497L454.892 252.774C455.634 248.782 456.177 244.651 457.143 240.718C457.284 240.142 457.477 239.791 457.895 239.376C459.306 238.747 473.75 241.8 476.53 242.037Z" fill="#03C3A3"/>
<path d="M482.004 250.129C482.439 250.307 483.034 250.524 483.298 250.934C483.569 251.354 483.547 251.802 483.498 252.281C483.339 253.841 482.797 255.451 482.455 256.989C481.652 260.609 480.833 264.248 480.204 267.903C482.908 265.813 485.443 263.481 488.11 261.337C489.132 260.514 490.597 259.318 491.996 259.504C492.392 259.556 492.741 259.757 492.961 260.099C493.233 260.522 493.344 261.042 493.22 261.535C492.942 262.638 482.226 270.91 480.611 271.983C482.747 272.429 492.844 274.261 493.772 275.468C494.076 275.865 494.176 276.324 494.096 276.815C494.018 277.298 493.74 277.698 493.332 277.963C492.992 278.184 492.647 278.254 492.244 278.227C490.572 278.118 488.752 277.462 487.096 277.1C485.056 276.655 482.984 276.368 480.939 275.932C482.274 278 487.95 286.041 488.094 287.816C488.148 288.467 487.764 289.083 487.355 289.548C486.917 289.743 486.676 289.861 486.198 289.71C483.871 288.975 479.398 280.287 477.995 277.87C477.335 280.475 476.396 287.201 475.053 289.068C474.663 289.609 474.361 289.73 473.746 289.837C473.479 289.728 473.227 289.634 473.014 289.432C472.322 288.773 472.053 288.276 471.983 287.352C472.58 283.585 473.611 279.877 474.603 276.198C471.777 278.141 468.979 280.252 466.273 282.362C465.213 283.189 464.201 284.226 463.065 284.936C462.519 285.278 461.916 285.55 461.273 285.641C460.528 285.746 459.989 285.603 459.394 285.156C459.24 284.825 459.129 284.692 459.181 284.331C459.503 282.074 468.607 276.079 470.819 274.434C468.586 274.261 460.96 274.597 459.509 273.505C458.987 273.111 458.799 272.603 458.774 271.961C458.757 271.546 458.88 271.156 459.179 270.865C459.628 270.426 460.188 270.312 460.795 270.245C461.914 270.122 463.116 270.314 464.246 270.331C467.228 270.374 470.209 270.37 473.19 270.474C472.173 268.043 465.747 258.637 465.972 256.99C466.041 256.487 466.292 256.037 466.714 255.748C467.129 255.463 467.628 255.378 468.114 255.515C469.834 256.002 475.348 266.175 476.481 268.075C477.273 264.713 478.887 253.023 480.364 250.859C480.746 250.3 481.383 250.251 482.004 250.129Z" fill="black"/>
<path d="M786.524 16.8571C779.494 19.0541 772.438 21.1625 765.356 23.1821C761.92 24.1926 758.524 25.3392 755.083 26.3265L765.91 60.5907C767.401 65.3519 769.153 70.0897 770.465 74.8989L771.755 78.2088C779.834 76.2754 787.878 74.04 795.929 71.9742L822.078 65.5312C820.406 61.0824 819.02 56.442 817.586 51.9092L809.273 24.9761C808.068 21.0994 807.043 17.0608 805.621 13.2689C805.413 12.7137 805.181 12.3875 804.717 12.024C803.242 11.5654 789.256 16.2954 786.524 16.8571Z" fill="#FFA7D1"/>
<path d="M782.038 25.5368C781.628 25.7642 781.062 26.0499 780.848 26.4886C780.629 26.9372 780.703 27.3797 780.808 27.849C781.149 29.3802 781.877 30.915 782.396 32.4019C783.619 35.903 784.861 39.42 785.915 42.976C782.984 41.2181 780.192 39.2 777.292 37.3842C776.18 36.6878 774.585 35.6714 773.217 36.0207C772.831 36.1195 772.507 36.3594 772.329 36.7248C772.109 37.1772 772.06 37.707 772.241 38.1818C772.646 39.2444 784.26 46.1997 785.99 47.0755C783.921 47.7694 774.109 50.7752 773.33 52.0831C773.074 52.5127 773.029 52.9804 773.166 53.4585C773.301 53.9289 773.623 54.294 774.061 54.5094C774.424 54.6885 774.775 54.7173 775.172 54.6439C776.819 54.339 778.549 53.4736 780.152 52.9196C782.125 52.2375 784.149 51.7092 786.129 51.0357C785.046 53.2467 780.355 61.8984 780.419 63.6788C780.443 64.3312 780.896 64.8975 781.357 65.3116C781.815 65.4533 782.068 65.5428 782.525 65.3366C784.75 64.3331 788.171 55.1796 789.28 52.614C790.241 55.1235 791.965 61.6923 793.518 63.3884C793.968 63.8803 794.283 63.9653 794.906 63.9987C795.158 63.859 795.398 63.7367 795.585 63.511C796.195 62.7753 796.404 62.2494 796.365 61.3236C795.329 57.6533 793.869 54.0917 792.452 50.5557C795.487 52.1531 798.514 53.9198 801.448 55.6979C802.598 56.3947 803.725 57.3048 804.937 57.8767C805.52 58.1516 806.15 58.351 806.799 58.3659C807.552 58.3833 808.07 58.1772 808.609 57.6639C808.722 57.317 808.817 57.1718 808.723 56.8191C808.137 54.6159 798.392 49.7327 796.003 48.359C798.199 47.9243 805.812 47.3614 807.125 46.1066C807.597 45.6544 807.724 45.1283 807.673 44.4877C807.641 44.073 807.473 43.7008 807.142 43.4464C806.644 43.0637 806.075 43.0155 805.464 43.0207C804.339 43.0303 803.168 43.3623 802.047 43.5114C799.091 43.9046 796.13 44.2508 793.182 44.7052C793.907 42.1715 799.183 32.0753 798.765 30.4662C798.638 29.9743 798.336 29.5571 797.882 29.3196C797.437 29.0861 796.932 29.0594 796.466 29.2531C794.814 29.9389 790.534 40.6893 789.633 42.7092C788.45 39.4636 785.474 28.0443 783.753 26.0689C783.308 25.5584 782.669 25.5845 782.038 25.5368Z" fill="black"/>
<path d="M1319.98 216.46C1323.71 216.861 1340.88 218.514 1343.12 219.696C1343.77 220.038 1344.02 220.709 1344.22 221.382C1345.45 225.51 1343.2 238.283 1341.05 242.131C1339.3 242.78 1337.42 243.138 1335.62 243.576C1330.99 244.699 1326.31 245.591 1321.68 246.694C1322.62 244.752 1323.22 242.989 1323.53 240.838C1324.01 237.571 1323.82 233.121 1321.71 230.391C1321.14 229.663 1320.53 229.189 1319.65 228.91C1317.5 228.226 1320.7 249.178 1318.4 248.848C1311.79 247.907 1306.21 247.529 1299.6 246.694C1289.86 245.391 1272.46 244.737 1262.71 243.576C1257.64 242.956 1252.6 219.835 1247.5 219.479C1249.48 218.948 1251.4 218.201 1253.37 217.611C1257.67 216.321 1262.01 215.154 1266.32 213.86C1268.62 213.168 1271.1 212.068 1273.48 211.77C1274.9 211.592 1276.47 211.925 1277.89 212.077C1279.96 212.302 1282.03 212.514 1284.1 212.714C1296.07 213.865 1308.03 215.113 1319.98 216.46Z" fill="#FDFDFD"/>
<path d="M1276.51 230.252C1277.95 230.388 1287.63 231.291 1288.3 231.773C1288.71 232.071 1288.98 232.677 1289.03 233.166C1288.93 233.44 1288.9 233.554 1288.67 233.743C1288.14 234.169 1287.25 234.243 1286.6 234.229C1285.45 234.205 1284.25 233.984 1283.1 233.846C1280.92 233.575 1278.73 233.32 1276.55 233.081C1268.91 232.337 1261.28 231.52 1253.67 230.63L1246.69 229.863C1245.45 229.728 1244.06 229.679 1242.85 229.38C1242.4 229.269 1241.89 229.075 1241.57 228.714C1241.35 228.452 1241.27 228.134 1241.3 227.796C1241.35 227.415 1241.52 227.114 1241.83 226.882C1242.05 226.711 1242.4 226.601 1242.67 226.595C1243.69 226.573 1244.84 226.803 1245.86 226.915L1252.2 227.588L1276.51 230.252Z" fill="black"/>
<path d="M1291.97 238.972C1293.63 239.132 1298.54 239.276 1299.57 240.36C1299.78 240.579 1299.88 240.831 1299.86 241.136C1299.82 241.514 1299.5 242.009 1299.2 242.231C1298.8 242.53 1298.13 242.525 1297.66 242.504C1296.05 242.435 1294.39 242.13 1292.79 241.947L1281.98 240.71L1248.69 237.103C1247.31 236.96 1242.35 236.762 1241.41 235.89C1241.12 235.619 1240.99 235.262 1241.01 234.868C1241.03 234.494 1241.19 234.191 1241.48 233.957C1241.96 233.575 1242.72 233.561 1243.3 233.591C1244.95 233.677 1246.64 234.013 1248.29 234.202L1258.04 235.258L1291.97 238.972Z" fill="black"/>
<path d="M1324.44 214.072L1336.01 215.415C1338.28 215.683 1341.3 215.814 1343.42 216.589C1344.39 216.943 1345.22 217.484 1345.85 218.313C1348.5 221.797 1347.16 229.284 1346.53 233.399C1346.04 236.531 1345.31 239.666 1344.14 242.618C1343.83 243.182 1343.5 243.788 1343.06 244.257C1342.66 244.675 1342.19 244.852 1341.65 245.027C1339.96 245.582 1338.13 245.913 1336.4 246.333C1332.46 247.295 1328.5 248.197 1324.53 249.038C1321.85 249.614 1318.94 250.603 1316.19 250.627C1314.71 250.639 1313.17 250.312 1311.7 250.162L1301.11 249.091L1263.43 245.249C1257.8 244.687 1252.18 244.094 1246.56 243.469C1244.08 243.215 1241.46 243.199 1239.02 242.772C1238.55 242.691 1237.95 242.511 1237.64 242.138C1237.38 241.841 1237.28 241.539 1237.32 241.153C1237.36 240.706 1237.59 240.203 1238.01 239.99C1238.78 239.595 1244.15 240.37 1245.43 240.498L1291.18 245.119C1296.97 245.732 1302.77 246.411 1308.57 246.969C1310.99 247.201 1313.49 247.586 1315.91 247.631C1316.68 247.646 1317 247.569 1317.61 247.072C1319.63 245.409 1320.51 242.234 1320.77 239.74C1321.05 237.099 1320.88 233.994 1319.13 231.853L1319.02 231.728C1311.09 230.239 1302.97 229.372 1294.96 228.369L1263.64 224.25L1247.24 222.236C1245.18 221.972 1243.1 221.775 1241.05 221.447C1240.58 221.371 1240.07 221.322 1239.74 220.93C1239.49 220.639 1239.36 220.221 1239.39 219.842C1239.41 219.467 1239.58 219.15 1239.88 218.926C1240.87 218.198 1249.89 215.752 1251.87 215.155L1265.13 211.144C1267.39 210.444 1271.04 209.054 1273.24 208.826C1274.73 208.671 1276.41 209.013 1277.9 209.164L1286.28 210.014L1324.44 214.072Z" fill="black"/>
<path d="M1319.98 216.46C1323.71 216.862 1340.88 218.514 1343.12 219.697C1343.77 220.039 1344.02 220.709 1344.22 221.382C1345.45 225.51 1343.2 238.283 1341.05 242.131C1339.3 242.78 1337.42 243.139 1335.62 243.577C1330.99 244.7 1326.31 245.592 1321.68 246.695C1322.62 244.753 1323.22 242.99 1323.53 240.839C1324.01 237.571 1323.82 233.121 1321.71 230.391C1321.14 229.664 1320.53 229.189 1319.65 228.911C1317.5 228.227 1314.12 228.013 1311.82 227.683C1305.21 226.742 1298.6 225.854 1291.99 225.018C1282.25 223.715 1272.51 222.483 1262.76 221.322C1257.69 220.702 1252.6 219.835 1247.5 219.48C1249.48 218.948 1251.4 218.201 1253.37 217.612C1257.67 216.322 1262.01 215.155 1266.32 213.861C1268.62 213.168 1271.1 212.068 1273.48 211.771C1274.9 211.592 1276.47 211.925 1277.89 212.078C1279.96 212.302 1282.03 212.515 1284.1 212.715C1296.07 213.865 1308.03 215.114 1319.98 216.46Z" fill="#FDFDFD"/>
<path d="M1359.03 244.014C1359.72 243.849 1360.59 243.531 1361.29 243.637L1361.56 243.827C1361.72 245.182 1361.45 246.761 1361.35 248.126C1361.09 251.46 1360.77 254.776 1360.43 258.102C1360.96 258.217 1361.61 258.222 1362.1 258.43L1358.33 263.75C1357.69 264.645 1357.05 265.636 1356.32 266.458C1354.92 268.515 1353.47 270.776 1351.67 272.509C1349.74 273.844 1347.96 275.382 1346.09 276.799L1327.94 290.709C1326.13 292.081 1321.89 295.556 1320.09 296.449C1319.61 296.686 1318.81 296.619 1318.27 296.585C1316.35 296.464 1314.4 296.151 1312.48 295.92L1301.89 294.644L1269.47 290.775L1260.63 289.719C1259.14 289.543 1257.63 289.286 1256.14 289.194C1254.06 288.85 1251.92 288.678 1249.82 288.427L1238.05 287.039C1236.2 286.83 1232.66 286.679 1231.06 286.095C1230.76 285.986 1230.56 285.772 1230.45 285.473C1230.13 284.596 1232.54 265.08 1233.02 262.273C1233.12 261.72 1233.27 261.189 1233.51 260.68C1234.44 260.003 1242.59 261.471 1244.42 261.517L1244.55 261.519C1243.64 259.324 1243.08 257.253 1243.13 254.858C1243.21 250.783 1244.86 247.467 1247.77 244.655C1248.95 244.822 1250.13 244.974 1251.32 245.111C1257.2 245.459 1263.11 246.322 1268.96 247.033C1282.49 248.677 1295.98 250.688 1309.52 252.248C1312.8 252.634 1316.08 253.043 1319.36 253.476C1321.07 253.695 1323.01 254.134 1324.73 254.033C1326.23 253.945 1328.07 253.159 1329.53 252.722L1339.32 249.796L1353.03 245.852C1355.01 245.263 1357.11 244.782 1359.03 244.014Z" fill="black"/>
<path d="M1360.43 258.102C1360.97 258.217 1361.61 258.222 1362.1 258.43L1358.33 263.75C1357.69 264.645 1357.05 265.636 1356.32 266.458C1355.89 266.25 1355.53 266.052 1355.04 266.18C1353.79 266.506 1343.32 275.134 1341.5 276.553C1336.68 280.371 1331.81 284.127 1326.89 287.82C1324.81 289.384 1322.8 291.058 1320.62 292.504C1322.61 287.087 1322.93 280.547 1322.12 274.859C1321.97 273.783 1321.84 272.505 1321.35 271.523C1321.18 271.186 1321.1 271.041 1320.73 270.923C1318.86 270.328 1316.52 270.285 1314.57 270.051L1302.05 268.561L1274.38 265.264C1269.62 264.694 1264.85 264.023 1260.09 263.558C1259.83 263.465 1259.73 263.448 1259.55 263.235C1260.21 262.718 1278.81 264.857 1281.31 265.111L1309.42 267.92C1312.02 268.209 1314.62 268.514 1317.22 268.835C1319.12 269.064 1321.2 269.517 1323.11 269.304C1325.25 269.064 1329.09 267.728 1331.34 267.091C1336.69 265.576 1342.04 263.929 1347.33 262.22C1351.68 260.814 1356.02 259.325 1360.43 258.102Z" fill="#FDFDFD"/>
<path d="M1235.77 263.49L1318.95 273.515C1320.3 279.657 1319.69 287.073 1317.24 292.859L1317.02 293.327C1316.65 293.521 1316.12 293.423 1315.71 293.386C1312.85 293.123 1309.97 292.708 1307.11 292.367L1290.01 290.331L1233.38 283.599C1234.27 276.908 1235.07 270.205 1235.77 263.49Z" fill="#FDFDFD"/>
<path d="M1359.03 244.014C1359.72 243.849 1360.59 243.531 1361.29 243.637L1361.56 243.827C1361.72 245.182 1361.45 246.761 1361.35 248.126C1361.09 251.46 1360.77 254.776 1360.43 258.102C1356.02 259.325 1351.68 260.813 1347.33 262.22C1342.04 263.929 1336.69 265.576 1331.34 267.091C1329.09 267.728 1325.25 269.064 1323.11 269.304C1321.2 269.517 1319.12 269.064 1317.22 268.835C1314.62 268.514 1312.02 268.208 1309.42 267.919L1281.31 265.111C1278.81 264.857 1260.21 262.718 1259.55 263.235C1259.73 263.447 1259.83 263.465 1260.08 263.558L1248 262.118C1247.49 260.861 1246.87 259.649 1246.49 258.341C1245.35 254.388 1246.33 250.386 1249.11 247.369C1249.72 246.712 1250.86 246.031 1251.25 245.255C1251.28 245.208 1251.3 245.159 1251.32 245.111C1257.2 245.459 1263.11 246.322 1268.96 247.033C1282.49 248.677 1295.98 250.688 1309.52 252.248C1312.8 252.634 1316.08 253.044 1319.36 253.476C1321.07 253.695 1323.01 254.134 1324.73 254.033C1326.23 253.945 1328.07 253.159 1329.53 252.722L1339.32 249.796L1353.03 245.852C1355.01 245.263 1357.11 244.782 1359.03 244.014Z" fill="#FDA6D0"/>
<path d="M1413.21 268.001C1414.54 268.13 1418.93 268.139 1419.69 269.08C1419.93 269.373 1419.96 269.768 1419.91 270.13C1419.75 271.229 1414.87 278.765 1413.98 280.238C1412.6 282.502 1411.36 284.844 1410.04 287.134L1403.32 298.561C1401.85 301.09 1400.52 303.792 1398.87 306.204C1398.7 306.444 1398.5 306.644 1398.25 306.799C1397.88 307.029 1397.37 307.124 1396.95 306.993C1396.75 306.93 1396.55 306.828 1396.36 306.719C1396.35 306.67 1396.33 306.622 1396.32 306.573C1396.06 305.656 1396.41 305.03 1396.81 304.232C1397.29 303.068 1398.05 301.904 1398.68 300.811C1400.13 298.28 1401.64 295.783 1403.12 293.271L1416.08 271.252C1414.56 271.09 1413.04 270.943 1411.52 270.81C1412.01 269.842 1412.57 268.881 1413.21 268.001Z" fill="black"/>
<path d="M1423.91 272.978C1425.63 273.171 1427.35 273.418 1429.06 273.72C1427.84 275.896 1426.84 278.234 1425.76 280.489L1421.34 289.701C1417.18 298.545 1412.95 307.359 1408.67 316.141L1404.14 315.636C1402.44 315.534 1400.74 315.413 1399.04 315.273C1399.8 313.69 1400.8 312.168 1401.7 310.656L1406.85 302.013C1412.63 292.405 1418.56 282.829 1423.91 272.978Z" fill="#ACE5EC"/>
<path d="M1362.1 258.43C1363.02 257.387 1363.84 255.469 1365.21 255.009C1365.63 254.869 1366.18 254.934 1366.61 254.964C1368.77 255.111 1370.93 255.384 1373.08 255.594L1385.43 256.804L1404.1 258.558C1405.75 258.72 1414.99 259.407 1415.72 259.973C1416.11 260.274 1416.47 260.825 1416.57 261.308C1416.8 262.494 1415.84 263.656 1415.23 264.585C1414.57 265.729 1413.92 266.89 1413.21 268.001C1412.57 268.882 1412.01 269.842 1411.52 270.81C1413.04 270.943 1414.56 271.09 1416.08 271.253L1403.12 293.271C1401.64 295.783 1400.13 298.28 1398.68 300.811C1398.05 301.904 1397.29 303.068 1396.81 304.232C1396.41 305.03 1396.06 305.656 1396.32 306.573C1396.33 306.622 1396.35 306.67 1396.36 306.719C1390.76 306.06 1385.12 305.597 1379.5 305.022L1353.08 302.168C1350.69 301.906 1341.7 301.29 1340.18 300.503C1338.65 299.707 1337.46 298.196 1337.02 296.536C1336.98 296.377 1336.94 296.216 1336.91 296.055C1336.89 295.893 1336.86 295.731 1336.85 295.567C1336.83 295.404 1336.82 295.24 1336.82 295.076C1336.82 294.912 1336.82 294.748 1336.83 294.584C1336.84 294.42 1336.85 294.257 1336.88 294.094C1336.9 293.931 1336.93 293.77 1336.96 293.609C1337 293.449 1337.04 293.29 1337.08 293.133C1337.13 292.975 1337.18 292.82 1337.24 292.667C1337.91 290.954 1339.27 289.36 1340.35 287.876C1342.93 284.34 1345.6 280.873 1348.21 277.359C1349.34 275.83 1350.7 274.261 1351.62 272.604C1351.64 272.573 1351.66 272.541 1351.67 272.51C1353.47 270.776 1354.92 268.515 1356.32 266.458C1357.05 265.636 1357.69 264.645 1358.33 263.75L1362.1 258.43Z" fill="#FD4B11"/>
<path d="M1411.52 270.81C1413.04 270.943 1414.56 271.09 1416.08 271.252L1403.12 293.271C1401.64 295.783 1400.13 298.28 1398.68 300.811C1398.05 301.904 1397.29 303.068 1396.81 304.232C1395.41 303.947 1393.94 303.841 1392.52 303.674L1383.38 302.667L1351.21 299.281C1349.34 299.077 1342.75 298.698 1341.48 297.947C1340.68 297.478 1340.17 296.659 1339.96 295.771C1339.93 295.648 1339.9 295.524 1339.88 295.399C1339.87 295.273 1339.86 295.147 1339.85 295.021C1339.85 294.894 1339.85 294.768 1339.86 294.641C1339.86 294.515 1339.88 294.389 1339.9 294.264C1339.92 294.139 1339.95 294.016 1339.98 293.894C1340.02 293.772 1340.06 293.652 1340.11 293.534C1340.15 293.417 1340.2 293.302 1340.26 293.189C1340.32 293.077 1340.39 292.968 1340.46 292.863C1340.96 292.09 1341.73 291.478 1342.65 291.308C1344.43 290.978 1348.69 291.728 1350.68 291.903C1362.52 293.001 1374.34 294.177 1386.16 295.43C1387.91 295.625 1393.88 296.594 1395.16 296.285C1395.94 296.099 1396.44 295.627 1396.91 295.018C1398.93 292.418 1400.47 289.115 1402.17 286.272C1405.25 281.099 1408.48 276.005 1411.52 270.81Z" fill="#FDFDFD"/>
<path d="M1395.48 144.47C1395.05 144.648 1394.45 144.865 1394.19 145.275C1393.92 145.695 1393.94 146.143 1393.99 146.621C1394.15 148.182 1394.69 149.792 1395.03 151.33C1395.83 154.95 1396.65 158.589 1397.28 162.244C1394.58 160.154 1392.04 157.821 1389.38 155.677C1388.35 154.855 1386.89 153.658 1385.49 153.844C1385.09 153.897 1384.74 154.097 1384.53 154.439C1384.25 154.863 1384.14 155.383 1384.27 155.876C1384.54 156.979 1395.26 165.251 1396.87 166.324C1394.74 166.77 1384.64 168.602 1383.71 169.809C1383.41 170.205 1383.31 170.664 1383.39 171.155C1383.47 171.638 1383.75 172.039 1384.15 172.304C1384.49 172.525 1384.84 172.595 1385.24 172.568C1386.91 172.459 1388.73 171.803 1390.39 171.441C1392.43 170.996 1394.5 170.709 1396.55 170.273C1395.21 172.341 1389.54 180.382 1389.39 182.157C1389.34 182.808 1389.72 183.424 1390.13 183.889C1390.57 184.084 1390.81 184.202 1391.29 184.051C1393.61 183.316 1398.09 174.628 1399.49 172.211C1400.15 174.816 1401.09 181.541 1402.43 183.408C1402.82 183.95 1403.13 184.071 1403.74 184.178C1404.01 184.068 1404.26 183.975 1404.47 183.773C1405.16 183.114 1405.43 182.616 1405.5 181.692C1404.91 177.926 1403.87 174.217 1402.88 170.539C1405.71 172.482 1408.51 174.592 1411.21 176.703C1412.27 177.53 1413.28 178.566 1414.42 179.277C1414.97 179.618 1415.57 179.89 1416.21 179.982C1416.96 180.087 1417.5 179.944 1418.09 179.497C1418.25 179.166 1418.36 179.033 1418.31 178.672C1417.98 176.415 1408.88 170.42 1406.67 168.775C1408.9 168.602 1416.53 168.937 1417.98 167.845C1418.5 167.452 1418.69 166.944 1418.71 166.302C1418.73 165.887 1418.61 165.497 1418.31 165.206C1417.86 164.767 1417.3 164.652 1416.69 164.586C1415.57 164.463 1414.37 164.655 1413.24 164.672C1410.26 164.715 1407.28 164.71 1404.3 164.815C1405.31 162.384 1411.74 152.978 1411.51 151.331C1411.44 150.828 1411.19 150.378 1410.77 150.089C1410.36 149.804 1409.86 149.718 1409.37 149.856C1407.65 150.343 1402.14 160.516 1401.01 162.416C1400.21 159.054 1398.6 147.364 1397.12 145.2C1396.74 144.641 1396.1 144.591 1395.48 144.47Z" fill="black"/>
</svg>
