<svg width="342" height="240" viewBox="0 0 342 240" fill="none" xmlns="http://www.w3.org/2000/svg">
<path d="M19.4836 95.6302C19.3596 94.9743 18.9736 94.0739 19.107 93.4218C19.1758 93.0846 19.3601 92.9316 19.64 92.7527L19.7098 92.7468C20.568 92.6825 21.263 93.2773 21.8746 93.8024C22.4323 94.3324 22.8311 94.9065 23.2389 95.5561C23.5089 96.1504 23.9658 97.0663 23.7348 97.7249C23.6425 97.9878 23.4412 98.1572 23.1894 98.2636C22.5696 98.5255 21.7688 98.5137 21.1072 98.5393C20.0603 98.5468 18.8212 98.3966 17.8593 97.9766C17.8423 97.9687 17.8251 97.9609 17.8081 97.9528C17.5476 97.8266 17.2872 97.6358 17.1958 97.3488C17.1185 97.1059 17.1623 96.8232 17.2923 96.6066C17.6882 95.9463 18.7957 95.7934 19.4836 95.6302Z" fill="black"/>
<path d="M21.7327 97.6294C22.0408 97.2289 22.3598 96.8371 22.6895 96.454C22.7836 96.6995 22.9884 97.0711 22.8658 97.3334C22.809 97.455 22.6684 97.5148 22.5455 97.5451C22.2887 97.6083 21.9965 97.6093 21.7327 97.6294Z" fill="#02C0A1"/>
<path d="M19.9542 93.6614C20.4975 93.8438 20.911 94.1443 21.3356 94.5221C21.1817 94.6985 20.4471 95.7534 20.3801 95.7863C20.3316 95.0758 20.0901 94.3611 19.9542 93.6614Z" fill="#02C0A1"/>
<path d="M21.3355 94.5221C21.8801 95.1101 22.3722 95.7109 22.6892 96.4542C22.3595 96.8372 22.0406 97.229 21.7324 97.6295C20.732 97.6468 19.2003 97.6016 18.2911 97.2279C18.1813 97.1827 18.1332 97.154 18.0845 97.0465C18.454 96.5506 19.5371 96.7097 20.0599 96.3586C20.2654 96.2207 20.3283 96.0739 20.3714 95.8364C20.3744 95.8197 20.3771 95.803 20.3799 95.7863C20.4469 95.7533 21.1816 94.6984 21.3355 94.5221Z" fill="#02C0A1"/>
<path d="M21.8744 93.8026C22.314 93.4477 22.7147 93.0759 23.1971 92.775C26.561 90.6765 31.172 90.2344 35.0398 90.6587C36.1031 90.7754 37.1783 91.108 38.252 91.0932C38.7716 90.153 39.452 89.0244 40.5614 88.7054C40.789 88.64 41.0367 88.6385 41.2486 88.7546C41.4596 88.8702 41.5943 89.0811 41.6548 89.3099C41.8013 89.8657 41.4029 91.7435 41.1817 92.2946C41.8978 92.3207 42.5759 92.631 43.2206 92.9184C45.3647 93.8745 47.3648 95.1921 48.9682 96.919C49.887 97.9086 50.5918 99.02 51.199 100.222C54.7429 99.6075 60.7521 99.1983 64.2508 99.9221C65.316 100.142 66.463 100.545 67.3584 101.175C68.3703 101.887 68.8995 102.991 69.1007 104.186C69.3511 105.674 69.0382 107.197 68.1464 108.427C67.9719 108.668 67.7764 108.896 67.5851 109.123C68.5165 111.206 69.8573 114.145 68.9747 116.419C68.8522 116.735 68.6998 117.02 68.5033 117.296C67.8858 117.963 67.28 118.596 66.5463 119.14C64.3383 120.778 61.7873 121.955 59.2675 123.023C52.9729 125.692 46.3615 127.58 39.7064 129.104C38.9208 129.284 38.1416 129.506 37.352 129.667C36.1234 129.918 34.8727 130.116 33.6359 130.327C30.7695 130.817 27.8871 131.248 24.9772 131.361C22.9867 131.438 21.1738 131.197 19.2713 130.595C18.9287 130.432 18.6005 130.243 18.2869 130.029C16.6991 128.94 16.3574 127.179 16.0274 125.398C15.5258 125.401 14.9886 125.308 14.5083 125.164C13.0635 124.731 11.8761 123.699 11.1696 122.377C10.3289 120.804 10.0863 119.044 10.6225 117.335C11.8083 113.554 17.4502 110.792 20.6995 109.077C20.2048 108.439 19.7444 107.778 19.3184 107.092C18.2336 105.377 17.341 103.244 17.3767 101.183C17.3955 100.091 17.6213 99.0367 17.8591 97.9768C18.821 98.3967 20.0601 98.547 21.107 98.5395C21.7686 98.5139 22.5693 98.5257 23.1892 98.2638C23.441 98.1574 23.6423 97.988 23.7346 97.725C23.9655 97.0665 23.5087 96.1506 23.2387 95.5563C22.8309 94.9067 22.432 94.3326 21.8744 93.8026Z" fill="#FDA5CF"/>
<path d="M34.8837 123.015C35.1548 123.227 35.5223 123.118 35.8147 123.276L35.6987 123.508C35.4262 123.554 35.1798 123.631 34.9197 123.723L34.8837 123.015Z" fill="#FDA5CF"/>
<path d="M21.8745 93.8022C22.3141 93.4473 22.7148 93.0755 23.1972 92.7746C26.5611 90.6762 31.1721 90.2341 35.04 90.6584C36.1032 90.775 37.1785 91.1076 38.2521 91.0928C38.7717 90.1526 39.4521 89.0241 40.5615 88.7051C40.7891 88.6396 41.0369 88.6381 41.2487 88.7542C41.4597 88.8698 41.5945 89.0807 41.6549 89.3095C41.8014 89.8653 41.403 91.7431 41.1818 92.2942C41.2646 92.6328 41.7226 92.8666 41.9346 93.139C44.2656 94.7006 46.5376 98.0258 47.3486 100.719C47.6844 101.833 47.9298 103.368 47.33 104.44C46.1049 106.631 39.813 108.518 37.375 109.184C33.2369 110.315 27.4394 111.649 23.4842 109.366C21.6578 108.311 20.4471 106.675 19.9058 104.648C19.2417 102.161 19.89 100.659 21.1071 98.5391C21.7687 98.5135 22.5695 98.5253 23.1893 98.2634C23.4411 98.157 23.6424 97.9876 23.7347 97.7247C23.9656 97.0661 23.5088 96.1502 23.2388 95.5559C22.831 94.9063 22.4322 94.3322 21.8745 93.8022Z" fill="#FD4B11"/>
<path d="M36.3517 97.0941C36.6026 97.0397 36.7878 97.0799 37.0031 97.2226C37.2197 97.3662 37.3826 97.5956 37.4282 97.8535C37.4655 98.0639 37.3943 98.2239 37.2768 98.3931C37.2488 98.4023 37.221 98.4121 37.1928 98.4206C37.0008 98.4793 36.8138 98.4486 36.6401 98.3507C36.4208 98.2269 36.2756 98.0054 36.2205 97.7623C36.1605 97.4972 36.2166 97.3227 36.3517 97.0941Z" fill="#FCFCFC"/>
<path d="M32.7398 100.13C32.7991 100.125 32.8681 100.115 32.9281 100.12C33.1753 100.141 33.4331 100.354 33.5845 100.539C33.7236 100.708 33.8351 100.94 33.8029 101.164C33.7736 101.368 33.6572 101.471 33.4979 101.583C33.432 101.588 33.3651 101.594 33.2989 101.59C33.0586 101.573 32.7944 101.37 32.6496 101.189C32.5151 101.02 32.4208 100.807 32.4507 100.587C32.4788 100.381 32.5819 100.255 32.7398 100.13Z" fill="#FCFCFC"/>
<path d="M38.2036 101.077C38.2528 101.057 38.2878 101.042 38.341 101.029C38.5393 100.982 38.7374 101.062 38.9037 101.167C39.1477 101.319 39.3428 101.582 39.3981 101.867C39.4399 102.082 39.3407 102.221 39.2234 102.386C39.1885 102.397 39.1535 102.408 39.118 102.417C38.8737 102.477 38.6409 102.405 38.4354 102.268C38.2177 102.122 38.0524 101.894 38.0108 101.632C37.9726 101.392 38.0632 101.262 38.2036 101.077Z" fill="#FCFCFC"/>
<path d="M26.1912 105.548C26.534 105.521 26.8339 105.62 27.1159 105.818C27.3264 105.965 27.5212 106.184 27.5522 106.449C27.5784 106.674 27.4796 106.834 27.3426 107C27.2661 107.015 27.1869 107.03 27.1089 107.03C26.8499 107.033 26.5066 106.8 26.3236 106.631C26.1537 106.475 25.9495 106.217 25.9647 105.969C25.9766 105.774 26.0634 105.683 26.1912 105.548Z" fill="#FCFCFC"/>
<path d="M40.9716 97.2913C41.0203 97.2805 41.0691 97.2699 41.1187 97.2637C41.3249 97.2377 41.5127 97.3537 41.6632 97.4832C41.9218 97.7059 42.1624 98.0965 42.1698 98.4464C42.1741 98.6482 42.083 98.7683 41.9546 98.9135C41.9415 98.9171 41.9285 98.9208 41.9154 98.9243C41.7062 98.9791 41.5546 98.9565 41.3716 98.8404C41.0604 98.6432 40.8424 98.2891 40.7826 97.9279C40.7387 97.6619 40.8142 97.5003 40.9716 97.2913Z" fill="#FCFCFC"/>
<path d="M22.4276 103.026C22.4996 103.019 22.5699 103.014 22.6422 103.019C22.8646 103.034 23.0975 103.207 23.2348 103.374C23.3957 103.569 23.4966 103.834 23.4654 104.089C23.4352 104.336 23.3029 104.466 23.1103 104.607C23.0184 104.618 22.9237 104.624 22.8317 104.61C22.6116 104.575 22.3924 104.394 22.2679 104.217C22.123 104.011 22.0407 103.745 22.0917 103.494C22.1348 103.282 22.2567 103.148 22.4276 103.026Z" fill="#FCFCFC"/>
<path d="M27.7631 96.3415C27.777 96.338 27.7909 96.3342 27.8049 96.3309C28.0763 96.2657 28.2722 96.3432 28.5046 96.4882C28.7983 96.6715 29.0981 96.9844 29.1592 97.3384C29.1959 97.551 29.1016 97.69 28.9774 97.8518C28.7207 97.9229 28.533 97.8803 28.2967 97.7585C27.9809 97.5956 27.706 97.2834 27.6166 96.9357C27.5562 96.7009 27.6396 96.5369 27.7631 96.3415Z" fill="#FCFCFC"/>
<path d="M25.1582 100.096C25.2136 100.081 25.2856 100.055 25.3447 100.053C25.6198 100.041 25.9889 100.291 26.2035 100.46C26.4153 100.626 26.6767 100.877 26.6997 101.164C26.7138 101.34 26.641 101.43 26.5356 101.56C26.4598 101.601 26.3809 101.639 26.2959 101.657C26.0687 101.705 25.775 101.544 25.5959 101.419C25.3279 101.231 25.0444 100.923 24.9921 100.587C24.9598 100.381 25.0398 100.258 25.1582 100.096Z" fill="#FCFCFC"/>
<path d="M33.1981 95.1101C33.5894 94.6938 33.9823 94.2947 34.4796 94.0047C35.0693 93.6607 35.6217 93.5574 36.2893 93.7377C35.4704 94.3754 34.4239 94.8159 33.6896 95.5843C33.5139 95.4361 33.3329 95.2981 33.1981 95.1101Z" fill="#FDA5CF"/>
<path d="M37.063 105.145C37.1935 105.106 37.3279 105.068 37.465 105.073C37.4947 105.074 37.5244 105.076 37.5538 105.08C37.5834 105.084 37.6127 105.089 37.6416 105.096C37.6706 105.102 37.6992 105.11 37.7274 105.12C37.7556 105.13 37.7832 105.141 37.8103 105.153C37.8374 105.165 37.8638 105.179 37.8895 105.194C37.9153 105.209 37.9402 105.225 37.9643 105.243C37.9885 105.26 38.0116 105.279 38.0339 105.298C38.0561 105.318 38.0773 105.339 38.0975 105.361C38.1167 105.382 38.1349 105.405 38.1519 105.428C38.1688 105.451 38.1846 105.475 38.1993 105.5C38.214 105.524 38.2274 105.55 38.2395 105.576C38.2516 105.602 38.2624 105.629 38.2719 105.656C38.2814 105.683 38.2895 105.71 38.2963 105.738C38.3031 105.766 38.3084 105.795 38.3124 105.823C38.3164 105.852 38.319 105.88 38.3201 105.909C38.3212 105.938 38.321 105.966 38.3193 105.995C38.3027 106.314 38.1463 106.546 37.9152 106.752C37.7649 106.825 37.6138 106.872 37.4442 106.862C37.4161 106.861 37.3882 106.858 37.3604 106.853C37.3325 106.849 37.305 106.843 37.2777 106.836C37.2505 106.829 37.2237 106.82 37.1974 106.811C37.171 106.801 37.1452 106.79 37.12 106.777C37.0948 106.764 37.0702 106.751 37.0464 106.736C37.0226 106.721 36.9997 106.704 36.9775 106.687C36.9554 106.67 36.9342 106.651 36.914 106.632C36.8937 106.612 36.8745 106.591 36.8564 106.57C36.8349 106.544 36.8149 106.518 36.7963 106.49C36.7777 106.462 36.7605 106.433 36.7447 106.404C36.7291 106.374 36.715 106.344 36.7024 106.313C36.6899 106.282 36.679 106.251 36.6697 106.219C36.6604 106.187 36.6528 106.154 36.6469 106.121C36.641 106.088 36.6368 106.055 36.6344 106.022C36.6319 105.988 36.6311 105.955 36.6321 105.922C36.633 105.888 36.6357 105.855 36.6402 105.822C36.6786 105.511 36.8274 105.336 37.063 105.145Z" fill="#FCFCFC"/>
<path d="M32.3815 105.154C32.5625 105.094 32.7523 105.057 32.9432 105.085C32.9755 105.09 33.0075 105.096 33.0392 105.104C33.0709 105.112 33.1022 105.121 33.1329 105.132C33.1637 105.143 33.1938 105.156 33.2233 105.17C33.2528 105.184 33.2815 105.199 33.3093 105.216C33.3372 105.233 33.3642 105.252 33.3902 105.272C33.4162 105.291 33.4411 105.312 33.465 105.335C33.4889 105.357 33.5116 105.38 33.5331 105.405C33.5546 105.43 33.5748 105.455 33.5937 105.482C33.6136 105.511 33.6321 105.541 33.649 105.572C33.6659 105.603 33.6812 105.635 33.695 105.667C33.7087 105.7 33.7207 105.733 33.731 105.767C33.7414 105.801 33.7501 105.835 33.757 105.87C33.7639 105.904 33.7691 105.939 33.7725 105.974C33.7759 106.009 33.7775 106.045 33.7774 106.08C33.7772 106.115 33.7753 106.15 33.7716 106.186C33.7679 106.221 33.7624 106.256 33.7552 106.29C33.6858 106.634 33.4813 106.852 33.1938 107.034C33.0355 107.083 32.8748 107.118 32.7081 107.094C32.672 107.089 32.6362 107.081 32.6008 107.072C32.5654 107.063 32.5305 107.052 32.4962 107.04C32.4619 107.027 32.4284 107.012 32.3956 106.996C32.3628 106.98 32.331 106.962 32.3 106.943C32.2691 106.923 32.2392 106.902 32.2105 106.88C32.1818 106.857 32.1543 106.833 32.128 106.808C32.1017 106.782 32.0768 106.755 32.0533 106.727C32.0299 106.699 32.0079 106.67 31.9874 106.64C31.8279 106.407 31.7638 106.114 31.8283 105.837C31.905 105.509 32.1067 105.327 32.3815 105.154Z" fill="#FCFCFC"/>
<path d="M42.4468 102.329C42.6589 102.26 42.8789 102.225 43.1015 102.256C43.4798 102.31 43.8022 102.524 44.0188 102.836C44.0443 102.872 44.0679 102.909 44.0895 102.947C44.1111 102.986 44.1307 103.025 44.1482 103.066C44.1657 103.106 44.1811 103.148 44.1943 103.19C44.2075 103.232 44.2185 103.275 44.2273 103.318C44.2361 103.361 44.2426 103.405 44.2468 103.448C44.2511 103.492 44.2531 103.536 44.2527 103.58C44.2524 103.625 44.2498 103.669 44.2449 103.712C44.24 103.756 44.2328 103.8 44.2234 103.843C44.1274 104.286 43.8536 104.554 43.489 104.791C43.2156 104.874 42.9563 104.893 42.6759 104.825C42.3171 104.739 41.9945 104.506 41.8097 104.185C41.6432 103.896 41.6113 103.551 41.7 103.231C41.8142 102.82 42.0831 102.536 42.4468 102.329Z" fill="#FCFCFC"/>
<path d="M38.2519 91.0932C38.7714 90.1529 39.4519 89.0244 40.5612 88.7054C40.7889 88.6399 41.0366 88.6384 41.2485 88.7545C41.4595 88.8701 41.5942 89.081 41.6546 89.3098C41.8011 89.8656 41.4027 91.7434 41.1816 92.2945C41.2643 92.6331 41.7223 92.8669 41.9343 93.1394C42.0156 93.4287 42.0314 93.6685 41.9336 93.9583C41.746 94.5138 41.1389 95.007 40.6238 95.2605C38.5546 96.279 37.7223 94.1666 36.3741 93.7613C36.3461 93.7529 36.3177 93.7457 36.2895 93.7379C35.6218 93.5576 35.0694 93.6609 34.4797 94.0049C33.9824 94.2948 33.5895 94.6939 33.1982 95.1103C30.8962 97.5079 29.5172 102.174 29.6399 105.45C29.6692 106.229 29.7785 106.954 29.9942 107.704C30.0995 108.071 30.5857 108.99 30.4376 109.307C30.3723 109.446 30.2506 109.526 30.1078 109.568C30.0039 109.559 29.9346 109.543 29.8515 109.476C29.2183 108.966 28.923 107.25 28.8249 106.488C28.3123 102.507 29.9497 97.7487 32.3695 94.6039C33.2348 93.6754 34.2894 92.7815 35.624 92.7229C36.4576 92.6862 37.1499 93.0869 37.8098 93.5475C38.6108 93.1417 39.4425 92.8018 40.2394 92.3897L40.3942 91.7854C39.9655 91.8679 39.4311 91.7676 39.0623 91.5362C38.8969 91.8158 38.7422 92.4444 38.4464 92.5858C38.3158 92.6482 38.1445 92.6393 38.0115 92.5907C37.895 92.5482 37.7692 92.4632 37.7337 92.3373C37.6378 91.9963 38.0774 91.3866 38.2519 91.0932Z" fill="black"/>
<path d="M39.0628 91.5357C39.5402 90.6136 39.9563 90.0831 40.8406 89.5385C40.7595 90.2543 40.6295 91.1048 40.3948 91.7848C39.9661 91.8674 39.4316 91.767 39.0628 91.5357Z" fill="#02C0A1"/>
<path d="M37.8098 93.5476C38.6109 93.1418 39.4425 92.8018 40.2395 92.3897L40.2468 92.4439C40.2892 92.7409 40.3524 92.9326 40.5987 93.1136C40.8024 93.2633 41.0192 93.3741 41.097 93.631C41.0692 93.8605 40.8998 94.0027 40.7259 94.1386C40.3443 94.4368 39.8847 94.6824 39.3866 94.6088C38.7443 94.5141 38.2503 93.9791 37.8098 93.5476Z" fill="#FD4B11"/>
<path d="M21.874 93.8026C22.3137 93.4478 22.7144 93.076 23.1967 92.775C26.5607 90.6766 31.1716 90.2345 35.0395 90.6588C36.1027 90.7755 37.178 91.108 38.2517 91.0933C38.0772 91.3867 37.6376 91.9965 37.7335 92.3374C37.7689 92.4633 37.8948 92.5483 38.0113 92.5908C38.1443 92.6394 38.3156 92.6483 38.4462 92.5859C38.742 92.4445 38.8967 91.8159 39.0621 91.5363C39.4309 91.7677 39.9653 91.868 40.394 91.7855L40.2392 92.3898C39.4423 92.8019 38.6106 93.1418 37.8096 93.5477C37.1497 93.087 36.4574 92.6863 35.6238 92.7231C34.2892 92.7817 33.2345 93.6755 32.3693 94.6041C31.1329 94.0078 29.9682 93.5933 28.581 93.5266C26.5342 93.4283 24.7331 94.1965 23.2383 95.5564C22.8305 94.9068 22.4317 94.3327 21.874 93.8026Z" fill="#FDA5CF"/>
<path d="M16.0273 125.398C19.4141 125.273 20.9654 122.632 21.9944 119.748C22.3498 118.752 22.5945 117.681 23.1568 116.774C23.5695 116.109 24.1962 115.544 24.8935 115.19C26.4921 114.378 28.9497 114.306 30.6455 114.86C30.7898 114.753 30.9037 114.683 31.0921 114.707C31.7132 114.784 32.7064 115.885 33.07 116.389C34.4485 118.3 34.649 120.75 34.884 123.015L34.9201 123.723C35.1802 123.632 35.4265 123.554 35.699 123.509L35.815 123.276C35.8655 123.228 35.9102 123.184 35.9754 123.156C36.2813 123.023 36.7597 122.997 37.0949 122.933C37.7296 122.813 38.3621 122.682 38.9924 122.54C38.5404 121.175 37.9589 119.929 37.7618 118.485C37.7346 118.291 37.7136 118.097 37.6989 117.903C37.6842 117.708 37.6758 117.513 37.6737 117.318C37.6716 117.123 37.6758 116.928 37.6863 116.733C37.6968 116.538 37.7136 116.343 37.7367 116.15C37.7597 115.956 37.7891 115.763 37.8247 115.571C37.8602 115.379 37.9018 115.188 37.9497 114.999C37.9975 114.81 38.0515 114.622 38.1114 114.437C38.1714 114.251 38.2373 114.067 38.3092 113.886C38.424 113.593 38.5409 113.241 38.7384 112.993C38.8352 112.872 38.9605 112.761 39.1263 112.766C39.3073 112.771 39.4507 112.881 39.5747 113C40.517 111.758 42.2204 111.262 43.6954 111.06C44.916 110.892 46.1179 110.924 47.3424 111.017C47.3593 110.892 47.37 110.751 47.4481 110.647C47.5182 110.554 47.6119 110.488 47.7301 110.473C48.2308 110.408 49.0753 111.127 49.4458 111.43C51.9133 113.45 51.5973 116.144 51.8932 118.988C53.6077 118.404 55.3323 117.809 57.0113 117.13C56.3103 114.905 54.2528 111.711 54.7825 109.37C54.9606 108.582 55.4474 107.962 56.1285 107.54C56.8325 107.104 58.4703 106.615 59.2776 106.831C59.4204 106.87 59.5281 106.938 59.5985 107.072C59.6751 107.218 59.6409 107.377 59.5905 107.524C59.5859 107.538 59.5808 107.551 59.5759 107.565C59.9897 107.68 60.3774 107.794 60.7494 108.013C61.2771 108.324 61.7176 108.771 62.1993 109.145C63.5915 110.228 65.1 110.692 66.7218 109.775C67.0414 109.595 67.3146 109.369 67.585 109.123C68.5164 111.206 69.8572 114.145 68.9747 116.419C68.8522 116.735 68.6997 117.02 68.5033 117.296C67.8858 117.963 67.2799 118.596 66.5462 119.14C64.3383 120.778 61.7873 121.955 59.2674 123.023C52.9728 125.692 46.3614 127.58 39.7064 129.104C38.9207 129.284 38.1416 129.506 37.3519 129.667C36.1233 129.918 34.8726 130.116 33.6358 130.327C30.7695 130.817 27.887 131.248 24.9771 131.361C22.9867 131.438 21.1738 131.197 19.2712 130.595C18.9286 130.431 18.6005 130.243 18.2868 130.028C16.699 128.94 16.3574 127.178 16.0273 125.398Z" fill="#FEFDFD"/>
<path d="M57.0115 117.13C56.3105 114.905 54.253 111.711 54.7827 109.369C54.9608 108.582 55.4476 107.962 56.1287 107.54C56.8326 107.104 58.4705 106.614 59.2778 106.831C59.4206 106.87 59.5283 106.937 59.5987 107.072C59.6753 107.218 59.6411 107.377 59.5907 107.524C59.5861 107.538 59.581 107.551 59.5761 107.565C59.2185 107.781 58.0283 107.748 57.4763 107.897C56.8155 108.077 56.1869 108.407 55.8478 109.032C55.6277 109.437 55.5637 109.895 55.5931 110.35C55.7169 112.264 57.173 114.88 57.7776 116.801C59.395 116.168 60.9747 115.452 62.5167 114.654C63.0776 114.362 63.6479 113.958 64.1797 113.691C64.3206 113.621 64.4913 113.596 64.6461 113.627C64.7937 113.657 64.9444 113.742 65.0161 113.879C65.0624 113.968 65.0554 114.069 65.0143 114.159C64.6847 114.878 59.0114 117.187 58.0113 117.633C58.1946 118.628 58.2517 119.57 57.8177 120.511C57.4348 121.341 56.8111 121.909 55.9534 122.225C55.0259 122.566 53.8716 122.628 52.9635 122.194C52.0505 121.758 51.6367 120.991 51.3167 120.073C49.5847 120.542 47.8762 121.131 46.1513 121.631C44.1804 122.184 42.198 122.691 40.2039 123.153C40.4599 123.876 40.7368 124.607 40.7954 125.378C40.8567 126.187 40.6077 126.973 40.0739 127.587C39.4119 128.35 38.39 128.795 37.3922 128.861C36.6083 128.912 35.8414 128.733 35.2467 128.196C34.2385 127.285 34.1412 125.62 34.0672 124.355C31.0666 124.879 28.103 125.267 25.0576 125.404C24.6058 125.424 23.8942 125.55 23.476 125.368C23.3445 125.31 23.2807 125.241 23.2241 125.107C23.2189 124.993 23.2319 124.889 23.3019 124.794C23.4165 124.638 23.5449 124.613 23.7249 124.592C24.6262 124.486 25.5724 124.53 26.484 124.458C29.0244 124.267 31.5496 123.954 34.0597 123.518C33.8884 121.605 33.6625 118.986 32.6743 117.322C32.4567 116.956 32.1588 116.627 31.8524 116.333C31.593 116.084 30.6362 115.463 30.5464 115.244C30.5385 115.091 30.5825 114.997 30.6457 114.86C30.79 114.753 30.9039 114.683 31.0923 114.706C31.7134 114.783 32.7066 115.885 33.0702 116.389C34.4487 118.3 34.6492 120.749 34.8842 123.015L34.9202 123.723C35.1804 123.631 35.4267 123.554 35.6992 123.508L35.8152 123.276C35.8656 123.228 35.9104 123.184 35.9756 123.155C36.2815 123.023 36.7599 122.997 37.0951 122.933C37.7298 122.813 38.3623 122.682 38.9926 122.54C38.5406 121.175 37.959 119.929 37.762 118.484C37.7348 118.291 37.7138 118.097 37.6991 117.902C37.6844 117.708 37.676 117.513 37.6739 117.318C37.6718 117.122 37.676 116.927 37.6865 116.733C37.697 116.538 37.7138 116.343 37.7369 116.149C37.7599 115.956 37.7893 115.763 37.8248 115.571C37.8604 115.379 37.902 115.188 37.9499 114.999C37.9977 114.81 38.0517 114.622 38.1116 114.436C38.1716 114.251 38.2375 114.067 38.3094 113.885C38.4242 113.593 38.5411 113.24 38.7386 112.993C38.8353 112.872 38.9607 112.761 39.1265 112.766C39.3075 112.771 39.4509 112.88 39.5749 113C40.5172 111.758 42.2206 111.262 43.6956 111.059C44.9162 110.892 46.1181 110.924 47.3426 111.017C47.3595 110.892 47.3702 110.751 47.4483 110.647C47.5184 110.554 47.612 110.488 47.7303 110.473C48.231 110.408 49.0755 111.127 49.446 111.43C51.9135 113.45 51.5975 116.144 51.8934 118.988C53.6079 118.404 55.3325 117.809 57.0115 117.13Z" fill="black"/>
<path d="M57.0369 118.031L57.1652 117.985L57.2318 118.028C57.4136 118.519 57.312 119.34 57.1495 119.837C56.9351 120.494 56.4861 121.018 55.8674 121.323C55.0939 121.704 54.2256 121.699 53.4247 121.419C53.3876 121.401 53.3508 121.382 53.3143 121.363C52.6948 121.036 52.3193 120.493 52.1089 119.838C52.797 119.537 53.5456 119.324 54.2557 119.077C55.1894 118.746 56.1165 118.397 57.0369 118.031Z" fill="#FDA5CF"/>
<path d="M34.9203 123.723C35.1804 123.631 35.4267 123.554 35.6992 123.508C35.7362 123.655 35.781 123.827 35.9077 123.924C36.0125 124.005 36.1331 124.006 36.2581 123.995C36.5842 123.966 36.9147 123.863 37.2355 123.794C37.9353 123.645 38.6355 123.487 39.3399 123.36C39.5998 123.961 39.8257 124.637 39.8947 125.289C39.9577 125.884 39.8728 126.471 39.4754 126.943C38.988 127.521 38.1873 127.909 37.4366 127.968C36.8726 128.012 36.2308 127.888 35.7975 127.507C35.0051 126.81 34.9926 124.745 34.9203 123.723Z" fill="#FDA5CF"/>
<path d="M39.5748 113C40.5171 111.758 42.2205 111.262 43.6955 111.06C44.9161 110.892 46.118 110.924 47.3425 111.017C47.7822 111.404 48.3194 111.677 48.7885 112.027C50.6519 113.418 50.7331 115.417 50.8855 117.551C50.9262 118.12 51.0034 118.683 51.0835 119.247C49.3413 119.756 47.6139 120.314 45.8667 120.807C43.8776 121.353 41.8807 121.868 39.876 122.353C38.7814 119.574 38.0484 117.509 39.0286 114.515C39.1891 114.024 39.6181 113.521 39.5748 113Z" fill="#FEFDFD"/>
<path d="M68.5036 117.296C68.9832 117.278 69.4746 117.228 69.954 117.244C70.0267 117.248 70.0993 117.252 70.1717 117.259C70.2442 117.265 70.3166 117.273 70.3887 117.283C70.4608 117.292 70.5327 117.303 70.6044 117.316C70.676 117.329 70.7473 117.343 70.8183 117.359C70.8893 117.376 70.9599 117.393 71.0301 117.412C71.1003 117.431 71.17 117.452 71.2393 117.474C71.3086 117.497 71.3774 117.52 71.4456 117.546C71.5138 117.571 71.5814 117.598 71.6484 117.626C71.7155 117.655 71.7818 117.684 71.8475 117.716C71.9132 117.747 71.9781 117.78 72.0424 117.814C72.1066 117.848 72.17 117.884 72.2326 117.921C72.2953 117.958 72.3571 117.996 72.418 118.036C72.4789 118.076 72.5389 118.117 72.598 118.16C72.6571 118.202 72.7152 118.246 72.7723 118.291C72.8295 118.336 72.8855 118.382 72.9406 118.43C72.9956 118.478 73.0496 118.526 73.1025 118.576C74.7505 120.11 75.8917 122.876 75.9709 125.106C76.0051 126.067 75.7775 127.228 75.1984 128.018C75.891 127.942 76.585 128.069 77.2251 128.341C79.1786 129.17 80.415 131.27 81.1763 133.157C82.0659 135.362 82.9104 138.215 81.9205 140.511C80.0348 144.883 70.7072 148.985 66.3968 150.715C63.815 151.725 61.2061 152.659 58.5699 153.518C55.9337 154.377 53.2749 155.158 50.5933 155.862C45.0167 157.358 39.3335 158.642 33.5979 159.336C31.6241 159.576 29.6416 159.809 27.6504 159.822C25.2903 159.837 22.6911 159.645 20.5029 158.701C17.6129 157.454 15.7245 154.866 14.597 152.015C13.9174 150.296 13.1886 147.873 13.9803 146.086C14.775 144.292 17.4443 143.1 19.197 142.413C18.9164 142.16 18.624 141.939 18.361 141.664C17.3296 140.584 16.572 139.133 16.1187 137.719C15.6576 136.281 15.2752 134.534 16.0144 133.12C16.6412 131.92 18.0057 130.993 19.2716 130.595C21.1741 131.197 22.987 131.438 24.9774 131.36C27.8873 131.248 30.7698 130.816 33.6361 130.327C34.8729 130.115 36.1236 129.918 37.3523 129.667C38.1419 129.506 38.921 129.284 39.7067 129.104C46.3617 127.58 52.9731 125.691 59.2677 123.023C61.7876 121.955 64.3386 120.777 66.5465 119.14C67.2802 118.595 67.8861 117.963 68.5036 117.296Z" fill="#FEFDFD"/>
<path d="M22.9306 149.479C23.0736 149.445 23.1821 149.424 23.3226 149.492C23.4814 149.57 23.6162 149.738 23.7417 149.863C24.1804 150.299 24.5376 150.531 25.1222 150.727C27.0764 151.383 29.5706 151.364 31.6156 151.308C39.2541 151.102 47.6854 149.204 55.0259 147.09C56.6855 146.629 58.3315 146.124 59.964 145.576C61.5965 145.027 63.2132 144.434 64.814 143.799C66.0384 143.317 67.2624 142.834 68.4551 142.277C70.5463 141.302 72.6407 140.248 74.5714 138.98C75.1983 138.565 75.8081 138.126 76.4008 137.663C76.7447 137.396 77.3482 136.816 77.7271 136.655C77.8349 136.61 77.9853 136.637 78.083 136.695C78.2132 136.773 78.2962 136.914 78.3186 137.062C78.3386 137.194 78.2371 137.3 78.1634 137.4C77.432 138.103 76.5382 138.69 75.7037 139.263C71.7414 141.981 67.3343 143.779 62.8409 145.412C61.3042 145.974 59.7569 146.506 58.1991 147.006C56.6412 147.507 55.074 147.976 53.4975 148.415C51.9209 148.853 50.3363 149.26 48.7436 149.635C47.1509 150.01 45.5513 150.353 43.9449 150.665C38.7813 151.673 31.1321 152.894 26.0327 151.863C25.2199 151.699 24.3532 151.486 23.6596 151.012C23.3638 150.81 22.7647 150.306 22.7349 149.928C22.719 149.727 22.809 149.625 22.9306 149.479Z" fill="black"/>
<path d="M68.5034 117.296C68.983 117.278 69.4745 117.228 69.9538 117.245C70.0265 117.248 70.0991 117.252 70.1716 117.259C70.2441 117.265 70.3164 117.273 70.3885 117.283C70.4607 117.292 70.5325 117.304 70.6042 117.316C70.6758 117.329 70.7472 117.344 70.8182 117.36C70.8891 117.376 70.9597 117.393 71.03 117.412C71.1001 117.432 71.1699 117.452 71.2392 117.474C71.3084 117.497 71.3772 117.521 71.4454 117.546C71.5136 117.571 71.5813 117.598 71.6482 117.626C71.7153 117.655 71.7816 117.685 71.8473 117.716C71.913 117.747 71.978 117.78 72.0422 117.814C72.1064 117.848 72.1698 117.884 72.2325 117.921C72.2951 117.958 72.3569 117.997 72.4178 118.036C72.4788 118.076 72.5388 118.117 72.5978 118.16C72.6569 118.202 72.715 118.246 72.7721 118.291C72.8293 118.336 72.8854 118.383 72.9404 118.43C72.9954 118.478 73.0494 118.527 73.1023 118.577C74.7504 120.11 75.8915 122.876 75.9707 125.106C76.0049 126.067 75.7773 127.229 75.1982 128.018C75.0371 128.17 74.8968 128.363 74.7461 128.528C74.3972 128.91 74.0353 129.275 73.6423 129.613C71.7296 131.254 68.9019 132.614 66.6043 133.64C64.2477 134.691 61.8073 135.655 59.3597 136.475C57.5088 137.095 55.6388 137.64 53.7742 138.215C52.8866 138.489 52.0078 138.792 51.1171 139.056C49.904 139.415 48.673 139.721 47.4526 140.055C42.4807 141.416 37.4812 142.609 32.3722 143.324C29.5829 143.714 26.7518 144.03 23.9327 143.782C22.8218 143.684 21.5994 143.51 20.5674 143.084C20.1252 142.902 19.7233 142.605 19.2766 142.441C19.2501 142.432 19.2234 142.423 19.1968 142.413C18.9163 142.161 18.6238 141.94 18.3609 141.664C17.3295 140.584 16.5718 139.134 16.1186 137.72C15.6575 136.281 15.275 134.534 16.0142 133.12C16.6411 131.92 18.0055 130.994 19.2714 130.595C21.1739 131.197 22.9868 131.438 24.9773 131.361C27.8872 131.248 30.7696 130.816 33.636 130.327C34.8727 130.116 36.1234 129.918 37.3521 129.667C38.1417 129.506 38.9208 129.284 39.7065 129.104C46.3616 127.58 52.973 125.692 59.2676 123.023C61.7874 121.955 64.3384 120.778 66.5463 119.14C67.2801 118.596 67.8859 117.963 68.5034 117.296Z" fill="#FDA5CF"/>
<path d="M20.0292 137.546C20.0911 137.535 20.19 137.502 20.2497 137.505C20.4596 137.519 21.1125 138.063 21.3537 138.19C22.9042 139.003 25.8821 139.034 27.6164 139.004C34.4054 138.889 41.7889 137.445 48.3658 135.796C50.8181 135.195 53.2503 134.522 55.6625 133.777C58.0746 133.032 60.4625 132.216 62.826 131.328C64.853 130.56 66.8384 129.696 68.7821 128.736C69.6448 128.295 70.5026 127.844 71.3557 127.384C71.6895 127.201 72.0208 126.909 72.3869 126.81C72.5057 126.777 72.6421 126.765 72.7451 126.847C72.8469 126.928 72.9135 127.127 72.9074 127.258C72.9011 127.392 72.8098 127.468 72.7201 127.555C71.0872 128.592 69.3533 129.438 67.598 130.243C64.1732 131.814 60.6371 133.063 57.0483 134.198C54.467 135.013 51.8648 135.756 49.2419 136.425C46.6189 137.094 43.9791 137.69 41.3227 138.211C36.7533 139.11 24.242 141.228 20.3558 138.586C20.1434 138.442 19.8763 138.255 19.8499 137.976C19.8324 137.79 19.9161 137.678 20.0292 137.546Z" fill="black"/>
<path d="M30.599 153.152C33.5349 153.702 36.4773 154.215 39.4261 154.691C40.858 154.934 42.2803 155.234 43.7133 155.468L40.986 169.784C40.6123 171.773 40.1325 173.765 39.8333 175.764L39.4718 177.159C36.1255 176.765 32.779 176.248 29.4381 175.8L18.5988 174.451C19.0603 172.58 19.3973 170.645 19.7588 168.751L21.8231 157.507C22.1239 155.888 22.3442 154.212 22.736 152.617C22.7934 152.384 22.8714 152.241 23.0411 152.073C23.6133 151.818 29.4716 153.056 30.599 153.152Z" fill="#03C3A3"/>
<path d="M32.8191 156.434C32.9953 156.506 33.2369 156.594 33.344 156.761C33.4536 156.931 33.4448 157.113 33.425 157.307C33.3606 157.94 33.1406 158.593 33.0021 159.216C32.6764 160.685 32.344 162.161 32.0889 163.643C33.1858 162.795 34.214 161.849 35.2953 160.98C35.7101 160.646 36.3041 160.161 36.8716 160.236C37.032 160.258 37.1737 160.339 37.2628 160.478C37.3732 160.649 37.4182 160.86 37.3679 161.06C37.2552 161.508 32.909 164.863 32.254 165.298C33.1205 165.479 37.2157 166.222 37.5917 166.711C37.7153 166.872 37.7558 167.058 37.7234 167.257C37.6916 167.453 37.5791 167.616 37.4132 167.723C37.2753 167.813 37.1355 167.841 36.9721 167.83C36.294 167.786 35.556 167.52 34.8842 167.373C34.0569 167.193 33.2163 167.076 32.3871 166.899C32.9284 167.738 35.2305 170.999 35.2892 171.719C35.3108 171.983 35.1552 172.233 34.9894 172.422C34.8116 172.501 34.714 172.549 34.5201 172.488C33.5763 172.189 31.762 168.666 31.193 167.685C30.9255 168.742 30.5445 171.47 29.9997 172.227C29.8418 172.446 29.7191 172.496 29.4698 172.539C29.3615 172.495 29.2592 172.457 29.173 172.375C28.8922 172.108 28.783 171.906 28.7547 171.531C28.9968 170.003 29.415 168.499 29.8175 167.007C28.6711 167.796 27.5363 168.651 26.4391 169.507C26.0092 169.843 25.5987 170.263 25.1378 170.551C24.9162 170.69 24.6717 170.8 24.411 170.837C24.1088 170.88 23.8903 170.822 23.6488 170.641C23.5867 170.506 23.5415 170.452 23.5625 170.306C23.6933 169.39 27.3856 166.959 28.2825 166.292C27.3771 166.222 24.284 166.358 23.6957 165.915C23.4837 165.755 23.4078 165.549 23.3975 165.289C23.3908 165.12 23.4407 164.963 23.5619 164.844C23.744 164.666 23.9711 164.62 24.2173 164.593C24.6709 164.543 25.1584 164.621 25.617 164.628C26.8264 164.645 28.0353 164.643 29.2443 164.686C28.8318 163.7 26.2255 159.885 26.3169 159.217C26.3448 159.013 26.4467 158.83 26.6179 158.713C26.7862 158.598 26.9885 158.563 27.1854 158.619C27.8832 158.816 30.1194 162.942 30.5789 163.713C30.9003 162.349 31.555 157.608 32.154 156.73C32.3087 156.504 32.5673 156.484 32.8191 156.434Z" fill="black"/>
<path d="M290.818 4.76575C287.925 5.66995 285.021 6.53763 282.107 7.36879C280.693 7.78465 279.295 8.25653 277.879 8.66284L282.335 22.7641C282.948 24.7235 283.669 26.6734 284.209 28.6525L284.74 30.0147C288.065 29.219 291.376 28.2991 294.689 27.4489L305.451 24.7973C304.762 22.9665 304.192 21.0567 303.602 19.1913L300.181 8.1071C299.684 6.51166 299.263 4.8496 298.678 3.28907C298.592 3.06058 298.496 2.92631 298.305 2.77673C297.698 2.588 291.943 4.53461 290.818 4.76575Z" fill="#FFA7D1"/>
<path d="M288.972 8.33794C288.803 8.43154 288.57 8.54909 288.482 8.72963C288.392 8.91427 288.423 9.09635 288.466 9.2895C288.606 9.91968 288.906 10.5513 289.12 11.1632C289.623 12.6041 290.134 14.0515 290.568 15.5149C289.361 14.7915 288.213 13.961 287.019 13.2137C286.561 12.9271 285.905 12.5088 285.342 12.6525C285.183 12.6932 285.05 12.7919 284.977 12.9423C284.886 13.1285 284.866 13.3465 284.94 13.5419C285.107 13.9792 289.887 16.8417 290.599 17.2021C289.747 17.4877 285.709 18.7247 285.389 19.2629C285.283 19.4397 285.265 19.6322 285.321 19.829C285.377 20.0226 285.509 20.1728 285.689 20.2615C285.839 20.3351 285.983 20.347 286.147 20.3168C286.824 20.1913 287.536 19.8352 288.196 19.6072C289.008 19.3265 289.841 19.1091 290.656 18.8319C290.21 19.7418 288.279 23.3024 288.306 24.0351C288.316 24.3036 288.502 24.5366 288.692 24.7071C288.881 24.7653 288.985 24.8022 289.173 24.7173C290.088 24.3043 291.496 20.5373 291.953 19.4814C292.348 20.5142 293.057 23.2176 293.697 23.9156C293.882 24.118 294.012 24.153 294.268 24.1667C294.372 24.1092 294.47 24.0589 294.547 23.966C294.799 23.6633 294.885 23.4468 294.868 23.0658C294.442 21.5553 293.841 20.0895 293.258 18.6343C294.507 19.2917 295.753 20.0188 296.96 20.7506C297.434 21.0373 297.897 21.4119 298.396 21.6472C298.636 21.7604 298.896 21.8424 299.163 21.8486C299.472 21.8558 299.686 21.7709 299.907 21.5597C299.954 21.4169 299.993 21.3571 299.954 21.212C299.713 20.3053 295.703 18.2957 294.719 17.7303C295.623 17.5514 298.756 17.3197 299.296 16.8033C299.491 16.6172 299.543 16.4007 299.522 16.1371C299.509 15.9664 299.44 15.8132 299.304 15.7085C299.099 15.551 298.865 15.5312 298.613 15.5333C298.15 15.5373 297.668 15.6739 297.207 15.7353C295.99 15.8971 294.772 16.0396 293.559 16.2266C293.857 15.1838 296.028 11.0288 295.856 10.3666C295.804 10.1642 295.679 9.99248 295.493 9.89472C295.31 9.79862 295.102 9.78764 294.91 9.86735C294.23 10.1496 292.469 14.5739 292.098 15.4052C291.611 14.0694 290.386 9.36988 289.678 8.55694C289.495 8.34684 289.232 8.35757 288.972 8.33794Z" fill="black"/>
<path d="M300.084 135.726C301.418 135.87 307.546 136.459 308.344 136.881C308.574 137.003 308.667 137.243 308.738 137.483C309.176 138.956 308.372 143.515 307.604 144.888C306.982 145.12 306.31 145.248 305.666 145.404C304.014 145.805 302.344 146.123 300.691 146.517C301.029 145.824 301.241 145.195 301.353 144.427C301.523 143.261 301.455 141.673 300.702 140.698C300.501 140.439 300.28 140.269 299.968 140.17C299.201 139.926 300.343 147.403 299.52 147.286C297.163 146.95 295.172 146.815 292.81 146.517C289.337 146.052 283.125 145.819 279.645 145.404C277.835 145.183 276.036 136.931 274.216 136.804C274.924 136.614 275.609 136.348 276.311 136.137C277.846 135.677 279.397 135.26 280.933 134.799C281.755 134.551 282.64 134.159 283.488 134.053C283.996 133.989 284.556 134.108 285.063 134.162C285.801 134.242 286.539 134.318 287.278 134.389C291.55 134.8 295.819 135.246 300.084 135.726Z" fill="#FDFDFD"/>
<path d="M284.569 140.649C285.083 140.698 288.54 141.02 288.777 141.192C288.924 141.298 289.02 141.514 289.038 141.689C289.003 141.786 288.993 141.827 288.909 141.895C288.721 142.047 288.404 142.073 288.172 142.068C287.76 142.06 287.332 141.981 286.922 141.931C286.143 141.835 285.364 141.744 284.584 141.659C281.859 141.393 279.137 141.102 276.417 140.784L273.928 140.51C273.485 140.462 272.989 140.444 272.557 140.338C272.395 140.298 272.214 140.229 272.102 140.1C272.021 140.006 271.992 139.893 272.006 139.772C272.02 139.636 272.084 139.529 272.193 139.446C272.273 139.385 272.395 139.346 272.494 139.344C272.856 139.336 273.267 139.418 273.631 139.458L275.893 139.698L284.569 140.649Z" fill="black"/>
<path d="M290.088 143.761C290.68 143.818 292.432 143.87 292.801 144.257C292.876 144.335 292.913 144.425 292.903 144.533C292.891 144.669 292.776 144.845 292.669 144.924C292.526 145.031 292.288 145.029 292.119 145.022C291.545 144.997 290.954 144.888 290.382 144.823L286.524 144.382L274.642 143.094C274.149 143.043 272.378 142.973 272.045 142.661C271.942 142.565 271.893 142.437 271.901 142.297C271.908 142.163 271.964 142.055 272.069 141.971C272.241 141.835 272.513 141.83 272.72 141.841C273.308 141.871 273.911 141.991 274.498 142.059L277.979 142.436L290.088 143.761Z" fill="black"/>
<path d="M313.947 136.35L319.755 137.025C320.894 137.159 322.408 137.225 323.474 137.614C323.962 137.792 324.377 138.063 324.693 138.479C326.026 140.228 325.353 143.987 325.033 146.052C324.79 147.625 324.425 149.198 323.836 150.68C323.683 150.963 323.514 151.267 323.292 151.503C323.094 151.713 322.856 151.802 322.587 151.89C321.738 152.168 320.821 152.334 319.951 152.545C317.971 153.028 315.985 153.48 313.992 153.903C312.646 154.192 311.184 154.689 309.806 154.7C309.064 154.706 308.29 154.542 307.55 154.467L302.235 153.929L283.319 152.001C280.495 151.719 277.673 151.421 274.853 151.107C273.609 150.98 272.293 150.972 271.065 150.757C270.833 150.717 270.533 150.626 270.373 150.439C270.244 150.29 270.194 150.139 270.214 149.945C270.236 149.72 270.35 149.468 270.56 149.361C270.949 149.163 273.642 149.552 274.286 149.616L297.249 151.935C300.159 152.243 303.069 152.584 305.982 152.864C307.195 152.981 308.448 153.174 309.664 153.197C310.053 153.204 310.214 153.165 310.517 152.916C311.531 152.081 311.975 150.487 312.106 149.235C312.245 147.909 312.159 146.351 311.279 145.276L311.227 145.213C307.245 144.466 303.169 144.031 299.15 143.527L283.426 141.459L275.193 140.449C274.161 140.316 273.115 140.218 272.088 140.053C271.849 140.014 271.596 139.99 271.428 139.793C271.304 139.647 271.24 139.437 271.253 139.247C271.266 139.059 271.346 138.9 271.5 138.787C271.998 138.422 276.524 137.194 277.518 136.894L284.173 134.881C285.308 134.529 287.139 133.832 288.246 133.717C288.992 133.64 289.838 133.811 290.585 133.887L294.79 134.313L313.947 136.35Z" fill="black"/>
<path d="M311.706 137.549C313.582 137.751 322.202 138.58 323.324 139.174C323.648 139.346 323.778 139.682 323.878 140.02C324.495 142.092 323.364 148.504 322.283 150.436C321.408 150.761 320.463 150.941 319.557 151.161C317.234 151.725 314.885 152.173 312.56 152.727C313.035 151.752 313.334 150.867 313.491 149.787C313.731 148.147 313.635 145.913 312.575 144.543C312.293 144.177 311.983 143.939 311.544 143.799C310.465 143.456 308.768 143.348 307.61 143.183C304.296 142.711 300.977 142.265 297.656 141.845C292.771 141.191 287.881 140.573 282.987 139.99C280.44 139.679 277.883 139.244 275.324 139.065C276.319 138.798 277.283 138.423 278.27 138.127C280.43 137.48 282.611 136.894 284.771 136.245C285.927 135.897 287.171 135.345 288.365 135.195C289.078 135.106 289.867 135.273 290.58 135.349C291.618 135.462 292.656 135.569 293.695 135.669C299.704 136.247 305.707 136.874 311.706 137.549Z" fill="#FDFDFD"/>
<path d="M314.024 145.56C314.269 145.502 314.579 145.388 314.828 145.426L314.926 145.494C314.983 145.977 314.887 146.541 314.849 147.028C314.757 148.218 314.643 149.402 314.522 150.589C314.713 150.63 314.942 150.631 315.118 150.706L313.773 152.604C313.545 152.924 313.317 153.278 313.056 153.571C312.555 154.305 312.039 155.112 311.397 155.731C310.709 156.207 310.07 156.756 309.404 157.262L302.928 162.226C302.282 162.716 300.766 163.956 300.125 164.275C299.954 164.359 299.667 164.335 299.477 164.323C298.789 164.28 298.093 164.168 297.408 164.086L293.628 163.631L282.06 162.25L278.903 161.873C278.373 161.81 277.833 161.718 277.301 161.685C276.557 161.563 275.795 161.501 275.046 161.412L270.844 160.916C270.184 160.842 268.922 160.788 268.349 160.58C268.241 160.54 268.172 160.464 268.133 160.357C268.018 160.045 268.877 153.079 269.051 152.077C269.085 151.88 269.137 151.69 269.222 151.509C269.554 151.267 272.465 151.791 273.119 151.807L273.165 151.808C272.84 151.025 272.639 150.286 272.656 149.431C272.686 147.976 273.274 146.793 274.312 145.789C274.734 145.849 275.157 145.903 275.581 145.952C277.68 146.076 279.79 146.384 281.878 146.638C286.707 147.225 291.521 147.943 296.352 148.499C297.524 148.637 298.694 148.783 299.863 148.938C300.473 149.016 301.168 149.172 301.78 149.136C302.315 149.105 302.974 148.824 303.494 148.668L306.988 147.624L311.88 146.217C312.589 146.006 313.338 145.835 314.024 145.56Z" fill="black"/>
<path d="M314.523 150.589C314.713 150.63 314.943 150.631 315.118 150.706L313.774 152.605C313.545 152.924 313.317 153.278 313.057 153.571C312.903 153.497 312.774 153.426 312.599 153.472C312.152 153.588 308.414 156.667 307.766 157.174C306.045 158.537 304.307 159.877 302.551 161.195C301.808 161.753 301.09 162.351 300.315 162.867C301.022 160.933 301.137 158.599 300.848 156.569C300.794 156.185 300.749 155.729 300.575 155.379C300.515 155.258 300.485 155.207 300.352 155.164C299.685 154.952 298.851 154.937 298.155 154.853L293.687 154.321L283.811 153.145C282.113 152.941 280.411 152.702 278.709 152.536C278.618 152.503 278.582 152.496 278.518 152.421C278.754 152.236 285.391 153 286.286 153.09L296.316 154.093C297.245 154.196 298.173 154.305 299.1 154.419C299.779 154.501 300.522 154.663 301.203 154.587C301.968 154.501 303.338 154.024 304.14 153.797C306.049 153.256 307.959 152.668 309.846 152.058C311.399 151.556 312.95 151.025 314.523 150.589Z" fill="#FDFDFD"/>
<path d="M270.029 152.512L299.717 156.09C300.2 158.282 299.982 160.929 299.108 162.994L299.028 163.161C298.898 163.23 298.709 163.195 298.562 163.182C297.539 163.088 296.514 162.94 295.494 162.818L289.388 162.091L269.178 159.689C269.497 157.3 269.78 154.908 270.029 152.512Z" fill="#FDFDFD"/>
<path d="M314.024 145.561C314.269 145.502 314.579 145.388 314.829 145.426L314.926 145.494C314.984 145.978 314.887 146.541 314.849 147.028C314.757 148.218 314.643 149.402 314.522 150.589C312.949 151.025 311.399 151.557 309.846 152.058C307.959 152.669 306.048 153.256 304.14 153.797C303.338 154.024 301.968 154.501 301.203 154.587C300.522 154.663 299.778 154.501 299.099 154.419C298.172 154.305 297.244 154.196 296.316 154.093L286.285 153.09C285.391 153 278.754 152.236 278.518 152.421C278.581 152.497 278.618 152.503 278.709 152.536L274.395 152.022C274.213 151.573 273.993 151.141 273.858 150.674C273.448 149.263 273.801 147.835 274.793 146.758C275.009 146.524 275.417 146.281 275.557 146.004C275.565 145.987 275.573 145.969 275.581 145.952C277.68 146.076 279.79 146.384 281.878 146.638C286.707 147.225 291.521 147.943 296.353 148.499C297.524 148.637 298.694 148.783 299.863 148.938C300.473 149.016 301.168 149.173 301.78 149.137C302.315 149.105 302.974 148.825 303.494 148.669L306.988 147.624L311.88 146.217C312.589 146.007 313.338 145.835 314.024 145.561Z" fill="#FDA6D0"/>
<path d="M333.359 154.122C333.835 154.168 335.402 154.171 335.673 154.507C335.757 154.611 335.77 154.752 335.751 154.882C335.694 155.274 333.952 157.964 333.633 158.489C333.144 159.297 332.701 160.133 332.227 160.951L329.831 165.029C329.307 165.931 328.832 166.896 328.241 167.756C328.182 167.842 328.11 167.914 328.021 167.969C327.89 168.051 327.708 168.085 327.558 168.038C327.486 168.016 327.412 167.979 327.348 167.94C327.342 167.923 327.335 167.906 327.331 167.888C327.239 167.561 327.363 167.337 327.508 167.053C327.679 166.637 327.95 166.222 328.174 165.832C328.69 164.928 329.23 164.037 329.759 163.141L334.386 155.282C333.843 155.224 333.301 155.172 332.758 155.124C332.932 154.779 333.132 154.436 333.359 154.122Z" fill="black"/>
<path d="M337.177 155.898C337.793 155.967 338.406 156.055 339.017 156.163C338.581 156.94 338.224 157.774 337.841 158.579L336.26 161.866C334.776 165.023 333.268 168.169 331.738 171.303L330.123 171.123C329.515 171.087 328.908 171.043 328.302 170.993C328.573 170.428 328.931 169.885 329.25 169.345L331.091 166.261C333.151 162.832 335.268 159.414 337.177 155.898Z" fill="#ACE5EC"/>
<path d="M315.118 150.706C315.445 150.334 315.741 149.649 316.228 149.485C316.377 149.435 316.574 149.458 316.729 149.469C317.499 149.521 318.27 149.619 319.038 149.694L323.444 150.125L330.109 150.751C330.696 150.809 333.994 151.055 334.255 151.257C334.394 151.364 334.523 151.561 334.557 151.733C334.643 152.156 334.298 152.571 334.08 152.903C333.843 153.311 333.614 153.725 333.358 154.122C333.132 154.436 332.932 154.779 332.757 155.124C333.3 155.172 333.843 155.224 334.385 155.282L329.758 163.141C329.229 164.037 328.69 164.928 328.173 165.832C327.95 166.222 327.679 166.637 327.507 167.053C327.362 167.337 327.238 167.561 327.33 167.888C327.335 167.906 327.341 167.923 327.347 167.94C325.346 167.705 323.334 167.54 321.329 167.335L311.897 166.316C311.046 166.222 307.837 166.003 307.297 165.722C306.75 165.438 306.325 164.898 306.167 164.306C306.152 164.249 306.14 164.192 306.129 164.134C306.119 164.077 306.111 164.018 306.105 163.96C306.1 163.902 306.096 163.843 306.095 163.785C306.094 163.726 306.095 163.668 306.099 163.609C306.102 163.551 306.108 163.492 306.116 163.434C306.124 163.376 306.134 163.319 306.146 163.261C306.159 163.204 306.173 163.147 306.19 163.091C306.207 163.035 306.226 162.98 306.247 162.925C306.485 162.314 306.972 161.745 307.357 161.215C308.275 159.953 309.23 158.716 310.16 157.462C310.565 156.916 311.05 156.356 311.379 155.765C311.385 155.753 311.391 155.742 311.397 155.731C312.04 155.112 312.555 154.305 313.056 153.571C313.317 153.278 313.545 152.924 313.773 152.605L315.118 150.706Z" fill="#FD4B11"/>
<path d="M332.757 155.124C333.301 155.171 333.843 155.224 334.385 155.282L329.758 163.14C329.23 164.037 328.69 164.928 328.173 165.831C327.95 166.221 327.679 166.637 327.508 167.052C327.008 166.95 326.482 166.913 325.976 166.853L322.715 166.494L311.232 165.285C310.566 165.212 308.214 165.077 307.757 164.809C307.472 164.642 307.291 164.35 307.215 164.033C307.204 163.989 307.196 163.944 307.189 163.9C307.183 163.855 307.179 163.81 307.177 163.765C307.176 163.719 307.176 163.674 307.179 163.629C307.182 163.584 307.188 163.539 307.195 163.495C307.203 163.45 307.213 163.406 307.225 163.363C307.237 163.319 307.252 163.276 307.268 163.234C307.285 163.192 307.304 163.151 307.325 163.111C307.346 163.071 307.369 163.032 307.394 162.994C307.573 162.719 307.85 162.5 308.178 162.44C308.813 162.322 310.331 162.589 311.043 162.652C315.267 163.044 319.487 163.463 323.706 163.911C324.331 163.98 326.459 164.326 326.919 164.216C327.195 164.149 327.374 163.981 327.543 163.764C328.263 162.836 328.814 161.657 329.419 160.642C330.52 158.796 331.671 156.978 332.757 155.124Z" fill="#FDFDFD"/>
<path d="M327.031 110.032C326.876 110.096 326.664 110.173 326.569 110.32C326.473 110.47 326.481 110.63 326.498 110.8C326.555 111.357 326.748 111.932 326.87 112.481C327.157 113.773 327.449 115.071 327.674 116.376C326.709 115.63 325.804 114.798 324.852 114.032C324.487 113.739 323.965 113.312 323.465 113.378C323.324 113.397 323.199 113.469 323.121 113.591C323.024 113.742 322.984 113.927 323.028 114.103C323.128 114.497 326.952 117.449 327.529 117.832C326.766 117.991 323.162 118.645 322.832 119.076C322.723 119.218 322.687 119.381 322.716 119.557C322.744 119.729 322.843 119.872 322.989 119.967C323.11 120.045 323.233 120.07 323.377 120.061C323.974 120.022 324.623 119.788 325.214 119.659C325.942 119.5 326.682 119.397 327.412 119.242C326.935 119.98 324.909 122.85 324.858 123.483C324.839 123.715 324.976 123.935 325.122 124.101C325.278 124.171 325.364 124.213 325.535 124.159C326.365 123.897 327.962 120.796 328.462 119.933C328.698 120.863 329.033 123.263 329.512 123.93C329.651 124.123 329.759 124.166 329.979 124.204C330.074 124.165 330.164 124.132 330.24 124.06C330.487 123.825 330.583 123.647 330.608 123.317C330.395 121.973 330.027 120.649 329.673 119.337C330.682 120.03 331.68 120.783 332.646 121.537C333.024 121.832 333.385 122.202 333.791 122.455C333.986 122.577 334.201 122.674 334.43 122.707C334.696 122.744 334.889 122.693 335.101 122.534C335.156 122.416 335.196 122.368 335.177 122.239C335.062 121.434 331.813 119.294 331.024 118.707C331.82 118.645 334.542 118.765 335.06 118.375C335.246 118.235 335.313 118.054 335.322 117.825C335.328 117.676 335.284 117.537 335.178 117.433C335.017 117.277 334.818 117.236 334.601 117.212C334.202 117.168 333.773 117.237 333.369 117.243C332.305 117.258 331.241 117.256 330.177 117.294C330.54 116.426 332.834 113.069 332.753 112.481C332.729 112.302 332.639 112.141 332.488 112.038C332.34 111.936 332.162 111.906 331.989 111.955C331.375 112.129 329.407 115.759 329.003 116.437C328.72 115.238 328.144 111.065 327.617 110.293C327.481 110.093 327.253 110.076 327.031 110.032Z" fill="black"/>
<path d="M144.052 202.497C144.468 202.769 144.752 203.116 144.714 203.625C144.693 204.111 144.402 204.53 143.96 204.705C143.692 204.818 143.414 204.853 143.044 204.958C143.145 205.289 143.273 205.515 143.303 205.753C143.413 206.324 143.181 206.735 142.714 207.034C142.265 207.311 141.828 207.203 141.415 206.952C141.217 206.815 141.048 206.594 140.868 206.435C140.662 206.238 140.544 205.93 140.152 205.858C139.851 206.197 139.513 206.561 139.197 206.942C138.966 207.192 138.734 207.442 138.404 207.543C137.92 207.703 137.491 207.655 137.122 207.277C136.756 206.919 136.722 206.48 136.845 206.002C136.942 205.647 137.36 205.435 137.326 204.996C136.959 204.799 136.577 204.967 136.225 204.889C135.746 204.766 135.355 204.532 135.214 204.046C134.988 203.348 135.351 202.699 136.069 202.47C136.419 202.366 136.838 202.496 137.166 202.214C137.079 202.003 137.01 201.77 136.941 201.537C136.801 200.889 137.008 200.44 137.537 200.154C137.97 199.899 138.48 199.957 138.931 200.345C139.181 200.576 139.414 200.83 139.607 201.088C140.218 201.799 140.243 201.836 140.889 201.032C141.121 200.782 141.33 200.514 141.563 200.284C141.742 200.101 141.966 199.952 142.202 199.903C143.12 199.67 143.92 200.438 143.689 201.353C143.622 201.623 143.45 201.866 143.303 202.146C143.479 202.427 143.811 202.345 144.052 202.497ZM148.295 199.377C147.967 199.498 148.161 201.731 148.374 201.825C148.59 201.94 149.098 201.817 149.495 201.768C150.277 201.733 151.523 201.54 151.889 201.736C152.38 201.958 152.588 202.174 152.713 202.703C152.923 204.572 148.994 204.409 148.782 204.657C148.64 204.815 148.721 205.47 148.762 205.969C148.798 206.589 148.624 207.638 149.056 207.545C151.081 207.135 152.244 207.254 152.417 207.838C152.654 208.292 152.526 208.892 152.272 209.286C151.814 209.987 150.723 209.799 148.631 210.156C147.212 210.411 146.495 209.169 146.359 207.896C146.043 204.832 145.645 201.757 145.387 198.666C145.386 197.679 145.747 197.171 146.71 196.972C148.095 196.762 149.52 196.385 150.931 196.393C152.298 196.528 152.477 198.48 151.179 198.902C150.238 199.118 148.623 199.256 148.295 199.377ZM157.547 203.641C157.793 204.659 157.887 204.929 158.073 204.967C158.566 205.047 159.227 203.374 160.078 201.275C160.699 199.768 161.404 198.291 162.196 196.864C162.261 196.735 162.348 196.624 162.435 196.512C162.577 196.354 162.878 196.015 163.354 195.956C163.614 195.944 163.882 195.992 164.1 196.126C164.725 196.453 164.949 197.13 164.675 197.849C164.597 198.04 164.5 198.233 164.381 198.409C163.058 200.929 161.715 203.452 160.393 205.972C160.129 206.447 159.887 206.941 159.556 207.364C158.606 208.649 157.224 208.557 156.391 207.188C156.191 206.87 156.028 206.528 155.904 206.18C155.082 203.581 154.259 200.982 153.456 198.38C153.426 198.303 153.416 198.224 153.407 198.145C153.291 197.534 153.603 196.952 154.156 196.703C154.633 196.483 155.313 196.601 155.651 197.063C155.99 197.525 156.185 197.965 156.244 198.28C156.588 200.092 157.147 201.857 157.547 203.641ZM169.018 196.832C168.691 196.953 168.884 199.186 169.097 199.281C169.313 199.396 169.822 199.273 170.219 199.224C171 199.188 172.246 198.995 172.613 199.192C173.103 199.414 173.311 199.63 173.437 200.159C173.646 202.027 169.717 201.865 169.505 202.112C169.364 202.271 169.444 202.926 169.485 203.425C169.521 204.045 169.348 205.094 169.779 205C171.805 204.591 172.968 204.71 173.14 205.293C173.377 205.748 173.249 206.348 172.996 206.741C172.538 207.443 171.447 207.254 169.354 207.612C167.935 207.867 167.218 206.625 167.082 205.352C166.766 202.287 166.369 199.213 166.11 196.121C166.11 195.134 166.47 194.626 167.433 194.428C168.818 194.217 170.243 193.841 171.654 193.849C173.021 193.983 173.2 195.936 171.902 196.357C170.961 196.574 169.346 196.711 169.018 196.832ZM181.35 199.63C181.35 199.63 182.364 201.158 182.469 200.863C182.574 200.568 182.567 200.025 182.573 199.742C182.587 197.725 182.604 195.728 182.618 193.712C182.619 193.389 182.657 193.042 182.739 192.73C182.895 192.025 183.451 191.635 184.101 191.676C184.734 191.739 185.216 192.224 185.304 192.939C185.328 193.137 185.333 193.338 185.32 193.561C185.295 195.982 185.27 198.403 185.247 200.844C185.253 201.388 185.24 201.933 185.184 202.464C185.136 202.893 185.024 203.29 184.869 203.672C184.455 204.569 183.551 204.921 182.652 204.488C182.136 204.229 181.651 203.885 181.257 203.47C180.337 202.535 179.49 201.551 178.627 200.589C178.347 200.281 177.84 199.598 177.694 199.555C177.547 199.513 177.566 199.994 177.583 200.133C177.777 201.379 177.97 202.625 178.161 203.85C178.246 204.384 178.394 204.93 178.44 205.468C178.479 205.786 178.441 206.133 178.339 206.448C178.169 206.872 177.801 207.159 177.347 207.235C176.91 207.288 176.467 207.121 176.18 206.754C175.987 206.495 175.849 206.19 175.787 205.855C175.464 204.041 175.16 202.224 174.916 200.4C174.774 199.41 174.752 198.405 174.729 197.401C174.713 196.939 174.776 196.468 174.906 196.049C175.248 195.06 176.226 194.658 177.135 195.171C177.571 195.44 177.953 195.755 178.282 196.138C179.331 197.299 181.35 199.63 181.35 199.63ZM194.658 203.618C194.623 203.502 194.609 203.382 194.577 203.286C194.457 202.474 194.362 201.7 194.245 200.908C193.883 198.132 193.502 195.357 193.161 192.578C193.107 192.303 193.13 191.998 193.176 191.71C193.298 191.232 193.601 190.912 194.11 190.789C194.599 190.669 195.001 190.821 195.367 191.179C195.667 191.485 195.777 191.894 195.848 192.309C196.139 194.51 196.427 196.691 196.717 198.892C196.854 200.004 197.012 201.133 197.149 202.244C197.195 202.622 197.219 202.981 197.206 203.366C197.165 204.016 196.717 204.474 196.124 204.567C195.492 204.664 194.9 204.274 194.658 203.618ZM201.426 193.055C201.277 193.154 201.013 193.468 201.152 193.612C201.291 193.756 201.661 193.489 202.388 193.501C203.114 193.512 203.404 193.9 203.574 194.463C203.721 195.009 203.489 195.582 203 195.864C202.528 196.123 201.659 196.431 201.451 196.538C201.424 196.48 201.504 198.445 201.581 199.403C201.668 200.279 201.736 201.157 201.801 202.016C201.828 202.234 201.832 202.435 201.797 202.641C201.741 203.333 201.239 203.838 200.601 203.896C200.001 203.929 199.401 203.479 199.239 202.814C199.2 202.658 199.18 202.499 199.178 202.318C198.83 199.156 198.624 195.998 198.554 192.803C198.554 192.642 198.555 192.48 198.555 192.319C198.604 191.406 199.099 190.842 199.955 190.596C200.598 190.416 201.244 190.256 201.894 190.136C202.758 189.949 203.626 189.802 204.492 189.635C204.768 189.582 205.068 189.565 205.348 189.551C206.013 189.55 206.575 190.025 206.675 190.677C206.746 191.253 206.412 191.818 205.797 192.055C205.489 192.173 205.176 192.252 204.841 192.313C203.896 192.489 202.95 192.666 202.005 192.843C201.808 192.887 201.615 192.951 201.426 193.055ZM218.48 192.129C218.599 192.437 218.774 192.718 218.986 193.135C219.129 192.815 219.265 192.617 219.338 192.387C219.787 191.123 220.217 189.861 220.644 188.579C220.736 188.346 220.786 188.098 220.881 187.885C221.17 187.285 221.761 187.011 222.341 187.142C222.921 187.272 223.349 187.804 223.363 188.407C223.362 188.729 223.304 189.079 223.202 189.394C223.002 190.063 222.762 190.737 222.543 191.409C221.466 194.624 220.37 197.842 219.292 201.037C219.159 201.436 219.049 201.852 218.853 202.219C218.548 202.861 217.895 203.123 217.286 202.915C216.676 202.708 216.303 202.129 216.398 201.432C216.429 201.187 216.501 200.956 216.593 200.723C216.853 199.885 217.068 199.013 217.413 198.205C217.722 197.441 217.599 196.771 217.268 196.046C216.807 195.075 216.4 194.057 215.995 193.059C215.445 191.696 214.914 190.331 214.386 188.985C214.098 188.275 214.429 187.529 215.112 187.183C215.703 186.909 216.479 187.156 216.84 187.797C217.045 188.155 217.176 188.562 217.324 188.947C217.716 190.007 218.088 191.069 218.48 192.129ZM225.114 189.602C225.43 189.059 225.878 188.602 226.4 188.255C226.566 188.134 229.036 186.42 231.286 187.353C232.282 187.755 233.032 188.61 233.077 188.645C233.76 189.447 234.222 190.418 234.388 191.446C234.817 193.952 234.162 196.168 232.503 198.085C231.956 198.716 231.268 199.184 230.486 199.542C229.266 200.114 227.53 199.925 226.332 198.701C225.614 197.943 225.076 197.002 224.83 195.984C224.739 195.572 224.688 195.155 224.619 194.761C224.31 193.066 224.301 191.838 224.72 190.497C224.823 190.182 224.947 189.884 225.114 189.602ZM230.44 196.384C231.527 195.222 231.957 193.799 231.784 192.229C231.694 191.494 231.452 190.839 230.962 190.295C230.2 189.502 229.086 189.457 228.268 190.182C227.888 190.531 227.594 190.93 227.477 191.448C227.414 191.758 227.314 192.093 227.294 192.417C227.197 193.598 227.14 194.774 227.638 195.881C228.263 197.356 229.314 197.549 230.44 196.384ZM243.702 197.415C243.602 196.762 243.575 196.544 243.471 196.517C243.327 196.494 243.179 196.935 243.05 197.193C242.477 198.271 240.756 199.026 239.316 198.619C238.252 198.326 237.629 197.516 237.394 197.081C237.026 196.381 236.752 195.629 236.578 194.864C236.155 193.062 236.109 191.214 236.024 189.371C236.025 189.209 236.042 189.026 236.085 188.88C236.218 188.319 236.712 187.916 237.253 187.89C237.796 187.884 238.265 188.088 238.469 188.607C238.617 188.992 238.728 189.401 238.74 189.823C238.837 190.778 238.914 191.736 238.952 192.699C239.053 195.326 239.258 195.684 239.543 195.87C239.889 196.07 240.391 196.048 240.711 195.868C241.143 195.613 241.378 194.738 241.806 192.973C241.804 192.953 241.821 192.931 241.836 192.889C241.889 192.661 242.034 192.038 242.225 190.967C242.325 190.471 242.47 190.01 242.551 189.516C242.611 189.187 242.711 188.852 242.855 188.552C243.097 188.059 243.532 187.824 244.077 187.838C244.645 187.869 245.136 188.252 245.281 188.778C245.362 189.111 245.404 189.448 245.425 189.788C245.566 192.249 245.925 194.684 246.387 197.126C246.475 197.518 246.526 197.935 246.558 198.354C246.595 199.155 246.16 199.713 245.468 199.818C244.753 199.905 244.206 199.55 243.987 198.75C243.952 198.634 243.871 198.462 243.702 197.415ZM257.261 187.368C257.261 187.368 257.259 186.864 257.116 186.841C256.994 186.836 255.629 187.044 255.264 187.19C254.956 187.308 254.624 187.389 254.281 187.391C253.721 187.42 253.215 187.079 253.028 186.537C252.833 185.937 253.003 185.352 253.565 185.001C253.848 184.845 254.153 184.707 254.488 184.645C256.074 184.269 257.663 183.913 259.254 183.577C260.157 183.385 261.06 183.194 261.969 183.042C262.343 182.976 262.706 182.971 263.073 183.007C263.628 183.1 263.979 183.5 264.063 184.014C264.168 184.545 263.986 185.031 263.497 185.312C263.154 185.475 262.806 185.599 262.434 185.685C261.632 185.884 260.823 186.024 259.96 186.21C259.971 186.632 259.951 186.957 259.99 187.274C260.151 189.411 260.333 191.544 260.492 193.661C260.548 194.117 260.544 194.581 260.521 195.048C260.428 195.764 259.955 196.185 259.276 196.228C258.613 196.249 258.031 195.776 257.951 195.121C257.799 194.052 257.745 192.95 257.653 191.874C257.413 189.263 257.261 187.368 257.261 187.368ZM272.252 193.889C272.041 192.988 271.891 191.113 271.744 191.231C271.749 191.11 271.347 191.28 271.233 191.334C270.463 191.631 269.098 192 268.924 192.223C268.73 192.448 269.119 193.972 269.089 194.882C269.059 196.276 267.057 196.542 266.6 195.289C265.825 191.596 265.741 187.797 265.283 184.065C265.153 183.336 265.566 182.6 266.289 182.411C267.405 182.153 267.976 183.191 268.039 184.191C268.211 185.922 267.749 189.546 268.511 189.351C269.253 189.16 270.931 188.873 271.311 188.363C271.675 187.875 270.79 183.953 271.229 181.784C271.322 181.39 271.605 181.073 271.99 180.925C272.375 180.777 272.804 180.825 273.131 181.026C273.758 181.373 273.744 182.08 273.76 182.702C273.849 186.218 274.318 189.706 274.766 193.198C274.803 193.496 274.758 193.783 274.65 194.058C274.221 195.159 272.572 195.019 272.252 193.889ZM276.911 193.519C276.877 193.402 276.862 193.283 276.83 193.186C276.71 192.375 276.615 191.601 276.498 190.809C276.137 188.032 275.756 185.258 275.415 182.479C275.361 182.203 275.384 181.898 275.429 181.611C275.552 181.132 275.855 180.813 276.364 180.69C276.853 180.569 277.254 180.722 277.621 181.08C277.92 181.385 278.031 181.795 278.102 182.209C278.392 184.41 278.68 186.592 278.971 188.793C279.107 189.904 279.266 191.033 279.402 192.145C279.449 192.522 279.473 192.882 279.459 193.266C279.418 193.916 278.971 194.374 278.378 194.467C277.745 194.565 277.153 194.174 276.911 193.519ZM287.099 186.646C287.099 186.646 288.113 188.174 288.218 187.879C288.322 187.584 288.316 187.041 288.322 186.758C288.336 184.741 288.353 182.744 288.367 180.727C288.368 180.405 288.406 180.058 288.488 179.745C288.644 179.041 289.2 178.65 289.85 178.691C290.482 178.755 290.965 179.24 291.053 179.954C291.077 180.153 291.082 180.354 291.069 180.577C291.044 182.998 291.019 185.419 290.996 187.86C291.002 188.403 290.989 188.949 290.933 189.48C290.885 189.909 290.772 190.306 290.618 190.687C290.204 191.584 289.3 191.937 288.401 191.504C287.885 191.244 287.4 190.901 287.006 190.486C286.085 189.551 285.239 188.567 284.376 187.605C284.096 187.297 283.589 186.614 283.443 186.571C283.296 186.529 283.315 187.01 283.332 187.149C283.525 188.395 283.719 189.64 283.909 190.866C283.995 191.4 284.143 191.946 284.189 192.484C284.228 192.802 284.19 193.149 284.087 193.464C283.918 193.888 283.55 194.175 283.096 194.251C282.659 194.304 282.215 194.137 281.929 193.769C281.736 193.511 281.597 193.205 281.536 192.87C281.213 191.056 280.909 189.24 280.665 187.416C280.523 186.426 280.5 185.421 280.478 184.416C280.461 183.955 280.525 183.484 280.654 183.065C280.996 182.076 281.975 181.673 282.884 182.186C283.32 182.455 283.701 182.771 284.03 183.154C285.08 184.315 287.099 186.646 287.099 186.646ZM295.73 178.977C295.791 179.634 295.792 180.299 295.837 181.16C296.178 180.816 296.376 180.631 296.575 180.445C297.197 179.764 297.796 179.066 298.44 178.402C298.634 178.177 298.853 177.989 299.119 177.856C299.645 177.549 300.305 177.67 300.723 178.122C301.057 178.545 301.138 179.2 300.831 179.66C300.662 179.923 300.411 180.175 300.177 180.406C299.697 180.928 299.173 181.416 298.772 182.089C299.204 182.983 299.619 183.9 300.071 184.791C300.577 185.797 301.121 186.778 301.647 187.781C301.803 188.065 301.961 188.368 302.079 188.675C302.301 189.333 302.059 189.988 301.495 190.319C300.949 190.628 300.245 190.472 299.814 189.921C299.594 189.605 299.394 189.287 299.231 188.945C298.574 187.695 297.914 186.426 297.257 185.177C297.109 184.953 296.96 184.73 296.814 184.526L296.026 185.328C296.125 186.787 296.203 188.248 296.282 189.71C296.328 190.409 296.376 191.129 296.402 191.831C296.416 192.111 296.373 192.419 296.286 192.691C296.118 193.135 295.713 193.447 295.235 193.485C294.696 193.531 294.228 193.327 293.986 192.833C293.847 192.527 293.766 192.195 293.747 191.875C293.6 189.858 293.456 187.86 293.351 185.858C293.234 183.596 293.16 181.348 293.043 179.085C293.014 178.686 293.052 178.339 293.274 178.009C293.816 177.177 294.965 177.177 295.452 178.024C295.61 178.327 295.711 178.657 295.73 178.977ZM114.723 225.019C114.841 225.327 115.017 225.608 115.229 226.025C115.371 225.705 115.508 225.507 115.581 225.277C116.03 224.013 116.459 222.751 116.886 221.469C116.979 221.236 117.029 220.988 117.123 220.775C117.413 220.175 118.004 219.901 118.584 220.032C119.164 220.162 119.592 220.694 119.606 221.297C119.605 221.619 119.547 221.969 119.445 222.284C119.245 222.953 119.005 223.627 118.785 224.299C117.709 227.514 116.613 230.732 115.534 233.927C115.402 234.326 115.292 234.742 115.095 235.109C114.791 235.751 114.138 236.013 113.528 235.805C112.919 235.598 112.545 235.019 112.641 234.322C112.671 234.077 112.744 233.846 112.836 233.613C113.096 232.775 113.311 231.903 113.655 231.095C113.965 230.331 113.842 229.661 113.511 228.936C113.049 227.965 112.642 226.947 112.238 225.949C111.687 224.586 111.157 223.221 110.629 221.875C110.34 221.165 110.672 220.419 111.355 220.073C111.946 219.799 112.722 220.046 113.083 220.687C113.288 221.045 113.418 221.452 113.566 221.837C113.958 222.897 114.331 223.959 114.723 225.019ZM121.357 222.492C121.673 221.949 122.121 221.492 122.642 221.145C122.809 221.024 125.278 219.31 127.529 220.243C128.525 220.645 129.275 221.5 129.32 221.535C130.002 222.337 130.464 223.308 130.631 224.336C131.059 226.842 130.405 229.058 128.746 230.975C128.199 231.606 127.51 232.074 126.728 232.432C125.509 233.004 123.773 232.815 122.575 231.591C121.857 230.833 121.318 229.892 121.073 228.874C120.982 228.462 120.931 228.045 120.862 227.651C120.553 225.956 120.543 224.728 120.963 223.387C121.065 223.072 121.19 222.774 121.357 222.492ZM126.683 229.273C127.77 228.112 128.199 226.689 128.027 225.119C127.937 224.384 127.695 223.729 127.205 223.185C126.443 222.392 125.329 222.347 124.511 223.072C124.131 223.421 123.837 223.82 123.719 224.338C123.657 224.648 123.557 224.983 123.536 225.307C123.439 226.488 123.382 227.664 123.881 228.771C124.505 230.246 125.557 230.439 126.683 229.273ZM139.944 230.305C139.844 229.652 139.817 229.434 139.713 229.407C139.569 229.384 139.422 229.825 139.293 230.083C138.72 231.161 136.999 231.916 135.558 231.509C134.495 231.216 133.872 230.406 133.637 229.971C133.269 229.271 132.995 228.519 132.821 227.754C132.398 225.952 132.352 224.104 132.267 222.261C132.267 222.099 132.285 221.916 132.328 221.77C132.46 221.209 132.955 220.806 133.496 220.78C134.039 220.774 134.507 220.978 134.712 221.497C134.86 221.882 134.971 222.291 134.982 222.713C135.079 223.668 135.157 224.626 135.194 225.589C135.295 228.216 135.5 228.574 135.785 228.76C136.132 228.96 136.633 228.938 136.954 228.758C137.386 228.503 137.621 227.628 138.049 225.863C138.047 225.843 138.064 225.821 138.079 225.779C138.132 225.551 138.277 224.928 138.468 223.857C138.568 223.361 138.713 222.9 138.793 222.406C138.854 222.077 138.954 221.742 139.098 221.442C139.34 220.949 139.774 220.714 140.32 220.728C140.888 220.759 141.378 221.142 141.524 221.668C141.605 222.001 141.646 222.338 141.668 222.678C141.809 225.139 142.168 227.574 142.629 230.016C142.718 230.408 142.769 230.825 142.8 231.244C142.838 232.045 142.403 232.603 141.71 232.708C140.996 232.795 140.448 232.44 140.229 231.64C140.195 231.524 140.113 231.352 139.944 230.305ZM150.269 224.604C150.06 224.872 149.824 225.082 149.515 225.362C150.117 225.832 150.749 226.057 151.329 226.348C151.847 226.627 152.397 226.842 152.88 227.165C153.358 227.449 153.499 227.936 153.403 228.471C153.325 228.984 152.98 229.289 152.538 229.464C152.23 229.582 151.88 229.525 151.434 229.338C150.718 229.083 150.5 228.787 149.646 228.227C148.085 227.17 147.663 227.342 147.551 227.416C147.497 227.463 147.459 227.488 147.407 227.555C147.466 228.031 147.537 228.446 147.565 228.845C147.619 229.443 147.417 229.932 146.868 230.221C146.585 230.376 146.227 230.42 145.893 230.32C145.578 230.218 145.308 229.989 145.15 229.686C144.992 229.383 144.893 229.073 144.812 228.74C144.173 225.998 143.792 223.223 143.55 220.432C143.388 218.618 143.542 218.398 145.206 217.67C146.658 217.028 148.122 216.969 149.589 217.595C151.8 218.532 152.641 220.787 151.53 222.898C151.204 223.522 150.704 224.047 150.269 224.604ZM148.814 220.31C148.123 219.931 147.498 219.766 146.773 220.097C146.525 220.208 146.373 220.448 146.368 220.731C146.344 221.197 146.361 221.659 146.417 222.115C146.495 222.589 146.591 223.041 146.679 223.433C146.716 223.57 146.79 223.681 146.917 223.726C147.043 223.771 147.182 223.754 147.294 223.68C147.537 223.529 147.776 223.339 147.995 223.151C148.362 222.864 148.683 222.522 148.939 222.148C149.061 221.992 149.159 221.799 149.236 221.608C149.45 221.058 149.31 220.571 148.814 220.31ZM168.422 227.393C168.1 227.07 167.831 226.68 167.472 226.22C167.015 226.437 166.633 226.605 166.248 226.753C164.575 227.402 162.844 226.929 161.781 225.488C161.491 225.1 161.256 224.666 161.061 224.226C160.639 223.25 160.596 222.409 160.556 221.588C160.556 221.588 160.446 219.546 161.028 217.883C161.175 217.442 161.367 217.035 161.367 217.035C161.559 216.629 161.796 216.257 162.079 215.94C162.415 215.557 163.026 215.119 163.801 214.863C164.56 214.648 165.342 214.613 166.105 214.761C166.852 214.931 167.536 215.25 168.138 215.72C168.762 216.208 169.281 216.829 169.649 217.53C170.151 218.496 170.384 219.575 170.335 220.649C170.28 221.845 169.871 222.943 169.342 224.056C169.543 224.374 169.74 224.672 169.941 224.99C170.116 225.27 170.329 225.526 170.487 225.829C170.853 226.51 170.715 227.192 170.121 227.607C169.602 227.973 168.91 227.917 168.422 227.393ZM164.599 224.316C165.01 224.386 165.427 224.335 165.788 223.827C165.491 223.38 165.182 222.995 164.927 222.563C164.614 221.977 164.697 221.342 165.132 220.946C165.547 220.552 166.182 220.474 166.745 220.788C166.983 220.92 167.205 221.094 167.473 221.303C167.613 220.963 167.67 220.614 167.666 220.252C167.664 220.232 167.656 220.172 167.671 220.13C167.63 219.793 167.546 219.44 167.428 219.132C167.233 218.693 167.001 218.117 166.412 217.746C166.062 217.527 165.683 217.392 165.256 217.364C164.934 217.363 164.604 217.464 164.348 217.677C164.256 217.749 164.186 217.838 164.116 217.927C163.942 218.15 163.813 218.408 163.728 218.7C163.443 219.501 163.283 220.326 163.268 221.195C163.262 221.961 163.285 222.805 163.747 223.614C163.95 223.952 164.207 224.243 164.599 224.316ZM179.549 225.442C179.449 224.79 179.422 224.571 179.318 224.544C179.174 224.521 179.027 224.962 178.897 225.22C178.325 226.298 176.604 227.053 175.163 226.646C174.1 226.353 173.476 225.543 173.242 225.108C172.874 224.408 172.6 223.656 172.425 222.891C172.003 221.089 171.957 219.241 171.872 217.398C171.872 217.237 171.89 217.053 171.932 216.907C172.065 216.346 172.56 215.943 173.101 215.917C173.644 215.911 174.112 216.115 174.317 216.634C174.465 217.019 174.576 217.429 174.587 217.85C174.684 218.806 174.762 219.763 174.799 220.726C174.9 223.353 175.105 223.711 175.39 223.898C175.737 224.097 176.238 224.076 176.559 223.895C176.991 223.641 177.226 222.765 177.654 221C177.651 220.98 177.669 220.958 177.684 220.916C177.736 220.688 177.882 220.065 178.073 218.994C178.173 218.498 178.318 218.037 178.398 217.544C178.458 217.214 178.558 216.879 178.703 216.579C178.945 216.086 179.379 215.851 179.925 215.865C180.493 215.896 180.983 216.279 181.129 216.805C181.21 217.138 181.251 217.475 181.273 217.815C181.414 220.276 181.773 222.711 182.234 225.153C182.323 225.545 182.374 225.962 182.405 226.381C182.443 227.182 182.008 227.74 181.315 227.845C180.601 227.933 180.053 227.577 179.834 226.777C179.8 226.661 179.718 226.489 179.549 225.442ZM186.014 214.896C185.687 215.016 185.88 217.25 186.093 217.344C186.309 217.459 186.818 217.336 187.215 217.287C187.996 217.252 189.242 217.058 189.609 217.255C190.099 217.477 190.307 217.693 190.433 218.222C190.642 220.09 186.713 219.928 186.501 220.176C186.36 220.334 186.44 220.989 186.481 221.488C186.517 222.108 186.344 223.157 186.775 223.064C188.801 222.654 189.964 222.773 190.136 223.356C190.373 223.811 190.245 224.411 189.992 224.805C189.534 225.506 188.443 225.317 186.351 225.675C184.931 225.93 184.214 224.688 184.078 223.415C183.762 220.351 183.365 217.276 183.106 214.185C183.106 213.197 183.467 212.69 184.429 212.491C185.814 212.281 187.239 211.904 188.65 211.912C190.017 212.047 190.196 213.999 188.898 214.421C187.957 214.637 186.342 214.775 186.014 214.896ZM194.918 221.218C195.362 221.062 196.199 220.819 196.279 220.325C196.292 220.263 196.287 220.223 196.28 220.164C196.184 219.712 195.383 219.589 195.321 219.576C194.701 219.451 194.096 219.283 193.504 219.054C191.028 218.088 190.921 215.744 191.803 214.225C192.799 212.491 194.344 211.616 196.294 211.417C196.691 211.368 197.127 211.476 197.524 211.588C198.114 211.798 198.428 212.384 198.362 212.997C198.294 213.589 197.841 214.008 197.166 214.091C196.749 214.142 196.548 214.146 196.166 214.153C195.846 214.172 194.484 214.239 194.053 214.997C193.971 215.148 193.851 215.485 193.982 216.053C194.152 216.456 194.469 216.578 194.801 216.658C195.364 216.81 195.944 216.941 196.49 217.116C197.038 217.31 197.605 217.503 198.086 217.806C199.312 218.603 199.651 220.052 198.941 221.328C198.598 221.975 198.093 222.46 197.499 222.875C196.665 223.462 195.743 223.837 194.77 224.117C194.11 224.319 193.451 224.038 193.162 223.489C192.801 222.848 193.048 222.072 193.766 221.682C193.937 221.6 194.089 221.521 194.243 221.462C194.548 221.324 194.724 221.282 194.918 221.218ZM203.964 214.062C203.964 214.062 203.963 213.558 203.819 213.536C203.698 213.53 202.333 213.738 201.968 213.884C201.66 214.002 201.327 214.083 200.985 214.085C200.424 214.114 199.919 213.773 199.732 213.232C199.537 212.631 199.707 212.046 200.268 211.695C200.551 211.539 200.857 211.401 201.192 211.339C202.778 210.963 204.366 210.607 205.957 210.271C206.861 210.079 207.764 209.888 208.672 209.736C209.047 209.67 209.409 209.666 209.776 209.701C210.332 209.794 210.683 210.194 210.766 210.708C210.872 211.239 210.69 211.725 210.2 212.007C209.858 212.17 209.51 212.293 209.138 212.379C208.336 212.578 207.527 212.718 206.663 212.904C206.675 213.326 206.654 213.651 206.693 213.969C206.855 216.105 207.036 218.239 207.195 220.355C207.251 220.812 207.248 221.275 207.225 221.742C207.131 222.459 206.659 222.879 205.979 222.922C205.317 222.943 204.735 222.471 204.654 221.816C204.503 220.746 204.448 219.645 204.356 218.568C204.116 215.957 203.964 214.062 203.964 214.062ZM214.019 221.391C213.984 221.275 213.97 221.155 213.938 221.059C213.818 220.247 213.723 219.473 213.606 218.681C213.244 215.905 212.864 213.13 212.522 210.351C212.468 210.076 212.491 209.771 212.537 209.483C212.659 209.005 212.963 208.685 213.471 208.562C213.96 208.442 214.362 208.594 214.728 208.952C215.028 209.258 215.138 209.667 215.21 210.082C215.5 212.283 215.788 214.464 216.078 216.665C216.215 217.777 216.374 218.906 216.51 220.017C216.556 220.395 216.58 220.754 216.567 221.139C216.526 221.789 216.078 222.247 215.485 222.34C214.853 222.437 214.261 222.047 214.019 221.391ZM218.266 210.593C218.582 210.051 219.03 209.593 219.551 209.246C219.718 209.125 222.187 207.411 224.438 208.344C225.434 208.746 226.184 209.601 226.229 209.636C226.911 210.438 227.373 211.409 227.54 212.437C227.968 214.943 227.314 217.159 225.655 219.076C225.108 219.707 224.419 220.175 223.637 220.533C222.418 221.105 220.682 220.916 219.484 219.693C218.766 218.934 218.227 217.993 217.982 216.975C217.891 216.563 217.839 216.146 217.771 215.752C217.462 214.057 217.452 212.829 217.872 211.488C217.974 211.173 218.099 210.876 218.266 210.593ZM223.592 217.375C224.679 216.213 225.108 214.791 224.936 213.22C224.846 212.485 224.604 211.83 224.114 211.286C223.352 210.493 222.238 210.448 221.42 211.173C221.04 211.522 220.746 211.921 220.628 212.439C220.566 212.749 220.466 213.084 220.445 213.409C220.348 214.589 220.291 215.765 220.79 216.872C221.414 218.347 222.466 218.541 223.592 217.375ZM235.799 213.095C235.799 213.095 236.813 214.623 236.918 214.328C237.023 214.033 237.016 213.49 237.022 213.207C237.036 211.19 237.053 209.193 237.067 207.176C237.068 206.854 237.106 206.507 237.189 206.194C237.344 205.49 237.9 205.099 238.55 205.14C239.183 205.204 239.665 205.689 239.753 206.403C239.778 206.602 239.782 206.803 239.769 207.026C239.744 209.447 239.719 211.868 239.696 214.309C239.703 214.852 239.689 215.398 239.633 215.929C239.585 216.358 239.473 216.755 239.318 217.136C238.904 218.033 238.001 218.386 237.101 217.953C236.586 217.693 236.1 217.35 235.707 216.935C234.786 216 233.94 215.016 233.076 214.054C232.796 213.746 232.289 213.063 232.143 213.02C231.997 212.978 232.015 213.459 232.032 213.598C232.226 214.844 232.419 216.089 232.61 217.315C232.695 217.849 232.843 218.395 232.889 218.933C232.928 219.251 232.89 219.598 232.788 219.913C232.618 220.337 232.25 220.624 231.796 220.7C231.359 220.753 230.916 220.586 230.629 220.218C230.436 219.96 230.298 219.654 230.236 219.319C229.913 217.505 229.609 215.689 229.365 213.865C229.223 212.875 229.201 211.87 229.178 210.865C229.162 210.404 229.225 209.933 229.355 209.514C229.697 208.525 230.675 208.122 231.584 208.635C232.02 208.904 232.402 209.22 232.731 209.603C233.78 210.764 235.799 213.095 235.799 213.095ZM249.107 217.083C249.072 216.966 249.058 216.847 249.026 216.75C248.906 215.939 248.811 215.165 248.694 214.373C248.333 211.596 247.952 208.822 247.61 206.043C247.556 205.768 247.579 205.462 247.625 205.175C247.747 204.696 248.051 204.377 248.559 204.254C249.048 204.134 249.45 204.286 249.816 204.644C250.116 204.95 250.227 205.359 250.298 205.774C250.588 207.975 250.876 210.156 251.166 212.357C251.303 213.468 251.462 214.597 251.598 215.709C251.644 216.086 251.668 216.446 251.655 216.83C251.614 217.48 251.167 217.938 250.573 218.031C249.941 218.129 249.349 217.738 249.107 217.083ZM255.925 213.727C256.369 213.572 257.206 213.328 257.286 212.834C257.299 212.772 257.294 212.733 257.286 212.673C257.191 212.222 256.39 212.098 256.328 212.086C255.708 211.96 255.103 211.793 254.51 211.563C252.034 210.598 251.928 208.253 252.809 206.735C253.805 205 255.35 204.125 257.301 203.926C257.698 203.878 258.134 203.985 258.531 204.098C259.121 204.307 259.434 204.893 259.369 205.506C259.3 206.099 258.848 206.517 258.173 206.6C257.756 206.651 257.555 206.656 257.173 206.662C256.853 206.681 255.491 206.748 255.06 207.506C254.978 207.657 254.858 207.994 254.988 208.563C255.159 208.965 255.476 209.087 255.808 209.167C256.371 209.32 256.951 209.45 257.497 209.625C258.044 209.82 258.612 210.012 259.093 210.316C260.319 211.112 260.658 212.561 259.948 213.838C259.604 214.484 259.1 214.969 258.506 215.385C257.671 215.971 256.75 216.346 255.777 216.627C255.117 216.829 254.457 216.547 254.168 215.998C253.808 215.357 254.055 214.581 254.773 214.191C254.944 214.109 255.096 214.03 255.249 213.971C255.555 213.833 255.731 213.791 255.925 213.727ZM271.142 211.859C271.587 211.703 272.423 211.459 272.504 210.966C272.516 210.904 272.512 210.864 272.504 210.805C272.408 210.353 271.607 210.23 271.545 210.217C270.926 210.092 270.321 209.924 269.728 209.695C267.252 208.729 267.146 206.385 268.027 204.866C269.023 203.132 270.568 202.257 272.518 202.058C272.915 202.009 273.352 202.117 273.748 202.229C274.338 202.439 274.652 203.025 274.586 203.638C274.518 204.23 274.066 204.649 273.391 204.731C272.974 204.783 272.773 204.787 272.391 204.794C272.071 204.813 270.709 204.879 270.278 205.638C270.196 205.789 270.076 206.126 270.206 206.694C270.376 207.096 270.694 207.219 271.026 207.299C271.589 207.451 272.169 207.582 272.714 207.756C273.262 207.951 273.83 208.143 274.31 208.447C275.537 209.244 275.876 210.693 275.166 211.969C274.822 212.616 274.318 213.101 273.724 213.516C272.889 214.102 271.968 214.477 270.995 214.758C270.334 214.96 269.675 214.678 269.386 214.129C269.025 213.489 269.273 212.713 269.99 212.322C270.162 212.241 270.313 212.162 270.467 212.103C270.773 211.964 270.949 211.923 271.142 211.859ZM280.189 204.703C280.189 204.703 280.187 204.199 280.044 204.176C279.922 204.171 278.557 204.379 278.192 204.525C277.884 204.643 277.552 204.724 277.209 204.726C276.649 204.755 276.143 204.414 275.956 203.872C275.761 203.272 275.931 202.687 276.493 202.335C276.776 202.18 277.081 202.042 277.416 201.98C279.002 201.604 280.591 201.248 282.182 200.912C283.085 200.72 283.988 200.529 284.897 200.377C285.271 200.311 285.634 200.306 286.001 200.342C286.556 200.435 286.908 200.835 286.991 201.349C287.096 201.88 286.914 202.366 286.425 202.647C286.082 202.81 285.735 202.934 285.362 203.02C284.561 203.219 283.752 203.358 282.888 203.545C282.899 203.967 282.879 204.292 282.918 204.609C283.079 206.746 283.261 208.879 283.42 210.996C283.476 211.452 283.472 211.916 283.449 212.383C283.356 213.099 282.883 213.52 282.204 213.563C281.541 213.584 280.959 213.111 280.879 212.456C280.727 211.387 280.673 210.285 280.581 209.209C280.341 206.598 280.189 204.703 280.189 204.703ZM294.914 211.277C294.813 210.625 294.786 210.406 294.682 210.379C294.538 210.356 294.391 210.797 294.262 211.055C293.689 212.133 291.968 212.888 290.527 212.481C289.464 212.188 288.841 211.378 288.606 210.943C288.238 210.243 287.964 209.491 287.79 208.726C287.367 206.924 287.321 205.076 287.236 203.233C287.236 203.072 287.254 202.888 287.297 202.742C287.429 202.182 287.924 201.778 288.465 201.752C289.008 201.746 289.476 201.95 289.681 202.469C289.829 202.854 289.94 203.264 289.951 203.685C290.048 204.641 290.126 205.598 290.163 206.561C290.264 209.188 290.469 209.546 290.754 209.733C291.101 209.932 291.602 209.911 291.923 209.73C292.355 209.476 292.59 208.6 293.018 206.835C293.016 206.815 293.033 206.793 293.048 206.751C293.101 206.523 293.246 205.9 293.437 204.829C293.537 204.333 293.682 203.872 293.762 203.379C293.823 203.049 293.923 202.714 294.067 202.414C294.309 201.921 294.743 201.686 295.289 201.7C295.857 201.731 296.348 202.114 296.493 202.64C296.574 202.973 296.615 203.31 296.637 203.65C296.778 206.112 297.137 208.546 297.598 210.988C297.687 211.38 297.738 211.797 297.769 212.216C297.807 213.018 297.372 213.575 296.679 213.68C295.965 213.768 295.417 213.412 295.198 212.612C295.164 212.496 295.082 212.324 294.914 211.277ZM303.073 207.313C302.728 207.456 302.383 207.6 301.961 207.772C302.039 208.407 302.097 208.884 302.158 209.38C302.2 209.718 302.301 210.048 302.3 210.37C302.336 210.991 301.918 211.525 301.332 211.678C300.727 211.833 300.134 211.603 299.86 211.012C299.672 210.632 299.564 210.243 299.513 209.826C299.277 207.9 299.062 205.992 298.888 204.079C298.774 202.824 298.762 201.576 298.648 200.32C298.575 199.564 298.854 199.046 299.426 198.613C300.201 198.034 301.107 197.862 302.027 197.81C303.506 197.709 304.862 198.086 306.021 198.992C307.651 200.283 308.051 202.229 307.087 204.06C306.676 204.816 306.126 205.427 305.465 205.952C304.727 206.506 303.917 206.968 303.073 207.313ZM301.696 205.125C302.305 204.828 302.888 204.495 303.445 204.104C303.537 204.032 303.741 203.886 303.977 203.676C304.34 203.349 304.521 203.186 304.69 202.923C304.807 202.728 305.024 202.359 304.928 201.907C304.869 201.592 304.664 201.395 304.481 201.216C304.092 200.841 303.579 200.602 303.048 200.546C302.721 200.505 302.401 200.525 302.086 200.583C301.87 200.63 301.654 200.677 301.44 200.743C301.426 201.773 301.453 202.817 301.558 203.832C301.591 204.271 301.645 204.708 301.696 205.125ZM310.017 209.604C309.982 209.487 309.968 209.368 309.936 209.272C309.816 208.46 309.721 207.686 309.603 206.894C309.242 204.118 308.861 201.343 308.52 198.564C308.466 198.289 308.489 197.984 308.534 197.696C308.657 197.218 308.96 196.898 309.469 196.775C309.958 196.655 310.36 196.807 310.726 197.165C311.026 197.471 311.136 197.88 311.207 198.295C311.498 200.496 311.786 202.677 312.076 204.878C312.213 205.99 312.371 207.119 312.508 208.23C312.554 208.607 312.578 208.967 312.565 209.352C312.524 210.002 312.076 210.46 311.483 210.552C310.85 210.65 310.258 210.26 310.017 209.604ZM314.775 208.899C314.283 207.025 313.477 200.132 313.193 198.635C312.964 197.434 313.4 196.716 314.78 196.304C320.542 194.65 324.045 201.353 321.185 205.795C320.092 207.4 318.286 209.758 316.162 209.857C315.418 209.868 314.96 209.582 314.775 208.899ZM316.028 198.751C315.988 199.743 316.662 204.577 317.142 206.513C318.76 205.085 319.836 203.341 319.423 201.296C319.156 199.777 317.711 198.343 316.028 198.751ZM331.874 199.586C332.29 199.857 332.575 200.205 332.536 200.713C332.515 201.2 332.224 201.618 331.782 201.793C331.514 201.907 331.236 201.941 330.866 202.047C330.967 202.377 331.096 202.603 331.125 202.841C331.236 203.412 331.004 203.823 330.537 204.122C330.087 204.399 329.651 204.292 329.237 204.04C329.039 203.903 328.871 203.682 328.69 203.523C328.485 203.327 328.366 203.019 327.974 202.946C327.674 203.285 327.335 203.649 327.02 204.03C326.788 204.281 326.557 204.531 326.227 204.632C325.743 204.792 325.314 204.744 324.945 204.366C324.579 204.008 324.545 203.569 324.667 203.09C324.765 202.736 325.182 202.523 325.148 202.084C324.782 201.887 324.399 202.055 324.047 201.977C323.569 201.855 323.177 201.621 323.037 201.134C322.81 200.437 323.174 199.788 323.891 199.558C324.241 199.455 324.66 199.585 324.988 199.303C324.902 199.092 324.833 198.858 324.764 198.625C324.624 197.977 324.831 197.529 325.36 197.242C325.792 196.988 326.303 197.046 326.754 197.434C327.004 197.665 327.236 197.918 327.429 198.177C328.04 198.888 328.065 198.925 328.712 198.12C328.943 197.87 329.152 197.603 329.386 197.372C329.565 197.189 329.788 197.041 330.024 196.992C330.942 196.758 331.742 197.526 331.512 198.441C331.444 198.712 331.273 198.954 331.126 199.234C331.301 199.515 331.634 199.434 331.874 199.586Z" fill="black"/>
</svg>
